<?xml version="1.0" encoding="UTF-8" standalone="no"?>
<!DOCTYPE svg PUBLIC "-//W3C//DTD SVG 1.1//EN"
"http://www.w3.org/Graphics/SVG/1.1/DTD/svg11.dtd">
<svg viewBox="0 0 660 990" version="1.1" xmlns="http://www.w3.org/2000/svg" xmlns:xlink="http://www.w3.org/1999/xlink">
<defs>
<style type="text/css"><![CDATA[
.g0_217{
fill: #FFF;
}
.g1_217{
fill: none;
stroke: #231F20;
stroke-width: 2.75;
}
.g2_217{
fill: none;
stroke: #949698;
stroke-width: 0.763;
}
]]></style>
</defs>
<path d="M508.6 675.7c0 104.8 -84.9 189.7 -189.6 189.7C214.2 865.4 129.3 780.5 129.3 675.7C129.3 571 214.2 486.1 319 486.1c104.7 0 189.6 84.9 189.6 189.6Z" class="g0_217"/>
<path d="M508.6 675.7c0 104.8 -84.9 189.7 -189.6 189.7C214.2 865.4 129.3 780.5 129.3 675.7C129.3 571 214.2 486.1 319 486.1c104.7 0 189.6 84.9 189.6 189.6Z" class="g1_217"/>
<path d="M470.7 675.7c0 83.8 -67.9 151.7 -151.7 151.7c-83.8 0 -151.7 -67.9 -151.7 -151.7C167.3 591.9 235.2 524 319 524c83.8 0 151.7 67.9 151.7 151.7Z" class="g0_217"/>
<path d="M470.7 675.7c0 83.8 -67.9 151.7 -151.7 151.7c-83.8 0 -151.7 -67.9 -151.7 -151.7C167.3 591.9 235.2 524 319 524c83.8 0 151.7 67.9 151.7 151.7Z" class="g1_217"/>
<path d="M425.2 675.7c0 58.7 -47.6 106.2 -106.2 106.2c-58.7 0 -106.2 -47.5 -106.2 -106.2c0 -58.6 47.5 -106.2 106.2 -106.2c58.6 0 106.2 47.6 106.2 106.2Z" class="g0_217"/>
<path d="M425.2 675.7c0 58.7 -47.6 106.2 -106.2 106.2c-58.7 0 -106.2 -47.5 -106.2 -106.2c0 -58.6 47.5 -106.2 106.2 -106.2c58.6 0 106.2 47.6 106.2 106.2Z" class="g1_217"/>
<path d="M372.1 675.7c0 29.4 -23.8 53.1 -53.1 53.1c-29.3 0 -53.1 -23.7 -53.1 -53.1c0 -29.3 23.8 -53.1 53.1 -53.1c29.3 0 53.1 23.8 53.1 53.1Z" class="g0_217"/>
<path d="M372.1 675.7c0 29.4 -23.8 53.1 -53.1 53.1c-29.3 0 -53.1 -23.7 -53.1 -53.1c0 -29.3 23.8 -53.1 53.1 -53.1c29.3 0 53.1 23.8 53.1 53.1Z" class="g1_217"/>
<path d="M318.5 969.1h23" class="g2_217"/>
</svg>