<?xml version="1.0" encoding="UTF-8" standalone="no"?>
<!DOCTYPE svg PUBLIC "-//W3C//DTD SVG 1.1//EN"
"http://www.w3.org/Graphics/SVG/1.1/DTD/svg11.dtd">
<svg viewBox="0 0 660 990" version="1.1" xmlns="http://www.w3.org/2000/svg" xmlns:xlink="http://www.w3.org/1999/xlink">
<defs>
<style type="text/css"><![CDATA[
.g0_170{
fill: none;
stroke: #949698;
stroke-width: 0.763;
}
.g1_170{
fill: #FFF;
}
.g2_170{
fill: none;
stroke: #231F20;
stroke-width: 2.979;
}
.g3_170{
fill: #231F20;
}
.g4_170{
fill: none;
stroke: #231F20;
stroke-width: 1.986;
}
]]></style>
</defs>
<path d="M318.5 969.1h23" class="g0_170"/>
<path d="M429.3 656.7H228.6V439.6H429.3V656.7Z" class="g1_170"/>
<path d="M429.3 656.7H228.6V439.6H429.3ZM228.9 548.1H429.6" class="g2_170"/>
<path d="M204 711.7H460.3V892.2H204V711.7Z" class="g1_170"/>
<path d="M204 711.7H460.3V892.2H204Zm128.2 0V892.2" class="g2_170"/>
<path d="M483.7 613.5c1.4 -.4 -.9 -.5 .9 -.5c-.2 .4 -.4 .6 -.9 .5Z" class="g3_170"/>
<path d="M162.4 478.9c4.4 -2 10.3 -.3 15.2 -1.5c.6 0 -.1 1 1.2 .8c4.7 -1.5 12.3 -.5 18 .8l-.4 .2c1.1 .3 2.5 -.6 3.7 -.4c0 .2 -.4 .2 -.1 .5c.3 -.5 2.1 -.2 2.6 -.6c.4 .3 .4 .7 1 1l.7 -.6c1.9 -1.4 4.5 .3 7 -.3c-.1 .2 -.3 .3 -.2 .4c4.2 -.6 9.3 0 13.8 .1c-.2 .2 -.4 .6 -.1 .9c.3 -.6 1.7 -.7 2.9 -.7c.5 .8 2.2 -.3 3.6 .2l-.2 .2c1.2 -.6 1.5 .6 2.5 -.2l.6 .6c.6 -.9 1.4 .8 2.4 .4v-.2c.8 -.1 1.2 .4 2 .4v.1c1.8 0 2.8 .7 2.9 -.1c.5 .8 -1.8 .1 -1 1.1c6 .1 12 1.4 17.8 2.8c.6 .4 1 .6 1 .9c.6 0 2.2 .5 2.9 .2c-.2 0 .2 .5 .5 .6c1 .6 1.4 -.5 2.4 .1c-.5 .1 -.7 .3 -.6 .6c1.1 -.3 2.4 .2 3.6 .3c-.2 .1 -.5 .1 -.5 .3c1.4 -.2 2.2 .9 3.4 .8l-.5 .3c1.6 1.1 .8 -.7 2.2 .1c-.4 0 -.3 .2 -.4 .4c1.6 -.3 3.8 .7 5.3 1c-.1 0 -.1 .1 -.1 .1c1.6 .5 3 1.4 4.8 1.8c.5 .4 -.6 .9 1 1.4c.3 -.9 2.8 .9 2.3 -.5c1.3 .8 3.3 2.1 4.3 2.3c-.8 0 .1 1.3 -1 .8l.6 .9c-.3 .3 -.8 -.5 -.8 0c.6 .2 2.3 .8 2.7 1.2c1.2 .1 2.6 -.3 4.3 .6c-.9 -.1 -.1 1.1 -.7 .9c1 0 2 0 3.1 .1c.5 .3 -.3 .6 .5 .9c.1 -.2 .5 -.1 .9 -.1c.1 .2 2.2 1.4 1.8 2.3c0 .4 -.9 -.5 -.5 .1c.9 .7 1.1 .5 2 1.2l-.1 .1c.5 .6 2 1.1 1.7 .2c-.4 -.3 -.2 .6 -.7 -.1c.8 -.1 1.9 .7 2.8 1.4c-.4 -.1 -.5 .1 -.8 .2c1.6 .4 3 1.3 4.4 2.3c.3 -.3 -1 .1 -1 -.2c1.2 1.9 3.9 2.5 4.6 4.4c-.3 -.2 .3 -.6 .2 -.5c.7 .8 .3 1.2 .9 1.5c-.2 .3 .7 .6 1.3 1c.4 .1 0 .3 -.5 -.1c.9 .4 4 3 5.1 5c.2 -.2 1.6 .5 1.9 .9l-.5 .2c.1 .6 1.2 1.4 .9 1.7c1.2 .4 -3.3 -2.9 -1.9 -2.1c-.1 .6 2 1.1 1.3 1.3c.7 .8 1.8 1.2 2 2.3c-.1 -.3 -1.1 -.2 -.5 .4c1 1.1 .5 .2 1.4 1l.6 .5c.5 -.3 .8 1.1 .9 .3c-.2 .4 1.6 1.5 .8 1.9l-.7 .3c.4 .5 1.2 .4 1.8 .6c0 .1 0 .3 -.1 .3c.9 -.5 .8 1.3 1.9 1.4c.6 1.3 2.1 2.8 1.9 3.7c.9 .7 1.8 1.2 2.3 2.3c-.3 -.1 -.5 -.4 -.7 -.3c.2 .8 .5 .8 1 1.2c-.2 0 .4 1.6 .6 2.5c.8 .6 1.1 0 1.4 -.1c-.3 1.4 2.2 2 2.1 3.5c-.3 -.2 -1.3 -.9 -1 -.1c-.3 1.4 1.7 1.2 2.2 2.7l.5 -.8c-.1 .9 1.6 1.6 .8 1.9c.5 .3 .8 1.7 1.4 1.1c.8 2.4 3.7 4.7 3.3 6.8c.3 .3 .6 1.1 .9 .7c.1 -.8 -.7 -.5 -.6 -.9c.2 .3 .4 .2 .6 .2c.2 .7 .5 1.2 -.5 1c.5 1.7 2.2 .7 3.1 2.7c-.3 .1 -.3 .3 .1 .8l1.1 .7c.7 1.2 -.2 1.1 -.6 1.4c.5 .6 1 1.4 1.5 1.4l-.1 1.2c.1 -.9 .7 .3 1 .5l-.3 -.2c-.2 .3 .4 .9 .8 1.2c.2 -.3 -.2 -1.1 -.4 -1.6c.5 .2 .8 .7 1.3 1c-.6 .2 .3 1.2 .6 1.7c.3 .6 .9 .3 1 .5c-.2 .2 .6 1 0 .8c-.3 -.2 -.1 -.6 -.6 -.8c.1 .5 -.3 .8 .5 1.3c.7 .4 .8 -.8 1.3 .5c-.3 -.2 -.5 -.1 -.9 -.2l.5 1.2l.5 -.3c0 .2 -.1 .1 -.1 .2c.6 0 1.2 1.5 1.9 1.3c.4 .5 .5 1.3 .8 1.8h-.1c.2 .7 .9 1.4 1.6 1.7h-.1c.2 .3 .8 1 1.4 1.2c.3 1.1 -1.4 1.5 -.2 2c.7 .8 1.8 .6 1.8 .1c.8 1.7 2.8 2.7 3.3 4.5c.4 0 .4 -.2 .8 .2c1.6 2.1 4.2 3.6 5 5.8c-.7 -.3 -.4 .4 -.6 .6c.8 .1 .2 .9 1 .5c.2 -.4 .4 -.5 0 -1.2c1.4 .9 3.1 2.5 3.5 3.4c-.2 -.4 .2 -.3 .5 -.2c-.6 .5 .2 1.3 1.1 1.7l.4 -.3l.1 .7c.4 .1 .9 -.5 1.3 .4c-.1 .2 -.1 .3 -.1 .5c1 .3 2.3 .5 2.9 1.4l.3 1c.4 .2 1.2 .2 .7 -.3c1.1 1.2 2 1.8 2.2 2.6c3.2 .3 6.7 2.1 9.8 3.4l-.2 .3c.7 .7 .7 -.4 1.1 .1c-.3 .2 .4 .9 -.4 1c1.1 .9 1.8 .1 2.6 .2c.3 -.3 -.7 .1 -.4 -.4c.2 -.1 1.6 .9 2 .4c.2 .3 -.2 .7 -.4 .9h.8c.7 1.1 -2.6 .6 -1.9 1.9l.7 .1c.4 .9 -2.1 .1 -.4 1c.9 -.1 1.8 -.8 1.2 -1.3c1.7 .4 1.3 -1.3 3 -.7c.3 .5 -1.4 -.4 -1.2 .3c.6 .8 1.7 .2 2.3 .6c-.7 -.5 .2 -.9 .7 -.9c.8 .6 -.7 .5 .5 .9c.3 -.3 1.5 -.3 .6 -.9c.7 -.7 1.2 .7 2.1 .2c.2 .7 -1.7 1 -.4 1.7c0 -.6 1.9 -.4 1.4 -1.4c.5 .3 .4 .8 0 1c.6 .6 2.1 -.6 2.1 .7l.4 -.6c.2 .3 .5 .5 .8 .9c.7 .2 2.4 -.3 2.1 .6c.3 -.1 1.8 .3 1.3 -.5c-.9 -.6 -1.2 .2 -1.5 -.7c.5 .8 1.4 .2 2 0v.4c.4 -.1 1.1 .2 1.4 -.2c-.3 .2 -.2 .4 0 .6l.5 -.5c1.4 -.1 .1 1 1.5 1.1l-1.1 .2c.3 0 .6 .6 1.3 .5c.3 -.5 .9 -1 1.2 -1.3c.7 -.2 .2 .6 1 .2l-1 .4c-.2 .2 .5 1 1.5 1.1c.7 -.1 1.8 -.7 .8 -1.1c.5 .1 1.2 .5 .7 .8c1.2 0 -.1 -.6 1 -.8c.3 .4 1.5 1.1 2.2 1.6l-1.1 .8h.7c-1 .6 .4 .6 -.2 1.3c.5 .1 1.1 0 1.6 -.2c-1.3 -1.3 1.7 -1.4 1.4 -2.5c1.9 -.1 .9 2.7 3.1 1.2c-.3 -.3 .6 -1 -.6 -.8c1.2 .2 .9 -1 2.3 -.5c-1.1 .4 1 1.2 -.5 1.7c.1 -.4 -.9 -.3 -1.1 -.3c.5 .5 -.2 1.1 1.1 1.2c.7 -.1 1.7 0 1.6 -.6c0 -.6 -1.1 0 -.6 -.6c1.5 -.1 1.7 .8 2.3 -.2c-.9 0 -1.1 -.6 -1.1 -1l1.1 -.2l-.2 .4c1.7 .3 .5 -.7 2.2 -.6l.8 .9c-.5 .6 -2.5 -.4 -2.2 .7c1.1 .1 1.5 -.5 2.5 -.1c-.2 0 -.6 .1 -.8 .1c.4 .1 .8 1.6 2.3 .8c.9 -.4 .3 -.4 .3 -.8c1.8 -.1 2.3 -.6 3.4 -.6c-.2 .8 2 .1 .8 .9c-.6 -.5 -3.1 -.5 -3.8 .3c.6 1 -1.4 -.2 -1.8 .8c1.4 .1 1.4 1 1.6 1.6c.4 .1 .8 -.2 1 -.3c.2 -.6 -.3 -.6 -.4 -1.2c1.6 .2 3.2 -.1 4 -.7c.6 .3 .4 .9 -.2 1c1.9 -.2 3.9 -.2 5.7 -.1c-1.2 -.9 2 -.3 1.2 -1c-1 -.2 -1.9 -.9 -1.3 -1.3c.6 0 0 .4 .2 .6c.7 -.5 1.2 .8 1.9 -.1c-1.7 .4 -.2 1.2 -.5 2c1.2 -.5 -.1 .5 1.2 .5c1.2 -.5 2.7 -.9 4.1 -1.2c1.8 .6 4.4 -.3 5.9 -.5c.8 .3 .4 1.2 1.3 1.3c1 -.1 -.9 -.9 .7 -.6l-.1 .2c.4 -.3 2.8 .2 3.1 -1l-.3 .9c.3 .1 .5 -.2 .7 -.3c.1 .3 .4 .5 0 .8c1 .5 2 -.4 3 -.5l-.7 -.5c1.6 -.6 2.9 -.3 4.5 -.7l.1 .5l.9 -.5c-.1 .6 .8 .8 1.3 .2l-2.4 1.7c-.8 -.1 .7 -.7 .2 -1.2c-.5 -.3 -2 0 -2.2 .6c.6 -.1 .6 -.2 1 -.4c.3 .7 -.6 .8 -1 1.3c.3 0 .8 .1 .9 -.1c-.6 .4 -1.2 .6 -2.3 .7c.7 -.4 -.4 -.4 -.2 -.6c0 .6 -.9 1 -2.2 .9c-1 -.6 -2.4 .8 -3.9 .8c.5 -.8 1.2 -1.4 2.1 -1.7c-1 -.2 -1 .1 -2 -.1c-.4 .5 -.6 1.3 -1.8 1.7l-.1 -.5c-1.1 .4 -1.1 1.1 -2.5 1.1c-2.4 0 -4.9 .1 -6.8 .2l-.1 -.5c-1 1.1 -3.4 .5 -4.8 1c-2.3 -.4 -5.1 .6 -6.3 -.3c-4.2 .4 -7.9 .6 -12.2 .1l.8 -.6c-.8 .5 -.5 -.4 -1.3 -.4c.9 .6 -1.1 .7 -1.7 1c-1.8 -.7 -4.4 -.3 -6.1 -.1v-.4c-1.9 .6 -3.8 -.4 -5.9 -.9c-.3 -.3 -.6 -.8 -1.2 -.8c-1.3 .5 -1.9 .4 -3.7 .5c-1.2 -.2 -3.2 -.9 -4.4 -1.5c-4.9 0 -9.4 -2.1 -14.3 -3.2l-.1 -.7c-2.5 -.3 -5 -1.3 -7.4 -2.6c-2.4 -1.2 -4.5 -2.6 -6.5 -3.4l.9 -.6c-.9 -1 -2.6 -1.5 -2.7 -.7c-1 -1 -3 -1.5 -3.2 -2.7c-.9 -.9 -1.6 -.6 -2.5 -1.2c-1.9 -2 -2.7 -2.6 -4.6 -4.2l.4 .5c.3 0 .6 -.3 .2 -.8c-.9 -.4 -2.3 -2.5 -2.4 -1.1c-1.5 -2.3 -4.8 -4.1 -5.9 -6.7c0 .4 -.5 0 -.9 -.1c-1.5 -1.8 -2.6 -4.1 -4.1 -5.2c-.1 -.4 .8 .1 .2 -.7c-.4 -.3 -.3 .3 -.9 -.1c-2.8 -2.7 -4.1 -6.5 -6.2 -9.2c-4 -4.5 -7.2 -9.9 -10.4 -14.6l.2 -.1c-1.8 -1.1 -1.7 -4.2 -3.7 -4.8c-.1 -.5 -.9 -1.4 -.3 -1.4c-1.4 -.9 -1.9 -3.9 -3.8 -5.2c.1 .2 .2 .2 .4 .4c-.8 -2.1 -2.5 -3.3 -3.5 -5.5c.2 .1 .6 .5 .8 .4c-.2 -1 -2.1 -1.2 -1.4 -2.2c-.3 -.4 -.7 0 -.5 .2c-2.6 -4.3 -6.5 -8.2 -10.1 -12c-1.9 -3.3 1.3 -1.4 -1.3 -3.1c.1 -.4 -.4 .1 -.2 -.1c-1 -.6 -.3 -2.1 -1.3 -2.3c-.3 .7 -.6 -.2 -.9 .1c-1.3 -2 -1.1 -2.8 -2.8 -3.7l.4 -.2c-2.2 -.8 -3.6 -2.9 -5.7 -3.2c-2.2 -2 -4.4 -3.8 -6.7 -5.5c-1.1 -.8 -2.3 -1.6 -3.4 -2.4c-1.2 -.9 -2.3 -1.5 -3.4 -2.2c-4.7 -2.8 -9.8 -5 -15 -7.1c-10.2 -4.3 -21 -6.4 -32.2 -9.1c-2.5 -1.4 -2.7 -1.4 -5.7 -1.5c.2 -.2 .4 -.2 .2 -.4c-.3 .8 -2.1 -.2 -2.5 .5c-4.2 -.8 -8.1 -1.1 -12.5 -1.5c.7 0 1.2 -.6 .3 -.7l-.9 .4l-.1 -.2c-.6 .1 -1.2 .4 -.7 .7c-11 -.5 -21.7 -2.7 -32.6 -2.7c-2.6 -.4 -6.3 -.1 -9.1 0c-8.2 -1 -15.9 -1.7 -24.2 -.5c0 0 1 -2.1 4.5 -2.8Z" class="g3_170"/>
<path d="M482 613.9c-.3 -.4 -1.3 -.4 -.6 -1c.1 .3 .7 .6 .6 1Z" class="g3_170"/>
<path d="M455.8 612.7c0 .1 -.3 -.1 -.4 -.2c.3 0 .6 -.4 .8 -.2c-.3 0 -.2 .2 -.4 .4Z" class="g3_170"/>
<path d="M449.3 612.7c.1 -.4 1.5 -.7 2.3 -.7Z" class="g3_170"/>
<path d="M443.2 611.2c-.5 -.3 -.4 -.5 .3 -.4c.1 .2 -.2 .2 -.3 .4Z" class="g3_170"/>
<path d="M442.7 612c-.5 0 -.7 -.2 -.9 -.4c0 .3 1.1 -.2 .9 .4Z" class="g3_170"/>
<path d="M429.7 610.2c-.3 0 -1 .2 -1.3 -.2c.3 .3 1.6 -.3 1.3 .2Z" class="g3_170"/>
<path d="M423.6 610c-.2 -.1 -.3 -.1 -.5 -.1c-.3 -.2 .1 -.4 .4 -.4Z" class="g3_170"/>
<path d="M339.9 544.4l.6 .5l-.4 .1Z" class="g3_170"/>
<path d="M307.4 505.9c-.7 -.3 -.1 -.6 -.2 -.7c.5 .4 -.5 .2 .2 .7Z" class="g3_170"/>
<path d="M283.5 492.7h.2l-.4 .7Z" class="g3_170"/>
<path d="M267 487.9c0 3 -2.5 5.5 -5.5 5.5c-3 0 -5.4 -2.5 -5.4 -5.5c0 -3 2.4 -5.4 5.4 -5.4c3 0 5.5 2.4 5.5 5.4Z" class="g1_170"/>
<path d="M267 487.9c0 3 -2.5 5.5 -5.5 5.5c-3 0 -5.4 -2.5 -5.4 -5.5c0 -3 2.4 -5.4 5.4 -5.4c3 0 5.5 2.4 5.5 5.4Z" class="g4_170"/>
<path d="M166.9 480.3c0 3 -2.5 5.4 -5.5 5.4c-3 0 -5.4 -2.4 -5.4 -5.4c0 -3 2.4 -5.5 5.4 -5.5c3 0 5.5 2.5 5.5 5.5Z" class="g1_170"/>
<path d="M166.9 480.3c0 3 -2.5 5.4 -5.5 5.4c-3 0 -5.4 -2.4 -5.4 -5.4c0 -3 2.4 -5.5 5.4 -5.5c3 0 5.5 2.5 5.5 5.5Z" class="g4_170"/>
<path d="M371.8 585.5c0 3 -2.5 5.4 -5.5 5.4c-3 0 -5.5 -2.4 -5.5 -5.4c0 -3 2.5 -5.5 5.5 -5.5c3 0 5.5 2.5 5.5 5.5Z" class="g1_170"/>
<path d="M371.8 585.5c0 3 -2.5 5.4 -5.5 5.4c-3 0 -5.5 -2.4 -5.5 -5.4c0 -3 2.5 -5.5 5.5 -5.5c3 0 5.5 2.5 5.5 5.5Z" class="g4_170"/>
<path d="M471.2 621.7c-.1 .1 .2 .2 0 .1c-.1 -.1 -.1 -.2 0 -.1Z" class="g3_170"/>
<path d="M472 606.2c.6 -.8 .9 .3 1.5 -.2c.1 0 -.1 .5 0 .4c.7 -.5 1.2 .1 1.6 .7l-.1 .2c.1 .1 .4 -.3 .5 -.2q-.1 .1 -.1 .2c.1 -.3 .2 -.1 .3 -.2c0 .1 0 .3 0 .4l.1 -.3c.4 -.7 .4 .2 .8 -.1c-.1 0 -.1 .1 -.1 .2c.5 -.4 .9 -.2 1.4 -.2c-.1 .1 -.1 .3 -.1 .4c.1 -.3 .2 -.3 .4 -.4c-.1 .4 .2 -.2 .3 0v.1c.2 -.4 .1 .2 .3 -.2v.3c.1 -.5 0 .3 .2 .1v-.1c.1 -.1 .1 .1 .2 .1c.2 -.1 .2 .2 .3 -.1c0 .3 -.2 0 -.2 .5c.6 -.2 1.1 0 1.7 .2c0 .1 0 .2 0 .3c.1 0 .2 0 .3 -.2c0 0 0 .2 0 .3c.1 .1 .3 -.4 .3 -.2c-.1 .1 -.1 .2 -.1 .3c.2 -.2 .3 -.2 .4 -.2c0 0 -.1 .1 -.1 .2c.2 -.3 .2 .1 .4 -.1l-.1 .2c.1 .3 .1 -.4 .2 -.2q0 .1 -.1 .2c.3 -.3 .5 -.1 .6 -.2c0 0 0 .1 0 .1c.2 0 .3 .1 .5 0c0 .1 -.2 .5 0 .5c.1 -.5 .3 -.1 .4 -.6c.1 .1 .3 .3 .4 .2c-.1 .1 -.1 .5 -.2 .5v.3c-.1 .2 -.1 -.1 -.1 .1c.1 0 .3 -.1 .3 0c.2 -.2 .4 -.7 .6 -.7c-.1 .1 -.1 .5 -.2 .5l.5 -.7c.1 0 -.1 .3 0 .2c0 -.1 .1 -.1 .1 -.2c.1 0 .3 -.1 .2 .4c0 .1 -.1 0 -.1 .2c.1 0 .2 -.1 .3 -.1v.1c0 0 .2 -.2 .2 -.4c0 0 -.1 .2 -.1 .1c.1 -.2 .3 -.3 .4 -.2c-.1 0 -.1 .1 -.2 .2c.3 -.2 .5 -.3 .6 -.4c.1 -.2 -.1 .3 -.1 .2c.1 .4 .5 -.2 .6 .2c-.1 0 0 -.3 0 -.2c.1 0 0 .3 .1 .2c0 .2 .1 0 .2 0c0 -.2 0 0 -.1 0c.1 0 .3 -.1 .5 -.1l2.1 .2l-1.7 2c-.1 .1 -.2 .1 -.3 .1c.1 .1 .2 .4 .1 .4l-.1 -.2c-.2 -.1 -.2 .1 -.3 -.1c.1 .4 .1 -.4 .2 -.1c-.2 -.2 .1 .4 -.1 .1c-.1 .1 0 .4 -.2 .2c0 .1 -.2 -.3 -.2 -.2c-.1 .1 0 .1 0 .2v.2c.2 .2 -.1 0 .1 .2c-.1 -.2 -.1 .2 -.3 -.1l-.2 -.3c-.1 .1 .1 .3 .2 .5c-.1 0 -.1 -.1 -.1 -.1c.3 .4 -.2 0 0 .4c-.2 -.1 -.3 .2 -.5 0c0 .2 .1 .4 -.1 .3l-.1 -.1c-.1 -.1 0 0 0 .1c-.1 -.1 -.3 -.2 -.5 -.3c0 .2 .2 .4 .3 .6c-.4 -.4 0 .4 -.4 .1c0 -.1 0 -.3 -.2 -.3c-.4 -.4 .1 .4 -.1 .3l.3 .3c-.3 -.2 -.1 .3 -.3 0c0 .1 -.2 -.1 0 .3c-.4 -.2 -.3 .5 -.9 0c.1 .1 -.1 .1 .1 .2c.2 .2 -.1 -.2 .1 -.1c-.1 .1 0 .2 0 .2q-.1 0 -.3 -.3c-.3 -.1 .3 .7 0 .6q-.1 -.1 -.1 -.1l.1 .3c-.2 .1 -.4 -.2 -.5 -.5c-.1 .1 -.1 .2 0 .4l-.3 -.3c.2 .2 0 .2 .1 .3l-.1 -.1c0 -.1 -.1 0 -.1 .1c.1 .1 .3 .1 .3 .1c.1 .1 0 .2 .1 .3c-.2 -.2 -.2 -.1 -.3 -.1c-.1 0 .1 .3 .1 .3c-.1 -.1 -.1 0 -.2 -.2c0 0 .1 .1 .1 0c-.1 -.1 -.3 -.3 -.3 -.1c.1 .2 .4 .5 .2 .4c0 -.1 -.1 -.2 -.1 -.3H483l.1 .2q0 -.1 0 -.1c.1 .2 -.1 .2 0 .4c0 .1 -.2 0 -.2 0h-.1c-.1 -.1 -.1 0 -.1 .2c0 0 -.1 0 0 .2c-.2 -.1 -.7 -.8 -.5 -.4c-.1 0 .1 .4 .3 .5c-.3 0 -.2 .5 -.5 .3c0 .1 .1 .1 0 .2c-.2 .1 -.2 .6 -.7 .3c0 -.2 -.1 -.2 -.2 -.4c.1 .3 -.2 -.1 0 .2c.1 .2 .2 .3 .3 .3c0 .2 -.2 .4 -.4 .3c.1 0 .1 .1 .1 .2c-.2 -.3 -.3 -.3 -.3 -.1l.1 .1l-.2 -.1c.1 .1 .3 .4 .1 .3c-.1 -.1 -.1 -.2 -.2 -.2c.1 .2 .2 .5 0 .4l-.3 -.2c0 .1 .1 .3 .2 .3c-.3 0 -.4 0 -.6 -.2c.2 .7 -.1 1 -.4 1.2l-.1 -.2c-.1 0 .2 .3 0 .2c0 -.1 -.2 -.2 -.3 -.4c-.2 -.1 .1 .3 0 .5c.2 .1 0 -.2 .2 0c0 .1 -.3 0 -.1 .3c-.1 -.1 -.2 -.3 -.3 -.4v.1c-.3 -.2 -.2 -.7 -.6 -1v.1c-.3 -.3 -.1 -.4 -.4 -.4c.1 .1 .3 .6 .5 .7c-.1 .1 .4 .7 .3 .7c-.2 -.1 .1 -.1 -.1 -.3c-.3 -.2 -.1 .2 -.2 .2c.2 .1 .3 .4 .3 .5c-.2 -.1 -.1 -.3 -.3 -.3c.1 .2 .1 .4 .3 .4c.2 .4 -.2 0 0 .3c-.2 -.2 -.4 -.6 -.6 -.7c.2 .3 .1 .5 .5 .8c-.1 -.1 -.3 -.2 -.3 -.4c-.2 -.1 .1 .5 -.2 .1l.1 .2l-.3 -.2c0 .1 .1 .5 -.2 .1c0 .1 -.1 .1 .2 .4c.2 .1 -.1 -.3 .2 0c-.3 -.2 -.1 .2 0 .3l-.2 -.2c.1 .1 0 .1 .1 .3c-.1 -.1 -.2 -.2 -.2 -.2l.1 .2c0 .2 -.3 -.3 -.3 -.2l-.1 -.2c0 0 -.2 -.1 -.2 0l.4 .6c0 .2 -.2 -.2 -.1 .1l-.1 -.3c0 -.1 -.3 -.3 -.4 -.3c0 .1 .2 .5 .3 .5c0 .1 -.1 0 -.2 -.2c-.1 .2 .2 .2 .2 .4c-.2 -.1 -.4 -.2 -.6 -.4l-.2 -.4l-.1 .1c-.1 -.3 -.2 -.2 -.3 -.5c-.1 0 -.1 .1 -.1 .2c.5 .4 .4 .7 .8 1.1c-.1 .2 -.9 -.9 -.6 -.2c.2 .1 .3 .5 .3 .3c-.1 0 .3 .5 0 .4c0 -.2 -.4 -.4 -.4 -.7q.1 .1 .1 0c-.2 -.1 -.3 -.4 -.4 -.4c0 .1 -.1 .2 .1 .4c.1 .2 0 -.1 .2 .2c-.1 .2 -.4 -.2 -.1 .3c.1 -.1 .3 .1 .4 .3v.1l-.1 -.1c-.2 0 .2 .3 0 .3l-.3 -.2c-.2 -.3 .3 -.1 -.1 -.5c-.1 .1 .1 .3 -.1 .3q0 -.1 0 -.2c-.1 0 -.5 -.5 -.4 -.1c0 .2 .1 .2 .2 .4c-.1 .1 0 .3 0 .4c-.3 -.3 -.2 .1 -.4 -.3c.2 .1 .4 0 .2 -.4c-.3 -.3 .2 0 -.1 -.4c-.1 .1 -.4 -.3 -.6 -.5c-.1 0 0 .1 0 .1c.2 .3 .2 .2 .4 .5c-.2 0 -.2 .2 -.1 .5c-.1 -.1 -.3 -.3 -.3 -.4c0 .2 -.2 .3 -.4 .3c.4 .3 -.1 .2 .2 .5c.1 0 .4 .2 .5 .4c-.1 .1 -.1 -.1 -.2 -.2c.1 .3 -.3 -.2 -.2 .1c.1 -.2 -.3 -.5 -.5 -.8c0 .3 -.1 -.2 -.2 -.1c0 .2 0 .5 -.1 .6c-.3 -.2 -.3 .3 -.4 .4c-.2 -.1 -.4 -.5 -.5 -.5c-.1 0 .3 .3 .1 .2H473c.1 .1 -.4 -.1 0 .4l-.3 -.4c0 0 0 .1 0 .1c0 -.1 -.2 -.2 -.2 -.3c-.2 -.2 -.1 .2 -.2 .3l.2 .1c0 .3 -.2 .2 -.3 .3l-.1 -.2v.2c-.2 -.2 -.3 -.3 -.2 -.1l-.2 -.6c.1 0 .1 .3 .3 .4c.2 .2 .2 0 .1 -.2c-.1 0 0 .1 0 .2q-.2 -.3 -.3 -.6c0 .1 -.1 0 0 .1q-.1 -.2 0 -.3c0 .2 .2 .2 .2 .3c-.2 -.3 -.2 -.4 0 -.4c.3 .2 0 -.4 .2 -.4c.2 .3 .3 .6 .3 .7c.1 .1 0 0 .2 0c-.1 -.2 -.3 -.5 -.3 -.7l.1 .2c.1 -.2 -.2 -.4 0 -.5c.2 0 .4 -.2 .6 -.2l.1 .1c-.2 -.4 .2 -.3 .1 -.6c.4 .1 .3 -.4 .6 -.2c.2 -.4 .4 -.7 .8 -.9l.1 .3c-.1 -.2 .2 .1 .2 .1c-.2 -.2 -.1 -.4 -.2 -.6c.3 .1 .3 -.3 .3 -.6l.1 .2c-.1 -.4 .3 -.2 .5 -.3c0 .1 .2 .2 .2 .2c-.1 -.4 0 -.4 -.1 -.7c.1 -.1 .3 -.1 .5 -.1c0 -.7 .6 -.7 .8 -1.2l.2 .2c-.1 -.8 .7 -.7 .8 -1.2l.3 .4c.2 .1 .1 -.2 -.1 -.5c.2 .1 .1 -.4 .4 -.1c.1 0 0 -.3 0 -.4c.3 0 .4 -.1 .5 -.3h-.1c.1 .1 .2 .3 .3 .3c0 -.2 .3 -.1 -.1 -.5c.4 .1 .3 -.6 .7 -.4q-.1 -.1 -.1 -.2c.2 -.2 .5 -.1 .5 -.4c.1 .1 .1 .3 .2 .2c0 -.1 -.1 -.1 -.1 -.3c.1 -.4 .7 -.1 .9 -.4c.3 -.6 .9 -.8 1.3 -1.2v.1c-.1 -.5 .6 .1 .3 -.5c.1 0 .2 -.1 .3 .1c-.1 -.3 .5 0 .4 -.5c0 0 0 .1 0 .1c.4 .1 .3 -.3 .6 -.2c0 0 0 .1 .1 .2c.2 .1 -.2 -.6 .2 -.1c.1 -.1 -.1 -.3 -.1 -.3c.5 -.1 .7 -.7 1 -1.1c.5 0 .6 .7 .6 .2c.1 .1 -.2 -.2 -.1 -.1c0 -.2 .5 .4 .4 .1c-.2 -.1 -.1 -.1 -.1 -.2l.5 2.7v.1c-.2 -.3 -.2 -.6 -.4 -.4l.1 -.2c-.4 .5 -.5 .1 -.9 .7c-1.1 -.2 -2.2 -.2 -3.3 -.5c-1 -.4 -2.1 -.4 -3.1 -1c-.1 -.5 -.2 -.5 -.5 -.4c0 -.1 .1 -.1 .1 -.2c-.2 .4 -.2 0 -.4 .4c-.3 -.2 -.7 -.2 -1.1 -.3c0 -.1 .2 -.4 .1 -.4l-.2 .3v-.1c0 0 -.1 .2 -.1 .3c-1.1 0 -1.9 -1 -3 -1.2c-.2 -.2 -.5 -.2 -.8 -.2c-.6 -.7 -1.2 -1.3 -2.1 -1.1c0 0 .4 -1 .8 -1.1Z" class="g3_170"/>
<path d="M471.3 621.5c.1 .2 .2 .2 .3 .4c-.1 -.1 -.2 -.2 -.3 -.4Z" class="g3_170"/>
<path d="M474.5 621.6c-.1 0 0 0 .1 .1c-.1 0 0 .1 -.1 .1c.1 -.1 0 -.1 0 -.2Z" class="g3_170"/>
<path d="M475 621.3c.1 .2 .1 .3 .1 .4Z" class="g3_170"/>
<path d="M475.9 621.5c.2 .1 .2 .2 .1 .2q0 -.1 -.1 -.2Z" class="g3_170"/>
<path d="M475.7 621.2c.1 -.1 .1 0 .2 .1c-.1 -.1 0 .1 -.2 -.1Z" class="g3_170"/>
<path d="M477 620.8c.1 0 0 -.2 .2 -.1c-.1 0 0 .3 -.2 .1Z" class="g3_170"/>
<path d="M477.3 620.2q.1 0 .1 0c.1 0 .1 .1 .1 .2Z" class="g3_170"/>
<path d="M485.5 613v.1l-.1 -.1Z" class="g3_170"/>
<path d="M486.1 608.3c-.1 .1 0 -.1 0 -.2c.1 0 -.1 .2 0 .2Z" class="g3_170"/>
<path d="M483.4 608.5h.1l-.2 .3Z" class="g3_170"/>
</svg>