<?xml version="1.0" encoding="UTF-8" standalone="no"?>
<!DOCTYPE svg PUBLIC "-//W3C//DTD SVG 1.1//EN"
"http://www.w3.org/Graphics/SVG/1.1/DTD/svg11.dtd">
<svg viewBox="0 0 660 990" version="1.1" xmlns="http://www.w3.org/2000/svg" xmlns:xlink="http://www.w3.org/1999/xlink">
<defs>
<clipPath id="c0_204"><path d="M54.7 490.6V133.7H604.2V490.6Z"/></clipPath>
<clipPath id="c1_204"><path d="M54.7 949.6V43.6H609.1v906Z"/></clipPath>
<clipPath id="c2_204"><path d="M536.4 717.1c-22.6 0 -40.9 -18.2 -40.9 -40.8c0 -22.6 18.3 -40.8 40.9 -40.8c22.5 0 40.8 18.2 40.8 40.8c0 22.6 -18.3 40.8 -40.8 40.8Z"/></clipPath>
<style type="text/css"><![CDATA[
.g0_204{
fill: #040101;
}
.g1_204{
fill: #231F20;
}
.g2_204{
fill: none;
stroke: #231F20;
stroke-width: 1.527;
}
.g3_204{
fill: #FFF;
}
.g4_204{
fill: none;
stroke: #231F20;
stroke-width: 1.663;
}
.g5_204{
fill: none;
stroke: #FFF;
stroke-width: 1.909;
stroke-miterlimit: 10;
}
.g6_204{
fill: none;
stroke: #000;
stroke-width: 0.381;
stroke-miterlimit: 10;
}
]]></style>
</defs>
<image clip-path="url(#c0_204)" preserveAspectRatio="none" x="53" y="134" width="553" height="356" xlink:href="img/1.jpg"/>
<path d="M55 134.1H603.5V49.7H55v84.4Z" class="g0_204"/>
<path d="M55 947.3H605V874.9H55v72.4Z" class="g1_204"/>
<path clip-path="url(#c1_204)" d="M55 946.5H603.5V49.7H55Z" class="g2_204"/>
<image clip-path="url(#c2_204)" preserveAspectRatio="none" x="494" y="634" width="85" height="85" xlink:href="img/2.jpg"/>
<path d="M536.4 717.1c22.5 0 40.8 -18.3 40.8 -40.8c0 -22.6 -18.3 -40.8 -40.8 -40.8c-22.6 0 -40.9 18.2 -40.9 40.8c0 22.5 18.3 40.8 40.9 40.8Z" class="g2_204"/>
<path d="M527.7 647.1h-63V621.3h63v25.8Z" class="g3_204"/>
<path d="M527.7 647.1h-63V621.3h63Z" class="g4_204"/>
<path d="M474.2 632.7H476l3.6 -6.3h1.7V632h3.1l.9 .9v6.5l-.8 .7h-5.7L477 638.8h-2.8Z" class="g3_204"/>
<path d="M474.2 632.7H476l3.6 -6.3h1.7V632h3.1l.9 .9v6.5l-.8 .7h-5.7L477 638.8h-2.8v-6.1Z" class="g4_204"/>
<path d="M473.4 639h-2.8v-6.1h2.8V639Z" class="g3_204"/>
<path d="M473.4 639h-2.8v-6.1h2.8Z" class="g4_204"/>
<path d="M495.4 629.1V638h5.3v1.1h-6.6v-10Z" class="g1_204"/>
<path d="M501.7 630.6h1.2v-1.5h-1.2v1.5Zm0 8.5h1.2v-7.2h-1.2v7.2Z" class="g1_204"/>
<path d="M506 629.1V635l3.3 -3.1h1.6l-2.8 2.6l3 4.6h-1.5l-2.4 -3.8l-1.2 1.1v2.7h-1.2v-10Z" class="g1_204"/>
<path d="M517.2 638.7c-.6 .4 -1.3 .6 -2.1 .6c-.6 0 -1.1 -.1 -1.5 -.3c-.4 -.2 -.8 -.5 -1.1 -.8c-.2 -.3 -.5 -.7 -.6 -1.2c-.1 -.5 -.2 -1 -.2 -1.5c0 -.6 0 -1.1 .2 -1.5c.2 -.5 .4 -.9 .7 -1.2c.3 -.4 .7 -.6 1.1 -.8c.4 -.2 .9 -.3 1.4 -.3c.6 0 1.1 .1 1.6 .4c.4 .3 .7 .6 1 1c.2 .4 .4 .9 .5 1.4c.1 .5 .1 .9 .1 1.4h-5.4c0 .3 0 .6 .1 .9c.1 .2 .2 .5 .4 .7c.2 .2 .5 .4 .7 .5c.3 .2 .7 .2 1.1 .2c.5 0 .9 -.1 1.2 -.3c.3 -.3 .5 -.6 .6 -1.1h1.2c-.1 .8 -.5 1.4 -1 1.9m-.3 -4.7c-.1 -.2 -.3 -.5 -.5 -.6c-.1 -.2 -.4 -.4 -.6 -.5c-.2 -.1 -.5 -.1 -.8 -.1c-.3 0 -.6 0 -.9 .1c-.2 .1 -.4 .3 -.6 .5c-.2 .1 -.3 .4 -.4 .6c-.1 .3 -.2 .5 -.2 .8h4.2c-.1 -.3 -.1 -.5 -.2 -.8Z" class="g1_204"/>
<g clip-path="url(#c1_204)">
<path d="M-9.1 7.7H-32m701.2 0h22.9M-9.1 997.7H-32m701.2 0h22.9M0 -1.4V-24.3M0 1006.9v22.9M660 -1.4V-24.3m0 1031.2v22.9" class="g5_204"/>
<path d="M-9.1 7.7H-32m701.2 0h22.9M-9.1 997.7H-32m701.2 0h22.9M0 -1.4V-24.3M0 1006.9v22.9M660 -1.4V-24.3m0 1031.2v22.9" class="g6_204"/>
</g>
</svg>