<?xml version="1.0" encoding="UTF-8" standalone="no"?>
<!DOCTYPE svg PUBLIC "-//W3C//DTD SVG 1.1//EN"
"http://www.w3.org/Graphics/SVG/1.1/DTD/svg11.dtd">
<svg viewBox="0 0 660 990" version="1.1" xmlns="http://www.w3.org/2000/svg" xmlns:xlink="http://www.w3.org/1999/xlink">
<defs>
<clipPath id="c0_201"><path d="M1.9 974.9V15.1H619.1V974.9Z"/></clipPath>
<clipPath id="c1_201"><path d="M73.8 502L32.8 212.1L227.3 184.9l35.3 248.9l5.7 41L73.8 502Z"/></clipPath>
<clipPath id="c2_201"><path d="M79.3 829.5L38.2 538.4L233.4 511.2l41.2 291L79.3 829.5Z"/></clipPath>
<style type="text/css"><![CDATA[
.g0_201{
fill: #231F20;
}
.g1_201{
fill: none;
stroke: #231F20;
stroke-width: 1.527;
}
.g2_201{
fill: none;
stroke: #FFF;
stroke-width: 1.909;
stroke-miterlimit: 10;
}
.g3_201{
fill: none;
stroke: #000;
stroke-width: 0.381;
stroke-miterlimit: 10;
}
]]></style>
</defs>
<path d="M55.3 884.6h550V940H55.3V884.6Z" class="g0_201"/>
<path d="M56.1 939.3H604.6V47.3H56.1Z" class="g1_201"/>
<path d="M55.3 48.1H603.8V152.5H55.3V48.1Z" class="g0_201"/>
<image clip-path="url(#c0_201)" preserveAspectRatio="none" x="29" y="182" width="251" height="331" xlink:href="img/1.png"/>
<image clip-path="url(#c1_201)" preserveAspectRatio="none" x="33" y="185" width="235" height="317" xlink:href="img/2.png"/>
<image clip-path="url(#c0_201)" preserveAspectRatio="none" x="41" y="515" width="251" height="333" xlink:href="img/3.png"/>
<image clip-path="url(#c2_201)" preserveAspectRatio="none" x="39" y="512" width="235" height="317" xlink:href="img/4.png"/>
<g clip-path="url(#c0_201)">
<path d="M-8.7 5.5H-31.6m701.1 0h22.9M-8.7 990.2H-31.6m701.1 0h22.9M.3 -3.5V-26.3M.3 999.3v22.8M660.3 -3.5V-26.3m0 1025.6v22.8" class="g2_201"/>
<path d="M-8.7 5.5H-31.6m701.1 0h22.9M-8.7 990.2H-31.6m701.1 0h22.9M.3 -3.5V-26.3M.3 999.3v22.8M660.3 -3.5V-26.3m0 1025.6v22.8" class="g3_201"/>
</g>
</svg>