<?xml version="1.0" encoding="UTF-8" standalone="no"?>
<!DOCTYPE svg PUBLIC "-//W3C//DTD SVG 1.1//EN"
"http://www.w3.org/Graphics/SVG/1.1/DTD/svg11.dtd">
<svg viewBox="0 0 660 990" version="1.1" xmlns="http://www.w3.org/2000/svg" xmlns:xlink="http://www.w3.org/1999/xlink">
<defs>
<style type="text/css"><![CDATA[
.g0_225{
fill: #FFF;
}
.g1_225{
fill: none;
stroke: #231F20;
stroke-width: 2.062;
}
.g2_225{
fill: none;
stroke: #949698;
stroke-width: 0.763;
}
]]></style>
</defs>
<path d="M470.4 397.2c0 78.5 -63.7 142.2 -142.2 142.2c-78.6 0 -142.3 -63.7 -142.3 -142.2C185.9 318.6 249.6 255 328.2 255c78.5 0 142.2 63.6 142.2 142.2Z" class="g0_225"/>
<path d="M470.4 397.2c0 78.5 -63.7 142.2 -142.2 142.2c-78.6 0 -142.3 -63.7 -142.3 -142.2C185.9 318.6 249.6 255 328.2 255c78.5 0 142.2 63.6 142.2 142.2Z" class="g1_225"/>
<path d="M441.9 397.2C441.9 460 391 511 328.2 511C265.3 511 214.4 460 214.4 397.2c0 -62.9 50.9 -113.8 113.8 -113.8c62.8 0 113.7 50.9 113.7 113.8Z" class="g0_225"/>
<path d="M441.9 397.2C441.9 460 391 511 328.2 511C265.3 511 214.4 460 214.4 397.2c0 -62.9 50.9 -113.8 113.8 -113.8c62.8 0 113.7 50.9 113.7 113.8Z" class="g1_225"/>
<path d="M407.8 397.2c0 44 -35.7 79.6 -79.6 79.6c-44 0 -79.7 -35.6 -79.7 -79.6c0 -44 35.7 -79.7 79.7 -79.7c43.9 0 79.6 35.7 79.6 79.7Z" class="g0_225"/>
<path d="M407.8 397.2c0 44 -35.7 79.6 -79.6 79.6c-44 0 -79.7 -35.6 -79.7 -79.6c0 -44 35.7 -79.7 79.7 -79.7c43.9 0 79.6 35.7 79.6 79.7Z" class="g1_225"/>
<path d="M368 397.2c0 22 -17.8 39.8 -39.8 39.8c-22 0 -39.9 -17.8 -39.9 -39.8c0 -22 17.9 -39.8 39.9 -39.8c22 0 39.8 17.8 39.8 39.8Z" class="g0_225"/>
<path d="M368 397.2c0 22 -17.8 39.8 -39.8 39.8c-22 0 -39.9 -17.8 -39.9 -39.8c0 -22 17.9 -39.8 39.9 -39.8c22 0 39.8 17.8 39.8 39.8Z" class="g1_225"/>
<path d="M318.5 969.1h23" class="g2_225"/>
</svg>