<?xml version="1.0" encoding="UTF-8" standalone="no"?>
<!DOCTYPE svg PUBLIC "-//W3C//DTD SVG 1.1//EN"
"http://www.w3.org/Graphics/SVG/1.1/DTD/svg11.dtd">
<svg viewBox="0 0 660 990" version="1.1" xmlns="http://www.w3.org/2000/svg" xmlns:xlink="http://www.w3.org/1999/xlink">
<defs>
<style type="text/css"><![CDATA[
.g0_64{
fill: none;
stroke: #949698;
stroke-width: 0.763;
}
.g1_64{
fill: #FFF;
}
.g2_64{
fill: none;
stroke: #231F20;
stroke-width: 2.979;
}
.g3_64{
fill: #231F20;
}
.g4_64{
fill: none;
stroke: #231F20;
stroke-width: 1.986;
}
]]></style>
</defs>
<path d="M318.5 969.1h23" class="g0_64"/>
<path d="M208.6 688.6H464.8V869.1H208.6V688.6Z" class="g1_64"/>
<path d="M208.6 688.6H464.8V869.1H208.6Zm128.1 0V869.1" class="g2_64"/>
<path d="M435.1 633.6H234.4V416.5H435.1V633.6Z" class="g1_64"/>
<path d="M435.1 633.6H234.4V416.5H435.1ZM234.4 525.1H435.1" class="g2_64"/>
<path d="M181.3 451.3c-1.4 .2 .8 .5 -.9 .3c.2 -.3 .5 -.5 .9 -.3Z" class="g3_64"/>
<path d="M495 593c-1.9 1.6 -4.4 2.4 -7.1 3c-2.6 .7 -5.3 1.1 -7.7 2.2c-.6 .2 0 -1 -1.3 -.5c-2.2 1.1 -5.4 1.7 -8.6 1.8c-3.3 .1 -6.7 -.3 -9.6 -.9l.3 -.3c-1.1 -.2 -2.5 .6 -3.7 .4c0 -.2 .4 -.2 .2 -.5c-.4 .6 -2.2 .1 -2.7 .4c-.4 -.2 -.3 -.7 -.9 -1l-.8 .5c-2.1 1.3 -4.5 -.8 -7.1 -.7c.1 -.1 .4 -.2 .2 -.4c-4.2 -.1 -9.1 -2.2 -13.4 -4.2c.3 -.1 .7 -.4 .6 -.7c-.6 .4 -1.9 -.1 -3.1 -.7c0 -.9 -2.1 -.7 -3.1 -1.9l.2 -.1c-1.3 0 -1 -1.3 -2.3 -1.1l-.2 -.9c-1 .4 -.9 -1.4 -1.9 -1.6l-.1 .1c-.8 -.4 -.8 -1 -1.5 -1.4l.1 -.2c-1.6 -1.1 -1.9 -2.2 -2.5 -1.6c0 -.9 1.5 1 1.4 -.3c-4.8 -3.7 -8.7 -8.8 -12.1 -13.8c-.1 -.8 -.3 -1.2 -.1 -1.5c-.5 -.4 -1.4 -1.8 -2 -2.1c.1 .2 .1 -.5 -.1 -.8c-.3 -1.1 -1.3 -.6 -1.7 -1.8c.5 .3 .8 .3 .9 0c-1 -.5 -1.7 -1.8 -2.5 -2.7c.3 .1 .5 .3 .7 .1c-1.3 -.8 -1.2 -2.2 -2.1 -3l.6 .2c-.5 -1.9 -1.1 0 -1.6 -1.6c.3 .3 .4 .1 .6 0c-1.5 -.9 -2.4 -3.2 -3.4 -4.4c.1 0 .2 -.1 .2 -.1c-.8 -1.4 -1.4 -3 -2.6 -4.5c-.1 -.7 1.1 -.3 .1 -1.8c-.7 .5 -1.6 -2.5 -2.1 -1.1c-.5 -1.4 -1.3 -3.6 -2 -4.4c.6 .4 .6 -1.1 1.3 -.1v-1c.4 -.1 .3 .9 .6 .4c-.3 -.5 -1.4 -2 -1.5 -2.6c-1.1 -.8 -2.4 -1.2 -3.4 -2.9c.7 .7 .7 -.9 1.1 -.4l-2.7 -1.6c-.3 -.5 .6 -.4 -.1 -1.1c-.2 .2 -.5 -.1 -.8 -.3c0 -.2 -1.3 -2.2 -.7 -2.8c.2 -.4 .7 .8 .6 .1c-.5 -1.1 -.8 -1 -1.3 -2v-.1c-.2 -.7 -1.3 -1.8 -1.4 -.8c.3 .5 .4 -.4 .6 .4c-.7 -.3 -1.5 -1.4 -2 -2.4c.3 .3 .5 .1 .8 .2c-1.4 -1.1 -2.3 -2.4 -3.4 -3.8c-.4 .2 1 .2 .9 .6c-.6 -2.3 -2.9 -3.6 -3.1 -5.6c.2 .2 -.4 .4 -.3 .3c-.5 -.9 0 -1.2 -.5 -1.6c.3 -.3 -.5 -.7 -1 -1.3c-.4 -.2 .1 -.2 .4 .3c-.7 -.7 -3.2 -3.8 -4 -6c-.2 .2 -1.5 -.7 -1.8 -1.1l.6 -.2c0 -.5 -1 -1.4 -.7 -1.7c-1.1 -.6 2.9 3.3 1.6 2.3c.2 -.6 -1.9 -1.3 -1.1 -1.4c-.6 -.9 -1.6 -1.4 -1.8 -2.5c.1 .3 1.1 .3 .6 -.4c-.9 -1.2 -.4 -.2 -1.3 -1.1l-.6 -.5c-.5 .3 -.7 -1.1 -.9 -.3c.3 -.4 -1.5 -1.6 -.7 -2l.7 -.2c-.4 -.5 -1.2 -.4 -1.8 -.6c0 -.2 0 -.4 .1 -.4c-.9 .6 -.8 -1.3 -1.9 -1.4c-.6 -1.3 -2.2 -2.6 -2.1 -3.5c-.9 -.6 -1.8 -1.1 -2.4 -2.1c.2 .1 .5 .3 .7 .2c-.3 -.7 -.6 -.7 -1.2 -1c.2 0 -.5 -1.6 -.8 -2.4c-1 -.5 -1.1 .1 -1.5 .3c.1 -1.4 -2.5 -1.6 -2.6 -3.1c.3 .2 1.4 .7 1 -.1c0 -1.4 -1.9 -.7 -2.7 -2.1l-.3 .9c-.1 -.9 -2 -1.1 -1.3 -1.7c-.6 0 -1.2 -1.3 -1.6 -.6c-1.4 -2.1 -4.9 -3.3 -5.2 -5.4c-.4 -.1 -1.1 -.7 -1.2 -.3c.2 .7 .9 .2 .9 .6c-.3 -.2 -.5 0 -.6 .1c-.5 -.6 -.9 -1 .1 -1.2c-1.2 -1.4 -2.3 .2 -3.9 -1.2c.2 -.3 .2 -.5 -.4 -.8l-1.3 -.1c-1.2 -.8 -.3 -1.1 0 -1.6c-.7 -.3 -1.5 -.8 -2 -.6l-.5 -1.1c.4 .8 -.7 0 -1.1 0h.4c0 -.3 -.8 -.5 -1.3 -.7c0 .4 .7 1 1 1.3c-.4 0 -.9 -.3 -1.5 -.3c.4 -.4 -.9 -.9 -1.4 -1.2c-.6 -.4 -.9 .1 -1.1 0c.1 -.3 -1 -.5 -.3 -.7c.2 0 .3 .5 .8 .5c-.3 -.4 0 -.9 -1 -1c-.8 0 -.4 1.2 -1.4 .3c.4 0 .5 -.2 .8 -.3l-1 -.8l-.2 .5c-.1 -.2 0 -.2 -.1 -.3c-.5 .4 -1.8 -.6 -2.3 -.1c-.6 -.2 -1.1 -.9 -1.6 -1.2h.1c-.6 -.5 -1.5 -.7 -2.3 -.6l.1 -.1c-.3 -.2 -1.3 -.4 -1.8 -.3c-.9 -.7 .3 -2 -1 -1.7c-1 -.3 -1.8 .4 -1.6 .8c-1.6 -.9 -3.9 -.6 -5.3 -1.9c-.3 .2 -.2 .3 -.7 .3c-2.7 -.9 -5.7 -.7 -7.7 -2.1c.8 -.1 .2 -.5 .2 -.8c-.7 .3 -.7 -.6 -1.1 .1c0 .5 -.1 .7 .6 1c-1.6 0 -4.1 -.4 -4.9 -1c.4 .3 .1 .4 -.3 .5c.2 -.7 -1 -1 -1.9 -.9l-.2 .5l-.5 -.6c-.4 .1 -.5 .9 -1.4 .4c0 -.2 0 -.4 -.2 -.5c-1 .2 -2.4 .7 -3.4 .2l-.7 -.7c-.5 0 -1.2 .3 -.5 .6c-1.7 -.6 -2.8 -.7 -3.3 -1.4c-3.2 1.2 -7.6 .9 -11.1 .6l.1 -.3c-.9 -.4 -.5 .6 -1.2 .3c.4 -.3 -.6 -.8 .1 -1.1c-1.3 -.5 -1.8 .5 -2.7 .6c-.1 .4 .8 -.3 .6 .3c-.2 .2 -1.9 -.4 -2.1 .2c-.4 -.2 -.1 -.7 .1 -1l-.8 .3c-1 -.9 2.4 -1.4 1.3 -2.4l-.7 .1c-.7 -.8 2 -.8 .1 -1.1c-.8 .3 -1.6 1.3 -.9 1.6c-1.7 .2 -.8 1.7 -2.7 1.5c-.5 -.4 1.5 0 1.2 -.6c-.9 -.6 -1.8 .2 -2.6 0c.9 .3 .1 1 -.5 1.1c-.9 -.4 .7 -.6 -.7 -.8c-.2 .4 -1.5 .7 -.4 1c-.5 .9 -1.4 -.3 -2.1 .4c-.5 -.6 1.4 -1.4 -.1 -1.8c.2 .6 -1.8 .8 -1.1 1.7c-.5 -.2 -.6 -.6 -.2 -1c-.8 -.4 -2 1.1 -2.3 -.2l-.2 .7c-.3 -.2 -.7 -.4 -1.1 -.7c-.7 -.1 -2.4 .8 -2.3 -.2c-.2 .1 -1.9 .1 -1.3 .7c1.1 .4 1.2 -.4 1.8 .4c-.7 -.7 -1.5 .1 -2.1 .4l-.1 -.4c-.3 .1 -1.2 0 -1.4 .4c.3 -.2 .1 -.4 -.1 -.5l-.4 .5c-1.5 .3 -.3 -.9 -1.8 -.8l1.1 -.4c-.2 .1 -.7 -.4 -1.4 -.3c-.2 .5 -.7 1.1 -1 1.5c-.8 .3 -.3 -.5 -1.1 0l1 -.6c.2 -.2 -.7 -.9 -1.7 -.9c-.7 .2 -1.8 1 -.7 1.2c-.5 0 -1.3 -.3 -.9 -.6c-1.2 .1 .2 .5 -.8 .8c-.5 -.3 -1.8 -.8 -2.6 -1.3l1.1 -.8h-.7c.9 -.7 -.5 -.6 0 -1.3c-.5 -.1 -1.1 .2 -1.6 .3c1.5 1.2 -1.6 1.6 -1.1 2.7c-2 .3 -1.3 -2.6 -3.4 -.9c.4 .3 -.6 1.1 .7 .8c-1.3 -.1 -.9 1 -2.3 .6c1 -.4 -1.2 -1 .3 -1.7c-.1 .4 .9 .3 1.2 .2c-.6 -.4 0 -1.1 -1.2 -1.1c-.8 .1 -1.8 .2 -1.7 .7c.1 .6 1.2 -.1 .7 .6c-1.5 .2 -1.8 -.7 -2.4 .4c1 -.1 1.2 .5 1.2 .9l-1.1 .3l.2 -.4c-1.8 -.3 -.5 .7 -2.3 .6l-.8 -.7c.4 -.7 2.5 .2 2.2 -.9c-1.1 0 -1.5 .5 -2.6 .3c.3 -.1 .6 -.1 .8 -.2c-.4 -.1 -.8 -1.5 -2.4 -.6c-.9 .3 -.3 .4 -.3 .8c-1.8 .1 -2.3 .6 -3.5 .7c.2 -.8 -2.1 0 -.8 -.9c.6 .4 3.2 .3 3.9 -.5c-.7 -.9 1.4 .1 1.8 -.8c-1.5 0 -1.4 -1 -1.7 -1.6c-.4 0 -.8 .3 -1 .4c-.2 .5 .3 .5 .4 1.1c-1.7 -.1 -3.2 .3 -4.1 .9c-.6 -.3 -.4 -.9 .2 -1c-1.9 .3 -4 .3 -5.9 .1c1.3 .9 -2 .3 -1.2 1.1c1 .2 1.9 .8 1.4 1.3c-.6 -.1 0 -.4 -.3 -.6c-.8 .5 -1.2 -.8 -2 0c1.8 -.4 .3 -1.2 .6 -1.9c-1.2 .5 .1 -.5 -1.2 -.5c-1.3 .5 -2.8 .9 -4.3 1.1c-1.8 -.7 -4.5 .2 -6.1 .3c-.8 -.4 -.3 -1.2 -1.2 -1.3c-1.1 0 .8 .8 -.8 .5l.2 -.2c-.5 .3 -3 -.4 -3.4 .9l.5 -1c-.3 -.1 -.6 .2 -.8 .3c0 -.3 -.4 -.6 .1 -.8c-1 -.6 -2.1 .2 -3.1 .3l.7 .5c-1.8 .5 -3 .1 -4.8 .4v-.6l-1 .4c.2 -.5 -.7 -.8 -1.3 -.3l2.7 -1.5c.7 .3 -.8 .7 -.3 1.2c.4 .4 2 .2 2.3 -.3c-.7 -.1 -.7 .1 -1.2 .3c-.2 -.7 .7 -.8 1.2 -1.3c-.3 .1 -.8 -.1 -.9 .1c.6 -.4 1.3 -.5 2.3 -.6c-.7 .4 .5 .5 .2 .7c.1 -.7 1.1 -.9 2.4 -.8c1 .7 2.4 -.6 4 -.5c-.6 .7 -1.4 1.3 -2.3 1.6c1 .3 1.1 -.1 2 .2c.5 -.5 .8 -1.3 2 -1.7l.1 .5c1.1 -.3 1.1 -1 2.5 -.9c2.5 .1 5.1 0 7 0v.5c1 -1.1 3.5 -.5 4.9 -1.1c2.4 .4 5.2 -.6 6.5 .2c4.2 -.5 7.9 -.9 12.3 -.8l-.7 .7c.8 -.5 .5 .4 1.3 .3c-.9 -.5 1 -.7 1.6 -1.2c1.9 .5 4.5 -.1 6.2 -.6l.1 .5c1.7 -.9 3.8 -.1 6 .1c.3 .2 .6 .6 1.3 .6c1.2 -.8 1.8 -.7 3.6 -1.2c1.2 0 3.3 .2 4.6 .6c4.8 -1.1 9.7 -.2 14.7 -.6l.3 .6c4.9 -1 10.8 .5 15 .3l-.5 .9c1.3 .4 3 0 2.7 -.7c1.3 .4 3.3 -.1 4 .8c1.4 .3 1.7 -.3 2.9 -.3c2.6 .8 3.6 .8 6.1 1.1l-.6 -.2c-.3 .2 -.4 .6 .2 .7c1 -.1 3.4 .9 2.7 -.4c1.3 .6 2.9 .8 4.4 1c.8 .1 1.6 .3 2.4 .5c.7 .2 1.3 .5 1.9 .9c-.1 -.4 .6 -.3 .9 -.4c2.4 .6 4.6 2 6.6 2.1c.3 .3 -.8 .3 .1 .7c.6 .1 .2 -.4 .9 -.3c3.9 .7 7.2 3.4 10.4 4.8c6 2.2 11.6 6 16.5 9.6l-.2 .1c2.2 .5 3.2 3.6 5.3 3.7c.2 .4 1.3 1.2 .7 1.4c1.7 .5 3 3.4 5.2 4.5c-.1 -.2 -.3 -.2 -.5 -.3c1.3 2 3.2 3 4.5 5.2c-.2 -.2 -.6 -.4 -.8 -.3c.3 1 2.3 1 1.8 2.1c.3 .4 .6 0 .4 -.3c3.2 4.4 7.2 8.5 10.6 13.1c1.6 3.7 -1.5 1.2 1 3.4c-.1 .3 .4 -.1 .2 .1c1 .8 0 2.3 .9 2.7c.4 -.7 .7 .2 1 0c.9 2.3 .6 3.1 2.1 4.5h-.4c2 1.4 2.8 4 4.7 5.1c6.2 10.7 11.8 21.1 17.4 31.5c5.2 10.4 11.3 19.9 18.2 28.9c1 2.6 1.2 2.8 3.5 4.6c-.2 0 -.3 -.1 -.3 .1c.6 -.4 1.5 1.4 2.2 1.1c3 2.9 6.1 5.1 9.6 7.2c-.6 -.3 -1.2 .1 -.5 .5l1 -.1v.3c.5 .2 1.2 .1 .9 -.4c4.6 2.2 9.4 4.1 14.4 5.4c5 1.3 10.3 2 15.6 1.7c2.6 .2 6.2 -.4 8.9 -1c4.1 0 8 -.4 11.9 -1.2c2 -.4 3.9 -.9 5.8 -1.6c1.9 -.6 3.9 -1.4 5.6 -2.4c0 0 -.1 2.3 -3.3 4Z" class="g3_64"/>
<path d="M183 451.1c.4 .4 1.4 .5 .6 1.1c-.1 -.4 -.6 -.8 -.6 -1.1Z" class="g3_64"/>
<path d="M209.8 453.8c0 -.2 .4 .1 .5 .2c-.3 0 -.6 .3 -.9 .2c.3 -.1 .3 -.3 .4 -.4Z" class="g3_64"/>
<path d="M216.6 453.8c-.1 .3 -1.5 .6 -2.4 .7Z" class="g3_64"/>
<path d="M223 455c.5 .3 .4 .5 -.4 .5c0 -.2 .2 -.3 .4 -.5Z" class="g3_64"/>
<path d="M223.4 454.2c.5 0 .8 .2 1 .4c0 -.3 -1.2 .2 -1 -.4Z" class="g3_64"/>
<path d="M237.1 455c.3 0 1 -.3 1.4 .1c-.4 -.3 -1.6 .4 -1.4 -.1Z" class="g3_64"/>
<path d="M243.5 454.5c.2 0 .3 0 .5 -.1c.4 .2 0 .5 -.3 .5Z" class="g3_64"/>
<path d="M351.4 481.2l-.6 -.4l.3 -.2Z" class="g3_64"/>
<path d="M380.6 521.7c.5 .5 -.1 .5 -.1 .7c-.3 -.6 .5 0 .1 -.7Z" class="g3_64"/>
<path d="M394.6 545.3l-.1 -.1l.6 -.3Z" class="g3_64"/>
<path d="M310.3 455.2c0 3 -2.4 5.4 -5.4 5.4c-3.1 0 -5.5 -2.4 -5.5 -5.4c0 -3 2.4 -5.5 5.5 -5.5c3 0 5.4 2.5 5.4 5.5Z" class="g1_64"/>
<path d="M310.3 455.2c0 3 -2.4 5.4 -5.4 5.4c-3.1 0 -5.5 -2.4 -5.5 -5.4c0 -3 2.4 -5.5 5.5 -5.5c3 0 5.4 2.5 5.4 5.5Z" class="g4_64"/>
<path d="M178.7 451.9c0 3 -2.5 5.4 -5.5 5.4c-3 0 -5.4 -2.4 -5.4 -5.4c0 -3.1 2.4 -5.5 5.4 -5.5c3 0 5.5 2.4 5.5 5.5Z" class="g1_64"/>
<path d="M178.7 451.9c0 3 -2.5 5.4 -5.5 5.4c-3 0 -5.4 -2.4 -5.4 -5.4c0 -3.1 2.4 -5.5 5.4 -5.5c3 0 5.5 2.4 5.5 5.5Z" class="g4_64"/>
<path d="M486.4 603.5c-.1 .1 .2 .2 0 .1c-.1 -.1 -.1 -.2 0 -.1Z" class="g3_64"/>
<path d="M486.3 583.8c.8 -.6 .8 .5 1.4 .2c.1 0 -.2 .4 -.1 .4c.8 -.4 1.1 .4 1.2 1.1l-.1 .1c0 .1 .4 -.2 .4 -.1c0 .1 -.1 .1 -.1 .2c.2 -.2 .2 0 .4 -.1c0 .1 -.2 .3 -.2 .4l.2 -.2c.6 -.6 .3 .3 .7 .1c0 0 -.1 0 -.1 .1c.6 -.2 .9 .2 1.3 .2c0 .1 -.2 .3 -.2 .4c.2 -.3 .3 -.3 .5 -.3c-.2 .4 .3 -.1 .3 .1l-.1 .1c.3 -.3 0 .2 .3 -.1l-.1 .3c.3 -.4 0 .2 .2 .1l.1 -.1c.1 -.1 0 .2 .1 .1v.1c.2 0 .1 .2 .3 -.1c-.1 .3 -.2 0 -.4 .5c.7 -.1 1.1 .3 1.5 .6c0 .1 0 .2 -.1 .3c.1 0 .2 .1 .4 -.1c0 0 -.1 .2 -.1 .3c0 .1 .3 -.3 .3 -.1c-.1 0 -.1 .1 -.2 .2c.2 -.1 .3 0 .5 -.1q-.1 .1 -.2 .2c.3 -.2 .1 .2 .3 .1l-.1 .1c0 .3 .3 -.3 .3 -.1c-.1 0 -.1 .1 -.1 .2c.3 -.3 .4 -.1 .6 -.1c0 0 -.1 .1 -.1 .1c.2 0 .2 .2 .5 .1c-.1 .1 -.4 .5 -.2 .5c.3 -.4 .3 0 .5 -.5c.1 .1 .2 .4 .3 .3c-.1 .1 -.2 .5 -.3 .5l-.1 .2c-.1 .2 0 -.1 -.1 .1c0 .1 .2 0 .2 .1c.3 -.2 .6 -.6 .8 -.5c-.2 .1 -.2 .4 -.3 .5l.6 -.6c.1 0 -.2 .3 0 .2c0 -.1 .1 -.1 .2 -.2c0 .1 .2 0 0 .4c-.1 .2 -.1 0 -.2 .2c.1 .1 .2 -.1 .3 0c0 .1 .2 0 .3 -.3c0 0 -.1 .3 -.1 .1c.2 -.1 .3 -.1 .4 -.1c-.1 0 -.1 .1 -.2 .2c.3 -.2 .5 -.2 .7 -.2c.1 -.2 -.3 .3 -.2 .2c0 .3 .5 -.2 .4 .3c0 0 .2 -.3 .1 -.2c.1 0 -.1 .3 0 .2c-.1 .2 .1 0 .2 0c.1 -.1 0 .1 -.1 .1c.2 -.1 .6 -.1 .6 .2c.1 -.1 .4 -.3 .4 -.3l-.1 .3c-.1 .1 .1 0 0 .2c.2 -.2 -.5 .1 -.3 -.1c0 .2 .4 -.2 .2 .1c.1 0 .3 -.2 .3 0c0 0 -.3 .3 -.2 .3c.1 .1 .1 0 .2 -.1h.1c.1 -.2 .1 -.1 .2 -.1l-.5 .3l.6 1.7c0 0 0 .1 .1 .1l-.9 -.7l.7 -1.4v-.1v.1l-.4 1.8l.6 .3c-.1 -.1 0 .2 -.3 -.1l-.2 -.2c-.1 0 .1 .3 .2 .4c0 0 -.1 0 -.1 -.1c.3 .4 -.1 .1 .1 .4c-.2 0 -.2 .2 -.5 0c0 .2 .1 .4 0 .4q-.1 -.1 -.1 -.2c-.2 -.1 -.1 .1 -.1 .2c0 -.1 -.3 -.2 -.5 -.3c.1 .2 .3 .4 .4 .5c-.4 -.3 0 .5 -.4 .2c0 -.1 0 -.3 -.2 -.3c-.4 -.4 .2 .4 -.1 .3l.3 .3c-.2 -.2 0 .3 -.3 -.1c.1 .2 -.2 0 .1 .3c-.4 -.1 -.2 .6 -.8 .1c0 .1 -.1 .1 0 .2c.2 .2 0 -.2 .1 -.1c0 .1 .1 .2 .1 .2c-.1 0 -.2 0 -.4 -.3c-.3 -.1 .4 .6 .2 .6q-.2 -.1 -.2 -.1l.1 .3c-.1 .1 -.3 -.2 -.5 -.4c-.1 0 -.1 .1 0 .3l-.3 -.2c.2 .1 .1 .1 .1 .2v-.1c-.1 -.1 -.1 0 -.1 .1c.1 .1 .2 .1 .3 .1q0 .2 .1 .3c-.2 -.2 -.3 -.1 -.3 0c-.1 0 .1 .2 .1 .2c-.1 -.1 -.1 0 -.2 -.1c0 -.1 .1 0 .1 -.1c-.2 0 -.3 -.2 -.3 0c.1 .1 .4 .4 .2 .3c0 -.1 -.1 -.1 -.1 -.2l-.2 -.1l.2 .2q-.1 0 -.1 -.1c.1 .3 -.1 .2 .1 .5c0 0 -.2 -.1 -.3 -.1c-.1 -.1 -.1 .1 0 .2h-.1c0 0 -.1 .1 0 .2c-.2 -.1 -.7 -.7 -.5 -.4c-.1 .1 .2 .5 .3 .6c-.2 0 -.1 .4 -.4 .2c0 .1 .1 .1 .1 .2c-.3 .1 -.2 .6 -.7 .4c0 -.2 -.2 -.2 -.3 -.4c.1 .3 -.2 -.1 .1 .2c.1 .2 .2 .3 .3 .3c0 .2 -.1 .4 -.4 .2c.1 .1 .2 .2 .2 .2c-.3 -.2 -.4 -.2 -.3 -.1l.1 .2l-.2 -.1c0 .1 .3 .4 .1 .3c-.1 -.1 -.1 -.2 -.2 -.2c.1 .2 .2 .5 0 .4l-.3 -.2c0 .1 .1 .3 .2 .3c-.2 -.1 -.3 0 -.5 -.2c.2 .7 0 1 -.3 1.2l-.1 -.2c-.2 0 .2 .3 .1 .2c-.1 -.1 -.3 -.2 -.4 -.4c-.2 0 .1 .4 .1 .5c.1 .1 -.1 -.2 .1 0c0 .1 -.2 0 0 .3c-.1 -.1 -.3 -.3 -.4 -.4l.1 .2c-.4 -.3 -.4 -.7 -.8 -1v.1c-.3 -.2 -.1 -.4 -.3 -.4c0 .2 .3 .6 .5 .6c-.1 .2 .5 .7 .3 .8c-.1 -.1 .1 -.1 -.1 -.3c-.3 -.2 0 .2 -.1 .2c.1 0 .3 .3 .3 .4c-.2 -.1 -.2 -.3 -.3 -.2c.1 .1 .2 .3 .3 .3c.3 .4 -.2 0 0 .3c-.2 -.2 -.4 -.6 -.6 -.6c.2 .2 .2 .4 .5 .7c0 0 -.2 -.2 -.3 -.4c-.2 -.1 .2 .6 -.2 .1l.2 .3l-.3 -.2c-.1 0 .1 .4 -.2 .1c0 0 -.1 .1 .2 .3c.2 .1 -.1 -.2 .2 .1c-.3 -.3 0 .1 0 .2l-.1 -.1c0 0 -.1 .1 0 .2c0 -.1 -.1 -.2 -.2 -.2l.2 .3c0 .1 -.3 -.4 -.4 -.2l-.1 -.3c.1 .1 -.2 -.1 -.1 0l.4 .6c0 .2 -.2 -.1 -.1 .1l-.1 -.3c-.1 -.1 -.3 -.3 -.4 -.2c0 .1 .2 .4 .4 .5c-.1 0 -.2 -.1 -.3 -.2c0 .1 .2 .2 .2 .4c-.1 -.1 -.4 -.2 -.6 -.4l-.2 -.4l-.1 .1c-.1 -.3 -.2 -.2 -.4 -.5c-.1 0 0 .1 0 .2c.5 .4 .4 .7 .8 1.1c0 .2 -.9 -.9 -.5 -.2c.1 .1 .3 .5 .3 .3c-.1 0 .3 .4 .1 .3c-.1 -.2 -.5 -.3 -.6 -.6c.1 .1 .2 0 .2 0c-.2 -.1 -.4 -.4 -.5 -.3c0 .1 -.1 .1 .1 .3c.2 .2 .1 -.1 .3 .2c-.1 .1 -.4 -.2 -.1 .3c.1 -.1 .3 .1 .4 .2v.2l-.1 -.2c-.2 0 .2 .3 .1 .4l-.3 -.2c-.2 -.3 .2 -.1 -.2 -.5c-.1 .1 .1 .3 -.1 .3q0 -.1 0 -.2c0 0 -.5 -.5 -.3 -.1c0 .2 .1 .2 .2 .4c-.1 .1 0 .3 0 .4c-.3 -.3 -.2 .1 -.4 -.3c.2 .1 .4 0 .2 -.4c-.4 -.3 .1 0 -.2 -.4c-.1 .1 -.4 -.2 -.6 -.5c-.1 .1 0 .2 0 .2q.2 .2 .4 .4c-.1 .1 -.1 .3 0 .5c-.1 0 -.3 -.3 -.3 -.3c-.1 .2 -.2 .3 -.4 .3c.4 .3 -.1 .2 .3 .4c.1 .1 .4 .3 .5 .5c-.1 0 -.1 -.2 -.2 -.3c.1 .3 -.4 -.2 -.2 .2c0 -.3 -.3 -.5 -.6 -.8c.1 .2 -.1 -.2 -.2 -.1c0 .2 0 .4 0 .6c-.3 -.2 -.3 .2 -.4 .3c-.2 0 -.4 -.4 -.5 -.4c-.1 .1 .3 .3 .1 .3v-.1c0 .1 -.4 -.1 0 .4l-.3 -.4c-.1 0 0 .1 0 .2c-.1 -.1 -.2 -.2 -.2 -.3c-.3 -.2 -.1 .1 -.2 .2l.2 .2c.1 .2 -.2 .1 -.2 .3l-.2 -.2v.2c-.1 -.2 -.3 -.3 -.2 -.1l-.3 -.6c.2 0 .2 .2 .4 .4c.2 .1 .2 0 .1 -.2c-.1 0 0 .1 0 .2c-.3 -.3 -.2 -.4 -.3 -.6c0 .1 -.2 0 -.1 .1c-.1 -.2 0 -.2 0 -.3c.1 .2 .2 .2 .3 .2c-.3 -.2 -.3 -.3 -.1 -.3c.3 .2 0 -.4 .1 -.4c.2 .3 .4 .5 .4 .7c.2 .1 .1 -.1 .2 0c-.1 -.2 -.3 -.5 -.4 -.7l.2 .2c0 -.2 -.2 -.4 -.1 -.5c.2 0 .4 -.2 .5 -.3l.2 .2c-.3 -.4 .1 -.3 0 -.6c.3 0 .2 -.5 .6 -.2c.1 -.4 .2 -.8 .6 -1l.2 .3c-.2 -.2 .1 .1 .1 .1c-.2 -.2 -.1 -.4 -.3 -.6c.4 .1 .3 -.2 .3 -.5l.1 .2c-.2 -.5 .2 -.3 .4 -.4c.1 .1 .3 .2 .3 .2c-.2 -.4 -.1 -.4 -.2 -.7c.1 -.1 .3 -.1 .5 -.1c-.1 -.7 .5 -.7 .6 -1.2l.2 .1c-.1 -.7 .6 -.6 .7 -1.1l.3 .4c.2 0 .1 -.3 -.2 -.5c.2 0 .1 -.4 .4 -.1c.1 0 -.1 -.3 0 -.4c.3 0 .3 -.1 .4 -.3h-.1c.1 .1 .2 .2 .3 .2c0 -.1 .3 -.1 -.2 -.5c.4 .1 .2 -.5 .7 -.3c-.1 -.1 -.1 -.2 -.1 -.3c.1 -.1 .5 0 .4 -.4c.1 .1 .2 .3 .2 .2c0 0 -.1 -.1 -.1 -.2c0 -.5 .7 -.2 .8 -.5c.2 -.6 .7 -.9 1.1 -1.2v.1c-.1 -.5 .6 0 .3 -.6c.1 .1 .1 0 .3 .2c-.1 -.4 .5 -.1 .3 -.5v.1c.4 0 .2 -.4 .6 -.3c0 0 0 .1 0 .2c.3 .1 -.2 -.5 .3 -.1c0 -.1 -.2 -.3 -.2 -.2c.3 -.1 .5 -.4 .6 -.8l.2 2.9c-.1 0 -.3 -.1 -.4 -.1c-.1 -.5 .5 -.8 0 -.6c.1 -.1 -.1 .2 -.1 .1c-.1 0 .3 -.6 0 -.4c-.1 .3 -.1 .1 -.2 .3c-.1 -.3 .1 -.6 -.2 -.5l.1 -.1c-.5 .3 -.5 -.1 -1 .3c-.9 -.5 -1.9 -.7 -2.8 -1.3c-.8 -.6 -1.8 -1 -2.5 -1.8c.1 -.5 0 -.5 -.3 -.5q.1 -.1 .1 -.1c-.2 .3 -.2 -.1 -.4 .2c-.3 -.3 -.6 -.4 -1 -.6c.1 0 .3 -.3 .2 -.3l-.2 .2l.1 -.1c-.1 0 -.2 .1 -.3 .3c-1 -.3 -1.4 -1.5 -2.2 -2c-.1 -.2 -.5 -.3 -.7 -.4c-.4 -.8 -.7 -1.5 -1.5 -1.6c0 0 .6 -.8 1 -.8Z" class="g3_64"/>
<path d="M486.5 603.3c.1 .2 .2 .2 .4 .4c-.2 -.1 -.3 -.2 -.4 -.4Z" class="g3_64"/>
<path d="M489.5 603.3c0 -.1 .1 0 .1 0c0 0 .1 .2 0 .1c0 0 0 -.1 -.1 -.1Z" class="g3_64"/>
<path d="M490 602.9c.1 .2 .1 .4 .1 .4Z" class="g3_64"/>
<path d="M490.9 603.1q.2 .1 .2 .2q-.1 -.1 -.2 -.2Z" class="g3_64"/>
<path d="M490.7 602.8c0 -.1 .1 0 .2 .1c-.1 -.1 0 .1 -.2 -.1Z" class="g3_64"/>
<path d="M491.9 602.3c0 0 0 -.1 .1 0c-.1 -.1 .1 .2 -.1 0Z" class="g3_64"/>
<path d="M492.1 601.8q.1 0 .1 -.1c0 .1 .1 .2 .1 .2Z" class="g3_64"/>
<path d="M499.1 594.4v.1l-.1 -.1Z" class="g3_64"/>
<path d="M498.3 589.7c-.1 0 .1 -.2 .1 -.2c.1 0 -.1 .1 -.1 .2Z" class="g3_64"/>
<path d="M495.9 589.1v0l-.2 .3Z" class="g3_64"/>
<path d="M409.8 558.3c0 3 -2.5 5.5 -5.5 5.5c-3 0 -5.4 -2.5 -5.4 -5.5c0 -3 2.4 -5.4 5.4 -5.4c3 0 5.5 2.4 5.5 5.4Z" class="g1_64"/>
<path d="M409.8 558.3c0 3 -2.5 5.5 -5.5 5.5c-3 0 -5.4 -2.5 -5.4 -5.5c0 -3 2.4 -5.4 5.4 -5.4c3 0 5.5 2.4 5.5 5.4Z" class="g4_64"/>
</svg>