<?xml version="1.0" encoding="UTF-8" standalone="no"?>
<!DOCTYPE svg PUBLIC "-//W3C//DTD SVG 1.1//EN"
"http://www.w3.org/Graphics/SVG/1.1/DTD/svg11.dtd">
<svg viewBox="0 0 660 990" version="1.1" xmlns="http://www.w3.org/2000/svg" xmlns:xlink="http://www.w3.org/1999/xlink">
<defs>
<style type="text/css"><![CDATA[
.g0_79{
fill: none;
stroke: #949698;
stroke-width: 0.763;
}
.g1_79{
fill: #FFF;
}
.g2_79{
fill: none;
stroke: #231F20;
stroke-width: 2.979;
}
.g3_79{
fill: #231F20;
}
]]></style>
</defs>
<path d="M318.5 969.1h23" class="g0_79"/>
<path d="M419.5 478.6H218.3V297H419.5V478.6Z" class="g1_79"/>
<path d="M419.5 478.6H218.3V297H419.5ZM217.7 409.4H419.2" class="g2_79"/>
<path d="M185.9 525.7H314.1V705.9H185.9V525.7Z" class="g1_79"/>
<path d="M185.9 525.7H314.1V705.9H185.9Z" class="g2_79"/>
<path d="M314.1 525.7H441.8v83.6H314.1V525.7Z" class="g1_79"/>
<path d="M314.1 525.7H441.8v83.6H314.1Zm0 0V706.2" class="g2_79"/>
<path d="M353.6 398.6c.2 .3 .6 -.2 .3 .2c-.3 -.1 -.5 -.1 -.3 -.2Z" class="g3_79"/>
<path d="M355.3 319.8c1.8 1 0 2.2 1.1 3.3c.1 .1 -1 -.1 -.8 .2c1.4 1 .6 2.6 -.5 3.8l-.3 -.1c-.2 .3 .7 .6 .6 .8c-.2 0 -.3 -.1 -.6 0c.6 0 .3 .4 .7 .5c-.2 .1 -.7 .1 -.9 .2l.6 .2c1.5 .4 -.1 .9 .7 1.5c-.2 0 -.3 -.1 -.4 -.1c.9 .9 .7 2 1 2.9c-.2 0 -.6 0 -.9 0c.7 .1 .9 .4 1 .6c-.7 .1 .6 .5 .2 .8h-.1c.7 .2 -.4 .3 .4 .5l-.5 .1c1 .1 -.5 .3 0 .5h.2c.2 .2 -.3 .3 -.1 .4h-.1c.2 .4 -.3 .6 .4 .6c-.6 .2 -.3 -.3 -1.1 -.1c.7 1.2 .5 2.5 .5 3.7c-.3 .2 -.4 .3 -.7 .3c.2 .1 .2 .5 .6 .6c0 0 -.4 .1 -.5 .1c-.3 .3 .9 .3 .5 .5c-.2 -.1 -.4 -.1 -.7 -.1c.6 .3 .5 .5 .7 .8q-.2 -.1 -.5 -.1c.7 .3 -.1 .5 .3 .7l-.4 -.1c-.6 .4 .9 .2 .6 .5c-.2 -.1 -.3 -.1 -.5 -.1c.8 .4 .5 .9 .8 1.2c-.1 0 -.2 0 -.2 0c.1 .3 -.2 .7 .2 1c-.2 .2 -1.1 0 -1 .3c.9 0 .4 .7 1.4 .5c-.1 .3 -.5 .7 -.2 1c-.3 -.2 -1.1 .1 -1.1 -.2l-.6 .2c-.3 0 .1 -.2 -.3 -.1c0 .1 .4 .5 .2 .6c.6 .2 1.6 .5 1.7 .9c-.4 -.2 -1 0 -1.2 -.1l1.7 .6c.1 .1 -.7 0 -.4 .2c.2 0 .3 .1 .5 .1c-.1 .1 .2 .6 -.6 .6c-.4 .1 -.2 -.2 -.5 -.1c0 .3 .3 .3 .3 .5h-.1c-.2 .2 .3 .5 .8 .3c0 -.1 -.5 .1 -.3 -.1c.5 .1 .7 .4 .7 .6c-.1 0 -.4 0 -.6 -.1c.7 .4 .9 .7 1.1 1.1c.5 0 -.7 -.2 -.5 -.2c-.6 .4 .8 .9 0 1.3c-.1 -.1 .6 0 .4 0c0 .2 -.6 .2 -.4 .3c-.4 0 .1 .2 .2 .3c.3 .1 -.2 .1 -.2 -.1c.3 .2 .8 1.1 .3 1.5c.2 0 .9 .3 .8 .5l-.5 -.1c-.3 .1 0 .4 -.4 .4c.6 .2 -.6 -.9 -.1 -.6c-.4 .1 .9 .4 .1 .4c.1 .2 .7 .4 .1 .6c.1 -.1 -.7 -.2 -.7 0c.1 .3 .3 .1 .5 .3l.2 .2c.5 0 -.1 .3 .5 .2c-.4 0 .3 .4 -.6 .4l-.7 -.1c0 .2 .7 .3 1 .4c0 0 -.2 0 -.3 0c1.1 .1 -.1 .3 .7 .5c-.3 .3 0 .7 -.7 .8c.3 .3 .7 .5 .5 .7c-.1 0 -.1 -.1 -.4 -.1c-.3 .1 0 .2 .2 .3c-.2 0 -.7 .3 -1 .5c.3 .2 .9 .1 1.2 .2c-1 .1 .7 .6 -.3 .8c-.1 -.1 -.5 -.3 -.8 -.1c-1 .1 .8 .4 .3 .7l.9 -.1c-.6 .2 .5 .5 -.4 .4c.3 .2 -.3 .4 .5 .4c-.7 .5 .4 1.3 -1.1 1.6c.2 0 0 .2 .4 .2c.5 -.1 -.3 -.2 0 -.2c.1 0 .3 .1 .4 .1c-.2 .1 -.2 .3 -1 .1c-.5 .3 1.5 .4 1.1 .8c-.3 0 -.4 0 -.4 .2l.6 .2c-.1 .3 -.8 .2 -1.4 .2c.1 .2 .1 .4 .5 .4l-.7 .2c.5 -.1 .3 .1 .5 .2l-.2 -.1c-.2 .1 -.1 .3 0 .4c.4 -.1 .5 -.2 .6 -.3c.3 0 .2 .2 .5 .3c-.5 -.1 -.4 .2 -.4 .4c-.2 .1 .5 .1 .5 .2c-.3 0 -.1 .2 -.5 .1c-.1 -.1 .3 -.1 0 -.2c-.2 .1 -.7 .1 -.4 .3c.3 .1 1.2 -.1 .8 .2c-.1 -.1 -.4 -.1 -.6 -.1l-.3 .2h.6q-.2 .1 -.3 .1c.6 .1 .2 .4 .8 .4c0 .2 -.4 .3 -.4 .4H358c-.3 .2 -.1 .4 .3 .5h-.2c0 .1 .1 .3 .4 .4c-.4 .2 -2 0 -1.4 .3c.1 .2 1 .4 1.4 .3c-.4 .4 .4 .8 -.4 1.2c.2 0 .4 0 .5 .1c-.2 .6 .6 1.2 -.5 1.7c-.2 -.2 -.5 0 -.8 0c.5 .1 -.5 .1 .3 .2c.5 0 .7 0 .9 -.2c.3 .4 .3 .9 -.2 1.1c.3 -.1 .4 0 .5 0c-.7 0 -.8 .3 -.6 .5h.5l-.5 .1c.2 .1 1 .1 .5 .3h-.5c.4 .2 1.1 .5 .7 .7l-.7 .2c.1 .1 .5 .3 .7 .1c-.5 .4 -.5 .6 -1.1 .7c1.4 .7 1.5 1.6 1.3 2.3h-.3c-.3 .2 .6 .1 .4 .2c-.4 0 -.8 .2 -1.2 0c-.3 .3 .6 .4 .8 .6c.4 0 -.3 -.2 .3 -.1c.1 0 -.4 .3 .3 .4c-.3 .1 -.8 0 -1.1 0l.4 .1c-.8 .2 -1.5 -.5 -2.5 -.3l.1 .2c-.7 .1 -.8 -.4 -1 0c.3 .1 1.3 .3 1.6 .1c.2 .4 1.7 .2 1.6 .6c-.4 .1 -.1 -.3 -.7 -.2c-.5 .2 .3 .4 .2 .5c.2 -.2 .9 0 1 .1c-.3 .2 -.6 -.1 -.7 .2c.4 0 .7 .3 1 .1c.9 .1 -.3 .2 .4 .4c-.6 .1 -1.4 -.3 -1.8 0c.7 0 .9 .4 1.8 .2c-.2 .2 -.7 .2 -1.1 .1c-.3 .1 1.2 .4 -.1 .4l.7 .1c-.2 .1 -.4 .1 -.7 .2c-.1 .2 .8 .5 -.1 .5c.1 0 0 .4 .7 .3c.4 -.2 -.5 -.3 .4 -.4c-.7 .1 .1 .3 .3 .4l-.4 .1c.2 0 .1 .2 .5 .3c-.2 -.1 -.5 -.1 -.6 0l.6 .1c.3 .3 -1 0 -.8 .3l-.5 -.2c.1 0 -.4 .1 -.2 .3c.5 0 1.1 .1 1.5 .2c.2 .2 -.6 .1 -.1 .2l-.6 -.2c-.1 0 -.8 .1 -.8 .4c.2 .1 .9 .3 1.2 .1c0 .1 -.3 .3 -.7 .2c.2 .2 .6 0 .9 .2c-.4 .1 -.9 .3 -1.3 .5l-.9 -.3v.2c-.7 -.2 -.5 .1 -1.3 0c-.1 .1 .2 .2 .4 .3c1.1 -.3 1.5 .4 2.6 .3c.3 .4 -2.6 .2 -.9 .7c.2 -.1 1 .1 .7 -.2c-.1 .3 1.1 .2 .7 .5c-.5 -.2 -1.1 .2 -1.7 -.1c.3 0 .2 -.2 .1 -.2c-.4 .1 -1 0 -1 .2c.1 .2 .1 .4 .6 .4c.6 0 0 -.3 .6 -.2c.2 .4 -.7 .4 .3 .5c-.1 -.2 .6 -.2 1 -.2l.2 .2h-.4c-.3 .4 .8 .1 .6 .5l-.8 .1c-.6 -.1 .4 -.5 -.8 -.4c0 .2 .6 .3 .3 .5l-.2 -.2c-.1 .1 -1.6 .2 -.7 .5c.3 .2 .4 .1 .8 .1c.1 .4 .5 .5 .6 .7c-.8 0 -.1 .5 -.9 .2c.5 -.1 .4 -.7 -.3 -.8c-1 .1 .1 -.3 -.9 -.4c0 .3 -.9 .2 -1.6 .3c0 .1 .3 .2 .4 .2c.5 .1 .5 -.1 1.1 -.1c-.1 .4 .2 .7 .8 .9c-.3 .1 -.9 .1 -1 -.1c.2 .4 .1 .9 -.1 1.3c1 -.3 .2 .4 1 .2c.3 -.2 .9 -.3 1.4 -.2c-.1 .1 -.5 0 -.7 0c.6 .2 -.8 .3 0 .4c-.3 -.3 -1.1 -.1 -1.9 -.1c.4 .2 -.5 -.1 -.5 .2c.4 .3 .7 .6 .9 .9c-.7 .4 -.1 .9 0 1.3c-.4 .1 -1.3 0 -1.4 .2c0 .2 .9 -.2 .5 .2l-.2 -.1c.2 .1 -.5 .6 .7 .7l-.9 -.1c-.1 .1 .1 .1 .2 .2c-.3 0 -.6 0 -.8 -.1c-.6 .2 .1 .5 .1 .7l.6 -.1c.4 .3 -.1 .6 0 .9h-.5l.3 .2c-.5 0 -.8 .2 -.4 .3l-1.3 -.6c.3 -.1 .7 .2 1.2 .1c.4 -.1 .3 -.4 -.2 -.5c-.1 .2 0 .2 .2 .3c-.7 0 -.7 -.2 -1.2 -.3c.1 .1 -.2 .2 .1 .2c-.4 -.2 -.4 -.3 -.5 -.5c.3 .1 .5 -.1 .7 0c-.6 -.1 -.8 -.3 -.6 -.5c.7 -.2 -.5 -.6 -.3 -.9c.6 .2 1.2 .3 1.4 .5c.4 -.2 0 -.2 .4 -.4c-.5 -.1 -1.3 -.2 -1.6 -.4h.5c-.2 -.3 -1 -.3 -.8 -.6c.2 -.5 .2 -1 .3 -1.4h.5c-1 -.2 -.4 -.7 -.8 -1c.4 -.5 -.5 -1.1 .4 -1.3c-.4 -.9 -.7 -1.7 -.6 -2.6l.7 .2c-.5 -.2 .5 -.1 .4 -.3c-.6 .2 -.8 -.2 -1.2 -.3c.6 -.4 0 -.9 -.5 -1.3h.5c-.9 -.4 -.1 -.8 0 -1.3c.2 0 .7 -.1 .6 -.2c-.8 -.3 -.7 -.4 -1.2 -.8c0 -.2 .2 -.6 .5 -.9c-1 -1 -.3 -2 -1 -3l.6 -.1c-1.2 -1 -.1 -2.2 -.7 -3h1c.3 -.2 -.3 -.6 -1 -.5c.4 -.3 -.4 -.7 .4 -.8c.2 -.3 -.5 -.4 -.6 -.6c.4 -.5 .3 -.7 .1 -1.2v.1c.2 0 .6 0 .7 -.1c-.3 -.2 .2 -.7 -.9 -.5c.7 -.5 -.5 -1.3 .4 -1.8c-.3 0 -.4 -.1 -.6 -.2c0 -.4 .6 -.9 .1 -1.3c.2 -.1 .5 .1 .6 -.1c-.1 -.1 -.4 0 -.6 -.1c-.6 -.8 .6 -1.6 .5 -2.3c-.6 -1.3 -.3 -2.6 -.4 -3.8h.3c-.9 -.4 .9 -.9 -.4 -1.2c.2 -.1 .1 -.4 .5 -.3c-.6 -.4 .6 -.9 -.2 -1.4c0 0 .1 .1 .2 .1c.5 -.4 -.2 -.9 .3 -1.3c.1 0 .1 .1 .4 .1c.4 -.2 -1 -.5 .1 -.5c0 -.1 -.6 -.1 -.5 -.1c.4 -1 -.3 -2.2 -.5 -3.3c.7 -.8 1.9 0 1.1 -.7c.2 -.1 -.5 0 -.2 -.1c-.3 -.2 1.2 -.3 .6 -.5c-.6 .1 -.3 -.1 -.8 -.1c.5 -.5 1.1 -.6 .6 -1h.4c-1.1 -.4 -.5 -1 -1.7 -1.4c-.1 -2.5 -.8 -4.9 -.9 -7.4c.3 -2.4 -.2 -4.8 .5 -7.2c1 -.6 .9 -.6 .5 -1.3q.2 .1 .4 .1c-.8 -.1 -.1 -.5 -.8 -.6c.1 -.9 -.1 -1.7 -.1 -2.7c.1 .2 .8 .3 .7 .1l-.5 -.2h.2c-.1 -.1 -.5 -.3 -.7 -.2c-.6 -2.3 1 -4.6 .8 -6.9c.3 -.6 .1 -1.4 -.1 -1.9c1.1 -1.8 1.9 -3.4 1.2 -5.2c0 0 2.1 .3 2.5 1Z" class="g3_79"/>
<path d="M353.5 398.2c.4 -.1 .6 -.3 1.2 -.1c-.4 0 -.8 .1 -1.2 .1Z" class="g3_79"/>
<path d="M357.6 392.8c-.1 0 .2 -.1 .3 -.1c0 .1 .3 .1 .1 .2c0 -.1 -.2 -.1 -.4 -.1Z" class="g3_79"/>
<path d="M357.9 391.4c.3 0 .6 .3 .7 .5Z" class="g3_79"/>
<path d="M359.4 390.1c.2 -.1 .4 -.1 .4 .1Z" class="g3_79"/>
<path d="M358.6 390c0 -.1 .2 -.1 .4 -.2c-.3 0 .1 .3 -.4 .2Z" class="g3_79"/>
<path d="M359.6 387.2c0 -.1 -.3 -.2 .1 -.3c-.3 .1 .4 .4 -.1 .3Z" class="g3_79"/>
<path d="M359.1 385.9c0 -.1 .1 -.1 0 -.1c.2 -.1 .4 0 .5 0Z" class="g3_79"/>
<path d="M358.1 361.9l.2 .1h-.4Z" class="g3_79"/>
<path d="M358.3 351.4c-.2 -.2 .3 -.1 .4 -.1c0 .1 -.5 -.1 -.4 .1Z" class="g3_79"/>
<path d="M356.6 345.7v0h-.7Z" class="g3_79"/>
<path d="M361.1 332.7c.1 .1 .2 -.1 .1 .1c-.1 0 -.2 0 -.1 -.1Z" class="g3_79"/>
<path d="M346.4 327.7c-.5 -.8 .5 -.8 .3 -1.5c0 -.1 .4 .2 .4 .1c-.4 -.8 .3 -1.2 1.1 -1.4l.1 .1c.1 0 -.2 -.3 -.1 -.4c.1 0 .1 .1 .2 .1c-.2 -.1 0 -.2 -.1 -.3l.4 .1l-.2 -.2c-.6 -.6 .2 -.4 0 -.8l.2 .2c-.2 -.6 .1 -1 .2 -1.4c.1 0 .3 .2 .4 .2c-.3 -.2 -.3 -.4 -.3 -.5c.3 .2 -.1 -.3 .1 -.3h.1c-.3 -.3 .2 0 -.1 -.3l.2 .1c-.3 -.3 .3 0 .2 -.2l-.1 -.1c-.1 -.1 .2 0 .1 -.1h.1c0 -.2 .2 -.1 -.1 -.3c.3 .1 0 .2 .5 .3c-.1 -.6 .3 -1.1 .6 -1.6q.2 0 .3 .1c0 -.1 .1 -.2 0 -.4c0 .1 .1 .1 .2 .1c.2 0 -.3 -.3 -.1 -.3l.3 .2c-.2 -.2 -.1 -.3 -.1 -.5q0 .1 .1 .2c-.2 -.3 .2 -.2 .1 -.4l.1 .2c.4 0 -.3 -.3 -.1 -.4l.2 .2c-.3 -.3 0 -.5 -.1 -.6h.1c0 -.2 .2 -.2 .2 -.5c.1 0 .4 .3 .4 .2c-.4 -.3 0 -.4 -.5 -.6c.2 0 .4 -.1 .3 -.3c.2 .1 .5 .2 .5 .4h.3c.1 .1 -.1 .1 .1 .2c0 -.1 0 -.3 0 -.3c-.1 -.3 -.5 -.6 -.5 -.8c.1 .2 .5 .2 .5 .3l-.6 -.7c0 0 .3 .2 .3 .1l-.3 -.2c.1 0 .1 -.3 .5 -.1c.1 .1 0 .2 .2 .2c0 -.1 -.1 -.2 -.1 -.3l.1 .1c.1 -.1 -.1 -.3 -.3 -.4c0 0 .2 .1 .1 .1c-.2 -.1 -.2 -.3 -.2 -.4c.1 .1 .2 .1 .3 .2c-.2 -.3 -.2 -.5 -.3 -.7c-.2 -.1 .3 .3 .2 .2c.4 0 -.1 -.5 .3 -.5c0 .1 -.2 -.1 -.2 -.1c.1 0 .4 .1 .3 0c.1 .1 0 -.1 0 -.2c-.1 -.1 .1 0 0 .1c0 -.1 0 -.2 0 -.4v-.1c-.5 0 4.2 .4 2.2 .2l.1 .1v.2c.1 0 .4 0 .4 0l-.3 .1c-.1 .1 .1 .2 -.1 .3c.4 -.1 -.4 -.3 -.1 -.3c-.2 .2 .5 .1 .1 .2c.1 .1 .4 0 .2 .2c0 0 -.4 .1 -.4 .1c.1 .2 .2 0 .3 .1h.1c.3 -.1 .1 .2 .3 0c-.2 .1 .2 .1 -.2 .3l-.3 .1c0 .1 .3 0 .5 -.1l-.1 .1c.5 -.2 0 .2 .4 .1c-.1 .2 .1 .3 -.2 .5c.2 0 .4 0 .3 .2c0 0 0 -.1 -.2 0c-.1 .1 .1 .1 .2 .1c-.1 0 -.3 .2 -.4 .4c.2 0 .4 -.1 .6 -.2c-.5 .3 .4 .1 0 .4c-.1 0 -.3 0 -.4 .1c-.4 .3 .4 0 .3 .3l.4 -.2c-.3 .1 .3 .1 -.1 .2c.1 0 -.1 .2 .3 .1c-.3 .3 .4 .4 -.3 .8c.1 0 .1 .1 .3 0c.2 -.1 -.2 0 -.1 -.1c.1 .1 .2 0 .2 0c0 .1 -.1 .2 -.4 .3c-.2 .2 .7 -.2 .7 .1c-.2 0 -.3 .1 -.2 .1h.3c0 .2 -.3 .2 -.6 .4c.1 0 .1 .1 .3 0l-.3 .3c.2 -.2 .2 0 .2 0c-.1 0 0 .1 0 .1c.2 -.1 .2 -.2 .2 -.3c.2 0 .2 .1 .3 .1c-.2 .1 -.1 .2 -.1 .2c-.1 .1 .2 0 .2 0c-.1 .1 .1 .1 -.2 .2c0 0 .2 -.1 0 -.1c-.1 .1 -.3 .1 -.1 .2c.2 0 .5 -.3 .4 -.1l-.3 .1l-.1 .1l.3 -.1l-.1 .1c.2 -.1 .1 .1 .4 0c0 .1 -.1 .2 -.1 .3h-.1c-.1 .1 .1 .2 .2 .1v.1c0 0 .1 .1 .2 .1c-.1 .1 -.9 .4 -.5 .3c0 .1 .5 0 .6 -.1c-.1 .2 .4 .3 .1 .6l.2 -.1c0 .3 .5 .4 .1 .8c-.1 0 -.3 .1 -.4 .2c.2 -.1 -.2 .1 .2 0c.2 -.1 .3 -.1 .4 -.2c.2 .1 .2 .3 .1 .4q.1 0 .2 0c-.3 .1 -.4 .2 -.2 .3l.2 -.1l-.2 .1c.1 0 .5 -.1 .3 0l-.2 .2c.2 0 .6 0 .4 .1l-.3 .2c.1 0 .3 0 .3 -.1c-.1 .3 -.1 .4 -.3 .5c.8 0 .9 .4 1 .7l-.2 .1c-.1 .1 .3 -.1 .3 0c-.2 .1 -.4 .2 -.6 .2c-.1 .2 .4 .1 .5 .1c.2 -.1 -.2 0 .1 -.1c.1 0 -.1 .2 .2 .1c-.1 .1 -.3 .2 -.5 .2h.2c-.3 .3 -.7 .1 -1.2 .4h.1c-.3 .2 -.4 0 -.5 .2c.2 0 .7 -.1 .8 -.2c.2 .1 .8 -.3 .8 -.1c-.1 .1 -.1 -.1 -.3 0c-.2 .2 .2 .1 .1 .2c.1 -.1 .5 -.2 .6 -.1c-.2 .1 -.4 0 -.4 .2c.2 -.1 .4 0 .5 -.2c.4 -.1 -.1 .2 .3 .1c-.3 .2 -.7 .2 -.8 .4c.2 -.2 .4 0 .8 -.3c-.1 .1 -.3 .2 -.5 .2c-.1 .2 .6 0 .1 .3l.3 -.1c-.1 0 -.2 .1 -.3 .2c0 .1 .5 0 0 .2c.1 0 .1 .2 .4 0c.1 -.2 -.3 0 .1 -.2c-.3 .1 .1 .1 .2 .1h-.1q.1 .1 .2 .1c-.1 0 -.2 .1 -.2 .1l.3 -.1c.1 .1 -.5 .2 -.4 .3H361c.1 0 -.2 .2 -.1 .2c.3 -.1 .6 -.2 .8 -.2c.1 0 -.3 .1 0 .1h-.3c-.1 0 -.4 .2 -.4 .3c.2 .1 .5 0 .6 -.1c.1 0 -.1 .1 -.3 .2c.2 0 .3 -.1 .5 -.1c-.2 .1 -.3 .3 -.5 .4l-.5 .1v.1c-.3 0 -.2 .1 -.5 .2c-.1 .1 .1 .1 .2 .1c.5 -.4 .8 -.2 1.2 -.4c.2 .1 -1.1 .6 -.3 .5c.1 -.1 .5 -.2 .4 -.2c-.1 .1 .5 -.2 .3 0c-.2 0 -.4 .3 -.8 .3c.2 0 .1 -.1 .1 -.1c-.2 .1 -.5 .2 -.5 .3c.1 0 .1 .1 .4 0c.3 -.1 -.1 -.1 .2 -.2c.2 .1 -.3 .3 .3 .2c-.1 -.1 .2 -.2 .4 -.3l.1 .1h-.2c0 .2 .4 -.1 .4 .1l-.3 .2c-.4 .1 0 -.3 -.5 0c0 .1 .3 0 .2 .2l-.1 -.1c0 .1 -.7 .4 -.2 .4c.1 0 .1 -.1 .3 -.2c.2 .2 .4 .1 .4 .2c-.3 .2 .1 .2 -.4 .3c.2 -.2 .1 -.4 -.2 -.3c-.5 .2 0 -.2 -.5 0c0 .1 -.4 .3 -.7 .4c0 .1 .2 .1 .2 .1c.3 -.1 .3 -.2 .5 -.3c0 .2 .2 .2 .5 .2c-.1 .1 -.4 .2 -.4 .2c.1 .1 .2 .3 .1 .5c.4 -.3 .2 .1 .6 -.1c0 -.1 .3 -.3 .5 -.3c0 0 -.2 0 -.3 .1c.3 0 -.3 .3 .1 .2c-.2 -.1 -.5 .2 -.9 .3c.2 0 -.2 .1 -.2 .2c.2 0 .4 .1 .6 .2c-.3 .3 .1 .4 .2 .5c-.2 .1 -.6 .2 -.6 .4c0 0 .4 -.3 .3 -.1h-.1c.1 0 -.2 .4 .4 .2l-.4 .1c-.1 .1 0 .1 .1 .1c-.2 0 -.3 .1 -.4 .1c-.2 .2 .1 .2 .2 .2l.2 -.1c.3 .1 .1 .3 .2 .4l-.2 .1h.2c-.3 .1 -.4 .2 -.2 .2H361c.1 -.1 .3 0 .6 -.2c.2 -.1 0 -.2 -.2 -.1h.1c-.3 .2 -.3 .1 -.6 .1c.1 0 0 .1 .1 .1q-.2 0 -.3 -.1c.2 0 .2 -.2 .3 -.2c-.3 .1 -.4 .1 -.4 -.1c.3 -.2 -.3 -.1 -.2 -.2c.3 -.1 .6 -.1 .7 -.1c.1 -.2 0 -.1 .1 -.2c-.3 0 -.6 .1 -.8 .1l.2 -.1c-.1 -.1 -.5 .1 -.4 -.1c0 -.3 -.1 -.5 -.1 -.6l.2 -.1c-.5 .1 -.3 -.3 -.6 -.3c.1 -.3 -.4 -.4 0 -.6c-.4 -.3 -.7 -.6 -.7 -1l.3 -.1c-.2 .1 .2 -.1 .1 -.1c-.2 .2 -.4 0 -.6 0c.2 -.2 -.1 -.3 -.4 -.4l.2 -.1c-.5 0 -.2 -.3 -.2 -.5c.1 -.1 .3 -.2 .2 -.2c-.4 0 -.4 -.1 -.7 -.1c0 -.1 0 -.3 .1 -.5c-.7 -.2 -.5 -.8 -1 -1.1l.3 -.1c-.8 -.2 -.5 -.9 -.9 -1.1l.5 -.2c.1 -.2 -.2 -.2 -.5 0c0 -.2 -.4 -.2 0 -.4c0 -.2 -.3 -.1 -.4 -.2c.1 -.3 0 -.3 -.2 -.5c.1 0 .3 0 .3 -.1c-.1 0 0 -.4 -.5 -.1c.3 -.3 -.4 -.4 -.1 -.8c-.1 .1 -.2 .1 -.3 .1c-.1 -.2 .1 -.6 -.2 -.6c.1 -.1 .3 -.1 .3 -.2c-.1 0 -.2 .1 -.3 .1c-.4 -.2 0 -.8 -.2 -1c-.5 -.5 -.6 -1.1 -.8 -1.5l.1 -.1c-.5 0 .3 -.6 -.4 -.4c.1 -.1 0 -.2 .2 -.3c-.4 0 .1 -.5 -.3 -.5c.2 -.3 -.2 -.3 -.1 -.6q.1 0 .2 0c.2 -.2 -.5 0 0 -.3c0 0 -.3 .1 -.2 .1c0 -.5 -.5 -.9 -.8 -1.3c.1 -.4 .8 -.4 .3 -.5c.1 0 -.2 .1 -.1 0c-.2 0 .5 -.3 .2 -.3c-.1 .1 -.2 .1 -.2 .1c-2.5 -.2 3.3 .3 2.7 .2l.1 .1c-.3 0 -.6 -.1 -.5 .2l-.1 -.1c.3 .4 -.1 .5 .3 1c-.5 1 -.8 2.1 -1.3 3.1c-.7 .8 -1 1.9 -1.8 2.7c-.6 -.1 -.6 0 -.6 .3l-.1 -.1c.3 .2 -.1 .2 .2 .4c-.3 .3 -.4 .7 -.6 1.1c0 -.1 -.2 -.3 -.3 -.2l.2 .2l-.1 -.1c0 .1 .2 .3 .3 .3c-.3 1.1 -1.5 1.5 -2 2.5c-.2 .1 -.3 .5 -.4 .8c-.8 .4 -1.6 .7 -1.7 1.6c0 0 -.8 -.6 -.8 -1Z" class="g3_79"/>
<path d="M361 332.6c.1 -.1 .2 -.2 .5 -.2Z" class="g3_79"/>
<path d="M361.9 329.6c0 0 .1 -.1 .1 -.1c0 0 .2 0 .1 0c0 0 -.1 0 -.2 .1Z" class="g3_79"/>
<path d="M361.8 328.9c.2 0 .3 0 .4 .1Z" class="g3_79"/>
<path d="M362.2 328.1q.2 -.1 .3 0Z" class="g3_79"/>
<path d="M361.9 328.2c-.1 0 0 -.1 .1 -.1c-.1 0 .1 0 -.1 .1Z" class="g3_79"/>
<path d="M361.8 326.9c0 -.1 -.1 -.1 0 -.2c-.1 .1 .3 .1 0 .2Z" class="g3_79"/>
<path d="M361.4 326.4c0 -.1 .2 -.1 .2 -.1Z" class="g3_79"/>
<path d="M356.7 316.6h.1l-.2 .1Z" class="g3_79"/>
<path d="M352.4 314.7c0 .1 -.2 -.1 -.2 -.1c0 0 .2 .2 .2 .1Z" class="g3_79"/>
<path d="M351.8 317.3v0l.3 .2Z" class="g3_79"/>
<path d="M247.8 659.9c.2 .3 .6 -.1 .3 .2c-.3 0 -.5 -.1 -.3 -.2Z" class="g3_79"/>
<path d="M249.5 581.2c1.8 1 0 2.2 1.1 3.3c.1 .1 -1 -.1 -.8 .2c1.4 1 .6 2.6 -.5 3.8l-.3 -.1c-.2 .2 .7 .5 .6 .8c-.2 0 -.3 -.1 -.6 0c.6 0 .3 .4 .7 .5c-.2 .1 -.7 .1 -.9 .2l.6 .2c1.5 .4 -.1 .9 .7 1.5c-.2 -.1 -.3 -.1 -.4 -.1c.9 .9 .7 2 1 2.9c-.2 0 -.6 0 -.9 0c.7 .1 .9 .4 1 .6c-.7 .1 .6 .5 .2 .8l-.1 -.1c.7 .3 -.4 .4 .4 .6l-.5 .1c1 .1 -.5 .3 0 .5h.2c.2 .2 -.3 .3 -.1 .4h-.1c.2 .4 -.3 .6 .4 .6c-.6 .2 -.3 -.3 -1.1 -.1c.7 1.2 .5 2.5 .5 3.7c-.3 .2 -.4 .3 -.7 .3c.2 .1 .2 .5 .6 .6c-.1 -.1 -.4 .1 -.5 .1c-.3 .2 .9 .3 .5 .5c-.2 -.1 -.4 -.1 -.7 -.1c.6 .2 .5 .5 .7 .8q-.2 -.1 -.5 -.1c.7 .3 -.1 .5 .3 .7l-.4 -.1c-.6 .4 .9 .2 .6 .5c-.2 -.1 -.4 -.1 -.5 -.1c.8 .3 .5 .8 .8 1.2c-.1 -.1 -.2 -.1 -.2 -.1c.1 .4 -.2 .7 .2 1.1c-.2 .2 -1.1 0 -1 .3c.9 0 .4 .6 1.4 .4c-.2 .4 -.5 .8 -.2 1c-.3 -.1 -1.1 .2 -1.1 -.1l-.6 .2c-.4 0 .1 -.2 -.3 -.1c0 .1 .4 .5 .2 .6c.6 .2 1.6 .5 1.7 .8c-.4 -.1 -1 .1 -1.2 0l1.7 .6c.1 .1 -.7 0 -.4 .2c.2 0 .3 .1 .5 .1c-.1 .1 .2 .6 -.6 .6c-.4 0 -.2 -.2 -.5 -.1c0 .3 .3 .3 .3 .5h-.1c-.2 .2 .3 .5 .8 .3c0 -.1 -.5 0 -.3 -.1c.5 .1 .7 .4 .7 .6c-.2 -.1 -.4 -.1 -.6 -.1c.6 .3 .9 .7 1.1 1c.5 .1 -.7 -.1 -.5 -.2c-.6 .5 .8 1 0 1.4c-.1 -.1 .5 -.1 .4 -.1c0 .3 -.6 .2 -.4 .4c-.4 0 .1 .2 .2 .3c.3 .1 -.2 .1 -.2 -.1c.3 .2 .8 1.1 .3 1.5c.2 0 .9 .3 .8 .4h-.5c-.3 .1 0 .4 -.4 .4c.6 .2 -.6 -.9 -.1 -.6c-.4 .1 .9 .4 .1 .4c.1 .2 .7 .4 .1 .6c.1 -.1 -.7 -.2 -.7 0c.1 .3 .3 .1 .5 .3l.2 .2c.5 0 -.1 .3 .5 .2c-.4 0 .3 .4 -.6 .4l-.7 -.1c0 .2 .7 .3 1 .4c0 0 -.2 0 -.3 0c1.1 0 -.1 .3 .7 .5c-.3 .3 0 .7 -.7 .8c.3 .3 .7 .5 .5 .7c-.1 0 -.1 -.1 -.4 -.1c-.3 .1 0 .2 .2 .3c-.2 0 -.7 .3 -1 .5c.3 .2 .9 .1 1.2 .2c-1.1 .1 .7 .6 -.3 .8c-.1 -.1 -.5 -.3 -.8 -.1c-1 .1 .8 .4 .3 .7l.9 -.1c-.6 .1 .5 .5 -.4 .4c.3 .1 -.3 .4 .5 .4c-.7 .5 .4 1.3 -1.1 1.6c.2 0 0 .2 .4 .2c.5 -.1 -.3 -.2 0 -.2c.1 0 .3 0 .4 .1c-.2 .1 -.3 .2 -1 .1c-.5 .3 1.5 .4 1.1 .8c-.3 0 -.4 0 -.4 .2l.6 .2c-.1 .3 -.8 .2 -1.4 .2c.1 .1 .1 .3 .5 .4l-.7 .2c.5 -.1 .3 .1 .5 .2l-.2 -.1c-.2 .1 -.1 .2 0 .3c.4 0 .5 -.2 .6 -.3c.3 .1 .2 .2 .5 .4c-.5 -.1 -.4 .2 -.4 .3c-.2 .2 .5 .2 .5 .3c-.4 0 -.1 .2 -.5 .1c-.1 -.1 .3 -.1 0 -.2c-.2 .1 -.7 0 -.4 .2c.3 .2 1.2 0 .8 .3c-.1 -.1 -.4 -.1 -.6 -.1l-.3 .2h.6c-.2 .1 -.2 0 -.3 .1c.6 0 .2 .4 .8 .4c0 .2 -.4 .3 -.4 .4h-.1c-.3 .2 -.1 .4 .3 .5h-.2c0 .1 .1 .3 .4 .4c-.4 .2 -2 0 -1.4 .3c.1 .2 1 .3 1.4 .3c-.4 .3 .4 .8 -.4 1.2c.2 0 .4 0 .5 .1c-.2 .6 .6 1.2 -.5 1.7c-.2 -.2 -.5 -.1 -.8 -.1c.5 .2 -.5 .2 .3 .3c.5 0 .7 0 .9 -.2c.3 .4 .3 .9 -.2 1.1c.3 -.1 .4 0 .5 0c-.7 0 -.8 .2 -.6 .4l.5 .1l-.5 .1c.2 .1 1 .1 .5 .3c-.1 0 -.3 0 -.5 0c.4 .2 1.1 .5 .7 .7l-.7 .2c0 .1 .5 .2 .7 .1c-.5 .3 -.5 .6 -1.1 .7c1.4 .6 1.5 1.6 1.3 2.3H253c-.3 .2 .6 .1 .4 .2c-.4 -.1 -.8 .2 -1.2 0c-.3 .3 .6 .4 .8 .5c.4 .1 -.3 -.1 .3 -.1c.1 .1 -.4 .4 .3 .5c-.3 0 -.8 0 -1.1 -.1l.4 .2c-.8 .2 -1.5 -.5 -2.5 -.3l.1 .2c-.7 .1 -.8 -.5 -1 -.1c.3 .2 1.3 .4 1.6 .2c.2 .4 1.7 .2 1.6 .6c-.4 .1 -.1 -.3 -.7 -.2c-.5 .1 .3 .3 .1 .5c.3 -.2 1 0 1.1 .1c-.3 .2 -.6 -.1 -.7 .1c.4 .1 .7 .4 1 .1c.9 .2 -.3 .3 .4 .5c-.6 .1 -1.4 -.3 -1.8 0c.6 -.1 .9 .4 1.8 .2c-.2 .1 -.7 .2 -1.1 .1c-.3 .1 1.2 .4 -.1 .4l.7 .1c-.2 0 -.4 .1 -.7 .2c-.1 .2 .8 .5 -.1 .5c.1 0 0 .4 .7 .3c.4 -.3 -.5 -.3 .4 -.4c-.8 .1 .1 .3 .3 .4h-.4c.2 .1 .1 .3 .5 .3c-.2 0 -.5 0 -.6 .1l.6 .1c.3 .3 -1 0 -.8 .3l-.5 -.2c.1 0 -.4 .1 -.2 .3l1.5 .2c.2 .2 -.6 0 -.1 .2l-.6 -.2c-.1 0 -.8 .1 -.8 .3c.2 .2 .9 .4 1.2 .2c0 .1 -.3 .3 -.7 .2c.2 .2 .6 -.1 .9 .2c-.4 0 -.9 .3 -1.4 .5l-.8 -.3v.2c-.7 -.2 -.5 .1 -1.3 0c-.1 .1 .2 .2 .4 .3c1.1 -.3 1.5 .3 2.6 .3c.3 .4 -2.6 .2 -.9 .6c.2 0 1 .2 .7 -.1c-.1 .3 1.1 .2 .6 .5c-.4 -.2 -1 .2 -1.6 -.1c.3 0 .2 -.2 .1 -.2c-.4 .1 -1 -.1 -1 .2c.1 .2 .1 .4 .6 .4c.6 0 0 -.3 .6 -.2c.2 .3 -.7 .4 .3 .5c-.1 -.2 .6 -.2 1 -.2l.2 .2h-.4c-.3 .4 .8 .1 .6 .5l-.8 .1c-.6 -.1 .4 -.5 -.8 -.4c0 .2 .6 .3 .3 .5c-.1 -.1 -.2 -.1 -.2 -.2c-.1 .1 -1.6 .2 -.7 .5c.3 .2 .4 .1 .8 .1c.1 .4 .5 .5 .6 .7c-.8 0 -.1 .4 -.9 .2c.5 -.1 .4 -.7 -.3 -.8c-1 .1 .1 -.3 -.9 -.4c0 .3 -.9 .2 -1.6 .3c0 .1 .3 .1 .4 .2c.5 0 .5 -.1 1.1 -.1c-.1 .4 .2 .7 .7 .9c-.2 .1 -.8 .1 -.9 -.1c.2 .4 .1 .9 -.1 1.2c1 -.2 .2 .5 1 .3c.2 -.2 .9 -.4 1.4 -.2c-.1 .1 -.5 0 -.7 0c.5 .2 -.8 .2 0 .4c-.3 -.4 -1.1 -.1 -1.9 -.2c.4 .3 -.5 0 -.5 .3c.4 .3 .7 .6 .9 .9c-.8 .3 -.1 .9 0 1.3c-.4 .1 -1.3 0 -1.4 .2c0 .2 .9 -.2 .5 .1h-.2c.2 .1 -.5 .6 .7 .7l-.9 -.1c-.1 .1 .1 .1 .2 .2c-.3 0 -.6 0 -.8 -.1c-.6 .2 .1 .5 .1 .7l.6 -.2c.4 .4 -.2 .7 0 1h-.5l.3 .2c-.5 0 -.8 .2 -.4 .3l-1.3 -.6c.3 -.2 .6 .2 1.2 .1c.4 -.1 .3 -.4 -.2 -.5c-.1 .1 0 .1 .2 .2c-.7 .1 -.7 -.1 -1.2 -.2c.1 0 -.2 .1 .1 .2c-.4 -.2 -.4 -.3 -.5 -.5c.3 .1 .5 -.1 .7 0c-.6 -.1 -.8 -.3 -.6 -.6c.7 -.1 -.5 -.5 -.3 -.8c.6 .2 1.2 .3 1.4 .5c.4 -.2 0 -.2 .4 -.4c-.5 -.1 -1.3 -.2 -1.6 -.4h.5c-.2 -.3 -1 -.3 -.8 -.6c.2 -.5 .2 -1 .3 -1.4h.5c-1 -.2 -.4 -.7 -.8 -1c.4 -.5 -.5 -1.1 .4 -1.3c-.4 -.9 -.7 -1.7 -.6 -2.6l.7 .2c-.5 -.2 .5 -.1 .3 -.3c-.5 .2 -.7 -.2 -1.1 -.3c.5 -.4 0 -1 -.5 -1.3h.5c-.9 -.4 -.1 -.8 0 -1.3c.2 0 .7 -.1 .6 -.2c-.8 -.3 -.7 -.4 -1.2 -.8c0 -.2 .2 -.7 .5 -.9c-1 -1 -.3 -2 -1 -3l.6 -.1c-1.2 -1 -.1 -2.2 -.7 -3.1l1 .1c.3 -.2 -.3 -.6 -1 -.5c.3 -.3 -.4 -.7 .4 -.8c.2 -.3 -.5 -.4 -.6 -.6c.4 -.5 .3 -.7 .1 -1.3v.2c.2 0 .6 0 .7 -.1c-.3 -.2 .2 -.7 -.9 -.5c.7 -.6 -.5 -1.3 .4 -1.8c-.4 0 -.4 -.1 -.6 -.2c0 -.5 .6 -.9 .1 -1.3c.2 -.1 .5 .1 .6 -.1c-.2 -.1 -.4 0 -.6 -.2c-.6 -.7 .6 -1.5 .5 -2.2c-.6 -1.3 -.3 -2.6 -.4 -3.8h.3c-.9 -.4 .9 -.9 -.4 -1.3c.2 0 .1 -.3 .5 -.2c-.6 -.4 .6 -.9 -.2 -1.4c0 0 .1 .1 .2 .1c.5 -.4 -.2 -.9 .3 -1.4c.1 .1 .1 .2 .4 .2c.4 -.2 -1 -.5 .1 -.6c0 -.1 -.6 0 -.5 0c.4 -1 -.3 -2.2 -.5 -3.3c.7 -.8 1.9 -.1 1.1 -.7c.2 -.1 -.5 -.1 -.2 -.1c-.3 -.2 1.2 -.3 .6 -.5c-.7 .1 -.3 -.1 -.8 -.1c.5 -.5 1.1 -.6 .6 -1h.4c-1.1 -.5 -.5 -1 -1.7 -1.4c-.1 -2.5 -.8 -4.9 -.9 -7.4c.3 -2.4 -.2 -4.8 .5 -7.2q.9 -.6 .5 -1.3c.2 0 .2 .1 .4 0c-.8 0 -.1 -.4 -.8 -.5c.1 -.9 -.1 -1.7 -.1 -2.7c.1 .2 .8 .3 .7 .1l-.5 -.2h.2c-.1 -.2 -.5 -.3 -.7 -.2c-.7 -2.3 1 -4.6 .8 -6.9c.3 -.6 0 -1.4 -.1 -2c1.1 -1.7 1.9 -3.3 1.2 -5.1c0 0 2.1 .3 2.5 1Z" class="g3_79"/>
<path d="M247.7 659.6c.4 -.1 .6 -.3 1.2 -.1c-.4 0 -.8 .1 -1.2 .1Z" class="g3_79"/>
<path d="M251.8 654.2c-.1 0 .2 -.1 .3 -.1c0 .1 .3 .1 .1 .2c0 -.1 -.2 -.1 -.4 -.1Z" class="g3_79"/>
<path d="M252.1 652.8c.3 0 .6 .3 .7 .5Z" class="g3_79"/>
<path d="M253.6 651.5c.2 -.1 .4 -.1 .4 .1c-.2 0 -.3 -.1 -.4 -.1Z" class="g3_79"/>
<path d="M252.8 651.4c0 -.1 .2 -.2 .4 -.2c-.3 0 .1 .2 -.4 .2Z" class="g3_79"/>
<path d="M253.8 648.6c0 -.1 -.3 -.2 .1 -.3c-.3 .1 .4 .3 -.1 .3Z" class="g3_79"/>
<path d="M253.3 647.3c0 -.1 .1 -.1 0 -.2c.2 0 .4 .1 .5 .1Z" class="g3_79"/>
<path d="M252.3 623.3l.2 .1h-.4Z" class="g3_79"/>
<path d="M252.5 612.8c-.2 -.2 .3 -.1 .4 -.1c0 .1 -.5 -.1 -.4 .1Z" class="g3_79"/>
<path d="M250.8 607.1v0h-.7Z" class="g3_79"/>
<path d="M255.3 594.1c.1 .1 .2 -.2 .1 .1c-.1 0 -.2 0 -.1 -.1Z" class="g3_79"/>
<path d="M240.6 589.1c-.5 -.9 .5 -.8 .3 -1.5c0 -.1 .4 .2 .4 .1c-.4 -.8 .3 -1.2 1.1 -1.4l.1 .1c.1 0 -.2 -.4 -.1 -.4c.1 0 .1 .1 .2 .1c-.2 -.1 0 -.2 -.1 -.4c.1 .1 .3 .2 .4 .2l-.2 -.2c-.6 -.6 .2 -.4 0 -.8q.1 .1 .2 .1c-.2 -.5 .1 -.9 .2 -1.4c.1 .1 .3 .2 .4 .3c-.3 -.2 -.3 -.4 -.3 -.5c.3 .1 -.1 -.3 .1 -.4v.1c-.2 -.3 .3 0 0 -.3l.2 .1c-.3 -.3 .3 0 .2 -.2l-.1 -.1c-.1 -.1 .2 0 .1 -.1h.1c0 -.2 .2 -.1 -.1 -.3c.3 .1 0 .2 .5 .3c-.1 -.7 .3 -1.1 .6 -1.6q.2 0 .3 .1c0 -.1 .1 -.2 0 -.4c0 0 .1 .1 .2 .1c.2 0 -.3 -.3 -.1 -.3c0 .1 .1 .1 .3 .2c-.2 -.2 -.1 -.3 -.1 -.5q0 .1 .1 .2c-.2 -.3 .2 -.2 .1 -.4l.1 .2c.4 0 -.3 -.3 -.1 -.4c0 .1 .1 .1 .2 .2c-.3 -.3 0 -.5 -.1 -.7c0 .1 .1 .1 .1 .1c0 -.2 .2 -.2 .2 -.5c.1 0 .4 .3 .4 .1c-.4 -.2 0 -.3 -.5 -.5c.2 0 .4 -.1 .3 -.3c.2 .1 .5 .2 .5 .3l.3 .1c.1 .1 -.1 .1 .1 .1c0 0 -.1 -.2 0 -.3c-.1 -.2 -.5 -.5 -.5 -.7c.1 .1 .5 .2 .5 .3l-.6 -.7c0 0 .3 .2 .3 .1c-.1 -.1 -.2 -.1 -.3 -.2c.1 0 .1 -.3 .5 -.1c.1 .1 0 .2 .2 .2c0 -.1 -.1 -.2 -.1 -.3h.1c.1 0 -.1 -.2 -.3 -.3c0 0 .2 .1 .1 .1c-.2 -.2 -.2 -.3 -.2 -.4c.1 .1 .2 .1 .3 .2c-.2 -.3 -.2 -.5 -.3 -.7c-.2 -.1 .3 .3 .2 .2c.4 0 -.1 -.6 .3 -.5c0 .1 -.2 -.1 -.2 -.1c.1 -.1 .3 .1 .3 0c.1 .1 0 -.1 0 -.2c-.1 -.1 .1 0 0 .1c0 -.1 0 -.3 0 -.5l.8 -2l1.4 2.2c.1 .1 .1 .2 .1 .3c.1 0 .4 0 .4 0l-.3 .1c-.1 .1 .1 .2 -.1 .3c.4 -.1 -.4 -.3 -.1 -.3c-.2 .1 .5 0 .1 .2c.1 0 .4 0 .2 .2c0 0 -.4 .1 -.4 .1c.1 .1 .2 0 .3 .1h.1c.3 -.1 .1 .2 .3 0c-.2 .1 .2 .1 -.2 .3l-.3 .1c0 0 .3 -.1 .5 -.1c0 .1 -.1 .1 -.1 .1c.5 -.2 0 .2 .4 .1c-.1 .2 .1 .3 -.2 .5c.2 0 .4 0 .3 .2q0 -.1 -.2 0c-.1 .1 .1 .1 .2 .1c-.1 0 -.3 .2 -.4 .4c.2 0 .4 -.1 .6 -.2c-.5 .3 .4 .1 0 .4c-.1 0 -.3 0 -.4 .1c-.4 .3 .4 0 .3 .2l.4 -.1c-.3 .1 .3 .1 -.1 .2c.1 0 -.1 .2 .3 0c-.3 .4 .4 .5 -.3 .9c.1 0 .1 .1 .3 0c.2 -.1 -.2 0 -.1 -.1c0 .1 .2 0 .2 0c0 .1 -.1 .2 -.4 .2c-.2 .3 .7 -.1 .6 .2c-.1 0 -.2 .1 -.1 .1h.3c0 .2 -.3 .2 -.6 .4c.1 0 .1 .1 .3 0l-.3 .3c.2 -.2 .2 -.1 .2 -.1c-.1 .1 0 .1 0 .2c.2 -.1 .2 -.2 .2 -.3c.2 0 .2 .1 .3 .1c-.2 .1 -.1 .1 -.1 .2c-.1 .1 .2 0 .2 0c-.1 .1 .1 .1 -.2 .1c0 0 .2 -.1 0 0c-.1 0 -.3 .1 -.1 .1c.2 .1 .5 -.2 .4 0c-.1 0 -.2 0 -.3 0l-.1 .2l.3 -.1q-.1 .1 -.2 .1c.3 -.1 .2 .1 .5 0c0 .1 -.1 .2 -.1 .3h-.1c-.1 .1 .1 .1 .2 .1v.1c0 0 .1 .1 .2 .1c-.1 .1 -.9 .4 -.6 .3c.1 .1 .6 0 .7 -.1c-.1 .2 .4 .3 .1 .6q.1 -.1 .2 -.1c0 .3 .5 .4 .1 .8c-.1 0 -.3 .1 -.4 .2c.2 -.1 -.2 .1 .2 0c.2 -.1 .3 -.1 .4 -.3c.2 .1 .2 .4 .1 .5q.1 -.1 .2 0c-.3 .1 -.4 .2 -.2 .2h.2l-.2 .1c.1 0 .5 -.1 .3 0c-.1 .1 -.2 .1 -.2 .1c.2 .1 .5 0 .4 .2l-.3 .2c.1 0 .3 0 .3 -.1c-.1 .3 -.1 .4 -.3 .5c.8 0 .9 .4 1 .7l-.2 .1c-.1 .1 .3 -.1 .3 0c-.2 0 -.4 .2 -.6 .2c-.1 .2 .4 .1 .5 .1c.2 -.1 -.2 0 .1 -.1c.1 0 -.1 .2 .2 .1c-.1 .1 -.3 .2 -.5 .2h.2c-.3 .3 -.7 .1 -1.2 .4h.1c-.3 .2 -.4 0 -.5 .2c.2 0 .7 -.1 .8 -.2c.2 .1 .8 -.3 .8 -.1c-.1 .1 -.1 -.1 -.3 0c-.2 .2 .2 .1 .1 .2c.1 -.1 .5 -.2 .5 -.1c-.1 .1 -.3 0 -.3 .2c.2 -.1 .4 0 .5 -.2c.4 -.1 -.1 .2 .3 .1c-.3 .2 -.7 .2 -.8 .4c.2 -.2 .4 0 .8 -.3c-.1 .1 -.3 .2 -.5 .2c-.1 .2 .6 0 .1 .2h.3l-.3 .2c0 0 .5 0 0 .2c.1 0 .1 .1 .4 0c.1 -.2 -.3 0 .1 -.3c-.3 .2 .1 .2 .2 .2h-.1c.1 0 0 .1 .2 .1c-.1 0 -.2 0 -.2 .1l.3 -.1c.1 .1 -.5 .2 -.4 .3h-.2c.1 0 -.2 .1 -.1 .2l.8 -.2c.1 0 -.3 .1 0 .1h-.3c-.1 0 -.4 .2 -.4 .3c.2 0 .5 0 .6 -.1c0 0 -.1 .1 -.3 .2c.2 0 .3 -.2 .5 -.1c-.2 .1 -.3 .3 -.6 .4l-.4 .1v.1c-.3 0 -.2 .1 -.5 .2c-.1 .1 .1 .1 .2 .1c.4 -.4 .8 -.2 1.2 -.4c.2 .1 -1.1 .6 -.3 .4c.1 0 .5 -.1 .4 -.2c-.1 .2 .5 -.1 .3 .1c-.2 0 -.4 .3 -.8 .3c.2 -.1 .1 -.1 .1 -.1c-.2 .1 -.5 .2 -.5 .3c.1 0 .1 .1 .4 0c.3 -.1 -.1 -.1 .2 -.2c.2 .1 -.3 .3 .3 .2c-.1 -.1 .2 -.2 .4 -.3h.1l-.2 .1c-.1 .2 .4 -.1 .4 .1l-.4 .2c-.3 .1 .1 -.3 -.4 0c0 .1 .3 0 .2 .1q-.1 0 -.1 0c0 .1 -.7 .4 -.3 .3c.2 .1 .2 0 .4 -.1c.2 .2 .4 .1 .4 .2c-.3 .1 .1 .2 -.4 .2c.2 -.1 .1 -.3 -.2 -.2c-.5 .2 0 -.2 -.5 0c0 .1 -.4 .3 -.7 .4c0 .1 .1 0 .2 0q.3 -.1 .5 -.2c0 .2 .2 .2 .5 .2c-.1 .1 -.4 .2 -.4 .2c.1 .1 .2 .3 .1 .5c.4 -.3 .2 .1 .6 -.1c0 -.1 .3 -.3 .5 -.4c0 .1 -.2 .1 -.3 .2c.3 0 -.3 .2 .1 .2c-.2 -.1 -.5 .1 -.9 .3c.2 0 -.2 0 -.2 .2c.2 0 .4 .1 .6 .2c-.3 .2 .1 .4 .2 .5c-.2 .1 -.6 .2 -.6 .3c0 .1 .4 -.2 .3 0h-.1c.1 0 -.2 .4 .4 .2l-.5 .1c0 .1 .1 .1 .2 .1c-.2 0 -.3 .1 -.4 .1c-.2 .2 .1 .1 .2 .2l.2 -.1c.3 0 .1 .3 .2 .4l-.2 .1h.2c-.3 .1 -.4 .2 -.2 .2h-.7c.1 -.1 .3 -.1 .6 -.2c.2 -.1 0 -.2 -.2 -.2q0 .1 .1 .1q-.3 .1 -.6 .1c.1 0 0 .1 .1 .1c-.2 0 -.2 -.1 -.3 -.1c.2 0 .2 -.2 .3 -.2c-.3 .1 -.4 .1 -.4 -.1c.3 -.2 -.3 -.1 -.2 -.3c.3 0 .6 -.1 .7 0c.1 -.2 0 -.1 .1 -.3c-.3 .1 -.6 .2 -.8 .2l.2 -.1c-.1 -.1 -.5 0 -.5 -.1c.1 -.3 0 -.5 0 -.7l.2 -.1c-.5 .1 -.3 -.2 -.6 -.2c.1 -.3 -.4 -.4 0 -.6c-.4 -.3 -.7 -.6 -.7 -1l.3 -.1c-.2 .1 .2 -.1 .1 -.1c-.2 .1 -.4 0 -.6 0c.2 -.2 -.1 -.3 -.4 -.4l.2 -.1c-.5 0 -.2 -.3 -.2 -.5c.1 -.1 .3 -.2 .2 -.2c-.4 0 -.4 -.1 -.7 -.1c0 -.1 0 -.3 .1 -.5c-.7 -.2 -.5 -.8 -1 -1.1l.3 -.1c-.8 -.2 -.5 -.9 -.9 -1.2l.5 -.1c.1 -.2 -.2 -.2 -.5 0c0 -.2 -.4 -.2 0 -.5c0 -.1 -.3 0 -.4 -.1c.1 -.3 0 -.3 -.2 -.5c.1 0 .3 -.1 .3 -.1c-.1 0 0 -.4 -.5 -.1c.3 -.3 -.4 -.4 -.1 -.8c-.1 .1 -.2 0 -.3 .1c-.1 -.2 .1 -.6 -.2 -.6c.1 -.1 .3 -.1 .3 -.2c-.1 0 -.2 .1 -.3 .1c-.4 -.2 0 -.8 -.2 -1.1c-.5 -.4 -.6 -1 -.8 -1.5h.1c-.5 0 .2 -.6 -.4 -.5c.1 0 0 -.1 .2 -.2c-.4 0 .1 -.5 -.3 -.5c.2 -.3 -.2 -.3 -.1 -.6q.1 0 .2 0c.2 -.2 -.5 0 0 -.3c0 0 -.3 .1 -.2 .1c0 -.5 -.5 -.9 -.8 -1.3c.1 -.5 .8 -.4 .3 -.5c.1 0 -.2 .1 -.1 0c-.2 0 .5 -.4 .2 -.3q-.2 .1 -.2 .1l2.7 .2l.1 .1c-.3 0 -.6 -.1 -.5 .2l-.1 -.1c.3 .4 -.1 .5 .3 .9c-.5 1.1 -.8 2.2 -1.3 3.2c-.7 .8 -1 1.9 -1.9 2.7c-.5 -.1 -.5 0 -.5 .3q0 -.1 -.1 -.1c.3 .2 -.1 .2 .2 .4c-.3 .3 -.4 .7 -.6 1.1c0 -.1 -.2 -.3 -.3 -.2l.2 .2l-.1 -.1c0 .1 .2 .3 .3 .3c-.3 1.1 -1.5 1.5 -2 2.5c-.2 .1 -.3 .5 -.4 .7c-.8 .4 -1.6 .8 -1.7 1.7c0 0 -.8 -.6 -.8 -1Z" class="g3_79"/>
<path d="M255.2 594c.1 -.1 .2 -.2 .5 -.3c-.2 .1 -.4 .2 -.5 .3Z" class="g3_79"/>
<path d="M256.1 590.9c0 .1 .1 0 .1 0c0 0 .2 0 .1 0c0 0 -.1 0 -.2 0Z" class="g3_79"/>
<path d="M256 590.3c.2 0 .3 0 .4 .1Z" class="g3_79"/>
<path d="M256.4 589.5q.2 -.1 .3 0c-.1 0 -.2 0 -.3 0Z" class="g3_79"/>
<path d="M256.1 589.6c-.1 0 0 -.1 .1 -.1c-.1 0 .1 0 -.1 .1Z" class="g3_79"/>
<path d="M256 588.2c0 0 -.1 0 0 -.1c-.1 .1 .3 .1 0 .1Z" class="g3_79"/>
<path d="M255.6 587.8c0 0 0 -.1 0 -.1c0 0 .1 0 .2 0Z" class="g3_79"/>
<path d="M250.9 578h.1l-.2 .1Z" class="g3_79"/>
<path d="M246.6 576.1c0 .1 -.2 -.1 -.2 -.1c0 0 .2 .2 .2 .1Z" class="g3_79"/>
<path d="M246 578.7v0l.3 .2Z" class="g3_79"/>
<path d="M359.3 422.9c-.2 -.1 -.7 0 -.3 -.1c.3 .1 .5 .1 .3 .1Z" class="g3_79"/>
<path d="M356.3 456.7c-1.8 -.6 .1 -1 -1.1 -1.5c0 0 1 .1 .8 0c-1.4 -.6 -.5 -1.2 .6 -1.6h.3c.2 -.1 -.7 -.3 -.5 -.3c.1 0 .2 0 .5 0c-.6 -.1 -.3 -.2 -.7 -.3c.2 0 .7 0 .9 0l-.6 -.1c-1.5 -.3 .1 -.4 -.6 -.7c.1 0 .2 0 .4 0c-.9 -.4 -.7 -.8 -1 -1.3c.2 0 .6 .1 .9 .1c-.7 -.1 -.9 -.2 -1 -.3c.7 0 -.6 -.3 -.2 -.4h.1c-.7 -.1 .5 -.1 -.4 -.2h.6c-1 -.1 .5 -.1 0 -.2l-.2 -.1c-.3 -.1 .2 -.1 .1 -.1h.1c-.2 -.2 .3 -.3 -.5 -.3c.7 0 .3 .2 1.2 .1c-.7 -.6 -.5 -1.1 -.5 -1.6c.3 -.1 .4 -.1 .7 -.1c-.2 -.1 -.1 -.2 -.5 -.3c0 0 .4 0 .4 0c.3 -.1 -.8 -.2 -.5 -.3c.2 .1 .5 .1 .7 .1c-.5 -.1 -.4 -.2 -.6 -.3c.1 0 .2 0 .4 0c-.6 -.1 .2 -.2 -.2 -.3l.4 .1c.5 -.2 -.9 -.2 -.6 -.3c.1 .1 .3 .1 .5 .1c-.8 -.2 -.5 -.4 -.8 -.6c.1 0 .2 .1 .2 .1c-.1 -.2 .2 -.3 -.2 -.5c.2 -.1 1.1 .1 1 -.1c-.9 0 -.4 -.3 -1.4 -.3c.2 -.1 .5 -.3 .2 -.4c.4 .1 1.1 0 1.2 .2l.5 -.1c.4 .1 -.1 .1 .3 .1c0 -.1 -.3 -.2 -.2 -.3c-.5 -.1 -1.5 -.3 -1.6 -.5c.3 .1 1 .1 1.1 .1l-1.7 -.3c0 -.1 .7 0 .5 -.1c-.2 0 -.4 -.1 -.6 -.1c.2 0 -.2 -.2 .7 -.2c.4 0 .2 .1 .5 .1c0 -.1 -.3 -.2 -.3 -.3h.1c.2 0 -.3 -.2 -.8 -.1c-.1 0 .5 0 .2 0c-.5 -.1 -.6 -.2 -.6 -.3c.1 .1 .4 .1 .6 .1c-.6 -.2 -.9 -.3 -1.1 -.5c-.4 -.1 .7 .1 .5 .1c.6 -.2 -.8 -.5 .1 -.6c0 .1 -.6 0 -.5 0c.1 -.1 .7 0 .4 -.1c.4 0 -.1 -.1 -.2 -.2c-.2 0 .2 0 .2 .1c-.3 -.1 -.8 -.5 -.2 -.7c-.3 0 -.9 -.2 -.9 -.2l.6 .1c.3 -.1 0 -.2 .4 -.2c-.6 -.1 .6 .4 .1 .3c.4 0 -.9 -.3 -.2 -.2c0 -.1 -.6 -.2 -.1 -.3c-.1 0 .8 .2 .8 .1c-.1 -.2 -.3 -.1 -.5 -.2l-.2 -.1c-.5 0 .1 -.1 -.5 -.1c.4 0 -.3 -.2 .6 -.1h.7c0 0 -.7 -.1 -1 -.2c0 0 .2 0 .3 0c-1.1 -.1 .1 -.1 -.7 -.2c.4 -.1 0 -.3 .7 -.3c-.3 -.2 -.7 -.3 -.4 -.4c0 .1 .1 .1 .3 .1c.3 0 0 -.1 -.1 -.1c.1 0 .6 -.1 1 -.2c-.3 -.1 -.9 -.1 -1.2 -.1c1 0 -.7 -.3 .3 -.4c.1 .1 .5 .2 .7 .1c1.1 0 -.7 -.2 -.2 -.3h-.9c.6 0 -.5 -.3 .4 -.2c-.3 -.1 .3 -.1 -.5 -.2c.7 -.1 -.4 -.5 1.1 -.6c-.1 0 0 -.1 -.4 -.1c-.5 0 .3 .1 0 .1c0 0 -.3 -.1 -.4 -.1c.2 0 .3 -.1 1 0c.5 -.1 -1.5 -.2 -1.1 -.4c.3 0 .5 0 .4 0l-.6 -.2c.2 -.1 .8 0 1.4 .1c-.1 -.1 0 -.2 -.5 -.3h.8c-.6 0 -.4 -.1 -.5 -.1h.1c.3 0 .1 -.1 .1 -.1c-.4 0 -.6 0 -.7 .1q-.2 -.1 -.5 -.2c.6 .1 .4 -.1 .5 -.1c.1 -.1 -.5 -.1 -.5 -.2c.3 .1 .1 0 .5 0c.1 .1 -.3 .1 0 .1c.2 0 .7 0 .3 -.1c-.2 -.1 -1.1 -.1 -.7 -.1c.1 0 .3 0 .5 .1l.4 -.1l-.6 -.1q.2 0 .3 0c-.6 0 -.2 -.2 -.8 -.2c-.1 -.1 .4 -.1 .4 -.2h.1c.3 0 .1 -.1 -.3 -.2h.2c0 0 -.1 -.1 -.4 -.2c.4 0 2 .2 1.4 0c0 -.1 -1 -.2 -1.3 -.2c.3 -.2 -.5 -.4 .3 -.5c-.2 0 -.3 0 -.4 -.1c.2 -.2 -.6 -.6 .4 -.7c.2 .1 .5 .1 .9 .1c-.5 -.1 .4 0 -.4 -.1c-.4 -.1 -.7 -.1 -.9 0c-.2 -.2 -.2 -.4 .3 -.5c-.3 .1 -.4 0 -.6 0c.8 0 .9 -.1 .7 -.2h-.5h.5c-.2 -.1 -1 -.1 -.5 -.2c.1 0 .3 0 .5 0c-.4 -.1 -1 -.3 -.6 -.3h.6c0 -.1 -.4 -.2 -.6 -.1c.4 -.2 .4 -.3 1 -.3c-1.4 -.3 -1.4 -.7 -1.3 -1h.4c.3 -.1 -.6 -.1 -.4 -.1c.3 0 .7 0 1.1 0c.4 0 -.6 -.2 -.7 -.2c-.5 -.1 .3 0 -.3 0c-.2 0 .4 -.2 -.3 -.2c.3 0 .8 0 1 .1l-.3 -.1c.8 -.1 1.4 .3 2.4 .3l-.1 -.1c.8 0 .8 .2 1.1 .1c-.3 -.1 -1.3 -.3 -1.6 -.2c-.2 -.2 -1.7 -.2 -1.6 -.4c.4 0 .1 .2 .6 .2c.6 -.1 -.3 -.2 -.1 -.3c-.2 .1 -.9 0 -1 -.1c.3 0 .6 .1 .7 0c-.4 0 -.7 -.2 -1 -.1c-.9 -.1 .3 -.1 -.4 -.2c.6 0 1.4 .2 1.8 .1c-.6 0 -.8 -.2 -1.8 -.2c.2 -.1 .7 0 1.1 0c.4 0 -1.1 -.2 .1 -.2h-.6l.7 -.1c0 0 -.9 -.3 .1 -.2c-.1 0 -.1 -.2 -.7 -.1c-.4 0 .5 .1 -.4 .1c.7 0 -.1 -.2 -.4 -.2h.4c-.1 -.1 0 -.1 -.4 -.2c.2 .1 .4 .1 .5 .1l-.5 -.1c-.3 -.2 .9 0 .8 -.1l.4 .1c-.1 0 .4 0 .3 -.1l-1.5 -.2c-.3 -.1 .5 0 0 -.1l.6 .2c.2 0 .9 0 .9 -.1c-.2 -.1 -.9 -.3 -1.2 -.2c0 0 .3 -.1 .7 0c-.2 -.1 -.6 0 -.9 -.2c.3 0 .8 -.1 1.3 -.1l.9 .2v-.1c.7 .1 .5 0 1.2 .1c.1 0 -.1 -.1 -.3 -.2c-1.1 .1 -1.5 -.2 -2.6 -.3c-.3 -.2 2.6 .1 .9 -.2c-.2 0 -1 -.1 -.7 0c.1 -.1 -1.1 -.1 -.6 -.2c.4 .1 1 -.1 1.6 .1c-.3 0 -.2 .1 -.1 .1c.4 0 1 .1 1 0c-.1 -.1 -.1 -.2 -.6 -.2c-.6 -.1 0 .1 -.6 0c-.2 -.1 .8 -.1 -.3 -.2c.1 .1 -.6 0 -1 0l-.2 -.1h.4c.3 -.1 -.7 -.1 -.6 -.2h.8c.7 .1 -.3 .2 .8 .2c0 -.1 -.5 -.1 -.2 -.2q.1 0 .2 .1c0 -.1 1.5 0 .6 -.2c-.3 -.1 -.4 0 -.8 -.1c-.1 -.2 -.5 -.2 -.6 -.3c.8 0 .1 -.2 1 0c-.5 0 -.5 .2 .3 .3c.9 0 -.2 .1 .8 .3c0 -.2 1 -.1 1.6 -.1c0 0 -.2 -.1 -.3 -.1q-.6 0 -1.2 0c.2 -.2 -.1 -.3 -.7 -.5c.3 0 .9 .1 .9 .1c-.1 -.2 0 -.3 .1 -.5c-.9 .1 -.2 -.2 -1 -.2c-.2 .1 -.9 .1 -1.3 0c.1 0 .4 .1 .6 .1c-.5 -.1 .9 -.1 .1 -.2c.3 .2 1.1 .1 1.9 .2c-.5 -.1 .5 0 .5 -.1c-.4 -.1 -.7 -.3 -.9 -.4c.7 -.1 .1 -.4 .1 -.6c.3 0 1.2 .1 1.3 0c0 -.1 -.9 0 -.5 -.1l.2 .1c-.2 -.1 .6 -.3 -.6 -.4l.9 .1c0 0 -.2 0 -.3 -.1c.3 .1 .6 0 .8 .1c.6 0 -.1 -.2 -.1 -.3h-.5c-.5 -.2 .1 -.2 -.1 -.4l.5 .1l-.3 -.2c.5 .1 .9 0 .5 0l1.2 .3c-.3 0 -.6 -.1 -1.1 -.1c-.5 0 -.3 .1 .2 .2c0 -.1 -.1 -.1 -.3 -.1c.7 0 .7 .1 1.2 .2c0 -.1 .2 -.1 0 -.1c.3 .1 .4 .1 .4 .2c-.3 0 -.5 0 -.7 0c.7 .1 .9 .2 .7 .3c-.8 0 .4 .2 .2 .3c-.6 -.1 -1.2 -.2 -1.4 -.3c-.3 .1 0 .1 -.3 .2c.4 .1 1.2 .1 1.5 .3l-.5 -.1c.2 .2 .9 .2 .8 .3c-.2 .2 -.3 .5 -.3 .6h-.5c1 .2 .3 .3 .8 .5c-.5 .2 .4 .5 -.4 .5c.3 .4 .7 .8 .4 1.2l-.7 -.2c.6 .1 -.4 .1 -.3 .1c.6 0 .8 .2 1.2 .3c-.6 .1 0 .4 .5 .5h-.5c.9 .2 .1 .4 -.1 .5c-.2 .1 -.6 .1 -.6 .1c.8 .2 .7 .2 1.2 .4c0 .1 -.2 .3 -.5 .4c1 .5 .3 .9 .9 1.4l-.5 -.1c1.1 .6 0 1 .6 1.4l-1 -.1c-.3 .1 .3 .3 1 .3c-.4 .1 .4 .3 -.4 .3c-.2 .1 .4 .2 .6 .3c-.4 .2 -.4 .3 -.2 .6l.1 -.1c-.2 0 -.6 -.1 -.7 0c.3 .1 -.3 .3 .9 .3c-.7 .1 .5 .6 -.5 .7c.4 0 .4 .1 .6 .1c0 .2 -.6 .4 -.1 .6c-.2 0 -.5 -.1 -.6 0c.1 0 .4 0 .6 .1c.6 .4 -.7 .6 -.5 .9c.5 .6 .2 1.2 .3 1.7h-.3c.9 .2 -.9 .3 .4 .5c-.2 .1 -.1 .2 -.6 .1c.7 .2 -.6 .4 .2 .6h-.1c-.5 .1 .1 .4 -.3 .5c-.1 0 -.2 0 -.4 -.1c-.5 .1 .9 .3 -.2 .3c0 0 .6 0 .5 0c-.4 .4 .2 1 .5 1.5c-.7 .3 -1.9 -.1 -1.1 .2c-.2 0 .4 .1 .2 0c.3 .2 -1.3 .1 -.7 .2c.7 .1 .4 .1 .8 .1c-.5 .2 -1.1 .2 -.6 .4h-.3c1 .3 .4 .4 1.6 .7c.1 1.1 .7 2.2 .7 3.2c-.3 1.1 .2 2.1 -.5 3.1q-1 .2 -.6 .5q-.2 0 -.3 0c.7 .1 0 .2 .8 .3c-.2 .4 0 .7 -.1 1.1c0 0 -.7 -.1 -.6 0l.5 .1h-.2c.1 0 .4 .1 .7 .1c.6 1.1 -1 1.9 -.9 2.9c-.4 .2 -.1 .6 0 .9c-1.1 .6 -1.9 1.3 -1.3 2.1c0 0 -2 -.3 -2.4 -.6Z" class="g3_79"/>
<path d="M359.3 423.1c-.4 0 -.6 .1 -1.1 -.1c.4 .1 .8 0 1.1 .1Z" class="g3_79"/>
<path d="M355.1 425.1c.2 0 -.1 0 -.2 .1c0 -.1 -.3 -.1 -.1 -.1c0 0 .2 0 .3 0Z" class="g3_79"/>
<path d="M354.9 425.7c-.4 0 -.7 -.2 -.7 -.3Z" class="g3_79"/>
<path d="M353.4 426.2c-.3 0 -.5 0 -.5 -.1c.2 0 .3 0 .5 .1Z" class="g3_79"/>
<path d="M354.2 426.3c0 0 -.2 0 -.4 0c.3 0 -.2 -.1 .4 0Z" class="g3_79"/>
<path d="M353.1 427.4c0 0 .3 .1 -.1 .1c.3 0 -.4 -.2 .1 -.1Z" class="g3_79"/>
<path d="M353.6 428q-.1 0 0 .1c-.2 0 -.5 -.1 -.5 -.1Z" class="g3_79"/>
<path d="M354.2 438.4l-.2 -.1l.3 .1Z" class="g3_79"/>
<path d="M353.8 442.9c.2 .1 -.3 0 -.4 0c0 0 .5 .1 .4 0Z" class="g3_79"/>
<path d="M355.4 445.5v-.1l.7 .1Z" class="g3_79"/>
<path d="M349.9 445.4c-.1 -.1 -.2 .1 -.1 -.1c.1 0 .2 0 .1 .1Z" class="g3_79"/>
<path d="M364.7 450.2c.5 .8 -.5 .8 -.3 1.5c0 .1 -.4 -.3 -.4 -.1c.4 .7 -.3 1.1 -1.1 1.3l-.1 -.1c-.1 .1 .2 .4 .1 .5q-.1 -.1 -.2 -.2c.2 .2 0 .3 .2 .4c-.2 0 -.4 -.1 -.5 -.1l.3 .2c.5 .5 -.3 .3 -.1 .8q-.1 -.1 -.2 -.2c.2 .6 -.1 1 -.2 1.4c0 0 -.2 -.2 -.3 -.2c.2 .2 .2 .4 .2 .5c-.3 -.1 .2 .3 0 .3H362c.3 .3 -.2 0 .1 .3l-.3 -.1c.4 .3 -.3 0 -.1 .2l.1 .1c.1 .1 -.2 0 -.1 .1h-.1c0 .2 -.3 .1 .1 .3c-.3 -.1 -.1 -.2 -.5 -.3c.1 .7 -.3 1.1 -.6 1.6c-.1 0 -.2 0 -.3 -.1c0 .1 -.1 .2 .1 .4c0 0 -.2 -.1 -.3 -.1c-.1 .1 .3 .3 .1 .4c0 -.1 -.1 -.2 -.3 -.3c.2 .3 .1 .4 .2 .5c-.1 0 -.1 -.1 -.2 -.1c.2 .2 -.2 .1 -.1 .3l-.1 -.1c-.3 0 .3 .2 .1 .3c0 -.1 -.1 -.1 -.2 -.2c.3 .4 .1 .5 .1 .7c0 0 -.1 -.1 -.1 -.1c0 .2 -.2 .3 -.1 .5c-.1 0 -.5 -.3 -.5 -.1c.4 .2 0 .3 .5 .5c-.1 .1 -.4 .2 -.3 .3c-.1 -.1 -.5 -.2 -.5 -.3l-.2 -.1c-.2 -.1 .1 0 -.2 -.1c0 .1 .1 .3 0 .3c.2 .2 .6 .6 .5 .8c-.1 -.2 -.4 -.3 -.4 -.3l.6 .6c-.1 .1 -.3 -.2 -.3 0c.1 0 .2 .1 .2 .2c0 0 0 .2 -.4 0c-.2 0 0 -.1 -.2 -.1c0 .1 .1 .1 0 .2c-.1 0 0 .3 .3 .3c0 0 -.2 -.1 -.1 -.1c.2 .2 .2 .3 .1 .4c0 0 -.1 -.1 -.2 -.2c.2 .3 .2 .5 .3 .7c.1 .1 -.3 -.2 -.2 -.2c-.4 .1 .1 .6 -.3 .5c0 0 .2 .2 .2 .1c-.1 .1 -.3 0 -.3 .1c-.1 -.1 0 .1 0 .1c.1 .1 -.1 0 0 0c0 .1 0 .3 0 .4l-.8 2.1l-1.4 -2.2c-.1 -.1 -.1 -.2 -.1 -.3c-.1 0 -.4 0 -.4 0l.3 -.1c.1 -.1 -.1 -.2 .1 -.3c-.4 .1 .4 .3 .1 .3c.2 -.2 -.5 0 -.1 -.2c-.1 -.1 -.4 0 -.2 -.2c0 0 .4 -.1 .3 -.1c-.1 -.2 -.1 0 -.2 -.1h-.2c-.2 .1 0 -.2 -.2 0c.2 -.1 -.2 -.1 .2 -.3l.3 -.1c0 0 -.4 .1 -.5 .1c0 -.1 .1 -.1 .1 -.1c-.5 .2 0 -.2 -.4 -.1c.1 -.2 -.1 -.3 .2 -.5c-.2 0 -.4 0 -.4 -.1q.1 0 .2 -.1c.1 -.1 0 0 -.1 -.1c.1 0 .2 -.2 .4 -.4c-.2 0 -.5 .1 -.6 .2c.4 -.3 -.4 -.1 0 -.4c0 0 .2 0 .3 -.1c.5 -.3 -.4 0 -.2 -.2l-.4 .2c.2 -.2 -.3 -.1 .1 -.3c-.2 0 .1 -.2 -.3 0c.2 -.4 -.4 -.5 .2 -.9c-.1 0 0 -.1 -.2 0c-.2 .1 .1 0 0 .1c0 0 -.1 0 -.2 0c.1 -.1 .1 -.2 .4 -.2c.2 -.3 -.7 .1 -.6 -.2c.1 0 .2 -.1 .2 -.1h-.4c0 -.1 .4 -.2 .6 -.3c0 -.1 -.1 -.2 -.3 -.1l.3 -.2c-.2 .1 -.1 0 -.2 0h.1c.1 -.1 0 -.1 -.1 -.1c-.2 0 -.2 .1 -.2 .2q-.2 0 -.3 0c.3 -.1 .1 -.2 .1 -.3c.1 -.1 -.2 0 -.2 0c.1 0 0 -.1 .2 -.1c0 0 -.1 .1 0 .1c.1 -.1 .3 -.2 .1 -.2c-.1 0 -.5 .2 -.4 0c.1 0 .2 0 .3 0l.1 -.2l-.3 .1q.1 0 .2 -.1c-.3 .1 -.2 -.1 -.5 0c0 0 .1 -.2 .1 -.2h.1c.1 -.2 -.1 -.2 -.2 -.2c0 -.1 -.1 -.1 -.2 -.1c.1 -.2 .9 -.4 .5 -.4c0 -.1 -.5 0 -.6 .1c.1 -.2 -.4 -.2 -.1 -.5q-.1 0 -.2 0c0 -.3 -.5 -.4 -.1 -.8c.1 .1 .2 -.1 .4 -.1c-.3 0 .2 -.2 -.2 0c-.2 .1 -.3 .1 -.4 .2c-.2 -.1 -.3 -.3 -.1 -.5c-.1 .1 -.2 .1 -.2 .1c.3 -.1 .3 -.3 .2 -.3l-.3 .1l.2 -.2c0 0 -.4 .2 -.3 0c.1 0 .2 0 .3 -.1c-.2 0 -.6 0 -.4 -.1l.2 -.3c0 0 -.2 0 -.3 .1c.1 -.2 .1 -.3 .4 -.5c-.8 .1 -1 -.3 -1.1 -.6l.2 -.1c.1 -.1 -.3 .1 -.2 0c.1 -.1 .3 -.2 .5 -.2c.1 -.2 -.3 -.1 -.4 -.1c-.3 .1 .1 0 -.2 .1c0 0 .1 -.3 -.2 -.1c.1 -.1 .4 -.2 .5 -.2h-.2c.4 -.3 .8 -.1 1.2 -.4l-.1 -.1c.3 -.2 .5 .1 .5 -.2c-.2 0 -.7 .2 -.8 .3c-.1 -.1 -.8 .2 -.8 .1c.2 -.1 .1 .1 .3 -.1c.3 -.1 -.2 0 -.1 -.2c-.1 .2 -.5 .2 -.5 .2c.1 -.1 .3 -.1 .3 -.2c-.2 .1 -.4 0 -.5 .2c-.4 .1 .1 -.2 -.3 -.1c.3 -.2 .8 -.2 .9 -.4c-.3 .2 -.5 0 -.9 .3c.1 -.1 .3 -.2 .5 -.2c.1 -.2 -.6 0 -.1 -.3l-.3 .1l.3 -.2c0 -.1 -.5 0 0 -.2c-.1 0 -.1 -.2 -.4 0c-.1 .2 .3 0 -.1 .3c.3 -.3 -.1 -.2 -.2 -.2h.1c-.1 0 0 -.1 -.2 -.1c.1 0 .2 -.1 .2 -.1l-.3 .1c-.1 -.1 .5 -.2 .4 -.3h.2c-.1 0 .2 -.2 .1 -.2l-.8 .2c-.1 0 .3 -.1 0 -.1h.3c.1 0 .4 -.2 .3 -.3c-.1 -.1 -.4 0 -.5 .1c-.1 0 .1 -.1 .2 -.2c-.1 0 -.2 .2 -.4 .1c.2 -.1 .3 -.3 .5 -.4l.5 -.1l-.1 -.1c.4 0 .3 -.1 .6 -.2c.1 -.1 -.1 -.1 -.2 -.1c-.5 .4 -.8 .2 -1.2 .4c-.2 -.1 1.1 -.6 .3 -.4c-.2 0 -.6 .1 -.4 .2c0 -.2 -.5 .1 -.3 -.1c.2 0 .4 -.3 .8 -.3c-.2 0 -.1 .1 -.1 .1c.2 -.1 .5 -.2 .5 -.3c-.1 0 -.2 -.1 -.4 0c-.3 .1 .1 .1 -.2 .2c-.2 -.1 .2 -.3 -.3 -.2c.1 .1 -.2 .2 -.4 .3h-.1l.2 -.1c0 -.2 -.4 .1 -.4 -.1l.3 -.2c.3 -.1 0 .3 .5 0c0 -.1 -.3 0 -.2 -.1h.1c0 -.1 .7 -.4 .2 -.4c-.2 0 -.2 .1 -.4 .2c-.1 -.2 -.3 -.1 -.4 -.2c.4 -.1 0 -.2 .4 -.2c-.2 .1 -.1 .3 .3 .2c.4 -.2 0 .2 .5 0c-.1 -.1 .4 -.3 .6 -.4c0 -.1 -.1 -.1 -.1 -.1c-.3 .1 -.3 .2 -.6 .3c0 -.2 -.2 -.2 -.5 -.2c.1 -.1 .4 -.2 .5 -.2c-.2 -.1 -.2 -.3 -.2 -.5c-.4 .3 -.2 -.1 -.5 .1c-.1 .1 -.4 .3 -.6 .4c0 -.1 .2 -.1 .3 -.2c-.3 .1 .3 -.2 -.1 -.1c.2 0 .6 -.2 .9 -.4c-.2 0 .3 -.1 .2 -.2c-.2 0 -.4 -.1 -.5 -.2c.2 -.2 -.2 -.3 -.3 -.5c.2 -.1 .6 -.2 .6 -.3c0 -.1 -.4 .2 -.2 0c-.1 0 .2 -.4 -.4 -.2l.5 -.1c0 -.1 -.1 -.1 -.2 -.1c.2 0 .3 -.1 .4 -.1c.2 -.2 -.1 -.1 -.2 -.2l-.2 .1c-.3 0 -.1 -.3 -.2 -.4l.2 -.1h-.2c.3 -.1 .4 -.2 .2 -.2h.7c-.1 .1 -.3 .1 -.6 .2c-.2 .1 0 .2 .2 .2q0 -.1 -.1 -.1c.3 -.2 .3 -.1 .6 -.1c-.1 0 0 -.1 -.1 -.1q.2 0 .3 .1c-.2 0 -.2 .1 -.3 .2c.3 -.2 .4 -.1 .4 0c-.3 .3 .3 .2 .3 .3c-.4 .1 -.6 .1 -.8 .1c-.1 .2 0 .1 -.1 .2c.3 0 .6 -.1 .8 -.1l-.2 .1c.1 .1 .5 -.1 .5 .1c-.1 .2 0 .5 .1 .6l-.2 .1c.5 -.1 .3 .3 .5 .3c-.1 .3 .4 .3 .1 .6c.3 .3 .6 .5 .7 1h-.4c.3 0 -.1 .2 -.1 .2c.3 -.2 .4 0 .6 -.1c-.2 .3 .2 .4 .5 .4l-.2 .1c.5 0 .2 .3 .2 .6c-.1 0 -.3 .1 -.2 .2c.4 -.1 .4 0 .6 .1c.1 .1 .1 .3 0 .4c.7 .2 .5 .8 1 1.1l-.3 .1c.8 .2 .5 .9 .9 1.2l-.4 .1c-.1 .2 .2 .2 .5 .1c-.1 .1 .3 .1 0 .4c-.1 .1 .2 0 .3 .1q0 .3 .2 .5c-.1 0 -.3 .1 -.3 .1c.2 0 0 .4 .5 .1c-.2 .3 .5 .4 .2 .8c.1 -.1 .2 -.1 .3 -.1c.1 .2 -.2 .6 .2 .6c-.1 .1 -.3 .1 -.3 .2c.1 0 .2 -.1 .3 -.1c.4 .2 0 .8 .2 1c.5 .4 .6 1 .8 1.5l-.1 .1c.5 0 -.2 .5 .5 .4c-.1 .1 0 .2 -.3 .2c.4 .1 -.1 .5 .4 .6q0 -.1 -.1 -.1c-.2 .3 .2 .4 .1 .7c0 0 -.1 -.1 -.2 0c-.2 .2 .5 0 0 .2c.1 .1 .3 0 .3 -.1c0 .6 .5 .9 .8 1.3c-.1 .5 -.8 .4 -.3 .5c-.1 .1 .2 0 .1 0c.1 .1 -.6 .4 -.3 .4q.3 -.1 .3 -.1l-2.7 -.2l-.1 -.1c.3 0 .6 .1 .5 -.2l.1 .1c-.3 -.4 0 -.5 -.4 -1c.5 -1 .8 -2.1 1.3 -3.1c.7 -.9 1 -1.9 1.8 -2.7q.6 0 .5 -.4q.1 .1 .2 .1c-.4 -.2 0 -.2 -.3 -.4c.3 -.3 .4 -.7 .6 -1c0 0 .3 .2 .3 .1l-.2 -.1h.1c0 -.1 -.1 -.2 -.3 -.2c.3 -1.1 1.5 -1.6 2 -2.6c.2 -.1 .3 -.5 .3 -.8c.9 -.4 1.6 -.8 1.7 -1.7c0 0 .8 .6 .9 1.1Z" class="g3_79"/>
<path d="M350 445.5c-.2 .1 -.2 .2 -.5 .3c.2 -.1 .4 -.2 .5 -.3Z" class="g3_79"/>
<path d="M349.1 448.6c.1 -.1 0 0 -.1 0c0 0 -.2 .1 -.1 0q.1 0 .2 0Z" class="g3_79"/>
<path d="M349.3 449.2c-.2 0 -.4 0 -.4 -.1Z" class="g3_79"/>
<path d="M348.8 450c-.1 .1 -.2 .1 -.2 .1q.1 -.1 .2 -.1Z" class="g3_79"/>
<path d="M349.2 449.9c0 0 -.1 .1 -.1 .2c.1 -.1 -.2 -.1 .1 -.2Z" class="g3_79"/>
<path d="M349.2 451.3c.1 0 .2 0 .1 .1c.1 -.1 -.3 -.1 -.1 -.1Z" class="g3_79"/>
<path d="M349.7 451.7v.1c0 0 -.2 0 -.2 0Z" class="g3_79"/>
<path d="M354.6 461.4h-.2l.2 -.1Z" class="g3_79"/>
<path d="M358.9 463.3c-.1 -.1 .2 0 .2 0c0 .1 -.2 -.1 -.2 0Z" class="g3_79"/>
<path d="M359.5 460.6v0l-.3 -.1Z" class="g3_79"/>
<path d="M378.5 556.9c-.2 -.1 -.7 .1 -.3 -.1c.3 .1 .5 .1 .3 .1Z" class="g3_79"/>
<path d="M375.5 590.7c-1.8 -.5 .1 -.9 -1.1 -1.5c0 0 1 .1 .8 0c-1.4 -.6 -.5 -1.2 .6 -1.6h.3c.2 0 -.7 -.2 -.5 -.3c.1 0 .2 0 .5 0c-.6 -.1 -.3 -.2 -.7 -.3c.2 0 .7 0 .9 0l-.6 -.1c-1.5 -.3 .1 -.4 -.6 -.7c.1 0 .2 .1 .4 .1c-.9 -.5 -.7 -.9 -1 -1.4c.2 .1 .6 .1 .9 .1c-.7 -.1 -.9 -.2 -1 -.3c.7 0 -.6 -.3 -.2 -.4l.1 .1c-.7 -.2 .5 -.2 -.4 -.3h.6c-1 -.1 .5 -.1 0 -.2h-.2c-.3 -.1 .2 -.1 .1 -.2h.1c-.2 -.2 .3 -.3 -.5 -.3c.7 0 .3 .2 1.2 .1c-.7 -.5 -.5 -1.1 -.5 -1.6c.3 -.1 .4 -.1 .7 -.1c-.2 0 -.1 -.2 -.5 -.3c0 0 .4 0 .4 0c.3 -.1 -.8 -.2 -.5 -.3c.2 .1 .5 .1 .7 .1c-.5 -.1 -.4 -.2 -.6 -.3c.1 0 .2 0 .4 0c-.6 -.1 .2 -.2 -.2 -.3l.4 .1c.5 -.2 -.9 -.1 -.6 -.3c.1 .1 .3 .1 .5 .1c-.8 -.2 -.5 -.4 -.8 -.5c.1 0 .2 0 .2 0c-.1 -.2 .2 -.3 -.2 -.5c.2 0 1.1 .1 1 -.1c-.9 0 -.4 -.3 -1.4 -.2c.2 -.2 .5 -.4 .2 -.5c.4 .1 1.1 .1 1.2 .2l.5 -.1c.4 .1 -.1 .1 .3 .1c0 0 -.3 -.2 -.2 -.3c-.5 -.1 -1.5 -.3 -1.6 -.5c.3 .1 1 .1 1.1 .1L374 578c0 -.1 .7 0 .5 -.1c-.2 0 -.4 0 -.6 -.1c.2 0 -.2 -.2 .7 -.2c.4 0 .2 .1 .5 .1c0 -.1 -.3 -.1 -.3 -.2h.1c.2 -.1 -.3 -.3 -.8 -.2c-.1 0 .5 0 .2 0c-.5 0 -.6 -.2 -.6 -.3c.1 .1 .4 .1 .6 .1c-.6 -.2 -.9 -.3 -1.1 -.5c-.4 0 .7 .1 .5 .1c.6 -.1 -.8 -.4 .1 -.5c0 0 -.6 -.1 -.5 -.1c.1 -.1 .7 0 .4 -.1c.4 0 -.1 -.1 -.2 -.1c-.2 -.1 .2 0 .2 0c-.3 -.1 -.8 -.5 -.2 -.7c-.3 0 -.9 -.1 -.9 -.2l.6 .1c.3 -.1 0 -.2 .4 -.2c-.6 -.1 .6 .5 .1 .3c.4 0 -.9 -.3 -.2 -.2c0 -.1 -.6 -.2 -.1 -.3c-.1 .1 .8 .2 .8 .1c-.1 -.2 -.3 -.1 -.5 -.2l-.2 -.1c-.5 0 .1 -.1 -.5 -.1c.4 0 -.3 -.2 .6 -.1l.7 .1c0 -.1 -.7 -.2 -1 -.3c0 0 .2 0 .3 0c-1.1 -.1 .1 -.1 -.7 -.2c.4 -.1 0 -.3 .7 -.3c-.3 -.2 -.7 -.3 -.4 -.4c0 .1 .1 .1 .3 .1c.3 0 0 -.1 -.1 -.1c.1 0 .6 -.1 1 -.2c-.3 -.1 -.9 -.1 -1.2 -.1c1 0 -.7 -.3 .3 -.4c.1 .1 .5 .2 .7 .2c1.1 -.1 -.7 -.3 -.2 -.4h-.9c.6 0 -.5 -.2 .4 -.2c-.3 0 .3 -.1 -.5 -.2c.7 -.1 -.4 -.5 1.1 -.6c-.1 0 0 -.1 -.4 -.1c-.5 0 .3 .1 0 .1c0 0 -.3 0 -.4 -.1c.2 0 .3 -.1 1 .1c.5 -.2 -1.5 -.3 -1.1 -.5c.3 .1 .5 .1 .4 0l-.6 -.2c.2 -.1 .8 0 1.4 .1c-.1 -.1 0 -.2 -.5 -.3h.8c-.6 0 -.4 -.1 -.5 -.1h.1c.3 0 .1 0 .1 -.1c-.4 0 -.6 .1 -.7 .1q-.2 -.1 -.5 -.2c.6 .1 .4 -.1 .5 -.1c.1 -.1 -.5 -.1 -.5 -.1c.3 0 .1 -.1 .5 -.1c.1 .1 -.3 .1 0 .1c.2 0 .7 0 .3 -.1c-.2 -.1 -1.1 0 -.7 -.1c.1 0 .3 0 .5 .1l.4 -.1l-.6 -.1c.2 0 .2 .1 .3 0c-.6 0 -.2 -.1 -.8 -.2c-.1 -.1 .4 -.1 .4 -.2l.1 .1c.3 -.1 .1 -.2 -.3 -.3h.2c0 0 -.1 -.1 -.4 -.2c.4 0 2 .2 1.4 0c0 -.1 -1 -.2 -1.3 -.2c.3 -.1 -.5 -.4 .3 -.5c-.2 0 -.3 0 -.4 -.1c.2 -.2 -.6 -.6 .4 -.7c.2 .1 .5 .1 .9 .1c-.5 -.1 .4 0 -.4 -.1c-.4 0 -.7 -.1 -.9 0c-.2 -.2 -.2 -.4 .3 -.5c-.3 .1 -.4 0 -.6 0c.8 .1 .9 0 .7 -.1l-.5 -.1h.5c-.2 -.1 -1 -.1 -.5 -.2c.1 0 .3 0 .5 0c-.4 -.1 -1 -.2 -.6 -.3h.6c0 -.1 -.4 -.2 -.6 -.1c.4 -.1 .4 -.2 1 -.2c-1.4 -.4 -1.4 -.8 -1.3 -1.1h.4c.3 -.1 -.6 -.1 -.4 -.1c.3 0 .7 0 1.1 .1c.4 -.1 -.6 -.2 -.7 -.3c-.5 -.1 .3 .1 -.3 0c-.2 0 .4 -.1 -.3 -.2c.3 0 .8 0 1 .1l-.3 -.1c.8 -.1 1.4 .3 2.4 .3l-.1 -.1c.8 0 .8 .2 1.1 .1c-.3 -.1 -1.3 -.3 -1.6 -.2c-.2 -.2 -1.7 -.2 -1.6 -.4c.4 0 .1 .2 .6 .2c.6 -.1 -.3 -.2 -.1 -.3c-.2 .1 -.9 0 -1 -.1c.3 0 .6 .1 .7 0c-.4 0 -.7 -.2 -1 -.1c-.9 -.1 .3 -.1 -.4 -.2c.6 0 1.4 .2 1.8 .1c-.6 0 -.8 -.2 -1.8 -.2c.2 -.1 .7 0 1.1 0c.4 0 -1.1 -.2 .1 -.2h-.6l.7 -.1c0 0 -.9 -.2 .1 -.2c-.1 0 -.1 -.1 -.7 -.1c-.4 0 .5 .1 -.4 .1c.7 0 -.1 -.1 -.4 -.2h.4c-.1 0 0 -.1 -.4 -.2c.2 .1 .4 .1 .5 .1l-.5 -.1c-.3 -.2 .9 0 .8 -.1l.4 .1c-.1 0 .4 0 .3 -.1l-1.5 -.2c-.3 -.1 .5 0 0 -.1l.6 .2c.2 0 .9 0 .9 -.1c-.2 -.1 -.9 -.2 -1.2 -.2c0 0 .3 -.1 .7 0c-.2 -.1 -.6 0 -.9 -.1c.3 -.1 .8 -.1 1.3 -.2l.9 .2v-.1c.7 .2 .5 0 1.2 .1c.1 0 -.1 -.1 -.3 -.1c-1.1 0 -1.5 -.3 -2.6 -.3c-.3 -.2 2.6 0 .9 -.3c-.2 0 -1 -.1 -.7 0c.1 -.1 -1.1 -.1 -.6 -.2c.4 .1 1 0 1.6 .1c-.3 0 -.2 .1 -.1 .1c.4 0 1 .1 1 0c-.1 -.1 -.1 -.2 -.6 -.2c-.6 0 0 .1 -.6 0c-.2 -.1 .8 -.1 -.3 -.2c.1 .1 -.6 0 -1 0l-.2 -.1h.4c.3 -.1 -.7 -.1 -.6 -.2h.8c.7 .1 -.3 .2 .8 .2c0 -.1 -.5 -.1 -.2 -.2c.1 0 .1 .1 .2 .1c0 -.1 1.5 0 .6 -.2c-.3 -.1 -.4 0 -.8 -.1c-.1 -.1 -.5 -.2 -.6 -.3c.8 .1 .1 -.2 1 0c-.5 0 -.5 .2 .3 .3c.9 .1 -.2 .2 .8 .3c0 -.2 1 -.1 1.6 -.1c0 0 -.2 0 -.3 -.1q-.6 0 -1.2 0c.2 -.2 -.1 -.3 -.7 -.4c.3 -.1 .9 0 .9 0c-.1 -.1 0 -.3 .1 -.5c-.9 .1 -.2 -.2 -1 -.2c-.2 .1 -.9 .1 -1.3 .1c.1 -.1 .4 0 .6 0c-.5 -.1 .9 -.1 .1 -.2c.3 .2 1.1 .1 1.9 .2c-.5 -.1 .5 .1 .5 -.1c-.4 -.1 -.7 -.3 -.9 -.4c.7 -.1 .1 -.4 .1 -.5c.3 -.1 1.2 0 1.3 0c0 -.1 -.9 0 -.5 -.2l.2 .1c-.2 -.1 .6 -.2 -.6 -.4l.9 .1c0 0 -.2 0 -.3 0c.3 0 .6 0 .8 0c.6 0 -.1 -.2 -.1 -.3l-.5 .1c-.5 -.2 .1 -.3 -.1 -.5l.5 .1l-.3 -.1c.5 0 .9 0 .5 -.1l1.2 .3c-.3 .1 -.6 -.1 -1.1 -.1c-.5 0 -.3 .2 .2 .2c0 0 -.1 0 -.3 -.1c.7 0 .7 .1 1.2 .2c0 0 .2 -.1 0 -.1c.3 .1 .4 .2 .4 .3c-.3 -.1 -.5 0 -.7 -.1c.7 .1 .9 .2 .7 .3c-.8 0 .4 .2 .2 .4c-.6 -.2 -1.2 -.3 -1.4 -.4c-.3 .1 0 .1 -.3 .2c.4 .1 1.2 .2 1.5 .3H378c.2 .1 .9 .1 .8 .2c-.2 .2 -.3 .5 -.3 .6H378c1 .2 .3 .3 .8 .5c-.5 .2 .4 .5 -.4 .5c.3 .4 .7 .8 .4 1.2l-.7 -.1c.6 .1 -.4 0 -.3 0c.6 0 .8 .2 1.2 .3c-.6 .1 0 .4 .5 .6l-.5 -.1c.9 .3 .1 .4 -.1 .6c-.2 0 -.6 0 -.6 0c.8 .2 .7 .2 1.2 .4c0 .1 -.2 .3 -.5 .4c1 .5 .3 .9 .9 1.4h-.5c1.1 .5 0 .9 .6 1.3l-1 -.1c-.3 .1 .3 .3 1 .3c-.4 .1 .4 .3 -.4 .4c-.2 .1 .4 .1 .6 .2c-.4 .2 -.4 .3 -.2 .6l.1 -.1c-.2 0 -.6 -.1 -.7 0c.3 .1 -.3 .3 .9 .3c-.7 .2 .5 .6 -.5 .7c.4 0 .4 .1 .6 .1c0 .2 -.6 .4 -.1 .6c-.2 0 -.5 -.1 -.6 0c.1 .1 .4 0 .6 .1c.6 .4 -.7 .6 -.5 1c.5 .5 .2 1.1 .3 1.6h-.3c.9 .2 -.9 .3 .4 .6c-.2 0 -.1 .1 -.6 0c.7 .2 -.6 .4 .2 .6h-.1c-.5 .1 .1 .4 -.3 .5c-.1 0 -.2 0 -.4 -.1c-.5 .1 .9 .3 -.2 .3c0 0 .6 .1 .5 0c-.4 .5 .2 1 .5 1.5c-.7 .3 -1.9 -.1 -1.1 .2c-.2 0 .4 .1 .2 .1c.3 .1 -1.3 0 -.7 .1c.7 .1 .4 .1 .8 .2c-.5 .1 -1.1 .1 -.6 .3h-.3c1 .3 .4 .5 1.6 .7c.1 1.1 .7 2.2 .7 3.3c-.3 1 .2 2 -.5 3.1q-1 .1 -.6 .4q-.2 0 -.3 0c.7 .1 0 .2 .8 .3c-.2 .4 0 .7 -.1 1.2c0 -.1 -.7 -.2 -.6 -.1l.5 .1h-.2c.1 .1 .4 .1 .7 .1c.6 1.1 -1 1.9 -.9 2.9c-.4 .3 -.1 .6 0 .9c-1.1 .7 -1.9 1.3 -1.3 2.1c0 0 -2 -.3 -2.4 -.6Z" class="g3_79"/>
<path d="M378.5 557.1c-.4 0 -.6 .1 -1.1 0c.4 0 .8 0 1.1 0Z" class="g3_79"/>
<path d="M374.3 559.1c.2 .1 -.1 .1 -.2 .1c0 -.1 -.3 -.1 -.1 -.1c0 0 .2 0 .3 0Z" class="g3_79"/>
<path d="M374.1 559.7c-.4 0 -.7 -.2 -.7 -.2Z" class="g3_79"/>
<path d="M372.6 560.2c-.3 0 -.5 0 -.5 -.1c.2 0 .3 0 .5 .1Z" class="g3_79"/>
<path d="M373.4 560.3c0 0 -.2 0 -.4 0c.3 .1 -.2 -.1 .4 0Z" class="g3_79"/>
<path d="M372.3 561.4c0 0 .3 .1 -.1 .1c.3 0 -.4 -.1 .1 -.1Z" class="g3_79"/>
<path d="M372.8 562q-.1 0 0 .1c-.2 0 -.5 -.1 -.5 -.1Z" class="g3_79"/>
<path d="M373.4 572.4l-.2 -.1l.3 .1Z" class="g3_79"/>
<path d="M373 576.9c.2 .1 -.3 0 -.4 0c0 0 .5 .1 .4 0Z" class="g3_79"/>
<path d="M374.6 579.5v0h.7Z" class="g3_79"/>
<path d="M369.1 579.4c-.1 -.1 -.2 .2 -.1 0c.1 -.1 .2 -.1 .1 0Z" class="g3_79"/>
<path d="M383.9 584.2c.5 .8 -.5 .8 -.3 1.5c0 .1 -.4 -.3 -.4 -.1c.4 .8 -.3 1.2 -1.1 1.4l-.1 -.1c-.1 0 .2 .3 .1 .4c-.1 0 -.1 -.1 -.2 -.1c.2 .1 0 .2 .2 .3c-.2 0 -.4 -.1 -.5 -.1l.3 .2c.5 .6 -.3 .4 -.1 .8q-.1 -.1 -.2 -.2c.2 .6 -.1 1 -.2 1.5c0 -.1 -.2 -.2 -.3 -.3c.2 .2 .2 .4 .2 .5c-.3 -.1 .2 .3 0 .4l-.1 -.1c.3 .3 -.2 0 .1 .3l-.3 -.1c.4 .3 -.3 0 -.1 .2l.1 .1c.1 .1 -.2 0 -.1 .1h-.1c0 .2 -.3 .2 .1 .3c-.3 -.1 -.1 -.2 -.5 -.3c.1 .7 -.3 1.1 -.6 1.6c-.1 0 -.2 0 -.3 -.1c0 .1 -.1 .3 .1 .4c0 0 -.2 -.1 -.3 0c-.1 0 .3 .3 .1 .3c0 -.1 -.1 -.2 -.3 -.3c.2 .3 .1 .4 .2 .5c-.1 0 -.1 -.1 -.2 -.1c.2 .2 -.2 .1 -.1 .3l-.1 -.1c-.3 0 .3 .3 .1 .3c0 -.1 -.1 -.1 -.2 -.1c.3 .3 .1 .4 .1 .6c0 0 -.1 0 -.1 0c0 .1 -.2 .2 -.1 .4c-.1 0 -.5 -.3 -.5 -.1c.4 .2 0 .3 .5 .5c-.1 .1 -.4 .2 -.3 .4c-.1 -.2 -.5 -.3 -.5 -.4h-.2c-.2 -.1 .1 -.1 -.2 -.2c0 .1 .1 .3 0 .3c.2 .3 .6 .6 .5 .8c-.1 -.2 -.4 -.2 -.4 -.3l.6 .6c-.1 .1 -.3 -.1 -.3 0c.1 0 .2 .1 .2 .2c0 0 0 .2 -.4 0c-.2 0 0 -.1 -.2 -.1c0 .1 .1 .2 0 .3v-.1c-.1 .1 0 .3 .3 .4c0 -.1 -.2 -.2 -.1 -.2c.2 .2 .2 .4 .1 .5c0 -.1 -.1 -.2 -.2 -.2c.2 .3 .2 .4 .3 .6c.1 .2 -.3 -.2 -.2 -.2c-.4 .1 .1 .6 -.3 .5c0 0 .2 .2 .2 .2c-.1 0 -.4 -.1 -.3 0c-.1 -.1 0 .1 0 .2c.1 .1 -.1 -.1 0 -.1c0 .1 0 .3 0 .4l-.8 2.1l-1.4 -2.2c-.1 -.1 -.1 -.2 -.1 -.3c-.1 0 -.4 0 -.4 0l.3 -.1c.1 -.1 -.1 -.2 .1 -.2c-.4 0 .4 .2 .1 .2c.2 -.1 -.5 0 -.1 -.1c-.1 -.1 -.4 -.1 -.2 -.3c0 .1 .4 -.1 .3 -.1c-.1 -.1 -.1 0 -.2 -.1h-.2c-.2 .1 0 -.1 -.2 0c.2 -.1 -.2 -.1 .2 -.3l.3 -.1c0 0 -.4 .1 -.5 .1c0 0 .1 -.1 .1 -.1c-.5 .2 0 -.1 -.4 -.1c.1 -.1 -.1 -.3 .2 -.4c-.2 -.1 -.4 -.1 -.4 -.2q.1 0 .2 0c.1 -.2 0 -.1 -.1 -.2c.1 0 .2 -.2 .4 -.3c-.2 -.1 -.5 .1 -.6 .1c.4 -.3 -.4 -.1 0 -.4c0 0 .2 0 .3 -.1c.5 -.3 -.4 0 -.2 -.2l-.4 .2c.2 -.2 -.3 -.1 .1 -.3c-.2 0 .1 -.2 -.3 0c.2 -.4 -.4 -.5 .2 -.9c-.1 0 0 -.1 -.2 0c-.2 .2 .1 0 0 .1c0 0 -.1 0 -.2 0q.1 -.1 .4 -.2c.2 -.3 -.7 .1 -.6 -.1c.1 -.1 .2 -.1 .2 -.2h-.4c0 -.1 .4 -.2 .6 -.3c0 -.1 -.1 -.1 -.3 -.1l.3 -.2c-.2 .1 -.1 0 -.2 0h.1c.1 -.1 0 -.1 -.1 -.1c-.2 0 -.2 .2 -.2 .2q-.2 0 -.3 0c.3 -.1 .1 -.2 .1 -.3c.1 -.1 -.2 .1 -.2 0c.1 0 0 -.1 .2 -.1c0 0 -.1 .1 0 .1c.1 -.1 .3 -.2 .1 -.2c-.1 0 -.5 .2 -.4 0c.1 .1 .2 0 .3 0l.1 -.2l-.3 .1q.1 0 .2 0c-.3 0 -.2 -.2 -.5 -.1c0 0 .1 -.2 .1 -.2h.1c.1 -.2 -.1 -.2 -.2 -.2c0 0 -.1 -.1 -.2 -.1c.1 -.2 .9 -.4 .5 -.4c0 -.1 -.5 .1 -.6 .2c.1 -.3 -.4 -.3 -.1 -.6c-.1 0 -.1 .1 -.2 0c0 -.2 -.5 -.3 -.1 -.7c.1 0 .2 -.1 .4 -.2c-.3 0 .2 -.2 -.2 0c-.2 .1 -.3 .1 -.4 .2c-.2 -.1 -.3 -.3 -.1 -.5c-.1 .1 -.2 .1 -.2 .1c.3 -.1 .3 -.2 .2 -.3l-.3 .1l.2 -.1c0 0 -.4 .1 -.3 0c.1 -.1 .2 -.1 .3 -.2c-.2 0 -.6 0 -.4 -.1l.2 -.2c0 -.1 -.2 0 -.3 .1c.1 -.3 .1 -.4 .4 -.5c-.8 0 -1 -.4 -1.1 -.7l.2 -.1c.1 -.1 -.3 .1 -.2 0c.1 -.1 .3 -.2 .5 -.2c.1 -.2 -.3 -.1 -.4 -.1c-.3 .1 .1 0 -.2 .1c0 0 .1 -.2 -.2 -.1c.1 -.1 .4 -.2 .5 -.2H370c.4 -.3 .8 -.1 1.2 -.4h-.1c.3 -.2 .5 0 .5 -.2c-.2 0 -.7 .1 -.8 .2c-.1 -.1 -.8 .3 -.8 .1c.2 -.1 .1 .1 .3 0c.3 -.2 -.2 -.1 -.1 -.2c-.1 .1 -.5 .2 -.5 .1c.1 -.1 .3 0 .3 -.2c-.2 .1 -.4 0 -.5 .2c-.4 .1 .1 -.2 -.3 -.1c.3 -.2 .8 -.2 .9 -.4c-.3 .2 -.5 0 -.9 .3c.1 -.1 .3 -.2 .5 -.2c.1 -.2 -.6 0 -.1 -.3l-.3 .1l.3 -.2c0 0 -.5 0 0 -.2c-.1 0 -.1 -.1 -.4 0c-.1 .2 .3 0 -.1 .3c.3 -.2 -.1 -.1 -.2 -.1l.1 -.1c-.1 0 0 -.1 -.2 -.1c.1 0 .2 0 .2 -.1l-.3 .1c-.1 -.1 .5 -.2 .4 -.3h.2c-.1 0 .2 -.2 .1 -.2l-.8 .2c-.1 0 .3 -.1 0 -.1h.3c.1 0 .4 -.2 .3 -.3c-.1 0 -.4 0 -.5 .2c-.1 -.1 .1 -.2 .2 -.2c-.1 -.1 -.2 .1 -.4 0c.2 -.1 .3 -.3 .5 -.4l.5 -.1l-.1 -.1c.4 0 .3 -.1 .6 -.2c.1 -.1 -.1 -.1 -.2 -.1c-.5 .4 -.8 .2 -1.2 .4c-.2 -.1 1.1 -.6 .3 -.4c-.2 .1 -.6 .1 -.4 .2c0 -.2 -.5 .1 -.3 -.1c.2 0 .4 -.3 .7 -.3c-.1 .1 0 .1 0 .1c.2 -.1 .5 -.2 .5 -.3c-.1 0 -.2 -.1 -.4 0c-.3 .1 .1 .1 -.2 .2c-.2 -.1 .2 -.3 -.3 -.2c.1 .1 -.2 .2 -.4 .3H368l.2 -.1c0 -.2 -.4 .1 -.4 -.1l.3 -.2c.3 -.1 0 .3 .5 0c-.1 -.1 -.3 0 -.2 -.1h.1c0 0 .7 -.4 .2 -.3q-.2 0 -.4 .1c-.1 -.1 -.3 -.1 -.4 -.2c.4 -.1 0 -.2 .4 -.2c-.2 .1 -.1 .3 .3 .2c.4 -.2 0 .2 .5 0c-.1 -.1 .4 -.3 .6 -.4c0 -.1 -.1 0 -.2 0q-.2 .1 -.5 .2c0 -.2 -.2 -.2 -.5 -.2c.1 -.1 .4 -.2 .5 -.2c-.2 -.1 -.2 -.3 -.2 -.5c-.4 .3 -.2 -.1 -.5 .1c-.1 .1 -.4 .3 -.6 .4c0 -.1 .2 -.1 .3 -.2c-.3 .1 .3 -.2 -.1 -.1c.2 .1 .6 -.2 .9 -.3c-.2 -.1 .3 -.1 .2 -.3c-.2 0 -.4 -.1 -.5 -.1c.2 -.3 -.2 -.4 -.3 -.6c.2 -.1 .6 -.2 .6 -.3c0 -.1 -.4 .2 -.2 0c-.1 0 .2 -.4 -.4 -.2l.5 -.1c0 -.1 -.1 0 -.2 0c.2 -.1 .3 -.2 .4 -.2c.2 -.2 -.1 -.1 -.2 -.2l-.2 .1c-.3 0 -.1 -.2 -.2 -.4h.2l-.2 -.1c.3 -.1 .4 -.2 .2 -.2h.7c-.1 .1 -.3 .1 -.6 .2c-.2 .1 0 .2 .2 .2q0 -.1 -.1 -.1q.3 -.1 .6 -.1c-.1 0 0 -.1 -.1 -.1c.2 0 .2 .1 .3 .1c-.2 0 -.2 .2 -.3 .2c.3 -.1 .4 -.1 .4 .1c-.3 .2 .3 .1 .2 .2c-.3 .1 -.5 .2 -.7 .1c-.1 .2 0 .1 -.1 .3c.3 -.1 .6 -.2 .8 -.2l-.2 .1c.1 .1 .5 -.1 .5 .1c-.1 .3 0 .5 .1 .6l-.2 .1c.5 -.1 .3 .3 .5 .3c-.1 .3 .4 .4 .1 .6c.3 .3 .6 .6 .7 1h-.4c.3 0 -.1 .2 -.1 .2c.3 -.2 .4 0 .6 -.1c-.2 .3 .2 .4 .5 .5l-.2 .1c.5 -.1 .2 .3 .2 .5c-.1 0 -.3 .2 -.2 .2q.4 0 .6 .1c.1 .1 .1 .3 0 .5c.7 .2 .5 .7 1 1l-.3 .2c.8 .1 .5 .8 .9 1.1l-.4 .1c-.1 .2 .2 .2 .5 .1c-.1 .1 .3 .2 0 .4c-.1 .1 .2 0 .3 .1c0 .3 0 .4 .2 .5c-.1 0 -.3 .1 -.3 .1c.2 .1 0 .4 .5 .1c-.2 .3 .5 .4 .2 .8c.1 -.1 .2 0 .3 -.1c.1 .2 -.2 .6 .2 .6c-.1 .1 -.3 .1 -.3 .2c.1 0 .2 -.1 .3 -.1c.4 .2 0 .8 .2 1.1c.5 .4 .6 1 .8 1.4l-.1 .1c.5 0 -.2 .6 .5 .4c-.1 .1 0 .2 -.3 .3c.4 0 -.1 .4 .4 .5h-.1c-.2 .3 .2 .3 .1 .6c0 0 -.1 0 -.2 0c-.2 .2 .5 0 0 .3c.1 0 .3 -.1 .3 -.1c0 .5 .5 .8 .8 1.3c-.1 .4 -.8 .3 -.3 .4c-.1 .1 .2 0 .1 0c.1 .1 -.6 .4 -.3 .4q.3 -.1 .3 -.1l-2.7 -.2h-.1c.3 -.1 .6 0 .5 -.3l.1 .1c-.3 -.4 0 -.5 -.4 -.9c.5 -1.1 .8 -2.2 1.3 -3.2c.7 -.8 1 -1.9 1.8 -2.7q.6 0 .5 -.4q.1 .1 .2 .1c-.4 -.2 0 -.1 -.3 -.4c.3 -.3 .4 -.7 .6 -1c0 .1 .3 .2 .3 .2l-.2 -.2h.1c0 -.1 -.1 -.2 -.3 -.2c.3 -1.1 1.5 -1.6 2 -2.6c.2 -.1 .3 -.5 .3 -.7c.9 -.5 1.6 -.9 1.7 -1.7c0 0 .8 .6 .9 1Z" class="g3_79"/>
<path d="M369.2 579.5c-.2 .1 -.2 .2 -.5 .3c.2 -.1 .4 -.2 .5 -.3Z" class="g3_79"/>
<path d="M368.3 582.6c.1 -.1 0 0 -.1 .1c0 -.1 -.2 0 -.1 -.1q.1 0 .2 0Z" class="g3_79"/>
<path d="M368.5 583.2c-.2 .1 -.4 0 -.4 -.1Z" class="g3_79"/>
<path d="M368 584c-.1 .1 -.2 .1 -.2 .1q.1 -.1 .2 -.1Z" class="g3_79"/>
<path d="M368.4 583.9c0 0 -.1 .1 -.1 .2c.1 -.1 -.2 -.1 .1 -.2Z" class="g3_79"/>
<path d="M368.4 585.3c.1 0 .2 0 .1 .1c.1 -.1 -.3 0 -.1 -.1Z" class="g3_79"/>
<path d="M368.9 585.7c0 0 0 .1 0 .1c0 0 -.2 0 -.2 0Z" class="g3_79"/>
<path d="M373.8 595.4h-.2l.2 -.1Z" class="g3_79"/>
<path d="M378.1 597.3c-.1 -.1 .2 0 .2 0c0 .1 -.2 -.1 -.2 0Z" class="g3_79"/>
<path d="M378.7 594.6v.1l-.3 -.2Z" class="g3_79"/>
</svg>