<?xml version="1.0" encoding="UTF-8" standalone="no"?>
<!DOCTYPE svg PUBLIC "-//W3C//DTD SVG 1.1//EN"
"http://www.w3.org/Graphics/SVG/1.1/DTD/svg11.dtd">
<svg viewBox="0 0 660 990" version="1.1" xmlns="http://www.w3.org/2000/svg" xmlns:xlink="http://www.w3.org/1999/xlink">
<defs>
<clipPath id="c0_208"><path d="M208.7 743.6V501.3H427.5V743.6Z"/></clipPath>
<style type="text/css"><![CDATA[
.g0_208{
fill: none;
stroke: #231F20;
stroke-width: 1.145;
}
.g1_208{
fill: #231F20;
}
.g2_208{
fill: #58595B;
}
.g3_208{
fill: #FFF;
}
]]></style>
</defs>
<path d="M54.6 360.3h550M54.6 479.1h550" class="g0_208"/>
<path d="M345.6 561.3c1.7 6.8 3.8 7.8 6.7 7c3.1 -.7 7.3 -4.3 5.5 -11.7c-1.9 -7.6 -7.5 -9.8 -13 -8.5l-2.3 .5Zm-4 -16.1l2.5 -.6c4.6 -1.1 7.4 -4.7 5.9 -10.7c-1.7 -6.7 -6.3 -7.5 -9.2 -6.9c-1.9 .5 -2.7 .9 -2.9 1.2c-.3 .3 0 1.9 .5 4ZM326.8 539c-2.1 -8.1 -2.8 -8.5 -8 -7.8l-.7 -2.9l24.6 -5.7c11.1 -2.5 18.4 -.9 20.4 7.2c1.6 6.5 -4.1 11.5 -8.4 13.1v.1c7.8 -.9 15.1 1.7 17.1 9.6c1.4 5.5 -.6 9.7 -4.2 13.1c-3.3 3 -8.6 5.1 -15.1 6.6l-22.7 5.2l-.7 -3c5.4 -1.7 5.9 -2.3 3.9 -10.5Z" class="g1_208"/>
<path d="M243.6 591.4c-1.8 -7.2 -2.5 -7.6 -7.3 -6.9l-.6 -2.6l33.2 -7.6c.3 1.1 1.9 5.9 3.5 10.9l-3.1 .9c-1.5 -3.1 -2.7 -4.8 -4.1 -5.6c-1.4 -.9 -3.8 -.8 -7.5 0l-1.2 .3c-2.7 .6 -2.8 .7 -2.2 3l3.2 13L261 596c6 -1.4 6.1 -1.9 5.6 -7.1l3 -.7l4 15.8l-3.1 .7C268.3 599 268 598.6 262 600l-3.5 .8l2.7 11c.9 3.5 1.5 5.1 2.9 5.4c1.2 .3 2.9 0 5 -.5c2.8 -.6 5.8 -1.8 6.9 -3.7c.9 -1.5 1.5 -4.3 1.7 -7.7l3.2 -.3c.5 3.4 .7 10.6 .6 12.6l-35.6 8.1l-.7 -2.6c5.3 -1.6 5.7 -2.2 3.9 -9.5Z" class="g1_208"/>
<path d="M403 669.9c2.3 9.5 3.2 10 9.7 9l.8 3.5l-29.7 6.8l-.9 -3.4c6.3 -2 6.8 -2.8 4.5 -12.3l-7.3 -29.1c-2.3 -9.6 -3.2 -10 -9.7 -9.1l-.8 -3.4L399.3 625l.8 3.5c-6.2 2 -6.7 2.8 -4.4 12.3Z" class="g1_208"/>
<path d="M275.1 712.8c2.6 3.8 8.9 10.7 16.2 9.1c3.9 -.9 6.3 -4 5.1 -8.7c-1.1 -4.2 -4.5 -6 -9.6 -6.8l-1.2 -.3C278.8 704.9 271 702.7 269.1 695c-2 -8 2.5 -16 14.1 -18.7c2.3 -.5 4.8 -.8 7.1 -.7c1.8 .1 3 .1 4.1 .1c1 2.7 2.4 6.1 4.4 10.8l-3.2 1.2c-2.8 -4.3 -6.6 -8.8 -12.5 -7.4c-3.8 .8 -5.8 4.2 -4.9 7.7c.9 3.5 4.2 5 9.5 5.9l1.9 .4c7.5 1.3 14.3 3.7 16.4 12c2.2 8.8 -3.6 16.9 -15.1 19.6c-3 .7 -6.1 .8 -8.3 .6c-2.4 -.2 -4.1 -.4 -5.1 -.6c-1.4 -3.2 -3.4 -6.8 -5.4 -11.4Z" class="g1_208"/>
<path clip-path="url(#c0_208)" d="M424.6 579.6l-36 -.4L323 619.5L282.1 501.6L314 625.1L209 689.6L316.5 634.7l20.6 80L366 743.3L326.5 629.6Z" class="g1_208"/>
<path d="M421.4 597.6c.8 0 1.5 -.1 1.5 -1c0 -.8 -.8 -.8 -1.4 -.8h-1.3v1.8Zm-1.2 3.6h-1.1v-6.3h2.5c1.6 0 2.4 .5 2.4 1.8c0 1.2 -.7 1.6 -1.7 1.7l1.8 2.8h-1.2l-1.7 -2.7h-1Zm1.1 -8c-2.6 0 -4.6 1.9 -4.6 4.7c0 2.7 1.8 4.8 4.6 4.8c2.6 0 4.6 -1.9 4.6 -4.8c0 -2.8 -2 -4.7 -4.6 -4.7m0 10.5c-3.4 0 -5.9 -2.5 -5.9 -5.8c0 -3.4 2.8 -5.7 5.9 -5.7c3.2 0 5.9 2.3 5.9 5.7c0 3.5 -2.7 5.8 -5.9 5.8Z" class="g1_208"/>
<path d="M358.3 879.6c0 15.1 -12.3 27.3 -27.4 27.3c-15.1 0 -27.3 -12.2 -27.3 -27.3c0 -15.1 12.2 -27.3 27.3 -27.3c15.1 0 27.4 12.2 27.4 27.3Z" class="g2_208"/>
<path d="M306.4 922.6c0 .4 0 .7 .6 1.8v.2h-3.4v-.1c.6 -1.2 .6 -1.4 .6 -1.9V910.8c0 -.5 0 -.9 -.6 -1.8v-.2h5.7c3.1 0 5.1 2.2 5.1 4.7c0 3.1 -2.1 4.6 -4.6 4.6c-2.1 0 -3.4 -.4 -3.4 -.4Zm5.9 -9.1c0 -1.9 -1.2 -3.2 -3.3 -3.2h-2.4c-.1 0 -.2 .1 -.2 .2v5.9c0 0 1.1 .2 2.5 .2c2.3 0 3.4 -.7 3.4 -3.1Z" class="g2_208"/>
<path d="M317.3 923.2l5.2 -.2c.8 0 1.2 -.3 2.2 -1.2l.3 .2l-.4 2.6h-10l-.1 -.2c.6 -1 .6 -1.4 .6 -1.9V910.6c0 -.5 0 -.7 -.6 -1.6l.1 -.2h3.3v.2c-.5 .9 -.6 1.1 -.6 1.6Z" class="g2_208"/>
<path d="M333.9 919.4h-5.4l-1.4 3.8c-.1 .3 -.1 .5 .1 1.3v.1h-3v-.1c.8 -1 .9 -1.2 1 -1.5l5 -12.8l-.6 -1.2l.1 -.2l2.4 -.3l5.4 14.5c.1 .3 .2 .5 .8 1.5v.1h-3.2v-.1c.4 -.7 .4 -.9 .3 -1.2ZM329 917.8h4.3l-2.1 -5.7h-.1Z" class="g2_208"/>
<path d="M340.8 910.3h-2.3c0 0 -.6 0 -2.2 .5l-.1 -.1l.3 -1.9H348l.1 .1l-.5 1.8l-.2 .1c0 0 -.8 -.5 -1.5 -.5h-2.8v12.2c0 .6 0 .8 .6 1.9l-.1 .2h-3.3l-.1 -.2c.6 -1.1 .6 -1.3 .6 -1.9Z" class="g2_208"/>
<path d="M355.1 919.5h-5.7l-1.5 4c-.1 .4 -.1 .6 .1 1.4v.2h-3.2v-.2c.8 -1 1 -1.2 1.1 -1.5l5.3 -13.6l-.7 -1.2l.1 -.2l2.5 -.3l5.8 15.3c.1 .3 .2 .5 .9 1.5l-.1 .2h-3.3l-.1 -.1c.4 -.8 .4 -1 .3 -1.3Zm-5.2 -1.6h4.6l-2.2 -6h-.2Z" class="g2_208"/>
<path d="M305.4 933.9c0 .2 0 .4 .3 .9v.1h-1.6l-.1 -.1c.3 -.5 .3 -.6 .3 -.9v-5.7c0 -.3 0 -.5 -.2 -.9v-.1h2.7c1.5 0 2.5 1.1 2.5 2.3c0 1.5 -1 2.2 -2.3 2.2c-.9 0 -1.6 -.2 -1.6 -.2Zm2.9 -4.4c0 -1 -.6 -1.6 -1.6 -1.6h-1.2c-.1 0 -.1 .1 -.1 .1v2.9c0 0 .5 .1 1.2 .1c1.2 0 1.7 -.3 1.7 -1.5Z" class="g2_208"/>
<path d="M316 933.6c-.7 .8 -1.8 1.4 -3 1.4c-1.7 0 -3.1 -1 -3.1 -2.8v-4c0 -.3 0 -.4 -.3 -.9v-.1h1.6v.1c-.3 .5 -.3 .6 -.3 .9v4c0 1.3 1.1 2 2.1 2c.9 0 1.5 -.3 2 -.6v-5.4c0 -.3 0 -.4 -.3 -.9v-.1h1.6v.1c-.3 .5 -.3 .6 -.3 .9Z" class="g2_208"/>
<path d="M316.7 934.8q.3 -.6 .3 -.9v-5.7c0 -.3 0 -.4 -.3 -.9v-.1h2.6c1.6 0 2.4 .9 2.4 1.9c0 .8 -.8 1.5 -1.2 1.6v.1c.6 .1 1.7 .6 1.7 2c0 1.1 -.7 2.1 -3 2.1h-2.5Zm1.5 -6.9q-.1 0 -.1 .1v2.5h1.3c.8 0 1.2 -.7 1.2 -1.4c0 -.7 -.5 -1.2 -1.5 -1.2Zm-.1 6.2c.1 0 .5 .1 1 .1h.1c1.6 0 1.9 -.6 1.9 -1.5c0 -1.1 -.8 -1.5 -1.6 -1.5h-1.4Z" class="g2_208"/>
<path d="M323.8 934.2l2.5 -.1c.4 0 .6 -.1 1.1 -.6l.1 .1l-.2 1.3h-4.8l-.1 -.1c.3 -.5 .3 -.7 .3 -.9v-5.8c0 -.2 0 -.4 -.3 -.8l.1 -.1h1.6v.1c-.2 .4 -.3 .6 -.3 .8Z" class="g2_208"/>
<path d="M329.4 934.9h-1.6v-.1c.3 -.6 .3 -.5 .3 -.8v-5.9q0 -.3 -.3 -.8v-.1h1.6v.1q-.2 .5 -.2 .8V934c0 .3 0 .2 .3 .8Z" class="g2_208"/>
<path d="M334.7 932.9c0 1.1 -.8 2.1 -2.3 2.1c-.8 0 -1.7 -.4 -1.7 -.4l-.4 .1l-.2 -1.6l.1 -.1c.7 .9 1.2 1.3 2.2 1.3c.8 0 1.3 -.6 1.3 -1.2c0 -2 -3.4 -1.5 -3.4 -4c0 -1.1 .8 -2 2 -2c.9 0 1.5 .3 1.5 .3l.4 -.1l.5 1.5l-.3 .1c-.7 -.8 -1.3 -1.1 -2 -1.1c-.6 0 -1.1 .4 -1.1 1.1c0 1.8 3.4 1.5 3.4 4Z" class="g2_208"/>
<path d="M342.2 934.9h-1.6v-.1c.2 -.5 .3 -.6 .3 -.8v-2.6h-4.2V934c0 .2 0 .3 .3 .8v.1h-1.7v-.1c.3 -.5 .3 -.6 .3 -.8v-5.9c0 -.2 0 -.4 -.3 -.8v-.1H337v.1c-.3 .4 -.3 .6 -.3 .8v2.6h4.2v-2.6c0 -.2 -.1 -.4 -.3 -.8v-.1h1.6v.1c-.2 .4 -.3 .6 -.3 .8V934c0 .2 .1 .3 .3 .8Z" class="g2_208"/>
<path d="M344.8 934.9h-1.7v-.1c.3 -.6 .3 -.5 .3 -.8v-5.9q0 -.3 -.3 -.8v-.1h1.7v.1q-.3 .5 -.3 .8V934c0 .3 0 .2 .3 .8Z" class="g2_208"/>
<path d="M352.8 934.9h-.6l-5 -5.9v4.9q0 .3 .3 .9l-.1 .1H346l-.1 -.1q.3 -.6 .3 -.9v-5.8l-.6 -.8v-.1H347l4.8 5.6l.1 -.1v-4.6c0 -.3 0 -.2 -.3 -.8v-.1H353l.1 .1c-.3 .6 -.3 .5 -.3 .8Z" class="g2_208"/>
<path d="M359 933c0 -.4 -.1 -.6 -.2 -.7v-.2h1.4v.1l-.1 .4v1.6c-.8 .5 -1.8 .8 -2.8 .8c-2.4 0 -4 -1.5 -4 -4c0 -2.2 1.6 -3.9 4 -3.9c.5 0 1.1 .1 1.5 .2c0 0 .2 0 .5 -.1l.4 1.4h-.2c-.5 -.4 -1.3 -.7 -2.2 -.7c-1.6 0 -2.9 1.4 -2.9 3.1c0 1.8 1.3 3.3 2.9 3.3c.8 0 1.3 -.2 1.7 -.4Z" class="g2_208"/>
<path d="M335.2 879.6c0 2.4 -1.9 4.3 -4.3 4.3c-2.3 0 -4.2 -1.9 -4.2 -4.3c0 -2.3 1.9 -4.2 4.2 -4.2c2.4 0 4.3 1.9 4.3 4.2Z" class="g3_208"/>
<path d="M332.6 854.3c-.2 -.7 -.9 -1.3 -1.7 -1.3c-.7 0 -1.4 .6 -1.6 1.3c-13.3 .8 -23.8 11.9 -23.8 25.3c0 14.1 11.4 25.5 25.4 25.5c14.1 0 25.5 -11.4 25.5 -25.5c0 -13.4 -10.5 -24.5 -23.8 -25.3m-1.7 49.6c-13.3 0 -24.2 -10.9 -24.2 -24.3c0 -12.8 10 -23.3 22.6 -24.1c.3 .6 .9 1.1 1.6 1.1c.8 0 1.4 -.5 1.7 -1.1c12.6 .8 22.6 11.3 22.6 24.1c0 13.4 -10.9 24.3 -24.3 24.3Z" class="g3_208"/>
<path d="M329.2 887.2c0 .9 .8 1.7 1.7 1.7c1 0 1.8 -.8 1.8 -1.7c3.4 -.8 6 -3.9 6 -7.6c0 -3.6 -2.6 -6.7 -6 -7.5c0 -.9 -.8 -1.7 -1.8 -1.7c-.9 0 -1.7 .8 -1.7 1.7c-3.4 .8 -6 3.9 -6 7.5c0 3.7 2.6 6.8 6 7.6m0 -14.6c.2 .8 .9 1.3 1.7 1.3c.9 0 1.5 -.5 1.7 -1.3c3.2 .8 5.6 3.6 5.6 7c0 3.4 -2.4 6.3 -5.6 7.1c-.2 -.8 -.8 -1.4 -1.7 -1.4c-.8 0 -1.5 .6 -1.7 1.4c-3.1 -.8 -5.5 -3.7 -5.5 -7.1c0 -3.4 2.4 -6.2 5.5 -7Z" class="g3_208"/>
<path d="M317.7 889.5c.4 .6 .9 1.1 1.4 1.6c-.2 .3 -.3 .6 -.3 1c.1 .5 .3 .9 .7 1.2c.3 .2 .7 .4 1.1 .4c.4 0 .8 -.1 1.1 -.4c.6 .4 1.3 .8 2 1.2c-.1 .3 0 .7 .1 1c.2 .4 .6 .7 1 .9c.2 .1 .4 .1 .6 .1c.6 0 1.2 -.3 1.5 -.8c.8 .1 1.5 .3 2.3 .4c.2 .8 .9 1.4 1.7 1.4c.9 0 1.6 -.6 1.8 -1.4c.7 -.1 1.5 -.3 2.3 -.4c.3 .5 .8 .8 1.5 .8c.2 0 .4 0 .6 -.1c.8 -.3 1.2 -1.1 1.1 -1.9c.7 -.4 1.4 -.8 2.1 -1.3c.3 .3 .7 .4 1.1 .4c.4 0 .8 -.2 1.1 -.4c.7 -.6 .8 -1.5 .4 -2.2c.5 -.5 .9 -1 1.3 -1.5c.2 0 .4 .1 .6 .1c.6 0 1.2 -.4 1.5 -.9c.4 -.7 .3 -1.6 -.3 -2.2c.3 -.8 .6 -1.6 .9 -2.5c.8 0 1.5 -.6 1.6 -1.4c.2 -.9 -.3 -1.7 -1.1 -1.9c0 -.4 .1 -.7 .1 -1.1c0 -.4 -.1 -.8 -.1 -1.2c.3 -.2 .6 -.4 .8 -.7c.3 -.4 .4 -.8 .3 -1.3c-.2 -.8 -.9 -1.4 -1.7 -1.4c-.2 -.8 -.5 -1.5 -.9 -2.3c.3 -.2 .5 -.5 .6 -.8c.1 -.5 0 -1 -.2 -1.4c-.4 -.5 -.9 -.8 -1.5 -.8c-.2 0 -.4 0 -.6 .1c-.4 -.6 -.9 -1.1 -1.4 -1.6c.2 -.3 .3 -.7 .2 -1c0 -.5 -.2 -.9 -.6 -1.2c-.3 -.3 -.7 -.4 -1.1 -.4c-.4 0 -.8 .1 -1.1 .4c-.6 -.5 -1.3 -.9 -2 -1.2c0 -.3 0 -.7 -.2 -1c-.1 -.4 -.5 -.7 -.9 -.9c-.2 -.1 -.4 -.1 -.6 -.1c-.7 0 -1.2 .3 -1.5 .8c-.8 -.2 -1.6 -.3 -2.3 -.4c-.2 -.8 -.9 -1.4 -1.8 -1.4c-.8 0 -1.5 .6 -1.7 1.4c-.8 .1 -1.5 .2 -2.3 .4c-.3 -.5 -.9 -.8 -1.5 -.8c-.2 0 -.4 0 -.6 .1c-.4 .2 -.8 .5 -1 .9c-.1 .3 -.2 .7 -.1 1c-.8 .4 -1.5 .8 -2.1 1.3c-.3 -.3 -.7 -.4 -1.1 -.4c-.4 0 -.8 .1 -1.2 .4c-.3 .3 -.5 .7 -.6 1.2c0 .4 .1 .7 .2 1c-.4 .5 -.8 1 -1.2 1.5c-.2 0 -.4 -.1 -.6 -.1c-.6 0 -1.2 .3 -1.5 .9c-.2 .4 -.3 .9 -.2 1.3c.1 .3 .3 .6 .5 .9c-.3 .8 -.6 1.6 -.9 2.4c-.8 .1 -1.5 .7 -1.6 1.5c-.1 .5 0 .9 .3 1.3c.2 .3 .4 .5 .8 .6c-.1 .4 -.1 .7 -.1 1c0 .5 0 .9 .1 1.3c-.3 .2 -.6 .4 -.8 .7c-.3 .3 -.4 .8 -.3 1.3c.2 .8 .9 1.4 1.7 1.4c.2 .8 .5 1.5 .8 2.2c-.6 .6 -.7 1.5 -.3 2.2c.3 .6 .9 .9 1.5 .9c.2 0 .4 0 .6 -.1m-1.1 -5.9c.3 -.4 .4 -.9 .3 -1.4c-.2 -.7 -.8 -1.3 -1.6 -1.4c0 -.4 0 -.8 0 -1.2c0 -.3 0 -.6 0 -.9c.8 -.1 1.4 -.6 1.5 -1.4c.2 -.8 -.2 -1.5 -.9 -1.9c.2 -.8 .5 -1.5 .8 -2.2c.1 0 .3 0 .4 0c.6 0 1.2 -.3 1.5 -.8c.4 -.7 .3 -1.6 -.2 -2.1c.4 -.5 .7 -.9 1.1 -1.4c.3 .2 .6 .3 1 .3c.4 0 .8 -.1 1.1 -.4c.6 -.5 .8 -1.4 .5 -2.1c.6 -.4 1.3 -.8 1.9 -1.1c.4 .4 .9 .7 1.4 .7c.2 0 .4 0 .6 -.1c.8 -.3 1.2 -1 1.2 -1.7c.7 -.2 1.4 -.3 2.1 -.4c.2 .7 .8 1.2 1.6 1.2c.8 0 1.5 -.5 1.7 -1.2c.7 .1 1.4 .2 2.1 .4c0 .2 0 .5 .2 .8c.2 .4 .5 .7 1 .9c.1 .1 .3 .1 .6 .1c.5 0 1 -.3 1.4 -.7c.6 .3 1.2 .7 1.8 1.1c-.3 .7 -.2 1.5 .4 2c.4 .3 .8 .4 1.2 .4c.3 0 .6 -.1 .9 -.3c.5 .5 .9 1 1.3 1.5c-.6 .5 -.7 1.4 -.3 2c.4 .6 .9 .9 1.6 .9c.1 0 .2 0 .4 -.1c.3 .7 .5 1.4 .7 2.1c-.2 .1 -.4 .3 -.6 .5c-.3 .4 -.4 .9 -.3 1.3c.1 .8 .8 1.4 1.5 1.5c.1 .4 .1 .7 .1 1.1c0 .3 0 .6 0 .9c-.8 .1 -1.4 .7 -1.6 1.5c0 .5 .1 .9 .4 1.3c.1 .2 .3 .4 .6 .6c-.2 .7 -.5 1.5 -.8 2.2c-.2 0 -.3 -.1 -.4 -.1c-.6 0 -1.2 .4 -1.5 .9c-.4 .7 -.3 1.5 .2 2.1c-.4 .5 -.8 .9 -1.2 1.3c-.2 -.1 -.6 -.2 -.9 -.2c-.4 0 -.8 .1 -1.1 .4c-.6 .5 -.8 1.3 -.5 2c-.6 .5 -1.3 .8 -1.9 1.2c-.4 -.5 -.9 -.7 -1.4 -.7c-.3 0 -.5 0 -.6 .1c-.8 .3 -1.2 1 -1.2 1.7c-.7 .2 -1.4 .3 -2.1 .4c-.2 -.7 -.9 -1.3 -1.7 -1.3c-.8 0 -1.4 .6 -1.6 1.3c-.7 -.1 -1.4 -.2 -2.1 -.4c0 -.3 -.1 -.5 -.2 -.8c-.2 -.4 -.5 -.8 -1 -.9c-.2 -.1 -.4 -.1 -.6 -.1c-.5 0 -1 .2 -1.4 .7c-.6 -.3 -1.2 -.7 -1.8 -1.1c.3 -.7 .1 -1.5 -.5 -2c-.3 -.3 -.7 -.4 -1.1 -.4c-.3 0 -.7 .1 -.9 .3c-.5 -.5 -.9 -1 -1.3 -1.5c.5 -.5 .6 -1.4 .2 -2.1c-.3 -.5 -.9 -.8 -1.5 -.8c-.1 0 -.3 0 -.4 0c-.3 -.6 -.5 -1.3 -.7 -2c.2 -.1 .4 -.3 .6 -.5Z" class="g3_208"/>
<path d="M318.9 881.5c.3 2 1.1 3.9 2.3 5.5c-.2 .3 -.3 .7 -.3 1.1c0 .4 .1 .9 .5 1.2c.3 .3 .8 .5 1.2 .5c.4 0 .8 -.1 1.1 -.3c1.6 1.1 3.5 1.9 5.5 2.2c.1 .9 .8 1.5 1.7 1.5c.9 0 1.7 -.6 1.8 -1.5c2 -.3 3.9 -1.1 5.5 -2.3c.3 .3 .7 .4 1.1 .4c.5 0 .9 -.2 1.2 -.5c.4 -.3 .6 -.8 .6 -1.3c0 -.4 -.2 -.7 -.4 -1c1.2 -1.7 2 -3.6 2.3 -5.7c.4 -.1 .8 -.3 1 -.5c.4 -.4 .5 -.8 .5 -1.3c0 -.9 -.6 -1.6 -1.5 -1.7c-.3 -2.1 -1.1 -3.9 -2.3 -5.5c.2 -.3 .3 -.7 .3 -1.1c0 -.5 -.2 -.9 -.5 -1.2c-.3 -.4 -.8 -.5 -1.2 -.5c-.4 0 -.8 .1 -1.1 .3c-1.6 -1.1 -3.5 -1.9 -5.5 -2.2c-.1 -.9 -.9 -1.6 -1.8 -1.6c-.9 0 -1.6 .7 -1.7 1.6c-2.1 .3 -3.9 1.1 -5.5 2.3c-.3 -.3 -.7 -.4 -1.1 -.4c-.5 0 -.9 .2 -1.3 .5c-.6 .6 -.6 1.6 -.1 2.3c-1.2 1.6 -2.1 3.6 -2.3 5.7c-.9 .1 -1.6 .9 -1.6 1.8c0 .9 .7 1.6 1.6 1.7m3.7 -8.5c.5 0 .9 -.2 1.2 -.5c.6 -.6 .7 -1.4 .3 -2.1c1.5 -1.1 3.2 -1.9 5.1 -2.1c.3 .7 .9 1.3 1.7 1.3c.8 0 1.5 -.6 1.7 -1.3c1.9 .2 3.7 1 5.1 2.1c-.1 .2 -.2 .5 -.2 .8c0 .5 .2 .9 .5 1.3c.4 .3 .8 .5 1.3 .5c.3 0 .6 -.1 .8 -.3c1.1 1.5 1.9 3.2 2.2 5.1c-.3 .1 -.6 .3 -.8 .5c-.3 .3 -.5 .8 -.5 1.2c0 .8 .6 1.5 1.3 1.7c-.2 2 -1 3.8 -2.1 5.3c-.3 -.1 -.6 -.2 -.9 -.2c-.5 0 -.9 .2 -1.2 .5c-.4 .3 -.6 .8 -.6 1.2c0 .3 .1 .6 .3 .9c-1.5 1.1 -3.3 1.8 -5.2 2.1c-.2 -.7 -.9 -1.3 -1.7 -1.3c-.8 0 -1.4 .6 -1.7 1.3c-1.8 -.3 -3.6 -1 -5 -2.1c.1 -.2 .2 -.5 .2 -.8c0 -.5 -.2 -1 -.5 -1.3c-.4 -.3 -.8 -.5 -1.3 -.5c-.3 0 -.6 .1 -.9 .2c-1.1 -1.4 -1.8 -3.2 -2.1 -5.1c.3 0 .5 -.2 .8 -.4c.3 -.3 .5 -.8 .5 -1.3c-.1 -.8 -.6 -1.4 -1.4 -1.6c.3 -2 1.1 -3.8 2.2 -5.3c.3 .1 .6 .2 .9 .2Z" class="g3_208"/>
<path d="M352.6 882c-.1 -.2 -.4 -.4 -.7 -.6c.1 -.6 .1 -1.2 .1 -1.8c0 -.7 0 -1.4 -.1 -2.1c.3 -.1 .5 -.3 .7 -.6c.3 -.4 .4 -.8 .3 -1.3c-.2 -.8 -.8 -1.4 -1.6 -1.4c-.4 -1.4 -.9 -2.6 -1.4 -3.8c.2 -.2 .3 -.5 .4 -.8c.1 -.5 .1 -.9 -.2 -1.3c-.3 -.6 -.9 -.9 -1.5 -.9c-.2 0 -.3 0 -.5 .1c-.7 -1 -1.5 -2 -2.3 -2.8c.3 -.7 .1 -1.6 -.5 -2.1c-.3 -.3 -.7 -.4 -1.1 -.4c-.4 0 -.8 .1 -1 .3c-1.1 -.8 -2.3 -1.4 -3.5 -2c.1 -.3 0 -.6 -.1 -.9c-.2 -.4 -.6 -.7 -1 -.9c-.2 -.1 -.4 -.1 -.6 -.1c-.6 0 -1.1 .3 -1.4 .7c-1.3 -.3 -2.6 -.6 -4 -.7c-.2 -.7 -.8 -1.3 -1.7 -1.3c-.8 0 -1.5 .6 -1.7 1.3c-1.3 .1 -2.6 .4 -3.9 .7c-.3 -.4 -.8 -.7 -1.4 -.7c-.2 0 -.4 0 -.6 .1c-.8 .3 -1.2 1 -1.2 1.8c-1.2 .6 -2.4 1.3 -3.5 2.1c-.3 -.2 -.7 -.3 -1 -.3c-.5 0 -.9 .1 -1.2 .4c-.3 .3 -.6 .7 -.6 1.2c0 .3 0 .6 .2 .9c-.8 .8 -1.6 1.7 -2.3 2.7c-.1 0 -.3 -.1 -.4 -.1c-.7 0 -1.3 .4 -1.6 .9c-.2 .4 -.3 .9 -.2 1.3c.1 .3 .3 .6 .5 .8c-.6 1.3 -1.1 2.7 -1.5 4.1c-.8 .1 -1.4 .7 -1.6 1.5c0 .4 .1 .9 .3 1.3c.2 .2 .5 .4 .7 .6c0 .5 0 1.1 0 1.7c0 .8 0 1.5 .1 2.2c-.3 .1 -.5 .3 -.7 .6c-.3 .4 -.4 .8 -.3 1.3c.2 .8 .8 1.4 1.6 1.4c.4 1.3 .8 2.6 1.4 3.8c-.2 .2 -.4 .5 -.4 .8c-.1 .4 -.1 .9 .2 1.3c.3 .6 .9 .9 1.5 .9c.1 0 .3 0 .5 -.1c.7 1 1.5 2 2.3 2.8c-.1 .3 -.2 .6 -.1 .9c0 .5 .2 .9 .6 1.2c.3 .3 .7 .4 1.1 .4c.4 0 .7 -.1 1 -.3c1.1 .8 2.2 1.4 3.4 2c0 .8 .4 1.5 1.2 1.8c.2 .1 .4 .1 .6 .1c.6 0 1.1 -.3 1.4 -.8c1.3 .4 2.6 .6 3.9 .7c.2 .8 .9 1.3 1.7 1.3c.9 0 1.5 -.5 1.7 -1.3c1.4 -.1 2.7 -.3 4 -.7c.3 .5 .8 .8 1.4 .8c.2 0 .4 0 .6 -.1c.4 -.2 .8 -.5 1 -.9c.1 -.3 .2 -.6 .1 -.9c1.3 -.6 2.5 -1.3 3.6 -2.1c.3 .2 .7 .3 1 .3c.4 0 .8 -.2 1.2 -.4c.3 -.3 .5 -.8 .6 -1.2c0 -.3 -.1 -.7 -.2 -.9c.8 -.9 1.6 -1.8 2.3 -2.7c.1 0 .3 0 .4 0c.7 0 1.2 -.3 1.5 -.8c.3 -.4 .3 -.9 .2 -1.3c0 -.4 -.2 -.6 -.4 -.8c.6 -1.3 1.1 -2.7 1.5 -4.1c.8 -.1 1.4 -.7 1.5 -1.5c.1 -.4 0 -.9 -.3 -1.3m-38 9.2c.5 -.5 .6 -1.3 .2 -2c-.3 -.5 -.9 -.8 -1.5 -.8c-.1 0 -.2 0 -.4 0c-.5 -1.1 -.9 -2.3 -1.3 -3.5c.2 -.1 .4 -.3 .6 -.5c.3 -.4 .4 -.9 .3 -1.3c-.2 -.8 -.8 -1.3 -1.5 -1.5c0 -.6 -.1 -1.3 -.1 -2c0 -.5 0 -1.1 .1 -1.6c.7 -.1 1.3 -.7 1.4 -1.5c.1 -.4 0 -.9 -.3 -1.3c-.1 -.2 -.3 -.4 -.6 -.5c.4 -1.3 .8 -2.6 1.4 -3.8c.1 0 .2 .1 .3 .1c.7 0 1.2 -.4 1.6 -.9c.4 -.7 .3 -1.5 -.2 -2c.6 -.9 1.3 -1.7 2.1 -2.5c.3 .1 .6 .2 .9 .2c.4 0 .8 -.1 1.1 -.4c.4 -.3 .6 -.8 .6 -1.2c0 -.3 0 -.5 -.1 -.8c1 -.7 2.2 -1.4 3.3 -1.9c.4 .4 .9 .6 1.4 .6c.2 0 .4 0 .6 -.1c.4 -.2 .8 -.5 1 -.9c.1 -.3 .1 -.5 .1 -.8c1.2 -.3 2.4 -.5 3.7 -.6c.2 .7 .9 1.2 1.6 1.2c.8 0 1.4 -.5 1.7 -1.2c1.2 .1 2.5 .3 3.6 .6c0 .3 .1 .5 .2 .8c.2 .4 .5 .7 1 .9c.2 .1 .4 .1 .6 .1c.5 0 1 -.2 1.3 -.6c1.2 .5 2.2 1.1 3.2 1.8c-.1 .3 -.1 .5 -.1 .8c.1 .4 .3 .9 .6 1.2c.3 .2 .8 .4 1.2 .4c.3 0 .6 -.1 .8 -.3c.8 .8 1.6 1.7 2.2 2.6c-.1 .2 -.2 .5 -.3 .7c-.1 .5 0 .9 .2 1.4c.3 .5 .9 .8 1.5 .8c.1 0 .2 0 .3 0c.6 1.1 1 2.3 1.4 3.5c-.7 .4 -1 1.1 -.9 1.8c.2 .8 .7 1.3 1.5 1.4c0 .7 .1 1.4 .1 2c0 .6 -.1 1.2 -.1 1.7c-.7 .1 -1.3 .7 -1.4 1.4c-.2 .8 .2 1.5 .8 1.9c-.3 1.3 -.8 2.6 -1.3 3.8c-.1 -.1 -.3 -.1 -.4 -.1c-.6 0 -1.2 .4 -1.5 .9c-.4 .6 -.3 1.4 .2 2c-.7 .9 -1.4 1.7 -2.1 2.5c-.3 -.1 -.6 -.2 -.9 -.2c-.4 0 -.8 .1 -1.1 .4c-.6 .5 -.8 1.3 -.5 2c-1.1 .7 -2.2 1.4 -3.4 1.9c-.3 -.4 -.8 -.6 -1.3 -.6c-.2 0 -.4 0 -.6 .1c-.7 .2 -1.2 .9 -1.2 1.7c-1.1 .3 -2.4 .5 -3.6 .6c-.3 -.7 -.9 -1.2 -1.7 -1.2c-.7 0 -1.4 .5 -1.6 1.2c-1.3 -.1 -2.5 -.3 -3.7 -.6c0 -.3 0 -.6 -.1 -.8c-.2 -.4 -.6 -.8 -1 -.9c-.2 -.1 -.4 -.1 -.6 -.1c-.5 0 -1 .2 -1.4 .6c-1.1 -.5 -2.1 -1.1 -3.1 -1.8c.1 -.3 .1 -.5 .1 -.8c-.1 -.5 -.3 -.9 -.7 -1.2c-.3 -.2 -.7 -.4 -1.1 -.4c-.3 0 -.6 .1 -.9 .2c-.8 -.8 -1.5 -1.6 -2.2 -2.6Z" class="g3_208"/>
</svg>