<?xml version="1.0" encoding="UTF-8" standalone="no"?>
<!DOCTYPE svg PUBLIC "-//W3C//DTD SVG 1.1//EN"
"http://www.w3.org/Graphics/SVG/1.1/DTD/svg11.dtd">
<svg viewBox="0 0 660 990" version="1.1" xmlns="http://www.w3.org/2000/svg" xmlns:xlink="http://www.w3.org/1999/xlink">
<defs>
<style type="text/css"><![CDATA[
.g0_66{
fill: none;
stroke: #949698;
stroke-width: 0.763;
}
.g1_66{
fill: #FFF;
}
.g2_66{
fill: none;
stroke: #231F20;
stroke-width: 2.979;
}
.g3_66{
fill: #231F20;
}
.g4_66{
fill: none;
stroke: #231F20;
stroke-width: 1.986;
}
]]></style>
</defs>
<path d="M318.5 969.1h23" class="g0_66"/>
<path d="M213.7 438.2H470V618.7H213.7V438.2Z" class="g1_66"/>
<path d="M213.7 438.2H470V618.7H213.7Zm128.2 0V618.7" class="g2_66"/>
<path d="M440.3 383.2H239.6V166.1H440.3V383.2Z" class="g1_66"/>
<path d="M440.3 383.2H239.6V166.1H440.3ZM239.6 274.6H440.2" class="g2_66"/>
<path d="M276.6 265.4c0 .2 .3 .2 .1 .2c-.1 -.1 -.2 -.2 -.1 -.2Z" class="g3_66"/>
<path d="M277 249.9c.6 -.8 .9 .3 1.5 -.2c.1 0 -.1 .5 .1 .4c.6 -.6 1.2 0 1.6 .7l-.1 .1c.1 .1 .3 -.3 .4 -.2c0 .1 -.1 .1 -.1 .3c.1 -.3 .3 -.1 .3 -.3c.1 .1 0 .3 0 .5l.2 -.3c.3 -.7 .4 .1 .7 -.2c0 .1 -.1 .1 -.1 .2c.5 -.4 1 -.2 1.4 -.2c0 .1 -.1 .3 -.1 .4c.1 -.3 .3 -.4 .4 -.4c0 .3 .3 -.3 .4 0h-.1c.2 -.3 .1 .3 .3 -.1v.2c.2 -.4 .1 .3 .2 .1v-.1c.2 -.1 .1 .2 .2 .1v.1c.2 -.1 .2 .2 .3 -.2c0 .3 -.2 .1 -.2 .5c.7 -.2 1.2 0 1.8 .1c0 .2 0 .3 0 .4c.1 -.1 .2 0 .3 -.2c0 0 0 .2 0 .2c.1 .2 .2 -.4 .3 -.2c-.1 .1 -.1 .2 -.1 .4c.1 -.3 .2 -.2 .4 -.3q-.1 .1 -.1 .2c.2 -.3 .2 .2 .3 0l-.1 .2c.2 .3 .2 -.4 .3 -.3c0 .1 0 .2 -.1 .3c.3 -.4 .5 -.2 .6 -.3c0 0 0 .1 0 .1c.2 0 .3 .1 .5 0c0 .1 -.2 .5 0 .5c.1 -.4 .3 -.1 .4 -.6c.1 .1 .2 .3 .4 .2c-.1 .1 -.1 .5 -.2 .5v.3c0 .2 -.1 -.1 -.1 .1c.1 0 .3 -.1 .3 0c.2 -.2 .4 -.7 .6 -.7c-.1 .1 -.1 .5 -.2 .5l.5 -.7c0 0 -.1 .3 0 .2c0 -.1 .1 -.2 .1 -.3c0 .1 .3 0 .2 .4c0 .2 -.1 .1 -.1 .3c.1 0 .2 -.2 .3 -.1c0 .1 .2 -.1 .2 -.4c-.1 0 -.1 .3 -.1 .2c.1 -.3 .3 -.3 .4 -.3c-.1 .1 -.1 .2 -.2 .3c.3 -.3 .4 -.4 .6 -.5c.1 -.2 -.1 .4 -.1 .3c.1 .3 .5 -.3 .6 .1c-.1 0 0 -.3 0 -.2c.1 0 0 .3 .1 .2c0 .2 .1 0 .2 0c0 -.2 0 .1 -.1 .1c.1 -.1 .3 -.2 .4 -.2l2.2 .1l-1.7 2.1c0 .1 -.1 .1 -.3 .1c.1 .1 .2 .4 .2 .4l-.2 -.2c-.1 -.1 -.1 .1 -.3 -.1c.2 .4 .2 -.4 .2 -.2c-.1 -.1 .2 .5 -.1 .2c0 .1 .1 .4 -.1 .2c0 .1 -.2 -.3 -.3 -.2c0 .1 .1 .1 .1 .2v.2c.1 .2 -.1 0 .1 .2c-.2 -.2 -.1 .2 -.4 -.1l-.2 -.3c0 .1 .2 .4 .2 .5c0 0 0 -.1 -.1 -.1c.4 .4 -.1 .1 .1 .4c-.2 0 -.3 .2 -.5 0c0 .2 .1 .4 -.1 .4q0 -.1 -.1 -.2c-.1 -.1 0 0 0 .1c-.1 0 -.3 -.1 -.5 -.2c0 .2 .2 .4 .3 .5c-.4 -.3 0 .5 -.4 .2c0 -.1 0 -.3 -.2 -.4c-.4 -.3 .1 .4 -.1 .3l.3 .3c-.3 -.1 0 .4 -.3 0c.1 .2 -.2 0 .1 .3c-.5 -.1 -.3 .6 -.9 .1c0 0 -.1 0 0 .2c.2 .1 0 -.2 .1 -.1c0 .1 0 .2 .1 .2c-.1 0 -.2 0 -.4 -.3c-.3 -.1 .4 .6 .1 .6c-.1 -.1 -.2 -.1 -.2 -.1l.1 .3c-.1 0 -.3 -.2 -.5 -.5c0 .1 -.1 .2 0 .4l-.3 -.3c.2 .2 .1 .2 .1 .3v-.1c-.1 -.1 -.1 0 -.1 .1c.1 .1 .2 .1 .3 .1q0 .2 0 .3c-.1 -.2 -.2 -.1 -.3 -.1c0 0 .2 .3 .1 .3c-.1 -.1 -.1 0 -.2 -.2c0 0 .2 .1 .1 0c-.1 -.1 -.3 -.3 -.2 -.1c0 .2 .4 .5 .2 .4c-.1 -.1 -.1 -.2 -.2 -.3h-.2l.2 .2c-.1 0 -.1 -.1 -.1 -.1c.2 .3 -.1 .2 .1 .5c0 0 -.2 -.1 -.3 -.1c-.1 -.1 -.1 .1 -.1 .2c0 0 -.1 .1 0 .2c-.2 -.1 -.7 -.7 -.6 -.4c0 .1 .2 .5 .4 .6c-.3 0 -.2 .4 -.6 .2c.1 .1 .2 .1 .1 .2c-.2 .1 -.2 .6 -.7 .4c0 -.2 -.1 -.3 -.2 -.4c.1 .2 -.2 -.1 0 .2c.2 .2 .2 .3 .3 .3c0 .2 -.2 .4 -.4 .2c.1 .1 .1 .2 .2 .3c-.3 -.3 -.4 -.3 -.4 -.2l.2 .2l-.2 -.1c0 .1 .2 .4 0 .3c0 -.1 -.1 -.2 -.1 -.2c0 .2 .1 .5 -.1 .4l-.3 -.2c0 .1 .1 .3 .2 .3c-.2 0 -.3 0 -.6 -.2c.3 .7 0 1 -.3 1.2l-.1 -.1c-.2 -.1 .1 .2 0 .2c-.1 -.2 -.3 -.3 -.3 -.5c-.3 0 0 .4 0 .5c.2 .2 0 -.2 .1 .1c.1 0 -.2 -.1 0 .2c-.1 -.1 -.3 -.3 -.3 -.4v.2c-.3 -.3 -.3 -.7 -.7 -1v.1c-.3 -.3 -.1 -.5 -.3 -.5c0 .2 .3 .6 .4 .7c0 .2 .5 .7 .4 .8c-.2 -.1 0 -.1 -.2 -.3c-.2 -.2 0 .2 -.1 .2c.1 0 .3 .3 .3 .4c-.2 -.1 -.2 -.3 -.3 -.2c.1 .1 .1 .3 .3 .4c.3 .4 -.2 0 0 .3c-.2 -.2 -.4 -.7 -.6 -.7c.2 .2 .1 .4 .5 .7c-.1 0 -.3 -.2 -.4 -.4c-.1 -.1 .3 .6 -.2 .1l.2 .3l-.3 -.2c0 0 .1 .5 -.2 .1c0 0 -.1 .1 .2 .3c.2 .1 -.1 -.2 .2 .1c-.3 -.2 -.1 .1 0 .2l-.1 -.1c0 .1 -.1 .1 0 .3c0 -.1 -.1 -.2 -.2 -.2l.2 .2c0 .2 -.4 -.4 -.4 -.2l-.1 -.2c0 0 -.2 -.2 -.2 -.1l.4 .7c.1 .1 -.2 -.2 0 0l-.2 -.3c0 0 -.3 -.2 -.4 -.2c0 .1 .2 .5 .4 .5c-.1 .1 -.2 0 -.3 -.2c0 .2 .2 .2 .2 .4c-.1 -.1 -.4 -.2 -.6 -.4l-.2 -.4v.1c-.2 -.3 -.2 -.2 -.4 -.5c-.1 0 -.1 .1 0 .2c.4 .4 .3 .7 .7 1.1c0 .2 -.9 -.9 -.5 -.1c.1 0 .3 .4 .3 .2c-.2 0 .2 .5 0 .4c-.1 -.2 -.4 -.4 -.5 -.7c.1 .2 .1 .1 .1 0c-.1 -.1 -.3 -.4 -.4 -.3c0 .1 -.1 .1 .1 .3c.2 .3 .1 -.1 .2 .2c0 .2 -.3 -.2 0 .3c0 -.1 .2 .1 .3 .3v.1l-.1 -.1c-.2 0 .2 .3 .1 .3l-.3 -.2c-.2 -.3 .2 0 -.1 -.5c-.1 .1 0 .3 -.2 .3q0 -.1 0 -.1c0 0 -.5 -.6 -.4 -.1c.1 .1 .2 .1 .3 .3c-.1 .1 0 .3 -.1 .4c-.2 -.3 -.1 .1 -.3 -.3c.2 .2 .4 0 .2 -.3c-.4 -.4 .1 -.1 -.2 -.5c-.1 .1 -.4 -.3 -.6 -.5c0 0 0 .1 0 .2q.2 .2 .4 .4c-.1 .1 -.2 .3 0 .6c-.2 -.1 -.3 -.4 -.3 -.4c-.1 .2 -.3 .3 -.5 .3c.4 .3 0 .2 .3 .5c.1 0 .4 .2 .5 .4c-.1 0 -.1 -.2 -.2 -.2c.1 .2 -.4 -.3 -.2 .1c0 -.2 -.3 -.5 -.5 -.8c0 .2 -.2 -.2 -.3 -.1c0 .2 0 .4 0 .6c-.4 -.2 -.3 .2 -.5 .3c-.1 0 -.4 -.4 -.5 -.4c0 .1 .4 .3 .1 .2c0 .1 -.4 -.1 0 .4l-.3 -.4c0 0 0 .1 0 .2c-.1 -.2 -.2 -.2 -.2 -.3c-.3 -.2 -.1 .1 -.2 .2l.2 .2c0 .2 -.2 .1 -.3 .3l-.2 -.2l.1 .1c-.2 -.2 -.4 -.2 -.3 0l-.2 -.7c.2 .1 .2 .3 .4 .5c.1 .1 .2 0 .1 -.2q-.1 0 0 .1c-.3 -.2 -.2 -.3 -.3 -.5c0 0 -.1 0 -.1 .1c0 -.2 0 -.3 .1 -.3c0 .1 .1 .1 .2 .2c-.2 -.3 -.2 -.4 -.1 -.4c.3 .2 .1 -.3 .2 -.3c.2 .2 .3 .5 .3 .7c.2 0 .1 -.1 .3 0c-.1 -.3 -.4 -.6 -.4 -.8l.2 .2c0 -.1 -.2 -.4 -.1 -.4c.3 -.1 .4 -.3 .6 -.3l.2 .1c-.3 -.4 .1 -.3 0 -.6c.4 .1 .3 -.5 .6 -.2c.2 -.4 .4 -.8 .7 -1l.2 .4c-.1 -.3 .2 .1 .2 0c-.3 -.2 -.2 -.3 -.3 -.5c.4 .1 .3 -.3 .3 -.6l.2 .2c-.2 -.5 .2 -.3 .4 -.4c.1 .1 .3 .2 .3 .2c-.2 -.4 -.1 -.4 -.1 -.7c.1 -.1 .3 -.1 .4 -.1c0 -.7 .6 -.7 .8 -1.2l.2 .1c-.1 -.7 .7 -.6 .8 -1.1l.3 .4c.2 0 .1 -.3 -.1 -.5c.1 0 0 -.4 .4 -.1c.1 -.1 -.1 -.3 0 -.4c.3 0 .3 -.1 .4 -.3c0 .1 .1 .2 .2 .2c0 -.1 .3 -.1 -.1 -.5c.4 .1 .3 -.6 .8 -.4c-.2 -.1 -.1 -.1 -.2 -.2c.2 -.2 .6 -.1 .5 -.4c.1 .1 .1 .3 .2 .2c0 -.1 -.1 -.1 -.1 -.3c.1 -.4 .7 -.2 .9 -.4c.3 -.6 .8 -.9 1.2 -1.3l.1 .1c-.2 -.4 .6 .1 .3 -.5c.1 0 .1 -.1 .3 .1c-.1 -.3 .5 0 .4 -.5q0 .1 0 .1c.3 .1 .2 -.3 .5 -.3c.1 .1 0 .1 .1 .2c.2 .2 -.1 -.5 .3 -.1c0 0 -.2 -.2 -.2 -.2c.5 -.1 .7 -.7 1 -1.1c.5 0 .6 .7 .6 .2c0 0 -.2 -.2 -.1 -.1c0 -.2 .5 .4 .4 .1c-.2 -.2 -.1 -.2 -.1 -.3l.6 2.7c0 0 -.1 0 -.1 .1c-.1 -.3 -.1 -.6 -.3 -.4v-.1c-.3 .4 -.5 .1 -.8 .6c-1.1 -.2 -2.2 -.1 -3.3 -.3c-1.1 -.4 -2.2 -.4 -3.2 -1q-.1 -.5 -.5 -.4c.1 0 .1 -.1 .1 -.1c-.1 .3 -.2 0 -.3 .3c-.4 -.2 -.8 -.1 -1.2 -.2c.1 -.1 .2 -.4 .1 -.4l-.2 .3l.1 -.2c-.1 .1 -.2 .3 -.2 .4c-1.1 .1 -1.9 -1 -3 -1.1c-.2 -.2 -.5 -.2 -.8 -.2c-.7 -.7 -1.3 -1.2 -2.1 -1.1c0 0 .3 -.9 .7 -1.1Z" class="g3_66"/>
<path d="M276.7 265.3c.2 .1 .3 .1 .4 .4c-.1 -.1 -.3 -.3 -.4 -.4Z" class="g3_66"/>
<path d="M279.9 265.3c0 -.1 .1 0 .1 0c0 .1 .1 .2 0 .1c0 0 0 -.1 -.1 -.1Z" class="g3_66"/>
<path d="M280.5 265c.1 .1 .1 .3 0 .4Z" class="g3_66"/>
<path d="M281.4 265.1c.1 .1 .2 .2 .1 .2c-.1 0 -.1 -.1 -.1 -.2Z" class="g3_66"/>
<path d="M281.2 264.8c0 0 .1 0 .2 .1c-.1 -.1 -.1 .1 -.2 -.1Z" class="g3_66"/>
<path d="M282.5 264.4c0 -.1 0 -.2 .1 -.1c-.1 -.1 0 .3 -.1 .1Z" class="g3_66"/>
<path d="M282.8 263.8c.1 0 .1 .1 .1 .2Z" class="g3_66"/>
<path d="M290.7 256.4v.1l-.1 -.2Z" class="g3_66"/>
<path d="M291.2 251.7c-.1 .1 0 -.2 0 -.2c.1 0 -.1 .2 0 .2Z" class="g3_66"/>
<path d="M288.5 251.9v0l-.1 .3Z" class="g3_66"/>
<path d="M233.1 586.2c1.2 .9 -.1 -1 .9 .5c-.3 .1 -.7 0 -.9 -.5Z" class="g3_66"/>
<path d="M285.3 256.3c-2.1 1.4 -4.8 2 -7.5 2.7c-2.7 .6 -5.5 1.3 -7.8 2.7c-.6 .2 -.2 -1 -1.4 -.4c-4.4 3 -12 5.1 -18 6.9l.2 -.4c-1.1 .3 -2 1.8 -3.2 2.3c-.1 -.2 .3 -.5 -.1 -.6c0 .7 -1.9 1.3 -2.1 1.9c-.6 .1 -.8 -.3 -1.4 -.2l-.4 .9c-.9 2.3 -4.2 2.3 -6.1 4.4c.1 -.2 .2 -.4 0 -.4c-3.2 3 -7.7 6 -11.3 9.2c0 -.2 -.1 -.7 -.5 -.7c.3 .7 -.8 1.7 -1.7 2.7c-.9 -.2 -1.3 1.9 -2.7 2.6v-.2c-.3 1.3 -1.5 .8 -1.6 2l-.9 .1c.4 1 -1.5 .7 -1.8 1.7l.2 .2c-.5 .7 -1.2 .7 -1.6 1.4h-.2c-1.1 1.5 -2.2 1.9 -1.7 2.4c-.9 .1 1.1 -1.5 -.3 -1.4c-3.7 5.1 -7.9 9.9 -11.4 15.1c-.7 .4 -1 .8 -1.3 .7c-.3 .6 -1.2 2.1 -1.2 2.8c.1 -.2 -.5 .1 -.7 .4c-.9 .8 0 1.5 -.9 2.4c.1 -.5 -.1 -.8 -.4 -.8c0 1.2 -.8 2.4 -1.3 3.6c0 -.2 .1 -.6 -.2 -.6c0 1.5 -1.3 2.1 -1.5 3.4l-.2 -.6c-1.3 1.5 .6 .9 -.5 2.3c.1 -.4 -.1 -.4 -.3 -.5c0 1.7 -1.3 3.9 -1.7 5.4c0 -.1 -.1 -.1 -.1 -.1c-.6 1.6 -1.5 3.2 -1.9 5c-.4 .6 -.9 -.6 -1.4 1.2c.8 .2 -.8 3 .5 2.3c-.6 1.4 -1.7 3.6 -1.7 4.7c-.1 -.8 -1.3 .4 -1 -.9l-.8 .8c-.3 -.2 .4 -.9 -.1 -.8c-.2 .7 -.4 2.6 -.7 3.1c.2 1.3 .8 2.6 .4 4.5c-.1 -1 -1.1 .2 -1.1 -.4l.9 3.1c-.1 .6 -.7 -.1 -.7 .9c.2 0 .2 .4 .4 .7c-.2 .2 -.5 2.7 -1.4 2.7c-.4 .2 .1 -1.1 -.4 -.4c-.3 1.1 -.1 1.2 -.3 2.4h-.2c-.3 .7 -.2 2.3 .5 1.6c.2 -.5 -.5 .1 -.1 -.6c.4 .6 .2 2 -.1 3.1c-.1 -.4 -.3 -.4 -.5 -.6c.3 1.7 .1 3.4 0 5.2c.4 .1 -.6 -.8 -.3 -1c-1.1 2 -.2 4.7 -1.4 6.4c0 -.3 .6 -.1 .5 -.1c-.3 1.1 -.9 .9 -.8 1.7c-.3 0 -.1 .9 -.1 1.6c.2 .4 -.2 .2 -.1 -.5c.1 1.1 -.1 5.2 -1 7.5c.2 0 .6 1.5 .5 2.1l-.5 -.3c-.4 .4 -.2 1.8 -.7 1.8c.5 1.2 .1 -4.5 .4 -2.9c-.5 .4 .5 2.3 -.2 1.9c-.1 1 .4 2.2 -.3 3.1c.1 -.2 -.6 -.9 -.7 -.1c-.1 1.6 .2 .5 .2 1.8l.1 .8c.5 .1 -.2 1.4 .4 .9c-.4 .1 0 2.2 -.8 2l-.7 -.3c0 .6 .6 1.1 .9 1.7c-.1 .1 -.3 .2 -.4 .2c1.1 .2 -.2 1.6 .5 2.5c-.5 1.3 -.4 3.5 -1.1 4.1c.2 1.1 .5 2.1 .2 3.3c-.1 -.2 -.1 -.6 -.3 -.7c-.4 .8 -.1 1 0 1.7c-.1 -.1 -.7 1.5 -1.1 2.4c.2 1.1 .8 .7 1.2 .8c-1.1 1 .5 3.1 -.5 4.3c-.1 -.4 -.5 -1.6 -.7 -.7c-1.1 .9 .6 2 .1 3.6l.9 -.4c-.6 .7 .4 2.3 -.5 2.1c.4 .6 -.3 1.9 .6 1.7c-.8 2.6 .4 6.3 -1.1 8c.2 .3 .1 1.3 .5 1.1c.4 -.7 -.4 -.9 -.1 -1.1c.1 .3 .3 .4 .4 .4c-.1 .8 -.2 1.4 -.9 .7c-.5 1.8 1.5 1.8 1.2 4.1c-.3 -.1 -.4 .1 -.4 .8l.7 1.2c-.1 1.5 -.8 .9 -1.3 .9c.1 .8 .1 1.8 .6 2.1l-.7 1c.5 -.7 .4 .7 .6 1l-.2 -.3c-.2 .1 0 1 .1 1.5c.4 -.2 .4 -1.1 .5 -1.6c.3 .4 .3 1 .6 1.5c-.6 -.1 -.3 1.3 -.3 2c-.1 .7 .6 .7 .6 .9c-.3 .1 .1 1.2 -.4 .7c-.1 -.3 .2 -.6 -.1 -1c-.2 .5 -.7 .5 -.2 1.4c.3 .8 1.1 -.2 .9 1.2c-.2 -.4 -.4 -.4 -.7 -.7l-.1 1.4h.5c-.1 .2 -.2 0 -.3 .1c.6 .4 .4 2 1.1 2.2c.1 .7 -.2 1.5 -.2 2.1l-.1 -.1c-.2 .8 .1 1.8 .6 2.4H178c0 .4 .2 1.4 .6 1.9c-.3 1.1 -2 .6 -1.1 1.7c.1 1.1 1.2 1.5 1.4 1c0 2 1.2 4.1 .7 6c.2 .2 .3 0 .6 .6c.3 2.8 1.7 5.8 1.2 8.2c-.4 -.7 -.6 .1 -.9 .2c.6 .5 -.3 .9 .6 .9c.4 -.1 .7 -.1 .7 -.9c.6 1.6 1.2 4.1 1 5.1c.1 -.5 .3 -.2 .5 .2c-.8 0 -.6 1.3 -.1 2.1h.5l-.3 .8c.2 .3 1 .1 .8 1.1c-.1 .1 -.3 .2 -.4 .4c.6 .9 1.6 2.1 1.5 3.2l-.4 1c.2 .4 .8 1.1 .8 .2c.1 1.9 .3 3.1 -.1 3.8c2.3 2.6 3.7 6.9 4.8 10.4H190c.1 1 .8 .3 .8 1c-.4 -.2 -.4 .9 -1.1 .3c.1 1.5 1.2 1.5 1.6 2.3c.5 0 -.5 -.6 .1 -.6c.2 .1 .3 2 1.1 1.9c-.2 .4 -.7 .4 -1.1 .3l.7 .7c-.4 1.2 -2.2 -1.8 -2.8 -.4l.4 .7c-.4 1 -1.5 -1.7 -1 .3c.6 .7 1.8 1 1.8 .2c.8 1.6 1.8 .2 2.5 2c-.2 .7 -.7 -1.4 -1.1 -.8c-.2 1 1 1.5 1.1 2.4c-.1 -1 .8 -.5 1.2 0c0 1 -.9 -.4 -.4 1c.4 0 1.2 1.1 1 0c1 .1 .3 1.4 1.3 1.8c-.5 .7 -1.9 -.7 -1.7 .8c.5 -.5 1.5 1.4 2.1 .3c0 .6 -.4 .9 -.9 .6c0 1 1.8 1.5 .8 2.2h.7c-.1 .4 -.1 .8 -.2 1.3c.3 .7 1.8 1.9 .9 2.2c.1 .2 .8 1.8 1.1 .9c0 -1.1 -.9 -.9 -.3 -1.8c-.4 1 .7 1.3 1.2 1.8l-.3 .2c.2 .3 .5 1.1 1 1.2c-.3 -.2 -.5 0 -.5 .3l.7 .1c.9 1.3 -.7 .8 0 2l-.8 -.8c.2 .2 -.1 .9 .4 1.4c.5 0 1.3 .2 1.8 .3c.5 .6 -.4 .5 .4 1l-1 -.6c-.2 -.1 -.4 1 0 1.9c.5 .6 1.7 1.2 1.4 .1c.3 .5 .3 1.3 -.2 1.1c.7 1 .4 -.4 1.2 .4c-.1 .6 .1 2 0 3l-1.3 -.6l.4 .6c-1.1 -.5 -.3 .7 -1.2 .5c.2 .6 .7 1 1.1 1.3c.3 -1.8 2.1 .8 2.9 -.1c1.2 1.7 -1.7 2.4 .8 3.4c0 -.4 1.2 .1 .3 -.9c.5 1.2 1.4 .3 1.7 1.8c-.9 -.8 -.4 1.5 -1.7 .4c.4 0 -.2 -.9 -.4 -1c-.1 .6 -1 .4 -.3 1.5c.4 .7 1 1.6 1.4 1.2c.5 -.3 -.7 -1 .1 -.9c1 1.3 .3 2 1.6 2c-.6 -.8 -.2 -1.3 .2 -1.5l.8 .9h-.5c.7 1.7 .9 .1 1.7 1.7l-.3 1.1c-.8 0 -1 -2.4 -1.8 -1.6c.5 1.1 1.2 1.1 1.5 2.2c-.2 -.2 -.4 -.4 -.6 -.6c.2 .4 -.9 1.5 .7 2.5c.8 .6 .5 0 .9 -.2c1 1.5 1.7 1.8 2.4 2.8c-.8 .2 1 1.8 -.4 1.1c.1 -.7 -1.4 -3 -2.4 -3.2c-.4 1.1 -.6 -1.3 -1.6 -1.2c.7 1.3 -.1 1.8 -.5 2.3c.1 .4 .6 .6 .8 .8c.6 -.2 .3 -.7 .8 -1c.7 1.5 1.9 2.7 2.8 3.2c.1 .7 -.5 .8 -.9 .3c1.2 1.6 2.3 3.4 3.2 5.1c.1 -1.5 1.4 1.7 1.6 .5c-.4 -.9 -.3 -2 .3 -1.8c.3 .6 -.3 .2 -.4 .6c.9 .3 0 1.5 1.2 1.7c-1.3 -1.4 -1.2 .3 -2 .5c1.1 .8 -.5 .2 .3 1.3c1 .9 2.2 2 3.2 3.1c.5 1.9 2.7 3.8 3.7 5.1c.2 .9 -.8 1 -.4 1.8c.7 .9 .3 -1.2 1 .3h-.3c.5 .3 1.4 2.7 2.6 2.4l-1 .1c.1 .3 .5 .4 .7 .5c-.2 .2 -.2 .7 -.7 .4c.2 1.2 1.4 1.6 2.1 2.4V577c1.5 1.1 1.9 2.4 3.2 3.7l-.4 .3l.9 .6c-.5 .1 -.1 1.1 .6 1.3l-2.9 -1.3c-.2 -.8 1.1 .2 1.2 -.5c0 -.6 -1.1 -1.8 -1.7 -1.7c.4 .6 .5 .5 .9 .8c-.4 .6 -1 -.2 -1.7 -.2c.3 .2 .4 .7 .6 .6c-.7 -.3 -1.2 -.7 -1.9 -1.6c.7 .4 .1 -.6 .5 -.5c-.6 .3 -1.4 -.4 -2.1 -1.5c-.1 -1.3 -2 -1.8 -2.8 -3.2c.9 .1 1.8 .5 2.6 1.1c-.3 -1 -.7 -.9 -1 -1.9c-.7 -.1 -1.5 .1 -2.5 -.7l.3 -.4c-.9 -.8 -1.5 -.4 -2.2 -1.7c-1.4 -2.2 -2.9 -4.3 -3.9 -6l.3 -.3c-1.5 -.4 -2.3 -2.8 -3.5 -3.8c-1 -2.4 -3.3 -4.4 -3.3 -5.9c-2.6 -3.6 -4.9 -6.7 -6.9 -10.8l.9 .3c-.8 -.5 .1 -.7 -.3 -1.3c-.1 1.1 -1.2 -.6 -1.9 -.9c-.4 -2.1 -2.2 -4.1 -3.4 -5.5l.4 -.3c-1.7 -1.3 -1.9 -3.6 -2.8 -5.7c.1 -.3 .3 -.9 0 -1.5c-1.2 -.8 -1.4 -1.4 -2.6 -2.8c-.6 -1.2 -1.3 -3.3 -1.5 -4.7c-3 -4.1 -4.2 -9.1 -6.6 -13.8l.4 -.5c-2.8 -4.4 -3.7 -10.7 -5.5 -14.6l1.1 .1c-.1 -1.4 -1.1 -2.9 -1.7 -2.3c0 -1.4 -1.3 -3.2 -.7 -4.2c-.2 -1.4 -.9 -1.6 -1.3 -2.6c-.3 -2.8 -.6 -3.8 -1.4 -6.3l.1 .6c.3 .3 .7 .2 .6 -.4c-.5 -.9 -.5 -3.6 -1.4 -2.4c0 -2.9 -1.9 -6.3 -1.4 -9.1c-.3 .2 -.5 -.4 -.7 -.7c-.5 -2.4 -.2 -5 -1 -6.9c.1 -.4 .6 .5 .5 -.5c-.2 -.5 -.4 .1 -.7 -.6c-1.1 -3.9 -.4 -8.1 -.8 -11.6c-1.2 -6.4 -1.2 -13.1 -1.4 -19.3l.2 .1c-.9 -2 .9 -4.8 -.4 -6.5c.2 -.5 .2 -1.8 .6 -1.5c-.6 -1.6 .7 -4.5 0 -6.9c0 .2 0 .3 .1 .6c.6 -2.4 .1 -4.5 .7 -7c.1 .2 .1 .7 .4 .8c.5 -.9 -.8 -2.4 .3 -2.8c.1 -.6 -.5 -.5 -.5 -.1c.9 -5.5 .8 -11.4 1.4 -17.1c1.3 -4 1.9 0 1.6 -3.3c.3 -.3 -.4 -.3 -.2 -.3c-.1 -1.3 1.6 -1.7 1.2 -2.7c-.8 .3 -.3 -.6 -.7 -.7c.9 -2.4 1.6 -2.8 1.4 -4.8l.4 .2c-.6 -2.5 .5 -5 -.3 -7.2c1.3 -6.3 2.7 -12.5 4.2 -18.5c.8 -3.1 1.6 -6.1 2.5 -9.1c1 -3.1 2 -6.1 3.3 -9.1c2.5 -5.8 5.4 -11.4 8.6 -16.8c3.3 -5.4 7.1 -10.6 11.6 -15.3c2.7 -1.7 2.8 -1.8 4.8 -4.5c0 .2 -.1 .4 .1 .3c-.4 -.6 1.6 -1.7 1.3 -2.4c3.5 -3.3 6.6 -6.4 10.4 -9.5c-.6 .6 -.5 1.3 .2 .7l.4 -1l.3 .1c.4 -.5 .7 -1.2 .1 -1c4.6 -4.1 9.8 -7.4 15.2 -10.2c5.3 -2.9 10.8 -5.3 16.2 -7.8c2.7 -.8 6.4 -2.6 9.2 -3.8c4.5 -1.1 8.7 -2 13 -2.9l6.4 -1.4l6.7 -1.6c-.1 .1 -1 2.2 -4.6 3.4Z" class="g3_66"/>
<path d="M231.9 584.9c0 -.5 -.5 -1.4 .4 -1.2c-.2 .4 -.1 1 -.4 1.2Z" class="g3_66"/>
<path d="M218.3 560.7c-.2 0 -.1 -.4 -.1 -.5c.2 .2 .6 .3 .6 .6c-.2 -.2 -.3 -.1 -.5 -.1Z" class="g3_66"/>
<path d="M214.6 554.7c.4 -.1 1.4 1 1.9 1.7Z" class="g3_66"/>
<path d="M212.5 548.4c-.1 -.6 .1 -.5 .5 .1c-.1 .2 -.3 0 -.5 -.1Z" class="g3_66"/>
<path d="M211.5 548.5c-.2 -.5 -.2 -.8 -.2 -1.2c-.2 .2 .8 1 .2 1.2Z" class="g3_66"/>
<path d="M205.6 535.7c-.2 -.3 -.8 -.8 -.6 -1.3c-.1 .5 1.2 1.3 .6 1.3Z" class="g3_66"/>
<path d="M202.2 530.1c-.1 -.2 -.1 -.3 -.3 -.5c0 -.4 .4 -.1 .6 .2Z" class="g3_66"/>
<path d="M176 415.2l.1 .7l-.3 -.1Z" class="g3_66"/>
<path d="M183 363.4c0 -.7 .4 -.4 .5 -.5c-.1 .7 -.4 -.3 -.5 .5Z" class="g3_66"/>
<path d="M189.4 335.8l-.1 .2l-.6 -.3Z" class="g3_66"/>
<path d="M240.2 586c0 3 -2.4 5.4 -5.5 5.4c-3 0 -5.4 -2.4 -5.4 -5.4c0 -3 2.4 -5.5 5.4 -5.5c3.1 0 5.5 2.5 5.5 5.5Z" class="g1_66"/>
<path d="M240.2 586c0 3 -2.4 5.4 -5.5 5.4c-3 0 -5.4 -2.4 -5.4 -5.4c0 -3 2.4 -5.5 5.4 -5.5c3.1 0 5.5 2.5 5.5 5.5Z" class="g4_66"/>
</svg>