<?xml version="1.0" encoding="UTF-8" standalone="no"?>
<!DOCTYPE svg PUBLIC "-//W3C//DTD SVG 1.1//EN"
"http://www.w3.org/Graphics/SVG/1.1/DTD/svg11.dtd">
<svg viewBox="0 0 660 990" version="1.1" xmlns="http://www.w3.org/2000/svg" xmlns:xlink="http://www.w3.org/1999/xlink">
<defs>
<clipPath id="c0_200"><path d="M229.4 436.2V393.6H434v42.6Z"/></clipPath>
<clipPath id="c1_200"><path d="M230.2 848.9V805.4h203v43.5Z"/></clipPath>
<clipPath id="c2_200"><path d="M50.8 947.1V40.4H619.1V947.1Z"/></clipPath>
<style type="text/css"><![CDATA[
.g0_200{
fill: #231F20;
}
.g1_200{
fill: none;
stroke: #231F20;
stroke-width: 1.527;
}
.g2_200{
fill: none;
stroke: #FFF;
stroke-width: 1.909;
stroke-miterlimit: 10;
}
.g3_200{
fill: none;
stroke: #000;
stroke-width: 0.381;
stroke-miterlimit: 10;
}
]]></style>
</defs>
<path d="M55.4 938.3h550V866H55.4v72.3Z" class="g0_200"/>
<path d="M56.1 937.6H604.6V40.8H56.1Z" class="g1_200"/>
<path d="M55.4 109.8h550v-69H55.4v69Z" class="g0_200"/>
<path d="M55.4 526.7h550V454.5H55.4v72.2Z" class="g0_200"/>
<path d="M374.1 435.7c-.2 -.1 -.4 0 -.4 0c-.4 .2 -.9 .2 -1.7 .2c-2.2 0 -3.9 -1.5 -3.9 -4c0 -2.2 1.7 -3.9 3.9 -3.9c.4 0 1 0 1.4 .1c0 0 .2 .1 .4 0l.4 1.1l-.1 .2c-.5 -.5 -1.3 -.7 -2.1 -.7c-1.7 0 -2.7 1.4 -2.7 3.2c0 1.9 1 3.3 2.7 3.3c1.1 0 1.8 -.4 2.3 -.8l.2 .1Z" class="g0_200"/>
<path d="M383.2 431.9c0 -1.7 -1 -3.1 -2.8 -3.1c-1.8 0 -2.9 1.4 -2.9 3.1c0 1.8 1.1 3.2 2.9 3.2c1.8 0 2.8 -1.4 2.8 -3.2m1.2 0c0 2.2 -1.5 4 -4 4c-2.5 0 -4 -1.8 -4 -4c0 -2.1 1.5 -3.9 4 -3.9c2.5 0 4 1.8 4 3.9Z" class="g0_200"/>
<path d="M388.1 432.5h2.1l-1 -2.8h-.1Zm2.4 .7h-2.7l-.6 1.9c-.1 .2 -.1 .3 0 .6v.1h-1.5v-.1c.4 -.4 .5 -.5 .5 -.7l2.5 -6.3l-.3 -.6l1.2 -.2l2.7 7.1c0 .2 .1 .3 .4 .7l-.1 .1h-1.5c.2 -.4 .2 -.5 .1 -.6Z" class="g0_200"/>
<path d="M400.1 435.7c-.3 -.1 -.4 0 -.4 0c-.5 .2 -1 .2 -1.7 .2c-2.3 0 -3.9 -1.5 -3.9 -4c0 -2.2 1.6 -3.9 3.9 -3.9c.4 0 1 0 1.4 .1c0 0 .2 .1 .4 0l.4 1.1l-.2 .2c-.4 -.5 -1.2 -.7 -2 -.7c-1.8 0 -2.8 1.4 -2.8 3.2c0 1.9 1 3.3 2.8 3.3c1.1 0 1.8 -.4 2.3 -.8l.2 .1Z" class="g0_200"/>
<path d="M409.7 435.8H408v-.1c.2 -.5 .3 -.6 .3 -.8v-2.6h-4.2v2.6c0 .2 0 .3 .3 .8v.1h-1.7v-.1c.2 -.5 .3 -.6 .3 -.8v-6c0 -.2 0 -.3 -.3 -.8h1.7c-.3 .5 -.3 .6 -.3 .8v2.7h4.2v-2.7c0 -.2 0 -.3 -.3 -.8h1.7c-.3 .5 -.3 .6 -.3 .8v6c0 .2 0 .3 .3 .8Z" class="g0_200"/>
<path d="M414.2 435.8h-1.7v-.1q.3 -.5 .3 -.8v-6c0 -.2 0 -.3 -.3 -.8h1.7c-.3 .5 -.3 .6 -.3 .8v6q0 .3 .3 .8Z" class="g0_200"/>
<path d="M423.9 435.8h-.5l-5.1 -5.9v4.9c0 .3 0 .4 .3 .9l-.1 .1H417v-.1c.3 -.5 .3 -.6 .3 -.9v-5.9l-.6 -.8h1.4l4.8 5.6h.1V429q0 -.3 -.3 -.8v-.1h1.5v.1q-.3 .5 -.3 .8Z" class="g0_200"/>
<path d="M432.5 433.9c0 -.4 -.2 -.6 -.3 -.7V433h1.5v.1l-.1 .4v1.6c-.9 .5 -1.8 .8 -2.8 .8c-2.4 0 -4.1 -1.5 -4.1 -4c0 -2.2 1.7 -3.9 4.1 -3.9c.4 0 1.1 0 1.5 .1c0 0 .1 0 .4 0l.5 1.3l-.3 .1c-.4 -.4 -1.3 -.8 -2.1 -.8c-1.7 0 -3 1.4 -3 3.2c0 1.8 1.3 3.3 3 3.3c.7 0 1.2 -.1 1.7 -.4Z" class="g0_200"/>
<path clip-path="url(#c0_200)" d="M331.9 410.5c1.8 -.8 13.9 -7.2 18.6 -16.6l-26.3 3.6c1.3 4.5 3 8.7 5.5 12.5c0 0 .6 1.3 2.2 .5Z" class="g0_200"/>
<path d="M326.5 411.4c-2.1 -4.2 -3.9 -8.7 -4.8 -13.5c0 0 -4.3 .9 -5 1c-.7 .2 -2.9 1.4 -2.4 3.4c.6 1.9 4 16.1 4.4 17c.5 .9 1.2 2.5 4.2 2.9c3 .5 14.1 1.7 14.1 1.7c-2.4 -2.2 -5.7 -5.4 -7.3 -7.3c-.9 -1 -2.5 -.9 -2.5 -.9c-2.5 .4 -3.9 .5 -6.4 .6l-.3 -1.2c1.8 -.5 3.7 -1.1 5.5 -1.8c0 0 1.2 -.4 .5 -1.9Z" class="g0_200"/>
<path d="M334.8 414.2c7.4 -2.9 14.1 -7.2 19.7 -12.7l1.2 22.2c.2 2.5 -1.7 2.6 -2.7 2.6c-.9 0 -5.7 -.6 -7.1 -.8c-1.4 -.3 -8.3 -6 -11.6 -9.9c0 0 -.6 -.9 .5 -1.4Z" class="g0_200"/>
<path clip-path="url(#c0_200)" d="M238.4 407.3c2.4 0 4.5 -1.4 4.5 -4c0 -2.4 -1.4 -4.3 -4.6 -4.3h-3.8c-.2 0 -.4 .1 -.4 .3V407c0 .1 .2 .3 .4 .3Zm-8.6 13.9l-.1 -.2c1 -1.8 1 -1.5 1 -2.6V399.7c0 -.8 0 -1.3 -.9 -2.7v-.3h9.1c5.2 0 7.4 3.2 7.4 6.3c0 3.1 -2 5.3 -4.7 6v.1l2.3 4.4c2.1 3.8 3.7 6.6 5.6 6.6h.3v.4c-.6 .6 -1.2 1 -2.3 1c-3 0 -4.3 -2.6 -6.4 -6.5l-2.7 -5.4h-3.9c-.2 0 -.4 .1 -.4 .3v8.5c0 1.1 0 .8 1 2.5v.3Z" class="g0_200"/>
<path d="M257.3 421.2h-4.9l-.1 -.2c.9 -1.7 .9 -2 .9 -2.9V403.4c0 -.8 0 -1.2 -.8 -2.6l.1 -.3h4.8l.1 .3c-.9 1.4 -.9 1.8 -.9 2.6v14.8c0 1 0 1.1 .9 2.8Z" class="g0_200"/>
<path d="M277.3 420.7h-.1c-.6 -.1 -1 0 -1 0c-1.4 .6 -2.8 .8 -5 .8c-5.7 0 -10.9 -3.7 -10.9 -10.6c0 -6.3 5.2 -10.7 10.9 -10.7c1.2 0 2.9 .1 4 .5c0 0 .6 .1 1.2 -.1l.1 .1L278 404l-.4 .5c-1.4 -1.3 -4.2 -2.1 -6.3 -2.1c-4.2 0 -7.6 3.3 -7.6 8.5c0 5 3.4 8.4 7.6 8.4c3.2 0 5.7 -1.1 7.2 -2.4l.3 .3Z" class="g0_200"/>
<path d="M301.6 421.2h-5V421c.9 -1.7 .9 -2 .9 -2.9v-6.2H286.2v6.2c0 .9 0 1.2 .9 2.9v.2h-5L282 421c1 -1.7 1 -2 1 -2.9V403.4c0 -.8 0 -1.2 -.9 -2.6v-.3H287l.1 .3c-.9 1.4 -.9 1.8 -.9 2.6v6.2h11.3v-6.2c0 -.8 0 -1.2 -.9 -2.6l.1 -.3h4.9v.3c-.8 1.4 -.8 1.8 -.8 2.6v14.7c0 .9 0 1.2 .9 2.9Z" class="g0_200"/>
<path d="M385.2 408.9c0 -6.4 -3.7 -9.9 -8.9 -9.9h-2.9c-.2 0 -.4 .2 -.4 .4v19.3l2.5 .2h.5c5.4 0 9.2 -3.4 9.2 -10m3.6 0c0 6.8 -4.6 12.3 -12.9 12.3h-7.3v-.3c.9 -1.8 .9 -2 .9 -2.9V399.7c0 -.8 0 -1.2 -.9 -2.8l.1 -.2h7.9c8.3 0 12.2 5.5 12.2 12.2Z" class="g0_200"/>
<path d="M393.8 413.4h6.7l-3.3 -8.1h-.1Zm7.6 2.4h-8.6l-1.6 4.1l.4 1.1v.2h-4.2V421l1.2 -1.6l7 -16.9l-.8 -1.7l.1 -.3h3.7l7.6 18.9l1 1.6l-.1 .2h-4.5l-.1 -.1l.6 -1.2Z" class="g0_200"/>
<path d="M423 410.8c0 -5.5 -3.4 -8 -8 -8h-2.5c-.1 0 -.4 .1 -.4 .4v15.5l2.2 .2h.4c4.8 0 8.3 -2.4 8.3 -8.1m3.4 0c0 6 -4.2 10.4 -11.7 10.4H408V421c.8 -1.6 .8 -1.8 .8 -2.6V403.2c0 -.7 0 -1.1 -.8 -2.4v-.3h7.3c7.5 0 11.1 4.3 11.1 10.3Z" class="g0_200"/>
<path d="M428.9 419h.4c.4 0 .7 0 .7 -.5c0 -.3 -.3 -.4 -.5 -.4h-.6Zm-.4 -1.2h1c.6 0 .9 .3 .9 .8c0 .4 -.3 .6 -.7 .7l.8 1.1h-.4l-.8 -1.1h-.4v1.1h-.4Zm.9 3.2c1 0 1.8 -.8 1.8 -1.9c0 -1.1 -.8 -1.9 -1.8 -1.9c-1.1 0 -1.9 .8 -1.9 1.9c0 1.1 .8 1.9 1.9 1.9m0 -4.1c1.2 0 2.2 1 2.2 2.2c0 1.3 -1 2.2 -2.2 2.2c-1.2 0 -2.3 -.9 -2.3 -2.2c0 -1.2 1.1 -2.2 2.3 -2.2Z" class="g0_200"/>
<path d="M364.5 848.4v-.1c.3 -.5 .3 -.6 .3 -.9v-5.5c0 -.3 0 -.4 -.3 -.9h4.2l.2 1l-.1 .1c0 0 -.8 -.4 -1.1 -.4H366q-.1 0 -.1 .1v2.5h.8c.2 0 1 -.4 1 -.4h.1l-.2 1.1l-.6 -.1h-1.1c0 0 0 .1 0 .1v2.6q0 .1 .1 .1h2.2c.3 0 1.1 -.4 1.1 -.4h.1l-.2 1.1h-4.7Z" class="g0_200"/>
<path d="M376.6 844.7c0 -2 -1.1 -3 -2.7 -3h-.8c-.1 0 -.2 0 -.2 .1v5.9h.9c1.7 0 2.8 -1 2.8 -3m1.2 0c0 2.1 -1.5 3.7 -4 3.7h-2.2c.3 -.6 .3 -.7 .3 -.9v-5.6c0 -.3 0 -.4 -.3 -.9H374c2.6 0 3.8 1.6 3.8 3.7Z" class="g0_200"/>
<path d="M386.4 847.2c-.7 .8 -1.8 1.3 -3 1.3c-1.7 0 -3.1 -1 -3.1 -2.7v-3.9c0 -.3 0 -.4 -.2 -.9h1.6c-.3 .5 -.3 .6 -.3 .9v3.9c0 1.3 1 2 2 2c.9 0 1.4 -.3 1.9 -.6v-5.3c0 -.3 0 -.4 -.3 -.9h1.6c-.2 .5 -.2 .6 -.2 .9Z" class="g0_200"/>
<path d="M394.7 848.3c-.2 -.1 -.3 0 -.3 0c-.5 .2 -1 .2 -1.7 .2c-2.2 0 -3.8 -1.4 -3.8 -3.8c0 -2.2 1.6 -3.8 3.8 -3.8c.4 0 1 0 1.4 .1c0 0 .1 .1 .4 0l.4 1.1l-.2 .1c-.5 -.4 -1.3 -.6 -2 -.6c-1.7 0 -2.6 1.3 -2.6 3.1c0 1.8 .9 3.1 2.6 3.1c1.1 0 1.8 -.3 2.2 -.8l.2 .1Z" class="g0_200"/>
<path d="M398.9 845.2h2l-1 -2.7h-.1Zm2.3 .8h-2.6l-.7 1.8c0 .1 0 .2 .1 .6h-1.4c.3 -.5 .4 -.6 .4 -.7l2.4 -6.1l-.3 -.6h.1l1.1 -.2l2.6 6.9c0 .1 .1 .2 .4 .7h-1.6c.2 -.3 .2 -.4 .1 -.6Z" class="g0_200"/>
<path d="M406.3 841.7h-1.1c0 0 -.3 0 -1.1 .2l.1 -.9h5.5l-.2 .9h-.1c0 0 -.4 -.2 -.7 -.2h-1.3v5.8c0 .2 0 .3 .2 .9H406c.3 -.6 .3 -.7 .3 -.9Z" class="g0_200"/>
<path d="M413.4 848.4h-1.6q.2 -.6 .2 -.9v-5.7q0 -.3 -.2 -.8h1.6q-.3 .5 -.3 .8v5.7q0 .3 .3 .9Z" class="g0_200"/>
<path d="M422.3 844.7c0 -1.7 -1.1 -3.1 -2.8 -3.1c-1.7 0 -2.8 1.4 -2.8 3.1c0 1.7 1.1 3.1 2.8 3.1c1.7 0 2.8 -1.4 2.8 -3.1m1.1 0c0 2.1 -1.5 3.8 -3.9 3.8c-2.4 0 -3.9 -1.7 -3.9 -3.8c0 -2.1 1.5 -3.8 3.9 -3.8c2.4 0 3.9 1.7 3.9 3.8Z" class="g0_200"/>
<path clip-path="url(#c1_200)" d="M432.6 848.4h-.5l-4.9 -5.7h-.1v4.8c0 .2 0 .3 .3 .9H426c.2 -.6 .2 -.7 .2 -.9v-5.7l-.5 -.8H427l4.7 5.4v-4.5q0 -.3 -.3 -.9h1.5q-.3 .6 -.3 .9Z" class="g0_200"/>
<path d="M329.3 821.8c1.7 -.8 13.4 -6.9 17.9 -16l-25.4 3.5c1.2 4.3 2.9 8.4 5.3 12.1c0 0 .6 1.2 2.2 .4Z" class="g0_200"/>
<path d="M324 822.7c-2 -4.1 -3.7 -8.4 -4.6 -13c0 0 -4.1 .8 -4.8 1c-.7 .1 -2.8 1.3 -2.3 3.2c.5 1.9 3.8 15.6 4.2 16.4c.4 .9 1.2 2.5 4.1 2.9c2.8 .4 13.6 1.6 13.6 1.6c-2.3 -2.1 -5.5 -5.2 -7.1 -7.1c-.8 -1 -2.4 -.9 -2.4 -.9c-2.4 .4 -3.8 .5 -6.1 .6l-.4 -1.1c1.8 -.5 3.7 -1.1 5.4 -1.8c0 0 1.1 -.4 .4 -1.8Z" class="g0_200"/>
<path d="M332 825.4c7.3 -2.8 13.7 -7 19.1 -12.2l1.2 21.4c.2 2.5 -1.7 2.5 -2.6 2.5c-.9 0 -5.5 -.6 -6.9 -.8c-1.3 -.2 -8 -5.8 -11.2 -9.6c0 0 -.6 -.8 .4 -1.3Z" class="g0_200"/>
<path clip-path="url(#c1_200)" d="M238.9 818.7c2.3 0 4.3 -1.3 4.3 -3.8c0 -2.3 -1.3 -4.2 -4.4 -4.2h-3.7c-.2 0 -.4 .1 -.4 .3v7.5c0 .1 .2 .2 .4 .2Zm-8.4 13.5v-.3c.9 -1.7 .9 -1.4 .9 -2.5v-18c0 -.8 0 -1.3 -.9 -2.7l.1 -.2h8.8c5 0 7.2 3.1 7.2 6.1c0 3 -2 5.1 -4.6 5.7l-.1 .2l2.3 4.2c2 3.7 3.5 6.4 5.4 6.4h.3v.4c-.6 .6 -1.1 1 -2.2 1c-2.9 0 -4.2 -2.6 -6.2 -6.3l-2.6 -5.3h-3.8c-.2 0 -.4 .2 -.4 .3v8.2c0 1.1 0 .9 1 2.5v.3Z" class="g0_200"/>
<path d="M257.2 832.2h-4.8l-.1 -.3c.9 -1.6 .9 -1.8 .9 -2.7V815c0 -.8 0 -1.2 -.8 -2.6l.1 -.2h4.7v.2c-.8 1.4 -.8 1.8 -.8 2.6v14.3c0 .9 0 1 .9 2.6Z" class="g0_200"/>
<path d="M276.5 831.7h-.1c-.6 -.1 -1 0 -1 0c-1.3 .5 -2.7 .8 -4.8 .8c-5.6 0 -10.5 -3.6 -10.5 -10.3c0 -6.1 4.9 -10.3 10.5 -10.3c1.1 0 2.8 .1 3.9 .5c0 0 .5 .1 1.1 -.1h.1l1.5 3.3l-.5 .4c-1.3 -1.3 -4 -2 -6 -2c-4.1 0 -7.3 3.2 -7.3 8.2c0 4.9 3.2 8.2 7.3 8.2c3 0 5.5 -1.1 6.9 -2.4l.4 .3Z" class="g0_200"/>
<path d="M300 832.2h-4.8l-.1 -.3c.9 -1.6 .9 -1.8 .9 -2.7v-6H285.1v6c0 .9 0 1.1 .9 2.7l-.1 .3h-4.8v-.3c.9 -1.6 .9 -1.8 .9 -2.7V815c0 -.8 0 -1.2 -.9 -2.6l.1 -.2h4.7l.1 .2c-.9 1.4 -.9 1.8 -.9 2.6v6H296v-6c0 -.8 0 -1.2 -.8 -2.6l.1 -.2h4.6l.1 .2c-.8 1.4 -.8 1.8 -.8 2.6v14.2c0 .9 0 1.1 .8 2.7Z" class="g0_200"/>
<path d="M380.8 820.3c0 -6.2 -3.6 -9.6 -8.6 -9.6h-2.8c-.2 0 -.4 .2 -.4 .4v18.6l2.4 .2h.5c5.2 0 8.9 -3.3 8.9 -9.6m3.5 0c0 6.5 -4.5 11.9 -12.5 11.9h-7l-.1 -.3c.9 -1.7 .9 -1.9 .9 -2.8V811.4c0 -.8 0 -1.2 -.8 -2.7v-.2h7.7c8 0 11.8 5.3 11.8 11.8Z" class="g0_200"/>
<path d="M389.1 824.6h6.5l-3.2 -7.8h-.1Zm7.4 2.3h-8.3l-1.6 4l.4 1.1v.2h-4.1V832l1.1 -1.5l6.9 -16.4l-.9 -1.7l.1 -.2h3.6l7.4 18.3l.9 1.5v.2h-4.4l-.1 -.2l.6 -1.1Z" class="g0_200"/>
<path d="M417.3 822.1c0 -5.3 -3.2 -7.7 -7.7 -7.7h-2.4c-.2 0 -.4 .1 -.4 .3v15.1l2.1 .2h.4c4.7 0 8 -2.4 8 -7.9m3.3 0c0 5.8 -4.1 10.1 -11.3 10.1h-6.5v-.3c.8 -1.5 .8 -1.7 .8 -2.5V814.8c0 -.7 0 -1.1 -.8 -2.4l.1 -.2h7c7.3 0 10.7 4.1 10.7 9.9Z" class="g0_200"/>
<path d="M423 830h.5c.3 0 .6 0 .6 -.4c0 -.3 -.3 -.4 -.5 -.4H423Zm-.3 -1.1h.9c.6 0 .9 .2 .9 .7c0 .5 -.3 .7 -.7 .7l.8 1.1h-.5l-.6 -1.1H423v1.1h-.3Zm.8 3.1c1 0 1.8 -.8 1.8 -1.8c0 -1.1 -.8 -1.9 -1.8 -1.9c-1 0 -1.8 .8 -1.8 1.9c0 1 .8 1.8 1.8 1.8m0 -4c1.2 0 2.1 .9 2.1 2.2c0 1.2 -.9 2.1 -2.1 2.1c-1.2 0 -2.2 -.9 -2.2 -2.1c0 -1.3 1 -2.2 2.2 -2.2Z" class="g0_200"/>
<g clip-path="url(#c2_200)">
<path d="M-8.7 -1.2H-31.6m701.1 0h22.9M-8.7 988.7H-31.6m701.1 0h22.9M.4 -10.3V-33.2M.4 997.9v22.9M660.4 -10.3V-33.2m0 1031.1v22.9" class="g2_200"/>
<path d="M-8.7 -1.2H-31.6m701.1 0h22.9M-8.7 988.7H-31.6m701.1 0h22.9M.4 -10.3V-33.2M.4 997.9v22.9M660.4 -10.3V-33.2m0 1031.1v22.9" class="g3_200"/>
</g>
</svg>