<?xml version="1.0" encoding="UTF-8" standalone="no"?>
<!DOCTYPE svg PUBLIC "-//W3C//DTD SVG 1.1//EN"
"http://www.w3.org/Graphics/SVG/1.1/DTD/svg11.dtd">
<svg viewBox="0 0 660 990" version="1.1" xmlns="http://www.w3.org/2000/svg" xmlns:xlink="http://www.w3.org/1999/xlink">
<defs>
<style type="text/css"><![CDATA[
.g0_80{
fill: none;
stroke: #949698;
stroke-width: 0.763;
}
.g1_80{
fill: #FFF;
}
.g2_80{
fill: none;
stroke: #231F20;
stroke-width: 2.979;
}
.g3_80{
fill: #231F20;
}
]]></style>
</defs>
<path d="M318.5 969.1h23" class="g0_80"/>
<path d="M199 571.1H327.1v72.6H199V571.1Z" class="g1_80"/>
<path d="M199 571.1H327.1v72.6H199Z" class="g2_80"/>
<path d="M326.7 571.1H454.8V751.6H326.7V571.1Z" class="g1_80"/>
<path d="M326.7 571.1H454.8V751.6H326.7Zm.4 0V751.6" class="g2_80"/>
<path d="M433.4 516.1H232.8V299H433.4V516.1Z" class="g1_80"/>
<path d="M433.4 516.1H232.8V299H433.4ZM232.8 407.5H433.4" class="g2_80"/>
<path d="M335.2 396.7c.2 .3 .6 -.2 .3 .2c-.3 -.1 -.5 -.1 -.3 -.2Z" class="g3_80"/>
<path d="M336.9 318c1.8 .9 0 2.1 1.1 3.2c.1 .1 -1 0 -.7 .2c1.4 1.1 .5 2.6 -.6 3.8l-.3 -.1c-.2 .3 .7 .6 .6 .8c-.2 0 -.3 -.1 -.5 0c.5 .1 .2 .4 .6 .6c-.2 0 -.6 0 -.9 .1l.7 .2c1.5 .4 -.2 1 .6 1.5c-.1 0 -.2 -.1 -.4 0c.9 .8 .7 1.9 1.1 2.9c-.3 -.1 -.7 -.1 -.9 -.1c.6 .1 .8 .4 .9 .7c-.7 .1 .7 .4 .3 .7h-.2c.7 .2 -.4 .3 .5 .5l-.6 .1c1 .1 -.5 .3 0 .5h.2c.2 .2 -.3 .3 -.1 .5h-.1c.2 .3 -.3 .6 .5 .6c-.7 .1 -.3 -.4 -1.2 -.2c.8 1.2 .6 2.5 .6 3.8c-.3 .1 -.4 .2 -.7 .2c.1 .1 .1 .5 .5 .6c0 0 -.4 .1 -.4 .2c-.3 .2 .8 .2 .5 .5c-.2 -.1 -.5 -.2 -.8 -.2c.6 .3 .5 .6 .7 .8c-.1 0 -.2 -.1 -.4 -.1c.6 .3 -.2 .5 .2 .8l-.4 -.1c-.5 .3 .9 .1 .6 .4c-.1 -.1 -.3 0 -.5 -.1c.8 .4 .5 .9 .8 1.2c-.1 0 -.2 0 -.2 0c.1 .3 -.2 .7 .2 1.1c-.2 .1 -1.1 -.1 -.9 .3c.9 0 .3 .6 1.3 .4c-.1 .3 -.5 .8 -.2 1c-.3 -.2 -1 .1 -1.1 -.1l-.6 .1c-.3 0 .2 -.2 -.3 -.1c.1 .1 .4 .5 .2 .6c.6 .3 1.6 .5 1.7 .9c-.3 -.2 -1 .1 -1.1 -.1l1.7 .6c0 .1 -.7 0 -.5 .2c.2 0 .4 .1 .6 .2c-.1 0 .2 .5 -.7 .5c-.3 .1 -.2 -.2 -.5 0c0 .2 .3 .2 .3 .4H338c-.1 .2 .4 .5 .8 .3c.1 -.1 -.5 .1 -.2 -.1c.5 .1 .6 .4 .6 .7c-.1 -.1 -.3 -.1 -.6 -.2c.7 .4 .9 .7 1.2 1.1c.4 0 -.8 -.2 -.6 -.2c-.5 .4 .8 .9 0 1.3c-.1 -.1 .6 0 .5 0c-.1 .2 -.7 .2 -.5 .3c-.3 0 .1 .2 .2 .4c.3 0 -.1 0 -.2 -.1c.3 .2 .9 1 .3 1.5c.3 0 .9 .3 .9 .4l-.6 -.1c-.3 .1 .1 .4 -.4 .4c.7 .2 -.6 -.9 0 -.6c-.5 .1 .8 .5 .1 .4c0 .2 .6 .4 .1 .6c.1 0 -.8 -.2 -.7 0c.1 .3 .2 .1 .4 .4l.2 .1c.6 0 -.1 .3 .5 .2c-.4 0 .3 .5 -.6 .4h-.7c.1 .1 .8 .2 1.1 .3c-.1 0 -.2 0 -.4 0c1.1 .1 0 .4 .8 .5c-.4 .3 -.1 .7 -.7 .9c.3 .2 .7 .4 .4 .6c-.1 0 -.1 -.1 -.3 -.1c-.3 .1 -.1 .2 .1 .3c-.2 0 -.6 .3 -1 .5c.3 .2 .9 .2 1.2 .2c-1 .2 .7 .6 -.3 .8c-.1 0 -.5 -.3 -.7 -.1c-1.1 .2 .7 .4 .2 .7l.9 -.1c-.5 .2 .5 .5 -.4 .5c.3 .1 -.3 .3 .6 .3c-.8 .5 .4 1.3 -1.1 1.6c.1 .1 -.1 .2 .4 .2c.5 -.1 -.4 -.2 0 -.2c0 .1 .2 .1 .3 .1c-.2 .2 -.2 .3 -.9 .1c-.5 .4 1.4 .4 1.1 .9c-.4 -.1 -.5 0 -.5 .1l.6 .3c-.1 .3 -.8 .1 -1.4 .1c.1 .2 .1 .4 .6 .5l-.8 .1c.6 -.1 .4 .2 .5 .2h-.1c-.3 0 -.1 .2 -.1 .3c.4 0 .6 -.2 .7 -.3c.2 .1 .2 .2 .5 .3c-.6 -.1 -.5 .2 -.5 .4c-.1 .1 .5 .1 .5 .2c-.3 0 -.1 .2 -.5 .1c-.1 -.1 .3 -.1 0 -.2c-.2 .1 -.7 .1 -.3 .3c.3 .1 1.1 0 .7 .2c-.1 0 -.3 -.1 -.5 -.1l-.3 .2l.5 .1c-.1 0 -.2 0 -.3 0c.6 .1 .2 .4 .8 .5c.1 .1 -.3 .2 -.4 .4l-.1 -.1c-.3 .2 -.1 .4 .3 .5h-.1c-.1 .1 0 .3 .3 .4c-.4 .2 -2 .1 -1.3 .3c0 .2 .9 .4 1.3 .3c-.4 .4 .5 .8 -.4 1.2c.3 0 .4 0 .5 .1c-.2 .6 .6 1.3 -.4 1.7c-.2 -.2 -.5 0 -.9 0c.5 .1 -.4 .1 .4 .2c.4 0 .7 0 .9 -.2c.2 .4 .2 .9 -.2 1.1c.2 -.1 .3 0 .5 .1c-.8 -.1 -.9 .2 -.6 .4h.4l-.5 .1c.2 .1 1 .1 .6 .3l-.5 .1c.3 .2 1 .4 .6 .7l-.7 .1c.1 .1 .5 .3 .7 .1c-.4 .4 -.5 .6 -1.1 .7c1.5 .7 1.5 1.6 1.4 2.3h-.4c-.3 .2 .6 .1 .4 .2c-.3 0 -.7 .2 -1.1 0c-.4 .3 .6 .4 .7 .6c.5 0 -.3 -.2 .3 -.1c.2 0 -.4 .4 .3 .4c-.2 .1 -.7 0 -1 0l.3 .2c-.8 .1 -1.4 -.6 -2.4 -.3l.1 .1c-.8 .2 -.8 -.4 -1.1 0c.3 .2 1.3 .3 1.7 .2c.1 .3 1.6 .2 1.5 .5c-.4 .1 -.1 -.3 -.6 -.2c-.6 .2 .3 .4 .1 .5c.2 -.1 .9 0 1.1 .1c-.4 .2 -.7 -.1 -.8 .2c.4 0 .7 .3 1 .1c.9 .1 -.2 .3 .5 .4c-.7 .1 -1.5 -.3 -1.8 0c.6 0 .8 .4 1.7 .3c-.2 .1 -.7 .1 -1 0c-.4 .2 1.1 .4 -.1 .5h.6c-.2 .1 -.4 .2 -.7 .2c0 .2 .8 .5 -.1 .5c.1 .1 0 .4 .7 .3c.4 -.2 -.5 -.3 .4 -.4c-.7 .2 .1 .3 .3 .5h-.3c.1 .1 0 .2 .4 .3c-.2 -.1 -.4 -.1 -.5 0l.5 .1c.3 .3 -.9 0 -.8 .3l-.4 -.2c.1 .1 -.5 .1 -.3 .3c.5 .1 1.1 .2 1.5 .2c.3 .2 -.5 .1 0 .3l-.6 -.3c-.2 0 -.9 .2 -.9 .4c.2 .1 .9 .4 1.2 .1c0 .1 -.3 .3 -.7 .2c.2 .3 .6 0 .9 .2c-.3 .1 -.8 .3 -1.3 .5l-.9 -.2v.1c-.7 -.2 -.5 .1 -1.2 0c-.1 .1 .1 .2 .3 .3c1.2 -.3 1.6 .4 2.6 .3c.3 .4 -2.5 .2 -.9 .7c.3 -.1 1.1 .1 .8 -.1c-.1 .2 1 .2 .6 .4c-.4 -.2 -1.1 .3 -1.7 -.1c.3 .1 .3 -.1 .2 -.2c-.4 .1 -1.1 0 -1.1 .2c.1 .2 .1 .4 .7 .4c.6 0 -.1 -.3 .5 -.1c.2 .3 -.7 .3 .4 .5c-.1 -.2 .5 -.3 .9 -.3l.3 .3l-.4 -.1c-.3 .4 .7 .1 .6 .5l-.8 .2c-.7 -.1 .3 -.6 -.8 -.5c-.1 .2 .5 .3 .2 .5l-.2 -.1c-.1 0 -1.5 .1 -.7 .4c.4 .2 .4 .1 .8 .1c.2 .4 .6 .5 .6 .8c-.8 -.1 0 .4 -.9 .1c.5 -.1 .5 -.7 -.3 -.8c-1 .1 .1 -.3 -.8 -.4c-.1 .3 -1 .3 -1.6 .3c-.1 .1 .2 .2 .3 .2c.6 .1 .6 0 1.2 0c-.2 .3 .1 .6 .7 .8c-.3 .1 -.9 .1 -.9 0c.1 .4 0 .8 -.1 1.2c.9 -.3 .2 .4 1 .2c.2 -.2 .9 -.3 1.3 -.2c-.1 .1 -.4 0 -.6 0c.5 .2 -.9 .3 -.1 .5c-.3 -.4 -1.1 -.1 -1.9 -.2c.5 .3 -.5 0 -.5 .2c.4 .3 .7 .6 .9 .9c-.7 .4 0 1 0 1.3c-.4 .2 -1.2 0 -1.4 .2c0 .2 .9 -.1 .5 .2l-.1 -.1c.2 .1 -.6 .6 .6 .7l-.9 -.1c-.1 .1 .1 .1 .2 .2c-.3 0 -.6 .1 -.7 0c-.7 .2 0 .4 .1 .6l.5 -.1c.4 .4 -.1 .6 .1 1l-.6 -.1l.4 .3c-.6 -.1 -.9 .1 -.5 .2l-1.3 -.6c.4 -.1 .7 .2 1.2 .1c.5 -.1 .3 -.4 -.2 -.5c0 .2 .1 .2 .3 .3c-.8 0 -.7 -.2 -1.2 -.3c0 .1 -.2 .2 0 .2c-.4 -.1 -.4 -.3 -.4 -.5c.3 .2 .4 -.1 .6 0c-.6 0 -.8 -.3 -.6 -.5c.7 -.2 -.5 -.5 -.3 -.8c.7 .1 1.2 .3 1.5 .5c.3 -.2 0 -.3 .3 -.5c-.5 -.1 -1.3 -.1 -1.5 -.4h.4c-.2 -.2 -.9 -.3 -.8 -.5c.3 -.6 .3 -1.1 .3 -1.5h.5c-1 -.2 -.3 -.7 -.8 -1c.5 -.5 -.4 -1.1 .4 -1.3c-.4 -.9 -.7 -1.7 -.5 -2.6l.7 .2c-.5 -.2 .4 -.1 .3 -.3c-.6 .2 -.7 -.2 -1.2 -.3c.6 -.4 0 -.9 -.5 -1.3h.5c-.9 -.4 -.1 -.8 .1 -1.2c.2 -.1 .6 -.2 .6 -.3c-.8 -.2 -.8 -.4 -1.2 -.7c0 -.3 .2 -.7 .5 -1c-1.1 -1 -.4 -2 -1 -3l.5 -.1c-1.2 -1 0 -2.2 -.7 -3l1 .1c.3 -.3 -.2 -.6 -.9 -.6c.3 -.2 -.5 -.7 .3 -.8c.2 -.3 -.4 -.3 -.5 -.6c.3 -.5 .2 -.7 .1 -1.2l-.1 .1c.2 .1 .6 .1 .7 -.1c-.3 -.2 .3 -.7 -.9 -.5c.7 -.5 -.5 -1.3 .4 -1.8c-.3 .1 -.4 -.1 -.6 -.1c0 -.5 .7 -1 .1 -1.4c.2 -.1 .6 .1 .6 -.1c-.1 -.1 -.4 0 -.6 -.1c-.6 -.8 .7 -1.6 .5 -2.3c-.6 -1.3 -.3 -2.6 -.3 -3.8h.2c-.9 -.4 .9 -.9 -.4 -1.2c.2 -.1 .1 -.4 .6 -.3c-.7 -.3 .6 -.9 -.2 -1.4c-.1 .1 0 .1 .1 .1c.5 -.4 -.2 -.8 .3 -1.3c.1 0 .2 .1 .4 .1c.4 -.1 -1 -.4 .1 -.5c0 -.1 -.5 -.1 -.5 0c.5 -1.1 -.2 -2.3 -.5 -3.4c.7 -.8 1.9 0 1.1 -.7c.2 0 -.4 0 -.2 0c-.3 -.3 1.3 -.4 .7 -.6c-.7 .1 -.4 -.1 -.8 -.1c.4 -.5 1.1 -.6 .5 -1l.4 .1c-1 -.5 -.5 -1 -1.6 -1.4c-.2 -2.6 -.8 -5 -.9 -7.4c.2 -2.5 -.2 -4.9 .4 -7.3q1 -.6 .6 -1.3c.1 .1 .2 .1 .3 .1c-.8 -.1 0 -.5 -.8 -.5c.2 -1 0 -1.8 0 -2.7c.1 .1 .7 .2 .6 0l-.4 -.2h.2c-.1 -.1 -.5 -.3 -.8 -.1c-.6 -2.4 1 -4.7 .8 -7c.4 -.5 .1 -1.3 -.1 -1.9c1.1 -1.8 2 -3.3 1.3 -5.2c0 0 2 .3 2.4 1.1Z" class="g3_80"/>
<path d="M335.2 396.3c.4 0 .6 -.2 1.1 -.1c-.4 .1 -.8 .2 -1.1 .1Z" class="g3_80"/>
<path d="M339.3 390.9c-.1 0 .1 -.1 .2 -.1c0 .1 .4 .2 .2 .2c-.1 -.1 -.3 -.1 -.4 -.1Z" class="g3_80"/>
<path d="M339.5 389.5c.4 0 .7 .3 .7 .5Z" class="g3_80"/>
<path d="M341 388.2c.3 -.1 .4 0 .4 .1Z" class="g3_80"/>
<path d="M340.2 388.1c0 -.1 .2 -.1 .4 -.2c-.3 0 .2 .3 -.4 .2Z" class="g3_80"/>
<path d="M341.3 385.3c-.1 -.1 -.4 -.2 0 -.3c-.2 .1 .5 .4 0 .3Z" class="g3_80"/>
<path d="M340.8 384c0 0 0 -.1 -.1 -.1c.2 -.1 .5 0 .5 .1Z" class="g3_80"/>
<path d="M339.8 360l.1 .1h-.3Z" class="g3_80"/>
<path d="M339.9 349.5c-.2 -.1 .3 -.1 .4 -.1c0 .1 -.4 -.1 -.4 .1Z" class="g3_80"/>
<path d="M338.3 343.8v.1l-.7 -.1Z" class="g3_80"/>
<path d="M342.7 330.9c.1 .1 .3 -.2 .2 0c-.2 0 -.3 0 -.2 0Z" class="g3_80"/>
<path d="M328 325.8c-.5 -.8 .6 -.8 .3 -1.5c0 -.1 .4 .3 .4 .1c-.4 -.8 .4 -1.2 1.1 -1.3l.1 .1c.2 -.1 -.2 -.4 -.1 -.5q.1 .1 .3 .2c-.3 -.2 0 -.3 -.2 -.4l.4 .1l-.2 -.2c-.6 -.5 .3 -.3 .1 -.7l.1 .1c-.2 -.6 .2 -1 .3 -1.4c0 .1 .2 .2 .3 .2c-.2 -.2 -.2 -.3 -.2 -.5c.3 .2 -.2 -.3 0 -.3h.1c-.3 -.2 .2 0 -.1 -.3l.3 .1c-.4 -.3 .3 0 .1 -.2H331c0 -.2 .2 -.1 .2 -.2c0 -.2 .3 -.1 -.1 -.3c.3 .1 .1 .2 .5 .4c0 -.7 .3 -1.2 .6 -1.7c.2 .1 .3 .1 .4 .1c-.1 -.1 0 -.2 -.1 -.3c0 0 .2 0 .2 0c.2 0 -.3 -.3 -.1 -.3l.3 .2c-.2 -.2 -.1 -.3 -.1 -.4c0 0 .1 0 .2 .1c-.3 -.3 .1 -.1 0 -.4l.2 .2c.3 0 -.4 -.3 -.2 -.3l.2 .1c-.2 -.3 0 -.4 -.1 -.6h.1c.1 -.1 .2 -.2 .2 -.4c.1 0 .4 .3 .5 .1c-.4 -.2 -.1 -.4 -.5 -.5c.1 -.1 .4 -.2 .3 -.4c.1 .2 .5 .3 .4 .4h.3c.2 .1 -.1 .1 .1 .2c0 -.1 0 -.3 .1 -.3c-.2 -.3 -.6 -.6 -.5 -.8c.1 .2 .4 .2 .4 .3l-.6 -.6c.1 -.1 .3 .1 .3 0l-.2 -.2c0 0 0 -.2 .4 0c.2 0 0 .1 .2 .1c0 -.1 -.1 -.2 0 -.3v.1c.1 -.1 0 -.3 -.3 -.4c0 .1 .3 .2 .1 .2c-.2 -.2 -.2 -.4 -.1 -.5c0 .1 .1 .2 .2 .2c-.2 -.3 -.2 -.4 -.2 -.7c-.2 -.1 .2 .3 .1 .3c.4 -.1 -.1 -.6 .4 -.5c0 0 -.3 -.2 -.2 -.2c0 0 .3 .1 .2 0c.2 .1 0 -.1 0 -.2c-.1 -.1 .1 .1 .1 .1c-.1 -.1 -.1 -.2 -.1 -.3v-.1h.1c-.5 -.1 4.2 .3 2.2 .2v.3c.1 -.1 .4 -.1 .4 0l-.2 .1c-.2 .1 .1 .1 -.1 .2c.3 0 -.5 -.3 -.2 -.2c-.2 .1 .5 0 .1 .1c.1 .1 .4 .1 .2 .2c0 0 -.4 .1 -.3 .2c.1 .1 .1 0 .2 0l.2 .1c.2 -.1 0 .1 .2 -.1c-.2 .1 .2 .2 -.2 .3l-.3 .1c0 .1 .4 0 .5 0h-.1c.5 -.1 0 .2 .4 .1c-.1 .2 .1 .3 -.2 .5c.2 0 .4 0 .4 .2q-.1 0 -.2 0c-.1 .1 0 .1 .1 .1c-.1 0 -.2 .3 -.4 .4c.2 0 .5 -.1 .6 -.2c-.4 .3 .4 .2 0 .4c0 0 -.3 0 -.3 .1c-.5 .3 .4 .1 .2 .3l.4 -.2c-.2 .1 .3 .1 -.1 .2c.2 0 -.1 .3 .3 .1c-.2 .3 .4 .4 -.2 .8c0 .1 0 .2 .2 .1c.2 -.2 -.2 -.1 0 -.1c0 0 .1 0 .2 -.1c-.1 .1 -.1 .2 -.5 .3c-.2 .2 .8 -.1 .7 .1q-.2 .1 -.2 .2h.3c0 .1 -.3 .2 -.6 .3c.1 0 .1 .1 .3 .1l-.3 .2c.2 -.2 .2 0 .3 0h-.1c-.1 0 0 .1 0 .1c.2 -.1 .2 -.2 .3 -.2c.1 -.1 .1 0 .3 0c-.3 .1 -.2 .2 -.2 .2c0 .1 .3 0 .3 0c-.2 .1 0 .1 -.2 .2c-.1 0 .1 -.1 0 -.1c-.1 .1 -.4 .2 -.2 .2c.2 0 .6 -.3 .4 -.1l-.3 .1l-.1 .2l.3 -.1h-.1c.3 -.1 .1 .2 .4 .1c.1 0 -.1 .1 -.1 .2c-.1 .1 0 .2 .2 .2h-.1c0 0 .1 .1 .3 .1c-.2 .1 -1 .4 -.6 .4c0 .1 .5 -.1 .6 -.2c-.1 .3 .4 .3 .1 .6h.2c0 .2 .5 .3 .1 .7c-.1 0 -.2 .1 -.4 .2c.3 0 -.2 .1 .2 0c.2 -.1 .4 -.1 .4 -.2c.2 .1 .3 .3 .1 .5c.1 -.1 .2 -.1 .3 -.1c-.4 .1 -.4 .2 -.3 .3l.3 -.1l-.2 .1c0 0 .4 -.1 .3 .1l-.3 .1c.2 0 .6 0 .4 .1l-.2 .2c0 .1 .2 .1 .3 0c-.1 .2 -.1 .3 -.4 .5c.8 -.1 1 .3 1 .7h-.1c-.1 .1 .3 -.1 .2 0c-.2 .1 -.3 .2 -.5 .2c-.2 .2 .3 .1 .4 .1c.2 0 -.1 0 .1 -.1c.1 0 -.1 .3 .3 .2c-.2 0 -.4 .1 -.5 .1l.1 .1c-.3 .2 -.7 0 -1.1 .3c-.3 .2 -.4 0 -.5 .2c.2 0 .7 -.1 .8 -.2c.2 .1 .8 -.2 .9 -.1c-.2 .2 -.1 -.1 -.4 .1c-.2 .1 .2 .1 .2 .2c.1 -.2 .4 -.2 .5 -.2c-.1 .1 -.3 .1 -.3 .2c.2 -.1 .3 0 .4 -.2c.5 -.1 0 .2 .3 .1c-.3 .2 -.7 .2 -.8 .4c.3 -.1 .4 0 .8 -.2c0 0 -.2 .1 -.4 .2c-.2 .1 .6 -.1 0 .2l.3 -.1c-.1 0 -.1 .1 -.3 .2c0 .1 .5 .1 .1 .2c0 0 0 .2 .3 0c.2 -.2 -.2 0 .2 -.2c-.4 .2 0 .1 .2 .1l-.2 .1c.1 0 .1 .1 .3 0c-.1 0 -.2 .1 -.3 .1l.3 -.1c.2 .1 -.4 .3 -.3 .4l-.3 -.1c.1 0 -.1 .2 0 .2c.2 -.1 .5 -.1 .7 -.2c.1 0 -.2 .2 0 .1H343c-.1 .1 -.4 .3 -.3 .4c.1 0 .5 -.1 .6 -.2c0 0 -.1 .2 -.3 .2c.1 .1 .2 -.1 .4 -.1c-.1 .1 -.3 .3 -.5 .5h-.4v.1c-.4 0 -.3 .1 -.6 .2c0 .1 .1 .1 .2 .1c.5 -.3 .8 -.2 1.3 -.4c.2 .1 -1.2 .6 -.3 .5c.1 -.1 .5 -.2 .3 -.2c0 .1 .5 -.1 .4 .1c-.3 -.1 -.5 .3 -.8 .2c.1 0 0 -.1 0 -.1c-.2 .1 -.5 .2 -.5 .3c.1 .1 .2 .1 .4 0c.3 -.1 -.1 -.1 .2 -.1c.2 .1 -.2 .3 .3 .1c-.1 -.1 .2 -.2 .4 -.3l.1 .1h-.1c-.1 .2 .3 0 .3 .1l-.3 .2c-.3 .1 0 -.2 -.5 0c.1 .1 .3 0 .2 .2h-.1c0 0 -.7 .3 -.2 .3c.2 0 .2 -.1 .4 -.1c.1 .1 .3 .1 .4 .1c-.4 .2 0 .2 -.4 .3c.2 -.2 .1 -.4 -.3 -.3c-.4 .2 0 -.1 -.5 0c.1 .1 -.4 .3 -.6 .4c-.1 .1 .1 .1 .1 .1c.3 -.1 .3 -.2 .6 -.3c0 .2 .2 .3 .5 .2c-.2 .1 -.4 .2 -.5 .2c.2 .1 .2 .3 .2 .5c.4 -.3 .2 .2 .5 -.1c.1 -.1 .3 -.3 .6 -.3c0 0 -.2 .1 -.3 .1c.2 0 -.4 .3 0 .2c-.2 -.1 -.5 .2 -.9 .3c.3 0 -.2 .1 -.2 .2c.3 0 .5 .1 .6 .2c-.3 .3 .2 .4 .2 .5c-.1 .2 -.5 .3 -.6 .4c.1 .1 .4 -.3 .3 -.1l-.1 .1c.1 0 -.2 .3 .4 .1l-.4 .2c0 0 .1 0 .1 0c-.1 0 -.2 .1 -.3 .1c-.3 .2 .1 .2 .1 .3l.3 -.2c.2 .1 0 .3 .2 .4l-.3 .1h.2c-.3 .1 -.4 .2 -.2 .2h-.7c.2 -.1 .4 0 .6 -.2c.2 -.1 .1 -.2 -.2 -.1c0 0 .1 0 .2 0c-.4 .2 -.4 .1 -.6 .1c0 .1 -.1 .1 0 .1q-.2 0 -.3 -.1c.2 0 .2 -.1 .4 -.1c-.4 .1 -.5 0 -.4 -.1c.3 -.2 -.3 -.2 -.3 -.3c.3 -.1 .6 -.1 .7 -.1c.2 -.1 0 -.1 .1 -.2c-.2 0 -.6 .1 -.8 .1l.3 -.1c-.2 -.1 -.5 .1 -.5 -.1c0 -.2 -.1 -.5 -.1 -.6l.2 -.1c-.5 .1 -.3 -.3 -.6 -.3c.2 -.3 -.3 -.4 0 -.6c-.3 -.3 -.6 -.6 -.7 -1h.4c-.3 0 .1 -.2 .1 -.2c-.3 .2 -.4 0 -.6 .1c.2 -.3 -.2 -.4 -.5 -.5l.2 -.1c-.5 .1 -.2 -.3 -.2 -.5c.1 0 .3 -.2 .3 -.2q-.4 0 -.7 -.1c-.1 -.1 0 -.3 0 -.5c-.6 -.2 -.5 -.7 -.9 -1l.2 -.2c-.7 -.2 -.4 -.9 -.9 -1.1l.5 -.2c.1 -.1 -.2 -.2 -.5 0c.1 -.2 -.3 -.2 0 -.4c0 -.2 -.3 -.1 -.4 -.1c.1 -.3 0 -.4 -.1 -.6v.1c.1 0 .3 -.1 .3 -.2c-.2 0 0 -.3 -.5 0c.2 -.4 -.5 -.5 -.2 -.9c-.1 .1 -.2 .1 -.3 .1c-.1 -.2 .2 -.5 -.2 -.6c.1 -.1 .3 0 .3 -.1c-.1 -.1 -.2 0 -.3 0c-.4 -.2 0 -.8 -.2 -1c-.5 -.4 -.5 -1 -.8 -1.5l.1 -.1c-.5 0 .3 -.5 -.4 -.4c.1 -.1 0 -.2 .2 -.2c-.3 -.1 .1 -.5 -.3 -.6h.1c.1 -.2 -.3 -.3 -.1 -.6c0 0 .1 0 .2 0c.2 -.2 -.6 0 0 -.2c-.1 -.1 -.3 0 -.3 0c0 -.5 -.5 -.8 -.8 -1.3c.2 -.4 .9 -.3 .4 -.4c.1 -.1 -.2 0 -.1 0c-.2 -.1 .5 -.4 .2 -.4q-.2 .1 -.3 .1c-2.5 -.2 3.3 .3 2.7 .2l.1 .1c-.3 .1 -.6 -.1 -.5 .2l-.1 -.1c.3 .5 0 .5 .4 1c-.5 1 -.8 2.1 -1.4 3.1c-.6 .9 -1 1.9 -1.8 2.7q-.6 0 -.5 .3l-.2 -.1c.3 .3 -.1 .2 .2 .4c-.2 .4 -.3 .7 -.6 1.1c0 -.1 -.2 -.3 -.2 -.2l.1 .2h-.1c.1 0 .2 .2 .3 .2c-.2 1.1 -1.5 1.6 -1.9 2.5c-.3 .1 -.4 .5 -.4 .8c-.9 .4 -1.6 .8 -1.7 1.6c0 0 -.8 -.6 -.9 -1Z" class="g3_80"/>
<path d="M342.6 330.7c.2 -.1 .2 -.2 .5 -.2Z" class="g3_80"/>
<path d="M343.6 327.7c-.1 0 0 -.1 0 -.1c.1 0 .2 0 .1 .1c0 -.1 -.1 0 -.1 0Z" class="g3_80"/>
<path d="M343.4 327.1c.2 -.1 .4 0 .4 0Z" class="g3_80"/>
<path d="M343.9 326.2c.1 -.1 .2 -.1 .2 0Z" class="g3_80"/>
<path d="M343.5 326.3c0 0 .1 -.1 .1 -.1c-.1 0 .2 .1 -.1 .1Z" class="g3_80"/>
<path d="M343.5 325c0 -.1 -.2 -.1 0 -.2c-.1 .1 .2 .1 0 .2Z" class="g3_80"/>
<path d="M343 324.5c.1 -.1 .2 -.1 .2 -.1Z" class="g3_80"/>
<path d="M338.3 314.7l.1 .1h-.1Z" class="g3_80"/>
<path d="M334 312.8c.1 .1 -.1 0 -.2 0c0 -.1 .2 .1 .2 0Z" class="g3_80"/>
<path d="M333.4 315.4v0l.3 .2Z" class="g3_80"/>
<path d="M335.2 506.9c.2 .3 .6 -.1 .3 .2c-.3 0 -.5 -.1 -.3 -.2Z" class="g3_80"/>
<path d="M336.9 428.2c1.8 1 0 2.2 1.1 3.2c.1 .2 -1 0 -.7 .3c1.4 1 .5 2.6 -.6 3.8l-.3 -.1c-.2 .2 .7 .5 .6 .7c-.2 0 -.3 0 -.5 0c.5 .1 .2 .5 .6 .6c-.2 .1 -.6 .1 -.9 .2l.7 .1c1.5 .4 -.2 1 .6 1.5c-.1 0 -.2 -.1 -.4 0c.9 .9 .7 1.9 1.1 2.9c-.3 0 -.7 -.1 -.9 0c.6 0 .8 .3 .9 .6c-.7 .1 .7 .4 .3 .7h-.2c.7 .2 -.4 .3 .5 .5l-.6 .2c1 .1 -.5 .3 0 .5h.2c.2 .1 -.3 .2 -.1 .4h-.1c.2 .4 -.3 .6 .5 .6c-.7 .1 -.3 -.4 -1.2 -.2c.8 1.3 .6 2.5 .6 3.8c-.3 .1 -.4 .2 -.7 .3c.1 .1 .1 .4 .5 .5c0 0 -.4 .1 -.4 .2c-.3 .2 .8 .2 .5 .5c-.2 -.1 -.5 -.1 -.8 -.1c.6 .2 .5 .5 .7 .7c-.1 0 -.2 -.1 -.4 -.1c.6 .3 -.2 .5 .2 .8l-.4 -.1c-.5 .4 .9 .1 .6 .5c-.1 -.1 -.3 -.1 -.5 -.1c.8 .3 .5 .8 .8 1.1c-.1 0 -.2 0 -.2 0c.1 .4 -.2 .7 .2 1.1c-.2 .1 -1.1 -.1 -.9 .3c.9 0 .3 .6 1.3 .4c-.1 .3 -.5 .8 -.2 1c-.3 -.1 -1 .1 -1.1 -.1l-.6 .2c-.3 -.1 .2 -.2 -.3 -.2c.1 .2 .4 .5 .2 .6c.6 .3 1.6 .5 1.7 .9c-.3 -.2 -1 .1 -1.1 0l1.7 .5c0 .2 -.7 .1 -.5 .2c.2 0 .4 .1 .6 .2c-.1 0 .2 .5 -.7 .6c-.3 0 -.2 -.3 -.5 -.1c0 .2 .3 .2 .3 .5H338c-.1 .1 .4 .4 .8 .3c.1 -.1 -.5 0 -.2 -.1c.5 .1 .6 .3 .6 .6c-.1 -.1 -.3 -.1 -.6 -.1c.7 .3 .9 .6 1.2 1c.4 0 -.8 -.1 -.6 -.2c-.5 .5 .8 1 0 1.3c-.1 0 .6 0 .5 0c-.1 .2 -.7 .2 -.5 .3c-.3 .1 .1 .2 .2 .4c.3 .1 -.1 0 -.2 -.1c.3 .2 .9 1 .3 1.5c.3 0 .9 .3 .9 .4h-.6c-.3 0 .1 .3 -.4 .3c.7 .3 -.6 -.9 0 -.6c-.5 .1 .8 .5 .1 .4c0 .2 .6 .5 .1 .7c.1 -.1 -.8 -.2 -.7 -.1c.1 .4 .2 .1 .4 .4l.2 .2c.6 0 -.1 .2 .5 .1c-.4 .1 .3 .5 -.6 .4h-.7c.1 .1 .8 .2 1.1 .3c-.1 0 -.2 .1 -.4 .1c1.1 0 0 .3 .8 .5c-.4 .2 -.1 .7 -.7 .8c.3 .2 .7 .4 .4 .7c-.1 -.1 -.1 -.2 -.3 -.2c-.3 .2 -.1 .2 .1 .4c-.2 -.1 -.6 .3 -1 .4c.3 .3 .9 .2 1.2 .2c-1 .2 .7 .6 -.3 .9c-.1 -.1 -.5 -.4 -.7 -.2c-1.1 .2 .7 .4 .2 .7h.9c-.5 .1 .5 .4 -.4 .4c.3 .1 -.3 .4 .6 .3c-.8 .6 .4 1.3 -1.1 1.6c.1 .1 -.1 .3 .4 .2c.5 -.1 -.4 -.1 0 -.2c0 .1 .2 .1 .3 .1c-.2 .2 -.2 .3 -.9 .1c-.5 .4 1.4 .4 1.1 .9c-.4 0 -.5 0 -.5 .1l.6 .3c-.1 .3 -.8 .2 -1.4 .1c.1 .2 .1 .4 .6 .5l-.8 .2c.6 -.2 .4 .1 .5 .2l-.1 -.1c-.3 0 -.1 .2 -.1 .3c.4 0 .6 -.2 .7 -.3c.2 .1 .2 .2 .5 .3c-.6 0 -.5 .3 -.5 .4c-.1 .1 .5 .2 .5 .2c-.3 0 -.1 .2 -.5 .1c-.1 0 .3 -.1 0 -.2c-.2 .1 -.7 .1 -.3 .3c.3 .2 1.1 0 .7 .3c-.1 -.1 -.3 -.1 -.5 -.2l-.3 .3h.5c-.1 0 -.2 0 -.3 0c.6 .1 .2 .4 .8 .5c.1 .1 -.3 .3 -.4 .4h-.1c-.3 .1 -.1 .3 .3 .5h-.1c-.1 0 0 .2 .3 .4c-.4 .2 -2 0 -1.3 .2c0 .3 .9 .4 1.3 .3c-.4 .4 .5 .9 -.4 1.2c.3 .1 .4 0 .5 .2c-.2 .5 .6 1.2 -.4 1.6c-.2 -.1 -.5 0 -.9 0c.5 .2 -.4 .2 .4 .2c.4 0 .7 0 .9 -.1c.2 .3 .2 .8 -.2 1c.2 -.1 .3 0 .5 .1c-.8 0 -.9 .2 -.6 .4h.4l-.5 .2c.2 0 1 .1 .6 .2l-.5 .1c.3 .2 1 .5 .6 .7l-.7 .1c.1 .1 .5 .3 .7 .1c-.4 .4 -.5 .6 -1.1 .7c1.5 .7 1.5 1.6 1.4 2.4l-.4 -.1c-.3 .2 .6 .1 .4 .3c-.3 -.1 -.7 .1 -1.1 -.1c-.4 .3 .6 .4 .7 .6c.5 0 -.3 -.1 .3 -.1c.2 0 -.4 .4 .3 .4c-.2 .1 -.7 0 -1 0l.3 .2c-.8 .2 -1.4 -.5 -2.4 -.3l.1 .1c-.8 .2 -.8 -.4 -1.1 0c.3 .2 1.3 .3 1.7 .2c.1 .4 1.6 .2 1.5 .6c-.4 .1 -.1 -.3 -.6 -.3c-.6 .2 .3 .4 .1 .6c.2 -.2 .9 0 1.1 .1c-.4 .2 -.7 -.2 -.8 .1c.4 .1 .7 .3 1 .1c.9 .1 -.2 .3 .5 .5c-.7 0 -1.5 -.4 -1.8 -.1c.6 0 .8 .4 1.7 .3c-.2 .1 -.7 .1 -1 0c-.4 .2 1.1 .5 -.1 .5l.6 .1c-.2 0 -.4 .1 -.7 .2c0 .1 .8 .5 -.1 .4c.1 .1 0 .4 .7 .3c.4 -.2 -.5 -.2 .4 -.3c-.7 .1 .1 .3 .3 .4h-.3c.1 .1 0 .3 .4 .3c-.2 -.1 -.4 0 -.5 0l.5 .1c.3 .3 -.9 .1 -.8 .4l-.4 -.3c.1 .1 -.5 .2 -.3 .3c.5 .1 1.1 .2 1.5 .2c.3 .2 -.5 .1 0 .3l-.6 -.2c-.2 -.1 -.9 .1 -.9 .3c.2 .2 .9 .4 1.2 .2c0 .1 -.3 .2 -.7 .1c.2 .3 .6 0 .9 .2c-.3 .1 -.8 .4 -1.3 .5l-.9 -.2v.1c-.7 -.2 -.5 .1 -1.2 0c-.1 .1 .1 .2 .3 .3c1.2 -.2 1.6 .4 2.6 .3c.3 .5 -2.5 .3 -.9 .7c.3 -.1 1.1 .2 .8 -.1c-.1 .2 1 .2 .6 .5c-.4 -.3 -1.1 .2 -1.7 -.1c.3 0 .3 -.2 .2 -.3c-.4 .1 -1.1 0 -1.1 .3c.1 .1 .1 .3 .7 .3c.6 0 -.1 -.2 .5 -.1c.2 .3 -.7 .3 .4 .5c-.1 -.2 .5 -.2 .9 -.2l.3 .2l-.4 -.1c-.3 .4 .7 .2 .6 .5l-.8 .2c-.7 -.1 .3 -.5 -.8 -.5c-.1 .2 .5 .3 .2 .6l-.2 -.2c-.1 .1 -1.5 .1 -.7 .5c.4 .2 .4 0 .8 0c.2 .4 .6 .5 .6 .8c-.8 -.1 0 .4 -.9 .1c.5 -.1 .5 -.6 -.3 -.8c-1 .1 .1 -.3 -.8 -.4c-.1 .3 -1 .3 -1.6 .3c-.1 .1 .2 .2 .3 .3c.6 0 .6 -.1 1.2 -.1c-.2 .3 .1 .7 .7 .9c-.3 .1 -.9 0 -.9 -.1c.1 .4 0 .8 -.1 1.2c.9 -.2 .2 .4 1 .3c.2 -.2 .9 -.4 1.3 -.3c-.1 .2 -.4 0 -.6 .1c.5 .1 -.9 .2 -.1 .4c-.3 -.4 -1.1 -.1 -1.9 -.2c.5 .3 -.5 0 -.5 .3c.4 .2 .7 .6 .9 .8c-.7 .4 0 1 0 1.3c-.4 .2 -1.2 .1 -1.4 .2c0 .3 .9 -.1 .5 .2h-.1c.2 .1 -.6 .6 .6 .7l-.9 -.1c-.1 0 .1 .1 .2 .1c-.3 0 -.6 .1 -.7 0c-.7 .2 0 .4 .1 .6l.5 -.1c.4 .4 -.1 .6 .1 1h-.6l.4 .2c-.6 -.1 -.9 .1 -.5 .2l-1.3 -.5c.4 -.2 .7 .1 1.2 0c.5 0 .3 -.4 -.2 -.4c0 .1 .1 .1 .3 .2c-.8 0 -.7 -.2 -1.2 -.3c0 .1 -.2 .2 0 .2c-.4 -.1 -.4 -.2 -.4 -.5c.3 .2 .4 0 .6 0c-.6 0 -.8 -.2 -.6 -.5c.7 -.2 -.5 -.5 -.3 -.8c.7 .1 1.2 .3 1.5 .5c.3 -.2 0 -.2 .3 -.4c-.5 -.1 -1.3 -.2 -1.5 -.5h.4c-.2 -.2 -.9 -.2 -.8 -.5c.3 -.5 .3 -1 .3 -1.4h.5c-1 -.3 -.3 -.8 -.8 -1.1c.5 -.5 -.4 -1 .4 -1.3c-.4 -.9 -.7 -1.6 -.5 -2.5l.7 .1c-.5 -.1 .4 -.1 .3 -.2c-.6 .1 -.7 -.3 -1.2 -.4c.6 -.4 0 -.9 -.5 -1.3h.5c-.9 -.3 -.1 -.8 .1 -1.2c.2 -.1 .6 -.1 .6 -.3c-.8 -.2 -.8 -.3 -1.2 -.7c0 -.3 .2 -.7 .5 -1c-1.1 -1 -.4 -1.9 -1 -3h.5c-1.2 -1 0 -2.2 -.7 -3.1l1 .1c.3 -.3 -.2 -.6 -.9 -.6c.3 -.2 -.5 -.6 .3 -.8c.2 -.2 -.4 -.3 -.5 -.5c.3 -.6 .2 -.8 .1 -1.3l-.1 .1c.2 .1 .6 .1 .7 0c-.3 -.2 .3 -.7 -.9 -.6c.7 -.5 -.5 -1.2 .4 -1.8c-.3 .1 -.4 0 -.6 -.1c0 -.5 .7 -1 .1 -1.4c.2 0 .6 .2 .6 0c-.1 -.2 -.4 0 -.6 -.2c-.6 -.8 .7 -1.6 .5 -2.3c-.6 -1.2 -.3 -2.5 -.3 -3.7h.2c-.9 -.4 .9 -1 -.4 -1.3c.2 -.1 .1 -.4 .6 -.3c-.7 -.3 .6 -.9 -.2 -1.3c-.1 0 0 0 .1 .1c.5 -.5 -.2 -.9 .3 -1.4c.1 .1 .2 .1 .4 .2c.4 -.2 -1 -.5 .1 -.6c0 -.1 -.5 -.1 -.5 0c.5 -1.1 -.2 -2.3 -.5 -3.4c.7 -.8 1.9 0 1.1 -.7c.2 0 -.4 0 -.2 0c-.3 -.3 1.3 -.4 .7 -.5c-.7 0 -.4 -.2 -.8 -.2c.4 -.5 1.1 -.6 .5 -.9h.4c-1 -.5 -.5 -1 -1.6 -1.4c-.2 -2.5 -.8 -5 -.9 -7.4c.2 -2.4 -.2 -4.8 .4 -7.3c1 -.5 1 -.6 .6 -1.2c.1 0 .2 0 .3 0c-.8 0 0 -.4 -.8 -.5c.2 -.9 0 -1.8 0 -2.7c.1 .1 .7 .2 .6 .1l-.4 -.2l.2 -.1c-.1 -.1 -.5 -.2 -.8 -.1c-.6 -2.4 1 -4.7 .8 -7c.4 -.5 .1 -1.3 -.1 -1.9c1.1 -1.7 2 -3.3 1.3 -5.1c0 0 2 .2 2.4 1Z" class="g3_80"/>
<path d="M335.2 506.6c.4 -.1 .6 -.3 1.1 -.1c-.4 0 -.8 .1 -1.1 .1Z" class="g3_80"/>
<path d="M339.3 501.1c-.1 0 .1 0 .2 0c0 0 .4 .1 .2 .1c-.1 0 -.3 0 -.4 -.1Z" class="g3_80"/>
<path d="M339.5 499.7c.4 .1 .7 .4 .7 .6Z" class="g3_80"/>
<path d="M341 498.5c.3 -.1 .4 -.1 .4 0Z" class="g3_80"/>
<path d="M340.2 498.4c0 -.1 .2 -.2 .4 -.2c-.3 0 .2 .2 -.4 .2Z" class="g3_80"/>
<path d="M341.3 495.5c-.1 0 -.4 -.2 0 -.2c-.2 0 .5 .3 0 .2Z" class="g3_80"/>
<path d="M340.8 494.2l-.1 -.1c.2 -.1 .5 0 .5 .1Z" class="g3_80"/>
<path d="M339.8 470.2l.1 .2h-.3Z" class="g3_80"/>
<path d="M339.9 459.7c-.2 -.1 .3 -.1 .4 -.1c0 .1 -.4 0 -.4 .1Z" class="g3_80"/>
<path d="M338.3 454v.1h-.7Z" class="g3_80"/>
<path d="M342.7 441.1c.1 .1 .3 -.2 .2 0c-.2 .1 -.3 .1 -.2 0Z" class="g3_80"/>
<path d="M328 436.1c-.5 -.9 .6 -.9 .3 -1.6c0 -.1 .4 .3 .4 .1c-.4 -.7 .4 -1.1 1.1 -1.3l.1 .1c.2 0 -.2 -.4 -.1 -.5q.1 .1 .3 .2c-.3 -.2 0 -.2 -.2 -.4l.4 .2l-.2 -.3c-.6 -.5 .3 -.3 .1 -.7l.1 .1c-.2 -.6 .2 -.9 .3 -1.4c0 .1 .2 .2 .3 .3c-.2 -.2 -.2 -.4 -.2 -.5c.3 .1 -.2 -.4 0 -.4l.1 .1c-.3 -.3 .2 -.1 -.1 -.4l.3 .1c-.4 -.3 .3 0 .1 -.2H331c0 -.1 .2 0 .2 -.1c0 -.2 .3 -.2 -.1 -.4c.3 .1 .1 .2 .5 .4c0 -.7 .3 -1.1 .6 -1.6c.2 0 .3 0 .4 .1c-.1 -.1 0 -.3 -.1 -.4c0 0 .2 .1 .2 0c.2 0 -.3 -.3 -.1 -.3l.3 .3c-.2 -.3 -.1 -.4 -.1 -.5c0 0 .1 .1 .2 .1c-.3 -.2 .1 -.1 0 -.3l.2 .1c.3 0 -.4 -.3 -.2 -.3l.2 .1c-.2 -.3 0 -.4 -.1 -.6l.1 .1c.1 -.2 .2 -.3 .2 -.5c.1 0 .4 .3 .5 .1c-.4 -.2 -.1 -.3 -.5 -.5c.1 -.1 .4 -.2 .3 -.3c.1 .1 .5 .2 .4 .3l.3 .1c.2 .1 -.1 0 .1 .1c0 -.1 0 -.3 .1 -.3c-.2 -.2 -.6 -.6 -.5 -.8c.1 .2 .4 .3 .4 .4l-.6 -.7c.1 -.1 .3 .2 .3 0L334 424c0 0 0 -.2 .4 0c.2 .1 0 .1 .2 .1c0 -.1 -.1 -.1 0 -.2c.1 0 0 -.3 -.3 -.3c0 0 .3 .1 .1 .1c-.2 -.2 -.2 -.3 -.1 -.4c0 0 .1 .1 .2 .2c-.2 -.3 -.2 -.5 -.2 -.7c-.2 -.1 .2 .2 .1 .2c.4 0 -.1 -.6 .4 -.5c0 0 -.3 -.2 -.2 -.1c0 -.1 .3 .1 .2 0c.2 0 0 -.1 0 -.2c-.1 -.1 .1 0 .1 .1c-.1 -.1 -.1 -.3 -.1 -.4v-.1h.1c-.5 -.1 4.2 .4 2.2 .2v.3c.1 -.1 .4 -.1 .4 0l-.2 .1c-.2 .1 .1 .1 -.1 .2c.3 0 -.5 -.2 -.2 -.2c-.2 .1 .5 0 .1 .1c.1 .1 .4 .1 .2 .3c0 -.1 -.4 0 -.3 .1c.1 .1 .1 0 .2 .1h.2c.2 -.1 0 .1 .2 0c-.2 .1 .2 .1 -.2 .2l-.3 .2c0 0 .4 -.1 .5 -.1l-.1 .1c.5 -.2 0 .1 .4 0c-.1 .2 .1 .3 -.2 .5c.2 .1 .4 .1 .4 .2q-.1 0 -.2 0c-.1 .1 0 .1 .1 .1c-.1 .1 -.2 .3 -.4 .4c.2 .1 .5 -.1 .6 -.1c-.4 .2 .4 .1 0 .4c0 0 -.3 -.1 -.3 .1c-.5 .2 .4 0 .2 .2l.4 -.2c-.2 .2 .3 .1 -.1 .3c.2 0 -.1 .2 .3 0c-.2 .4 .4 .5 -.2 .9c0 0 0 .1 .2 0c.2 -.2 -.2 0 0 -.1c0 0 .1 0 .2 0q-.1 .1 -.5 .2c-.2 .2 .8 -.1 .7 .1q-.2 .1 -.2 .2h.3c0 .1 -.3 .2 -.6 .3q.1 .1 .3 .1l-.3 .2c.2 -.1 .2 0 .3 0h-.1c-.1 .1 0 .1 0 .1c.2 0 .2 -.2 .3 -.2q.1 0 .3 0c-.3 .1 -.2 .2 -.2 .3c0 .1 .3 -.1 .3 0c-.2 0 0 .1 -.2 .1c-.1 0 .1 -.1 0 -.1c-.1 .1 -.4 .2 -.2 .2c.2 0 .6 -.2 .4 0h-.3l-.1 .2l.3 -.1h-.1c.3 0 .1 .2 .4 .1c.1 0 -.1 .2 -.1 .2c-.1 .2 0 .2 .2 .2h-.1c0 .1 .1 .1 .3 .1c-.2 .2 -1 .4 -.6 .4c0 .1 .5 0 .6 -.1c-.1 .2 .4 .2 .1 .5h.2c0 .3 .5 .4 .1 .8c-.1 -.1 -.2 .1 -.4 .1c.3 0 -.2 .2 .2 0c.2 0 .4 -.1 .4 -.2c.2 .1 .3 .3 .1 .5c.1 -.1 .2 -.1 .3 -.1c-.4 .1 -.4 .3 -.3 .3l.3 -.1l-.2 .2c0 0 .4 -.2 .3 0l-.3 .1c.2 0 .6 0 .4 .2l-.2 .2c0 0 .2 0 .3 -.1c-.1 .2 -.1 .3 -.4 .5c.8 0 1 .4 1 .7h-.1c-.1 .2 .3 0 .2 .1c-.2 0 -.3 .2 -.5 .2c-.2 .2 .3 0 .4 .1c.2 -.1 -.1 0 .1 -.1c.1 -.1 -.1 .2 .3 .1c-.2 .1 -.4 .1 -.5 .2h.1c-.3 .2 -.7 0 -1.1 .3v.1c-.3 .2 -.4 -.1 -.5 .2c.2 0 .7 -.2 .8 -.3c.2 .1 .8 -.2 .9 0c-.2 .1 -.1 -.2 -.4 0c-.2 .2 .2 .1 .2 .2c.1 -.1 .4 -.2 .5 -.2c-.1 .2 -.3 .1 -.3 .2c.2 0 .3 0 .4 -.1c.5 -.2 0 .1 .3 .1c-.3 .1 -.7 .1 -.8 .3c.3 -.1 .4 0 .8 -.2c0 .1 -.2 .2 -.4 .2c-.2 .1 .6 0 0 .2l.3 -.1q-.1 .1 -.3 .2c0 .1 .5 .1 .1 .3c0 0 0 .1 .3 -.1c.2 -.1 -.2 0 .2 -.2c-.4 .2 0 .1 .2 .1l-.2 .1c.1 0 .1 .1 .3 0c-.1 0 -.2 .1 -.3 .1h.3c.2 .1 -.4 .2 -.3 .3h-.3c.1 0 -.1 .1 0 .1c.2 0 .5 -.1 .7 -.2c.1 .1 -.2 .2 0 .1l-.3 .1c-.1 0 -.4 .2 -.3 .3c.1 0 .5 0 .6 -.2c0 .1 -.1 .2 -.3 .2c.1 .1 .2 -.1 .4 -.1c-.1 .1 -.3 .3 -.5 .5l-.4 .1c-.4 .1 -.3 .2 -.6 .3c0 0 .1 0 .2 0c.5 -.3 .8 -.1 1.3 -.4c.2 .2 -1.2 .6 -.3 .5c.1 -.1 .5 -.1 .3 -.2c0 .1 .5 -.1 .4 .1c-.3 0 -.5 .3 -.8 .3c.1 -.1 0 -.2 0 -.2c-.2 .2 -.5 .2 -.5 .3c.1 .1 .2 .2 .4 .1c.3 -.2 -.1 -.1 .2 -.2c.2 .1 -.2 .3 .3 .1c-.1 0 .2 -.2 .4 -.2h.1l-.1 .1c-.1 .2 .3 -.1 .3 .1l-.3 .2c-.3 .1 0 -.3 -.5 -.1c.1 .1 .3 .1 .2 .2h-.1c0 0 -.7 .3 -.2 .3q.2 0 .4 -.1c.1 .1 .3 .1 .4 .2c-.4 .1 0 .2 -.4 .2c.2 -.1 .1 -.4 -.3 -.3c-.4 .3 0 -.1 -.5 0c.1 .2 -.4 .3 -.6 .5c-.1 0 .1 0 .1 0q.3 -.1 .6 -.2c0 .1 .2 .2 .5 .2c-.2 .1 -.4 .2 -.5 .1c.2 .2 .2 .4 .2 .5c.4 -.2 .2 .2 .5 0c.1 -.2 .3 -.4 .6 -.4c0 .1 -.2 .1 -.3 .1c.2 0 -.4 .3 0 .2c-.2 -.1 -.5 .2 -.9 .3c.3 0 -.2 .1 -.2 .2c.3 .1 .5 .1 .6 .2c-.3 .3 .2 .4 .2 .5c-.1 .2 -.5 .3 -.6 .4c.1 .1 .4 -.2 .3 0h-.1c.1 0 -.2 .3 .4 .2l-.4 .1c0 0 .1 0 .1 0c-.1 .1 -.2 .2 -.3 .1c-.3 .3 .1 .2 .1 .3l.3 -.2c.2 .1 0 .3 .2 .4l-.3 .1l.2 .1c-.3 0 -.4 .2 -.2 .1l-.7 .1c.2 -.2 .4 -.1 .6 -.2c.2 -.2 .1 -.3 -.2 -.2c0 .1 .1 0 .2 .1c-.4 .1 -.4 0 -.6 .1c0 0 -.1 .1 0 0c-.2 .1 -.2 0 -.3 -.1c.2 0 .2 -.1 .4 -.1c-.4 .1 -.5 0 -.4 -.1c.3 -.2 -.3 -.1 -.3 -.3c.3 -.1 .6 -.1 .7 -.1c.2 -.1 0 0 .1 -.2c-.2 .1 -.6 .2 -.8 .1l.3 -.1c-.2 0 -.5 .1 -.5 0c0 -.3 -.1 -.5 -.1 -.7l.2 -.1c-.5 .1 -.3 -.2 -.6 -.3c.2 -.3 -.3 -.3 0 -.6c-.3 -.3 -.6 -.5 -.7 -.9l.4 -.1c-.3 0 .1 -.1 .1 -.2c-.3 .2 -.4 .1 -.6 .1c.2 -.3 -.2 -.4 -.5 -.4l.2 -.1c-.5 0 -.2 -.3 -.2 -.6c.1 0 .3 -.1 .3 -.2c-.4 .1 -.4 0 -.7 -.1c-.1 -.1 0 -.3 0 -.5c-.6 -.2 -.5 -.7 -.9 -1l.2 -.1c-.7 -.2 -.4 -1 -.9 -1.2l.5 -.1c.1 -.2 -.2 -.2 -.5 -.1c.1 -.2 -.3 -.2 0 -.4c0 -.1 -.3 0 -.4 -.1c.1 -.3 0 -.4 -.1 -.6v.1c.1 0 .3 -.1 .3 -.2c-.2 0 0 -.3 -.5 0c.2 -.4 -.5 -.4 -.2 -.8c-.1 .1 -.2 0 -.3 0c-.1 -.2 .2 -.5 -.2 -.6c.1 0 .3 0 .3 -.1c-.1 0 -.2 .1 -.3 0c-.4 -.2 0 -.7 -.2 -1c-.5 -.4 -.5 -1 -.8 -1.5h.1c-.5 0 .3 -.6 -.4 -.5c.1 -.1 0 -.2 .2 -.2c-.3 0 .1 -.5 -.3 -.5h.1c.1 -.3 -.3 -.4 -.1 -.6c0 0 .1 0 .2 -.1c.2 -.1 -.6 0 0 -.2c-.1 -.1 -.3 .1 -.3 .1c0 -.6 -.5 -.9 -.8 -1.3c.2 -.5 .9 -.4 .4 -.5c.1 -.1 -.2 0 -.1 0c-.2 0 .5 -.4 .2 -.4q-.2 .1 -.3 .1c-2.5 -.2 3.3 .3 2.7 .3h.1c-.3 .1 -.6 0 -.5 .3l-.1 -.2c.3 .5 0 .6 .4 1c-.5 1 -.8 2.1 -1.4 3.1c-.6 .9 -1 1.9 -1.8 2.7q-.6 0 -.5 .4l-.2 -.1c.3 .2 -.1 .2 .2 .4c-.2 .3 -.3 .7 -.6 1c0 -.1 -.2 -.2 -.2 -.2l.1 .2h-.1c.1 .1 .2 .2 .3 .2c-.2 1.1 -1.5 1.6 -1.9 2.5c-.3 .2 -.4 .5 -.4 .8c-.9 .4 -1.6 .8 -1.7 1.7c0 0 -.8 -.6 -.9 -1Z" class="g3_80"/>
<path d="M342.6 441c.2 -.1 .2 -.3 .5 -.3Z" class="g3_80"/>
<path d="M343.6 437.9c-.1 0 0 -.1 0 -.1c.1 .1 .2 0 .1 .1c0 0 -.1 0 -.1 0Z" class="g3_80"/>
<path d="M343.4 437.3c.2 -.1 .4 0 .4 .1Z" class="g3_80"/>
<path d="M343.9 436.5c.1 -.1 .2 -.2 .2 -.1Z" class="g3_80"/>
<path d="M343.5 436.6c0 -.1 .1 -.1 .1 -.2c-.1 .1 .2 .1 -.1 .2Z" class="g3_80"/>
<path d="M343.5 435.2c0 0 -.2 0 0 -.1c-.1 .1 .2 0 0 .1Z" class="g3_80"/>
<path d="M343 434.7c.1 -.1 .2 -.1 .2 -.1Z" class="g3_80"/>
<path d="M338.3 425h.1h-.1Z" class="g3_80"/>
<path d="M334 423c.1 .2 -.1 0 -.2 0c0 -.1 .2 .1 .2 0Z" class="g3_80"/>
<path d="M333.4 425.7v0l.3 .1Z" class="g3_80"/>
<path d="M391.8 719.4c.2 .3 .7 -.1 .3 .2c-.3 0 -.5 -.1 -.3 -.2Z" class="g3_80"/>
<path d="M393.5 640.7c1.8 1 0 2.2 1.1 3.2c.1 .2 -1 0 -.7 .3c1.4 1 .5 2.6 -.6 3.8l-.3 -.1c-.2 .2 .7 .5 .6 .8c-.2 0 -.3 -.1 -.5 -.1c.5 .1 .2 .5 .6 .6c-.2 .1 -.6 .1 -.9 .2l.7 .1c1.5 .5 -.2 1 .6 1.5c-.1 0 -.2 0 -.4 0c.9 .9 .7 1.9 1.1 2.9c-.3 0 -.7 -.1 -.9 0c.6 0 .8 .3 .9 .6c-.7 .1 .7 .4 .3 .7h-.2c.7 .3 -.4 .3 .5 .5l-.6 .2c1 .1 -.5 .3 0 .5h.2c.2 .1 -.3 .2 -.1 .4h-.1c.2 .4 -.3 .6 .5 .6c-.7 .1 -.3 -.4 -1.2 -.2c.8 1.3 .6 2.6 .6 3.8c-.3 .1 -.4 .2 -.7 .3c.1 .1 .1 .4 .5 .6c0 -.1 -.4 0 -.4 .1c-.3 .2 .8 .3 .5 .5c-.2 -.1 -.5 -.1 -.8 -.1c.6 .2 .5 .5 .7 .8c-.1 -.1 -.2 -.1 -.4 -.1c.6 .2 -.2 .5 .2 .7l-.4 -.1c-.5 .4 .9 .1 .6 .5c-.1 -.1 -.3 -.1 -.5 -.1c.8 .3 .5 .8 .8 1.1c-.1 0 -.2 0 -.2 0c.1 .4 -.1 .7 .2 1.1c-.2 .1 -1.1 -.1 -.9 .3c.9 0 .3 .6 1.3 .4c-.1 .3 -.5 .8 -.2 1c-.3 -.1 -1 .2 -1.1 -.1l-.5 .2c-.4 -.1 .1 -.2 -.4 -.2c.1 .2 .4 .5 .3 .7c.5 .2 1.5 .4 1.6 .8c-.3 -.2 -1 .1 -1.1 0l1.7 .5c0 .2 -.7 .1 -.5 .3c.2 -.1 .4 0 .6 .1c-.1 0 .2 .5 -.7 .6c-.3 0 -.2 -.2 -.5 -.1c0 .2 .3 .2 .3 .5h-.1c-.1 .1 .4 .5 .8 .3c.1 -.1 -.5 0 -.2 -.1c.5 .1 .6 .4 .6 .6c-.1 -.1 -.3 -.1 -.6 -.1c.7 .3 .9 .7 1.2 1c.4 0 -.8 -.1 -.6 -.2c-.5 .5 .8 1 0 1.3c-.1 0 .6 0 .5 0c-.1 .2 -.7 .2 -.5 .4c-.3 0 .1 .1 .3 .3c.2 .1 -.2 0 -.3 -.1c.3 .2 .9 1 .3 1.5c.3 0 .9 .3 .9 .4h-.6c-.3 .1 .1 .3 -.4 .3c.7 .3 -.6 -.9 0 -.5c-.5 0 .8 .4 .1 .3c0 .2 .6 .5 .1 .7c.1 -.1 -.8 -.2 -.7 0c.1 .3 .2 .1 .4 .3l.2 .2c.6 0 0 .2 .5 .1c-.4 .1 .3 .5 -.6 .5l-.7 -.1c.1 .1 .8 .2 1.1 .3c-.1 .1 -.2 .1 -.3 .1c1 0 -.1 .3 .7 .5c-.4 .2 -.1 .7 -.7 .8c.3 .2 .7 .4 .4 .7q-.1 -.1 -.3 -.2c-.3 .2 -.1 .2 .1 .4c-.1 -.1 -.6 .3 -1 .4c.3 .3 .9 .2 1.2 .2c-1 .2 .7 .6 -.2 .9c-.2 -.1 -.6 -.3 -.8 -.2c-1.1 .2 .7 .4 .2 .7h.9c-.5 .1 .5 .5 -.4 .4c.3 .1 -.3 .4 .6 .4c-.8 .5 .4 1.2 -1.1 1.5c.1 .1 -.1 .3 .4 .3c.5 -.2 -.3 -.2 0 -.3c0 .1 .2 .1 .3 .1c-.1 .2 -.2 .3 -.9 .2c-.5 .3 1.4 .4 1.1 .8c-.4 0 -.5 0 -.4 .1l.5 .3c-.1 .3 -.8 .2 -1.3 .2c.1 .1 0 .3 .5 .4l-.8 .2c.6 -.2 .4 .1 .5 .2l-.1 -.1c-.3 0 -.1 .2 -.1 .3c.4 0 .6 -.2 .7 -.3c.2 .1 .2 .2 .5 .3c-.6 0 -.4 .3 -.5 .4c-.1 .2 .5 .2 .5 .2c-.3 0 -.1 .3 -.5 .1c-.1 0 .3 -.1 0 -.1c-.2 0 -.7 0 -.3 .2c.3 .2 1.1 0 .7 .3c-.1 -.1 -.3 -.1 -.5 -.2l-.3 .3h.5c-.1 0 -.2 0 -.3 0c.6 .1 .2 .4 .8 .5c.1 .1 -.3 .3 -.4 .4c-.4 .1 -.2 .3 .2 .5h-.1c-.1 .1 0 .3 .3 .4c-.4 .2 -2 0 -1.3 .3c0 .2 .9 .3 1.3 .2c-.4 .4 .5 .9 -.3 1.2c.2 .1 .3 .1 .4 .2c-.2 .5 .6 1.2 -.4 1.6c-.2 -.1 -.5 0 -.8 0c.4 .2 -.5 .2 .3 .2c.4 0 .7 .1 .9 -.1c.2 .3 .2 .9 -.2 1c.2 0 .3 0 .5 .1c-.8 0 -.9 .2 -.6 .4l.4 .1l-.5 .1c.2 0 1 .1 .6 .2l-.5 .1c.4 .2 1 .5 .6 .7l-.7 .2c.1 .1 .5 .2 .7 .1c-.4 .3 -.5 .6 -1.1 .7c1.5 .6 1.5 1.5 1.4 2.3l-.4 -.1c-.3 .2 .6 .2 .4 .3c-.3 -.1 -.7 .1 -1.1 0c-.4 .2 .6 .3 .7 .5c.5 .1 -.3 -.1 .3 -.1c.2 .1 -.4 .4 .3 .5c-.2 0 -.7 0 -1 -.1l.3 .2c-.8 .2 -1.4 -.5 -2.4 -.3l.1 .2c-.8 .1 -.8 -.5 -1.1 -.1c.3 .2 1.4 .4 1.7 .2c.1 .4 1.6 .2 1.5 .6c-.4 .1 0 -.3 -.6 -.3c-.6 .2 .3 .4 .1 .6c.3 -.2 .9 0 1.1 .1c-.4 .2 -.7 -.2 -.8 .1c.4 .1 .7 .3 1 .1c.9 .1 -.2 .3 .5 .5c-.7 .1 -1.5 -.3 -1.8 0c.6 -.1 .8 .4 1.7 .2c-.2 .1 -.6 .1 -1 0c-.4 .2 1.1 .5 -.1 .5l.6 .1c-.2 0 -.4 .1 -.7 .2c0 .1 .8 .5 -.1 .5c.1 0 0 .3 .7 .2c.4 -.2 -.5 -.2 .4 -.3c-.7 .1 .1 .3 .3 .4h-.3c.1 .1 0 .3 .4 .3c-.2 0 -.4 0 -.5 0l.5 .1c.3 .3 -.9 .1 -.8 .4l-.4 -.3c.1 .1 -.4 .2 -.3 .3c.5 .1 1.1 .2 1.5 .3c.3 .1 -.5 0 0 .2l-.6 -.2c-.2 -.1 -.9 .1 -.9 .3c.2 .2 .9 .4 1.2 .2c0 .1 -.3 .2 -.7 .1c.2 .3 .6 0 .9 .2c-.3 .1 -.8 .4 -1.3 .5l-.9 -.2v.2c-.7 -.2 -.5 0 -1.2 -.1c-.1 .1 .1 .3 .3 .4c1.2 -.3 1.6 .3 2.6 .3c.3 .4 -2.5 .2 -.9 .6c.3 0 1.1 .2 .8 -.1c-.1 .3 1 .2 .6 .5c-.4 -.2 -1.1 .2 -1.7 -.1c.3 0 .3 -.2 .2 -.2c-.4 .1 -1.1 -.1 -1.1 .2c.1 .1 .1 .4 .7 .3c.6 0 -.1 -.2 .5 -.1c.2 .3 -.7 .4 .4 .5c-.1 -.2 .5 -.2 .9 -.2l.3 .2h-.4c-.3 .3 .7 .1 .6 .4l-.8 .2c-.7 -.1 .3 -.5 -.8 -.5c-.1 .3 .5 .3 .2 .6l-.2 -.2c0 .1 -1.5 .1 -.7 .5c.4 .2 .4 0 .8 .1c.2 .3 .6 .5 .6 .7c-.8 -.1 0 .4 -.9 .1c.5 -.1 .5 -.6 -.3 -.8c-1 .2 .1 -.3 -.8 -.4c-.1 .3 -1 .3 -1.6 .4c-.1 0 .2 .1 .3 .2c.6 0 .6 -.1 1.2 -.1c-.2 .3 .1 .7 .7 .9c-.3 .1 -.9 0 -.9 -.1c.1 .4 0 .8 -.1 1.2c.9 -.2 .2 .4 1 .3c.2 -.2 .9 -.4 1.3 -.3c-.1 .2 -.4 0 -.6 .1c.5 .2 -.9 .2 0 .4c-.3 -.4 -1.2 -.1 -1.9 -.2c.4 .3 -.6 0 -.6 .3c.4 .2 .7 .6 .9 .9c-.7 .3 0 .9 0 1.2c-.4 .2 -1.2 .1 -1.4 .2c0 .3 .9 -.1 .5 .2h-.1c.2 .1 -.6 .6 .6 .7l-.9 -.1c-.1 0 .1 .1 .2 .1c-.3 0 -.6 .1 -.7 0c-.7 .2 0 .4 .1 .6l.5 -.1c.4 .4 -.1 .6 .1 1h-.6l.4 .2c-.6 -.1 -.9 .1 -.5 .3l-1.2 -.6c.3 -.2 .6 .2 1.1 .1c.5 -.1 .3 -.4 -.2 -.5c0 .1 .1 .1 .3 .2c-.8 .1 -.7 -.1 -1.2 -.2c0 0 -.2 .1 0 .1c-.3 -.1 -.4 -.2 -.4 -.5c.3 .2 .4 0 .7 0c-.7 0 -.9 -.2 -.7 -.5c.7 -.2 -.5 -.5 -.3 -.8c.7 .1 1.2 .3 1.5 .5c.3 -.2 0 -.2 .3 -.4c-.5 -.1 -1.2 -.2 -1.5 -.5h.4c-.2 -.2 -.9 -.2 -.8 -.5c.3 -.5 .3 -1 .3 -1.4h.5c-1 -.3 -.3 -.8 -.8 -1.1c.5 -.4 -.4 -1 .4 -1.3c-.4 -.8 -.7 -1.6 -.5 -2.5l.7 .1c-.5 -.1 .4 -.1 .3 -.2c-.6 .2 -.7 -.2 -1.2 -.4c.6 -.4 0 -.9 -.5 -1.2l.5 -.1c-.9 -.3 -.1 -.7 .1 -1.2c.2 0 .6 -.1 .6 -.2c-.8 -.3 -.8 -.4 -1.2 -.8c0 -.3 .2 -.7 .5 -.9c-1.1 -1 -.4 -2 -1 -3.1h.5c-1.2 -1 0 -2.2 -.6 -3.1l.9 .1c.3 -.2 -.2 -.6 -.9 -.5c.3 -.3 -.5 -.7 .3 -.9c.2 -.2 -.4 -.3 -.5 -.5c.3 -.6 .3 -.8 .1 -1.3l-.1 .1c.2 .1 .6 .1 .7 0c-.3 -.2 .3 -.7 -.9 -.5c.7 -.6 -.5 -1.3 .4 -1.8c-.3 0 -.4 -.1 -.6 -.2c0 -.5 .7 -1 .1 -1.4c.2 0 .6 .2 .6 0c-.1 -.1 -.4 0 -.6 -.2c-.6 -.8 .7 -1.5 .5 -2.3c-.6 -1.2 -.2 -2.5 -.3 -3.7h.2c-.9 -.4 .9 -.9 -.4 -1.3c.2 -.1 .1 -.3 .6 -.3c-.7 -.3 .6 -.9 -.2 -1.3c-.1 0 0 0 .1 .1c.5 -.5 -.2 -.9 .3 -1.4c.1 .1 .2 .2 .4 .2c.4 -.2 -1 -.5 .1 -.6c0 -.1 -.5 -.1 -.5 0c.5 -1.1 -.2 -2.2 -.5 -3.4c.7 -.8 1.9 0 1.1 -.6c.2 -.1 -.4 -.1 -.2 -.1c-.3 -.2 1.3 -.3 .7 -.5c-.7 0 -.4 -.2 -.8 -.2c.4 -.4 1.1 -.5 .5 -.9h.4c-1 -.5 -.5 -1 -1.6 -1.4c-.2 -2.5 -.8 -4.9 -.9 -7.4c.2 -2.4 -.2 -4.8 .4 -7.3c1 -.5 1 -.6 .6 -1.2c.1 0 .2 .1 .3 0c-.8 0 0 -.4 -.8 -.5c.2 -.9 0 -1.8 0 -2.7c.1 .2 .7 .2 .6 .1l-.4 -.2l.2 -.1c-.1 -.1 -.5 -.2 -.8 -.1c-.6 -2.4 1 -4.7 .8 -7c.4 -.5 .1 -1.3 -.1 -1.9c1.1 -1.7 2 -3.3 1.3 -5.1c0 0 2 .3 2.4 1Z" class="g3_80"/>
<path d="M391.8 719.1c.4 -.1 .6 -.3 1.1 -.1c-.4 0 -.8 .1 -1.1 .1Z" class="g3_80"/>
<path d="M395.9 713.7c-.1 -.1 .1 -.1 .2 -.1c0 0 .4 .1 .2 .2c-.1 -.1 -.3 -.1 -.4 -.1Z" class="g3_80"/>
<path d="M396.1 712.3c.4 0 .7 .3 .7 .5Z" class="g3_80"/>
<path d="M397.6 711c.3 -.1 .4 -.1 .4 .1Z" class="g3_80"/>
<path d="M396.8 710.9c0 -.1 .2 -.2 .4 -.2c-.3 0 .2 .2 -.4 .2Z" class="g3_80"/>
<path d="M397.9 708.1c-.1 -.1 -.4 -.3 0 -.3c-.2 0 .5 .3 0 .3Z" class="g3_80"/>
<path d="M397.4 706.7l-.1 -.1c.2 -.1 .5 0 .5 .1Z" class="g3_80"/>
<path d="M396.4 682.7l.1 .2h-.3Z" class="g3_80"/>
<path d="M396.5 672.2c-.2 -.1 .3 0 .4 -.1c0 .2 -.4 0 -.4 .1Z" class="g3_80"/>
<path d="M394.9 666.6v0h-.7Z" class="g3_80"/>
<path d="M399.3 653.6c.1 .1 .3 -.2 .2 0c-.2 .1 -.3 .1 -.2 0Z" class="g3_80"/>
<path d="M384.6 648.6c-.5 -.9 .6 -.9 .3 -1.6c0 0 .4 .3 .4 .1c-.4 -.7 .4 -1.1 1.1 -1.3l.1 .1c.2 0 -.2 -.4 0 -.4c0 0 0 .1 .2 .1c-.3 -.2 0 -.2 -.2 -.4l.4 .2l-.2 -.2c-.5 -.6 .3 -.4 .1 -.8l.1 .1c-.2 -.6 .2 -.9 .3 -1.4c0 .1 .2 .2 .3 .3c-.2 -.2 -.2 -.4 -.2 -.5c.3 .1 -.2 -.4 0 -.4l.1 .1c-.3 -.3 .2 0 -.1 -.3h.3c-.4 -.2 .3 .1 .1 -.1l-.1 -.1c0 -.1 .2 0 .2 -.1c0 -.2 .3 -.2 0 -.4c.2 .1 0 .3 .4 .4c0 -.7 .3 -1.1 .6 -1.6c.2 0 .3 0 .4 .1c-.1 -.1 0 -.3 -.1 -.4c0 0 .2 .1 .2 .1c.2 -.1 -.3 -.4 -.1 -.4l.3 .3c-.2 -.3 -.1 -.4 -.1 -.5c0 0 .1 .1 .2 .1c-.3 -.2 .1 -.1 0 -.3l.2 .1c.3 0 -.4 -.2 -.2 -.3l.2 .2c-.2 -.4 0 -.5 0 -.7v.1c.1 -.2 .3 -.3 .2 -.5c.1 0 .4 .3 .5 .1c-.4 -.2 -.1 -.3 -.5 -.5c.1 -.1 .4 -.2 .3 -.3c.1 .1 .5 .2 .4 .3l.3 .1c.2 .1 -.1 0 .1 .1c0 0 0 -.3 .1 -.3c-.2 -.2 -.6 -.6 -.5 -.7c.1 .1 .4 .2 .4 .3l-.6 -.7c.1 0 .4 .2 .3 .1l-.2 -.2c0 0 0 -.3 .4 -.1c.2 .1 0 .1 .2 .2c0 -.1 -.1 -.2 0 -.3c.1 0 0 -.3 -.3 -.3c0 0 .3 .1 .1 .1c-.2 -.2 -.2 -.3 -.1 -.4c0 .1 .1 .1 .2 .2c-.2 -.3 -.2 -.5 -.2 -.7c-.2 -.1 .2 .2 .1 .2c.4 0 -.1 -.6 .4 -.5c0 0 -.3 -.1 -.2 -.1c0 -.1 .3 .1 .2 0c.2 .1 0 -.1 0 -.2c-.1 -.1 .1 0 .1 .1c-.1 -.1 -.1 -.3 -.1 -.4v-.1h.1c-.5 0 4.2 .4 2.2 .2v.3c.1 0 .4 0 .4 0l-.2 .1c-.2 .1 .1 .1 -.1 .2c.3 0 -.5 -.2 -.2 -.2c-.2 .1 .5 0 .2 .1c0 .1 .3 .1 .1 .3c0 -.1 -.4 0 -.3 .1c.1 .1 .1 0 .2 .1h.2c.2 -.1 0 .1 .2 0c-.1 .1 .2 .1 -.2 .3l-.3 .1c.1 0 .4 -.1 .5 -.1l-.1 .1c.5 -.2 0 .1 .4 .1c-.1 .1 .1 .3 -.2 .4c.2 .1 .4 .1 .4 .2q-.1 0 -.2 0c-.1 .2 0 .1 .1 .2c-.1 0 -.2 .2 -.4 .3c.2 .1 .5 -.1 .6 -.1c-.4 .3 .4 .1 0 .4c0 0 -.2 0 -.3 .1c-.5 .3 .4 0 .2 .2l.4 -.2c-.2 .2 .3 .1 -.1 .3c.2 0 -.1 .2 .3 0c-.2 .4 .4 .5 -.2 .9c.1 0 0 .1 .2 0c.2 -.1 -.2 0 0 -.1c0 0 .1 0 .2 0q-.1 .1 -.5 .2c-.2 .3 .8 -.1 .7 .2c-.2 0 -.2 .1 -.2 .1h.3c0 .1 -.3 .2 -.6 .3c.1 .1 .1 .2 .3 .1l-.3 .2c.2 -.1 .2 0 .3 0h-.1c-.1 .1 0 .1 0 .1c.2 0 .3 -.1 .3 -.2c.1 0 .1 .1 .3 0c-.3 .1 -.2 .2 -.2 .3c0 .1 .3 0 .3 0c-.2 0 0 .1 -.2 .1c-.1 0 .1 -.1 0 -.1c-.1 .1 -.4 .2 -.2 .2c.2 0 .6 -.2 .4 0h-.3v.2l.2 -.1l-.1 .1c.3 -.1 .1 .1 .4 0c.1 0 -.1 .2 -.1 .3c-.1 .1 0 .1 .2 .1h-.1c0 .1 .1 .1 .3 .1c-.2 .2 -1 .4 -.6 .4c0 .1 .5 0 .6 -.1c-.1 .2 .4 .2 .1 .5h.2c0 .3 .5 .4 .1 .8c-.1 0 -.2 .1 -.4 .1c.3 0 -.2 .2 .2 .1c.2 -.1 .4 -.2 .4 -.3c.2 .1 .3 .3 .1 .5c.1 -.1 .2 -.1 .3 -.1c-.4 .2 -.4 .3 -.3 .3l.3 -.1l-.2 .2c0 0 .4 -.2 .3 0l-.3 .1c.2 0 .6 0 .4 .2l-.2 .2c0 0 .2 0 .3 -.1c-.1 .2 -.1 .3 -.4 .5c.8 0 1 .4 1 .7h-.1c-.1 .2 .3 0 .2 .1c-.2 0 -.3 .2 -.5 .2c-.2 .2 .3 0 .4 .1c.2 -.1 -.1 0 .1 -.1c.1 0 -.1 .2 .3 .1c-.2 .1 -.4 .1 -.5 .2h.1c-.3 .2 -.7 .1 -1.1 .3v.1c-.3 .2 -.4 0 -.5 .2c.2 0 .7 -.1 .8 -.3c.2 .2 .8 -.2 .9 0c-.2 .1 -.1 -.1 -.4 0c-.2 .2 .2 .1 .2 .2c.1 -.1 .4 -.2 .5 -.2c-.1 .2 -.3 .1 -.3 .2c.2 0 .4 0 .4 -.1c.5 -.1 0 .2 .3 .1c-.3 .1 -.7 .1 -.8 .3c.3 -.1 .5 0 .8 -.2c0 .1 -.2 .2 -.4 .2c-.2 .1 .6 0 0 .2l.3 -.1c-.1 .1 -.1 .2 -.3 .3c0 0 .5 0 .1 .2c0 0 0 .1 .3 -.1c.2 -.1 -.2 0 .2 -.2c-.4 .2 .1 .1 .2 .1l-.2 .1c.1 0 .1 .1 .3 0c-.1 .1 -.2 .1 -.3 .2l.3 -.1c.2 .1 -.4 .2 -.3 .3h-.3c.1 0 -.1 .1 0 .2c.2 -.1 .5 -.2 .7 -.2c.1 0 -.2 .1 0 .1h-.3c-.1 0 -.4 .2 -.3 .3c.1 0 .5 0 .6 -.2c0 .1 -.1 .2 -.3 .2c.1 .1 .2 -.1 .4 -.1c-.1 .1 -.3 .4 -.5 .5l-.4 .1c-.4 .1 -.2 .2 -.6 .3c0 0 .1 0 .2 0c.5 -.3 .8 -.1 1.3 -.3c.2 .1 -1.2 .5 -.3 .4c.1 -.1 .5 -.1 .3 -.2c0 .1 .5 -.1 .4 .1c-.3 0 -.5 .3 -.8 .3q.1 -.1 0 -.1c-.2 .1 -.5 .1 -.5 .3c.1 0 .2 .1 .4 0c.3 -.1 -.1 -.1 .2 -.2c.2 .1 -.2 .3 .3 .2c-.1 -.1 .2 -.2 .4 -.3h.2l-.2 .1c-.1 .2 .3 -.1 .3 .1l-.3 .2c-.3 .1 0 -.3 -.5 -.1c.1 .1 .3 .1 .2 .2H400c0 0 -.7 .3 -.2 .3q.2 0 .4 -.1c.1 .1 .3 .1 .4 .2c-.4 .1 0 .2 -.4 .2c.2 -.1 .1 -.3 -.3 -.2c-.4 .2 0 -.2 -.5 -.1c.1 .2 -.4 .4 -.6 .5c0 0 .1 0 .1 0q.3 -.1 .6 -.2c0 .1 .2 .2 .5 .2c-.2 .1 -.4 .2 -.5 .1c.2 .2 .2 .4 .2 .6c.4 -.3 .2 .1 .5 -.1c.1 -.1 .3 -.3 .6 -.4c0 .1 -.2 .1 -.3 .2c.3 -.1 -.4 .2 0 .1c-.2 -.1 -.5 .2 -.9 .3c.3 .1 -.2 .1 -.2 .2c.3 .1 .5 .1 .6 .2c-.3 .3 .2 .4 .2 .6c-.1 .1 -.5 .2 -.6 .3c.1 .1 .4 -.2 .3 0h-.1c.1 0 -.1 .4 .4 .2l-.4 .1c0 0 .1 0 .1 0c-.1 .1 -.2 .2 -.3 .2c-.3 .2 .1 .1 .1 .2l.3 -.2c.2 .1 0 .3 .2 .4l-.3 .1l.2 .1c-.3 0 -.4 .2 -.2 .2h-.7c.2 -.2 .4 -.1 .6 -.2c.2 -.1 .1 -.3 -.2 -.2c0 .1 .1 .1 .2 .1c-.4 .1 -.4 0 -.6 .1c0 0 -.1 .1 0 .1c-.2 0 -.2 -.1 -.2 -.2c.1 0 .1 -.1 .3 -.1c-.3 .1 -.5 .1 -.4 -.1c.3 -.2 -.3 -.1 -.3 -.3c.3 0 .6 -.1 .8 0c.1 -.2 -.1 -.1 0 -.3c-.2 .1 -.6 .2 -.8 .1l.3 -.1c-.2 0 -.5 .1 -.5 0c0 -.3 -.1 -.5 -.1 -.7l.2 -.1c-.5 .1 -.3 -.2 -.5 -.2c.1 -.3 -.4 -.4 -.1 -.7c-.3 -.3 -.6 -.5 -.7 -.9l.4 -.1c-.3 0 .1 -.1 .1 -.2c-.3 .2 -.4 .1 -.6 .1c.2 -.3 -.2 -.4 -.5 -.4l.2 -.1c-.5 0 -.2 -.3 -.2 -.5c.1 -.1 .3 -.2 .3 -.3c-.4 .1 -.4 0 -.7 0c-.1 -.2 0 -.4 .1 -.5c-.7 -.2 -.6 -.8 -1 -1.1l.2 -.1c-.7 -.2 -.4 -.9 -.8 -1.2l.4 -.1c.1 -.2 -.2 -.2 -.5 -.1c.1 -.1 -.3 -.2 0 -.4c0 -.1 -.3 0 -.4 -.1c.1 -.3 0 -.4 -.1 -.6v.1c.1 0 .3 -.1 .3 -.1c-.2 -.1 0 -.4 -.5 -.1c.2 -.3 -.5 -.4 -.2 -.8c-.1 .1 -.2 0 -.3 0c0 -.2 .2 -.5 -.1 -.6c0 0 .2 0 .2 -.1c-.1 0 -.2 .1 -.3 .1c-.4 -.3 0 -.8 -.2 -1.1c-.5 -.4 -.5 -1 -.8 -1.5h.1c-.5 0 .3 -.6 -.4 -.5c.1 -.1 0 -.1 .2 -.2c-.3 0 .1 -.5 -.3 -.5h.1c.1 -.3 -.3 -.3 -.1 -.6c0 0 .1 0 .2 0c.2 -.2 -.5 -.1 0 -.3c-.1 0 -.3 .1 -.3 .1c0 -.5 -.5 -.9 -.8 -1.3c.2 -.5 .9 -.4 .4 -.5c.1 -.1 -.2 .1 -.1 0c-.2 0 .5 -.4 .2 -.3q-.2 0 -.3 0c-2.4 -.2 3.3 .3 2.7 .3h.1c-.3 .1 -.6 0 -.5 .3l-.1 -.1c.3 .4 0 .5 .4 .9c-.5 1 -.8 2.1 -1.3 3.1c-.7 .9 -1.1 2 -1.9 2.7c-.6 0 -.5 0 -.5 .4l-.2 -.1c.4 .2 0 .2 .3 .4c-.3 .3 -.4 .7 -.7 1c0 0 -.2 -.2 -.2 -.2l.1 .2h-.1c.1 .1 .2 .2 .3 .2c-.2 1.1 -1.5 1.6 -1.9 2.5c-.3 .2 -.3 .5 -.4 .8c-.9 .4 -1.6 .8 -1.7 1.7c0 0 -.8 -.6 -.9 -1Z" class="g3_80"/>
<path d="M399.2 653.5c.2 -.1 .2 -.3 .5 -.3Z" class="g3_80"/>
<path d="M400.2 650.4c-.1 0 0 0 0 -.1c.1 .1 .2 0 .1 .1c0 0 -.1 0 -.1 0Z" class="g3_80"/>
<path d="M400 649.8c.2 -.1 .4 0 .4 .1Z" class="g3_80"/>
<path d="M400.5 649c.1 -.1 .2 -.1 .2 -.1Z" class="g3_80"/>
<path d="M400.1 649.1c0 -.1 .1 -.1 .1 -.2c-.1 .1 .2 .1 -.1 .2Z" class="g3_80"/>
<path d="M400.1 647.7c0 0 -.2 0 0 -.1c-.1 .1 .2 0 0 .1Z" class="g3_80"/>
<path d="M399.6 647.3q0 -.1 0 -.1c.1 0 .2 -.1 .2 0Z" class="g3_80"/>
<path d="M394.9 637.5h.1l-.1 .1Z" class="g3_80"/>
<path d="M390.6 635.6c.1 .1 -.1 -.1 -.2 -.1c0 -.1 .2 .1 .2 .1Z" class="g3_80"/>
<path d="M390 638.2v0l.3 .2Z" class="g3_80"/>
</svg>