<?xml version="1.0" encoding="UTF-8" standalone="no"?>
<!DOCTYPE svg PUBLIC "-//W3C//DTD SVG 1.1//EN"
"http://www.w3.org/Graphics/SVG/1.1/DTD/svg11.dtd">
<svg viewBox="0 0 660 990" version="1.1" xmlns="http://www.w3.org/2000/svg" xmlns:xlink="http://www.w3.org/1999/xlink">
<defs>
<style type="text/css"><![CDATA[
.g0_74{
fill: none;
stroke: #949698;
stroke-width: 0.763;
}
.g1_74{
fill: #FFF;
}
.g2_74{
fill: none;
stroke: #BCBEC0;
stroke-width: 2.75;
}
.g3_74{
fill: #231F20;
}
]]></style>
</defs>
<path d="M318.5 969.1h23" class="g0_74"/>
<path d="M236.6 590.5H354.9V757.2H236.6V590.5Z" class="g1_74"/>
<path d="M236.6 590.5H354.9V757.2H236.6Z" class="g2_74"/>
<path d="M355.6 590.5H473.9V757.1H355.6V590.5Z" class="g1_74"/>
<path d="M355.6 590.5H473.9V757.1H355.6Zm.2 0V757.1" class="g2_74"/>
<path d="M354.7 364.6H473V531.2H354.7V364.6Z" class="g1_74"/>
<path d="M354.7 364.6H473V531.3H354.7Z" class="g2_74"/>
<path d="M236.6 364.6H355V531.2H236.6V364.6Z" class="g1_74"/>
<path d="M236.6 364.6H355V531.3H236.6Zm119.2 0V531.2" class="g2_74"/>
<path d="M442.1 450.6L414.7 428.4l-27.3 22.2h7.7v25.8h39.3V450.6Z" class="g3_74"/>
<path d="M441.4 450.8c.5 .4 -.1 -.4 .4 .2c-.2 0 -.3 0 -.4 -.2Z" class="g3_74"/>
<path d="M439.9 450.2c-1.6 .6 -3.6 .3 -5.5 .3h-.1l.1 .1c0 .6 0 1.1 .1 1.6c.1 .3 -.4 0 -.3 .6c.6 2.2 .3 5.7 -.3 8.4l-.1 -.2c-.1 .5 .4 1.1 .3 1.7c-.1 0 -.1 -.2 -.2 -.1c.2 .2 .1 1 .3 1.3c-.1 .2 -.3 .2 -.5 .4l.3 .3c.7 .9 0 2.1 .4 3.3c-.1 0 -.2 -.1 -.2 -.1c.4 1.9 .3 4.3 .5 6.4c-.1 0 -.3 -.1 -.4 0c.3 .1 .3 .8 .4 1.3c-.2 .2 0 .5 .1 .9v.2l-.4 .1c-.2 .1 -.5 .1 -.8 .1l.1 -.1c-.5 .3 -.8 -.2 -1.2 .2l-.3 -.2c-.2 .4 -.7 -.3 -1.1 0v.1c-.4 .1 -.6 -.2 -.9 -.1h-.1c-.8 .1 -1.3 -.2 -1.3 .2c-.3 -.3 .9 -.2 .4 -.6c-2.8 .4 -5.6 .3 -8.4 .3c-.3 -.1 -.5 -.1 -.5 -.3c-.3 .1 -1.1 .1 -1.3 .3c.1 0 -.2 -.2 -.4 -.2c-.5 -.2 -.5 .4 -1.1 .2c.3 -.1 .3 -.2 .3 -.3c-.5 .2 -1.1 .2 -1.7 .3c.1 -.1 .2 -.1 .2 -.2c-.6 .3 -1.1 -.1 -1.6 .1l.2 -.2c-.9 -.2 -.3 .4 -1 .3c.1 -.1 .1 -.2 .1 -.2c-.7 .3 -1.8 .2 -2.5 .3c.1 0 0 -.1 0 -.1c-.7 .1 -1.5 0 -2.3 .1c-.3 -.1 .1 -.5 -.7 -.4c0 .4 -1.4 .2 -.9 .6c-.7 0 -1.8 -.2 -2.2 0c.3 -.2 -.4 -.5 .2 -.6l-.4 -.2c0 -.2 .4 0 .3 -.2c-.3 0 -1.1 .2 -1.4 .1c-.5 .3 -1 .8 -1.8 .8c.4 -.2 -.3 -.4 0 -.5l-1.2 .8c-.3 0 0 -.4 -.4 -.2c0 .1 -.2 .1 -.3 .2c-.1 0 -1.2 .1 -1.3 -.3c-.2 -.1 .4 -.1 .1 -.2c-.5 0 -.5 .1 -1.1 .1c-.3 -.1 -1 .2 -.6 .4c.2 0 -.1 -.3 .3 -.1c-.3 .2 -.9 .2 -1.4 .3c.2 -.1 .1 -.2 .2 -.3c-.5 .2 -1 .3 -1.5 .4l-.9 .1l-.2 -1.1l-.1 -.7c-.2 0 .4 .3 .3 .4c.2 -1 -.4 -2.1 0 -2.9c0 .1 -.3 .1 -.2 0c0 -.4 .3 -.4 .2 -.7c.1 -.1 -.1 -.4 -.1 -.8c-.2 -.1 0 0 .1 .2c-.2 -.4 -.4 -2.2 -.2 -3.3c-.1 .1 -.4 -.6 -.4 -.8h.3c.1 -.2 0 -.8 .2 -.8c-.3 -.5 .2 2 0 1.3c.2 -.2 -.4 -1 -.1 -.8c0 -.5 -.3 -1 0 -1.4c-.1 .1 .3 .3 .3 0c0 -.7 -.1 -.2 -.2 -.8L394 465c-.2 -.1 0 -.7 -.2 -.4c.2 -.1 -.2 -1 .2 -.9l.4 .1c-.1 -.3 -.4 -.5 -.5 -.8c0 0 .1 -.1 .1 -.1c-.5 0 .1 -.7 -.3 -1c.2 -.6 0 -1.6 .3 -1.9c-.1 -.5 -.3 -.9 -.2 -1.5c0 .2 .1 .3 .2 .3c.1 -.3 0 -.4 -.1 -.7c.1 .1 .3 -.7 .5 -1.1c-.2 -.5 -.5 -.3 -.6 -.3c.5 -.5 -.3 -1.4 .1 -1.9c.1 .1 .2 .7 .4 .3c.4 -.5 -.4 -.9 -.2 -1.6l-.4 .2c.3 -.3 -.2 -1.1 .2 -1c-.1 -.2 .1 -.8 -.2 -.7c.1 -.5 .1 -.9 .1 -1.4l1.3 1.3c-.9 0 -1.7 .1 -2.2 -.4c-.2 .1 -.6 0 -.5 .2c.3 .2 .4 -.1 .5 0c-.2 0 -.2 .1 -.2 .2c-.4 -.1 -.6 -.1 -.3 -.5c-.8 -.2 -.8 .7 -1.8 .6c0 -.2 -.1 -.3 -.4 -.2l-.5 .2c-.7 0 -.4 -.3 -.4 -.6c-.4 0 -.8 0 -1 .2l-.4 -.3c.3 .2 -.3 .1 -.4 .2l.1 -.1c0 0 -.1 0 -.2 0h-2.2l1.7 -1.4c.1 -.1 .3 -.2 .3 -.3c-.1 -.1 -.3 0 -.5 .1l-2.5 1.2l3.2 .7h.2c0 .1 -.1 .1 -.2 .1l-3 .7l2.2 -2.8c.1 -.1 .2 -.3 .3 -.4c.1 .2 .6 -.2 .8 -.4c.3 -.1 .1 -.4 .2 -.5c.1 .1 .4 -.3 .4 0c-.1 .1 -.3 .1 -.4 .3c.2 0 .4 .2 .6 -.3c.2 -.3 -.4 -.3 .2 -.6c-.1 .2 0 .3 -.1 .4l.6 -.2l-.2 -.2q.1 0 .2 0c-.1 -.3 .6 -.6 .5 -.9c.2 -.2 .6 -.3 .8 -.4c.4 -.1 .7 -.4 .8 -.8v.1c.2 -.1 .5 -.4 .6 -.7c.5 -.1 .7 .6 .9 .1c.4 -.3 .3 -.9 .1 -.9c.7 -.4 1.2 -1.3 2.1 -1.5c0 -.2 -.1 -.2 .1 -.4c1.1 -.7 1.9 -1.9 3 -2.2c-.2 .4 .1 .3 .2 .4c.1 -.4 .5 -.1 .3 -.5c-.2 -.1 -.2 -.2 -.5 -.1c.5 -.5 1.4 -1.3 1.8 -1.4c-.2 .1 -.1 -.1 0 -.2c.1 .3 .6 0 .9 -.4l-.1 -.2h.3c.1 -.1 -.1 -.5 .3 -.6c.1 .1 .2 .1 .3 .1c.2 -.4 .5 -1 1 -1.1l.5 -.1c.1 -.1 .3 -.5 -.1 -.3c.8 -.4 1.2 -.7 1.6 -.6c.6 -1.4 2.2 -2.7 3.5 -3.7l.1 .1c.4 -.1 0 -.3 .3 -.4c0 .2 .4 0 .3 .4c.6 -.3 .4 -.7 .7 -1.1c-.1 -.2 -.2 .4 -.3 .1c0 -.1 .8 -.4 .7 -.7c.2 0 .2 .2 .2 .4l.2 -.4c.6 0 -.4 1.2 .3 1.3l.3 -.3c.4 .1 -.5 .9 .2 .4c.2 -.3 .2 -.9 -.2 -.8c.6 -.6 -.2 -.8 .5 -1.4c.3 0 -.5 .5 -.2 .6c.5 0 .5 -.6 .9 -.8c-.4 .2 -.3 -.3 -.2 -.5c.5 -.1 0 .4 .5 .1c0 -.2 .3 -.7 -.2 -.5c0 -.5 .6 -.3 .7 -.8c.3 .1 -.1 1 .5 .6c-.2 -.1 .4 -.8 -.1 -.9q.1 0 .2 0l2.5 .7v-.7c0 .1 -.1 .2 -.2 .2l-2 .7l-.1 -.7c0 0 0 .1 0 .1l1.4 -.8l.6 .8c.3 .3 1 .1 .8 .6l.3 -.1c0 .1 .1 .3 .1 .5c.3 .2 1.1 .4 .8 .7c.1 .1 .7 .6 .7 .1c-.3 -.4 -.6 -.1 -.5 -.6c0 .5 .5 .4 .8 .5l-.1 .1c.2 .1 .5 .3 .7 .3c-.2 0 -.2 .1 -.1 .2l.3 -.1c.6 .3 -.2 .5 .3 .8l-.5 -.1c.2 0 .2 .3 .5 .5c.2 -.2 .6 -.2 .8 -.3c.3 .1 -.1 .3 .3 .3h-.5c-.1 0 0 .5 .4 .8c.3 .1 .9 .1 .6 -.3c.2 .2 .3 .5 .1 .5c.5 .3 .1 -.2 .5 0c.1 .2 .4 .8 .6 1.2h-.7l.3 .2c-.5 0 0 .3 -.4 .4c.1 .2 .4 .3 .7 .3c-.2 -.8 1 -.1 1.1 -.6c.8 .5 -.3 1.3 1 1.3c-.1 -.2 .5 -.2 0 -.4c.4 .4 .6 -.2 1 .4c-.6 -.1 .1 .7 -.7 .5c.2 -.1 -.2 -.3 -.3 -.4c0 .3 -.4 .4 .1 .7c.3 .2 .7 .5 .8 .3c.1 -.2 -.5 -.3 -.1 -.4c.6 .4 .4 .8 .9 .6c-.3 -.3 -.2 -.6 -.1 -.7l.5 .2l-.2 .1c.5 .6 .4 -.1 1 .4v.5c-.3 .2 -.8 -.8 -1 -.3c.4 .3 .7 .2 1 .7c-.1 -.1 -.2 -.2 -.4 -.2c.2 .1 -.1 .8 .7 .9c.4 .2 .2 0 .3 -.2c.7 .5 1 .5 1.5 .8c-.3 .2 .7 .6 0 .6c-.1 -.4 -1 -1.1 -1.5 -1c0 .5 -.5 -.5 -.9 -.3c.5 .5 .2 .8 .1 1.1c.2 .1 .4 .1 .5 .2c.2 -.2 0 -.3 .2 -.6c.5 .6 1.2 .9 1.7 1c.1 .2 -.1 .4 -.4 .2c.8 .5 1.5 1.1 2.1 1.7c-.2 -.7 .8 .5 .7 0c-.3 -.3 -.4 -.8 -.1 -.8c.2 .2 -.1 .1 -.1 .3c.5 0 .2 .6 .7 .6c-.7 -.4 -.4 .3 -.8 .4c.6 .3 -.1 .2 .3 .6c.6 .2 1.3 .5 1.8 .9c.4 .8 1.6 1.3 2.2 1.7c.2 .4 -.3 .6 0 .9c.4 .3 0 -.6 .4 0h-.1c.2 .1 .9 1.1 1.4 .8l-.4 .1c0 .2 .2 .2 .3 .2c-.1 .1 0 .3 -.3 .2c.2 .5 .8 .6 1.2 .9l-.1 -.4c.8 .4 1 .9 1.7 1.3l-.2 .2l.5 .2c-.2 .1 0 .5 .3 .5l-1.3 -.3c-.2 -.3 .5 0 .4 -.3c0 -.3 -.6 -.7 -.8 -.6q.2 .2 .4 .2c-.1 .3 -.4 .1 -.7 .1c.1 .1 .2 .3 .3 .2c-.3 0 -.6 -.2 -1 -.5c.4 .1 0 -.3 .2 -.2c-.2 .2 -.7 -.1 -1.1 -.5c-.1 -.5 -1 -.5 -1.5 -1.1c.5 0 .9 0 1.3 .2c-.3 -.4 -.4 -.3 -.6 -.7c-.3 .1 -.7 .2 -1.2 0l.1 -.2c-.5 -.3 -.7 0 -1.1 -.5c-.8 -.8 -1.7 -1.5 -2.4 -2l.1 -.2c-.6 0 -1.3 -.9 -1.9 -1.1c-.8 -.9 -2 -1.4 -2.2 -2c-1.6 -1.1 -3 -2 -4.5 -3.4h.4c-.4 0 0 -.3 -.3 -.5c.1 .5 -.6 0 -.9 0c-.6 -.8 -1.6 -1.3 -2.4 -1.6l.1 -.2c-.9 -.2 -1.4 -1.1 -2.1 -1.7c0 -.2 0 -.5 -.3 -.6c-.6 -.1 -.8 -.3 -1.6 -.6c-.4 -.4 -1.1 -1 -1.5 -1.5c-.2 -.1 -.5 -.3 -.7 -.4h1.5c-1.3 1.4 -2.9 2.4 -4.3 3.9l-.3 -.1c-1.3 1.8 -3.7 3.1 -5 4.5l-.1 -.5c-.6 .3 -1 1 -.7 1.1c-.5 .3 -1 1.1 -1.5 1c-.5 .4 -.4 .7 -.8 1c-1 .7 -1.3 1 -2.2 1.7l.3 -.1c0 -.2 -.1 -.3 -.3 -.2c-.3 .4 -1.3 .9 -.7 1.1c-1.1 .5 -2 1.9 -3.2 2.4c.2 0 0 .2 0 .4c-.9 .6 -1.9 1.1 -2.4 1.8c-.2 .1 0 -.3 -.3 -.1c-.2 .2 .1 .2 -.1 .4c-1.1 1.3 -2.9 2 -4 3.1c-.5 .4 -.9 .8 -1.4 1.2l-1.1 -3.2c2.2 -.1 4.4 0 6.5 0v.1c.3 -.2 .8 -.2 1.2 -.1l2 .3l-.2 1.5c-.1 .6 -.3 1.2 .1 1.6c-.1 .2 0 .8 -.2 .7c.3 .7 -.3 2 .1 3c0 -.1 -.1 -.2 -.1 -.3c-.2 1.1 .1 2 -.1 3.1c-.1 -.1 -.1 -.3 -.2 -.4c-.2 .4 .4 1 -.1 1.3c0 .2 .3 .1 .3 0c-.2 2.4 .1 4.9 .2 7.4c-.3 1.8 -.9 .1 -.5 1.5c-.1 .1 .2 .1 .1 .1c.2 .6 -.6 .9 -.3 1.3c.3 -.2 .2 .2 .4 .2c-.2 1.1 -.5 1.3 -.3 2.2l-.1 -.1c.4 1 .2 2.2 .7 3.1v1.1l-1.8 -1.9c5.1 -.1 10.1 -.4 15.2 -.5c5.4 .1 10.6 -.1 16.1 .2c1.2 .4 1.3 .4 2.7 .2c0 .1 -.1 .1 0 .2c0 -.4 1 0 1.1 -.4c1.4 .1 2.8 0 4.2 0l-2.1 2.2l-.1 -1.7c.1 .3 .4 .4 .3 .1l-.2 -.4l.1 -.1c0 -.3 -.2 -.6 -.3 -.3c-.3 -5.2 .4 -10.3 .3 -15.4c.1 -1.2 0 -3 -.1 -4.3c.2 -1.2 .3 -2.5 .5 -3.7l.1 -1.8l1.5 .1c2.5 .3 5 .4 7.7 .2c0 0 -.5 .9 -2.2 1.1Z" class="g3_74"/>
<path d="M440.8 450.3c0 -.2 -.3 -.5 .1 -.5c-.1 .2 0 .4 -.1 .5Z" class="g3_74"/>
<path d="M432.5 441.3c0 0 -.1 -.2 -.1 -.2c.1 0 .3 0 .4 .2c-.1 -.1 -.2 0 -.3 0Z" class="g3_74"/>
<path d="M430.2 439.2c.1 -.1 .7 .3 1 .5Z" class="g3_74"/>
<path d="M428.4 436.9c-.1 -.3 0 -.3 .2 -.1c0 .1 -.1 .1 -.2 .1Z" class="g3_74"/>
<path d="M428 437.1c-.2 -.2 -.3 -.3 -.3 -.5c-.1 .1 .5 .3 .3 .5Z" class="g3_74"/>
<path d="M423.4 432.8c-.1 -.1 -.5 -.2 -.5 -.5c.1 .2 .7 .3 .5 .5Z" class="g3_74"/>
<path d="M421 431.1q-.1 -.1 -.2 -.1c-.1 -.2 .1 -.2 .2 -.1Z" class="g3_74"/>
<path d="M393.9 454.2l-.1 -.3h.1Z" class="g3_74"/>
<path d="M396.1 477.6c.3 -.1 .2 .1 .3 .1c-.3 .1 .1 -.2 -.3 -.1Z" class="g3_74"/>
<path d="M408.6 476.8h-.1v-.4Z" class="g3_74"/>
<path d="M408 464.1c.2 0 -.1 -.2 .1 -.1c0 .1 0 .2 -.1 .1Z" class="g3_74"/>
<path d="M408.6 462.9c-.9 -.6 0 -1.4 -.6 -2.1c0 -.1 .5 0 .4 -.1c-.7 -.7 -.3 -1.7 .2 -2.5h.1c.1 -.1 -.3 -.3 -.2 -.5c.1 0 .1 .1 .2 .1c-.3 -.1 -.1 -.3 -.3 -.4c.1 -.1 .3 0 .4 -.1l-.3 -.1c-.7 -.3 .1 -.6 -.3 -1c.1 0 .1 .1 .2 0c-.4 -.5 -.4 -1.2 -.5 -1.8c.1 0 .3 0 .4 0c-.3 -.1 -.4 -.3 -.4 -.4c.3 -.1 -.3 -.3 -.2 -.5h.1c-.3 -.1 .2 -.2 -.2 -.3l.2 -.1c-.4 -.1 .3 -.2 .1 -.3h-.1c-.1 -.1 .1 -.2 0 -.3h.1c-.2 -.3 .1 -.4 -.3 -.4c.3 -.1 .2 .2 .6 .1c-.2 -.5 -.3 -1 -.3 -1.5l.2 .3h-.9c-.1 -.1 -.2 -.2 -.2 -.3c-.1 .1 -.3 .1 -.4 .2c0 0 -.1 -.1 -.1 -.2c-.1 -.1 -.2 .4 -.3 .3c0 -.1 .1 -.2 0 -.4c-.1 .3 -.3 .3 -.4 .4q0 -.1 0 -.3c-.2 .4 -.3 0 -.5 .2l.1 -.2c-.3 -.3 -.1 .4 -.3 .3c.1 -.1 0 -.2 0 -.3c-.2 .4 -.5 .3 -.7 .4c0 0 0 -.1 0 -.1c-.2 .1 -.4 -.1 -.7 .1c-.1 -.1 .1 -.5 -.2 -.4c0 .4 -.4 .2 -.2 .6c-.2 0 -.6 -.2 -.7 -.1c.1 -.1 -.1 -.5 .1 -.5l-.1 -.2c0 -.2 .1 0 0 -.2c0 0 -.3 .2 -.4 .1c-.1 .3 -.3 .7 -.5 .8c.1 -.2 -.1 -.5 0 -.5l-.3 .7c-.1 .1 -.1 -.3 -.2 -.2c0 .1 0 .2 -.1 .3c0 -.1 -.3 .1 -.3 -.3c-.1 -.2 .1 -.1 0 -.2c-.1 0 -.2 .1 -.3 .1c-.1 -.1 -.3 .1 -.2 .3c.1 .1 0 -.2 .1 -.1c-.1 .3 -.3 .3 -.4 .3c0 0 0 -.1 0 -.3c-.2 .4 -.4 .5 -.6 .6c0 .2 .1 -.4 .1 -.3c-.3 -.2 -.6 .4 -.8 0c0 0 0 .3 0 .2c-.2 0 -.2 -.3 -.3 -.1c0 -.2 -.1 0 -.2 .1c0 .1 0 -.1 .1 -.1c-.1 .1 -.7 .3 -1 .1c0 .1 -.2 .4 -.2 .4v-.3c-.1 -.1 -.3 .1 -.3 -.2c-.1 .3 .6 -.2 .4 0c0 -.2 -.3 .4 -.2 .1c-.2 0 -.3 .3 -.4 0c0 .1 .1 -.3 0 -.3c-.2 0 -.1 .1 -.3 .2l-.1 .1c0 .3 -.1 0 -.1 .3c0 -.3 -.3 .1 -.2 -.3v-.4c-.1 .1 -.2 .4 -.2 .5c0 0 -.1 -.1 -.1 -.1c0 .5 -.2 -.1 -.3 .3c-.1 -.1 -.2 -.1 -.3 -.1l1.3 -1.3c0 .2 -.1 .2 -.2 .3c.1 .1 .3 .3 .2 .4c0 0 -.1 -.1 -.2 -.1c-.1 .1 0 .2 .1 .3c-.1 -.1 -.3 .2 -.5 .3c.2 .1 .5 .1 .6 .1c-.5 .1 .3 .4 -.1 .5c-.1 0 -.3 -.2 -.4 -.1c-.5 .2 .4 .3 .2 .5l.4 -.1c-.3 .1 .2 .4 -.2 .3c.1 .1 -.2 .3 .2 .3c-.3 .3 .2 .8 -.5 1c.1 0 0 .2 .2 .1c.3 -.1 -.1 -.1 0 -.1c0 0 .1 0 .2 0c-.1 .1 -.1 .2 -.4 .1c-.3 .3 .6 .3 .5 .6c-.2 0 -.3 0 -.2 .1l.2 .1c0 .2 -.3 .1 -.6 .1c.1 .1 0 .3 .2 .3l-.3 .1c.2 0 .2 .1 .2 .2v-.1c-.2 0 -.1 .2 0 .2c.1 0 .2 -.1 .2 -.2c.2 .1 .1 .2 .3 .2c-.3 0 -.2 .2 -.2 .3c-.1 .1 .2 .1 .2 .1c-.1 0 0 .2 -.2 .1c-.1 0 .1 -.1 0 -.1c-.1 0 -.4 0 -.2 .1c.1 .1 .5 0 .4 .2c-.1 0 -.2 -.1 -.3 -.1l-.1 .2h.2q-.1 0 -.1 0c.3 .1 .1 .3 .4 .3c0 .1 -.2 .2 -.2 .3h-.1c-.1 .1 0 .2 .2 .3h-.1c0 0 0 .2 .2 .2c-.2 .2 -1 .1 -.6 .2c0 .2 .4 .3 .6 .2c-.2 .2 .2 .5 -.2 .8c.1 0 .2 0 .2 .1c-.1 .3 .3 .7 -.2 1c-.1 -.1 -.2 0 -.3 0c.2 .1 -.3 .1 .1 .2c.2 0 .3 0 .4 -.1c.1 .2 .1 .5 -.1 .7c.1 -.1 .2 -.1 .3 0c-.4 0 -.4 .1 -.3 .3h.2l-.2 .1c.1 0 .4 0 .2 .1c-.1 0 -.1 .1 -.2 .1c.2 .1 .5 .3 .3 .4l-.3 .1c0 .1 .2 .2 .3 .1c-.2 .2 -.2 .4 -.5 .5c.4 .2 .5 .5 .6 .7L395 461.8c.3 -.1 .5 -.1 .7 -.1v.2c.1 .1 .1 -.3 .2 -.2c-.1 .2 .1 .3 0 .5c.2 .2 .2 -.2 .3 -.3c0 -.2 -.1 .1 0 -.2c0 0 .2 .2 .2 -.1c.1 .1 0 .4 0 .5l.1 -.2c.2 .4 -.3 .7 -.1 1.2l.1 -.1c.1 .3 -.3 .4 0 .5c.1 -.2 .2 -.6 .1 -.8c.2 -.1 .1 -.7 .3 -.7c.1 .2 -.2 0 -.1 .3c.1 .3 .2 -.1 .3 0c-.1 -.2 0 -.5 .1 -.5c.1 .1 -.1 .3 .1 .3c0 -.2 .2 -.3 0 -.5c.1 -.4 .2 .2 .3 -.2c.1 .3 -.2 .7 0 .9c0 -.3 .3 -.4 .2 -.8c0 0 0 .3 0 .4c.1 .2 .3 -.5 .3 .1v-.3c.1 .1 .1 .2 .2 .3c.1 0 .3 -.4 .3 .1c0 -.1 .2 -.1 .2 -.4c-.2 -.2 -.2 .2 -.3 -.2c.1 .4 .2 0 .3 -.1v.2c.1 -.1 .2 -.1 .2 -.3c0 .1 0 .3 0 .3l.1 -.3c.2 -.1 0 .5 .2 .4l-.1 .2c0 0 .1 .2 .1 .1l.2 -.7c.1 -.1 0 .3 .1 .1l-.1 .2c0 .1 .1 .4 .2 .4c.1 -.1 .3 -.4 .1 -.5c.1 0 .2 .1 .1 .3c.2 -.1 0 -.3 .2 -.4c0 .1 .2 .4 .3 .6l-.1 .4c-.1 .3 .1 .2 0 .6c.1 0 .2 -.1 .3 -.2c-.2 -.5 .2 -.7 .1 -1.2c.3 -.1 .2 1.2 .5 .4c-.1 -.1 0 -.5 -.1 -.3c.1 0 .1 -.5 .3 -.3c-.2 .2 .1 .5 -.1 .8c0 -.2 -.1 -.2 -.1 -.1c0 .2 0 .5 .1 .5c.1 -.1 .3 -.1 .3 -.3c0 -.3 -.2 0 -.1 -.3c.2 -.1 .2 .3 .3 -.2c-.1 .1 -.2 -.2 -.2 -.4l.2 -.1v.2c.2 .1 0 -.4 .3 -.3l.1 .4c-.1 .3 -.4 -.2 -.3 .3c.1 0 .2 -.2 .3 -.1c0 .1 -.1 .1 -.1 .1c.1 0 .1 .7 .3 .3c.1 -.1 .1 -.2 .1 -.4c.2 0 .3 -.2 .4 -.2c0 .3 .3 0 .2 .4c-.1 -.2 -.5 -.2 -.6 .1c.1 .5 -.2 0 -.2 .4c.2 0 .2 .5 .2 .8c.1 0 .1 -.1 .1 -.2c.1 -.3 0 -.3 0 -.5c.2 0 .4 -.1 .5 -.4c.1 .2 .1 .4 0 .5c.3 -.1 .5 -.1 .8 0c-.2 -.4 .3 -.1 .2 -.5c-.2 -.1 -.3 -.4 -.2 -.6c.1 0 0 .2 0 .3c.1 -.2 .2 .4 .3 0c-.3 .2 -.1 .5 -.1 .9c.2 -.2 0 .2 .2 .2c.1 -.2 .3 -.3 .5 -.4c.3 .3 .6 0 .8 0c.2 .2 .1 .6 .2 .6c.2 0 -.1 -.4 .1 -.2v.1c.1 -.1 .4 .2 .4 -.3v.4c0 0 .1 -.1 .1 -.1c0 .1 0 .3 0 .4c.1 .2 .2 -.1 .4 -.1l-.1 -.3c.2 -.1 .4 .1 .6 0v.3l.2 -.2c-.1 .2 .1 .4 .1 .2l-.3 .6c-.1 -.1 .1 -.3 0 -.5c0 -.2 -.3 -.2 -.3 .1c.1 0 .1 -.1 .2 -.2c0 .4 -.1 .4 -.2 .6c0 0 .1 .1 .1 0c-.1 .1 -.2 .2 -.3 .2c.1 -.2 -.1 -.2 0 -.3c0 .3 -.2 .4 -.3 .3c-.2 -.4 -.4 .2 -.6 .1c.1 -.3 .2 -.5 .3 -.7c-.1 -.1 -.1 0 -.2 -.1c-.1 .2 -.1 .6 -.3 .7V464c-.2 .1 -.2 .4 -.4 .4c-.3 -.2 -.6 -.2 -.9 -.2V464c-.1 .5 -.5 .2 -.6 .4c-.4 -.2 -.7 .2 -.9 -.2c-.6 .2 -1.1 .4 -1.6 .3l.1 -.4c-.2 .3 -.1 -.1 -.2 -.1c.1 .3 -.2 .3 -.2 .5c-.3 -.2 -.6 .1 -.9 .3v-.2c-.2 .4 -.5 0 -.8 0c0 -.1 -.1 -.3 -.1 -.3c-.2 .3 -.3 .3 -.5 .5c-.2 0 -.5 -.1 -.6 -.2c-.7 .5 -1.3 .2 -2 .5v-.3c-.4 .3 -.7 .3 -1.1 .3l-1.6 -.1l.1 -1.5c0 -.3 0 -.6 -.1 -.9l.4 .1c.2 -.2 -.1 -.4 -.4 -.4c.1 -.2 -.2 -.4 .2 -.5c0 -.2 -.2 -.2 -.3 -.4c.2 -.3 .1 -.5 0 -.8v.1c.1 0 .3 0 .3 -.1c-.1 -.1 .2 -.4 -.4 -.3c.3 -.4 -.2 -.8 .2 -1.2c-.2 .1 -.2 0 -.3 -.1c0 -.3 .3 -.6 .1 -.9c0 0 .2 .1 .2 0c0 -.1 -.2 0 -.3 -.1c-.2 -.5 .3 -1 .3 -1.5c-.3 -.8 -.2 -1.6 -.2 -2.4h.1c-.4 -.3 .4 -.6 -.2 -.8c.1 -.1 0 -.3 .2 -.2c-.3 -.2 .3 -.6 -.1 -.9l.1 .1c.2 -.3 -.1 -.6 .1 -.9c.1 0 .1 .1 .2 .1c.2 -.1 -.4 -.3 .1 -.4c0 0 -.3 0 -.3 0c.1 -.1 .1 -.2 .1 -.4l.1 -1.6l1.4 .1c.6 0 1.2 -.2 1.8 -.3c.6 .3 .1 .9 .5 .5c0 .1 0 -.2 0 -.1c.2 -.2 .3 .6 .4 .3c-.1 -.3 0 -.2 .1 -.4c.3 .2 .3 .5 .6 .3v.1c.3 -.4 .6 -.2 .9 -.7c1.6 -.1 3.2 -.4 4.8 -.5c1.3 .1 2.7 -.1 4 .1l2.5 .2l-.2 2c0 .3 0 .5 -.1 .7c-.4 .3 -.4 .4 -.2 .8c-.1 0 -.1 -.1 -.2 0c.4 0 0 .3 .4 .3c-.1 .6 0 1.1 0 1.7c0 -.1 -.3 -.1 -.3 0l.2 .1h-.1c.1 .1 .3 .2 .4 .1c.3 1.6 -.4 3.1 -.3 4.6c-.2 .3 0 .8 0 1.2c-.4 1.1 -.8 2.2 -.5 3.3c0 0 -.9 -.1 -1.1 -.6Z" class="g3_74"/>
<path d="M407.8 464.2c-.1 -.2 -.2 -.3 -.1 -.5c0 .1 .1 .3 .1 .5Z" class="g3_74"/>
<path d="M404.2 462.3c0 .1 0 -.1 0 -.1c0 0 .1 -.2 .1 -.1q0 .1 -.1 .2Z" class="g3_74"/>
<path d="M403.3 462.2c0 -.2 .2 -.3 .4 -.3Z" class="g3_74"/>
<path d="M402.5 461.5c-.1 -.1 -.1 -.2 0 -.2c0 .1 0 .2 0 .2Z" class="g3_74"/>
<path d="M402.4 461.9c0 0 -.1 -.1 -.1 -.2c0 .2 .1 -.1 .1 .2Z" class="g3_74"/>
<path d="M400.6 461.4c-.1 .1 -.2 .2 -.2 0c.1 .1 .2 -.2 .2 0Z" class="g3_74"/>
<path d="M399.7 461.7c0 0 0 -.1 0 0c-.1 -.1 0 -.2 0 -.2Z" class="g3_74"/>
<path d="M396.2 452.7l.1 .1h-.1Z" class="g3_74"/>
<path d="M399.9 451.9c.1 -.1 0 .2 .1 .2c-.1 0 0 -.2 -.1 -.2Z" class="g3_74"/>
<path d="M403.6 451.1h-.1v-.3Z" class="g3_74"/>
<path d="M408 477c.2 0 -.1 -.2 .1 -.1c0 .1 0 .2 -.1 .1Z" class="g3_74"/>
<path d="M408.6 475.8c-.9 -.6 0 -1.4 -.6 -2.1c0 -.1 .5 0 .4 -.1c-.7 -.7 -.3 -1.7 .2 -2.5h.1c.1 -.1 -.3 -.3 -.2 -.4q.1 0 .2 0c-.3 -.1 -.1 -.3 -.3 -.4c.1 -.1 .3 0 .4 -.1l-.3 -.1c-.7 -.3 .1 -.6 -.3 -1c.1 0 .1 .1 .2 0c-.4 -.5 -.4 -1.2 -.5 -1.8c.1 0 .3 0 .4 0c-.3 -.1 -.4 -.2 -.4 -.4c.3 -.1 -.3 -.3 -.2 -.5h.1c-.3 -.1 .2 -.2 -.2 -.3l.2 -.1c-.4 -.1 .3 -.2 .1 -.3h-.1c-.1 -.1 .1 -.2 0 -.3h.1c-.2 -.3 .1 -.4 -.3 -.4c.3 -.1 .2 .2 .6 .1c-.2 -.5 -.3 -1 -.3 -1.5l.2 .3h-.9c-.1 -.1 -.2 -.2 -.2 -.3c-.1 .1 -.3 .1 -.4 .2c0 0 -.1 -.1 -.1 -.2c-.1 -.1 -.2 .4 -.3 .3c0 -.1 .1 -.2 0 -.4c-.1 .3 -.3 .3 -.4 .4q0 -.1 0 -.3c-.2 .4 -.3 0 -.5 .2l.1 -.2c-.3 -.3 -.1 .4 -.3 .3c.1 -.1 0 -.2 0 -.3c-.2 .4 -.5 .3 -.7 .4c0 0 0 -.1 0 -.1c-.2 .1 -.4 -.1 -.7 .1c-.1 -.1 .1 -.5 -.2 -.4c0 .4 -.4 .2 -.2 .6c-.2 0 -.6 -.2 -.7 -.1c.1 -.1 -.1 -.5 .1 -.5l-.1 -.2c0 -.2 .1 0 0 -.2c0 0 -.3 .2 -.4 .1c-.1 .3 -.3 .7 -.5 .8c.1 -.2 -.1 -.5 0 -.5l-.3 .7c-.1 .1 -.1 -.3 -.2 -.2c0 .1 0 .2 -.1 .3c0 -.1 -.3 .1 -.3 -.3c-.1 -.2 .1 -.1 0 -.2c-.1 0 -.2 .1 -.3 .1c-.1 -.1 -.3 .1 -.2 .4c.1 0 0 -.3 .1 -.2c-.1 .3 -.3 .3 -.4 .3c0 0 0 -.1 0 -.3c-.2 .4 -.4 .5 -.6 .6c0 .2 .1 -.4 .1 -.3c-.3 -.2 -.6 .4 -.8 0c0 0 0 .3 0 .3c-.2 -.1 -.2 -.4 -.3 -.2c0 -.2 -.1 0 -.2 .1c0 .1 0 -.1 .1 -.1c-.1 .1 -.7 .3 -1 .1c0 .1 -.2 .4 -.2 .4v-.3c-.1 -.1 -.3 .1 -.3 -.2c-.1 .4 .6 -.2 .4 0c0 -.2 -.3 .4 -.2 .1c-.2 0 -.3 .3 -.4 0c0 .1 .1 -.3 0 -.3c-.2 0 -.1 .1 -.3 .2l-.1 .1c0 .3 -.1 0 -.1 .3c0 -.2 -.3 .1 -.2 -.3v-.3c-.1 0 -.2 .3 -.2 .4c0 0 -.1 -.1 -.1 -.1c0 .5 -.2 -.1 -.3 .3c-.1 -.1 -.2 -.1 -.3 -.1l1.3 -1.3c0 .2 -.1 .3 -.2 .3c.1 .1 .3 .3 .2 .4c0 0 -.1 -.1 -.2 -.1c-.1 .1 0 .2 .1 .3c-.1 -.1 -.3 .2 -.5 .3c.2 .1 .5 .1 .6 .1c-.5 .1 .3 .4 -.1 .5c-.1 0 -.3 -.2 -.4 -.1c-.5 .2 .4 .3 .2 .5h.4c-.3 0 .2 .3 -.2 .2c.1 .1 -.2 .3 .2 .3c-.3 .3 .2 .8 -.5 1c.1 0 0 .2 .2 .1c.3 -.1 -.1 -.1 0 -.1c0 0 .1 0 .2 0c-.1 .1 -.1 .2 -.4 .1c-.3 .3 .6 .3 .5 .6c-.2 0 -.3 0 -.2 .1l.2 .1c0 .2 -.3 .1 -.6 .1c.1 .1 0 .3 .2 .3l-.3 .1c.2 0 .2 .1 .2 .2v-.1c-.2 0 -.1 .2 0 .2c.1 0 .2 -.1 .2 -.2c.2 .1 .1 .2 .3 .2c-.3 0 -.2 .2 -.2 .3c-.1 .1 .2 .1 .2 .1c-.1 0 0 .2 -.2 .1c-.1 0 .1 -.1 0 -.1c-.1 0 -.4 0 -.2 .1c.1 .1 .5 0 .4 .2c-.1 0 -.2 0 -.3 -.1l-.1 .2h.2q-.1 0 -.1 0c.3 .1 .1 .3 .4 .3c0 .1 -.2 .2 -.2 .3h-.1c-.1 .1 0 .2 .2 .3h-.1c0 0 0 .2 .2 .2c-.2 .2 -1 .1 -.6 .2c0 .2 .4 .3 .6 .2c-.2 .3 .2 .5 -.2 .8c.1 0 .2 0 .2 .1c-.1 .3 .3 .8 -.2 1c-.1 -.1 -.2 0 -.3 0c.2 .1 -.3 .1 .1 .2c.2 0 .3 0 .4 -.1c.1 .2 .1 .5 -.1 .7c.1 -.1 .2 -.1 .3 0c-.4 0 -.4 .1 -.3 .3h.2l-.2 .1c.1 0 .4 0 .2 .1q-.1 .1 -.2 .1c.2 .1 .5 .3 .3 .4l-.3 .1c0 .1 .2 .2 .3 .1c-.2 .2 -.2 .4 -.5 .5c.4 .2 .5 .5 .6 .7L395 474.7c.3 -.1 .5 -.1 .7 -.1v.2c.1 .1 .1 -.3 .2 -.2c-.1 .2 .1 .4 0 .5c.2 .2 .2 -.2 .3 -.3c0 -.2 -.1 .1 0 -.1c0 -.1 .2 .1 .2 -.2c.1 .1 0 .4 0 .5l.1 -.2c.2 .4 -.3 .7 -.1 1.2l.1 -.1c.1 .3 -.3 .4 0 .5c.1 -.2 .2 -.6 .1 -.8c.2 0 .1 -.7 .3 -.7c.1 .2 -.2 .1 -.1 .3c.1 .3 .2 -.1 .3 0c-.1 -.2 0 -.5 .1 -.5c.1 .1 -.1 .3 .1 .3c0 -.2 .2 -.3 0 -.5c.1 -.4 .2 .2 .3 -.2c.1 .3 -.2 .7 0 .9c0 -.3 .3 -.4 .2 -.8c0 0 0 .3 0 .4c.1 .2 .3 -.5 .3 .1v-.3c.1 .1 .1 .2 .2 .3c.1 0 .3 -.4 .3 .1c0 -.1 .2 -.1 .2 -.4c-.2 -.2 -.2 .2 -.3 -.2c.1 .4 .2 0 .3 -.1v.2c.1 -.1 .2 -.1 .2 -.3c0 .1 0 .3 0 .3l.1 -.3c.2 -.1 0 .5 .2 .4l-.1 .2c0 0 .1 .2 .1 .1l.2 -.7c.1 -.1 0 .3 .1 .1l-.1 .2c0 .1 .1 .4 .2 .4c.1 -.1 .3 -.4 .1 -.5c.1 0 .2 .1 .1 .3c.2 -.1 0 -.3 .2 -.4c0 .1 .2 .4 .3 .6l-.1 .4c-.1 .3 .1 .2 0 .6c.1 0 .2 -.1 .3 -.2c-.2 -.5 .2 -.7 .1 -1.2c.3 -.1 .2 1.2 .5 .4c-.1 -.1 0 -.5 -.1 -.3c.1 0 .1 -.5 .3 -.3c-.2 .2 .1 .5 -.1 .8c0 -.2 -.1 -.2 -.1 -.1c0 .2 0 .5 .1 .5c.1 -.1 .3 -.1 .3 -.3c0 -.3 -.2 0 -.1 -.3c.2 -.1 .2 .3 .3 -.2c-.1 .1 -.2 -.2 -.2 -.4l.2 -.1v.2c.2 .1 0 -.4 .3 -.3l.1 .4c-.1 .3 -.4 -.2 -.3 .3c.1 0 .2 -.2 .3 -.1c0 .1 -.1 .1 -.1 .1c.1 0 .1 .7 .3 .3c.1 -.1 .1 -.2 .1 -.4c.2 0 .3 -.2 .4 -.2c0 .3 .3 0 .2 .4c-.1 -.2 -.5 -.2 -.6 .1c.1 .5 -.2 0 -.2 .4c.2 0 .2 .5 .2 .8c.1 0 .1 -.1 .1 -.2c.1 -.3 0 -.2 0 -.5c.2 0 .4 -.1 .5 -.4c.1 .2 .1 .4 0 .5c.3 -.1 .5 -.1 .8 0c-.2 -.4 .3 -.1 .2 -.5c-.2 -.1 -.3 -.4 -.2 -.6c.1 .1 0 .2 0 .3c.1 -.2 .2 .4 .3 0c-.3 .2 -.1 .6 -.1 .9c.2 -.2 0 .2 .2 .2c.1 -.1 .3 -.3 .5 -.4c.3 .4 .6 0 .8 0c.2 .2 .1 .6 .2 .6c.2 0 -.1 -.4 .1 -.2v.1c.1 -.1 .4 .2 .4 -.3v.4c0 0 .1 0 .1 -.1c0 .1 0 .3 0 .4c.1 .2 .2 -.1 .4 -.1l-.1 -.2c.2 -.2 .4 0 .6 -.1v.3l.2 -.2c-.1 .3 .1 .4 .1 .2l-.3 .6c-.1 -.1 .1 -.3 0 -.5c0 -.2 -.3 -.2 -.3 .1c.1 0 .1 -.1 .2 -.2c0 .4 -.1 .4 -.2 .6c0 0 .1 .1 .1 0c-.1 .1 -.2 .2 -.3 .2c.1 -.2 -.1 -.2 0 -.3c0 .3 -.2 .4 -.3 .3c-.2 -.4 -.4 .2 -.6 .1c.1 -.3 .2 -.5 .3 -.7c-.1 -.1 -.1 0 -.2 -.1c-.1 .2 -.1 .6 -.3 .7v-.2c-.2 .1 -.2 .4 -.4 .4c-.3 -.1 -.6 -.1 -.9 -.2v-.2c-.1 .5 -.5 .2 -.6 .4c-.4 -.2 -.7 .2 -.9 -.2c-.6 .2 -1.1 .4 -1.6 .3l.1 -.3c-.2 .2 -.1 -.2 -.2 -.2c.1 .3 -.2 .3 -.2 .5c-.3 -.2 -.6 .1 -.9 .3v-.2c-.2 .4 -.5 0 -.8 0c0 -.1 -.1 -.3 -.1 -.3c-.2 .3 -.3 .3 -.5 .5c-.2 0 -.5 0 -.6 -.2c-.7 .5 -1.3 .2 -2 .5v-.3c-.4 .3 -.7 .3 -1.1 .3l-1.6 -.1l.1 -1.5c0 -.3 0 -.6 -.1 -.9l.4 .1c.2 -.2 -.1 -.4 -.4 -.4c.1 -.2 -.2 -.4 .2 -.5c0 -.2 -.2 -.2 -.3 -.4c.2 -.3 .1 -.5 0 -.8v.1c.1 0 .3 0 .3 -.1c-.1 -.1 .2 -.4 -.4 -.3c.3 -.3 -.2 -.8 .2 -1.2c-.2 .1 -.2 0 -.3 -.1c0 -.3 .3 -.6 .1 -.8c0 -.1 .2 0 .2 -.1c0 -.1 -.2 0 -.3 -.1c-.2 -.5 .3 -1 .3 -1.5c-.3 -.8 -.2 -1.6 -.2 -2.4h.1c-.4 -.3 .4 -.6 -.2 -.8c.1 -.1 0 -.3 .2 -.2c-.3 -.2 .3 -.6 -.1 -.9l.1 .1c.2 -.3 -.1 -.6 .1 -.9c.1 0 .1 .1 .2 .1c.2 -.1 -.4 -.3 .1 -.4c0 0 -.3 0 -.3 0c.1 -.1 .1 -.2 .1 -.4l.1 -1.6l1.4 .1c.6 0 1.2 -.2 1.8 -.3c.6 .3 .1 .9 .5 .5c0 .1 0 -.2 0 -.1c.2 -.1 .3 .6 .4 .3c-.1 -.3 0 -.2 .1 -.4c.3 .2 .3 .5 .6 .3v.2c.3 -.5 .6 -.3 .9 -.8c1.6 -.1 3.2 -.4 4.8 -.5c1.3 .1 2.7 -.1 4 .1l2.5 .2l-.2 2c0 .3 0 .5 -.1 .7c-.4 .3 -.4 .4 -.2 .8c-.1 0 -.1 -.1 -.2 0c.4 0 0 .3 .4 .3c-.1 .6 0 1.1 0 1.7c0 -.1 -.3 -.1 -.3 0l.2 .1l-.1 .1c.1 0 .3 .1 .4 0c.3 1.6 -.4 3.1 -.3 4.6c-.2 .3 0 .8 0 1.2c-.4 1.2 -.8 2.2 -.5 3.3c0 0 -.9 -.1 -1.1 -.6Z" class="g3_74"/>
<path d="M407.8 477.1c-.1 -.2 -.2 -.3 -.1 -.5c0 .1 .1 .3 .1 .5Z" class="g3_74"/>
<path d="M404.2 475.2c0 .1 0 -.1 0 -.1c0 0 .1 -.1 .1 -.1c-.1 .1 0 .1 -.1 .2Z" class="g3_74"/>
<path d="M403.3 475.1c0 -.1 .2 -.3 .4 -.3Z" class="g3_74"/>
<path d="M402.5 474.4c-.1 -.1 -.1 -.2 0 -.2c0 .1 0 .2 0 .2Z" class="g3_74"/>
<path d="M402.4 474.8c0 0 -.1 -.1 -.1 -.2c0 .2 .1 -.1 .1 .2Z" class="g3_74"/>
<path d="M400.6 474.3c-.1 .1 -.2 .2 -.2 0c0 .1 .2 -.2 .2 0Z" class="g3_74"/>
<path d="M399.7 474.6c-.1 -.1 0 -.2 0 -.2Z" class="g3_74"/>
<path d="M396.2 465.6l.1 .1h-.1Z" class="g3_74"/>
<path d="M399.9 464.8c.1 -.1 0 .2 .1 .2c-.1 0 0 -.2 -.1 -.2Z" class="g3_74"/>
<path d="M403.6 464l-.1 .1v-.4Z" class="g3_74"/>
<path d="M421.2 464.1c.2 0 -.1 -.2 .1 -.1c0 .1 -.1 .2 -.1 .1Z" class="g3_74"/>
<path d="M421.7 462.9c-.8 -.6 0 -1.4 -.5 -2.1c0 -.1 .5 0 .3 -.1c-.6 -.7 -.2 -1.7 .3 -2.5h.1c.1 -.1 -.3 -.3 -.3 -.5c.1 0 .2 .1 .3 .1c-.3 -.1 -.1 -.3 -.3 -.4c.1 -.1 .3 0 .4 -.1l-.3 -.1c-.7 -.3 0 -.6 -.3 -1c0 0 .1 .1 .2 0c-.5 -.5 -.4 -1.2 -.5 -1.8c.1 0 .3 0 .4 0c-.3 -.1 -.4 -.3 -.5 -.4c.3 -.1 -.3 -.3 -.1 -.5h.1c-.4 -.1 .2 -.2 -.2 -.3l.2 -.1c-.4 -.1 .3 -.2 0 -.3h-.1c-.1 -.1 .1 -.2 .1 -.3c-.1 -.3 .2 -.4 -.2 -.4c.3 -.1 .1 .2 .5 .1c-.2 -.5 -.2 -1 -.3 -1.5l.3 .3h-1c-.1 -.1 -.1 -.2 -.2 -.3c0 .1 -.3 .1 -.3 .2c0 0 -.1 -.1 -.1 -.2c-.2 -.1 -.2 .4 -.4 .3c.1 -.1 .1 -.2 .1 -.4c-.1 .3 -.3 .3 -.5 .4q.1 -.1 .1 -.3c-.2 .4 -.3 0 -.5 .2l.1 -.2c-.3 -.3 -.1 .4 -.3 .3c0 -.1 0 -.2 0 -.3c-.2 .4 -.5 .3 -.7 .4c0 0 0 -.1 0 -.1c-.2 .1 -.5 -.1 -.7 .1c-.1 -.1 0 -.5 -.2 -.4c0 .4 -.4 .2 -.3 .6c-.2 0 -.5 -.2 -.6 -.1c.1 -.1 -.1 -.5 0 -.5l-.1 -.2c0 -.2 .2 0 .1 -.2c-.1 0 -.3 .2 -.4 .1c-.1 .3 -.3 .7 -.5 .8c.1 -.2 -.1 -.5 0 -.5l-.4 .7c-.1 .1 0 -.3 -.1 -.2c0 .1 -.1 .2 -.1 .3c0 -.1 -.3 .1 -.4 -.3c0 -.2 .2 -.1 .1 -.2c-.2 0 -.2 .1 -.3 .1c-.1 -.1 -.3 .1 -.2 .3c0 .1 -.1 -.2 0 -.1c0 .3 -.2 .3 -.4 .3c.1 0 .1 -.1 .1 -.3c-.2 .4 -.4 .5 -.6 .6c-.1 .2 0 -.4 .1 -.3c-.3 -.2 -.6 .4 -.9 0c.1 0 0 .3 0 .2c-.1 0 -.1 -.3 -.2 -.1c0 -.2 -.1 0 -.2 .1c-.1 .1 0 -.1 .1 -.1c-.2 .1 -.7 .3 -1 .1c0 .1 -.2 .4 -.3 .4l.1 -.3c-.1 -.1 -.3 .1 -.3 -.2c-.1 .3 .6 -.2 .4 0c-.1 -.2 -.3 .4 -.3 .1c-.1 0 -.2 .3 -.4 0c.1 .1 .1 -.3 0 -.3c-.2 0 0 .1 -.2 .2l-.1 .1c0 .3 -.2 0 -.1 .3c0 -.3 -.3 .1 -.3 -.3l.1 -.4c-.1 .1 -.2 .4 -.3 .5c0 0 0 -.1 0 -.1c0 .5 -.2 -.1 -.3 .3c-.1 -.1 -.2 -.1 -.3 -.1l1.3 -1.3q-.1 .2 -.2 .3c.1 .1 .3 .3 .2 .4c-.1 0 -.1 -.1 -.2 -.1c-.1 .1 0 .2 .1 .3c-.1 -.1 -.3 .2 -.5 .3c.2 .1 .4 .1 .6 .1c-.5 .1 .3 .4 -.1 .5c-.1 0 -.3 -.2 -.4 -.1c-.5 .2 .4 .3 .1 .5l.4 -.1c-.2 .1 .3 .4 -.2 .3c.2 .1 -.1 .3 .3 .3c-.3 .3 .2 .8 -.5 1c.1 0 0 .2 .2 .1c.2 -.1 -.2 -.1 0 -.1c0 0 .1 0 .2 0c-.1 .1 -.1 .2 -.5 .1c-.2 .3 .7 .3 .5 .6c-.1 0 -.2 0 -.2 .1l.3 .1c0 .2 -.4 .1 -.6 .1c0 .1 0 .3 .2 .3l-.3 .1c.2 0 .1 .1 .2 .2l-.1 -.1c-.1 0 0 .2 0 .2c.2 0 .3 -.1 .3 -.2c.1 .1 .1 .2 .2 .2c-.2 0 -.1 .2 -.2 .3c0 .1 .3 .1 .3 .1c-.2 0 -.1 .2 -.3 .1c0 0 .2 -.1 .1 -.1c-.2 0 -.4 0 -.2 .1c.1 .1 .5 0 .3 .2c0 0 -.1 -.1 -.2 -.1l-.2 .2h.3q-.1 0 -.1 0c.2 .1 0 .3 .3 .3c.1 .1 -.1 .2 -.2 .3c-.1 .1 0 .2 .1 .3c0 0 0 .2 .1 .2c-.1 .2 -.9 .1 -.6 .2c0 .2 .5 .3 .6 .2c-.1 .2 .3 .5 -.1 .8q.1 0 .2 .1c-.1 .3 .3 .7 -.2 1c-.1 -.1 -.2 0 -.4 0c.2 .1 -.2 .1 .2 .2c.2 0 .3 0 .4 -.1c.1 .2 .1 .5 -.1 .7c.1 -.1 .2 -.1 .2 0c-.3 0 -.4 .1 -.2 .3h.2l-.2 .1c0 0 .4 0 .2 .1c-.1 0 -.2 .1 -.2 .1c.1 .1 .4 .3 .3 .4l-.4 .1c.1 .1 .3 .2 .4 .1c-.2 .2 -.3 .4 -.5 .5c.3 .2 .5 .5 .6 .7l-1.8 -1.7c.2 -.1 .5 -.1 .7 -.1v.2c.1 .1 .1 -.3 .1 -.2c0 .2 .1 .3 0 .5c.2 .2 .3 -.2 .4 -.3c0 -.2 -.1 .1 -.1 -.2c0 0 .3 .2 .3 -.1c.1 .1 0 .4 0 .5l.1 -.2c.1 .4 -.3 .7 -.2 1.2l.1 -.1c.1 .3 -.2 .4 0 .5c.1 -.2 .2 -.6 .1 -.8c.3 -.1 .1 -.7 .4 -.7c.1 .2 -.2 0 -.2 .3c.2 .3 .3 -.1 .4 0c-.1 -.2 0 -.5 0 -.5c.2 .1 0 .3 .1 .3c.1 -.2 .2 -.3 .1 -.5c.1 -.4 .2 .2 .3 -.2c0 .3 -.2 .7 0 .9c0 -.3 .2 -.4 .1 -.8c.1 0 .1 .3 .1 .4c.1 .2 .2 -.5 .3 .1v-.3c0 .1 .1 .2 .1 .3c.1 0 .4 -.4 .4 .1c0 -.1 .2 -.1 .1 -.4c-.1 -.2 -.1 .2 -.2 -.2c.1 .4 .2 0 .3 -.1v.2c0 -.1 .1 -.1 .2 -.3c-.1 .1 -.1 .3 0 .3v-.3c.2 -.1 .1 .5 .3 .4l-.2 .2c.1 0 .1 .2 .2 .1l.1 -.7c.2 -.1 .1 .3 .2 .1l-.1 .2c-.1 .1 .1 .4 .2 .4c.1 -.1 .2 -.4 .1 -.5c.1 0 .2 .1 .1 .3c.2 -.1 0 -.3 .1 -.4c.1 .1 .3 .4 .4 .6l-.2 .4h.1c-.1 .3 .1 .2 0 .6c.1 0 .2 -.1 .2 -.2c-.2 -.5 .2 -.7 .2 -1.2c.2 -.1 .1 1.2 .4 .4c0 -.1 .1 -.5 -.1 -.3c.2 0 .2 -.5 .3 -.3c-.1 .2 .2 .5 0 .8c0 -.2 -.1 -.2 -.2 -.1c.1 .2 0 .5 .2 .5c.1 -.1 .2 -.1 .2 -.3c0 -.3 -.1 0 -.1 -.3c.2 -.1 .3 .3 .4 -.2c-.2 .1 -.2 -.2 -.2 -.4l.2 -.1l-.1 .2c.3 .1 .1 -.4 .3 -.3l.1 .4c0 .3 -.3 -.2 -.3 .3c.2 0 .2 -.2 .4 -.1c0 .1 -.1 .1 -.1 .1c0 0 .1 .7 .3 .3c.1 -.1 0 -.2 0 -.4c.3 0 .4 -.2 .5 -.2c0 .3 .3 0 .1 .4c-.1 -.2 -.4 -.2 -.5 .1c.1 .5 -.2 0 -.2 .4c.1 0 .1 .5 .2 .8c0 0 .1 -.1 .1 -.2q0 -.3 0 -.5c.2 0 .4 -.1 .5 -.4c.1 .2 .1 .4 0 .5c.2 -.1 .5 -.1 .8 0c-.2 -.4 .2 -.1 .1 -.5c-.1 -.1 -.2 -.4 -.1 -.6c0 0 0 .2 0 .3c.1 -.2 .2 .4 .3 0c-.3 .2 -.1 .5 -.1 .9c.1 -.2 0 .2 .1 .2c.2 -.2 .4 -.3 .6 -.4c.2 .3 .6 0 .8 0c.1 .2 .1 .6 .2 .6c.1 0 -.1 -.4 .1 -.2v.1c0 -.1 .3 .2 .4 -.3l-.1 .4c.1 0 .1 -.1 .2 -.1c0 .1 0 .3 -.1 .4c.2 .2 .3 -.1 .5 -.1l-.1 -.3c.2 -.1 .4 .1 .6 0v.3l.1 -.2c0 .2 .1 .4 .2 .2l-.4 .6c-.1 -.1 .1 -.3 .1 -.5c-.1 -.2 -.3 -.2 -.3 .1c.1 0 .1 -.1 .1 -.2c.1 .4 -.1 .4 -.1 .6c0 0 .1 .1 .1 0c-.1 .1 -.2 .2 -.3 .2c.1 -.2 -.1 -.2 0 -.3c-.1 .3 -.2 .4 -.4 .3c-.1 -.4 -.3 .2 -.5 .1c.1 -.3 .2 -.5 .3 -.7c-.1 -.1 -.1 0 -.3 -.1c0 .2 -.1 .6 -.2 .7V464c-.2 .1 -.2 .4 -.4 .4c-.3 -.2 -.7 -.2 -.9 -.2V464c-.2 .5 -.5 .2 -.7 .4c-.3 -.2 -.7 .2 -.8 -.2c-.6 .2 -1.1 .4 -1.7 .3l.1 -.4c-.1 .3 0 -.1 -.2 -.1c.2 .3 -.1 .3 -.2 .5c-.2 -.2 -.6 .1 -.8 .3v-.2c-.2 .4 -.5 0 -.8 0c0 -.1 -.1 -.3 -.2 -.3c-.1 .3 -.2 .3 -.4 .5c-.2 0 -.5 -.1 -.7 -.2c-.6 .5 -1.3 .2 -1.9 .5l-.1 -.3c-.3 .3 -.7 .3 -1 .3l-1.7 -.1l.1 -1.5c.1 -.3 .1 -.6 0 -.9l.4 .1c.2 -.2 -.1 -.4 -.4 -.4c.1 -.2 -.2 -.4 .1 -.5c.1 -.2 -.2 -.2 -.2 -.4c.1 -.3 .1 -.5 0 -.8v.1c.1 0 .3 0 .3 -.1c-.1 -.1 .1 -.4 -.4 -.3c.3 -.4 -.3 -.8 .2 -1.2c-.2 .1 -.2 0 -.3 -.1c0 -.3 .3 -.6 0 -.9c.1 0 .3 .1 .3 0c-.1 -.1 -.2 0 -.3 -.1c-.3 -.5 .3 -1 .2 -1.5c-.3 -.8 -.1 -1.6 -.2 -2.4h.1c-.4 -.3 .5 -.6 -.2 -.8c.1 -.1 .1 -.3 .3 -.2c-.3 -.2 .3 -.6 -.1 -.9l.1 .1c.2 -.3 -.1 -.6 .1 -.9c0 0 .1 .1 .2 .1c.2 -.1 -.5 -.3 0 -.4c0 0 -.2 0 -.2 0c0 -.1 .1 -.2 .1 -.4v-1.6l1.5 .1c.6 0 1.2 -.2 1.8 -.3c.5 .3 0 .9 .5 .5c0 .1 0 -.2 0 -.1c.1 -.2 .2 .6 .3 .3c0 -.3 .1 -.2 .1 -.4c.3 .2 .4 .5 .7 .3l-.1 .1c.3 -.4 .7 -.2 .9 -.7c1.7 -.1 3.2 -.4 4.8 -.5c1.4 .1 2.7 -.1 4.1 .1l2.5 .2l-.2 2c0 .3 -.1 .5 -.1 .7c-.5 .3 -.4 .4 -.3 .8c0 0 -.1 -.1 -.1 0c.3 0 0 .3 .4 .3c-.1 .6 0 1.1 0 1.7c0 -.1 -.3 -.1 -.3 0l.2 .1h-.1c.1 .1 .2 .2 .4 .1c.3 1.6 -.4 3.1 -.4 4.6c-.1 .3 0 .8 .1 1.2c-.5 1.1 -.9 2.2 -.5 3.3c0 0 -1 -.1 -1.2 -.6Z" class="g3_74"/>
<path d="M421 464.2c-.1 -.2 -.2 -.3 -.1 -.5c0 .1 .1 .3 .1 .5Z" class="g3_74"/>
<path d="M417.4 462.3c0 .1 0 -.1 -.1 -.1c.1 0 .1 -.2 .2 -.1q-.1 .1 -.1 .2Z" class="g3_74"/>
<path d="M416.5 462.2c0 -.2 .2 -.3 .3 -.3Z" class="g3_74"/>
<path d="M415.6 461.5c0 -.1 0 -.2 .1 -.2c0 .1 0 .2 -.1 .2Z" class="g3_74"/>
<path d="M415.6 461.9c-.1 0 -.1 -.1 -.1 -.2c0 .2 .1 -.1 .1 .2Z" class="g3_74"/>
<path d="M413.8 461.4c-.1 .1 -.2 .2 -.2 0c0 .1 .2 -.2 .2 0Z" class="g3_74"/>
<path d="M412.9 461.7c0 0 0 -.1 -.1 0c0 -.1 0 -.2 .1 -.2Z" class="g3_74"/>
<path d="M409.4 452.7l.1 .1h-.2Z" class="g3_74"/>
<path d="M413.1 451.9c0 -.1 0 .2 0 .2c0 0 .1 -.2 0 -.2Z" class="g3_74"/>
<path d="M416.7 451.1v0v-.3Z" class="g3_74"/>
<path d="M421.2 477c.2 0 -.1 -.2 .1 -.1c0 .1 -.1 .2 -.1 .1Z" class="g3_74"/>
<path d="M421.7 475.8c-.8 -.6 0 -1.4 -.5 -2.1c0 -.1 .5 0 .3 -.1c-.6 -.7 -.2 -1.7 .3 -2.5h.1c.1 -.1 -.3 -.3 -.3 -.4c.1 0 .2 0 .3 0c-.3 -.1 -.1 -.3 -.3 -.4c.1 -.1 .3 0 .4 -.1l-.3 -.1c-.7 -.3 0 -.6 -.3 -1c0 0 .1 .1 .2 0c-.5 -.5 -.4 -1.2 -.5 -1.8c.1 0 .3 0 .4 0c-.3 -.1 -.4 -.2 -.5 -.4c.3 -.1 -.3 -.3 -.1 -.5h.1c-.4 -.1 .2 -.2 -.2 -.3l.2 -.1c-.4 -.1 .3 -.2 0 -.3h-.1c-.1 -.1 .1 -.2 .1 -.3c-.1 -.3 .2 -.4 -.2 -.4c.3 -.1 .1 .2 .5 .1c-.2 -.5 -.2 -1 -.3 -1.5l.3 .3h-1c-.1 -.1 -.1 -.2 -.2 -.3c0 .1 -.3 .1 -.3 .2c0 0 -.1 -.1 -.1 -.2c-.2 -.1 -.2 .4 -.4 .3c.1 -.1 .1 -.2 .1 -.4c-.1 .3 -.3 .3 -.5 .4q.1 -.1 .1 -.3c-.2 .4 -.3 0 -.5 .2l.1 -.2c-.3 -.3 -.1 .4 -.3 .3c0 -.1 0 -.2 0 -.3c-.2 .4 -.5 .3 -.7 .4c0 0 0 -.1 0 -.1c-.2 .1 -.5 -.1 -.7 .1c-.1 -.1 0 -.5 -.2 -.4c0 .4 -.4 .2 -.3 .6c-.2 0 -.5 -.2 -.6 -.1c.1 -.1 -.1 -.5 0 -.5l-.1 -.2c0 -.2 .2 0 .1 -.2c-.1 0 -.3 .2 -.4 .1c-.1 .3 -.3 .7 -.5 .8c.1 -.2 -.1 -.5 0 -.5l-.4 .7c-.1 .1 0 -.3 -.1 -.2c0 .1 -.1 .2 -.1 .3c0 -.1 -.3 .1 -.4 -.3c0 -.2 .2 -.1 .1 -.2c-.2 0 -.2 .1 -.3 .1c-.1 -.1 -.3 .1 -.2 .4c0 0 -.1 -.3 0 -.2c0 .3 -.2 .3 -.4 .3c.1 0 .1 -.1 .1 -.3c-.2 .4 -.4 .5 -.6 .6c-.1 .2 0 -.4 .1 -.3c-.3 -.2 -.6 .4 -.9 0c.1 0 0 .3 0 .3c-.1 -.1 -.1 -.4 -.2 -.2c0 -.2 -.1 0 -.2 .1c-.1 .1 0 -.1 .1 -.1c-.2 .1 -.7 .3 -1 .1c0 .1 -.2 .4 -.3 .4l.1 -.3c-.1 -.1 -.3 .1 -.3 -.2c-.1 .4 .6 -.2 .4 0c-.1 -.2 -.3 .4 -.3 .1c-.1 0 -.2 .3 -.4 0c.1 .1 .1 -.3 0 -.3c-.2 0 0 .1 -.2 .2l-.1 .1c0 .3 -.2 0 -.1 .3c0 -.2 -.3 .1 -.3 -.3l.1 -.3c-.1 0 -.2 .3 -.3 .4c0 0 0 -.1 0 -.1c0 .5 -.2 -.1 -.3 .3c-.1 -.1 -.2 -.1 -.3 -.1l1.3 -1.3c-.1 .2 -.1 .3 -.2 .3c.1 .1 .3 .3 .2 .4c-.1 0 -.1 -.1 -.2 -.1c-.1 .1 0 .2 .1 .3c-.1 -.1 -.3 .2 -.5 .3c.2 .1 .4 .1 .6 .1c-.5 .1 .3 .4 -.1 .5c-.1 0 -.3 -.2 -.4 -.1c-.5 .2 .4 .3 .1 .5h.4c-.2 0 .3 .3 -.2 .2c.2 .1 -.1 .3 .3 .3c-.3 .3 .2 .8 -.5 1c.1 0 0 .2 .2 .1c.2 -.1 -.2 -.1 0 -.1c0 0 .1 0 .2 0c-.1 .1 -.1 .2 -.5 .1c-.2 .3 .7 .3 .5 .6c-.1 0 -.2 0 -.2 .1l.3 .1c0 .2 -.4 .1 -.6 .1c0 .1 0 .3 .2 .3l-.3 .1c.2 0 .1 .1 .2 .2l-.1 -.1c-.1 0 0 .2 0 .2c.2 0 .3 -.1 .3 -.2c.1 .1 .1 .2 .2 .2c-.2 0 -.1 .2 -.2 .3c0 .1 .3 .1 .3 .1c-.2 0 -.1 .2 -.3 .1c0 0 .2 -.1 .1 -.1c-.2 0 -.4 0 -.2 .1c.1 .1 .5 0 .3 .2c0 0 -.1 0 -.2 -.1l-.2 .2h.3q-.1 0 -.1 0c.2 .1 0 .3 .3 .3c.1 .1 -.1 .2 -.2 .3c-.1 .1 0 .2 .1 .3c0 0 0 .2 .1 .2c-.1 .2 -.9 .1 -.6 .2c0 .2 .5 .3 .6 .2c-.1 .3 .3 .5 -.1 .8q.1 0 .2 .1c-.1 .3 .3 .8 -.2 1c-.1 -.1 -.2 0 -.4 0c.2 .1 -.2 .1 .2 .2c.2 0 .3 0 .4 -.1c.1 .2 .1 .5 -.1 .7c.1 -.1 .2 -.1 .2 0c-.3 0 -.4 .1 -.2 .3h.2l-.2 .1c0 0 .4 0 .2 .1c-.1 .1 -.2 .1 -.2 .1c.1 .1 .4 .3 .3 .4l-.4 .1c.1 .1 .3 .2 .4 .1c-.2 .2 -.3 .4 -.5 .5c.3 .2 .5 .5 .6 .7l-1.8 -1.7c.2 -.1 .5 -.1 .7 -.1v.2c.1 .1 .1 -.3 .1 -.2c0 .2 .1 .4 0 .5c.2 .2 .3 -.2 .4 -.3c0 -.2 -.1 .1 -.1 -.1c0 -.1 .3 .1 .3 -.2c.1 .1 0 .4 0 .5l.1 -.2c.1 .4 -.3 .7 -.2 1.2l.1 -.1c.1 .3 -.2 .4 0 .5c.1 -.2 .2 -.6 .1 -.8c.3 0 .1 -.7 .4 -.7c.1 .2 -.2 .1 -.2 .3c.2 .3 .3 -.1 .4 0c-.1 -.2 0 -.5 0 -.5c.2 .1 0 .3 .1 .3c.1 -.2 .2 -.3 .1 -.5c.1 -.4 .2 .2 .3 -.2c0 .3 -.2 .7 0 .9c0 -.3 .2 -.4 .1 -.8c.1 0 .1 .3 .1 .4c.1 .2 .2 -.5 .3 .1v-.3c0 .1 .1 .2 .1 .3c.1 0 .4 -.4 .4 .1c0 -.1 .2 -.1 .1 -.4c-.1 -.2 -.1 .2 -.2 -.2c.1 .4 .2 0 .3 -.1v.2c0 -.1 .1 -.1 .2 -.3c-.1 .1 -.1 .3 0 .3v-.3c.2 -.1 .1 .5 .3 .4l-.2 .2c.1 0 .1 .2 .2 .1l.1 -.7c.2 -.1 .1 .3 .2 .1l-.1 .2c-.1 .1 .1 .4 .2 .4c.1 -.1 .2 -.4 .1 -.5c.1 0 .2 .1 .1 .3c.2 -.1 0 -.3 .1 -.4c.1 .1 .3 .4 .4 .6l-.2 .4h.1c-.1 .3 .1 .2 0 .6c.1 0 .2 -.1 .2 -.2c-.2 -.5 .2 -.7 .2 -1.2c.2 -.1 .1 1.2 .4 .4c0 -.1 .1 -.5 -.1 -.3c.2 0 .2 -.5 .3 -.3c-.1 .2 .2 .5 0 .8c0 -.2 -.1 -.2 -.2 -.1c.1 .2 0 .5 .2 .5c.1 -.1 .2 -.1 .2 -.3c0 -.3 -.1 0 -.1 -.3c.2 -.1 .3 .3 .4 -.2c-.2 .1 -.2 -.2 -.2 -.4l.1 -.1v.2c.3 .1 .1 -.4 .3 -.3l.1 .4c0 .3 -.3 -.2 -.3 .3c.2 0 .2 -.2 .4 -.1c0 .1 -.1 .1 -.1 .1c0 0 .1 .7 .3 .3c.1 -.1 0 -.2 0 -.4c.3 0 .4 -.2 .5 -.2c0 .3 .3 0 .1 .4c-.1 -.2 -.4 -.2 -.5 .1c.1 .5 -.2 0 -.2 .4c.1 0 .1 .5 .2 .8c0 0 .1 -.1 .1 -.2c0 -.3 0 -.2 0 -.5c.2 0 .4 -.1 .5 -.4c.1 .2 .1 .4 0 .5c.2 -.1 .5 -.1 .8 0c-.2 -.4 .2 -.1 .1 -.5c-.1 -.1 -.2 -.4 -.1 -.6c0 .1 0 .2 0 .3c.1 -.2 .2 .4 .3 0c-.3 .2 -.1 .6 -.1 .9c.1 -.2 0 .2 .1 .2c.2 -.1 .4 -.3 .6 -.4c.2 .4 .6 0 .8 0c.1 .2 .1 .6 .2 .6c.1 0 -.1 -.4 .1 -.2v.1c0 -.1 .3 .2 .4 -.3l-.1 .4q.1 0 .2 -.1c0 .1 0 .3 -.1 .4c.2 .2 .3 -.1 .5 -.1l-.1 -.2c.2 -.2 .4 0 .6 -.1v.3l.1 -.2c0 .3 .1 .4 .2 .2l-.4 .6c-.1 -.1 .1 -.3 .1 -.5c-.1 -.2 -.3 -.2 -.3 .1c.1 0 .1 -.1 .1 -.2c.1 .4 -.1 .4 -.1 .6c0 0 .1 .1 .1 0c-.1 .1 -.2 .2 -.3 .2c.1 -.2 -.1 -.2 0 -.3c-.1 .3 -.2 .4 -.4 .3c-.1 -.4 -.3 .2 -.5 .1c.1 -.3 .2 -.5 .3 -.7c-.1 -.1 -.1 0 -.3 -.1c0 .2 -.1 .6 -.2 .7v-.2c-.2 .1 -.2 .4 -.4 .4c-.3 -.1 -.7 -.1 -.9 -.2v-.2c-.2 .5 -.5 .2 -.7 .4c-.3 -.2 -.7 .2 -.8 -.2c-.6 .2 -1.1 .4 -1.7 .3l.1 -.3c-.1 .2 0 -.2 -.2 -.2c.2 .3 -.1 .3 -.2 .5c-.2 -.2 -.6 .1 -.8 .3v-.2c-.2 .4 -.5 0 -.8 0c0 -.1 -.1 -.3 -.2 -.3c-.1 .3 -.2 .3 -.4 .5c-.2 0 -.5 0 -.7 -.2c-.6 .5 -1.3 .2 -1.9 .5l-.1 -.3c-.3 .3 -.7 .3 -1 .3l-1.7 -.1l.1 -1.5c.1 -.3 .1 -.6 0 -.9l.4 .1c.2 -.2 -.1 -.4 -.4 -.4c.1 -.2 -.2 -.4 .1 -.5c.1 -.2 -.2 -.2 -.2 -.4c.1 -.3 .1 -.5 0 -.8v.1c.1 0 .3 0 .3 -.1c-.1 -.1 .1 -.4 -.4 -.3c.3 -.3 -.3 -.8 .2 -1.2c-.2 .1 -.2 0 -.3 -.1c0 -.3 .3 -.6 0 -.8c.1 -.1 .3 0 .3 -.1c-.1 -.1 -.2 0 -.3 -.1c-.3 -.5 .3 -1 .2 -1.5c-.3 -.8 -.1 -1.6 -.2 -2.4h.1c-.4 -.3 .5 -.6 -.2 -.8c.1 -.1 .1 -.3 .3 -.2c-.3 -.2 .3 -.6 -.1 -.9l.1 .1c.2 -.3 -.1 -.6 .1 -.9c0 0 .1 .1 .2 .1c.2 -.1 -.5 -.3 0 -.4c0 0 -.2 0 -.2 0c0 -.1 .1 -.2 .1 -.4V462l1.5 .1c.6 0 1.2 -.2 1.8 -.3c.5 .3 0 .9 .5 .5c0 .1 0 -.2 0 -.1c.1 -.1 .2 .6 .3 .3c0 -.3 .1 -.2 .1 -.4c.3 .2 .4 .5 .7 .3l-.1 .2c.3 -.5 .7 -.3 .9 -.8c1.7 -.1 3.2 -.4 4.8 -.5c1.4 .1 2.7 -.1 4.1 .1l2.5 .2l-.2 2c0 .3 -.1 .5 -.1 .7c-.5 .3 -.4 .4 -.3 .8c0 0 -.1 -.1 -.1 0c.3 0 0 .3 .4 .3c-.1 .6 0 1.1 0 1.7c0 -.1 -.3 -.1 -.3 0l.2 .1l-.1 .1c.1 0 .2 .1 .4 0c.3 1.6 -.4 3.1 -.4 4.6c-.1 .3 0 .8 .1 1.2c-.5 1.2 -.9 2.2 -.5 3.3c0 0 -1 -.1 -1.2 -.6Z" class="g3_74"/>
<path d="M421 477.1c-.1 -.2 -.2 -.3 -.1 -.5c0 .1 .1 .3 .1 .5Z" class="g3_74"/>
<path d="M417.4 475.2c0 .1 0 -.1 -.1 -.1c.1 0 .1 -.1 .2 -.1q-.1 .1 -.1 .2Z" class="g3_74"/>
<path d="M416.5 475.1c0 -.1 .2 -.3 .3 -.3Z" class="g3_74"/>
<path d="M415.6 474.4c0 -.1 0 -.2 .1 -.2c0 .1 0 .2 -.1 .2Z" class="g3_74"/>
<path d="M415.6 474.8c-.1 0 -.1 -.1 -.1 -.2c0 .2 .1 -.1 .1 .2Z" class="g3_74"/>
<path d="M413.8 474.3c-.1 .1 -.2 .2 -.2 0c0 .1 .2 -.2 .2 0Z" class="g3_74"/>
<path d="M412.9 474.6h-.1c0 -.1 0 -.2 .1 -.2Z" class="g3_74"/>
<path d="M409.4 465.6l.1 .1h-.2Z" class="g3_74"/>
<path d="M413.1 464.8c0 -.1 0 .2 0 .2c0 0 .1 -.2 0 -.2Z" class="g3_74"/>
<path d="M416.7 464v.1v-.4Z" class="g3_74"/>
<path d="M324.4 668.7L297.1 646.5l-27.4 22.2h7.7v25.8h39.3V668.7Z" class="g3_74"/>
<path d="M323.7 668.9c.6 .4 -.1 -.4 .4 .2c-.1 0 -.3 0 -.4 -.2Z" class="g3_74"/>
<path d="M322.3 668.3c-1.7 .7 -3.7 .3 -5.6 .3v.1c0 .6 0 1.1 .2 1.6c0 .3 -.5 0 -.4 .6c.7 2.2 .3 5.7 -.2 8.4l-.2 -.2c-.1 .5 .4 1.1 .3 1.7c-.1 0 -.1 -.2 -.2 -.1c.2 .2 .1 1 .3 1.3c-.1 .2 -.3 .2 -.4 .4l.3 .3c.7 .9 -.1 2.2 .3 3.3c-.1 0 -.1 -.1 -.2 0c.4 1.9 .3 4.2 .5 6.4c-.1 -.1 -.3 -.2 -.4 -.1c.3 .1 .4 .8 .4 1.3c-.2 .2 0 .5 .1 .9l.1 .2l-.5 .1c-.2 .1 -.5 .2 -.8 .1l.1 -.1c-.5 .3 -.7 -.2 -1.1 .2l-.4 -.2c-.2 .4 -.7 -.3 -1.1 0v.1c-.3 .1 -.5 -.2 -.9 -.1c-.9 .1 -1.4 -.2 -1.3 .2c-.3 -.3 .8 -.1 .3 -.6c-2.7 .4 -5.6 .3 -8.3 .3c-.3 -.1 -.5 -.1 -.6 -.3c-.3 .1 -1.1 .1 -1.3 .3c.1 0 -.2 -.2 -.3 -.2c-.5 -.2 -.6 .4 -1.1 .2c.2 -.1 .3 -.2 .2 -.3c-.5 .2 -1.1 .2 -1.7 .3c.1 -.1 .3 -.1 .2 -.2c-.6 .3 -1.1 -.1 -1.6 .1l.2 -.2c-.9 -.2 -.3 .4 -1 .3c.2 -.1 .1 -.2 .1 -.2c-.7 .3 -1.8 .2 -2.5 .3c.1 0 .1 -.1 .1 -.1c-.8 .1 -1.6 0 -2.4 .1c-.3 -.1 .1 -.5 -.7 -.4c0 .4 -1.4 .2 -.9 .6c-.7 0 -1.7 -.2 -2.2 0c.3 -.2 -.3 -.5 .2 -.6l-.4 -.2c.1 -.2 .4 0 .3 -.2c-.3 0 -1.1 .2 -1.4 .1c-.5 .3 -1 .8 -1.8 .8c.4 -.1 -.2 -.4 0 -.5l-1.2 .8c-.2 0 0 -.3 -.4 -.2c0 .1 -.2 .1 -.3 .2c-.1 0 -1.2 .1 -1.3 -.3c-.1 -.1 .5 -.1 .1 -.2c-.5 0 -.5 .1 -1 .1c-.4 -.1 -1.1 .2 -.7 .4c.3 0 -.1 -.3 .3 -.1c-.3 .2 -.9 .3 -1.4 .3c.2 -.1 .2 -.2 .2 -.3c-.5 .2 -1 .3 -1.5 .4l-.8 .2l-.2 -1.2l-.2 -.7c-.1 0 .4 .3 .3 .4c.3 -1 -.4 -2.1 0 -2.9c0 .1 -.3 .1 -.2 .1c0 -.5 .3 -.5 .2 -.8c.1 -.1 -.1 -.4 -.1 -.7c-.1 -.2 .1 -.1 .1 .2c-.2 -.5 -.4 -2.3 -.2 -3.4c-.1 .1 -.4 -.6 -.4 -.8l.3 .1c.1 -.3 0 -.9 .2 -.9c-.3 -.5 .2 2 0 1.3c.2 -.2 -.4 -1 0 -.8c-.1 -.5 -.3 -1 -.1 -1.4c0 .1 .3 .4 .3 0c0 -.7 -.1 -.2 -.2 -.8l-.1 -.3c-.2 -.1 .1 -.7 -.2 -.4c.2 -.1 -.1 -1 .3 -.9l.3 .1c0 -.3 -.4 -.5 -.5 -.8c0 0 .1 -.1 .1 -.1c-.4 0 .1 -.7 -.3 -1c.2 -.6 0 -1.6 .3 -1.9c-.1 -.5 -.3 -.9 -.2 -1.5c.1 .2 .1 .3 .2 .3c.1 -.3 0 -.4 -.1 -.7c.1 .1 .3 -.7 .5 -1.1c-.2 -.4 -.4 -.3 -.6 -.3c.5 -.5 -.3 -1.4 .1 -1.9c.1 .1 .3 .7 .4 .3c.5 -.5 -.4 -.9 -.1 -1.6l-.4 .2c.2 -.3 -.3 -1.1 .1 -1c-.1 -.2 .2 -.8 -.2 -.7c.1 -.4 .1 -.9 .1 -1.4l1.3 1.3c-.9 0 -1.7 .1 -2.2 -.4c-.1 .1 -.6 0 -.5 .2c.3 .2 .4 -.1 .5 0c-.1 0 -.2 .1 -.2 .2c-.3 -.1 -.6 -.1 -.3 -.5c-.8 -.2 -.8 .7 -1.8 .6c0 -.2 0 -.3 -.3 -.2l-.6 .2c-.7 0 -.4 -.3 -.4 -.6c-.3 0 -.8 0 -.9 .2l-.5 -.3c.3 .2 -.2 .2 -.4 .2h.2c-.1 -.1 -.2 -.1 -.3 -.1h-2.1l1.6 -1.4c.2 -.1 .3 -.2 .4 -.3c-.1 -.1 -.4 0 -.5 .1l-2.5 1.2l3.1 .7h.3c-.1 .1 -.2 .1 -.3 .1l-2.9 .7l2.2 -2.8c.1 -.1 .2 -.3 .2 -.4c.1 .2 .6 -.2 .8 -.4c.3 -.1 .2 -.4 .2 -.4c.1 .1 .5 -.4 .4 0c-.1 .1 -.3 0 -.4 .2c.3 0 .4 .2 .6 -.2c.2 -.4 -.4 -.4 .2 -.7c-.1 .2 0 .3 -.1 .4l.6 -.2l-.1 -.2c.1 0 0 0 .1 0c-.1 -.3 .6 -.6 .5 -.9c.3 -.2 .6 -.3 .9 -.4h-.1c.4 -.1 .7 -.4 .8 -.7c.2 -.1 .5 -.4 .6 -.7c.5 -.1 .7 .6 .9 .1c.4 -.3 .3 -.8 .1 -.8c.8 -.5 1.3 -1.4 2.1 -1.6c.1 -.2 0 -.2 .1 -.4c1.1 -.7 1.9 -1.9 3 -2.1c-.2 .3 .2 .2 .2 .3c.1 -.4 .5 -.1 .3 -.5c-.1 -.1 -.2 -.2 -.5 -.1c.5 -.5 1.4 -1.2 1.8 -1.4c-.2 .1 -.1 -.1 0 -.2c.2 .3 .6 0 .9 -.4l-.1 -.2h.4c0 -.1 -.2 -.4 .3 -.6c0 .1 .1 .1 .2 .1c.2 -.4 .5 -1 1 -1.1h.5c.1 -.2 .3 -.6 0 -.4c.7 -.4 1.1 -.7 1.5 -.6c.7 -1.4 2.2 -2.7 3.5 -3.7l.1 .1c.4 -.1 0 -.3 .3 -.4c0 .2 .5 0 .3 .4c.6 -.3 .5 -.7 .7 -1c-.1 -.3 -.1 .3 -.3 0c.1 -.1 .8 -.4 .7 -.7c.2 0 .3 .2 .3 .4l.2 -.4c.6 0 -.4 1.2 .2 1.3l.3 -.3c.4 .1 -.5 .9 .2 .4c.2 -.3 .2 -.9 -.1 -.8c.5 -.6 -.2 -.8 .4 -1.3c.3 -.1 -.5 .4 -.2 .5c.5 0 .6 -.6 .9 -.8c-.4 .2 -.3 -.3 -.2 -.5c.5 -.1 0 .4 .5 .1c0 -.2 .3 -.7 -.1 -.5c-.1 -.5 .5 -.3 .6 -.8c.3 .1 -.1 1 .5 .7c-.2 -.2 .5 -.9 -.1 -1c.1 0 .2 0 .2 0l2.5 .7V645c0 .1 -.1 .2 -.2 .2l-2 .7l-.1 -.7c0 0 0 .1 0 .1h.1l1.3 -.7l.7 .7c.2 .3 .9 .1 .7 .6l.3 -.1c0 .1 .1 .3 .2 .5c.2 .3 1 .4 .7 .7c.2 .1 .7 .6 .7 .1c-.2 -.4 -.6 -.1 -.5 -.6c0 .5 .6 .4 .8 .5v.1c.1 .1 .4 .3 .6 .3c-.2 0 -.2 .1 -.1 .2l.3 -.1c.6 .3 -.2 .5 .4 .8l-.5 -.1c.1 0 .1 .3 .4 .5c.2 -.2 .6 -.2 .8 -.3c.3 .1 -.1 .3 .4 .3h-.6c-.1 0 0 .5 .4 .8c.3 .1 .9 .1 .6 -.3c.2 .2 .4 .5 .1 .5c.5 .3 .1 -.2 .6 0c0 .2 .3 .8 .5 1.2h-.7l.3 .2c-.5 0 0 .3 -.4 .4c.2 .2 .5 .3 .7 .3c-.2 -.8 1 0 1.2 -.5c.8 .4 -.3 1.2 .9 1.2c-.1 -.2 .5 -.2 0 -.4c.4 .4 .6 -.2 1 .4c-.5 -.1 .1 .7 -.7 .5c.2 -.1 -.2 -.3 -.3 -.4c.1 .3 -.3 .4 .1 .7c.3 .2 .7 .5 .8 .3c.2 -.2 -.4 -.3 -.1 -.4c.6 .4 .4 .8 1 .6c-.4 -.3 -.3 -.6 -.2 -.7l.5 .2l-.2 .1c.6 .6 .4 -.1 1 .4l.1 .5c-.4 .2 -.9 -.8 -1.1 -.3c.4 .3 .7 .2 1 .7c-.1 -.1 -.2 -.2 -.3 -.2c.1 .1 -.2 .8 .6 .9c.4 .2 .2 0 .4 -.2c.6 .5 1 .5 1.4 .8c-.3 .2 .7 .6 0 .6c-.1 -.4 -1 -1.1 -1.5 -1c0 .5 -.4 -.5 -.9 -.3c.6 .5 .3 .8 .2 1.1c.1 .1 .3 .1 .4 .2c.3 -.2 .1 -.3 .2 -.6c.6 .6 1.2 .9 1.7 1c.1 .2 -.1 .4 -.4 .2c.8 .5 1.5 1.1 2.1 1.7c-.2 -.6 .8 .6 .7 0c-.3 -.3 -.4 -.8 0 -.8c.2 .2 -.2 .1 -.1 .3c.4 0 .2 .6 .7 .6c-.8 -.4 -.5 .3 -.8 .4c.5 .3 -.2 .2 .2 .6c.6 .2 1.3 .5 1.8 .9c.5 .8 1.6 1.3 2.2 1.7c.2 .4 -.3 .6 0 .9c.4 .3 0 -.6 .4 0h-.1c.3 .1 .9 1.1 1.4 .8l-.4 .2c.1 .1 .2 .1 .3 .1c-.1 .1 0 .3 -.2 .2c.1 .5 .7 .6 1.1 .9l-.1 -.4c.8 .4 1.1 .9 1.7 1.3l-.1 .2l.4 .2c-.2 .1 0 .5 .3 .5l-1.3 -.3c-.2 -.3 .5 0 .5 -.3c0 -.3 -.7 -.7 -.9 -.6q.2 .2 .5 .2c-.2 .4 -.5 .1 -.8 .1c.1 .1 .2 .3 .3 .2c-.3 0 -.6 -.2 -.9 -.5c.3 .1 0 -.2 .1 -.2c-.2 .2 -.6 -.1 -1 -.5c-.2 -.5 -1.1 -.5 -1.5 -1c.4 -.1 .8 -.1 1.2 .1c-.2 -.4 -.4 -.3 -.6 -.7c-.3 .1 -.7 .2 -1.2 0l.1 -.2c-.4 -.3 -.6 0 -1.1 -.5c-.8 -.7 -1.7 -1.5 -2.4 -2l.2 -.2c-.7 0 -1.4 -.9 -2 -1.1c-.7 -.9 -2 -1.4 -2.2 -2c-1.6 -1.1 -3 -2 -4.5 -3.4h.5c-.5 0 -.1 -.3 -.4 -.5c.1 .5 -.6 0 -.9 0c-.5 -.8 -1.6 -1.3 -2.4 -1.6l.2 -.2c-.9 -.2 -1.4 -1 -2.2 -1.7c0 -.2 0 -.4 -.2 -.6c-.7 -.1 -.9 -.3 -1.6 -.6c-.5 -.4 -1.2 -1 -1.5 -1.5c-.3 -.1 -.6 -.3 -.8 -.4h1.5c-1.3 1.4 -2.9 2.4 -4.2 3.9l-.3 -.1c-1.4 1.8 -3.8 3.1 -5 4.5l-.2 -.5c-.5 .3 -1 1 -.6 1.1c-.6 .3 -1 1.1 -1.6 1.1c-.5 .3 -.4 .6 -.7 .9c-1.1 .7 -1.4 1 -2.2 1.7l.2 -.1c0 -.2 -.1 -.3 -.3 -.2c-.3 .4 -1.3 .9 -.6 1.1c-1.2 .5 -2.1 1.9 -3.2 2.4c.1 0 -.1 .2 -.1 .4c-.8 .6 -1.9 1.1 -2.4 1.8c-.2 .1 .1 -.3 -.3 -.1c-.1 .2 .1 .2 -.1 .5c-1.1 1.2 -2.8 1.9 -4 3c-.4 .4 -.9 .8 -1.3 1.2l-1.2 -3.2c2.2 -.1 4.4 0 6.5 0v.1c.4 -.2 .8 -.2 1.2 -.1l2 .3l-.2 1.5c-.1 .6 -.2 1.2 .1 1.6c-.1 .2 0 .8 -.2 .7c.3 .7 -.3 2 .1 3c0 -.1 0 -.2 -.1 -.3c-.2 1.1 .1 2 -.1 3.1c-.1 -.1 -.1 -.3 -.2 -.4c-.2 .5 .5 1 -.1 1.3c0 .2 .3 .1 .3 0c-.2 2.4 .1 4.9 .2 7.4c-.3 1.8 -.8 .1 -.5 1.5c-.1 .2 .2 .1 .1 .1c.2 .6 -.5 .9 -.3 1.3c.3 -.2 .2 .2 .4 .2c-.2 1.1 -.5 1.3 -.2 2.2l-.2 -.1c.5 1 .2 2.2 .7 3.1l.1 1.1l-1.9 -1.9c5.2 -.1 10.1 -.4 15.2 -.5c5.4 .2 10.6 -.1 16.1 .2q1.3 .4 2.7 .2c0 .1 -.1 .1 0 .2c.1 -.4 1 0 1.1 -.4c1.5 .1 2.8 0 4.2 0l-2.1 2.2v-1.7c0 .3 .3 .5 .3 .1l-.3 -.4l.1 -.1c0 -.3 -.2 -.6 -.3 -.3c-.3 -5.2 .4 -10.3 .3 -15.4c.2 -1.2 0 -3 0 -4.3c.1 -1.2 .3 -2.5 .4 -3.7l.1 -1.8l1.5 .1c2.6 .3 5 .4 7.7 .2c0 0 -.5 .9 -2.1 1.1Z" class="g3_74"/>
<path d="M323.1 668.4c0 -.2 -.3 -.5 .1 -.5c0 .2 0 .5 -.1 .5Z" class="g3_74"/>
<path d="M314.8 659.4c0 0 0 -.2 -.1 -.2c.2 0 .4 0 .4 .2c-.1 -.1 -.2 0 -.3 0Z" class="g3_74"/>
<path d="M312.5 657.3c.1 -.1 .7 .3 1.1 .5Z" class="g3_74"/>
<path d="M310.7 655c-.1 -.2 0 -.3 .2 0c0 0 -.1 0 -.2 0Z" class="g3_74"/>
<path d="M310.3 655.2c-.2 -.2 -.2 -.3 -.3 -.5c0 .1 .5 .3 .3 .5Z" class="g3_74"/>
<path d="M305.7 650.9c-.1 -.1 -.4 -.2 -.4 -.5c0 .2 .7 .4 .4 .5Z" class="g3_74"/>
<path d="M303.3 649.2q-.1 -.1 -.2 -.1c-.1 -.2 .1 -.2 .3 -.1Z" class="g3_74"/>
<path d="M276.2 672.3l-.1 -.3h.2Z" class="g3_74"/>
<path d="M278.4 695.7c.3 -.1 .2 .1 .3 .1c-.3 .1 .1 -.1 -.3 -.1Z" class="g3_74"/>
<path d="M290.9 694.9h-.1l.1 -.3Z" class="g3_74"/>
<path d="M290.3 682.2c.2 0 -.1 -.2 .2 -.1c-.1 .1 -.1 .2 -.2 .1Z" class="g3_74"/>
<path d="M290.9 681c-.9 -.6 0 -1.4 -.6 -2.1c0 -.1 .5 0 .4 -.1c-.7 -.7 -.3 -1.7 .2 -2.5h.2c.1 -.1 -.4 -.3 -.3 -.4q.1 0 .2 0c-.2 -.1 -.1 -.3 -.3 -.4c.1 -.1 .3 0 .4 -.1l-.3 -.1c-.7 -.3 .1 -.6 -.3 -1c.1 0 .2 .1 .2 0c-.4 -.5 -.3 -1.2 -.5 -1.8c.1 0 .3 0 .4 0c-.3 -.1 -.4 -.2 -.4 -.4c.3 -.1 -.3 -.3 -.1 -.5c-.3 -.1 .2 -.2 -.2 -.3l.3 -.1c-.5 -.1 .2 -.2 0 -.3h-.1c-.1 -.1 .1 -.2 0 -.3h.1c-.1 -.3 .1 -.4 -.2 -.4c.2 -.1 .1 .2 .5 .1c-.2 -.5 -.3 -1 -.3 -1.4l.3 .2h-1c-.1 -.1 -.2 -.2 -.2 -.3c-.1 .1 -.3 .1 -.4 .2c0 0 0 -.1 -.1 -.2c-.1 -.1 -.1 .4 -.3 .3c.1 -.1 .1 -.2 .1 -.4c-.2 .3 -.4 .3 -.5 .4q0 -.1 0 -.2c-.1 .3 -.3 -.1 -.4 .1v-.2c-.2 -.3 -.1 .4 -.3 .3c.1 -.1 .1 -.2 .1 -.3c-.2 .4 -.6 .3 -.8 .4c0 0 0 -.1 0 -.1c-.2 .1 -.4 0 -.7 .1c0 -.1 .1 -.5 -.2 -.4c0 .4 -.4 .2 -.2 .6c-.2 0 -.5 -.2 -.7 -.1c.1 -.1 -.1 -.5 .1 -.5l-.1 -.2c0 -.2 .1 0 .1 -.2c-.1 0 -.4 .2 -.4 .1c-.2 .3 -.3 .7 -.6 .8c.1 -.2 0 -.5 0 -.5l-.3 .7c-.1 .1 0 -.3 -.2 -.2c.1 .1 0 .2 0 .3c-.1 -.1 -.4 .1 -.4 -.3c-.1 -.2 .1 -.1 0 -.2c-.1 0 -.1 .1 -.3 .1c-.1 -.1 -.3 .1 -.2 .4c.1 0 0 -.3 .1 -.2c-.1 .3 -.3 .3 -.4 .3c0 0 0 -.1 .1 -.3c-.2 .4 -.5 .5 -.7 .6c0 .2 .1 -.4 .1 -.3c-.3 -.2 -.6 .4 -.8 0c0 0 0 .3 0 .3c-.2 -.1 -.1 -.3 -.2 -.2c0 -.2 -.2 0 -.2 .1c-.1 .1 -.1 -.1 0 -.1c-.1 .1 -.7 .3 -1 .1c0 .1 -.2 .4 -.2 .4V670c-.1 -.1 -.2 .1 -.2 -.2c-.2 .4 .5 -.2 .3 0c0 -.2 -.2 .4 -.2 .1c-.1 0 -.3 .3 -.4 0c0 .1 .1 -.3 0 -.3c-.2 .1 -.1 .1 -.2 .2l-.1 .1c0 .3 -.2 0 -.1 .3c-.1 -.2 -.3 .1 -.3 -.3v-.3c-.1 0 -.1 .3 -.2 .4c0 0 0 -.1 0 -.1c0 .5 -.2 -.1 -.3 .3c-.1 -.1 -.2 -.1 -.3 -.1l1.2 -1.2c0 .1 0 .2 -.2 .2c.2 .1 .3 .3 .2 .4l-.1 -.1c-.2 .1 -.1 .2 0 .3c0 -.1 -.3 .2 -.4 .3c.1 .1 .4 .1 .5 .1c-.4 .1 .3 .4 -.1 .5c-.1 0 -.2 -.2 -.4 -.1c-.4 .2 .4 .3 .2 .5h.4c-.3 0 .2 .3 -.2 .2c.1 .1 -.1 .3 .3 .3c-.4 .3 .2 .8 -.5 1c0 0 0 .2 .2 .1c.2 0 -.2 -.1 -.1 -.1c.1 0 .2 0 .2 0q-.1 .2 -.4 .1c-.3 .3 .6 .3 .5 .6q-.2 0 -.2 .1l.3 .1c-.1 .2 -.4 .1 -.7 .1c.1 .2 .1 .3 .3 .3l-.4 .1c.3 0 .2 .1 .3 .2l-.1 -.1c-.1 .1 -.1 .2 0 .2c.1 0 .2 -.1 .3 -.2c.1 .1 .1 .2 .2 .2c-.3 0 -.2 .2 -.2 .3c-.1 .1 .2 .1 .2 .1c-.1 0 0 .2 -.2 .1c-.1 0 .1 -.1 0 -.1c-.1 0 -.3 0 -.2 .2c.2 0 .6 -.1 .4 .1c-.1 0 -.2 0 -.3 -.1l-.1 .2h.2c0 0 -.1 0 -.1 0c.3 .1 .1 .3 .4 .3c0 .1 -.2 .2 -.2 .3c-.2 .1 -.1 .2 .1 .3h-.1c0 0 0 .2 .2 .2c-.2 .2 -.9 .1 -.6 .2c0 .2 .4 .3 .6 .2c-.2 .3 .2 .5 -.2 .8c.1 0 .2 0 .3 .1c-.1 .3 .2 .8 -.2 1.1c-.1 -.2 -.3 -.1 -.4 -.1c.2 .1 -.2 .2 .1 .2c.2 0 .4 0 .4 -.1c.2 .2 .2 .5 0 .7c.1 -.1 .1 0 .2 0c-.4 0 -.4 .1 -.3 .3h.2l-.2 .1c.1 0 .5 0 .3 .1c-.1 .1 -.2 .1 -.3 .1c.2 .1 .5 .3 .3 .4l-.3 .1c0 .1 .2 .2 .3 .1c-.2 .2 -.2 .4 -.5 .5c.4 .2 .6 .5 .6 .7l-1.7 -1.7c.2 -.1 .4 -.1 .7 -.1l-.1 .2c.2 .1 .1 -.3 .2 -.2c0 .2 .1 .4 0 .5c.2 .2 .2 -.2 .3 -.3c.1 -.2 0 .1 0 -.1c0 -.1 .2 .1 .3 -.2c0 .1 0 .4 -.1 .5l.2 -.2c.1 .4 -.4 .7 -.2 1.2l.1 -.1c.1 .3 -.3 .4 0 .5c.1 -.2 .2 -.6 .1 -.8c.2 0 .1 -.7 .3 -.7c.1 .2 -.2 .1 -.1 .3c.1 .3 .2 -.1 .3 0c-.1 -.2 0 -.5 .1 -.5c.1 .1 -.1 .3 .1 .3c0 -.2 .2 -.3 0 -.5c.1 -.4 .2 .2 .3 -.2c.1 .3 -.2 .7 0 .9c0 -.3 .3 -.4 .2 -.8c.1 0 .1 .3 0 .4c.1 .2 .3 -.5 .3 .1l.1 -.3c0 .1 0 .2 .1 .3c.1 0 .3 -.4 .3 .1c0 -.1 .3 -.1 .2 -.4c-.2 -.2 -.2 .2 -.3 -.2c.1 .4 .2 0 .3 -.1v.2c.1 -.1 .2 -.1 .2 -.3c0 .1 0 .3 0 .3l.1 -.3c.2 -.1 0 .5 .2 .4l-.1 .2c0 0 .1 .2 .2 .1l.1 -.7c.1 -.1 0 .3 .2 .1l-.2 .2c0 .1 .1 .4 .3 .4c0 -.1 .2 -.4 0 -.5c.1 0 .2 .1 .2 .3c.1 -.1 -.1 -.3 .1 -.4c0 .1 .2 .4 .3 .6l-.1 .4h.1c-.2 .3 0 .2 0 .6c0 0 .1 -.1 .2 -.2c-.2 -.5 .2 -.7 .1 -1.2c.3 -.1 .2 1.2 .5 .4c-.1 -.1 .1 -.5 -.1 -.3c.2 0 .1 -.5 .3 -.3c-.1 .2 .2 .5 -.1 .8c.1 -.2 -.1 -.2 -.1 -.1c.1 .2 0 .5 .2 .5c.1 -.1 .2 -.1 .2 -.3c0 -.3 -.2 0 -.1 -.3c.2 -.1 .2 .3 .3 -.2c-.1 .1 -.1 -.2 -.1 -.4l.1 -.1v.2c.2 .1 0 -.4 .3 -.3l.1 .4c-.1 .3 -.3 -.2 -.3 .3c.1 0 .2 -.2 .3 -.1q0 .1 -.1 .1c.1 0 .1 .7 .4 .3c.1 -.1 0 -.2 0 -.4c.2 0 .3 -.2 .5 -.2c-.1 .3 .2 0 .1 .4c-.1 -.2 -.5 -.2 -.5 .1c0 .5 -.2 0 -.3 .4c.2 0 .2 .5 .2 .8c.1 0 .1 -.1 .2 -.2c0 -.3 -.1 -.2 -.1 -.5c.2 0 .4 -.1 .6 -.4c0 .2 0 .4 -.1 .5c.3 -.1 .6 -.1 .8 0c-.1 -.4 .3 -.1 .2 -.5c-.2 -.1 -.3 -.4 -.2 -.6c.1 .1 0 .2 0 .3c.1 -.2 .2 .4 .3 0c-.2 .2 0 .6 -.1 .9c.2 -.2 0 .2 .2 .2c.2 -.1 .4 -.3 .6 -.4c.2 .4 .6 0 .8 0c.1 .2 0 .6 .1 .6c.2 0 -.1 -.4 .1 -.2v.1c.1 -.1 .4 .2 .5 -.3l-.1 .4c0 0 .1 0 .1 -.1c0 .1 .1 .3 0 .4c.1 .3 .3 -.1 .4 -.1l-.1 -.2c.3 -.2 .4 0 .7 -.1l-.1 .3l.2 -.2c0 .3 .1 .4 .2 .2l-.4 .6c-.1 -.1 .1 -.3 0 -.5c0 -.2 -.2 -.2 -.3 .1c.1 0 .1 -.1 .2 -.2c0 .4 -.1 .4 -.2 .6c.1 0 .1 .1 .1 0c0 .1 -.1 .2 -.3 .2c.1 -.2 0 -.2 0 -.3c0 .3 -.1 .4 -.3 .3c-.1 -.4 -.3 .2 -.6 .1c.1 -.3 .2 -.5 .4 -.7c-.2 -.1 -.2 0 -.3 -.1c-.1 .2 -.1 .6 -.3 .7v-.2c-.1 .1 -.1 .4 -.3 .4c-.4 -.1 -.7 -.1 -1 -.2v-.2c-.1 .5 -.4 .2 -.6 .4c-.3 -.2 -.7 .2 -.9 -.2c-.5 .2 -1 .4 -1.6 .3l.1 -.3c-.1 .2 -.1 -.2 -.2 -.2c.1 .3 -.1 .3 -.2 .5c-.3 -.2 -.6 .1 -.8 .3v-.2c-.3 .4 -.6 0 -.9 0c0 -.1 0 -.3 -.1 -.3c-.2 .3 -.3 .3 -.5 .5c-.2 0 -.4 0 -.6 -.2c-.6 .5 -1.3 .2 -2 .5v-.3c-.3 .3 -.7 .3 -1 .3l-1.7 -.1l.1 -1.5c0 -.3 .1 -.6 -.1 -.9l.5 .1c.1 -.2 -.1 -.4 -.5 -.4c.2 -.2 -.2 -.4 .2 -.5c.1 -.2 -.2 -.2 -.3 -.4c.2 -.3 .1 -.5 .1 -.8l-.1 .1c.1 0 .3 0 .4 -.1c-.2 -.1 .1 -.4 -.5 -.3c.3 -.3 -.2 -.8 .2 -1.2c-.1 .1 -.2 0 -.3 -.1c0 -.3 .3 -.6 .1 -.8c0 -.1 .2 0 .2 -.1c0 -.1 -.2 0 -.2 -.1c-.3 -.5 .2 -1 .2 -1.5c-.3 -.8 -.2 -1.6 -.2 -2.4h.1c-.4 -.3 .4 -.6 -.2 -.8c.1 -.1 0 -.3 .3 -.2c-.3 -.2 .2 -.6 -.1 -.9v.1c.3 -.3 -.1 -.6 .1 -.9c.1 0 .1 .1 .2 .1c.2 -.1 -.4 -.3 .1 -.4c0 0 -.3 0 -.2 0c0 -.1 0 -.2 0 -.3l.1 -1.7l1.5 .1c.5 0 1.2 -.2 1.8 -.3c.5 .3 0 .9 .4 .5c0 .1 0 -.2 0 -.1c.2 -.1 .3 .6 .4 .3c0 -.3 .1 -.2 .1 -.4c.3 .2 .4 .5 .6 .3v.2c.3 -.5 .6 -.3 .9 -.8c1.6 -.1 3.2 -.4 4.8 -.5c1.3 .1 2.7 -.1 4.1 .1l2.4 .2l-.2 2.1c0 .2 0 .4 -.1 .6c-.4 .3 -.4 .4 -.2 .8c-.1 0 -.1 -.1 -.2 0c.4 0 .1 .3 .4 .3c-.1 .6 0 1.1 0 1.7c0 -.1 -.3 -.1 -.3 0l.3 .1l-.1 .1c0 0 .2 .1 .3 0c.3 1.6 -.4 3.1 -.3 4.6c-.2 .3 0 .8 .1 1.2c-.5 1.2 -.9 2.2 -.6 3.3c0 0 -.9 -.1 -1.1 -.6Z" class="g3_74"/>
<path d="M290.1 682.3c0 -.2 -.2 -.3 -.1 -.5c.1 .1 .1 .3 .1 .5Z" class="g3_74"/>
<path d="M286.6 680.4c0 .1 -.1 -.1 -.1 -.1c0 0 .1 -.1 .1 -.1q0 .1 0 .2Z" class="g3_74"/>
<path d="M285.7 680.3c0 -.1 .2 -.3 .3 -.3Z" class="g3_74"/>
<path d="M284.8 679.7c-.1 -.2 0 -.3 .1 -.3c0 .1 -.1 .2 -.1 .3Z" class="g3_74"/>
<path d="M284.7 680c0 0 -.1 -.1 -.1 -.2c0 .2 .2 -.1 .1 .2Z" class="g3_74"/>
<path d="M282.9 679.5c0 .1 -.1 .2 -.2 0c.1 .1 .2 -.2 .2 0Z" class="g3_74"/>
<path d="M282.1 679.8q-.1 0 -.1 0c-.1 -.1 0 -.2 0 -.2Z" class="g3_74"/>
<path d="M278.6 670.8v.1h-.1Z" class="g3_74"/>
<path d="M282.2 670.1c.1 -.2 .1 .1 .1 .1c-.1 0 0 -.2 -.1 -.1Z" class="g3_74"/>
<path d="M285.9 669.2v.1v-.4Z" class="g3_74"/>
<path d="M290.3 695.1c.2 0 -.1 -.2 .2 -.1c-.1 .1 -.1 .2 -.2 .1Z" class="g3_74"/>
<path d="M290.9 693.9c-.9 -.6 0 -1.4 -.6 -2.1c0 0 .5 0 .4 -.1c-.7 -.7 -.3 -1.7 .2 -2.5l.2 .1c.1 -.2 -.4 -.4 -.3 -.5q.1 0 .2 0c-.2 -.1 -.1 -.3 -.3 -.4c.1 0 .3 0 .4 -.1l-.3 -.1c-.7 -.3 .1 -.6 -.3 -1c.1 0 .2 .1 .2 0c-.4 -.5 -.3 -1.2 -.5 -1.8c.1 0 .3 0 .4 0c-.3 -.1 -.4 -.2 -.4 -.4c.3 -.1 -.3 -.3 -.1 -.5c-.3 -.1 .2 -.2 -.2 -.3l.3 -.1c-.5 -.1 .2 -.2 0 -.3h-.1c-.1 -.1 .1 -.2 0 -.3h.1c-.1 -.3 .1 -.4 -.2 -.4c.2 -.1 .1 .2 .5 .1c-.2 -.5 -.3 -1 -.3 -1.4l.3 .2h-1c-.1 -.1 -.2 -.2 -.2 -.3c-.1 .1 -.3 .1 -.4 .2c0 0 0 -.1 -.1 -.2c-.1 -.1 -.1 .4 -.3 .3c.1 -.1 .1 -.2 .1 -.4c-.2 .3 -.4 .3 -.5 .4q0 -.1 0 -.2c-.1 .3 -.3 -.1 -.4 .1v-.2c-.2 -.3 -.1 .4 -.3 .3c.1 -.1 .1 -.2 .1 -.3c-.2 .4 -.6 .3 -.8 .4c0 0 0 -.1 0 -.1c-.2 .1 -.4 0 -.7 .1c0 -.1 .1 -.5 -.2 -.4c.1 .4 -.4 .2 -.2 .6c-.2 0 -.5 -.2 -.7 -.1c.1 -.1 -.1 -.5 .1 -.5l-.1 -.2c0 -.2 .1 0 .1 -.2c-.1 0 -.4 .2 -.4 .1c-.2 .3 -.3 .7 -.6 .8c.1 -.2 0 -.5 0 -.5l-.3 .7c-.1 .1 0 -.3 -.2 -.2c.1 .1 0 .2 0 .3c-.1 -.1 -.4 .1 -.4 -.3c-.1 -.2 .1 -.1 0 -.2c-.1 0 -.1 .1 -.3 .1c-.1 -.1 -.3 .1 -.2 .4c.1 0 0 -.3 .1 -.2c-.1 .3 -.3 .3 -.4 .3c0 0 0 -.1 .1 -.3c-.2 .4 -.5 .5 -.7 .6c0 .2 .1 -.4 .1 -.3c-.3 -.2 -.6 .4 -.8 0c0 0 0 .3 0 .3c-.2 -.1 -.1 -.3 -.2 -.2c0 -.2 -.2 0 -.2 .1c-.1 .1 -.1 -.1 0 -.1c-.1 .1 -.7 .3 -1 .1c0 .1 -.2 .4 -.2 .4v-.3c-.1 -.1 -.2 .1 -.2 -.1c-.2 .3 .5 -.3 .3 -.1c0 -.2 -.2 .4 -.2 .1c-.1 0 -.3 .3 -.4 0c0 .1 .1 -.3 0 -.3c-.2 .1 -.1 .1 -.2 .2l-.1 .1c0 .3 -.2 0 -.1 .3c-.1 -.2 -.3 .1 -.3 -.3v-.3c-.1 0 -.1 .3 -.2 .4c0 0 0 -.1 0 -.1c0 .5 -.2 -.1 -.3 .3c-.1 -.1 -.2 -.1 -.3 -.1l1.2 -1.2c0 .1 0 .2 -.2 .2c.2 .1 .3 .3 .2 .4l-.1 -.1c-.2 .1 -.1 .2 0 .3c0 -.1 -.3 .2 -.4 .3c.1 .1 .4 .1 .5 .1c-.4 .1 .3 .4 -.1 .5c-.1 0 -.2 -.2 -.4 -.1c-.4 .2 .4 .3 .2 .5h.4c-.3 0 .2 .3 -.2 .2c.1 .1 -.1 .3 .3 .3c-.4 .3 .2 .8 -.5 1c0 0 0 .2 .2 .1c.2 0 -.2 -.1 -.1 -.1c.1 0 .2 0 .2 .1q-.1 .1 -.4 0c-.3 .3 .6 .3 .5 .6q-.2 0 -.2 .1l.3 .1c-.1 .2 -.4 .1 -.7 .2c.1 .1 .1 .2 .3 .2l-.4 .2c.3 -.1 .2 0 .3 .1l-.1 -.1c-.1 .1 -.1 .2 0 .2c.1 0 .2 -.1 .3 -.2c.1 .1 .1 .2 .2 .2c-.3 0 -.2 .2 -.2 .3c-.1 .1 .2 .1 .2 .1c-.1 0 0 .2 -.2 .1c-.1 0 .1 -.1 0 -.1c-.1 0 -.3 0 -.2 .2c.2 .1 .6 -.1 .4 .1c-.1 0 -.2 0 -.3 -.1l-.1 .2h.2c0 0 -.1 0 -.1 0c.3 .1 .1 .3 .4 .3c0 .1 -.2 .2 -.2 .3c-.2 .1 -.1 .2 .1 .3h-.1c0 0 0 .2 .2 .2c-.2 .2 -.9 .1 -.6 .2c0 .2 .4 .3 .6 .2c-.2 .3 .2 .5 -.2 .8c.1 0 .2 0 .3 .1c-.1 .3 .2 .8 -.2 1.1c-.1 -.2 -.3 -.1 -.4 -.1c.2 .1 -.2 .2 .1 .2c.2 0 .4 0 .4 -.1c.2 .2 .2 .5 0 .7c.1 -.1 .1 0 .2 0c-.4 0 -.4 .2 -.3 .3h.2l-.2 .1c.1 0 .5 0 .3 .1c-.1 .1 -.2 .1 -.3 .1c.2 .1 .5 .3 .3 .4l-.3 .1c0 .1 .2 .2 .3 .1c-.2 .2 -.2 .4 -.5 .5c.4 .2 .6 .5 .6 .7l-1.7 -1.7c.2 -.1 .4 -.1 .7 -.1l-.1 .2c.2 .1 .1 -.3 .2 -.2c0 .2 .1 .4 0 .5c.2 .2 .2 -.2 .3 -.3c.1 -.2 0 .1 0 -.1c0 -.1 .2 .1 .3 -.2c0 .1 0 .4 -.1 .5l.2 -.2c.1 .4 -.4 .7 -.2 1.2l.1 -.1c.1 .4 -.3 .4 0 .5c.1 -.1 .2 -.6 .1 -.8c.2 0 .1 -.7 .3 -.7c.1 .2 -.2 .1 -.1 .3c.1 .3 .2 -.1 .3 0c-.1 -.2 0 -.5 .1 -.5c.1 .1 -.1 .3 .1 .3c0 -.2 .2 -.3 0 -.5c.1 -.4 .2 .2 .3 -.2c.1 .3 -.2 .7 0 .9c0 -.3 .3 -.4 .2 -.8c.1 0 .1 .3 0 .4c.1 .2 .3 -.5 .3 .1l.1 -.3c0 .1 0 .2 .1 .3c.1 0 .3 -.4 .3 .1c0 -.1 .3 -.1 .2 -.4c-.2 -.2 -.2 .3 -.3 -.2c.1 .4 .2 0 .3 -.1v.2c.1 -.1 .2 -.1 .2 -.3c0 .1 0 .3 0 .3l.1 -.3c.2 -.1 0 .5 .2 .4l-.1 .2c0 0 .1 .2 .2 .1l.1 -.7c.1 -.1 0 .3 .2 .1l-.2 .2c0 .1 .1 .4 .3 .4c0 -.1 .2 -.4 0 -.5c.1 0 .2 .1 .2 .3c.1 -.1 -.1 -.3 .1 -.4c0 .1 .2 .4 .3 .6l-.1 .4h.1c-.2 .3 0 .2 0 .6c0 0 .1 -.1 .2 -.2c-.2 -.5 .2 -.7 .1 -1.2c.3 -.1 .2 1.2 .5 .4c-.1 -.1 .1 -.5 -.1 -.3c.2 0 .1 -.5 .3 -.3c-.1 .2 .2 .5 -.1 .8c.1 -.2 -.1 -.2 -.1 -.1c.1 .2 0 .5 .2 .5c.1 -.1 .2 -.1 .2 -.3c0 -.3 -.2 0 -.1 -.3c.2 -.1 .2 .3 .3 -.1c-.1 0 -.1 -.3 -.1 -.5l.1 -.1v.2c.2 .1 0 -.4 .3 -.3l.1 .4c-.1 .3 -.3 -.2 -.3 .3c.1 .1 .2 -.2 .3 -.1q0 .1 -.1 .1c.1 0 .1 .7 .4 .3c.1 -.1 0 -.2 0 -.3c.2 -.1 .3 -.3 .5 -.3c-.1 .3 .2 0 .1 .4c-.1 -.2 -.5 -.2 -.5 .1c0 .5 -.2 0 -.3 .4c.2 0 .2 .5 .2 .8c.1 0 .1 -.1 .2 -.2c0 -.2 -.1 -.2 -.1 -.5c.2 .1 .4 -.1 .6 -.4c0 .2 0 .4 -.1 .5c.3 -.1 .6 -.1 .8 0c-.1 -.4 .3 -.1 .2 -.5c-.2 -.1 -.3 -.4 -.2 -.6c.1 .1 0 .2 0 .3c.1 -.2 .2 .4 .3 0c-.2 .2 0 .6 -.1 .9c.2 -.2 0 .2 .2 .2c.2 -.1 .4 -.3 .6 -.4c.2 .4 .6 0 .8 0c.1 .2 0 .6 .1 .7c.2 -.1 -.1 -.5 .1 -.3v.1c.1 -.1 .4 .3 .5 -.3l-.1 .4c0 .1 .1 0 .1 -.1c0 .2 .1 .3 0 .4c.1 .3 .3 -.1 .4 -.1l-.1 -.2c.3 -.2 .4 0 .7 -.1l-.1 .3l.2 -.2c0 .3 .1 .4 .2 .2l-.4 .6c-.1 -.1 .1 -.3 0 -.5c0 -.2 -.2 -.2 -.3 .1c.1 0 .1 -.1 .2 -.1c0 .3 -.1 .3 -.2 .5c.1 0 .1 .1 .1 0c0 .1 -.1 .2 -.3 .2c.1 -.1 0 -.2 0 -.3c0 .3 -.1 .4 -.3 .3c-.1 -.4 -.3 .2 -.6 .1c.1 -.3 .2 -.5 .4 -.7c-.2 -.1 -.2 .1 -.3 -.1c-.1 .2 -.1 .6 -.3 .7V695c-.1 .1 -.1 .4 -.3 .4c-.4 -.1 -.7 -.1 -1 -.2V695c-.1 .5 -.4 .2 -.6 .4c-.3 -.2 -.7 .2 -.9 -.2c-.5 .2 -1 .4 -1.6 .3l.1 -.3c-.1 .2 -.1 -.2 -.2 -.2c.1 .3 -.1 .4 -.2 .6c-.3 -.3 -.6 0 -.8 .2v-.2c-.3 .4 -.6 0 -.9 0c0 -.1 0 -.3 -.1 -.3c-.2 .3 -.3 .3 -.5 .5c-.2 0 -.4 0 -.6 -.2c-.6 .5 -1.3 .2 -2 .5v-.3c-.3 .3 -.7 .3 -1 .3l-1.7 -.1l.1 -1.5c0 -.3 .1 -.6 -.1 -.9l.5 .1c.1 -.2 -.1 -.4 -.5 -.4c.2 -.2 -.2 -.4 .2 -.5c.1 -.2 -.2 -.2 -.3 -.4c.2 -.3 .1 -.5 .1 -.8l-.1 .1c.1 0 .3 0 .4 -.1c-.2 -.1 .1 -.4 -.5 -.3c.3 -.3 -.2 -.8 .2 -1.2c-.1 .1 -.2 0 -.3 -.1c0 -.3 .3 -.6 .1 -.8c0 -.1 .2 0 .2 -.1c0 -.1 -.2 0 -.2 -.1c-.3 -.5 .2 -1 .2 -1.5c-.3 -.8 -.2 -1.6 -.2 -2.4h.1c-.4 -.3 .4 -.6 -.2 -.8c.1 -.1 0 -.3 .3 -.2c-.3 -.2 .2 -.6 -.1 -.9c0 0 0 .1 0 .1c.3 -.3 -.1 -.6 .1 -.9c.1 0 .1 .1 .2 .1c.2 -.1 -.4 -.3 .1 -.4c0 0 -.3 0 -.2 0c0 -.1 0 -.2 0 -.3l.1 -1.7l1.5 .1c.5 0 1.2 -.2 1.8 -.3c.5 .3 0 .9 .4 .5c0 .1 0 -.2 0 -.1c.2 -.1 .3 .6 .4 .3c0 -.3 .1 -.2 .1 -.4c.3 .2 .4 .5 .6 .3v.2c.3 -.5 .6 -.3 .9 -.8c1.6 -.1 3.2 -.4 4.8 -.5c1.3 .1 2.7 -.1 4.1 .1l2.4 .2l-.2 2.1c0 .2 0 .4 -.1 .6q-.4 .4 -.2 .8c-.1 0 -.1 -.1 -.2 0c.4 0 .1 .3 .4 .3c-.1 .6 0 1.1 0 1.7c0 0 -.3 -.1 -.3 0l.3 .1l-.1 .1c0 0 .2 .1 .3 0c.3 1.6 -.4 3.1 -.3 4.6c-.2 .3 0 .8 .1 1.2c-.5 1.2 -.9 2.2 -.6 3.3c0 0 -.9 -.1 -1.1 -.6Z" class="g3_74"/>
<path d="M290.1 695.2c0 -.2 -.2 -.3 -.1 -.5c.1 .1 .1 .3 .1 .5Z" class="g3_74"/>
<path d="M286.6 693.3c0 .1 -.1 0 -.1 -.1c0 0 .1 -.1 .1 0v.1Z" class="g3_74"/>
<path d="M285.7 693.2c0 -.1 .2 -.3 .3 -.3Z" class="g3_74"/>
<path d="M284.8 692.6c-.1 -.2 -.1 -.3 0 -.3c.1 .1 0 .2 0 .3Z" class="g3_74"/>
<path d="M284.7 692.9c0 0 -.1 -.1 -.1 -.2c0 .2 .2 0 .1 .2Z" class="g3_74"/>
<path d="M282.9 692.5c0 0 -.1 .1 -.2 -.1c.1 .1 .2 -.2 .2 .1Z" class="g3_74"/>
<path d="M282.1 692.7q-.1 0 -.1 0c-.1 -.1 0 -.2 0 -.2Z" class="g3_74"/>
<path d="M278.6 683.7v.1h-.1Z" class="g3_74"/>
<path d="M282.2 683c.1 -.1 .1 .1 .1 .1c-.1 0 0 -.2 -.1 -.1Z" class="g3_74"/>
<path d="M285.9 682.2v0v-.4Z" class="g3_74"/>
<path d="M303.5 682.2c.2 0 -.1 -.2 .1 -.1c0 .1 0 .2 -.1 .1Z" class="g3_74"/>
<path d="M304 681c-.8 -.6 .1 -1.4 -.5 -2.1c0 -.1 .5 0 .4 -.1c-.7 -.7 -.3 -1.7 .2 -2.5h.1c.1 -.1 -.3 -.3 -.2 -.4c0 0 .1 0 .2 0c-.3 -.1 -.1 -.3 -.3 -.4c.1 -.1 .3 0 .4 -.1l-.3 -.1c-.7 -.3 .1 -.6 -.3 -1c.1 0 .1 .1 .2 0c-.4 -.5 -.4 -1.2 -.5 -1.8c.1 0 .3 0 .4 0c-.3 -.1 -.4 -.2 -.5 -.4c.4 -.1 -.2 -.3 -.1 -.5h.1c-.3 -.1 .2 -.2 -.2 -.3l.2 -.1c-.4 -.1 .3 -.2 0 -.3c-.2 -.1 .1 -.2 0 -.3c-.1 -.3 .2 -.4 -.2 -.4c.3 -.1 .2 .2 .6 .1c-.2 -.5 -.3 -1 -.3 -1.4l.2 .2h-1c-.1 -.1 -.1 -.2 -.1 -.3c-.1 .1 -.3 .1 -.4 .2c0 0 -.1 -.1 -.1 -.2c-.2 -.1 -.2 .4 -.3 .3c0 -.1 .1 -.2 0 -.4c-.1 .3 -.3 .3 -.4 .4q0 -.1 0 -.2c-.2 .3 -.3 -.1 -.5 .1l.1 -.2c-.3 -.3 -.1 .4 -.3 .3c0 -.1 0 -.2 0 -.3c-.2 .4 -.5 .3 -.7 .4c0 0 0 -.1 0 -.1c-.2 .1 -.4 0 -.7 .1c-.1 -.1 0 -.5 -.2 -.4c0 .4 -.4 .2 -.2 .6c-.2 0 -.6 -.2 -.7 -.1c.1 -.1 -.1 -.5 .1 -.5l-.2 -.2c.1 -.2 .2 0 .1 -.2c0 0 -.3 .2 -.4 .1c-.1 .3 -.3 .7 -.5 .8c.1 -.2 -.1 -.5 0 -.5l-.3 .7c-.1 .1 -.1 -.3 -.2 -.2c0 .1 0 .2 -.1 .3c0 -.1 -.3 .1 -.3 -.3c-.1 -.2 .1 -.1 0 -.2c-.2 0 -.2 .1 -.3 .1c-.1 -.1 -.3 .1 -.2 .4c.1 0 0 -.3 .1 -.2c-.1 .3 -.3 .3 -.4 .3c0 0 0 -.1 0 -.3c-.2 .4 -.4 .5 -.6 .6c0 .2 .1 -.4 .1 -.3c-.3 -.2 -.6 .4 -.9 0c.1 0 .1 .3 .1 .3c-.2 -.1 -.2 -.3 -.3 -.2c0 -.2 -.1 0 -.2 .1c0 .1 0 -.1 .1 -.1c-.2 .1 -.7 .3 -1 .1c0 .1 -.2 .4 -.3 .4l.1 -.3c-.1 -.1 -.3 .1 -.3 -.2c-.1 .4 .6 -.2 .4 0c0 -.2 -.3 .4 -.2 .1c-.2 0 -.3 .3 -.5 0c.1 .1 .2 -.3 .1 -.3c-.3 .1 -.1 .1 -.3 .2l-.1 .1c0 .3 -.2 0 -.1 .3c0 -.2 -.3 .1 -.3 -.3l.1 -.3c-.1 0 -.2 .3 -.2 .4c0 0 -.1 -.1 -.1 -.1c0 .5 -.2 -.1 -.3 .3c-.1 -.1 -.2 -.1 -.3 -.1l1.3 -1.2c0 .1 -.1 .2 -.2 .2c.1 .1 .3 .3 .2 .4q-.1 0 -.2 -.1c-.1 .1 0 .2 .1 .3c-.1 -.1 -.3 .2 -.5 .3c.2 .1 .4 .1 .6 .1c-.5 .1 .3 .4 -.1 .5c-.1 0 -.3 -.2 -.4 -.1c-.5 .2 .4 .3 .1 .5h.4c-.2 0 .3 .3 -.1 .2c.1 .1 -.2 .3 .2 .3c-.3 .3 .2 .8 -.5 1c.1 0 0 .2 .2 .1c.2 0 -.1 -.1 0 -.1c0 0 .1 0 .2 0q-.1 .2 -.5 .1c-.2 .3 .7 .3 .6 .6c-.2 0 -.3 0 -.2 .1l.2 .1c0 .2 -.3 .1 -.6 .1c0 .2 0 .3 .2 .3l-.3 .1c.2 0 .2 .1 .2 .2V674c-.2 .1 -.1 .2 -.1 .2c.2 0 .3 -.1 .3 -.2c.2 .1 .1 .2 .3 .2c-.3 0 -.2 .2 -.3 .3c0 .1 .3 .1 .3 .1c-.2 0 0 .2 -.2 .1c-.1 0 .1 -.1 0 -.1c-.1 0 -.4 0 -.2 .2c.1 0 .5 -.1 .4 .1c-.1 0 -.2 0 -.3 -.1l-.1 .2h.2q-.1 0 -.1 0c.2 .1 .1 .3 .4 .3c0 .1 -.2 .2 -.2 .3h-.1c-.1 .1 0 .2 .2 .3h-.1c0 0 0 .2 .2 .2c-.2 .2 -1 .1 -.7 .2c.1 .2 .5 .3 .7 .2c-.2 .3 .2 .5 -.2 .8c.1 0 .2 0 .2 .1c-.1 .3 .3 .8 -.2 1.1c-.1 -.2 -.2 -.1 -.4 -.1c.3 .1 -.2 .2 .2 .2c.2 0 .3 0 .4 -.1c.1 .2 .1 .5 -.1 .7c.1 -.1 .2 0 .3 0c-.4 0 -.4 .1 -.3 .3h.2l-.2 .1c0 0 .4 0 .2 .1q-.1 .1 -.2 .1c.2 .1 .5 .3 .3 .4l-.3 .1c0 .1 .2 .2 .3 .1c-.2 .2 -.2 .4 -.5 .5c.4 .2 .5 .5 .6 .7l-1.8 -1.7c.3 -.1 .5 -.1 .7 -.1v.2c.1 .1 .1 -.3 .2 -.2c-.1 .2 .1 .4 0 .5c.1 .2 .2 -.2 .3 -.3c0 -.2 -.1 .1 -.1 -.1c.1 -.1 .3 .1 .3 -.2c.1 .1 0 .4 0 .5l.1 -.2c.2 .4 -.3 .7 -.1 1.2l.1 -.1c.1 .3 -.3 .4 -.1 .5c.2 -.2 .3 -.6 .2 -.8c.2 0 .1 -.7 .3 -.7c.1 .2 -.2 .1 -.1 .3c.1 .3 .2 -.1 .3 0c-.1 -.2 0 -.5 .1 -.5c.1 .1 -.1 .3 .1 .3c0 -.2 .2 -.3 0 -.5c.1 -.4 .2 .2 .3 -.2c.1 .3 -.2 .7 0 .9c0 -.3 .3 -.4 .2 -.8c0 0 0 .3 0 .4c.1 .2 .3 -.5 .3 .1v-.3c.1 .1 .1 .2 .2 .3c.1 0 .3 -.4 .3 .1c0 -.1 .2 -.1 .1 -.4c-.1 -.2 -.1 .2 -.2 -.2c.1 .4 .2 0 .3 -.1v.2c0 -.1 .2 -.1 .2 -.3c0 .1 0 .3 0 .3l.1 -.3c.2 -.1 0 .5 .2 .4l-.1 .2c0 0 0 .2 .1 .1l.2 -.7c.1 -.1 0 .3 .1 .1l-.1 .2c0 .1 .1 .4 .2 .4c.1 -.1 .3 -.4 .1 -.5c.1 0 .2 .1 .1 .3c.2 -.1 0 -.3 .1 -.4c.1 .1 .3 .4 .4 .6l-.2 .4h.1c-.1 .3 .1 .2 0 .6c.1 0 .2 -.1 .2 -.2c-.2 -.5 .3 -.7 .2 -1.2c.3 -.1 .2 1.2 .4 .4c0 -.1 .1 -.5 0 -.3c.1 0 .1 -.5 .3 -.3c-.2 .2 .1 .5 -.1 .8c0 -.2 -.1 -.2 -.1 -.1c0 .2 0 .5 .1 .5c.1 -.1 .3 -.1 .2 -.3c0 -.3 -.1 0 0 -.3c.2 -.1 .2 .3 .3 -.2c-.1 .1 -.2 -.2 -.2 -.4l.2 -.1l-.1 .2c.3 .1 .1 -.4 .4 -.3l.1 .4c-.1 .3 -.4 -.2 -.3 .3c.1 0 .2 -.2 .3 -.1c0 .1 -.1 .1 -.1 .1c.1 0 .1 .7 .3 .3c.1 -.1 .1 -.2 .1 -.4c.2 0 .3 -.2 .4 -.2c0 .3 .3 0 .1 .4c0 -.2 -.4 -.2 -.5 .1c.1 .5 -.2 0 -.2 .4c.2 0 .2 .5 .2 .8c0 0 .1 -.1 .1 -.2c.1 -.3 0 -.2 0 -.5c.2 0 .4 -.1 .5 -.4c.1 .2 .1 .4 0 .5c.3 -.1 .5 -.1 .8 0c-.2 -.4 .3 -.1 .2 -.5c-.2 -.1 -.3 -.4 -.2 -.6c.1 .1 0 .2 0 .3c.1 -.2 .2 .4 .3 0c-.3 .2 -.1 .6 -.1 .9c.2 -.2 0 .2 .2 .2c.1 -.1 .3 -.3 .5 -.4c.3 .4 .6 0 .8 0c.2 .2 .1 .6 .2 .6c.1 0 -.1 -.4 .1 -.2v.1c0 -.1 .4 .2 .4 -.3v.4l.1 -.1c0 .1 0 .3 0 .4c.1 .3 .2 -.1 .4 -.1l-.1 -.2c.2 -.2 .4 0 .6 -.1v.3l.2 -.2c-.1 .3 0 .4 .1 .2l-.3 .6c-.1 -.1 .1 -.3 0 -.5c0 -.2 -.3 -.2 -.3 .1c.1 0 .1 -.1 .2 -.2c0 .4 -.1 .4 -.2 .6c0 0 .1 .1 .1 0c-.1 .1 -.2 .2 -.3 .2c.1 -.2 -.1 -.2 0 -.3c0 .3 -.2 .4 -.3 .3c-.2 -.4 -.4 .2 -.6 .1c.1 -.3 .2 -.5 .3 -.7c-.1 -.1 -.1 0 -.2 -.1c-.1 .2 -.1 .6 -.3 .7v-.2c-.2 .1 -.2 .4 -.4 .4c-.3 -.1 -.6 -.1 -.9 -.2v-.2c-.1 .5 -.5 .2 -.6 .4c-.4 -.2 -.7 .2 -.9 -.2c-.6 .2 -1.1 .4 -1.7 .3l.1 -.3c-.1 .2 0 -.2 -.1 -.2c.1 .3 -.2 .3 -.2 .5c-.3 -.2 -.6 .1 -.9 .3v-.2c-.2 .4 -.5 0 -.8 0c0 -.1 -.1 -.3 -.2 -.3c-.1 .3 -.2 .3 -.4 .5c-.2 0 -.5 0 -.6 -.2c-.7 .5 -1.3 .2 -2 .5v-.3c-.4 .3 -.7 .3 -1.1 .3l-1.6 -.1l.1 -1.5c0 -.3 0 -.6 -.1 -.9l.4 .1c.2 -.2 -.1 -.4 -.4 -.4c.1 -.2 -.2 -.4 .2 -.5c0 -.2 -.3 -.2 -.3 -.4c.2 -.3 .1 -.5 0 -.8v.1c.1 0 .3 0 .3 -.1c-.1 -.1 .1 -.4 -.4 -.3c.3 -.3 -.2 -.8 .2 -1.2c-.2 .1 -.2 0 -.3 -.1c0 -.3 .3 -.6 0 -.8c.1 -.1 .3 0 .3 -.1c0 -.1 -.2 0 -.3 -.1c-.2 -.5 .3 -1 .2 -1.5c-.2 -.8 -.1 -1.6 -.1 -2.4h.1c-.4 -.3 .4 -.6 -.2 -.8c.1 -.1 0 -.3 .2 -.2c-.3 -.2 .3 -.6 -.1 -.9l.1 .1c.2 -.3 -.1 -.6 .1 -.9c.1 0 .1 .1 .2 .1c.2 -.1 -.5 -.3 .1 -.4c0 0 -.3 0 -.3 0c.1 -.1 .1 -.2 .1 -.3l.1 -1.7l1.4 .1c.6 0 1.2 -.2 1.8 -.3c.6 .3 .1 .9 .5 .5c0 .1 0 -.2 0 -.1c.2 -.1 .3 .6 .4 .3c-.1 -.3 0 -.2 0 -.4c.4 .2 .4 .5 .7 .3v.2c.3 -.5 .6 -.3 .9 -.8c1.6 -.1 3.2 -.4 4.7 -.5c1.4 .1 2.8 -.1 4.1 .1l2.5 .2l-.2 2.1c0 .2 -.1 .4 -.1 .6c-.4 .3 -.4 .4 -.2 .8c-.1 0 -.1 -.1 -.2 0c.4 0 0 .3 .4 .3c-.1 .6 0 1.1 0 1.7c0 -.1 -.3 -.1 -.3 0l.2 .1l-.1 .1c.1 0 .3 .1 .4 0c.3 1.6 -.4 3.1 -.3 4.6c-.2 .3 -.1 .8 0 1.2c-.5 1.2 -.8 2.2 -.5 3.3c0 0 -.9 -.1 -1.2 -.6Z" class="g3_74"/>
<path d="M303.3 682.3c-.1 -.2 -.2 -.3 -.1 -.5c0 .1 .1 .3 .1 .5Z" class="g3_74"/>
<path d="M299.7 680.4c0 .1 0 -.1 0 -.1c0 0 0 -.1 .1 -.1q-.1 .1 -.1 .2Z" class="g3_74"/>
<path d="M298.8 680.3c0 -.1 .2 -.3 .3 -.3Z" class="g3_74"/>
<path d="M298 679.7c-.1 -.2 -.1 -.3 0 -.3c0 .1 0 .2 0 .3Z" class="g3_74"/>
<path d="M297.9 680c-.1 0 -.1 -.1 -.1 -.2c0 .2 .1 -.1 .1 .2Z" class="g3_74"/>
<path d="M296.1 679.5c-.1 .1 -.2 .2 -.2 0c0 .1 .2 -.2 .2 0Z" class="g3_74"/>
<path d="M295.2 679.8c-.1 -.1 0 -.2 0 -.2Z" class="g3_74"/>
<path d="M291.7 670.8l.1 .1h-.2Z" class="g3_74"/>
<path d="M295.4 670.1c.1 -.2 0 .1 .1 .1c-.1 0 0 -.2 -.1 -.1Z" class="g3_74"/>
<path d="M299 669.2v.1v-.4Z" class="g3_74"/>
<path d="M303.5 695.1c.2 0 -.1 -.2 .1 -.1c0 .1 0 .2 -.1 .1Z" class="g3_74"/>
<path d="M304 693.9c-.8 -.6 .1 -1.4 -.5 -2.1c0 0 .5 0 .4 -.1c-.7 -.7 -.3 -1.7 .2 -2.5l.1 .1c.1 -.2 -.3 -.4 -.2 -.5c0 0 .1 0 .2 0c-.3 -.1 -.1 -.3 -.3 -.4c.1 0 .3 0 .4 -.1l-.3 -.1c-.7 -.3 .1 -.6 -.3 -1c.1 0 .1 .1 .2 0c-.4 -.5 -.4 -1.2 -.5 -1.8c.1 0 .3 0 .4 0c-.3 -.1 -.4 -.2 -.5 -.4c.4 -.1 -.2 -.3 -.1 -.5h.1c-.3 -.1 .2 -.2 -.2 -.3l.2 -.1c-.4 -.1 .3 -.2 0 -.3c-.2 -.1 .1 -.2 0 -.3c-.1 -.3 .2 -.4 -.2 -.4c.3 -.1 .2 .2 .6 .1c-.3 -.5 -.3 -1 -.3 -1.4l.2 .2h-1c-.1 -.1 -.1 -.2 -.1 -.3c-.1 .1 -.3 .1 -.4 .2c0 0 -.1 -.1 -.1 -.2c-.2 -.1 -.2 .4 -.3 .3c0 -.1 .1 -.2 0 -.4c-.1 .3 -.3 .3 -.4 .4q0 -.1 0 -.2c-.2 .3 -.3 -.1 -.5 .1l.1 -.2c-.3 -.3 -.1 .4 -.3 .3c0 -.1 0 -.2 0 -.3c-.2 .4 -.5 .3 -.7 .4c0 0 0 -.1 0 -.1c-.2 .1 -.4 0 -.7 .1c-.1 -.1 0 -.5 -.2 -.4c0 .4 -.4 .2 -.2 .6c-.2 0 -.6 -.2 -.7 -.1c.1 -.1 -.1 -.5 .1 -.5l-.2 -.2c.1 -.2 .2 0 .1 -.2c0 0 -.3 .2 -.4 .1c-.1 .3 -.3 .7 -.5 .8c.1 -.2 -.1 -.5 0 -.5l-.3 .7c-.1 .1 -.1 -.3 -.2 -.2c0 .1 0 .2 -.1 .3c0 -.1 -.3 .1 -.3 -.3c-.1 -.2 .1 -.1 0 -.2c-.2 0 -.2 .1 -.3 .1c-.1 -.1 -.3 .1 -.2 .4c.1 0 0 -.3 .1 -.2c-.1 .3 -.3 .3 -.4 .3c0 0 0 -.1 0 -.3c-.2 .4 -.4 .5 -.6 .6c0 .2 .1 -.4 .1 -.3c-.3 -.2 -.6 .4 -.9 0c.1 0 .1 .3 .1 .3c-.2 -.1 -.2 -.3 -.3 -.2c0 -.2 -.1 0 -.2 .1c0 .1 0 -.1 .1 -.1c-.2 .1 -.7 .3 -1 .1c0 .1 -.2 .4 -.3 .4l.1 -.3c-.1 -.1 -.3 .1 -.3 -.1c-.1 .3 .6 -.3 .4 -.1c0 -.2 -.3 .4 -.2 .1c-.2 0 -.3 .3 -.5 0c.1 .1 .2 -.3 .1 -.3c-.3 .1 -.1 .1 -.3 .2l-.1 .1c0 .3 -.2 0 -.1 .3c0 -.2 -.3 .1 -.3 -.3l.1 -.3c-.1 0 -.2 .3 -.2 .4c0 0 -.1 -.1 -.1 -.1c0 .5 -.2 -.1 -.3 .3c-.1 -.1 -.2 -.1 -.3 -.1l1.3 -1.2c0 .1 -.1 .2 -.2 .2c.1 .1 .3 .3 .2 .4q-.1 0 -.2 -.1c-.1 .1 0 .2 .1 .3c-.1 -.1 -.3 .2 -.5 .3c.2 .1 .4 .1 .6 .1c-.5 .1 .3 .4 -.1 .5c-.1 0 -.3 -.2 -.4 -.1c-.5 .2 .4 .3 .1 .5h.4c-.2 0 .3 .3 -.1 .2c.1 .1 -.2 .3 .2 .3c-.3 .3 .2 .8 -.5 1c.1 0 0 .2 .2 .1c.2 0 -.1 -.1 0 -.1c0 0 .1 0 .2 .1q-.1 .1 -.5 0c-.2 .3 .7 .3 .6 .6c-.2 0 -.3 0 -.2 .1l.2 .1c0 .2 -.3 .1 -.6 .2c0 .1 0 .2 .2 .2l-.3 .2c.2 -.1 .2 0 .2 .1v-.1c-.2 .1 -.1 .2 -.1 .2c.2 0 .3 -.1 .3 -.2c.2 .1 .1 .2 .3 .2c-.3 0 -.2 .2 -.3 .3c0 .1 .3 .1 .3 .1c-.2 0 0 .2 -.2 .1c-.1 0 .1 -.1 0 -.1c-.1 0 -.4 0 -.2 .2c.1 .1 .5 -.1 .4 .1c-.1 0 -.2 0 -.3 -.1l-.1 .2h.2q-.1 0 -.1 0c.2 .1 .1 .3 .4 .3c0 .1 -.2 .2 -.2 .3h-.1c-.1 .1 0 .2 .2 .3h-.1c0 0 0 .2 .2 .2c-.2 .2 -1 .1 -.7 .2c.1 .2 .5 .3 .7 .2c-.2 .3 .2 .5 -.2 .8c.1 0 .2 0 .2 .1c-.1 .3 .3 .8 -.2 1.1c-.1 -.2 -.2 -.1 -.4 -.1c.3 .1 -.2 .2 .2 .2c.2 0 .3 0 .4 -.1c.1 .2 .1 .5 -.1 .7c.1 -.1 .2 0 .3 0c-.4 0 -.4 .2 -.3 .3h.2l-.2 .1c0 0 .4 0 .2 .1q-.1 .1 -.2 .1c.2 .1 .5 .3 .3 .4l-.3 .1c0 .1 .2 .2 .3 .1c-.2 .2 -.2 .4 -.5 .5c.4 .2 .5 .5 .6 .7l-1.8 -1.7c.3 -.1 .5 -.1 .7 -.1v.2c.1 .1 .1 -.3 .2 -.2c-.1 .2 .1 .4 0 .5c.1 .2 .2 -.2 .3 -.3c0 -.2 -.1 .1 -.1 -.1c.1 -.1 .3 .1 .3 -.2c.1 .1 0 .4 0 .5l.1 -.2c.2 .4 -.3 .7 -.1 1.2l.1 -.1c.1 .4 -.3 .4 -.1 .5c.2 -.1 .3 -.6 .2 -.8c.2 0 .1 -.7 .3 -.7c.1 .2 -.2 .1 -.1 .3c.1 .3 .2 -.1 .3 0c-.1 -.2 0 -.5 .1 -.5c.1 .1 -.1 .3 .1 .3c0 -.2 .2 -.3 0 -.5c.1 -.4 .2 .2 .3 -.2c.1 .3 -.2 .7 0 .9c0 -.3 .3 -.4 .2 -.8c0 0 0 .3 0 .4c.1 .2 .3 -.5 .3 .1v-.3c.1 .1 .1 .2 .2 .3c.1 0 .3 -.4 .3 .1c0 -.1 .2 -.1 .1 -.4c-.1 -.2 -.1 .3 -.2 -.2c.1 .4 .2 0 .3 -.1v.2c0 -.1 .2 -.1 .2 -.3c0 .1 0 .3 0 .3l.1 -.3c.2 -.1 0 .5 .2 .4l-.1 .2c0 0 0 .2 .1 .1l.2 -.7c.1 -.1 0 .3 .1 .1l-.1 .2c0 .1 .1 .4 .2 .4c.1 -.1 .3 -.4 .1 -.5c.1 0 .2 .1 .1 .3c.2 -.1 0 -.3 .1 -.4c.1 .1 .3 .4 .4 .6l-.2 .4h.1c-.1 .3 .1 .2 0 .6c.1 0 .2 -.1 .2 -.2c-.2 -.5 .3 -.7 .2 -1.2c.3 -.1 .2 1.2 .4 .4c0 -.1 .1 -.5 0 -.3c.1 0 .1 -.5 .3 -.3c-.2 .2 .1 .5 -.1 .8c0 -.2 -.1 -.2 -.1 -.1c0 .2 0 .5 .1 .5c.1 -.1 .3 -.1 .2 -.3c0 -.3 -.1 0 0 -.3c.2 -.1 .2 .3 .3 -.1c-.1 0 -.2 -.3 -.2 -.5l.2 -.1l-.1 .2c.3 .1 .1 -.4 .4 -.3l.1 .4c-.1 .3 -.4 -.2 -.3 .3c.1 .1 .2 -.2 .3 -.1c0 .1 -.1 .1 -.1 .1c.1 0 .1 .7 .3 .3c.1 -.1 .1 -.2 .1 -.3c.2 -.1 .3 -.3 .4 -.3c0 .3 .3 0 .1 .4c0 -.2 -.4 -.2 -.5 .1c.1 .5 -.2 0 -.2 .4c.2 0 .2 .5 .2 .8c0 0 .1 -.1 .1 -.2c.1 -.2 0 -.2 0 -.5c.2 .1 .4 -.1 .5 -.4c.1 .2 .1 .4 0 .5c.3 -.1 .5 -.1 .8 0c-.2 -.4 .3 -.1 .2 -.5c-.2 -.1 -.3 -.4 -.2 -.6c.1 .1 0 .2 0 .3c.1 -.2 .2 .4 .3 0c-.3 .2 -.1 .6 -.1 .9c.2 -.2 0 .2 .1 .2c.2 -.1 .4 -.3 .6 -.4c.3 .4 .6 0 .8 0c.2 .2 .1 .6 .2 .7c.1 -.1 -.1 -.5 .1 -.3v.1c0 -.1 .4 .3 .4 -.3v.4c0 .1 0 0 .1 -.1c0 .2 0 .3 0 .4c.1 .3 .2 -.1 .4 -.1l-.1 -.2c.2 -.2 .4 0 .6 -.1v.3l.2 -.2c-.1 .3 0 .4 .1 .2l-.3 .6c-.1 -.1 .1 -.3 0 -.5c0 -.2 -.3 -.2 -.3 .1c.1 0 .1 -.1 .2 -.1c0 .3 -.1 .3 -.2 .5c0 0 .1 .1 .1 0c-.1 .1 -.2 .2 -.3 .2c.1 -.1 -.1 -.2 0 -.3c0 .3 -.2 .4 -.3 .3c-.2 -.4 -.4 .2 -.6 .1c.1 -.3 .2 -.5 .3 -.7c-.1 -.1 -.1 .1 -.2 -.1c-.1 .2 -.1 .6 -.3 .7V695c-.2 .1 -.2 .4 -.4 .4c-.3 -.1 -.6 -.1 -.9 -.2V695c-.1 .5 -.5 .2 -.6 .4c-.4 -.2 -.7 .2 -.9 -.2c-.6 .2 -1.1 .4 -1.7 .3l.1 -.3c-.1 .2 0 -.2 -.1 -.2c.1 .3 -.2 .4 -.2 .6c-.3 -.3 -.6 0 -.9 .2v-.2c-.2 .4 -.5 0 -.8 0c0 -.1 -.1 -.3 -.2 -.3c-.1 .3 -.2 .3 -.4 .5c-.2 0 -.5 0 -.6 -.2c-.7 .5 -1.3 .2 -2 .5v-.3c-.4 .3 -.7 .3 -1.1 .3l-1.6 -.1l.1 -1.5c0 -.3 0 -.6 -.1 -.9l.4 .1c.2 -.2 -.1 -.4 -.4 -.4c.1 -.2 -.2 -.4 .2 -.5c0 -.2 -.3 -.2 -.3 -.4c.2 -.3 .1 -.5 0 -.8v.1c.1 0 .3 0 .3 -.1c-.1 -.1 .1 -.4 -.4 -.3c.3 -.3 -.2 -.8 .2 -1.2c-.2 .1 -.2 0 -.3 -.1c0 -.3 .3 -.6 0 -.8c.1 -.1 .3 0 .3 -.1c0 -.1 -.2 0 -.3 -.1c-.2 -.5 .3 -1 .2 -1.5c-.2 -.8 -.1 -1.6 -.1 -2.4h.1c-.4 -.3 .4 -.6 -.2 -.8c.1 -.1 0 -.3 .2 -.2c-.3 -.2 .3 -.6 -.1 -.9c0 0 0 .1 .1 .1c.2 -.3 -.1 -.6 .1 -.9c.1 0 .1 .1 .2 .1c.2 -.1 -.5 -.3 .1 -.4c0 0 -.3 0 -.3 0c.1 -.1 .1 -.2 .1 -.3l.1 -1.7l1.4 .1c.6 0 1.2 -.2 1.8 -.3c.6 .3 .1 .9 .5 .5c0 .1 0 -.2 0 -.1c.2 -.1 .3 .6 .4 .3c-.1 -.3 0 -.2 0 -.4c.4 .2 .4 .5 .7 .3v.2c.3 -.5 .6 -.3 .9 -.8c1.6 -.1 3.2 -.4 4.7 -.5c1.4 .1 2.8 -.1 4.1 .1l2.5 .2l-.2 2.1c0 .2 -.1 .4 -.1 .6q-.4 .4 -.2 .8c-.1 0 -.1 -.1 -.2 0c.4 0 0 .3 .4 .3c-.1 .6 0 1.1 0 1.7c0 0 -.3 -.1 -.3 0l.2 .1l-.1 .1c.1 0 .3 .1 .4 0c.3 1.6 -.4 3.1 -.3 4.6c-.2 .3 -.1 .8 0 1.2c-.5 1.2 -.8 2.2 -.5 3.3c0 0 -.9 -.1 -1.2 -.6Z" class="g3_74"/>
<path d="M303.3 695.2c-.1 -.2 -.2 -.3 -.1 -.5c0 .1 .1 .3 .1 .5Z" class="g3_74"/>
<path d="M299.7 693.3c0 .1 0 0 0 -.1c0 0 0 -.1 .1 0q-.1 0 -.1 .1Z" class="g3_74"/>
<path d="M298.8 693.2c0 -.1 .2 -.3 .3 -.3Z" class="g3_74"/>
<path d="M298 692.6c-.1 -.2 -.1 -.3 0 -.3c0 .1 0 .2 0 .3Z" class="g3_74"/>
<path d="M297.9 692.9c-.1 0 -.1 -.1 -.1 -.2c0 .2 .1 0 .1 .2Z" class="g3_74"/>
<path d="M296.1 692.5c-.1 0 -.2 .1 -.2 -.1c0 .1 .2 -.2 .2 .1Z" class="g3_74"/>
<path d="M295.2 692.7h-.1c0 -.1 .1 -.2 .1 -.2Z" class="g3_74"/>
<path d="M291.7 683.7l.1 .1h-.2Z" class="g3_74"/>
<path d="M295.4 683c.1 -.1 0 .1 .1 .1c-.1 0 0 -.2 -.1 -.1Z" class="g3_74"/>
<path d="M299 682.2v0v-.4Z" class="g3_74"/>
<path d="M316.7 682.2c.2 0 -.1 -.2 .1 -.1c0 .1 -.1 .2 -.1 .1Z" class="g3_74"/>
<path d="M317.2 681c-.8 -.6 0 -1.4 -.5 -2.1c0 -.1 .4 0 .3 -.1c-.6 -.7 -.2 -1.7 .3 -2.5h.1c.1 -.1 -.3 -.3 -.3 -.4c.1 0 .2 0 .3 0c-.3 -.1 -.2 -.3 -.3 -.4c.1 -.1 .3 0 .4 -.1l-.3 -.1c-.7 -.3 0 -.6 -.3 -1c0 0 .1 .1 .2 0c-.5 -.5 -.4 -1.2 -.6 -1.8c.2 0 .3 0 .5 0c-.3 -.1 -.4 -.2 -.5 -.4c.3 -.1 -.3 -.3 -.1 -.5h.1c-.4 -.1 .2 -.2 -.2 -.3l.2 -.1c-.4 -.1 .2 -.2 0 -.3h-.1c-.1 -.1 .1 -.2 .1 -.3c-.1 -.3 .1 -.4 -.2 -.4c.3 -.1 .1 .2 .5 .1c-.2 -.5 -.2 -1 -.3 -1.4l.3 .2h-1c-.1 -.1 -.1 -.2 -.2 -.3c0 .1 -.3 .1 -.3 .2c0 0 -.1 -.1 -.1 -.2c-.2 -.1 -.2 .4 -.4 .3c.1 -.1 .1 -.2 .1 -.4c-.1 .3 -.3 .3 -.5 .4c0 -.1 .1 -.1 .1 -.2c-.2 .3 -.3 -.1 -.5 .1l.1 -.2c-.3 -.3 -.1 .4 -.3 .3c0 -.1 0 -.2 0 -.3c-.2 .4 -.5 .3 -.7 .4c0 0 0 -.1 0 -.1c-.2 .1 -.5 0 -.7 .1c-.1 -.1 0 -.5 -.2 -.4c0 .4 -.4 .2 -.3 .6c-.2 0 -.5 -.2 -.6 -.1c.1 -.1 -.1 -.5 0 -.5l-.1 -.2c0 -.2 .1 0 .1 -.2c-.1 0 -.3 .2 -.4 .1c-.2 .3 -.3 .7 -.5 .8c.1 -.2 -.1 -.5 0 -.5l-.4 .7c-.1 .1 0 -.3 -.1 -.2c0 .1 -.1 .2 -.1 .3c0 -.1 -.3 .1 -.4 -.3c0 -.2 .2 -.1 .1 -.2c-.2 0 -.2 .1 -.4 .1c-.1 -.1 -.3 .1 -.1 .4c0 0 -.1 -.3 0 -.2c0 .3 -.2 .3 -.4 .3c.1 0 .1 -.1 .1 -.3c-.2 .4 -.4 .5 -.7 .6c0 .2 .1 -.4 .2 -.3c-.3 -.2 -.6 .4 -.9 0c0 0 0 .3 0 .3c-.1 -.1 -.1 -.3 -.2 -.2c0 -.2 -.1 0 -.2 .1c-.1 .1 0 -.1 0 -.1c-.1 .1 -.6 .3 -.9 .1c0 .1 -.2 .4 -.3 .4V670c0 -.1 -.2 .1 -.2 -.2c-.2 .4 .6 -.2 .4 0c-.1 -.2 -.3 .4 -.3 .1c-.1 0 -.2 .3 -.4 0c.1 .1 .1 -.3 0 -.3c-.2 .1 0 .1 -.2 .2l-.1 .1c0 .3 -.2 0 -.1 .3c0 -.2 -.3 .1 -.3 -.3v-.3c0 0 -.1 .3 -.2 .4c0 0 0 -.1 0 -.1c0 .5 -.2 -.1 -.3 .3c-.1 -.1 -.2 -.1 -.3 -.1l1.3 -1.2c-.1 .1 -.1 .2 -.3 .2c.2 .1 .4 .3 .3 .4q-.1 0 -.2 -.1c-.1 .1 0 .2 .1 .3c-.1 -.1 -.3 .2 -.5 .3c.1 .1 .4 .1 .6 .1c-.5 .1 .3 .4 -.2 .5c0 0 -.2 -.2 -.3 -.1c-.5 .2 .3 .3 .1 .5h.4c-.2 0 .2 .3 -.2 .2c.2 .1 -.1 .3 .3 .3c-.3 .3 .2 .8 -.5 1c.1 0 0 .2 .2 .1c.2 0 -.2 -.1 0 -.1c0 0 .1 0 .2 0c-.1 .2 -.2 .2 -.5 .1c-.2 .3 .7 .3 .5 .6c-.1 0 -.2 0 -.2 .1l.3 .1c-.1 .2 -.4 .1 -.6 .1c0 .2 0 .3 .2 .3l-.3 .1c.2 0 .1 .1 .2 .2l-.1 -.1c-.1 .1 0 .2 0 .2c.2 0 .3 -.1 .3 -.2c.1 .1 .1 .2 .2 .2c-.2 0 -.2 .2 -.2 .3c0 .1 .3 .1 .3 .1c-.2 0 -.1 .2 -.3 .1c0 0 .2 -.1 0 -.1c-.1 0 -.3 0 -.1 .2c.1 0 .5 -.1 .3 .1c0 0 -.1 0 -.2 -.1l-.2 .2h.3q-.1 0 -.1 0c.2 .1 0 .3 .3 .3c0 .1 -.1 .2 -.2 .3c-.1 .1 0 .2 .1 .3c-.1 0 0 .2 .1 .2c-.2 .2 -.9 .1 -.6 .2c0 .2 .5 .3 .6 .2c-.1 .3 .3 .5 -.1 .8q.1 0 .2 .1c-.1 .3 .3 .8 -.2 1.1c-.1 -.2 -.2 -.1 -.4 -.1c.2 .1 -.2 .2 .2 .2c.2 0 .3 0 .4 -.1c.1 .2 .1 .5 -.1 .7c.1 -.1 .2 0 .2 0c-.3 0 -.4 .1 -.2 .3h.2l-.3 .1c.1 0 .5 0 .3 .1c-.1 .1 -.2 .1 -.2 .1c.1 .1 .4 .3 .3 .4l-.4 .1c.1 .1 .3 .2 .4 .1c-.2 .2 -.3 .4 -.5 .5c.3 .2 .5 .5 .6 .7l-1.8 -1.7c.2 -.1 .5 -.1 .7 -.1v.2c.1 .1 0 -.3 .1 -.2c0 .2 .1 .4 0 .5c.2 .2 .3 -.2 .4 -.3c0 -.2 -.1 .1 -.1 -.1c0 -.1 .3 .1 .3 -.2c0 .1 0 .4 0 .5l.1 -.2c.1 .4 -.3 .7 -.2 1.2l.1 -.1c.1 .3 -.2 .4 0 .5c.1 -.2 .2 -.6 .1 -.8c.3 0 .1 -.7 .4 -.7c.1 .2 -.2 .1 -.2 .3c.1 .3 .3 -.1 .4 0c-.1 -.2 0 -.5 0 -.5c.2 .1 -.1 .3 .1 .3c.1 -.2 .2 -.3 .1 -.5c0 -.4 .2 .2 .3 -.2c0 .3 -.2 .7 0 .9c-.1 -.3 .2 -.4 .1 -.8c.1 0 .1 .3 0 .4c.2 .2 .3 -.5 .4 .1v-.3c0 .1 .1 .2 .1 .3c.1 0 .4 -.4 .3 .1c.1 -.1 .3 -.1 .2 -.4c-.1 -.2 -.1 .2 -.2 -.2c.1 .4 .2 0 .3 -.1v.2c0 -.1 .1 -.1 .2 -.3c-.1 .1 -.1 .3 0 .3v-.3c.2 -.1 .1 .5 .3 .4l-.2 .2c.1 0 .1 .2 .2 .1l.1 -.7c.1 -.1 .1 .3 .2 .1l-.1 .2c-.1 .1 0 .4 .2 .4c.1 -.1 .2 -.4 .1 -.5c.1 0 .2 .1 .1 .3c.2 -.1 0 -.3 .1 -.4c.1 .1 .2 .4 .4 .6l-.2 .4h.1c-.1 .3 .1 .2 0 .6c.1 0 .1 -.1 .2 -.2c-.2 -.5 .2 -.7 .2 -1.2c.2 -.1 .1 1.2 .4 .4c0 -.1 .1 -.5 -.1 -.3c.2 0 .1 -.5 .3 -.3c-.1 .2 .2 .5 0 .8c0 -.2 -.1 -.2 -.2 -.1c.1 .2 0 .5 .2 .5c.1 -.1 .2 -.1 .2 -.3c0 -.3 -.1 0 -.1 -.3c.2 -.1 .3 .3 .4 -.2c-.2 .1 -.2 -.2 -.2 -.4l.1 -.1v.2c.3 .1 .1 -.4 .3 -.3l.1 .4c0 .3 -.3 -.2 -.3 .3c.2 0 .2 -.2 .4 -.1q-.1 .1 -.1 .1c0 0 .1 .7 .3 .3c.1 -.1 0 -.2 0 -.4c.3 0 .3 -.2 .5 -.2c0 .3 .3 0 .1 .4c-.1 -.2 -.4 -.2 -.5 .1c.1 .5 -.2 0 -.3 .4c.2 0 .2 .5 .3 .8c0 0 .1 -.1 .1 -.2c0 -.3 0 -.2 -.1 -.5c.3 0 .5 -.1 .6 -.4c.1 .2 .1 .4 0 .5c.2 -.1 .5 -.1 .8 0c-.2 -.4 .2 -.1 .1 -.5c-.1 -.1 -.2 -.4 -.2 -.6c.1 .1 0 .2 .1 .3c.1 -.2 .1 .4 .2 0c-.2 .2 0 .6 0 .9c.1 -.2 -.1 .2 .1 .2c.2 -.1 .4 -.3 .6 -.4c.2 .4 .6 0 .8 0c.1 .2 0 .6 .2 .6c.1 0 -.1 -.4 .1 -.2v.1c0 -.1 .3 .2 .4 -.3l-.1 .4q.1 0 .1 -.1c0 .1 .1 .3 0 .4c.2 .3 .3 -.1 .4 -.1v-.2c.2 -.2 .4 0 .6 -.1v.3l.1 -.2c0 .3 .1 .4 .2 .2l-.4 .6c-.1 -.1 .1 -.3 .1 -.5c-.1 -.2 -.3 -.2 -.3 .1c.1 0 .1 -.1 .1 -.2c0 .4 -.1 .4 -.1 .6c0 0 .1 .1 .1 0c-.1 .1 -.2 .2 -.3 .2c.1 -.2 -.1 -.2 -.1 -.3c0 .3 -.1 .4 -.3 .3c-.1 -.4 -.3 .2 -.5 .1c.1 -.3 .2 -.5 .3 -.7c-.1 -.1 -.1 0 -.3 -.1c0 .2 -.1 .6 -.2 .7l-.1 -.2c-.1 .1 -.1 .4 -.3 .4c-.3 -.1 -.7 -.1 -.9 -.2v-.2c-.2 .5 -.5 .2 -.7 .4c-.3 -.2 -.7 .2 -.8 -.2c-.6 .2 -1.1 .4 -1.7 .3l.1 -.3c-.1 .2 -.1 -.2 -.2 -.2c.2 .3 -.1 .3 -.2 .5c-.2 -.2 -.6 .1 -.8 .3v-.2c-.2 .4 -.5 0 -.8 0c0 -.1 -.1 -.3 -.2 -.3c-.1 .3 -.2 .3 -.5 .5c-.1 0 -.4 0 -.6 -.2c-.6 .5 -1.3 .2 -1.9 .5l-.1 -.3c-.3 .3 -.7 .3 -1 .3l-1.7 -.1l.1 -1.5c0 -.3 .1 -.6 0 -.9l.4 .1c.1 -.2 -.1 -.4 -.4 -.4c.1 -.2 -.2 -.4 .1 -.5c.1 -.2 -.2 -.2 -.2 -.4c.1 -.3 .1 -.5 0 -.8v.1c.1 0 .3 0 .3 -.1c-.1 -.1 .1 -.4 -.4 -.3c.3 -.3 -.3 -.8 .1 -1.2c-.1 .1 -.1 0 -.2 -.1c0 -.3 .3 -.6 0 -.8c.1 -.1 .3 0 .3 -.1c-.1 -.1 -.2 0 -.3 -.1c-.3 -.5 .3 -1 .2 -1.5c-.3 -.8 -.1 -1.6 -.2 -2.4h.1c-.4 -.3 .5 -.6 -.2 -.8c.1 -.1 .1 -.3 .3 -.2c-.3 -.2 .3 -.6 -.1 -.9l.1 .1c.2 -.3 -.1 -.6 .1 -.9c0 0 .1 .1 .2 .1c.2 -.1 -.5 -.3 0 -.4c0 0 -.2 0 -.2 0c0 -.1 0 -.2 .1 -.3v-1.7l1.5 .1c.6 0 1.2 -.2 1.8 -.3c.5 .3 0 .9 .4 .5c.1 .1 .1 -.2 .1 -.1c.1 -.1 .2 .6 .3 .3c0 -.3 .1 -.2 .1 -.4c.3 .2 .4 .5 .6 .3v.2c.3 -.5 .7 -.3 .9 -.8c1.7 -.1 3.2 -.4 4.8 -.5c1.4 .1 2.7 -.1 4.1 .1l2.5 .2l-.2 2.1c-.1 .2 -.1 .4 -.1 .6c-.5 .3 -.4 .4 -.3 .8c0 0 -.1 -.1 -.1 0c.3 0 0 .3 .4 .3c-.1 .6 0 1.1 0 1.7c-.1 -.1 -.3 -.1 -.3 0l.2 .1l-.1 .1c.1 0 .2 .1 .4 0c.3 1.6 -.5 3.1 -.4 4.6c-.1 .3 0 .8 .1 1.2c-.5 1.2 -.9 2.2 -.5 3.3c0 0 -1 -.1 -1.2 -.6Z" class="g3_74"/>
<path d="M316.4 682.3c0 -.2 -.1 -.3 0 -.5c0 .1 .1 .3 0 .5Z" class="g3_74"/>
<path d="M312.9 680.4c0 .1 -.1 -.1 -.1 -.1c.1 0 .1 -.1 .2 -.1q-.1 .1 -.1 .2Z" class="g3_74"/>
<path d="M312 680.3c0 -.1 .2 -.3 .3 -.3Z" class="g3_74"/>
<path d="M311.1 679.7c0 -.2 0 -.3 .1 -.3c0 .1 0 .2 -.1 .3Z" class="g3_74"/>
<path d="M311.1 680c-.1 0 -.1 -.1 -.2 -.2c0 .2 .2 -.1 .2 .2Z" class="g3_74"/>
<path d="M309.2 679.5c0 .1 -.1 .2 -.1 0c0 .1 .2 -.2 .1 0Z" class="g3_74"/>
<path d="M308.4 679.8h-.1c0 -.1 0 -.2 .1 -.2Z" class="g3_74"/>
<path d="M304.9 670.8l.1 .1h-.2Z" class="g3_74"/>
<path d="M308.5 670.1c.1 -.2 .1 .1 .1 .1c-.1 0 .1 -.2 -.1 -.1Z" class="g3_74"/>
<path d="M312.2 669.2v.1v-.4Z" class="g3_74"/>
<path d="M316.7 695.1c.2 0 -.1 -.2 .1 -.1c0 .1 -.1 .2 -.1 .1Z" class="g3_74"/>
<path d="M317.2 693.9c-.8 -.6 0 -1.4 -.5 -2.1c0 0 .4 0 .3 -.1c-.6 -.7 -.2 -1.7 .3 -2.5l.1 .1c.1 -.2 -.3 -.4 -.3 -.5c.1 0 .2 0 .3 0c-.3 -.1 -.2 -.3 -.3 -.4c.1 0 .3 0 .4 -.1l-.3 -.1c-.7 -.3 0 -.6 -.3 -1c0 0 .1 .1 .2 0c-.5 -.5 -.4 -1.2 -.6 -1.8c.2 0 .3 0 .5 0c-.3 -.1 -.4 -.2 -.5 -.4c.3 -.1 -.3 -.3 -.1 -.5h.1c-.4 -.1 .2 -.2 -.2 -.3l.2 -.1c-.4 -.1 .2 -.2 0 -.3h-.1c-.1 -.1 .1 -.2 .1 -.3c-.1 -.3 .1 -.4 -.2 -.4c.3 -.1 .1 .2 .5 .1c-.2 -.5 -.2 -1 -.3 -1.4l.3 .2h-1c-.1 -.1 -.1 -.2 -.2 -.3c0 .1 -.3 .1 -.3 .2c0 0 -.1 -.1 -.1 -.2c-.2 -.1 -.2 .4 -.4 .3c.1 -.1 .1 -.2 .1 -.4c-.1 .3 -.3 .3 -.5 .4c0 -.1 .1 -.1 .1 -.2c-.2 .3 -.3 -.1 -.5 .1l.1 -.2c-.3 -.3 -.1 .4 -.3 .3c0 -.1 0 -.2 0 -.3c-.2 .4 -.5 .3 -.7 .4c0 0 0 -.1 0 -.1c-.2 .1 -.5 0 -.7 .1c-.1 -.1 0 -.5 -.2 -.4c0 .4 -.4 .2 -.3 .6c-.2 0 -.5 -.2 -.6 -.1c.1 -.1 -.1 -.5 0 -.5l-.1 -.2c0 -.2 .1 0 .1 -.2c-.1 0 -.3 .2 -.4 .1c-.2 .3 -.3 .7 -.5 .8c.1 -.2 -.1 -.5 0 -.5l-.4 .7c-.1 .1 0 -.3 -.1 -.2c0 .1 -.1 .2 -.1 .3c0 -.1 -.3 .1 -.4 -.3c0 -.2 .2 -.1 .1 -.2c-.2 0 -.2 .1 -.4 .1c-.1 -.1 -.3 .1 -.1 .4c0 0 -.1 -.3 0 -.2c0 .3 -.2 .3 -.4 .3c.1 0 .1 -.1 .1 -.3c-.2 .4 -.4 .5 -.7 .6c0 .2 .1 -.4 .2 -.3c-.3 -.2 -.6 .4 -.9 0c0 0 0 .3 0 .3c-.1 -.1 -.1 -.3 -.2 -.2c0 -.2 -.1 0 -.2 .1c-.1 .1 0 -.1 0 -.1c-.1 .1 -.6 .3 -.9 .1c0 .1 -.2 .4 -.3 .4v-.3c0 -.1 -.2 .1 -.2 -.1c-.2 .3 .6 -.3 .4 -.1c-.1 -.2 -.3 .4 -.3 .1c-.1 0 -.2 .3 -.4 0c.1 .1 .1 -.3 0 -.3c-.2 .1 0 .1 -.2 .2l-.1 .1c0 .3 -.2 0 -.1 .3c0 -.2 -.3 .1 -.3 -.3v-.3c0 0 -.1 .3 -.2 .4c0 0 0 -.1 0 -.1c0 .5 -.2 -.1 -.3 .3c-.1 -.1 -.2 -.1 -.3 -.1l1.3 -1.2c-.1 .1 -.1 .2 -.3 .2c.2 .1 .4 .3 .3 .4q-.1 0 -.2 -.1c-.1 .1 0 .2 .1 .3c-.1 -.1 -.3 .2 -.5 .3c.1 .1 .4 .1 .6 .1c-.5 .1 .3 .4 -.2 .5c0 0 -.2 -.2 -.3 -.1c-.5 .2 .3 .3 .1 .5h.4c-.2 0 .2 .3 -.2 .2c.2 .1 -.1 .3 .3 .3c-.3 .3 .2 .8 -.5 1c.1 0 0 .2 .2 .1c.2 0 -.2 -.1 0 -.1c0 0 .1 0 .2 .1c-.1 .1 -.2 .1 -.5 0c-.2 .3 .7 .3 .5 .6c-.1 0 -.2 0 -.2 .1l.3 .1c-.1 .2 -.4 .1 -.6 .2c0 .1 0 .2 .2 .2l-.3 .2c.2 -.1 .1 0 .2 .1l-.1 -.1c-.1 .1 0 .2 0 .2c.2 0 .3 -.1 .3 -.2c.1 .1 .1 .2 .2 .2c-.2 0 -.2 .2 -.2 .3c0 .1 .3 .1 .3 .1c-.2 0 -.1 .2 -.3 .1c0 0 .2 -.1 0 -.1c-.1 0 -.3 0 -.1 .2c.1 .1 .5 -.1 .3 .1c0 0 -.1 0 -.2 -.1l-.2 .2h.3q-.1 0 -.1 0c.2 .1 0 .3 .3 .3c0 .1 -.1 .2 -.2 .3c-.1 .1 0 .2 .1 .3c-.1 0 0 .2 .1 .2c-.2 .2 -.9 .1 -.6 .2c0 .2 .5 .3 .6 .2c-.1 .3 .3 .5 -.1 .8q.1 0 .2 .1c-.1 .3 .3 .8 -.2 1.1c-.1 -.2 -.2 -.1 -.4 -.1c.2 .1 -.2 .2 .2 .2c.2 0 .3 0 .4 -.1c.1 .2 .1 .5 -.1 .7c.1 -.1 .2 0 .2 0c-.3 0 -.4 .2 -.2 .3h.2l-.3 .1c.1 0 .5 0 .3 .1c-.1 .1 -.2 .1 -.2 .1c.1 .1 .4 .3 .3 .4l-.4 .1c.1 .1 .3 .2 .4 .1c-.2 .2 -.3 .4 -.5 .5c.3 .2 .5 .5 .6 .7l-1.8 -1.7c.2 -.1 .5 -.1 .7 -.1v.2c.1 .1 0 -.3 .1 -.2c0 .2 .1 .4 0 .5c.2 .2 .3 -.2 .4 -.3c0 -.2 -.1 .1 -.1 -.1c0 -.1 .3 .1 .3 -.2c0 .1 0 .4 0 .5l.1 -.2c.1 .4 -.3 .7 -.2 1.2l.1 -.1c.1 .4 -.2 .4 0 .5c.1 -.1 .2 -.6 .1 -.8c.3 0 .1 -.7 .4 -.7c.1 .2 -.2 .1 -.2 .3c.1 .3 .3 -.1 .4 0c-.1 -.2 0 -.5 0 -.5c.2 .1 -.1 .3 .1 .3c.1 -.2 .2 -.3 .1 -.5c0 -.4 .2 .2 .3 -.2c0 .3 -.2 .7 0 .9c-.1 -.3 .2 -.4 .1 -.8c.1 0 .1 .3 0 .4c.2 .2 .3 -.5 .4 .1v-.3c0 .1 .1 .2 .1 .3c.1 0 .4 -.4 .3 .1c.1 -.1 .3 -.1 .2 -.4c-.1 -.2 -.1 .3 -.2 -.2c.1 .4 .2 0 .3 -.1v.2c0 -.1 .1 -.1 .2 -.3c-.1 .1 -.1 .3 0 .3v-.3c.2 -.1 .1 .5 .3 .4l-.2 .2c.1 0 .1 .2 .2 .1l.1 -.7c.1 -.1 .1 .3 .2 .1l-.1 .2c-.1 .1 0 .4 .2 .4c.1 -.1 .2 -.4 .1 -.5c.1 0 .2 .1 .1 .3c.2 -.1 0 -.3 .1 -.4c.1 .1 .2 .4 .4 .6l-.2 .4h.1c-.1 .3 .1 .2 0 .6c.1 0 .1 -.1 .2 -.2c-.2 -.5 .2 -.7 .2 -1.2c.2 -.1 .1 1.2 .4 .4c0 -.1 .1 -.5 -.1 -.3c.2 0 .1 -.5 .3 -.3c-.1 .2 .2 .5 0 .8c0 -.2 -.1 -.2 -.2 -.1c.1 .2 0 .5 .2 .5c.1 -.1 .2 -.1 .2 -.3c0 -.3 -.1 0 -.1 -.3c.2 -.1 .3 .3 .4 -.1c-.2 0 -.2 -.3 -.2 -.5l.1 -.1v.2c.3 .1 .1 -.4 .3 -.3l.1 .4c0 .3 -.3 -.2 -.3 .3c.2 .1 .2 -.2 .4 -.1q-.1 .1 -.1 .1c0 0 .1 .7 .3 .3c.1 -.1 0 -.2 0 -.3c.3 -.1 .3 -.3 .5 -.3c0 .3 .3 0 .1 .4c-.1 -.2 -.4 -.2 -.5 .1c.1 .5 -.2 0 -.3 .4c.2 0 .2 .5 .3 .8c0 0 .1 -.1 .1 -.2q0 -.2 -.1 -.5c.3 .1 .5 -.1 .6 -.4c.1 .2 .1 .4 0 .5c.2 -.1 .5 -.1 .8 0c-.2 -.4 .2 -.1 .1 -.5c-.1 -.1 -.2 -.4 -.2 -.6c.1 .1 0 .2 .1 .3c.1 -.2 .1 .4 .2 0c-.2 .2 0 .6 0 .9c.1 -.2 -.1 .2 .1 .2c.2 -.1 .4 -.3 .6 -.4c.2 .4 .6 0 .8 0c.1 .2 0 .6 .2 .7c.1 -.1 -.1 -.5 .1 -.3v.1c0 -.1 .3 .3 .4 -.3l-.1 .4c.1 .1 .1 0 .1 -.1c0 .2 .1 .3 0 .4c.2 .3 .3 -.1 .4 -.1v-.2c.2 -.2 .4 0 .6 -.1v.3l.1 -.2c0 .3 .1 .4 .2 .2l-.4 .6c-.1 -.1 .1 -.3 .1 -.5c-.1 -.2 -.3 -.2 -.3 .1c.1 0 .1 -.1 .1 -.1c0 .3 -.1 .3 -.1 .5c0 0 .1 .1 .1 0c-.1 .1 -.2 .2 -.3 .2c.1 -.1 -.1 -.2 -.1 -.3c0 .3 -.1 .4 -.3 .3c-.1 -.4 -.3 .2 -.5 .1c.1 -.3 .2 -.5 .3 -.7c-.1 -.1 -.1 .1 -.3 -.1c0 .2 -.1 .6 -.2 .7l-.1 -.2c-.1 .1 -.1 .4 -.3 .4c-.3 -.1 -.7 -.1 -.9 -.2V695c-.2 .5 -.5 .2 -.7 .4c-.3 -.2 -.7 .2 -.8 -.2c-.6 .2 -1.1 .4 -1.7 .3l.1 -.3c-.1 .2 -.1 -.2 -.2 -.2c.2 .3 -.1 .4 -.2 .6c-.2 -.3 -.6 0 -.8 .2v-.2c-.2 .4 -.5 0 -.8 0c0 -.1 -.1 -.3 -.2 -.3c-.1 .3 -.2 .3 -.5 .5c-.1 0 -.4 0 -.6 -.2c-.6 .5 -1.3 .2 -1.9 .5l-.1 -.3c-.3 .3 -.7 .3 -1 .3L302 696l.1 -1.5c0 -.3 .1 -.6 0 -.9l.4 .1c.1 -.2 -.1 -.4 -.4 -.4c.1 -.2 -.2 -.4 .1 -.5c.1 -.2 -.2 -.2 -.2 -.4c.1 -.3 .1 -.5 0 -.8v.1c.1 0 .3 0 .3 -.1c-.1 -.1 .1 -.4 -.4 -.3c.3 -.3 -.3 -.8 .1 -1.2c-.1 .1 -.1 0 -.2 -.1c0 -.3 .3 -.6 0 -.8c.1 -.1 .3 0 .3 -.1c-.1 -.1 -.2 0 -.3 -.1c-.3 -.5 .3 -1 .2 -1.5c-.3 -.8 -.1 -1.6 -.2 -2.4h.1c-.4 -.3 .5 -.6 -.2 -.8c.1 -.1 .1 -.3 .3 -.2c-.3 -.2 .3 -.6 -.1 -.9c0 0 0 .1 .1 .1c.2 -.3 -.1 -.6 .1 -.9c0 0 .1 .1 .2 .1c.2 -.1 -.5 -.3 0 -.4c0 0 -.2 0 -.2 0c0 -.1 0 -.2 .1 -.3v-1.7l1.5 .1c.6 0 1.2 -.2 1.8 -.3c.5 .3 0 .9 .4 .5c.1 .1 .1 -.2 .1 -.1c.1 -.1 .2 .6 .3 .3c0 -.3 .1 -.2 .1 -.4c.3 .2 .4 .5 .6 .3v.2c.3 -.5 .7 -.3 .9 -.8c1.7 -.1 3.2 -.4 4.8 -.5c1.4 .1 2.7 -.1 4.1 .1l2.5 .2l-.2 2.1c-.1 .2 -.1 .4 -.1 .6c-.5 .4 -.4 .4 -.3 .8c0 0 -.1 -.1 -.1 0c.3 0 0 .3 .4 .3c-.1 .6 0 1.1 0 1.7c-.1 0 -.3 -.1 -.3 0l.2 .1l-.1 .1c.1 0 .2 .1 .4 0c.3 1.6 -.5 3.1 -.4 4.6c-.1 .3 0 .8 .1 1.2c-.5 1.2 -.9 2.2 -.5 3.3c0 0 -1 -.1 -1.2 -.6Z" class="g3_74"/>
<path d="M316.4 695.2c0 -.2 -.1 -.3 0 -.5c0 .1 .1 .3 0 .5Z" class="g3_74"/>
<path d="M312.9 693.3c0 .1 -.1 0 -.1 -.1c.1 0 .1 -.1 .2 0q-.1 0 -.1 .1Z" class="g3_74"/>
<path d="M312 693.2c0 -.1 .2 -.3 .3 -.3Z" class="g3_74"/>
<path d="M311.1 692.6c0 -.2 0 -.3 .1 -.3c0 .1 0 .2 -.1 .3Z" class="g3_74"/>
<path d="M311.1 692.9c-.1 0 -.1 -.1 -.2 -.2c0 .2 .2 0 .2 .2Z" class="g3_74"/>
<path d="M309.2 692.5c0 0 -.1 .1 -.1 -.1c0 .1 .2 -.2 .1 .1Z" class="g3_74"/>
<path d="M308.4 692.7h-.1c0 -.1 0 -.2 .1 -.2Z" class="g3_74"/>
<path d="M304.9 683.7l.1 .1h-.2Z" class="g3_74"/>
<path d="M308.5 683c.1 -.1 .1 .1 .1 .1c-.1 0 .1 -.2 -.1 -.1Z" class="g3_74"/>
<path d="M312.2 682.2v0v-.4Z" class="g3_74"/>
</svg>