<?xml version="1.0" encoding="UTF-8" standalone="no"?>
<!DOCTYPE svg PUBLIC "-//W3C//DTD SVG 1.1//EN"
"http://www.w3.org/Graphics/SVG/1.1/DTD/svg11.dtd">
<svg viewBox="0 0 660 990" version="1.1" xmlns="http://www.w3.org/2000/svg" xmlns:xlink="http://www.w3.org/1999/xlink">
<defs>
<style type="text/css"><![CDATA[
.g0_97{
fill: none;
stroke: #949698;
stroke-width: 0.763;
}
.g1_97{
fill: #FFF;
}
.g2_97{
fill: none;
stroke: #231F20;
stroke-width: 2.979;
}
.g3_97{
fill: #231F20;
}
.g4_97{
fill: none;
stroke: #231F20;
stroke-width: 1.986;
}
]]></style>
</defs>
<path d="M318.5 969.1h23" class="g0_97"/>
<path d="M325.2 582.2H581.5V762.8H325.2V582.2Z" class="g1_97"/>
<path d="M325.2 582.2H581.5V762.8H325.2Zm128.1 0V762.8" class="g2_97"/>
<path d="M293 424.4H92.3V207.3H293V424.4Z" class="g1_97"/>
<path d="M293 424.4H92.3V207.3H293ZM92.3 315.9H292.9" class="g2_97"/>
<path d="M550 533.7H349.3v-217H550v217Z" class="g1_97"/>
<path d="M550 533.7H349.3v-217H550ZM349.3 425.2H549.9" class="g2_97"/>
<path d="M358.5 639.1c3.3 .7 -1.6 -1 2.2 .3c-.5 .2 -1.2 .2 -2.2 -.3Z" class="g3_97"/>
<path d="M395.2 393.4c-4.8 2.5 -10.8 4.2 -16.9 5.6c-6.2 1.4 -12.5 2.6 -18.2 4.1c-1.3 .3 .2 -1 -2.8 -.3c-5.5 1.6 -12.7 2.6 -20.4 2.8c-7.6 .1 -15.5 -.6 -22.2 -2l.8 -.2c-2.5 -.5 -5.8 -.1 -8.5 -.7c0 -.2 .9 -.1 .3 -.5c-.8 .4 -4.9 -.8 -6.1 -.7c-1 -.5 -.8 -.9 -2.1 -1.5l-1.7 .2c-2.3 0 -4.9 -.9 -7.5 -2c-2.6 -1.2 -5.3 -2.7 -8.2 -3.8c.4 0 1 .2 .6 -.2c-4.5 -1.8 -9.2 -4.7 -13.6 -8.2c-4.4 -3.5 -8.4 -7.7 -11.8 -12c.4 .2 1 .3 .8 -.4c-.8 0 -3 -2.6 -4.7 -5c-.1 -1.5 -3.1 -4 -4.5 -7.2l.3 .2c-1.9 -1.8 -1.4 -3.5 -3.2 -4.9l-.2 -1.6c-1.4 -.6 -1.3 -3.5 -2.7 -5.1l-.1 .1c-1.1 -1.6 -1.2 -2.8 -2.1 -4.3v-.2c-2.2 -3.7 -2.8 -6.2 -3.4 -5.8c-.1 -1.6 2.1 3.6 1.8 1.1C232 328.7 225.7 315.6 218.1 303.8c-.6 -1.5 -1.1 -2.4 -1.1 -2.9c-.9 -1.1 -3.1 -4.3 -4.2 -5.1c.3 .4 -.2 -1 -.6 -1.6c-1.4 -2.2 -2.4 -1.7 -3.9 -4.1c.9 .7 1.3 .9 1.3 .4c-2 -1.5 -4 -4 -6 -6c.4 .2 .9 .7 1 .4c-2.6 -1.8 -3.8 -4.2 -6.1 -5.8l1.1 .4c-2.9 -3.4 -1.6 -.2 -4.2 -3c.8 .5 .7 .1 .9 .1c-3.1 -1.8 -7.4 -5.5 -10.5 -7.2c.2 0 .2 -.1 .2 -.1c-3.1 -2.1 -6.6 -4.1 -10.7 -5.3c-1.3 -.8 .9 -.9 -3 -2.1c0 .4 -1.7 -.1 -3.1 -.4c-1.4 -.3 -2.6 -.5 -1.6 .3c-1.6 -.6 -3.7 -1.2 -5.7 -1.8c-2 -.5 -3.9 -.8 -5.1 -.8c1.6 -.1 -1.5 -1.4 1.4 -1c-.7 -.3 -1.4 -.6 -2.1 -.8c.4 -.4 2.2 .4 1.6 -.1c-1.5 -.3 -5.8 -.4 -7 -.6c-2.8 .3 -5.3 1.2 -9.6 1.5c2.1 -.4 -1.2 -.9 .2 -1.1c-2 .6 -3.9 1.4 -5.8 2.2c-1.4 .3 -.4 -.6 -2.4 -.1c.1 .2 -.7 .5 -1.3 .8c-.3 0 -1.7 .4 -3.1 .7c-1.5 .3 -2.9 .7 -3.4 .3c-.7 -.1 2.2 -.8 .6 -.7c-2.5 .9 -2.5 1.2 -5 2.2l-.1 -.1c-1.7 .5 -4.5 2.4 -2.6 2c1.1 -.4 -.6 -.2 1.1 -.8c-.9 1 -3.5 2.4 -5.7 3.8c.7 -.6 .5 -.7 .6 -1.1c-2.6 2.3 -5.5 4.6 -8.2 7.4c.2 .4 .6 -1.5 1.2 -1.7c-2.1 1.4 -3.9 3.3 -5.5 5.2c-1.5 1.9 -2.9 3.8 -4.5 5.2c.4 -.6 .7 .1 .6 0c-1.5 1.9 -1.9 1.5 -2.6 2.9c-.4 0 -1.1 1.7 -1.8 3.2c-.2 .8 -.4 .2 .3 -1c-.4 1 -1.7 3.5 -3.1 6.4c-1.4 2.9 -2.8 6.2 -4 8.5c.2 0 -.4 3.3 -.8 4.4l-.4 -.6c-.6 .9 -1.2 3.8 -1.7 3.9c-.1 1.3 .5 -1.1 1.1 -3.4c.7 -2.3 1.4 -4.4 1 -2.7c-.8 .7 -.9 4.8 -1.3 3.9c-.8 2.3 -.9 4.7 -2 6.8c.3 -.6 -.2 -2.1 -.7 -.2c-.8 3.4 0 1 -.5 3.8l-.2 1.7c.5 .3 -.8 3 .1 1.9c-.6 .3 -.8 5 -1.6 4.5l-.6 -.6c-.2 1.4 .3 2.5 .4 3.7c-.1 .2 -.3 .6 -.4 .5c1 .4 -.7 3.5 -.1 5.4c-.9 3 -1.1 7.9 -1.9 9.3c.1 2.4 .3 4.7 -.1 7.4c-.1 -.5 -.1 -1.3 -.3 -1.5c-.4 1.7 -.2 2.2 -.1 3.8c-.1 -.4 -.8 3.4 -1.3 5.3c.3 2.5 .9 1.7 1.2 1.9c-1.1 2.2 .5 6.8 -.4 9.6c-.2 -.8 -.5 -3.6 -.8 -1.5c-1.1 2.2 .7 4.4 .4 7.9l.8 -.8c-.5 1.6 .7 5.1 -.2 4.8c.4 1.2 0 4.2 .8 3.7c-.2 3 .3 6.5 .7 9.7c.4 3.2 .8 6.2 .3 8c.3 .8 .5 2.9 .9 2.4c.2 -1.4 -.7 -1.8 -.4 -2.4c.1 .7 .4 .9 .5 .9c.1 1.8 .3 3.2 -.7 1.7c.3 4.1 2.2 3.8 3 8.8c-.4 -.1 -.4 .3 0 1.7l1.3 2.6c.7 3.3 -.3 2.1 -.9 2.3c.6 1.7 1.2 3.8 1.8 4.4v2.3c0 -1.7 .7 1.3 1.1 2l-.4 -.7c-.1 .4 .7 2.3 1.1 3.2c.3 -.3 -.3 -2.3 -.5 -3.5c.5 .8 .9 2.2 1.6 3.2c-.7 -.2 .5 2.9 1 4.2c.4 1.5 1.1 1.5 1.2 2c-.2 .1 .9 2.4 .1 1.4c-.3 -.5 -.2 -1.3 -.8 -2c.2 1 -.3 1.1 .8 3c.9 1.5 .9 -.8 1.8 2.3c-.5 -.7 -.7 -.8 -1.2 -1.3l.9 2.8h.5c0 .4 -.1 .1 -.1 .3c.9 .6 1.9 4.1 2.8 4.4c.7 1.4 1 3 1.6 4.3l-.2 -.2c.5 1.7 1.7 3.7 2.7 4.8h-.2c.4 .9 1.6 2.8 2.4 3.7c.8 2.3 -1.4 1.7 .5 3.7c1.2 2.1 2.8 2.8 2.6 1.8c1.9 4 5.2 7.7 6.8 11.5c.5 .4 .4 0 1.2 1c3.5 5.5 8.4 10.7 10.8 15.3c-1.3 -1.3 -.5 .2 -.7 .4c1.3 1 .8 1.8 1.8 1.7c.2 -.4 .5 -.4 -.5 -2c2.6 2.9 6.4 7.3 7.5 9.2c-.6 -1 .1 -.4 .7 .1c-.7 .3 1.1 2.5 2.7 3.9l.6 -.1l.6 1.3c.6 .6 1.3 0 2.4 1.9c0 .2 -.1 .4 .1 .8c1.8 1.3 4.4 3.1 5.9 5.1l.9 1.9c.8 .6 2.3 1.5 1.1 .1c2.7 3.2 4.6 5 5.2 6.3c6.1 3.8 13.9 10.5 20.3 15.7l-.4 .1c1.5 1.6 1.2 .2 2.3 1.4c-.8 -.2 .9 1.6 -.7 .8c2.2 2.3 3.5 2 5.3 3.2c.5 -.2 -1.5 -.8 -.8 -1c.3 .1 3.2 2.9 4 2.6c.5 .7 -.3 .8 -.8 .7l1.8 .9c1.4 2.1 -5.2 -2.1 -3.8 .2l1.5 1c.9 1.6 -4.3 -2.2 -.9 .7c1.8 .9 3.7 1.1 2.5 -.2c3.4 2.3 2.5 -.2 6 2.4c.7 1 -2.9 -2 -2.5 -1c1.3 1.6 3.5 2.1 4.9 3.3c-1.5 -1.3 .3 -.9 1.4 -.3c1.6 1.5 -1.5 -.3 1 1.6c.6 -.1 3.2 1.3 1.3 -.3c1.4 -.1 2.5 2 4.3 2.4c.5 1.1 -3.5 -.6 -.8 1.6c-.1 -.8 4 1.7 3 -.1c1 .9 .9 1.4 -.1 1.1c1.4 1.4 4.5 1.7 4.4 3l.9 -.1c.4 .5 1 1.1 1.6 1.9c1.5 .9 5.1 2.2 4.5 2.9c.5 .2 3.8 2.2 2.9 .9c-1.9 -1.6 -2.6 -1 -3.3 -2.5c1 1.5 3 1.7 4.3 2.3v.4c.8 .3 2.4 1.4 3 1.3c-.6 -.2 -.5 .2 .1 .6h1c3 1.5 .2 1.2 3.1 2.8l-2.4 -.9c.5 .2 1.2 1.2 2.7 1.8c.8 -.1 2.1 -.1 2.7 -.1c1.7 .7 .4 .9 2.3 1.3l-2.4 -.6c-.4 -.1 1 1.5 3.1 2.7c1.5 .6 4 1.2 2 -.3c1 .6 2.4 1.7 1.4 1.6c2.5 1.2 -.1 -.7 2.2 .2c.7 .8 3.2 2.7 4.6 4l-2.7 -.4l1.5 .8c-2.2 -.5 .7 1 -.7 1c1 .6 2.3 1.1 3.4 1.4c-2.4 -2.6 4.1 .4 3.7 -1c4.2 1.9 1.4 3.6 6.4 4.3c-.6 -.6 1.8 -.3 -.9 -1.3c2.5 1.4 2.2 -.1 5 1.8c-2.4 -.7 2 2.2 -1.6 1.1c.4 -.2 -1.6 -1.1 -2.2 -1.3c.9 .9 -.7 .9 1.9 2.2c1.7 .7 3.9 1.8 3.8 1.1c.2 -.5 -2.5 -1.1 -1.2 -1.2c3.3 1.4 3.5 2.5 5.3 2.2c-2.1 -.9 -2.3 -1.7 -2.1 -2.1l2.5 .9l-.7 .2c3.7 2 1.5 -.1 5.1 1.7l1.4 1.5c-1.2 .2 -5.3 -2.8 -5.1 -1.5c2.4 1.2 3.4 1.1 5.6 2.4c-.6 -.2 -1.3 -.5 -1.8 -.6c.8 .4 1.1 2.2 4.8 3c2 .5 .7 -.2 .9 -.5c3.9 1.6 5.2 1.7 7.8 2.8c-.9 .5 4.4 2 1.3 1.6c-1.1 -1 -6.7 -3.5 -8.4 -3.4c1 1.5 -3 -1.5 -4.2 -1c3 1.4 2.5 2.2 2.7 3c.9 .4 1.8 .6 2.4 .7c.6 -.3 -.5 -.8 -.4 -1.4c3.5 1.7 6.9 2.9 9.1 3.2c1 .8 .4 1.1 -1 .6c4.3 1.6 8.7 3.6 12.6 5.4c-2.2 -1.9 4.5 1.6 3.1 .2c-2.1 -1.1 -3.6 -2.5 -2.3 -2.4c1.3 .6 -.2 .4 .3 .8c1.9 .2 2.3 1.8 4.3 1.8c-4 -1.3 -1.2 .7 -2.2 1.1c2.9 .8 -.3 .5 2.4 1.6c3 .7 6.5 1.7 9.6 2.8c3.7 2.1 9.9 3.7 13.4 4.9c1.7 1 .2 1.3 2.1 2.2c2.4 .8 -1.4 -1.5 1.9 .1h-.4c1.1 .2 6.2 2.8 7.6 2l-1.3 .5c.6 .3 1.2 .3 1.8 .4c-.1 .3 .6 .8 -.5 .6c1.9 1.3 4.5 1.4 6.9 2.1l-1.3 -1c4.1 .9 6.6 2.3 10.6 3.3l-.3 .4l2.4 .4c-.7 .4 1.3 1.3 2.7 1.3l-6.4 -.6c-1.6 -.8 2 -.1 1.1 -.9c-.8 -.7 -4.4 -1.7 -5.2 -1.4c1.4 .5 1.5 .4 2.6 .6c.3 .8 -1.8 .2 -3 .3c.7 .2 1.7 .7 1.9 .6c-1.5 -.1 -3 -.5 -5.3 -1.3c1.7 .3 -.8 -.7 -.1 -.7c-.4 .6 -2.7 0 -5.6 -1.1c-1.8 -1.4 -5.6 -1.4 -8.9 -2.8c1.6 -.1 3.5 0 5.7 .4c-2.1 -1 -2.4 -.7 -4.4 -1.8c-1.2 .1 -2.2 .6 -5 -.1v-.5c-2.6 -.7 -2.8 0 -5.9 -1.3C308.6 623 303 620.9 299 619.2v-.5c-2.7 .1 -7.7 -2.7 -10.9 -3.5c-5 -2.6 -11.4 -4.3 -13.7 -6.3c-9.2 -3.6 -17.2 -7 -26.2 -11.7l1.8 .1c-1.9 -.4 -.9 -.9 -2.5 -1.6c1.6 1.4 -2.6 -.5 -3.9 -.7c-3.8 -2.5 -9.3 -4.8 -13.1 -6.3l.1 -.5c-4 -1.1 -7.9 -4.2 -12.2 -6.9c-.4 -.5 -1 -1.3 -2.3 -2.1c-2.8 -.7 -4 -1.5 -7.7 -3.2c-2.5 -1.5 -6.5 -4.3 -8.9 -6.2c-10 -5.1 -18.9 -12.2 -28.6 -18.8l-.3 -.9c-4.8 -3 -9.7 -6.9 -14.3 -10.9c-4.6 -4 -8.9 -8 -12.6 -11.1L145 528c-2 -2.2 -5.1 -4.5 -5.1 -3.5c-1.9 -2.3 -5.7 -5 -6.4 -7c-2 -2.3 -3 -2.4 -4.8 -4.2c-3.9 -4.9 -5.5 -6.6 -9.4 -10.9l.9 1.1c.6 .4 .9 .2 0 -1c-1.6 -1.5 -4.8 -6.4 -4.4 -4c-3.4 -5.3 -9.3 -11.3 -11.9 -17c0 .6 -.9 -.6 -1.4 -1c-3 -4.7 -5.5 -10 -8.1 -13.5c-.2 -.9 1.2 .9 .1 -1.1c-.7 -1.1 -.3 .2 -1.3 -1.1C88.4 457.1 85.7 448.2 82.6 440.7C76.8 427.4 73.3 412.6 71.3 398.8l.3 .2c-1.6 -4.5 -.4 -10.9 -2 -14.5c.2 -1.1 -.1 -4.2 .4 -3.4c-.8 -3.7 .3 -10.4 -.4 -15.7c0 .5 0 .8 .1 1.3c.6 -5.3 .1 -10.1 1 -15.7c.1 .6 .1 1.6 .3 1.8c.6 -2.1 -.6 -5.2 .6 -6.3c.1 -1.3 -.5 -1 -.5 -.2c1.5 -12.3 3 -25.6 6.7 -38.2c1.8 -4.4 2.4 -4.3 2.6 -4.1c.2 .2 .2 .5 1.1 -3.1c.4 -.4 -.2 -.5 0 -.5c.8 -2.8 2.9 -3.6 3.2 -5.7c-1 .5 .2 -1.3 -.1 -1.6c1.5 -2.5 2.5 -3.8 3.5 -5.1c.9 -1.3 1.6 -2.5 2.7 -4.6l.1 .5c1 -2.5 2.6 -4.9 4.3 -7.2c1.7 -2.2 3.5 -4.3 4.8 -6.3c5.4 -5.3 11.8 -9.6 18.7 -12.5c6.9 -3 14.3 -4.6 21.7 -5.2c7.3 -.5 14.7 .1 21.8 1.5c7.2 1.4 14.2 3.6 20.9 6.9c1.7 .8 3.3 1.7 4.9 2.8l.6 .4l.6 .4l1.1 .8l2.2 1.6c2.8 2.1 5.6 4.4 8.2 6.8c5.3 4.9 10 10.2 14.3 15.8c8.7 11.2 15.5 23.5 21.6 36.1c2.1 6.3 2.3 6.7 5.9 13c-.3 -.2 -.5 -.6 -.5 -.1c.9 0 2.4 4.5 3.3 4.7c2.3 4.7 4.5 9 6.9 13.3c1.2 2.1 2.4 4.2 3.7 6.4l1 1.6l.9 1.5c.7 1 1.4 2 2.1 3c-1 -1.2 -1.9 -1.5 -.8 0c.5 .5 1 .9 1.6 1.3v.4c.8 1 2 1.8 1.4 .6c7.9 9.6 17.8 17.2 29.2 22.1c11.4 5 23.9 7.4 36.5 7.5c3 .2 6.7 .2 10.4 -.1c3.7 -.2 7.5 -.7 10.7 -1.1c9.8 -.6 19 -1.9 28.2 -3.9c9.2 -2.1 18.3 -4.8 27.7 -8.4c0 0 -1.8 2.8 -9.6 5.8Z" class="g3_97"/>
<path d="M354.6 638.1c-.6 -.5 -2.7 -1.4 -.8 -1.4c.1 .4 1.1 1.2 .8 1.4Z" class="g3_97"/>
<path d="M297.5 614.2c-.2 .1 -.8 -.5 -1 -.6c.8 .2 1.5 .2 2 .6c-.7 -.3 -.7 0 -1 0Z" class="g3_97"/>
<path d="M283 607.9c.3 -.2 3.5 .9 5.4 1.6Z" class="g3_97"/>
<path d="M270.2 600.7c-1.1 -.8 -.7 -.8 .9 -.1c0 .2 -.6 .1 -.9 .1Z" class="g3_97"/>
<path d="M268.9 601c-1.1 -.5 -1.6 -1 -2.1 -1.4c0 .3 2.7 1 2.1 1.4Z" class="g3_97"/>
<path d="M240.8 586c-.7 -.3 -2.3 -.9 -2.7 -1.5c.5 .6 3.5 1.3 2.7 1.5Z" class="g3_97"/>
<path d="M227.6 579.4c-.4 -.3 -.6 -.4 -1.1 -.6c-.7 -.6 .3 -.3 .9 0Z" class="g3_97"/>
<path d="M76.1 374.2l.2 1.5l-.4 -.2Z" class="g3_97"/>
<path d="M112.7 268.8c1.2 -1 1.1 -.3 1.3 -.4c-1.1 .7 .2 -.7 -1.3 .4Z" class="g3_97"/>
<path d="M172.7 263l-.5 -.1l.4 -.6Z" class="g3_97"/>
<path d="M366.4 638.4c0 3 -2.5 5.5 -5.5 5.5c-3 0 -5.4 -2.5 -5.4 -5.5c0 -3 2.4 -5.4 5.4 -5.4c3 0 5.5 2.4 5.5 5.4Z" class="g1_97"/>
<path d="M366.4 638.4c0 3 -2.5 5.5 -5.5 5.5c-3 0 -5.4 -2.5 -5.4 -5.5c0 -3 2.4 -5.4 5.4 -5.4c3 0 5.5 2.4 5.5 5.4Z" class="g4_97"/>
<path d="M389.4 382.3c-.2 .1 0 .3 -.1 .1c0 -.1 0 -.2 .1 -.1Z" class="g3_97"/>
<path d="M397.2 397.8c-.3 -.9 .7 -.6 .7 -1.4c0 0 .3 .4 .3 .2c-.1 -.8 .7 -1 1.5 -.9v.1c.2 0 0 -.4 .1 -.4c.1 0 .1 .1 .2 .2c-.2 -.3 0 -.3 -.1 -.5c.1 .1 .3 .3 .4 .3l-.2 -.3c-.3 -.6 .4 -.2 .3 -.7c0 .1 .1 .2 .1 .2c0 -.6 .4 -.9 .6 -1.3c.1 .1 .2 .3 .3 .4c-.2 -.3 -.1 -.5 -.1 -.6c.3 .2 0 -.3 .2 -.3v.1c-.1 -.4 .3 0 0 -.4l.3 .2c-.3 -.4 .3 .1 .1 -.1v-.1c0 -.2 .2 0 .2 -.1c0 -.2 .3 0 0 -.3c.3 .2 0 .2 .4 .5c.1 -.7 .6 -1 1 -1.4q.2 .1 .3 .2c0 -.1 .2 -.2 .1 -.4c0 0 .1 .1 .2 .1c.1 .1 -.2 -.4 0 -.3c0 .1 .1 .2 .2 .3c-.2 -.3 0 -.4 0 -.5q0 .1 .1 .2c-.1 -.3 .2 -.1 .2 -.3l.1 .2c.3 0 -.3 -.4 -.1 -.4q.1 .1 .2 .2c-.2 -.4 .1 -.5 .1 -.6c0 0 .1 0 .1 0c0 -.1 .2 -.1 .2 -.4c.2 .1 .4 .4 .5 .3c-.3 -.4 0 -.3 -.4 -.7c.2 0 .5 0 .4 -.2c.1 .2 .4 .4 .4 .5l.2 .1c.1 .2 -.1 0 .1 .2c0 -.1 0 -.3 .1 -.3c-.1 -.3 -.3 -.7 -.3 -.9c.1 .2 .4 .4 .4 .5l-.4 -.8c.1 -.1 .3 .2 .3 .1c-.1 -.1 -.1 -.2 -.2 -.3c.1 .1 .1 -.2 .4 .1c.2 .1 0 .1 .2 .2c.1 -.1 0 -.2 0 -.3l.1 .1c.1 0 0 -.3 -.2 -.4c-.1 0 .2 .2 0 .1c-.1 -.2 -.1 -.4 0 -.4c0 0 .1 .1 .2 .2c-.1 -.3 -.1 -.5 -.1 -.7c-.1 -.2 .2 .3 .2 .2c.3 .1 0 -.5 .4 -.3c0 0 -.2 -.3 -.2 -.2c.1 -.1 .3 .2 .3 0c.1 .2 0 0 0 -.1c0 -.2 .1 0 .1 .1c0 -.1 0 -.3 .1 -.5l.6 2.2c-.1 0 -.2 -.1 -.3 -.2c0 .1 -.2 .4 -.3 .4l.1 -.3c0 -.1 -.1 0 -.1 -.2c-.2 .3 .4 -.2 .3 0c0 -.2 -.3 .4 -.2 0c-.1 0 -.3 .3 -.3 0c0 .1 .1 -.3 .1 -.3c-.2 0 -.1 .1 -.2 .2l-.1 .1c-.1 .2 -.1 -.1 -.2 .2c.1 -.2 -.2 .1 -.1 -.3l.1 -.4c-.1 0 -.2 .4 -.2 .5c0 0 0 -.1 0 -.2c-.1 .6 -.2 0 -.3 .4c-.1 -.2 -.3 -.1 -.3 -.5c-.1 .2 -.3 .3 -.4 .2q.1 0 .1 -.1c0 -.2 0 -.1 -.1 0c0 -.1 -.1 -.3 -.1 -.5c-.2 .1 -.2 .4 -.2 .5c0 -.5 -.4 .3 -.4 -.2c.1 0 .2 -.2 .2 -.3c0 -.6 -.3 .3 -.4 0v.5c-.1 -.3 -.3 .2 -.2 -.3c-.1 .2 -.1 -.1 -.2 .3c-.2 -.4 -.6 .1 -.6 -.7c0 .1 -.1 0 -.1 .2c0 .2 .1 -.2 .1 0c-.1 0 -.1 .1 -.1 .2c-.1 -.1 -.1 -.2 0 -.5c-.1 -.3 -.3 .7 -.5 .5c.1 -.2 .1 -.3 0 -.3l-.2 .3c-.1 -.1 .1 -.4 .1 -.7q-.1 0 -.2 .2v-.4c0 .3 -.1 .2 -.2 .3l.1 -.1c0 -.1 -.1 -.1 -.2 0c0 .1 .1 .2 .1 .3q-.1 .1 -.2 .2c.1 -.3 -.1 -.2 -.1 -.3c-.1 0 -.1 .3 -.1 .3c0 -.2 -.1 -.1 0 -.3c0 0 0 .2 0 .1c0 -.2 .1 -.4 -.1 -.2c0 .1 -.1 .5 -.1 .3c0 -.1 0 -.2 .1 -.3l-.1 -.1l-.1 .2c0 0 .1 -.1 .1 -.1c-.1 .3 -.2 0 -.3 .3c-.1 .1 -.1 -.2 -.2 -.2c0 -.2 -.1 -.1 -.2 .1V387c0 0 -.1 0 -.2 .1c0 -.2 .2 -1 0 -.6c-.1 -.1 -.2 .4 -.2 .6c-.2 -.2 -.5 .1 -.5 -.3c-.1 .1 -.1 .2 -.1 .2c-.3 -.1 -.7 .2 -.7 -.3c.1 -.1 0 -.3 0 -.4c-.1 .2 0 -.3 -.1 .1c0 .2 -.1 .3 0 .5c-.2 0 -.4 0 -.5 -.2c.1 .1 0 .1 0 .2c.1 -.4 0 -.4 -.2 -.3v.2v-.3c-.1 .1 -.2 .5 -.2 .3c0 -.1 0 -.2 0 -.3c-.1 .2 -.3 .5 -.3 .3v-.4c-.1 .1 -.2 .2 -.2 .4c-.1 -.3 -.2 -.3 -.2 -.6c-.4 .6 -.8 .6 -1.1 .4v-.1c0 -.2 -.1 .3 -.1 .1c.1 -.1 0 -.3 .1 -.5c-.1 -.2 -.2 .2 -.3 .3c-.1 .2 .1 -.1 0 .1c0 .1 -.1 -.2 -.2 .2c0 -.2 .1 -.4 .1 -.5l-.1 .1c0 -.4 .4 -.7 .4 -1.2l-.1 .1c0 -.4 .2 -.4 .1 -.6c-.1 .2 -.3 .7 -.3 .8c-.1 .1 -.2 .8 -.4 .8c0 -.2 .2 -.1 .2 -.3c0 -.3 -.2 .1 -.2 0c0 .1 -.1 .4 -.2 .5c0 -.2 .1 -.3 0 -.4c0 .2 -.2 .3 -.1 .5c-.2 .4 -.1 -.2 -.3 .2c.1 -.3 .3 -.7 .2 -.9c0 .3 -.2 .4 -.3 .8c0 -.1 .1 -.3 .1 -.5c0 -.2 -.3 .5 -.2 -.1l-.1 .3V386c0 -.1 -.3 .3 -.2 -.1c0 0 -.2 0 -.2 .3c.1 .2 .2 -.2 .1 .2c.1 -.3 -.1 .1 -.2 .2l.1 -.2c-.1 0 -.2 0 -.2 .2c0 -.1 0 -.2 0 -.3l-.1 .3c-.1 .1 .1 -.5 0 -.5l.1 -.2c0 .1 0 -.2 -.1 -.1l-.3 .7c-.1 .1 .1 -.3 -.1 0l.2 -.3c0 -.1 0 -.4 -.1 -.5c-.1 .1 -.2 .5 -.2 .6c0 0 0 -.2 0 -.3c-.1 0 0 .2 -.1 .4c0 -.2 -.1 -.5 -.1 -.7l.2 -.4h-.1c.2 -.3 0 -.3 .1 -.6c0 -.1 -.1 0 -.1 .1c0 .6 -.4 .7 -.4 1.3c-.2 .1 .1 -1.3 -.2 -.6c0 .2 -.2 .6 -.1 .4c-.1 -.1 -.2 .5 -.2 .3c.1 -.2 0 -.6 .2 -.8c-.1 .1 0 .1 .1 .1c0 -.2 .1 -.5 0 -.6c-.1 .1 -.2 .1 -.3 .3c0 .3 .2 0 0 .3c-.1 .1 0 -.4 -.2 .1c.1 0 0 .3 0 .5l-.1 .1V386c-.1 -.1 -.1 .4 -.2 .3v-.4c.1 -.3 .2 .2 .3 -.4c-.1 0 -.2 .3 -.3 .1c0 0 .1 -.1 .1 -.1c0 0 .1 -.7 -.2 -.4c-.1 .2 0 .2 -.1 .4c-.2 .1 -.2 .3 -.4 .3c.1 -.4 -.1 -.1 .1 -.5c0 .3 .2 .3 .4 -.1c0 -.5 .1 .1 .2 -.4c-.1 0 0 -.5 0 -.8c0 0 -.1 .1 -.1 .2c-.1 .2 0 .3 -.1 .5c-.1 -.1 -.3 .1 -.4 .3c-.1 -.1 0 -.4 .1 -.4c-.2 0 -.4 -.1 -.6 -.2c.1 .5 -.2 .1 -.2 .5c.1 .1 .1 .5 0 .7c0 -.1 .1 -.2 .1 -.3c-.2 .2 -.1 -.5 -.2 -.1c.2 -.1 .1 -.5 .2 -.9c-.1 .2 .1 -.3 0 -.3c-.2 .2 -.4 .3 -.5 .4c-.1 -.4 -.4 -.1 -.6 -.1c0 -.2 .1 -.6 .1 -.7c-.1 0 -.1 .4 -.2 .2l.1 -.1c-.1 .1 -.2 -.3 -.4 .3l.1 -.5c0 0 0 .1 -.1 .1c.1 -.1 .1 -.3 .1 -.3c0 -.4 -.2 0 -.3 0v.2c-.2 .2 -.2 -.1 -.4 0l.1 -.3l-.2 .2c.1 -.3 .1 -.5 0 -.3l.3 -.5c.1 .1 -.1 .3 -.1 .5c0 .2 .1 .2 .2 0c0 -.1 0 0 -.1 .1c0 -.4 .1 -.4 .2 -.6c0 0 0 -.1 -.1 0c.1 -.2 .2 -.2 .3 -.2c-.1 .2 0 .3 -.1 .4c.1 -.3 .2 -.4 .3 -.3c0 .4 .3 -.2 .4 -.1c-.1 .3 -.2 .6 -.3 .7c0 .2 .1 0 .1 .2c.1 -.2 .2 -.6 .4 -.7l-.1 .2c.1 -.1 .2 -.4 .3 -.3c.2 .1 .5 .2 .6 .2v.3c.2 -.5 .3 -.1 .5 -.3c.2 .2 .5 -.2 .6 .3c.4 -.1 .8 -.2 1.1 -.1l-.1 .4c.1 -.3 0 .2 .1 .1c0 -.3 .2 -.3 .3 -.5c.1 .3 .4 .1 .6 -.2l-.1 .3c.3 -.4 .4 0 .6 .1c0 .1 0 .3 0 .3c.2 -.3 .3 -.3 .5 -.5c.1 0 .3 .2 .3 .3c.6 -.4 1 0 1.5 -.2v.3c.5 -.5 .9 .1 1.4 -.1l-.2 .5c.1 .2 .3 -.1 .4 -.4c.1 .1 .3 -.2 .3 .2c.1 .1 .2 -.2 .3 -.2c.2 .2 .3 .2 .6 .1h-.1c0 .1 -.1 .3 0 .4c.1 -.2 .3 .1 .3 -.4c.2 .3 .6 -.2 .7 .3q.1 -.2 .2 -.3c.2 .1 .3 .4 .6 .2c0 .1 -.1 .3 -.1 .3c.1 -.1 .1 -.2 .2 -.3c.4 -.2 .6 .5 .9 .5c.6 -.2 1.2 0 1.7 .1v.1c.3 -.4 .3 .6 .6 -.1c0 .1 .2 .1 .1 .3c.2 -.3 .3 .4 .6 .1c0 -.1 0 0 -.1 0c.2 .3 .4 0 .6 .3c0 0 -.1 0 -.1 .2c0 .2 .3 -.5 .2 .1c.1 0 .1 -.3 .1 -.3c.4 .3 1 .1 1.5 .1c.3 .4 -.1 .9 .2 .5c0 .2 .1 -.2 .1 0c.1 -.2 0 .6 .1 .3q.1 -.2 .1 -.2l-.1 .2l.8 2.4c.1 0 .1 .1 .1 .1c-.3 0 -.5 -.2 -.5 .1l-.1 -.2c.2 .6 -.2 .5 .1 1.1c-.8 .8 -1.4 1.8 -2.2 2.6c-.9 .6 -1.5 1.5 -2.6 2c-.5 -.2 -.5 -.1 -.6 .2q0 -.1 -.1 -.1c.3 .3 -.1 .1 .1 .4c-.3 .2 -.5 .6 -.8 .8c0 0 -.2 -.3 -.2 -.2l.1 .2h-.1c0 0 .1 .2 .2 .3c-.6 .9 -1.9 1 -2.6 1.8c-.3 0 -.5 .4 -.6 .6c-1 .2 -1.8 .3 -2.1 1.1c0 0 -.6 -.8 -.5 -1.2Z" class="g3_97"/>
<path d="M389.5 382.3c0 .2 .1 .3 0 .6c0 -.2 0 -.4 0 -.6Z" class="g3_97"/>
<path d="M391.5 384.8c0 -.1 0 .1 0 .1c0 0 0 .2 0 .1q0 -.1 0 -.2Z" class="g3_97"/>
<path d="M392.1 385c0 .2 -.2 .3 -.3 .3Z" class="g3_97"/>
<path d="M392.6 385.8c0 .2 -.1 .3 -.1 .3c0 -.1 0 -.2 .1 -.3Z" class="g3_97"/>
<path d="M392.7 385.5c0 0 0 .1 0 .2c.1 -.2 -.1 .1 0 -.2Z" class="g3_97"/>
<path d="M393.8 386.2c.1 0 .1 -.1 .1 .1c0 -.1 -.2 .2 -.1 -.1Z" class="g3_97"/>
<path d="M394.5 386.1c0 .1 0 .2 -.1 .2Z" class="g3_97"/>
<path d="M405.2 387.7h-.1l.1 -.1Z" class="g3_97"/>
<path d="M406.6 387.1c.1 .1 -.1 -.1 -.1 -.1c0 -.1 .1 .1 .1 .1Z" class="g3_97"/>
<path d="M405.3 389.4v0l.2 .3Z" class="g3_97"/>
<path d="M377.5 477.5c0 -3 -2.4 -5.5 -5.4 -5.5c-3.1 0 -5.5 2.4 -5.5 5.4c-.1 3 2.4 5.5 5.4 5.5c3 0 5.5 -2.4 5.5 -5.4Z" class="g1_97"/>
<path d="M377.5 477.5c0 -3 -2.4 -5.5 -5.4 -5.5c-3.1 0 -5.5 2.4 -5.5 5.4c-.1 3 2.4 5.5 5.4 5.5c3 0 5.5 -2.4 5.5 -5.4Z" class="g4_97"/>
<path d="M372.9 478.8c.8 -.3 -.6 -.5 .5 -.4c-.1 .3 -.2 .6 -.5 .4Z" class="g3_97"/>
<path d="M192.7 381.4c2.5 2 1.9 5.9 4 8.3c.2 .3 -1 .3 -.5 .9c2.3 2.2 3.2 6.6 3.6 10.2h-.3c.1 .7 1.3 1 1.5 1.7c-.2 .1 -.4 -.1 -.5 .2c.5 -.1 .7 1 1.3 1.1c-.1 .3 -.5 .5 -.6 .9l.7 .1c1.9 .3 1.2 2.5 2.6 3.5c-.2 0 -.4 -.1 -.4 .1c1.9 1.7 3.3 4.4 5 6.6c-.3 0 -.7 .1 -.8 .4c.6 -.2 1.2 .4 1.7 .9c-.4 .7 1.2 .7 1.4 1.7h-.2c1 .1 .2 1 1.2 .9l-.3 .7c1 -.4 .1 1 .8 1.2l.2 -.2c.5 .3 .2 .8 .6 1.1l-.1 .1c.9 .7 .8 1.5 1.4 1c-.3 .7 -.8 -.6 -1.2 .4c2.7 2.4 4.8 5.3 7.1 8c0 .5 .1 .7 -.1 1c.4 .2 1 .9 1.5 .9c-.1 -.1 -.1 .4 0 .6c.2 .7 1.1 -.1 1.3 .7c-.3 -.1 -.6 0 -.7 .3c.8 0 1.3 .7 1.9 1.1c-.1 0 -.3 -.1 -.5 .1c1 .1 .9 1.1 1.7 1.3l-.5 .1c.4 1.2 .9 -.4 1.3 .5c-.2 0 -.3 .1 -.5 .2c1.2 .1 2.1 1.3 2.9 1.7c-.1 0 -.2 .1 -.2 .1c.8 .6 1.4 1.5 2.4 1.9c.1 .4 -.8 .7 0 1.3c.6 -.7 1.6 .9 1.8 -.3c.5 .7 1.3 1.9 2 2c-.5 0 -.4 1.1 -1 .7l.1 .8c-.3 .2 -.4 -.5 -.5 0c.3 .2 1.3 .6 1.5 .9c.8 0 2 -.4 2.9 .2c-.6 0 -.4 1 -.8 .9l2.3 -.4c.3 .2 -.4 .6 .2 .7c.1 -.2 .3 -.2 .6 -.2c0 .1 1.3 .7 .9 1.5c-.1 .3 -.6 -.2 -.4 .3c.5 .3 .7 .1 1.3 .5l-.1 .1c.3 .4 1.3 .5 1.2 -.2c-.3 -.2 -.2 .5 -.5 0c.6 -.2 1.3 .1 1.8 .5c-.2 0 -.3 .2 -.6 .3c1.2 0 2.1 .3 3 .6c.3 -.3 -.7 .5 -.7 .2c.8 1.2 2.7 .8 3.1 2c-.2 0 .2 -.5 .2 -.4c.5 .4 .1 .9 .6 .9c-.2 .3 .5 .2 .9 .3c.3 -.1 0 .2 -.4 0c.7 .1 2.9 .8 3.8 1.9c.1 -.2 1.1 -.4 1.4 -.2l-.4 .4c.1 .4 .9 .5 .7 .9c.9 -.3 -2.4 -.7 -1.4 -.7c0 .5 1.5 -.2 1 .4c.5 .2 1.3 0 1.6 .7c-.1 -.1 -.8 .4 -.4 .6c.9 .4 .4 -.1 1.1 .1h.5c.3 -.4 .6 .4 .6 -.2c-.1 .4 1.3 .3 .8 1l-.4 .6c.3 .1 .8 -.4 1.2 -.5c.1 .1 .1 .2 0 .3c.5 -.9 .8 .5 1.5 0c.6 .6 1.8 .9 1.9 1.6c.7 0 1.3 -.1 1.8 .4c-.1 0 -.3 -.1 -.4 .1c.2 .5 .4 .3 .9 .3c-.2 .1 .5 .9 .8 1.4c.7 0 .7 -.6 .9 -.9c.1 1.2 1.8 0 2.1 1.2c-.3 0 -1 .1 -.7 .5c.2 1.2 1.4 -.2 2 .6l.1 -.9c.2 .6 1.4 0 1 .8c.4 -.2 .9 .6 1.1 -.2c1.1 1.2 3.4 .8 3.8 2.5c.2 0 .7 .3 .7 -.2c-.2 -.5 -.6 .2 -.6 -.1c.2 0 .3 -.2 .4 -.3c.3 .3 .7 .5 0 1c.8 .8 1.5 -1 2.6 -.3c-.2 .3 -.1 .5 .2 .6l.9 -.4c.7 .4 .2 .9 0 1.5c.5 0 1 .2 1.3 -.2l.3 .9c-.2 -.6 .5 -.2 .7 -.3l-.2 .1c0 .2 .5 .3 .8 .3c0 -.4 -.4 -.7 -.7 -.9c.3 -.2 .6 0 1 -.2c-.2 .5 .6 .6 .9 .7c.4 .3 .6 -.3 .7 -.3c-.1 .3 .6 .2 .2 .6c-.2 0 -.2 -.4 -.5 -.2c.2 .3 0 .8 .6 .6c.5 -.2 .3 -1.2 .9 -.6c-.2 .1 -.3 .3 -.5 .4l.6 .5l.2 -.5c0 .2 -.1 .2 0 .3c.3 -.5 1.1 .1 1.4 -.4c.4 0 .7 .5 1 .7h-.1c.4 .4 1 .4 1.4 .1v.1c.2 .1 .8 .2 1.1 -.1c.5 .6 -.2 2 .6 1.5c.6 .2 1.1 -.7 1 -1.1c.9 .6 2.3 .1 3.2 1.1c.2 -.2 .1 -.3 .4 -.4c1.6 .6 3.5 .1 4.5 1.3c-.5 .2 -.1 .6 -.1 .9c.4 -.4 .3 .5 .6 -.2c.1 -.5 .1 -.7 -.3 -1c1 -.1 2.4 .2 2.9 .7c-.2 -.3 0 -.4 .2 -.5c-.2 .8 .5 1 1.1 .8l.1 -.4l.3 .5c.2 -.1 .4 -.9 .8 -.4c0 .2 0 .4 .1 .5c.6 -.3 1.5 -.8 2 -.3l.4 .7c.3 0 .7 -.4 .3 -.6c1 .5 1.6 .7 1.9 1.3c1.9 -1.2 4.4 -.9 6.5 -.6l-.1 .3c.5 .4 .3 -.6 .7 -.3c-.2 .3 .3 .8 -.1 1.1c.7 .5 1 -.5 1.5 -.6c.2 -.4 -.4 .3 -.2 -.3c.1 -.2 1 .5 1.2 -.2c.2 .3 0 .8 -.2 1l.6 -.3c.5 .9 -1.5 1.4 -1 2.4l.5 -.1c.3 .8 -1.3 .8 -.2 1.1c.5 -.3 1 -1.3 .6 -1.6c1.1 -.1 .6 -1.6 1.7 -1.5c.3 .5 -.9 .1 -.7 .6c.5 .6 1 -.2 1.5 0c-.5 -.3 0 -.9 .3 -1c.5 .3 -.4 .6 .4 .7c.1 -.4 .9 -.6 .3 -.9c.3 -.9 .8 .3 1.2 -.4c.2 .7 -.9 1.4 0 1.8c-.1 -.6 1.1 -.8 .7 -1.7c.3 .2 .3 .7 0 1c.5 .4 1.3 -1 1.4 .2l.2 -.6c.1 .2 .3 .4 .5 .7c.5 0 1.4 -.8 1.4 .2c.1 -.1 1.1 0 .7 -.7c-.6 -.4 -.7 .4 -1 -.5c.4 .8 .9 0 1.2 -.2l.1 .3c.2 -.1 .7 0 .8 -.4c-.2 .2 -.1 .5 .1 .5l.2 -.5c.8 -.3 .2 1 1 .8l-.7 .5c.2 -.1 .4 .4 .8 .2c.2 -.5 .5 -1.1 .7 -1.5c.4 -.2 .1 .6 .6 .1l-.6 .6c-.1 .2 .4 .9 1 .9c.4 -.2 1 -.9 .4 -1.2c.3 0 .7 .3 .5 .7c.7 -.2 -.1 -.6 .5 -.9c.2 .3 1 .8 1.5 1.3l-.7 .9h.4c-.5 .7 .3 .5 0 1.2c.3 .2 .6 -.1 .9 -.3c-.8 -1.1 1 -1.5 .7 -2.6c1.2 -.3 .7 2.6 1.9 .9c-.2 -.3 .4 -1.1 -.3 -.8c.7 .2 .5 -1 1.3 -.6c-.6 .4 .7 1.1 -.2 1.7c0 -.3 -.5 -.3 -.7 -.2c.3 .4 0 1.1 .7 1.1c.5 -.1 1.1 -.1 1 -.7c0 -.6 -.7 .1 -.4 -.5c.9 -.2 1 .7 1.4 -.4c-.6 .1 -.7 -.5 -.7 -.9l.6 -.3l-.1 .4c1 .3 .3 -.7 1.3 -.6l.5 .7c-.2 .7 -1.5 -.2 -1.3 .9c.7 0 .9 -.6 1.5 -.3c-.1 .1 -.3 .1 -.5 .2c.3 .1 .6 1.5 1.5 .6c.4 -.3 .1 -.4 .1 -.8c1 -.1 1.3 -.6 2 -.7c-.1 .9 1.2 .1 .5 .9c-.4 -.4 -1.9 -.3 -2.2 .5c.4 .9 -.9 -.1 -1.1 .8c.9 0 .9 1 1 1.6c.3 0 .5 -.2 .6 -.3c.1 -.6 -.2 -.6 -.2 -1.2c.9 .1 1.8 -.3 2.3 -.8c.3 .2 .3 .8 -.1 .9c1.1 -.2 2.3 -.2 3.4 -.1c-.7 -.9 1.2 -.3 .7 -1.1c-.6 -.1 -1.1 -.8 -.8 -1.2c.3 0 0 .4 .1 .6c.4 -.6 .8 .8 1.2 -.1c-1 .4 -.1 1.2 -.3 2c.7 -.5 0 .5 .8 .4c.7 -.4 1.6 -.8 2.4 -1c1.1 .6 2.6 -.2 3.5 -.4c.5 .4 .3 1.2 .8 1.3c.6 0 -.5 -.8 .4 -.5l-.1 .1c.3 -.2 1.8 .4 1.9 -.8l-.2 .9c.2 .1 .3 -.1 .5 -.2c0 .3 .2 .5 0 .7c.6 .6 1.2 -.2 1.8 -.3l-.5 -.5c1 -.5 1.8 -.1 2.8 -.4v.5l.6 -.4c-.1 .5 .5 .8 .7 .3l-1.4 1.5c-.4 -.2 .4 -.7 .1 -1.2c-.3 -.4 -1.2 -.1 -1.3 .4c.4 0 .4 -.1 .6 -.3c.2 .7 -.3 .7 -.5 1.3c.2 -.1 .5 .1 .5 -.1c-.4 .4 -.7 .5 -1.3 .6c.3 -.4 -.3 -.5 -.2 -.7c0 .7 -.5 .9 -1.3 .8c-.7 -.6 -1.4 .7 -2.3 .6c.3 -.7 .7 -1.3 1.2 -1.6c-.6 -.3 -.6 .1 -1.2 -.2c-.3 .5 -.4 1.3 -1.1 1.6l-.1 -.4c-.6 .3 -.5 1 -1.4 .9c-1.5 -.1 -2.9 0 -4.1 0v-.4c-.6 1 -2.1 .5 -2.9 1c-1.4 -.4 -3 .6 -3.8 -.2c-2.4 .5 -4.6 .9 -7.2 .7l.4 -.7c-.4 .5 -.3 -.4 -.7 -.3c.5 .6 -.6 .8 -1 1.2c-1.1 -.6 -2.6 0 -3.6 .5l-.1 -.5c-1 .9 -2.2 .1 -3.5 -.1c-.2 -.2 -.4 -.7 -.8 -.6c-.7 .7 -1 .7 -2.1 1.1c-.7 0 -1.9 -.3 -2.7 -.6c-2.9 .9 -5.7 0 -8.7 .4l-.1 -.6c-3 1 -6.4 -.5 -8.8 -.3l.3 -.9c-.7 -.4 -1.7 0 -1.6 .7c-.7 -.4 -2 .2 -2.4 -.7c-.7 -.3 -1 .3 -1.6 .4c-1.5 -.7 -2.1 -.7 -3.6 -.8l.4 .2c.2 -.2 .2 -.6 -.1 -.8c-.6 .2 -2 -.6 -1.6 .7c-1.5 -1 -3.8 -.2 -5.1 -1.4c.1 .3 -.3 .3 -.5 .4c-1.4 -.2 -2.7 -1.2 -3.9 -1c-.1 -.2 .5 -.4 0 -.6c-.4 .1 -.1 .4 -.6 .5c-2.3 0 -4.2 -1.7 -6.2 -2.1c-3.7 -.5 -7.3 -1.9 -10.6 -3l.1 -.3c-1.4 .5 -2.2 -1.8 -3.6 -.8c-.1 -.4 -.9 -.5 -.6 -.9c-1.1 .3 -2.2 -1.5 -3.7 -1.3c.1 .1 .2 .1 .4 0c-1.1 -1 -2.5 -.8 -3.6 -1.8c.2 -.1 .5 0 .6 -.2c-.3 -.6 -1.6 .3 -1.4 -.8c-.3 -.1 -.5 .4 -.3 .5c-2.6 -1.8 -5.9 -2.6 -9 -4c-1.7 -1.7 .8 -1.7 -1.2 -1.9c0 -.3 -.3 .3 -.2 .1c-.8 -.1 -.3 -1.6 -1.1 -1.4c-.1 .7 -.4 .2 -.7 .5c-1 -1.1 -.9 -1.8 -2.1 -1.9l.3 -.3c-1.7 .2 -2.7 -1.1 -4.3 -.7c-6.2 -3.9 -12.3 -7.8 -17.7 -12.7c-5 -5 -10.1 -9.9 -14.1 -16.1c-.2 -1.9 -.3 -2 -1.7 -3.3c.2 0 .3 .1 .3 -.1c-.7 .4 -.8 -1 -1.5 -.8c-1.4 -2.2 -3 -4.2 -4.4 -6.5c.3 .3 .9 .2 .6 -.3l-.7 -.2l.1 -.1c-.2 -.3 -.8 -.4 -.8 0c-4.2 -5.6 -5.9 -12.4 -8.7 -18.5c-.3 -1.6 -1.5 -3.6 -2.2 -5.1c-.9 -5.2 -1.6 -9.8 -3.7 -14.6c0 0 2.1 .1 3.2 2Z" class="g3_97"/>
<path d="M371.9 479c-.3 -.3 -.9 -.4 -.5 -1c.1 .3 .5 .7 .5 1Z" class="g3_97"/>
<path d="M356 476.7c0 .1 -.2 -.2 -.2 -.2c.2 -.1 .3 -.4 .5 -.2c-.2 0 -.2 .2 -.3 .4Z" class="g3_97"/>
<path d="M352.1 476.7c.1 -.4 .9 -.7 1.4 -.8Z" class="g3_97"/>
<path d="M348.4 475.4c-.3 -.3 -.2 -.5 .2 -.5c0 .2 -.1 .3 -.2 .5Z" class="g3_97"/>
<path d="M348.2 476.2c-.3 0 -.5 -.2 -.6 -.4c0 .3 .7 -.2 .6 .4Z" class="g3_97"/>
<path d="M340.3 475.3c-.2 0 -.6 .3 -.8 -.1c.2 .3 .9 -.4 .8 .1Z" class="g3_97"/>
<path d="M336.6 475.7c-.1 0 -.2 0 -.3 0c-.2 -.1 0 -.4 .2 -.4Z" class="g3_97"/>
<path d="M271.1 464.5l.5 -.1l-.2 .3Z" class="g3_97"/>
<path d="M245.4 450.6c-.4 0 0 -.4 0 -.5c.3 .2 -.4 .3 0 .5Z" class="g3_97"/>
<path d="M232 442.2h.1l-.6 .5Z" class="g3_97"/>
<path d="M201.8 394.3c.1 .1 .2 -.2 .1 0c-.1 .1 -.2 .2 -.1 0Z" class="g3_97"/>
<path d="M186.3 393c-.7 -.7 .3 -.9 -.1 -1.6c0 0 .5 .2 .4 .1c-.5 -.7 .1 -1.2 .8 -1.6l.1 .1c.2 -.1 -.3 -.4 -.2 -.4c.1 0 .2 0 .3 0c-.3 -.1 -.1 -.2 -.3 -.3c.2 0 .4 .1 .5 0l-.3 -.1c-.7 -.4 .2 -.4 -.1 -.8q.1 .1 .2 .1c-.3 -.5 -.1 -.9 -.1 -1.4c.1 .1 .3 .1 .4 .2c-.3 -.2 -.4 -.3 -.4 -.5c.4 .1 -.2 -.2 0 -.3h.1c-.4 -.2 .2 -.1 -.2 -.3l.3 .1c-.5 -.2 .3 -.1 .1 -.3h-.1c-.1 -.1 .1 -.1 .1 -.2v.1c0 -.2 .2 -.3 -.1 -.4c.3 .1 .1 .2 .5 .3c-.2 -.7 .1 -1.2 .2 -1.7q.2 -.1 .4 -.1c-.1 0 0 -.2 -.2 -.3c0 0 .2 0 .2 0c.2 0 -.3 -.2 -.1 -.3c.1 .1 .2 .2 .3 .2c-.2 -.2 -.2 -.3 -.2 -.4c0 0 .1 0 .2 .1c-.3 -.3 .1 -.2 -.1 -.4l.2 .1c.4 -.1 -.4 -.2 -.2 -.3c.1 .1 .2 .1 .2 .1c-.3 -.2 -.1 -.4 -.2 -.6c0 0 .1 0 .1 0c0 -.1 .2 -.2 .1 -.4c.1 -.1 .5 .1 .4 0c-.4 -.2 -.1 -.4 -.6 -.4c.1 -.1 .4 -.3 .3 -.4c.1 .1 .5 .1 .5 .2h.3c.1 .1 -.1 .1 .1 .1c0 -.1 -.1 -.3 0 -.3c-.2 -.2 -.7 -.4 -.7 -.6c.1 .1 .5 .1 .5 .2l-.7 -.5c0 -.1 .3 .1 .3 0q-.2 -.1 -.3 -.2c.1 0 0 -.2 .4 -.1c.2 0 .1 .1 .2 .1c0 -.1 -.1 -.2 -.1 -.3h.1c.1 0 -.1 -.2 -.4 -.2c0 0 .3 0 .1 .1c-.2 -.2 -.2 -.3 -.2 -.4c.1 0 .2 .1 .3 .1c-.3 -.2 -.3 -.4 -.4 -.6c-.2 0 .3 .2 .2 .2c.3 -.1 -.3 -.6 .2 -.6c0 .1 -.3 -.1 -.2 0c0 -.1 .3 0 .2 -.1c.2 0 0 -.1 0 -.2c-.2 -.1 0 0 0 .1c0 -.1 -.1 -.3 -.1 -.5l.3 -2.2l1.9 1.9c.1 0 .1 .1 .1 .3c.1 -.1 .4 -.2 .4 -.1l-.2 .1c-.1 .1 .1 .1 -.1 .3c.4 -.1 -.4 -.2 -.1 -.2c-.2 .1 .4 -.1 .1 .1c.1 0 .4 -.1 .2 .2c0 -.1 -.3 .1 -.3 .2c.2 .1 .2 -.1 .3 0h.1c.3 -.2 .1 .1 .3 -.1c-.2 .1 .2 .1 -.1 .3l-.3 .2c0 0 .3 -.1 .5 -.2c0 0 -.1 .1 -.1 .1c.4 -.3 0 .2 .4 0c-.1 .2 .2 .3 -.1 .5c.2 0 .4 -.1 .4 .1q-.1 0 -.2 .1c-.1 .1 0 0 .2 0c-.1 .1 -.2 .3 -.3 .5c.2 0 .4 -.2 .5 -.3c-.3 .4 .5 0 .1 .4c0 0 -.3 0 -.3 .2c-.4 .3 .4 -.1 .3 .2l.3 -.3c-.2 .2 .3 0 0 .2c.1 0 0 .3 .3 0c-.2 .4 .5 .3 0 .9c.1 0 0 .1 .2 0c.2 -.2 -.2 0 -.1 -.1c.1 0 .2 -.1 .2 -.1c0 .1 0 .2 -.3 .3c-.2 .3 .6 -.3 .6 0c-.1 .1 -.2 .2 -.1 .2l.3 -.1c0 .2 -.3 .3 -.5 .5c.1 0 .1 .1 .3 0l-.2 .3c.1 -.2 .1 -.1 .2 -.1h-.1c-.1 .1 .1 .1 .1 .1c.2 -.1 .2 -.2 .2 -.3c.1 0 .1 .1 .3 0c-.3 .2 -.1 .2 -.1 .3c0 .1 .2 -.1 .2 -.1c-.1 .1 .1 .1 -.1 .2c-.1 0 .1 -.1 -.1 -.1c0 .1 -.2 .3 0 .2c.1 0 .4 -.3 .3 -.1c0 0 -.1 .1 -.2 .1l-.1 .2l.2 -.2q0 .1 -.1 .1c.3 -.1 .2 .1 .5 0c0 0 -.1 .2 -.1 .2c-.1 .2 .1 .2 .2 .1v.1c0 0 .1 .1 .2 0c-.1 .2 -.8 .6 -.4 .5c0 .1 .5 -.1 .6 -.3c-.1 .3 .4 .2 .2 .6q.1 -.1 .2 -.1c.1 .2 .6 .2 .3 .7c-.2 0 -.3 .2 -.4 .2c.3 0 -.1 .3 .2 0c.2 -.1 .3 -.2 .3 -.3c.2 .1 .4 .3 .2 .5c.1 -.1 .2 -.2 .3 -.2c-.4 .2 -.3 .4 -.2 .4l.2 -.2l-.1 .2c0 0 .4 -.2 .2 0c0 0 -.1 .1 -.1 .1c.2 0 .5 -.1 .4 .1l-.2 .3c0 0 .2 -.1 .3 -.2c-.1 .2 -.1 .3 -.3 .6c.8 -.2 1 .1 1.2 .4l-.2 .1c0 .1 .3 -.2 .3 0c-.2 0 -.3 .2 -.5 .3c-.1 .2 .3 -.1 .5 0c.2 -.2 -.2 0 0 -.2c.1 0 0 .3 .3 .1c-.1 .1 -.3 .2 -.4 .3h.1c-.2 .3 -.7 .2 -1 .6h.1c-.3 .3 -.5 .1 -.5 .3c.2 0 .7 -.3 .7 -.4c.2 .1 .8 -.4 .8 -.3c-.1 .2 -.1 0 -.3 .1c-.2 .3 .2 .1 .2 .2c0 -.1 .4 -.3 .5 -.3c-.1 .2 -.3 .2 -.3 .3c.2 -.1 .4 -.1 .4 -.3c.4 -.2 0 .2 .3 .1c-.2 .2 -.7 .3 -.7 .5c.2 -.2 .4 -.1 .8 -.4c-.1 .1 -.3 .2 -.4 .3c-.2 .2 .5 -.2 0 .2l.3 -.2l-.2 .3c0 .1 .5 -.1 .1 .2c0 0 .1 .1 .3 -.1c.1 -.2 -.2 0 .1 -.3c-.3 .3 .1 .1 .2 .1l-.1 .1c.1 0 .1 .1 .3 0c-.1 0 -.2 .1 -.2 .2l.2 -.2c.2 0 -.4 .3 -.2 .4h-.3c.1 0 -.1 .2 0 .2l.7 -.3c.1 -.1 -.2 .1 0 .1l-.3 .1c-.1 0 -.3 .3 -.2 .3c.1 0 .4 -.1 .5 -.3c0 .1 -.1 .2 -.2 .3c.1 0 .2 -.2 .4 -.2c-.2 .1 -.3 .4 -.4 .6l-.4 .2c-.3 .1 -.2 .2 -.5 .4c0 0 .1 0 .2 0c.4 -.5 .7 -.3 1.1 -.7c.3 .1 -.9 .9 -.2 .5c.1 -.1 .5 -.2 .3 -.2c0 .1 .5 -.3 .4 0c-.2 0 -.4 .4 -.7 .4q.1 -.1 0 -.1c-.1 .1 -.4 .3 -.4 .4c.1 0 .2 .1 .4 -.1c.2 -.2 -.1 -.1 .2 -.2c.2 .1 -.2 .3 .3 .1c-.1 -.1 .1 -.3 .3 -.4h.1l-.1 .1c0 .2 .3 -.1 .3 0l-.2 .3c-.3 .2 0 -.3 -.5 .1c.1 .1 .3 -.1 .3 .1q-.1 0 -.2 0c0 .1 -.5 .5 -.1 .4q.2 -.1 .3 -.2c.2 .1 .4 0 .5 .1c-.4 .2 .1 .1 -.3 .3c.1 -.2 -.1 -.4 -.4 -.2c-.4 .3 0 -.2 -.4 .1c0 .1 -.4 .4 -.6 .6c0 0 .1 0 .2 0q.2 -.2 .4 -.4c.1 .2 .3 .2 .6 .1c-.1 .1 -.4 .3 -.4 .2c.2 .1 .2 .3 .3 .5c.3 -.4 .2 .1 .4 -.2c.1 -.1 .3 -.4 .5 -.5c0 .1 -.2 .1 -.2 .2c.2 -.1 -.3 .4 .1 .2c-.2 -.1 -.5 .3 -.8 .5c.2 0 -.3 .1 -.2 .2c.3 0 .5 0 .6 .1c-.2 .3 .3 .3 .4 .4c-.2 .2 -.5 .4 -.5 .5c0 .1 .3 -.3 .2 -.1l-.1 .1c.2 0 0 .4 .5 0l-.4 .3c0 0 .1 0 .1 0c-.1 .1 -.2 .2 -.3 .2c-.2 .2 .2 .1 .2 .2l.2 -.2c.3 0 .1 .2 .3 .3l-.2 .2l.2 -.1c-.3 .2 -.3 .3 -.1 .3l-.7 .1c.1 -.1 .3 -.1 .5 -.3c.2 -.1 0 -.2 -.2 -.1c0 .1 0 0 .1 0c-.2 .3 -.3 .2 -.5 .3c0 0 0 .1 .1 0c-.2 .1 -.3 .1 -.3 0c.1 0 .1 -.2 .2 -.2c-.3 .2 -.4 .1 -.4 0c.3 -.3 -.3 0 -.3 -.2c.3 -.2 .5 -.3 .7 -.3c.1 -.1 -.1 0 0 -.2c-.2 .1 -.5 .3 -.7 .3l.2 -.2c-.2 0 -.5 .2 -.5 .1c0 -.3 -.2 -.5 -.3 -.6l.2 -.2c-.4 .3 -.3 -.1 -.6 -.1c.1 -.3 -.4 -.3 -.2 -.6c-.4 -.2 -.7 -.4 -.9 -.8l.4 -.1c-.3 .1 .1 -.2 0 -.2c-.2 .2 -.3 .1 -.5 .2c.1 -.3 -.3 -.3 -.6 -.3l.2 -.1c-.5 .1 -.3 -.3 -.3 -.5c0 -.1 .2 -.2 .1 -.3c-.3 .2 -.3 .1 -.6 .1c-.1 -.1 -.1 -.3 -.1 -.5c-.7 0 -.7 -.6 -1.2 -.8l.2 -.2c-.8 0 -.6 -.7 -1.1 -.9l.4 -.2c.1 -.2 -.2 -.2 -.5 .1c0 -.2 -.4 -.1 -.1 -.4c0 -.2 -.3 0 -.4 -.1c0 -.3 -.1 -.3 -.3 -.4c.1 0 .3 -.1 .3 -.2c-.2 0 -.1 -.3 -.5 .1c.1 -.4 -.6 -.3 -.3 -.8c-.1 .1 -.2 .1 -.3 .1c-.1 -.2 0 -.5 -.3 -.5c0 -.1 .2 -.1 .2 -.2c-.1 0 -.2 .1 -.3 .1c-.4 -.1 -.2 -.7 -.4 -1c-.6 -.2 -.8 -.8 -1.2 -1.2l.1 -.1c-.4 .1 .1 -.6 -.5 -.3c.1 -.1 0 -.2 .2 -.3c-.4 .1 0 -.5 -.5 -.4h.1c.1 -.3 -.3 -.3 -.3 -.6c.1 0 .2 0 .3 -.1c.1 -.2 -.6 .2 -.1 -.2c-.1 0 -.3 .1 -.3 .1c-.1 -.5 -.7 -.7 -1.1 -1c.1 -.5 .8 -.6 .3 -.6c.1 -.1 -.2 .1 -.1 .1c-.2 0 .4 -.6 .1 -.4q-.2 .1 -.3 .1l2.8 -.4h.1c-.3 .2 -.6 .1 -.4 .3h-.2c.4 .3 .1 .5 .6 .8c-.3 1.1 -.3 2.3 -.5 3.4c-.5 1 -.6 2.1 -1.2 3c-.5 .1 -.5 .2 -.4 .5c-.1 0 -.1 -.1 -.2 -.1c.4 .2 0 .2 .3 .4c-.2 .3 -.2 .7 -.3 1.1c0 0 -.3 -.2 -.3 -.1l.2 .2h-.1c0 0 .2 .1 .3 .1c0 1.1 -1 1.9 -1.3 2.9c-.2 .2 -.2 .6 -.2 .9c-.7 .6 -1.3 1.1 -1.2 2c0 0 -.9 -.4 -1.1 -.8Z" class="g3_97"/>
<path d="M201.7 394.2c.1 -.1 .1 -.2 .4 -.3c-.2 .1 -.3 .2 -.4 .3Z" class="g3_97"/>
<path d="M201.8 391.1c0 0 .1 -.1 .1 -.1c0 0 .2 -.1 .1 0c0 0 -.1 0 -.2 .1Z" class="g3_97"/>
<path d="M201.6 390.5c.1 -.1 .3 -.1 .4 0Z" class="g3_97"/>
<path d="M201.8 389.6c.1 -.1 .2 -.2 .2 -.1q-.1 0 -.2 .1Z" class="g3_97"/>
<path d="M201.5 389.8c-.1 -.1 0 -.1 .1 -.2c-.2 .1 .1 0 -.1 .2Z" class="g3_97"/>
<path d="M201.1 388.4c0 0 -.2 .1 0 -.1c-.1 .1 .2 0 0 .1Z" class="g3_97"/>
<path d="M200.6 388.1h-.1c.1 -.1 .2 -.1 .2 -.1Z" class="g3_97"/>
<path d="M193.7 379.8h.1l-.2 .1Z" class="g3_97"/>
<path d="M189 378.9c.1 .1 -.2 0 -.2 0c0 0 .2 .1 .2 0Z" class="g3_97"/>
<path d="M189 381.6h.1l.3 .1Z" class="g3_97"/>
<path d="M140.4 255.6c-.1 3 2.4 5.5 5.4 5.5c3 0 5.5 -2.4 5.5 -5.4c0 -3 -2.4 -5.5 -5.4 -5.5c-3.1 0 -5.5 2.4 -5.5 5.4Z" class="g1_97"/>
<path d="M140.4 255.6c-.1 3 2.4 5.5 5.4 5.5c3 0 5.5 -2.4 5.5 -5.4c0 -3 -2.4 -5.5 -5.4 -5.5c-3.1 0 -5.5 2.4 -5.5 5.4Z" class="g4_97"/>
<path d="M245.5 361.4c0 3 2.4 5.5 5.4 5.5c3 0 5.5 -2.4 5.5 -5.4c0 -3 -2.4 -5.5 -5.4 -5.5c-3 0 -5.5 2.4 -5.5 5.4Z" class="g1_97"/>
<path d="M245.5 361.4c0 3 2.4 5.5 5.4 5.5c3 0 5.5 -2.4 5.5 -5.4c0 -3 -2.4 -5.5 -5.4 -5.5c-3 0 -5.5 2.4 -5.5 5.4Z" class="g4_97"/>
</svg>