<?xml version="1.0" encoding="UTF-8" standalone="no"?>
<!DOCTYPE svg PUBLIC "-//W3C//DTD SVG 1.1//EN"
"http://www.w3.org/Graphics/SVG/1.1/DTD/svg11.dtd">
<svg viewBox="0 0 660 990" version="1.1" xmlns="http://www.w3.org/2000/svg" xmlns:xlink="http://www.w3.org/1999/xlink">
<defs>
<clipPath id="c0_196"><path d="M54.1 479.8V159H604V479.8Z"/></clipPath>
<clipPath id="c1_196"><path d="M50.3 948.1V30.2H608.6V948.1Z"/></clipPath>
<clipPath id="c2_196"><path d="M67.2 722.7L50.1 602.9l.2 -190.4L233.8 400.8L275 693.6L67.2 722.7Z"/></clipPath>
<style type="text/css"><![CDATA[
.g0_196{
fill: #231F20;
}
.g1_196{
fill: none;
stroke: #231F20;
stroke-width: 1.527;
}
.g2_196{
fill: none;
stroke: #FFF;
stroke-width: 1.909;
stroke-miterlimit: 10;
}
.g3_196{
fill: none;
stroke: #000;
stroke-width: 0.381;
stroke-miterlimit: 10;
}
]]></style>
</defs>
<image clip-path="url(#c0_196)" preserveAspectRatio="none" x="54" y="159" width="550" height="322" xlink:href="img/1.png"/>
<path d="M54.4 880.8h550v55.6H54.4V880.8Z" class="g0_196"/>
<path d="M55.2 935.6H603.7V41.6H55.2Z" class="g1_196"/>
<image clip-path="url(#c1_196)" preserveAspectRatio="none" x="37" y="400" width="235" height="320" xlink:href="img/2.png"/>
<image clip-path="url(#c2_196)" preserveAspectRatio="none" x="23" y="381" width="252" height="341" xlink:href="img/3.png"/>
<g clip-path="url(#c1_196)">
<path d="M-9.6 -.2h-23m701.2 0h22.9M-9.6 986.6h-23m701.2 0h22.9M-.5 -9.4V-32.2m0 1028v22.8M659.4 -9.4V-32.2m0 1028v22.8" class="g2_196"/>
<path d="M-9.6 -.2h-23m701.2 0h22.9M-9.6 986.6h-23m701.2 0h22.9M-.5 -9.4V-32.2m0 1028v22.8M659.4 -9.4V-32.2m0 1028v22.8" class="g3_196"/>
</g>
</svg>