<?xml version="1.0" encoding="UTF-8" standalone="no"?>
<!DOCTYPE svg PUBLIC "-//W3C//DTD SVG 1.1//EN"
"http://www.w3.org/Graphics/SVG/1.1/DTD/svg11.dtd">
<svg viewBox="0 0 660 990" version="1.1" xmlns="http://www.w3.org/2000/svg" xmlns:xlink="http://www.w3.org/1999/xlink">
<defs>
<style type="text/css"><![CDATA[
.g0_63{
fill: none;
stroke: #949698;
stroke-width: 0.763;
}
.g1_63{
fill: #FFF;
}
.g2_63{
fill: none;
stroke: #231F20;
stroke-width: 2.979;
}
.g3_63{
fill: #231F20;
}
.g4_63{
fill: none;
stroke: #231F20;
stroke-width: 1.986;
}
]]></style>
</defs>
<path d="M318.5 969.1h23" class="g0_63"/>
<path d="M196.5 437.9H452.7V618.5H196.5V437.9Z" class="g1_63"/>
<path d="M196.5 437.9H452.7V618.5H196.5Zm128.1 0V618.5" class="g2_63"/>
<path d="M423 382.9H222.3v-217H423v217Z" class="g1_63"/>
<path d="M423 382.9H222.3v-217H423ZM222.3 274.4H423" class="g2_63"/>
<path d="M440.7 309.9c-.1 .1 .2 .2 -.1 .1c0 -.1 0 -.2 .1 -.1Z" class="g3_63"/>
<path d="M445 295c.9 -.6 .9 .5 1.6 .2c.1 0 -.3 .4 -.1 .4c.7 -.4 1.2 .3 1.4 1.1l-.1 .1c0 .1 .4 -.2 .4 -.1c0 .1 -.1 .1 -.1 .2c.1 -.2 .2 0 .4 -.2c0 .1 -.2 .3 -.2 .5l.2 -.3c.6 -.6 .4 .3 .8 0q-.1 .1 -.1 .2c.5 -.2 .9 .1 1.4 .2c-.1 .1 -.2 .2 -.2 .4c.1 -.3 .3 -.3 .4 -.3c-.1 .3 .4 -.2 .4 0l-.1 .1c.3 -.3 .1 .2 .4 -.1l-.1 .3c.3 -.4 0 .3 .2 .1v-.1c.2 -.1 .1 .2 .2 .1l-.1 .1c.3 -.1 .2 .2 .4 -.1c-.1 .3 -.2 0 -.4 .5c.7 -.1 1.2 .3 1.7 .5q0 .2 -.1 .4c.1 -.1 .2 0 .4 -.1c0 0 -.1 .2 -.1 .2c.1 .2 .3 -.3 .4 -.1c-.1 .1 -.2 .2 -.3 .3c.3 -.2 .4 -.1 .5 -.1c0 0 -.1 0 -.1 .1c.2 -.2 .1 .2 .3 .1l-.1 .1c0 .4 .3 -.3 .3 -.1c-.1 0 -.1 .1 -.1 .2c.3 -.3 .4 -.1 .6 -.1c.1 .1 .2 .3 .4 .2c0 .1 -.3 .5 -.1 .5c.2 -.4 .4 -.1 .5 -.5c.1 .1 .2 .3 .4 .3c-.2 .1 -.2 .5 -.3 .4l-.1 .3c-.1 .2 -.1 -.1 -.1 .1c0 0 .3 0 .3 .1c.2 -.2 .5 -.6 .7 -.6c-.2 .1 -.2 .5 -.3 .5l.6 -.6c.1 0 -.1 .3 0 .2q.1 -.1 .2 -.2c0 .1 .3 0 .1 .4c-.1 .2 -.2 .1 -.2 .2c.1 .1 .2 -.1 .3 0c0 .1 .2 0 .3 -.3c0 0 -.1 .3 -.1 .1c.1 -.2 .3 -.2 .4 -.1c-.1 0 -.1 .1 -.2 .2c.3 -.2 .5 -.2 .7 -.3c.1 -.2 -.3 .3 -.2 .2c0 .4 .5 -.1 .5 .3c-.1 0 .1 -.2 .1 -.2c.1 .1 -.1 .3 0 .3c-.1 .1 .1 0 .2 -.1c.1 0 0 .1 -.1 .1c.1 0 .3 -.1 .5 0l2.1 .7l-2.2 1.5c-.1 .1 -.2 .1 -.3 0c0 .1 0 .5 0 .5l-.1 -.3c-.1 -.1 -.1 .1 -.2 -.1c0 .4 .2 -.4 .2 -.1c-.1 -.2 0 .5 -.1 .1c-.1 .1 -.1 .4 -.3 .2c.1 0 -.1 -.4 -.1 -.3c-.1 .1 0 .1 -.1 .2v.1c.1 .3 -.1 .1 0 .3c-.1 -.2 -.1 .2 -.2 -.2l-.2 -.3c0 0 .1 .4 .1 .5c0 0 -.1 -.1 -.1 -.1c.2 .5 -.1 0 0 .4c-.2 -.1 -.3 .1 -.5 -.1c0 .1 0 .4 -.2 .3q0 -.1 0 -.2c-.1 -.1 -.1 0 -.1 .1c0 0 -.3 -.2 -.4 -.3c0 .2 .1 .4 .2 .6c-.3 -.5 -.1 .4 -.4 0c0 -.1 0 -.3 -.1 -.4c-.3 -.4 -.1 .4 -.3 .3l.2 .4c-.1 -.3 -.1 .3 -.2 -.1c0 .1 -.2 -.1 -.1 .3c-.3 -.2 -.4 .4 -.8 -.2c0 .1 -.1 0 0 .2c.1 .2 0 -.2 .1 0c-.1 0 0 .1 0 .2c-.1 -.1 -.2 -.1 -.3 -.5c-.2 -.1 .2 .8 -.1 .7c0 -.2 -.1 -.2 -.1 -.2v.4c-.2 0 -.2 -.4 -.4 -.6c0 0 -.1 .1 0 .3l-.3 -.3c.2 .2 .1 .2 .1 .2c-.1 -.1 -.2 0 -.2 0c.1 .2 .2 .2 .3 .2c0 .2 -.1 .2 0 .3c-.1 -.2 -.2 -.1 -.3 -.1c-.1 -.1 0 .2 0 .2c0 -.1 -.1 .1 -.1 -.1c0 -.1 .1 .1 .1 -.1c-.1 -.1 -.2 -.3 -.2 -.1c0 .2 .2 .5 0 .4c0 -.1 0 -.2 0 -.3l-.2 -.1l.1 .3q0 -.1 -.1 -.1c.1 .2 -.1 .1 0 .4c0 .1 -.2 -.1 -.2 -.1c-.2 -.1 -.2 0 -.2 .2v-.1c-.1 0 -.1 .1 -.1 .3c-.2 -.2 -.4 -.9 -.4 -.6c-.1 .1 .1 .5 .2 .7c-.3 -.1 -.3 .3 -.6 0c0 .1 .1 .2 0 .3c-.2 0 -.3 .5 -.7 .1c0 -.1 -.1 -.2 -.2 -.4c0 .3 -.2 -.2 0 .2c.1 .2 .1 .3 .2 .4c-.1 .2 -.3 .3 -.4 .1c0 .1 0 .2 0 .2c-.1 -.3 -.2 -.3 -.3 -.2l.1 .3l-.1 -.2c0 0 .1 .4 0 .3c-.1 -.1 -.1 -.2 -.1 -.3c-.1 .3 0 .6 -.2 .5l-.2 -.3c0 0 0 .3 .1 .3c-.2 -.1 -.4 -.1 -.5 -.3c0 .7 -.4 .9 -.7 1v-.1c-.2 -.2 0 .3 -.1 .2c0 -.2 -.2 -.3 -.2 -.5c-.2 -.2 0 .3 -.1 .4c.1 .2 0 -.2 .1 .1c.1 .1 -.2 -.1 -.1 .3c0 -.2 -.1 -.4 -.2 -.5v.1c-.2 -.3 -.1 -.7 -.4 -1.1v.1c-.2 -.3 0 -.5 -.2 -.5c0 .2 .1 .6 .2 .8c-.1 .1 .3 .7 .1 .8c-.1 -.2 .2 -.1 0 -.4c-.2 -.2 -.1 .3 -.2 .2c.1 .1 .2 .4 .2 .5c-.1 -.1 -.1 -.3 -.2 -.3c.1 .2 0 .4 .2 .5c.1 .4 -.2 -.1 -.1 .3c-.2 -.3 -.2 -.8 -.4 -.9c.1 .3 0 .5 .3 .9c-.1 -.1 -.2 -.3 -.3 -.5c-.1 -.1 .1 .6 -.2 .1l.1 .3l-.2 -.3c-.1 0 0 .5 -.2 0c0 .1 -.2 .1 0 .4c.2 .1 0 -.3 .2 .1c-.2 -.3 -.1 .1 -.1 .2v-.1c0 .1 -.1 .1 -.1 .2c0 -.1 -.1 -.2 -.1 -.2l.1 .3c-.1 .2 -.2 -.5 -.3 -.3v-.3c0 .1 -.2 -.1 -.2 0l.2 .7c0 .1 -.1 -.3 -.1 0v-.3c0 -.1 -.3 -.4 -.3 -.3c-.1 .1 0 .5 .1 .6c0 0 -.1 -.1 -.2 -.3c0 .1 .2 .2 .1 .4c-.1 -.1 -.3 -.3 -.4 -.5l-.1 -.4h-.1c-.1 -.3 -.1 -.2 -.2 -.6c-.1 0 -.1 .1 -.1 .2c.3 .5 .2 .8 .4 1.3c-.1 .2 -.6 -1.1 -.4 -.3c0 .1 .1 .5 .2 .3c-.2 0 .1 .5 -.1 .4c0 -.2 -.3 -.4 -.3 -.8c0 .2 .1 .1 .1 0c-.1 -.1 -.2 -.4 -.3 -.4c0 .1 -.1 .1 0 .4c.1 .2 .1 -.1 .2 .2c-.1 .1 -.3 -.3 -.2 .3c.1 -.1 .2 .1 .3 .3v.2l-.1 -.2c-.2 -.1 .1 .4 0 .4l-.3 -.4c-.1 -.3 .3 .1 0 -.4c-.1 0 0 .3 -.1 .2q0 -.1 0 -.1c0 0 -.4 -.7 -.3 -.2q0 .2 .1 .3c-.1 .2 -.1 .4 -.2 .5c-.1 -.4 -.2 0 -.2 -.4c.1 .2 .3 0 .2 -.3c-.2 -.4 .2 0 0 -.5c-.1 .1 -.3 -.4 -.5 -.6c0 0 0 .1 0 .1c.1 .3 .2 .3 .3 .6c-.2 0 -.2 .2 -.2 .5c-.1 -.2 -.2 -.4 -.2 -.5c-.1 .2 -.3 .2 -.5 .2c.3 .4 -.1 .2 .1 .5c.1 .1 .4 .4 .4 .6c-.1 0 -.1 -.2 -.1 -.3c0 .3 -.3 -.3 -.2 .1c.1 -.2 -.2 -.6 -.4 -.9c0 .2 -.1 -.3 -.2 -.2c0 .2 -.1 .4 -.1 .6c-.3 -.3 -.4 .1 -.6 .2c-.1 -.1 -.2 -.5 -.3 -.6c-.1 .1 .2 .4 0 .3v-.1c0 .1 -.4 -.1 -.2 .4l-.1 -.4c-.1 0 0 .1 0 .1c-.1 -.1 -.2 -.2 -.2 -.3c-.2 -.3 -.1 .1 -.2 .2l.1 .2c0 .2 -.2 0 -.3 .2l-.2 -.3v.2c-.1 -.2 -.2 -.3 -.2 -.1v-.7c.1 .1 .1 .3 .2 .5c.1 .2 .2 .1 .2 -.1q-.1 0 -.1 .1c-.2 -.3 -.1 -.3 -.1 -.6c-.1 .1 -.1 0 -.1 .1c0 -.2 0 -.3 .1 -.3c0 .1 .1 .2 .2 .3c-.2 -.3 -.1 -.4 0 -.4c.3 .3 .1 -.3 .3 -.3c.1 .3 .1 .6 .1 .8c.2 .1 .1 -.1 .2 0c0 -.2 -.1 -.6 -.1 -.8l.1 .3c.1 -.2 -.1 -.5 .1 -.5c.2 0 .4 -.1 .6 -.1l.1 .2c-.1 -.5 .2 -.3 .2 -.6c.3 .1 .4 -.4 .7 -.1c.2 -.3 .5 -.6 .9 -.7l.1 .4c-.1 -.3 .1 .1 .1 0c-.1 -.2 0 -.3 -.1 -.6c.3 .2 .4 -.1 .5 -.4l.1 .2c-.1 -.5 .3 -.2 .5 -.2c0 0 .2 .2 .2 .2q0 -.4 .1 -.7c.1 0 .3 0 .5 0c.1 -.6 .7 -.5 1 -1l.1 .3c.2 -.8 .9 -.5 1.1 -1l.2 .5c.2 .1 .2 -.2 0 -.5c.2 .1 .2 -.4 .4 0c.2 0 .1 -.3 .1 -.4c.3 .1 .4 0 .6 -.2h-.1c0 .1 .1 .3 .2 .3c0 -.1 .3 0 0 -.5c.4 .2 .4 -.5 .8 -.2c-.1 -.1 0 -.2 0 -.3c.1 -.1 .5 .1 .5 -.2c.1 .1 .1 .3 .2 .3c0 -.1 -.1 -.2 -.1 -.3c.2 -.4 .8 0 1.1 -.2c.3 -.6 .9 -.7 1.4 -.9l.1 .1c-.1 -.5 .5 .2 .4 -.5c.1 .1 .2 0 .2 .2c0 -.3 .5 .1 .5 -.3v.1c.3 .1 .3 -.3 .6 -.2q0 .1 .1 .3c.1 .1 -.1 -.6 .2 -.1c.1 0 -.1 -.3 -.1 -.2c.6 0 .9 -.6 1.3 -.9c.5 .2 .4 .9 .5 .4c.1 0 -.1 -.2 0 -.1c0 -.2 .4 .5 .3 .2q-.1 -.3 -.1 -.3l-.1 2.7v.1c-.1 -.3 0 -.6 -.3 -.5l.1 -.1c-.4 .3 -.5 0 -.9 .4c-1.1 -.4 -2.2 -.7 -3.2 -1.2c-.9 -.6 -2 -.9 -2.8 -1.7q0 -.6 -.3 -.5q0 -.1 .1 -.2c-.3 .4 -.2 0 -.4 .3c-.4 -.3 -.8 -.4 -1.1 -.6c.1 0 .2 -.2 .2 -.3l-.2 .2v-.1c-.1 0 -.2 .2 -.2 .3c-1.1 -.2 -1.7 -1.4 -2.6 -1.8c-.1 -.3 -.5 -.3 -.8 -.4c-.4 -.8 -.9 -1.5 -1.7 -1.6c0 0 .5 -.9 .9 -.9Z" class="g3_63"/>
<path d="M440.8 309.8c.1 .1 .2 .2 .3 .5c-.1 -.2 -.2 -.4 -.3 -.5Z" class="g3_63"/>
<path d="M443.9 310.6c-.1 -.1 0 0 .1 .1c-.1 0 0 .2 -.1 .1c0 0 0 -.1 0 -.2Z" class="g3_63"/>
<path d="M444.5 310.4c.1 .2 0 .4 -.1 .4Z" class="g3_63"/>
<path d="M445.3 310.8c.1 .2 .2 .2 .1 .3c-.1 -.1 -.1 -.2 -.1 -.3Z" class="g3_63"/>
<path d="M445.2 310.5c0 -.1 .1 0 .2 .1c-.1 -.1 -.1 .1 -.2 -.1Z" class="g3_63"/>
<path d="M446.6 310.4c0 0 0 -.2 .1 0c-.1 -.1 0 .2 -.1 0Z" class="g3_63"/>
<path d="M447 309.9c0 0 .1 0 .1 0c0 0 0 .2 0 .2Z" class="g3_63"/>
<path d="M456.6 304.8l-.1 .1v-.2Z" class="g3_63"/>
<path d="M458.3 300.4c-.1 .1 0 -.2 0 -.2c.1 0 -.1 .2 0 .2Z" class="g3_63"/>
<path d="M455.6 299.9h.1l-.2 .3Z" class="g3_63"/>
<path d="M405.4 510.6c-.6 .7 .8 .1 -.3 .6c-.1 -.3 -.1 -.6 .3 -.6Z" class="g3_63"/>
<path d="M451.8 302.9c-3.4 1.5 -7.7 -.5 -11.4 .7c-.4 .1 .2 -1 -.8 -.8c-3.5 1.4 -9 .9 -13.4 .4l.2 -.3c-.9 -.1 -1.7 .9 -2.6 .9c0 -.2 .2 -.3 0 -.5c-.1 .6 -1.5 .5 -1.8 1c-.4 -.2 -.4 -.6 -.9 -.8l-.4 .8c-1 1.7 -3.3 .5 -5 1.8c.1 -.2 .2 -.3 .1 -.4c-2.7 1.6 -6.3 2.7 -9.1 4.5c0 -.2 -.1 -.6 -.4 -.8c.2 .7 -.7 1.3 -1.4 1.9c-.7 -.4 -1 1.3 -2 1.5v-.2c-.2 1.1 -1.2 .4 -1.2 1.4l-.7 -.1c.4 .9 -1.2 .3 -1.3 1.1l.1 .1c-.3 .6 -.8 .4 -1.1 .9h-.1c-.8 1.1 -1.6 1.3 -1 1.8c-.8 -.1 .6 -1.1 -.6 -1.2c-2.3 3.7 -4.4 7.6 -5.3 11.8c-.4 .4 -.5 .7 -.8 .8c.1 .4 -.1 1.7 .2 2.1c0 -.2 -.4 .2 -.4 .5c-.4 .7 .7 .9 .3 1.7c-.2 -.3 -.4 -.5 -.7 -.4c.6 .8 .5 1.8 .7 2.7c-.2 -.2 -.2 -.4 -.5 -.3c.7 .9 -.1 1.7 .4 2.5l-.5 -.2c-.5 1.3 .9 .3 .7 1.5c-.2 -.3 -.3 -.2 -.5 -.2c.9 1 .8 2.8 1.2 3.8c-.1 0 -.2 0 -.2 0c.3 1.2 .3 2.4 .9 3.6c-.1 .5 -1.1 .1 -.7 1.3c.9 -.3 .9 2 1.7 1c.2 1 .4 2.7 .9 3.3c-.5 -.3 -.8 .9 -1.2 0l-.3 .9c-.4 0 -.1 -.7 -.5 -.4c.2 .4 1 1.6 1 2c.9 .6 2.1 .9 2.7 2c-.5 -.4 -.7 .8 -1 .4c.8 .4 1.6 .7 2.3 1c.3 .3 -.5 .4 0 .8c.1 -.1 .4 .1 .7 .1c-.1 .2 1 1.5 .4 2.1c-.2 .4 -.5 -.5 -.6 .1c.5 .7 .7 .6 1.2 1.2l-.1 .1c.1 .6 1.1 1.2 1.2 .4c-.1 -.3 -.3 .4 -.4 -.2c.6 .1 1.2 .8 1.7 1.5c-.3 -.2 -.5 0 -.7 0c1.1 .6 2 1.4 2.9 2.2c.4 -.2 -.9 .1 -.8 -.2c.4 1.6 2.6 2.1 2.7 3.7c-.2 -.1 .4 -.5 .3 -.4c.4 .6 -.1 1 .4 1.2c-.3 .3 .5 .5 .9 .8c.3 .1 -.1 .2 -.4 -.1c.7 .4 2.9 2.3 3.5 3.9c.2 -.2 1.3 .2 1.5 .5l-.5 .3c0 .4 .8 .9 .5 1.3c1 .2 -2.4 -2.1 -1.3 -1.6c-.2 .5 1.6 .7 .9 .9c.5 .6 1.5 .8 1.5 1.7c0 -.2 -1 0 -.5 .4c.7 .8 .4 .1 1.1 .7l.5 .3c.4 -.3 .5 .8 .7 .1c-.2 .4 1.3 1.1 .5 1.5l-.6 .4c.3 .3 1 .1 1.5 .2c0 .1 0 .3 -.2 .3c.9 -.6 .7 1 1.7 .9c.3 1 1.5 2 1.3 2.8c.7 .4 1.4 .8 1.8 1.6c-.2 -.1 -.4 -.3 -.6 -.2c.1 .7 .4 .6 .8 .9c-.2 0 .2 1.3 .2 2c.7 .4 1 -.1 1.4 -.3c-.5 1.2 1.8 1.4 1.5 2.7c-.3 -.1 -1.1 -.6 -.9 .1c-.5 1.1 1.4 .7 1.6 1.9l.6 -.7c-.2 .7 1.3 1.2 .5 1.5c.5 .2 .5 1.3 1.1 .8c.4 1.9 2.8 3.7 2 5.4c.2 .2 .4 .9 .7 .5c.2 -.6 -.6 -.3 -.4 -.6c.2 .2 .4 .1 .5 .1c.1 .6 .3 1 -.6 .8c.1 1.4 1.9 .6 2.3 2.2c-.3 .1 -.4 .3 -.1 .7l.9 .5c.4 1.1 -.4 .9 -1 1.2c.4 .5 .6 1.1 1.1 1.2l-.4 .9c.3 -.7 .5 .3 .8 .5l-.3 -.2c-.2 .2 .2 .7 .4 1c.4 -.2 .2 -.9 .2 -1.3c.3 .2 .5 .7 .9 .9c-.6 .1 0 1 .1 1.5c0 .5 .7 .3 .7 .5c-.3 .1 .3 .8 -.3 .6c-.1 -.2 .1 -.5 -.2 -.7c-.1 .4 -.6 .5 0 1.1c.5 .4 1 -.6 1 .5c-.2 -.2 -.4 -.1 -.7 -.3l.1 1l.5 -.1c-.1 .2 -.2 .1 -.2 .2c.6 .1 .6 1.3 1.3 1.3c.2 .4 -.1 1.1 0 1.5c-.2 .6 .2 1.2 .7 1.6h-.1c0 .3 .3 1 .7 1.3c-.1 .8 -1.8 .8 -1 1.4c.2 .7 1.3 .9 1.5 .6c0 1.4 1.2 2.8 .7 4.3c.3 .1 .4 0 .6 .4c.2 2 1.4 4.2 .5 6c-.3 -.6 -.5 0 -.8 .1c.6 .4 -.4 .6 .4 .7c.5 -.1 .7 -.1 .9 -.7c.4 1.2 .6 3.1 .2 3.9c.2 -.4 .3 -.1 .5 .1c-.8 0 -.8 .9 -.5 1.6l.5 .1l-.5 .4c.2 .3 1 .3 .6 1c-.2 .1 -.4 .1 -.5 .2c.4 .7 1.1 1.7 .7 2.5l-.7 .7c.1 .3 .5 .9 .7 .3c-.4 1.3 -.5 2.2 -1.1 2.6c1.4 2.3 1.2 5.8 .7 8.4l-.3 -.1c-.5 .7 .5 .4 .2 .9c-.3 -.3 -.8 .4 -1.1 -.2c-.5 1 .4 1.4 .4 2.1c.5 .2 -.2 -.6 .4 -.3c.1 .1 -.6 1.3 .1 1.6c-.4 .2 -.8 -.1 -1.1 -.3l.2 .7c-.9 .6 -1.1 -2 -2.2 -1.4v.6c-.8 .4 -.5 -1.6 -1 -.2c.2 .6 1.1 1.3 1.5 .8c-.1 1.3 1.5 .9 1.2 2.3c-.5 .3 .1 -1.1 -.5 -1c-.7 .6 0 1.4 -.3 1.9c.4 -.5 1 .1 1 .6c-.5 .6 -.5 -.6 -.8 .4c.3 .2 .4 1.2 .8 .5c.8 .6 -.5 1 .1 1.7c-.7 .1 -1.2 -1.4 -1.8 -.4c.7 0 .5 1.5 1.5 1.2c-.3 .4 -.7 .3 -1 -.1c-.6 .5 .6 1.8 -.6 1.6l.6 .4c-.3 .1 -.5 .4 -.9 .6c-.2 .5 .2 1.9 -.7 1.6c.1 .2 -.3 1.4 .4 1.1c.7 -.6 -.1 -1 .8 -1.1c-.8 .3 -.2 1.1 -.1 1.6l-.4 -.1c0 .3 -.3 .9 .1 1.2c-.2 -.3 -.4 -.2 -.6 -.1l.4 .5c-.1 1.1 -1 -.1 -1.2 1l-.1 -.9c0 .2 -.6 .3 -.6 .8c.4 .4 .8 1 1.1 1.3c0 .6 -.6 0 -.3 .8l-.3 -1c-.1 -.1 -1 .2 -1.3 1c0 .5 .4 1.5 .9 .9c-.1 .3 -.6 .7 -.8 .3c-.2 .9 .5 .1 .5 1c-.4 .1 -1.3 .9 -2 1.2l-.4 -1.1l-.2 .5c-.4 -.9 -.7 .1 -1.2 -.5c-.2 .3 -.2 .8 -.1 1.2c1.5 -.5 .9 1.7 2 1.9c-.4 1.5 -2.7 -.3 -1.9 1.8c.3 -.1 .7 .9 .9 -.1c-.6 .8 .6 1.1 -.3 1.9c0 -.9 -1.3 .3 -1.3 -1.1c.2 .3 .5 -.4 .5 -.6c-.6 .1 -.9 -.6 -1.4 .3c-.1 .5 -.5 1.2 .1 1.4c.5 .2 .3 -.8 .7 -.2c-.4 1.1 -1.3 .8 -.5 1.8c.2 -.7 .9 -.6 1.2 -.4l-.2 .9l-.2 -.4c-.9 1.1 .4 .8 -.3 1.9l-1 .1c-.5 -.6 1.2 -1.5 .1 -1.8c-.5 .7 -.1 1.2 -.8 1.8c0 -.2 .1 -.5 .1 -.7c-.1 .3 -1.6 -.2 -1.4 1.3c0 .7 .2 .3 .6 .6c-.6 1.2 -.5 1.8 -.9 2.6c-.6 -.6 -.9 1.2 -1.1 0c.7 -.1 1.7 -1.9 1.3 -2.7c-1.1 0 .6 -.8 -.1 -1.6c-.5 1 -1.3 .4 -1.9 .3c-.2 .2 -.2 .6 -.2 .8c.5 .4 .7 0 1.2 .3c-.8 1 -1.1 2.1 -1 3c-.4 .2 -.9 -.2 -.7 -.7c-.6 1.4 -1.5 2.6 -2.4 3.6c1.3 -.2 -.7 1.4 .3 1.3c.6 -.4 1.5 -.6 1.6 0c-.3 .4 -.3 -.2 -.6 -.2c.1 .8 -1.2 .3 -.9 1.2c.6 -1.2 -.8 -.9 -1.2 -1.5c-.2 1 -.4 -.3 -1 .4c-.2 1 -.6 2.1 -1.1 3.1c-1.4 .6 -2.1 2.6 -2.8 3.5c-.7 .3 -1.1 -.6 -1.6 -.2c-.5 .6 1.1 .2 0 .8v-.2c-.1 .4 -1.8 1.2 -1.2 2.3l-.4 -.9c-.2 .1 -.2 .4 -.2 .6c-.3 -.2 -.6 -.2 -.6 -.6c-.9 .1 -.9 1.2 -1.4 1.7l.8 .1c-.6 1.2 -1.6 1.5 -2.4 2.5l-.3 -.4l-.4 .8c-.2 -.5 -.9 -.3 -.9 .3c.2 -.8 .3 -1.5 .5 -2.3c.6 -.1 0 .9 .6 1c.6 .1 1.3 -.8 1 -1.3c-.3 .3 -.2 .4 -.4 .8c-.6 -.4 -.1 -.9 -.2 -1.5c-.2 .2 -.5 .3 -.4 .5c0 -.6 .3 -1 .8 -1.5c-.1 .5 .6 .1 .6 .4c-.5 -.5 -.1 -1.2 .7 -1.8c1 0 .8 -1.6 1.6 -2.3c.2 .8 .3 1.5 0 2.2c.7 -.3 .5 -.6 1.2 -.9c-.1 -.5 -.6 -1.2 -.2 -2.1l.4 .3c.3 -.8 -.2 -1.2 .5 -2c1.3 -1.2 2.4 -2.6 3.2 -3.7l.4 .3c-.4 -1.2 1.2 -2.3 1.4 -3.4c1.3 -1.1 1.6 -3.3 2.8 -3.6c1.2 -2.8 2.2 -5.2 3.8 -7.9l.4 .8c-.2 -.7 .5 -.1 .6 -.7c-.7 .3 -.3 -1 -.5 -1.5c1.1 -1 1.3 -2.9 1.3 -4.2l.5 .1c-.4 -1.4 .9 -2.5 1.6 -3.9c.3 -.1 .8 -.2 .9 -.6c-.5 -1.1 -.3 -1.5 -.3 -2.8c.2 -.8 .8 -2.1 1.4 -2.9c-.1 -3.5 1.3 -6.7 1.2 -10.2l.6 -.1c-.7 -3.5 .7 -7.4 .1 -10.3l1 .3c.3 -.9 -.2 -2.1 -.9 -1.8c.3 -.9 -.5 -2.3 .3 -2.8c.1 -1 -.5 -1.1 -.7 -1.9c.3 -1.8 .1 -2.5 -.2 -4.2l-.1 .4c.3 .2 .7 .2 .7 -.2c-.3 -.7 0 -2.4 -1.1 -1.6c.4 -2 -1.2 -4.2 -.7 -6.1c-.2 .2 -.4 -.2 -.6 -.3c-.4 -1.6 -.2 -3.3 -1 -4.5c.1 -.3 .6 .2 .5 -.4c-.3 -.3 -.4 .1 -.7 -.3c-1.3 -2.3 -1 -5.2 -2 -7.4c-2.1 -3.7 -3.7 -7.8 -5.7 -11.2l.2 -.1c-1.5 -.7 -.8 -3.2 -2.6 -3.5c.1 -.3 -.5 -1 0 -1.1c-1.1 -.6 -1.2 -2.9 -2.8 -3.7c.1 .1 .2 .2 .4 .2c-.5 -1.6 -1.9 -2.3 -2.6 -3.9c.2 0 .5 .3 .7 .2c0 -.8 -1.7 -.7 -1 -1.7c-.3 -.3 -.7 .2 -.5 .3c-1.9 -3.2 -5 -5.9 -7.7 -8.8c-1.2 -2.6 1.4 -1.3 -.7 -2.5c.1 -.3 -.4 .2 -.2 0c-.8 -.5 .1 -1.9 -.7 -2c-.4 .7 -.6 0 -.9 .2c-.8 -1.6 -.5 -2.3 -1.8 -3.1l.4 -.1c-1.8 -.7 -2.5 -2.5 -4.3 -3c-2.7 -3.6 -5.4 -7.4 -7.6 -11.5c-2.2 -4.1 -3.9 -8.6 -4.8 -13.2c-.4 -2.3 -.6 -4.7 -.8 -7c0 -1.1 -.1 -2.3 -.1 -3.4c0 -1.2 0 -2.3 .1 -3.5c.2 -2.5 .6 -4.9 1.4 -7.4c.7 -2.4 1.9 -4.7 3.4 -6.9c1 -.7 1.6 -1.1 2 -1.6c.5 -.5 .8 -1.1 1.5 -2.2c.1 .2 0 .4 .2 .3c-.5 -.6 1.2 -1.4 .8 -2c2.8 -2.5 5.5 -4.6 8.7 -6.3c-.4 .3 -.4 1 .2 .6l.4 -.7l.2 .1c.4 -.3 .7 -.9 .1 -.9c4.1 -2.3 8.5 -3.5 12.8 -4.2c4.3 -.7 8.5 -1 12.7 -1.4c2 .1 4.8 -.3 7 -.6c3.2 .5 6.2 1 9.2 1.4c3.1 .3 6 .6 9.4 .6c-.1 0 -1.2 1.9 -3.8 2.1Z" class="g3_63"/>
<path d="M406.2 509.7c.5 .1 1.1 -.2 1.1 .6c-.3 -.2 -.9 -.3 -1.1 -.6Z" class="g3_63"/>
<path d="M421.9 497.7c-.1 -.1 .3 -.1 .3 -.1c-.1 .2 .1 .6 -.2 .6c.1 -.2 -.1 -.3 -.1 -.5Z" class="g3_63"/>
<path d="M424.9 493.7c.2 .3 -.1 1.3 -.4 1.9Z" class="g3_63"/>
<path d="M428.6 490.4c.5 -.2 .6 0 .3 .5c-.2 -.1 -.2 -.3 -.3 -.5Z" class="g3_63"/>
<path d="M428.1 489.8c.2 -.4 .5 -.5 .7 -.5c-.2 -.2 -.3 .9 -.7 .5Z" class="g3_63"/>
<path d="M433.8 481.1c0 -.3 0 -.9 .5 -.9c-.4 .1 -.1 1.2 -.5 .9Z" class="g3_63"/>
<path d="M435.2 476.4c.1 -.1 .2 -.2 .1 -.4c.3 -.2 .4 .2 .4 .5Z" class="g3_63"/>
<path d="M424.6 393.3l.4 .4l-.3 .1Z" class="g3_63"/>
<path d="M402.3 364.1c-.4 -.3 .1 -.5 .1 -.6c.3 .4 -.4 .1 -.1 .6Z" class="g3_63"/>
<path d="M392.8 347.4v.1l-.7 .1Z" class="g3_63"/>
<path d="M410.9 513.8c-1 2.8 -4.1 4.3 -6.9 3.3c-2.9 -1 -4.4 -4.1 -3.4 -6.9c1 -2.9 4.1 -4.4 7 -3.4c2.8 1 4.3 4.1 3.3 7Z" class="g1_63"/>
<path d="M410.9 513.8c-1 2.8 -4.1 4.3 -6.9 3.3c-2.9 -1 -4.4 -4.1 -3.4 -6.9c1 -2.9 4.1 -4.4 7 -3.4c2.8 1 4.3 4.1 3.3 7Z" class="g4_63"/>
<path d="M394 328.3c0 3 -2.4 5.5 -5.4 5.5c-3.1 0 -5.5 -2.5 -5.5 -5.5c0 -3 2.4 -5.4 5.5 -5.4c3 0 5.4 2.4 5.4 5.4Z" class="g1_63"/>
<path d="M394 328.3c0 3 -2.4 5.5 -5.4 5.5c-3.1 0 -5.5 -2.5 -5.5 -5.5c0 -3 2.4 -5.4 5.5 -5.4c3 0 5.4 2.4 5.4 5.4Z" class="g4_63"/>
</svg>