<?xml version="1.0" encoding="UTF-8" standalone="no"?>
<!DOCTYPE svg PUBLIC "-//W3C//DTD SVG 1.1//EN"
"http://www.w3.org/Graphics/SVG/1.1/DTD/svg11.dtd">
<svg viewBox="0 0 660 990" version="1.1" xmlns="http://www.w3.org/2000/svg" xmlns:xlink="http://www.w3.org/1999/xlink">
<defs>
<style type="text/css"><![CDATA[
.g0_115{
fill: none;
stroke: #949698;
stroke-width: 0.763;
}
.g1_115{
fill: #FFF;
}
.g2_115{
fill: none;
stroke: #231F20;
stroke-width: 2.681;
}
.g3_115{
fill: #231F20;
}
.g4_115{
fill: none;
stroke: #231F20;
stroke-width: 1.787;
}
]]></style>
</defs>
<path d="M318.5 969.1h23" class="g0_115"/>
<path d="M312.3 716.8H542.9V879.3H312.3V716.8Z" class="g1_115"/>
<path d="M312.3 716.8H542.9V879.3H312.3Zm115.3 0V879.3" class="g2_115"/>
<path d="M516.2 667.3H335.6V471.9H516.2V667.3Z" class="g1_115"/>
<path d="M516.2 667.3H335.6V471.9H516.2ZM335.6 569.6H516.1" class="g2_115"/>
<path d="M388.2 520.8c1.2 -.4 -.8 -.4 .7 -.4c-.1 .3 -.3 .5 -.7 .4Z" class="g3_115"/>
<path d="M334.3 766.1c-2.1 0 -4.2 -1.1 -6.3 -2.3c-2 -1.2 -4 -2.6 -6.1 -3.4c-.5 -.2 .6 -.6 -.5 -1.1c-2.1 -.6 -4.4 -2.1 -6.5 -4c-2.2 -1.9 -4.1 -4.2 -5.7 -6.3h.4c-.6 -.8 -2 -1 -2.7 -1.8c.2 -.1 .4 .1 .4 -.3c-.5 .2 -1.5 -1.1 -2 -1.2c-.2 -.4 .1 -.7 -.1 -1.2h-.8c-2.1 -.3 -2.6 -3 -4.6 -4.3c.1 0 .4 .1 .4 -.1c-3 -2.2 -5.7 -6 -8.2 -9.2c.3 0 .6 -.1 .7 -.4c-.6 .2 -1.4 -.8 -2.1 -1.6c.2 -.8 -1.5 -1.3 -1.9 -2.6h.2c-1.1 -.5 -.4 -1.4 -1.5 -1.6l.1 -.8c-.9 .1 -.2 -1.4 -1 -1.9l-.2 .1c-.5 -.5 -.3 -1.1 -.7 -1.6v-.1c-.9 -1.3 -.9 -2.4 -1.5 -2.1c.2 -.7 .9 1.3 1.2 .2c-3 -4.4 -5.1 -9.5 -6.9 -14.5c.1 -.6 0 -1 .2 -1.2c-.3 -.5 -.7 -1.9 -1.2 -2.2c.1 .1 .2 -.5 .2 -.7c-.1 -1 -1.1 -.8 -1.1 -1.9c.3 .3 .5 .4 .7 .2c-.7 -.7 -1 -1.9 -1.5 -2.9c.2 .2 .3 .4 .5 .3c-.9 -1 -.5 -2.1 -1.1 -3l.5 .3c0 -1.7 -.9 -.3 -1 -1.7c.2 .3 .3 .1 .5 .1c-1.1 -1.1 -1.4 -3.2 -1.9 -4.4c.1 0 .2 0 .2 0c-.4 -1.4 -.5 -2.9 -1.1 -4.4c0 -.6 .9 0 .5 -1.5c-.8 .2 -.8 -2.5 -1.5 -1.5c-.1 -1.3 -.2 -3.4 -.6 -4.2c.4 .5 .9 -.8 1.1 .3l.4 -.9c.3 .1 0 .9 .4 .5c-.1 -.5 -.7 -2 -.6 -2.5c-.6 -.9 -1.7 -1.7 -2 -3.3c.4 .7 .9 -.6 1 -.1l-1.7 -2.1c-.1 -.5 .6 -.2 .3 -.9c-.2 0 -.4 -.3 -.6 -.5c.1 -.2 -.4 -2.3 .4 -2.6c.3 -.2 .2 .9 .4 .3c0 -1 -.3 -1 -.4 -2l.1 -.1c.1 -.6 -.5 -1.9 -.9 -1.1c0 .4 .5 -.2 .3 .5c-.5 -.5 -.7 -1.6 -.8 -2.6c.2 .3 .4 .2 .6 .4c-.7 -1.4 -.9 -2.8 -1.3 -4.3c-.3 0 .7 .5 .6 .8c.4 -2 -.9 -4 -.2 -5.6c.1 .2 -.5 .1 -.4 .1c0 -.9 .5 -.9 .3 -1.5c.3 -.1 -.1 -.8 -.2 -1.4c-.2 -.4 .2 -.2 .2 .4c-.3 -.9 -.7 -4.5 -.2 -6.5c-.2 .1 -.7 -1.3 -.6 -1.7l.4 .2c.4 -.4 .1 -1.6 .5 -1.6c-.5 -1.1 .3 3.8 -.1 2.5c.4 -.4 -.7 -2 0 -1.6c0 -1 -.5 -1.9 .1 -2.8c-.1 .3 .6 .8 .6 .1c0 -1.4 -.2 -.4 -.3 -1.5l-.1 -.7c-.5 -.1 .2 -1.2 -.4 -.8c.4 -.1 0 -1.9 .7 -1.7l.6 .2c0 -.5 -.5 -1 -.7 -1.4c0 -.1 .2 -.3 .3 -.2c-1 -.2 .2 -1.4 -.4 -2.2c.5 -1.1 .5 -3 1.2 -3.5c-.2 -.9 -.3 -1.8 .1 -2.9c0 .3 0 .6 .2 .7c.4 -.6 .2 -.9 .1 -1.5c.1 .2 .8 -1.2 1.3 -1.8c0 -1 -.6 -.8 -.9 -1c1.1 -.6 0 -2.7 1.1 -3.5c0 .4 .1 1.4 .5 .8c1.2 -.6 -.2 -1.9 .6 -3.1l-.8 .1c.6 -.4 .1 -2 .8 -1.7c-.1 -.5 .7 -1.4 0 -1.5c1.2 -2 1.3 -5.4 3.1 -6.2c0 -.3 .4 -1 0 -1c-.6 .3 0 .8 -.3 .9c.1 -.3 -.1 -.4 -.2 -.5c.4 -.6 .7 -1.1 1 -.2c1 -1.3 -.6 -2 .4 -3.7c.3 .2 .5 .1 .6 -.5v-1.2c.6 -1.1 .9 -.4 1.4 -.2c.2 -.6 .6 -1.4 .4 -1.8l1 -.5c-.7 .3 -.1 -.6 -.1 -1v.4c.3 0 .5 -.8 .6 -1.2c-.3 -.1 -.8 .6 -1.1 1c0 -.5 .2 -.9 .2 -1.5c.4 .4 .8 -.8 1.1 -1.3c.4 -.5 0 -.8 .1 -.9c.2 .1 .5 -.9 .6 -.3c0 .2 -.5 .3 -.4 .7c.3 -.3 .7 0 .8 -.9c.1 -.7 -.9 -.4 -.1 -1.3c0 .4 .1 .5 .2 .8l.8 -.8L282 587c.2 -.1 .2 0 .2 0c-.2 -.5 .8 -1.6 .4 -2.1c.3 -.5 .9 -.9 1.3 -1.3l-.1 .1c.6 -.4 .9 -1.3 1 -1.9h.1c.2 -.2 .6 -1 .6 -1.6c.8 -.5 1.7 .8 1.8 -.4c.5 -.8 .1 -1.7 -.4 -1.6c1.2 -1.2 1.7 -3.2 3.3 -4c0 -.3 -.2 -.3 0 -.8c1.6 -1.8 2.8 -4.5 4.8 -5.4c-.3 .7 .4 .4 .6 .6c0 -.8 .8 -.3 .4 -.9c-.4 -.3 -.5 -.5 -1.1 0c.8 -1.3 2.3 -3 3.2 -3.3c-.4 .1 -.3 -.2 -.2 -.5c.4 .5 1.3 -.2 1.7 -1l-.3 -.3l.7 -.1c.1 -.3 -.4 -.9 .5 -1.2c.2 .1 .3 .2 .5 .2c.4 -.9 .8 -2.2 1.7 -2.5l1 -.1c.3 -.4 .5 -1.1 -.1 -.7c1.4 -.8 2.2 -1.5 2.9 -1.4c1.1 -2.8 4.2 -5.5 6.8 -7.3l.1 .3c.8 -.3 0 -.7 .6 -.9c0 .4 .9 .1 .6 .8c1.2 -.5 .9 -1.4 1.5 -2c-.2 -.4 -.4 .6 -.6 .1c.1 -.2 1.6 -.7 1.4 -1.4c.4 .1 .4 .6 .5 .9l.4 -.7c1.1 0 -.9 2.3 .4 2.4l.5 -.5c.9 .2 -1 1.7 .5 .9c.4 -.7 .4 -1.8 -.3 -1.6c1.1 -1.1 -.3 -1.7 1.1 -2.6c.6 0 -1.1 .8 -.5 1.1c.9 -.1 1.1 -1.2 1.8 -1.4c-.8 .2 -.6 -.7 -.2 -1c.8 -.3 -.2 .8 .9 .1c-.1 -.4 .7 -1.2 -.2 -.9c-.1 -.9 1.1 -.5 1.3 -1.4c.7 .3 -.3 1.8 1 1.3c-.5 -.3 1 -1.5 -.1 -1.8c.6 -.2 .8 .2 .7 .7c.8 -.1 1 -1.8 1.8 -1l-.1 -.7c.3 .1 .6 0 1.1 .1c.6 -.4 1.4 -1.8 1.8 -1c.2 -.2 1.5 -.9 .7 -1.1c-1 .1 -.7 .9 -1.6 .5c.9 .2 1.1 -.8 1.5 -1.3l.2 .3c.2 -.3 .9 -.6 .9 -1c-.1 .3 .1 .4 .4 .4v-.7c1 -.8 .7 .7 1.7 -.1l-.6 .8c.1 -.2 .7 0 1.2 -.4c0 -.5 .1 -1.2 .1 -1.6c.5 -.5 .5 .3 .9 -.5l-.5 1c-.1 .2 .9 .3 1.7 -.1c.5 -.5 1 -1.5 0 -1.3c.4 -.2 1.2 -.2 1 .2c.9 -.6 -.4 -.3 .3 -1c.5 .1 1.8 -.1 2.6 0l-.5 1.1l.6 -.3c-.5 .9 .5 .2 .4 1c.5 -.1 .8 -.5 1.1 -.9c-1.6 -.3 .7 -1.9 -.1 -2.6c1.5 -1 2 1.6 3 -.5c-.3 -.1 .1 -1.1 -.7 -.4c1 -.4 .2 -1.2 1.6 -1.4c-.7 .8 1.3 .5 .3 1.6c-.1 -.4 -.8 .1 -1 .2c.6 .2 .4 .9 1.4 .5c.6 -.4 1.4 -.8 1.1 -1.2c-.3 -.5 -1 .5 -.8 -.2c1.2 -.7 1.7 -.1 1.8 -1.2c-.7 .4 -1.1 0 -1.3 -.3l.8 -.6v.4c1.6 -.4 .2 -.8 1.7 -1.4l.9 .4c-.1 .7 -2.2 .7 -1.5 1.5c.9 -.4 1 -1 2 -1.2c-.2 .2 -.4 .3 -.6 .5c.4 -.1 1.2 1 2.3 -.3c.5 -.6 0 -.4 -.1 -.8c1.4 -.7 1.7 -1.2 2.7 -1.7c.1 .8 1.7 -.6 .9 .5c-.6 -.2 -2.8 .8 -3 1.6c.8 .6 -1.3 .4 -1.2 1.3c1.2 -.4 1.4 .4 1.8 .8c.4 -.1 .6 -.5 .8 -.6c-.1 -.6 -.5 -.4 -.7 -.9c1.3 -.4 2.5 -1.2 3.1 -1.9c.5 0 .6 .6 .1 .8c1.5 -.7 3.2 -1.3 4.8 -1.7c-1.2 -.5 1.7 -.8 .8 -1.3c-.9 .1 -1.8 -.2 -1.5 -.7c.5 -.1 .1 .4 .4 .5c.5 -.7 1.2 .3 1.6 -.6c-1.4 .8 .1 1.1 .1 1.8c.9 -.8 .1 .4 1.1 .1c1 -.7 2.2 -1.5 3.3 -2c1.7 .1 3.8 -1.2 5.2 -1.6c.8 .1 .5 1 1.3 .9c.9 -.3 -.9 -.6 .5 -.7v.2c.3 -.3 2.5 -.2 2.6 -1.4l-.2 .9c.3 0 .5 -.2 .7 -.3c.1 .2 .4 .4 .1 .7c.9 .3 1.6 -.6 2.5 -.8l-.7 -.4c1.5 -.7 2.6 -.5 4.1 -1l.1 .4l.8 -.4c-.1 .5 .7 .6 1.1 .1l-2 1.6c-.7 -.1 .6 -.7 0 -1c-.4 -.4 -1.7 .1 -1.9 .6c.6 -.1 .6 -.2 1 -.5c.3 .6 -.5 .8 -.8 1.3c.3 -.1 .7 0 .7 -.2c-.5 .5 -1 .7 -1.9 .9c.6 -.4 -.4 -.3 -.2 -.6c0 .6 -.8 1 -1.9 1.2c-1 -.5 -1.9 .9 -3.3 1.1c.4 -.7 .9 -1.3 1.6 -1.8c-.8 -.1 -.9 .3 -1.7 .2c-.3 .6 -.4 1.3 -1.4 1.8l-.1 -.4c-.9 .5 -.7 1.2 -2 1.4c-2.1 .4 -4.1 1.1 -5.7 1.6l-.2 -.4c-.6 1.2 -2.7 1.3 -3.7 2.2c-2.1 .3 -4.1 1.9 -5.4 1.6c-3.2 1.7 -6 3.3 -9.5 4.8l.3 -.9c-.4 .7 -.6 -.1 -1.1 .2c.9 .2 -.6 1 -.8 1.6c-1.8 .3 -3.5 1.7 -4.6 2.8l-.3 -.4c-.9 1.5 -2.8 1.7 -4.5 2.5c-.3 -.1 -.8 -.3 -1.3 .1c-.5 1.1 -1 1.3 -2.1 2.4c-.9 .6 -2.5 1.4 -3.6 1.7c-2.9 3 -6.7 4.8 -9.7 7.9l-.6 -.3c-2.6 3.4 -7.1 5.8 -9.3 8.6l-.3 -.9c-1 .6 -1.7 1.9 -1.1 2.2c-1 .5 -1.7 2.2 -2.7 2.1c-.9 .7 -.6 1.3 -1.2 2c-1.8 1.4 -2.3 2.1 -3.6 3.8l.4 -.4c0 -.3 -.3 -.5 -.7 -.2c-.3 .8 -2 2.1 -.7 2.1c-2 1.4 -3 4.4 -4.9 5.6c.3 0 0 .5 0 .8c-1.1 1.6 -2.8 3 -3.3 4.5c-.2 .2 -.1 -.6 -.6 0c-.1 .5 .4 .2 .2 .8c-1.3 2.9 -3.9 5.2 -5.2 7.8c-1.9 4.8 -4.3 9.6 -5.9 14.3l-.2 -.1c.2 1.8 -2 3.4 -1.2 5c-.3 .3 -.6 1.4 -.9 1c.2 1.4 -1.5 3.4 -1.2 5.5c0 -.2 0 -.3 0 -.5c-.9 1.7 -.7 3.5 -1.5 5.5c0 -.3 0 -.7 -.2 -.8c-.6 .8 .5 2 -.6 2.3c0 .4 .5 .4 .5 .1c-1.2 4.4 -1.1 9.2 -1.2 13.8c-.7 3.3 -1.7 .1 -1 2.8c-.3 .2 .3 .2 .1 .2c.3 1 -1.2 1.6 -.7 2.3c.7 -.3 .4 .5 .8 .5c-.5 2.1 -1 2.5 -.5 4.1l-.4 -.1c.5 .9 .6 1.9 .8 2.9c.1 1 .3 2 .9 2.8c.6 10.4 2.3 20.3 4.5 30.2c1.9 9.8 5.3 19 9 28.3c.2 2.5 .3 2.7 1.8 4.9c-.2 -.1 -.3 -.2 -.3 0c.6 -.2 .9 1.6 1.6 1.5c1.6 3.4 3.5 6.2 5.6 9.4c-.4 -.4 -1 -.4 -.6 .2l.8 .4l-.1 .2c.4 .4 1 .6 .9 0c2.9 3.8 5.6 7.7 8.6 11.4c2.9 3.7 6.1 7.2 9.8 10.1c1.5 1.7 4.1 3.5 6.2 4.8c2.6 2.4 5.3 4.6 8.2 6.5c1.5 .9 3 1.8 4.6 2.5c.7 .4 1.6 .7 2.4 1c.8 .3 1.7 .6 2.4 .8c.1 0 -1.4 1.5 -4.4 .6Z" class="g3_115"/>
<path d="M386.8 521.1c-.4 -.2 -1.3 -.3 -.7 -.9c.2 .3 .7 .6 .7 .9Z" class="g3_115"/>
<path d="M363.4 524c0 .1 -.3 0 -.4 -.1c.2 -.1 .4 -.4 .7 -.3c-.3 .1 -.2 .2 -.3 .4Z" class="g3_115"/>
<path d="M357.7 525.9c0 -.3 1.1 -1 1.8 -1.3Z" class="g3_115"/>
<path d="M352 526.8c-.5 -.1 -.5 -.3 .1 -.5c.2 .1 0 .3 -.1 .5Z" class="g3_115"/>
<path d="M351.9 527.6c-.4 .2 -.7 .1 -1 0c.2 .3 1 -.6 1 0Z" class="g3_115"/>
<path d="M340.4 531.9c-.2 .1 -.7 .6 -1.1 .4c.4 .1 1.1 -1 1.1 -.4Z" class="g3_115"/>
<path d="M335.6 534.9c-.2 .1 -.3 .1 -.4 .2c-.4 .1 -.2 -.3 .1 -.5Z" class="g3_115"/>
<path d="M271.4 612.8v-.7l.3 .2Z" class="g3_115"/>
<path d="M267.5 657.6c.2 .6 -.3 .5 -.3 .6c-.1 -.6 .4 .1 .3 -.6Z" class="g3_115"/>
<path d="M272 681.4l-.1 -.2h.7Z" class="g3_115"/>
<path d="M375.6 526.2c0 .2 .2 .2 0 .2c0 -.1 0 -.2 0 -.2Z" class="g3_115"/>
<path d="M378.4 513.3c.7 -.6 .8 .4 1.4 .1c.1 0 -.2 .4 0 .3c.6 -.4 1 .2 1.3 .8l-.1 .1c.1 .2 .3 -.2 .4 -.1c0 .1 -.1 .1 -.1 .2c.1 -.2 .2 0 .3 -.2c0 .1 -.1 .3 -.1 .4l.2 -.2c.4 -.6 .3 .2 .7 -.1q-.1 .1 -.1 .2c.5 -.2 .8 0 1.3 0c-.1 .1 -.2 .3 -.2 .4c.1 -.3 .3 -.3 .4 -.3c-.1 .3 .3 -.2 .3 0c.2 -.2 0 .3 .3 -.1l-.1 .3c.2 -.4 0 .2 .2 .1v-.1c.1 -.1 .1 .1 .2 .1c.1 0 .1 .2 .3 -.1c-.1 .3 -.2 .1 -.3 .5c.6 -.1 1.1 .1 1.5 .3q0 .2 0 .3c.1 0 .2 .1 .3 -.1c0 0 0 .2 0 .2c0 .2 .2 -.3 .3 -.1c-.1 .1 -.2 .2 -.2 .3c.2 -.2 .3 -.2 .4 -.2c0 .1 -.1 .1 -.1 .2c.2 -.3 .1 .1 .3 0l-.1 .1c.1 .3 .2 -.3 .3 -.1c-.1 0 -.1 .1 -.1 .2c.2 -.3 .4 -.1 .5 -.2c0 0 0 .1 0 .1c.1 0 .2 .1 .4 .1c0 .1 -.2 .4 0 .4c.1 -.4 .3 -.1 .4 -.5c.1 .1 .2 .3 .3 .2c-.1 .1 -.1 .5 -.2 .5v.2c-.1 .2 -.1 -.1 -.2 .1c.1 .1 .3 0 .3 0c.2 -.1 .5 -.5 .6 -.5c-.1 .1 -.1 .4 -.2 .4l.5 -.6c.1 0 -.1 .3 0 .3c0 -.1 .1 -.2 .2 -.3c0 .1 .2 0 .1 .4c-.1 .2 -.1 0 -.1 .2c0 0 .1 -.1 .2 -.1v.1c0 .1 .2 -.1 .2 -.3c0 0 0 .2 -.1 .1c.2 -.2 .3 -.2 .4 -.2c-.1 0 -.1 .1 -.2 .2c.3 -.2 .4 -.2 .6 -.3c.1 -.2 -.2 .3 -.1 .2c0 .3 .5 -.2 .4 .2c0 0 .1 -.2 .1 -.2c.1 .1 0 .3 .1 .3c-.1 .1 .1 -.1 .1 -.1c.1 -.1 0 .1 0 .1c.1 -.1 .3 -.1 .4 -.1l2.2 .9l-2.1 1.2c0 0 -.1 0 -.2 0c0 .1 .1 .4 0 .4l-.1 -.3c-.1 -.1 -.1 .1 -.2 0c.1 .3 .2 -.4 .2 -.2c-.1 -.1 0 .5 -.1 .1c-.1 .1 0 .4 -.2 .2c0 0 -.1 -.3 -.2 -.3c-.1 .1 .1 .1 0 .3v.1c.1 .2 -.1 0 0 .2c-.1 -.1 -.1 .2 -.2 -.1l-.2 -.3c0 0 .1 .3 .1 .5q0 -.1 0 -.2c.2 .5 -.2 .1 -.1 .4c-.1 -.1 -.2 .1 -.4 -.1c0 .2 0 .4 -.1 .3c-.1 0 0 -.1 -.1 -.2c-.1 0 -.1 .1 -.1 .2c0 -.1 -.2 -.2 -.4 -.3c0 .1 .2 .3 .3 .5c-.3 -.4 -.1 .4 -.4 0c0 0 0 -.2 -.1 -.3c-.3 -.4 0 .4 -.2 .2l.2 .4c-.2 -.2 -.1 .3 -.3 -.1c.1 .2 -.1 0 0 .3c-.3 -.2 -.3 .4 -.8 -.1c.1 0 0 0 .1 .2c.1 .1 0 -.2 0 -.1c0 0 .1 .1 .1 .2c-.1 -.1 -.2 -.1 -.3 -.4c-.2 -.1 .2 .7 0 .6c-.1 -.1 -.1 -.2 -.2 -.1l.1 .3c-.2 0 -.3 -.3 -.4 -.5c0 0 -.1 .1 0 .2l-.3 -.2c.2 .2 .1 .2 .1 .2c-.1 -.1 -.1 0 -.1 0c0 .1 .1 .2 .2 .2q0 .1 0 .3c-.1 -.3 -.2 -.2 -.2 -.2c-.1 0 0 .3 0 .3c-.1 -.1 -.1 0 -.2 -.2c0 0 .1 .1 .1 0c-.1 -.1 -.2 -.3 -.2 -.1c0 .1 .3 .4 .1 .3c0 0 0 -.1 -.1 -.2l-.1 -.1l.1 .2c0 0 -.1 0 -.1 -.1c.1 .3 -.1 .2 0 .4c0 .1 -.1 0 -.2 0v-.1c-.1 -.1 -.2 .1 -.1 .2h-.1v.2c-.2 -.1 -.5 -.8 -.4 -.5c-.1 .1 .1 .5 .2 .6c-.2 -.1 -.2 .3 -.5 .1q0 .1 0 .2c-.2 0 -.3 .5 -.7 .2c.1 -.2 -.1 -.3 -.1 -.4c0 .2 -.2 -.1 0 .2c.1 .2 .1 .3 .2 .3c-.1 .2 -.2 .3 -.4 .1c.1 .1 .1 .2 .1 .3c-.2 -.4 -.3 -.3 -.3 -.2l.1 .2l-.2 -.2c.1 .1 .2 .4 .1 .3c-.1 -.1 -.1 -.2 -.2 -.2c0 .2 .1 .5 -.1 .4l-.2 -.3c0 .1 0 .3 .1 .3c-.2 -.1 -.3 0 -.4 -.3c0 .7 -.3 .9 -.6 1v-.1c-.2 -.1 .1 .2 0 .2c-.1 -.2 -.3 -.3 -.3 -.5c-.2 -.1 0 .3 0 .4c.1 .2 0 -.1 .1 .1c0 .1 -.2 0 -.1 .2c-.1 -.1 -.2 -.3 -.2 -.4v.2c-.3 -.3 -.1 -.7 -.4 -1h-.1c-.2 -.2 0 -.4 -.2 -.4c0 .2 .2 .6 .3 .7c-.1 .1 .3 .7 .1 .7c-.1 -.1 .1 -.1 0 -.3c-.2 -.2 -.1 .2 -.2 .2c.1 0 .2 .3 .2 .4c-.1 -.1 -.1 -.3 -.2 -.2c.1 .1 0 .3 .2 .4c.1 .3 -.2 -.1 -.1 .2c-.1 -.2 -.2 -.6 -.4 -.7c.2 .3 .1 .4 .3 .8c-.1 -.1 -.2 -.3 -.2 -.4c-.1 -.2 .1 .5 -.2 0l.1 .3l-.2 -.3c-.1 0 0 .5 -.2 .1c0 0 -.1 .1 .1 .3c.1 .1 -.1 -.2 .2 .1c-.2 -.3 -.1 .1 -.1 .2l-.1 -.1c0 0 -.1 0 0 .2c0 -.1 -.1 -.2 -.1 -.2l.1 .2c-.1 .2 -.3 -.3 -.3 -.2l-.1 -.2c0 0 -.1 -.2 -.1 -.1l.2 .7c0 .1 -.1 -.3 -.1 0v-.3c0 -.1 -.2 -.3 -.3 -.3c0 .1 0 .5 .2 .5c-.1 .1 -.2 0 -.2 -.2c-.1 .1 .1 .2 .1 .4c-.1 -.1 -.3 -.3 -.5 -.4l-.1 -.4c-.1 -.3 -.2 -.2 -.3 -.5c0 0 0 .1 0 .2c.3 .4 .2 .7 .4 1.1c-.1 .2 -.6 -1 -.4 -.2c.1 .1 .2 .4 .2 .2c-.1 0 .2 .5 0 .4c0 -.2 -.3 -.4 -.4 -.7c.1 .1 .2 .1 .2 0c-.2 -.1 -.3 -.4 -.4 -.4c0 .1 -.1 .2 .1 .4c.1 .2 0 -.1 .1 .2c0 .1 -.3 -.3 -.1 .2c.1 -.1 .2 .2 .3 .3v.2l-.1 -.2c-.2 0 .1 .3 0 .3l-.2 -.2c-.2 -.3 .2 0 -.1 -.5c0 .1 0 .3 -.1 .2v-.1c0 0 -.4 -.5 -.3 -.1c0 .1 .1 .1 .2 .3c-.2 .1 -.1 .3 -.2 .4c-.1 -.4 -.2 0 -.2 -.4c.1 .2 .3 .1 .2 -.2c-.3 -.4 .1 0 -.1 -.5c-.1 .1 -.3 -.3 -.4 -.5c-.1 0 0 .1 0 .1q.1 .3 .3 .5c-.2 0 -.2 .2 -.2 .5c-.1 -.1 -.2 -.4 -.2 -.4c-.1 .1 -.2 .2 -.4 .2c.3 .3 -.1 .1 .1 .4c.1 .1 .3 .3 .4 .5c-.1 0 -.1 -.2 -.2 -.2c.1 .2 -.2 -.3 -.1 0c0 -.2 -.2 -.4 -.4 -.8c0 .3 -.1 -.2 -.2 -.1c0 .2 0 .4 -.1 .5c-.3 -.2 -.3 .2 -.5 .3c-.1 -.2 -.2 -.5 -.3 -.5c-.1 0 .2 .3 0 .2v-.1c0 .1 -.3 -.1 -.1 .4l-.2 -.4c0 0 0 .1 0 .1c0 -.1 -.1 -.2 -.1 -.3c-.2 -.2 -.2 .2 -.2 .2l.1 .2c0 .2 -.2 .1 -.3 .2l-.1 -.2v.2c-.1 -.2 -.3 -.3 -.2 -.1l-.1 -.7c.1 .1 .1 .3 .2 .5c.2 .2 .3 .1 .2 -.2c-.1 0 -.1 .1 -.1 .2q-.1 -.3 -.1 -.5c0 0 -.1 -.1 -.1 0q0 -.2 .1 -.3c0 .2 .1 .2 .1 .3c-.1 -.3 0 -.4 .1 -.4c.2 .3 .1 -.2 .2 -.2c.1 .3 .2 .5 .2 .6c.1 .1 0 0 .2 .1c-.1 -.2 -.2 -.5 -.2 -.7l.1 .2c0 -.1 -.1 -.4 0 -.4c.3 0 .4 -.1 .6 -.2l.1 .2c-.1 -.4 .2 -.3 .2 -.5c.3 .1 .3 -.4 .5 -.1c.3 -.3 .5 -.6 .8 -.7l.1 .3c0 -.3 .1 .1 .2 0c-.2 -.1 -.1 -.3 -.1 -.5c.2 .2 .3 -.2 .3 -.4l.1 .2c-.1 -.5 .3 -.2 .5 -.3c0 .1 .1 .3 .2 .2c-.1 -.3 0 -.3 0 -.6c.1 0 .3 0 .4 0c.1 -.6 .6 -.5 .9 -1l.1 .2c.1 -.6 .8 -.4 1 -.8l.1 .4c.2 0 .2 -.2 0 -.5c.2 .1 .2 -.3 .4 0c.1 0 0 -.3 .1 -.4c.2 .1 .3 0 .4 -.2c0 .1 .1 .3 .2 .3c0 -.1 .3 0 -.1 -.5c.4 .2 .4 -.4 .8 -.2q-.1 -.1 -.1 -.2c.2 -.1 .5 .1 .5 -.2c.1 0 .1 .2 .1 .2c.1 -.1 0 -.2 0 -.3c.1 -.4 .7 0 .9 -.2c.3 -.5 .8 -.6 1.3 -.9v.1c0 -.4 .5 .2 .4 -.4c0 0 .1 -.1 .2 .1c0 -.3 .4 .1 .4 -.3v.1c.3 .1 .3 -.3 .6 -.2c0 .1 -.1 .1 0 .2c.2 .2 -.1 -.5 .2 0c.1 -.1 -.1 -.3 -.1 -.3c.5 0 .8 -.5 1.1 -.8c.4 .1 .4 .7 .5 .3c0 .1 -.1 -.2 -.1 -.1c.1 -.2 .4 .3 .4 .2l.1 1.9c0 0 0 .1 -.1 .1c-.1 .3 -.1 .1 -.1 .3c-.2 -.3 -.1 -.5 -.3 -.4l.1 -.1c-.4 .3 -.5 0 -.8 .4c-1 -.3 -2 -.4 -3 -.7c-.8 -.5 -1.8 -.6 -2.6 -1.3q-.1 -.5 -.4 -.4c0 -.1 .1 -.1 .1 -.1c-.2 .3 -.2 -.1 -.4 .2c-.3 -.2 -.6 -.2 -1 -.4c.1 0 .2 -.2 .1 -.2l-.1 .1v-.1c0 .1 -.2 .2 -.2 .3c-1 -.1 -1.5 -1.1 -2.4 -1.4c-.2 -.2 -.5 -.2 -.8 -.2c-.5 -.7 -.9 -1.3 -1.7 -1.3c0 0 .4 -.8 .8 -.9Z" class="g3_115"/>
<path d="M375.8 526.1c.1 .2 .2 .2 .2 .5c-.1 -.2 -.2 -.3 -.2 -.5Z" class="g3_115"/>
<path d="M378.6 526.7c-.1 0 0 0 0 .1c0 0 .1 .1 0 .1q0 -.1 0 -.2Z" class="g3_115"/>
<path d="M379.1 526.5c.1 .2 0 .3 0 .4Z" class="g3_115"/>
<path d="M379.9 526.9c.1 0 .1 .1 0 .1c0 0 0 -.1 0 -.1Z" class="g3_115"/>
<path d="M379.7 526.5c.1 0 .1 .1 .2 .1c-.1 -.1 0 .2 -.2 -.1Z" class="g3_115"/>
<path d="M381 526.4c0 0 0 -.2 .1 0c-.1 -.1 0 .2 -.1 0Z" class="g3_115"/>
<path d="M381.3 525.9q.1 0 .1 0c0 0 .1 .2 0 .2Z" class="g3_115"/>
<path d="M389.6 520.8v.1l-.1 -.1Z" class="g3_115"/>
<path d="M390.8 516.8c-.1 .1 0 -.1 0 -.1c0 0 -.1 .1 0 .1Z" class="g3_115"/>
<path d="M388.3 516.7h.1l-.2 .3Z" class="g3_115"/>
<path d="M344.8 770.4c0 2.7 -2.2 4.9 -4.9 4.9c-2.8 0 -5 -2.2 -5 -4.9c0 -2.7 2.2 -4.9 5 -4.9c2.7 0 4.9 2.2 4.9 4.9Z" class="g1_115"/>
<path d="M344.8 770.4c0 2.7 -2.2 4.9 -4.9 4.9c-2.8 0 -5 -2.2 -5 -4.9c0 -2.7 2.2 -4.9 5 -4.9c2.7 0 4.9 2.2 4.9 4.9Z" class="g4_115"/>
</svg>