<?xml version="1.0" encoding="UTF-8" standalone="no"?>
<!DOCTYPE svg PUBLIC "-//W3C//DTD SVG 1.1//EN"
"http://www.w3.org/Graphics/SVG/1.1/DTD/svg11.dtd">
<svg viewBox="0 0 660 990" version="1.1" xmlns="http://www.w3.org/2000/svg" xmlns:xlink="http://www.w3.org/1999/xlink">
<defs>
<clipPath id="c0_203"><path d="M55.9 436.8V110.1H606.6V436.8Z"/></clipPath>
<clipPath id="c1_203"><path d="M247 919.4V891H421.1v28.4Z"/></clipPath>
<clipPath id="c2_203"><path d="M87.3 665.1V505.3l62.3 -.4l101.6 .2V664.6l-163.9 .5Z"/></clipPath>
<clipPath id="c3_203"><path d="M50.3 957.3V36.4H612.2V957.3Z"/></clipPath>
<style type="text/css"><![CDATA[
.g0_203{
fill: none;
stroke: #231F20;
stroke-width: 1.527;
}
.g1_203{
fill: #231F20;
}
.g2_203{
fill: none;
stroke: #231F20;
stroke-width: 0.381;
}
.g3_203{
fill: none;
stroke: #FFF;
stroke-width: 1.909;
stroke-miterlimit: 10;
}
.g4_203{
fill: none;
stroke: #000;
stroke-width: 0.381;
stroke-miterlimit: 10;
}
]]></style>
</defs>
<image clip-path="url(#c0_203)" preserveAspectRatio="none" x="55" y="110" width="553" height="328" xlink:href="img/1.jpg"/>
<path d="M57 945.4H605.5V52.2H57Z" class="g0_203"/>
<path d="M56.2 428.5h550v43.3H56.2V428.5Z" class="g1_203"/>
<path d="M56.2 51.4h550v74.4H56.2V51.4Z" class="g1_203"/>
<path clip-path="url(#c1_203)" d="M335.1 905.6c1.5 -.7 12 -6.1 16 -14.2l-22.6 3.1c1.1 3.8 2.6 7.4 4.7 10.7c0 0 .5 1.1 1.9 .4Z" class="g1_203"/>
<path d="M330.4 906.4c-1.7 -3.7 -3.3 -7.5 -4.1 -11.6c0 0 -3.6 .7 -4.3 .9c-.6 .1 -2.4 1.1 -2 2.8c.5 1.7 3.4 13.9 3.8 14.6c.4 .8 1 2.2 3.6 2.5c2.5 .4 12.1 1.4 12.1 1.4c-2 -1.8 -4.9 -4.6 -6.3 -6.2c-.7 -.9 -2.1 -.8 -2.1 -.8c-2.2 .3 -3.4 .4 -5.5 .5l-.3 -1c1.6 -.4 3.2 -.9 4.7 -1.5c0 0 1 -.4 .4 -1.6Z" class="g1_203"/>
<path clip-path="url(#c1_203)" d="M337.6 908.7c6.4 -2.4 12.1 -6.1 16.9 -10.8l1.1 19c.1 2.2 -1.5 2.2 -2.3 2.2c-.8 0 -4.9 -.5 -6.1 -.7c-1.2 -.2 -7.2 -5.1 -10 -8.5c0 0 -.5 -.8 .4 -1.2Z" class="g1_203"/>
<path d="M254.8 902.8c2.1 0 3.8 -1.1 3.8 -3.4c0 -2 -1.2 -3.7 -3.9 -3.7h-3.3c-.1 0 -.3 .2 -.3 .3v6.6c0 .1 .1 .2 .3 .2Zm-7.4 11.9l-.1 -.2c.9 -1.5 .9 -1.2 .9 -2.2V896.4c0 -.7 0 -1.2 -.8 -2.4v-.2h7.8c4.5 0 6.4 2.7 6.4 5.4c0 2.6 -1.8 4.5 -4.1 5.1v.1l2 3.7c1.8 3.3 3.2 5.7 4.8 5.7h.2v.4c-.4 .4 -.9 .8 -1.9 .8c-2.5 0 -3.7 -2.2 -5.5 -5.6l-2.3 -4.6h-3.4c-.2 0 -.3 .1 -.3 .2v7.3c0 1 0 .7 .9 2.2v.2Z" class="g1_203"/>
<path d="M271.1 914.7h-4.3l-.1 -.2c.8 -1.4 .8 -1.6 .8 -2.4V899.5c0 -.7 0 -1 -.7 -2.3l.1 -.2H271l.1 .2c-.7 1.3 -.7 1.6 -.7 2.3v12.7c0 .8 0 .9 .7 2.3Z" class="g1_203"/>
<path d="M288.2 914.3v.1c-.6 -.2 -1 0 -1 0c-1.1 .4 -2.4 .6 -4.2 .6c-5 0 -9.4 -3.1 -9.4 -9.1c0 -5.4 4.4 -9.1 9.3 -9.1c1.1 0 2.6 .1 3.5 .4c0 0 .5 .1 1.1 -.1v.1l1.3 2.9l-.4 .3c-1.1 -1.1 -3.5 -1.8 -5.4 -1.8c-3.5 0 -6.5 2.9 -6.5 7.3c0 4.3 3 7.2 6.6 7.2c2.7 0 4.9 -.9 6.1 -2.1l.3 .3Z" class="g1_203"/>
<path d="M309.1 914.7h-4.3v-.2c.8 -1.4 .8 -1.6 .8 -2.4v-5.3h-9.7v5.3c0 .8 0 1 .7 2.4v.2h-4.3v-.2c.8 -1.4 .8 -1.6 .8 -2.4V899.5c0 -.7 0 -1 -.8 -2.3l.1 -.2h4.2v.2c-.7 1.3 -.7 1.6 -.7 2.3v5.3h9.7v-5.3c0 -.7 0 -1 -.8 -2.3l.1 -.2H309l.1 .2c-.7 1.3 -.7 1.6 -.7 2.3v12.6c0 .8 0 1 .7 2.4Z" class="g1_203"/>
<path d="M380.9 904.2c0 -5.5 -3.2 -8.5 -7.7 -8.5h-2.4c-.2 0 -.4 .2 -.4 .4v16.5l2.1 .2h.5c4.6 0 7.9 -3 7.9 -8.6m3.1 0c0 5.8 -4 10.5 -11.1 10.5h-6.2l-.1 -.2c.8 -1.5 .8 -1.7 .8 -2.5V896.3c0 -.7 0 -1 -.8 -2.3l.1 -.2h6.8c7.1 0 10.5 4.6 10.5 10.4Z" class="g1_203"/>
<path d="M388.3 908.1H394l-2.8 -6.9h-.1Zm6.5 2h-7.3l-1.5 3.5l.4 1v.1h-3.7v-.1l1.1 -1.4l6 -14.5l-.7 -1.5l.1 -.2h3.2l6.6 16.2l.8 1.4l-.1 .1h-3.9v-.1l.5 -1Z" class="g1_203"/>
<path d="M413.3 905.9c0 -4.8 -2.8 -6.9 -6.8 -6.9h-2.2c-.1 0 -.3 .1 -.3 .3v13.3l1.9 .2h.4c4.1 0 7 -2.1 7 -6.9m3 0c0 5.1 -3.6 8.8 -10.1 8.8h-5.7l-.1 -.2c.8 -1.3 .8 -1.5 .8 -2.2v-13c0 -.6 0 -.9 -.8 -2.1l.1 -.2h6.3c6.4 0 9.5 3.7 9.5 8.9Z" class="g1_203"/>
<path clip-path="url(#c1_203)" d="M418.4 912.8h.4c.3 0 .6 0 .6 -.3c0 -.3 -.3 -.4 -.5 -.4h-.5Zm-.3 -1h.9c.5 0 .7 .3 .7 .7c0 .4 -.2 .5 -.5 .6l.6 1h-.4l-.6 -1h-.4v1h-.3Zm.7 2.8c.9 0 1.6 -.7 1.6 -1.7c0 -.9 -.7 -1.6 -1.6 -1.6c-.8 0 -1.5 .7 -1.5 1.6c0 1 .7 1.7 1.5 1.7m0 -3.5c1.1 0 2 .8 2 1.8c0 1.1 -.9 2 -2 2c-1 0 -1.9 -.9 -1.9 -2c0 -1 .9 -1.8 1.9 -1.8Z" class="g1_203"/>
<image clip-path="url(#c2_203)" preserveAspectRatio="none" x="86" y="505" width="167" height="161" xlink:href="img/2.jpg"/>
<path d="M87.6 505.6V664.8l163.2 -.5V505.1l-163.2 .5Z" class="g2_203"/>
<g clip-path="url(#c3_203)">
<path d="M-7.8 5.6H-30.7m701.1 0h22.9M-7.8 992H-30.7m701.1 0h22.9M1.2 -3.5V-26.3m0 1027.4v22.8M661.2 -3.5V-26.3m0 1027.4v22.8" class="g3_203"/>
<path d="M-7.8 5.6H-30.7m701.1 0h22.9M-7.8 992H-30.7m701.1 0h22.9M1.2 -3.5V-26.3m0 1027.4v22.8M661.2 -3.5V-26.3m0 1027.4v22.8" class="g4_203"/>
</g>
</svg>