<?xml version="1.0" encoding="UTF-8" standalone="no"?>
<!DOCTYPE svg PUBLIC "-//W3C//DTD SVG 1.1//EN"
"http://www.w3.org/Graphics/SVG/1.1/DTD/svg11.dtd">
<svg viewBox="0 0 660 990" version="1.1" xmlns="http://www.w3.org/2000/svg" xmlns:xlink="http://www.w3.org/1999/xlink">
<defs>
<clipPath id="c0_231"><path d="M528.5 508.5H177.9l.4 -298.2H529l-.5 298.2Z"/></clipPath>
<style type="text/css"><![CDATA[
.g0_231{
fill: #231F20;
}
.g1_231{
fill: #808285;
}
.g2_231{
fill: none;
stroke: #949698;
stroke-width: 0.763;
}
]]></style>
</defs>
<g clip-path="url(#c0_231)">
<path d="M336.8 321.6c1.6 6.3 3.5 7.2 6.2 6.5c2.9 -.7 6.8 -4 5.1 -10.9c-1.8 -7.1 -7 -9.1 -12.1 -7.9l-2.1 .5Zm-3.7 -15l2.3 -.6c4.2 -.9 6.8 -4.3 5.4 -9.9c-1.5 -6.2 -5.8 -7 -8.4 -6.4c-1.9 .4 -2.6 .8 -2.8 1.1c-.3 .3 0 1.8 .5 3.7Zm-13.8 -5.7c-1.9 -7.6 -2.6 -7.9 -7.4 -7.3l-.7 -2.7L334 285.6c10.3 -2.3 17.1 -.8 19 6.7c1.5 6.1 -3.7 10.7 -7.8 12.1v.2c7.3 -.9 14.1 1.5 15.9 8.9c1.3 5.1 -.5 9 -3.9 12.2c-3 2.7 -7.9 4.7 -14 6.1l-21 4.8l-.7 -2.7c5 -1.6 5.4 -2.3 3.6 -9.9Z" class="g0_231"/>
<path d="M242.1 349.5c-1.7 -6.7 -2.3 -7 -6.8 -6.4l-.6 -2.4l30.8 -7.1c.3 1.1 1.8 5.5 3.3 10.1l-2.8 .9c-1.4 -2.9 -2.6 -4.5 -3.9 -5.3c-1.3 -.8 -3.5 -.7 -7 .1l-1.1 .3c-2.4 .5 -2.6 .6 -2 2.8l3 12l3.2 -.7c5.6 -1.3 5.7 -1.8 5.2 -6.6l2.8 -.7l3.7 14.7l-2.8 .7c-2.1 -5.4 -2.4 -5.7 -7.9 -4.4l-3.3 .7l2.5 10.2c.9 3.3 1.4 4.8 2.7 5.1c1.1 .2 2.6 0 4.7 -.5c2.6 -.6 5.3 -1.6 6.4 -3.5c.8 -1.3 1.3 -3.9 1.6 -7.1l2.9 -.2c.5 3.1 .7 9.8 .5 11.6l-33 7.6l-.6 -2.5c4.9 -1.5 5.3 -2 3.6 -8.8Z" class="g1_231"/>
<path d="M390 422.4c2.3 8.8 3.1 9.2 9.1 8.4l.8 3.2l-27.6 6.3l-.8 -3.2c5.7 -1.8 6.3 -2.5 4.1 -11.4l-6.8 -27c-2.2 -8.9 -3 -9.3 -9 -8.4l-.8 -3.2l27.6 -6.3l.8 3.1c-5.7 1.9 -6.3 2.6 -4.1 11.5Z" class="g0_231"/>
<path d="M271.3 462.3c2.4 3.5 8.3 9.9 15.1 8.3c3.6 -.8 5.8 -3.7 4.7 -8c-1 -3.9 -4.2 -5.6 -8.9 -6.3l-1.1 -.3c-6.4 -1.1 -13.6 -3.2 -15.4 -10.3c-1.8 -7.4 2.3 -14.9 13.2 -17.3c2.1 -.5 4.4 -.8 6.5 -.7c1.7 0 2.9 .1 3.8 .1c.9 2.5 2.2 5.7 4.1 10l-2.9 1.2c-2.6 -4.1 -6.2 -8.2 -11.7 -7c-3.5 .8 -5.3 4 -4.5 7.2c.8 3.3 3.9 4.7 8.9 5.5l1.6 .3c7.1 1.3 13.4 3.5 15.3 11.2c2 8.2 -3.3 15.7 -14 18.2c-2.8 .6 -5.7 .7 -7.7 .6c-2.3 -.2 -3.9 -.4 -4.8 -.6c-1.3 -2.9 -3.1 -6.3 -5 -10.6Z" class="g1_231"/>
<path d="M277.8 266.1L328.9 464l26.8 26.6Z" class="g1_231"/>
<path d="M209.9 440.7L410.1 338.5l-33.4 -.3Z" class="g1_231"/>
<path d="M325.1 241.2c-.9 .4 .6 .4 -.5 .4c0 -.3 .1 -.5 .5 -.4Z" class="g0_231"/>
<path d="M427.5 382.1c.4 -1.6 1.6 -2.8 2.8 -3.9c1.3 -1.1 2.6 -2.3 3.2 -3.8c.1 -.4 .6 .7 1 -.1c.9 -3.2 4.4 -6.4 7.3 -9l.1 .4c.5 -.5 .2 -1.8 .7 -2.3c.2 0 .1 .3 .4 .3c-.4 -.5 .5 -1.3 .3 -1.8c.3 -.2 .7 .1 1.1 -.1l-.4 -.7c-.8 -1.8 1.5 -2.5 1.4 -4.3c.1 .1 .2 .3 .4 .2c.2 -2.7 1.6 -5.6 2.2 -8.5c.1 .2 .5 .4 .8 .4c-.6 -.4 -.5 -1.3 -.4 -2.1c.8 -.1 -.2 -1.4 .3 -2.2l.2 .2c-.6 -.9 .6 -.9 -.1 -1.6l.6 -.3c-.8 -.5 .7 -.8 .4 -1.5h-.2c-.2 -.6 .4 -.7 .3 -1.2l.1 -.1c0 -1.1 .6 -1.7 -.1 -1.8c.6 -.2 .1 1.2 1 .7c-.1 -3.8 .4 -7.6 .4 -11.3c.4 -.4 .5 -.7 .7 -.8c-.1 -.4 -.1 -1.4 -.5 -1.8c0 .2 .4 -.2 .4 -.4c.3 -.7 -.8 -.7 -.5 -1.5c.2 .3 .4 .4 .7 .3c-.6 -.6 -.6 -1.5 -.8 -2.2c.1 .1 .2 .3 .5 .2c-.8 -.8 0 -1.5 -.5 -2.2l.5 .2c.4 -1.2 -1 -.2 -.8 -1.2c.2 .2 .3 .1 .5 .1c-.9 -.8 -.8 -2.4 -1.2 -3.3c.1 .1 .2 .1 .2 .1c-.3 -1 -.2 -2.1 -.8 -3.2c.1 -.4 1.1 0 .7 -1.1c-.8 .2 -.7 -1.7 -1.5 -.9c-.1 -.9 -.1 -2.4 -.6 -2.9c.5 .3 1 -.7 1.2 0l.4 -.7c.4 0 0 .7 .4 .4c-.1 -.4 -.7 -1.4 -.7 -1.8c-.7 -.5 -1.8 -.9 -2.3 -1.9c.5 .4 .8 -.6 1.1 -.3c-.7 -.4 -1.4 -.7 -2.1 -1c-.2 -.4 .6 -.3 .2 -.8c-.2 .1 -.4 0 -.6 -.1c0 -.2 -.8 -1.4 0 -1.9c.3 -.3 .4 .5 .5 0c-.2 -.6 -.5 -.6 -.8 -1.2l.1 -.1c0 -.5 -.8 -1.1 -1.1 -.5c.1 .3 .5 -.3 .4 .3c-.6 -.2 -1 -.9 -1.3 -1.5c.2 .2 .4 .1 .7 .1c-1 -.7 -1.6 -1.5 -2.3 -2.3c-.4 .2 .8 0 .7 .3c0 -1.5 -1.9 -2.2 -1.6 -3.5c.1 .1 -.5 .3 -.4 .3c-.3 -.6 .3 -.9 -.1 -1.2c.3 -.2 -.4 -.4 -.7 -.7c-.3 -.1 .1 -.2 .4 .1c-.6 -.4 -2.2 -2.2 -2.5 -3.6c-.2 .1 -1.2 -.3 -1.3 -.6l.5 -.2c.1 -.4 -.6 -.8 -.2 -1.1c-.9 -.3 1.8 1.9 .9 1.4c.3 -.5 -1.4 -.6 -.7 -.9c-.3 -.5 -1.2 -.7 -1.1 -1.5c0 .2 .9 0 .6 -.4c-.6 -.7 -.3 0 -.9 -.5l-.5 -.3c-.4 .3 -.4 -.7 -.7 -.1c.3 -.3 -.9 -.9 -.2 -1.3l.7 -.3c-.3 -.3 -1 -.1 -1.4 -.2c0 -.1 0 -.2 .1 -.3c-.8 .6 -.5 -.8 -1.4 -.6c-.2 -.9 -1.3 -1.7 -1 -2.4c-.7 -.3 -1.3 -.4 -1.6 -1.1c.2 0 .3 .1 .5 0c0 -.5 -.4 -.4 -.7 -.6c.1 -.1 -.2 -1.1 -.3 -1.7c-.7 -.3 -.9 .3 -1.2 .5c.3 -1.2 -1.7 -.9 -1.6 -2c.3 0 1.1 .3 .9 -.3c.3 -1.2 -1.4 -.3 -1.7 -1.3l-.5 .8c.1 -.7 -1.3 -.6 -.6 -1.2c-.4 0 -.6 -1 -1.1 -.3c-.6 -1.6 -3 -2.2 -2.7 -3.9c-.3 0 -.6 -.5 -.8 -.1c0 .6 .6 .1 .5 .4c-.2 -.1 -.4 0 -.5 .1c-.2 -.4 -.4 -.7 .4 -1c-.5 -1.1 -1.8 .4 -2.6 -.7c.2 -.2 .2 -.4 -.1 -.6h-.9c-.6 -.6 .1 -.9 .4 -1.4c-.4 -.2 -.9 -.6 -1.3 -.4v-.9c0 .7 -.5 .1 -.8 0l.3 .1c.1 -.3 -.5 -.5 -.7 -.6c-.2 .3 .2 .8 .3 1.1c-.3 0 -.6 -.3 -1 -.2c.4 -.4 -.4 -.8 -.6 -1c-.3 -.4 -.7 .1 -.8 0c.1 -.2 -.6 -.4 0 -.6c.1 0 .1 .5 .4 .4c-.1 -.4 .2 -.8 -.5 -.8c-.5 0 -.5 1 -1 .2c.3 0 .4 -.1 .7 -.2l-.5 -.7l-.3 .4c0 -.1 .1 -.1 .1 -.2c-.5 .3 -1.1 -.6 -1.6 -.1c-.4 -.2 -.5 -.8 -.8 -1h.1c-.2 -.5 -.8 -.7 -1.3 -.6v-.1c-.2 -.1 -.7 -.4 -1.1 -.3c-.4 -.6 .8 -1.8 -.1 -1.6c-.6 -.3 -1.4 .3 -1.3 .8c-.8 -.9 -2.4 -.8 -2.9 -2c-.3 .1 -.2 .2 -.6 .2c-1.4 -1 -3.4 -1 -4.2 -2.5c.6 0 .3 -.5 .4 -.8c-.6 .3 -.2 -.6 -.7 0c-.2 .5 -.3 .7 0 1.1c-1 -.2 -2.4 -.8 -2.7 -1.5c.2 .3 -.1 .4 -.3 .4c.3 -.6 -.3 -1 -.9 -1l-.3 .4l-.1 -.6c-.3 .1 -.6 .8 -1 .2c.1 -.2 .1 -.3 .1 -.5c-.7 .1 -1.7 .5 -2.2 -.1l-.2 -.8c-.3 -.1 -.8 .2 -.5 .5c-.8 -.7 -1.5 -1 -1.6 -1.7c-2.2 .8 -4.7 .1 -6.8 -.5l.2 -.4c-.5 -.4 -.5 .6 -.8 .2c.3 -.3 -.2 -.8 .3 -1.1c-.7 -.5 -1.2 .4 -1.7 .4c-.2 .4 .5 -.2 .2 .3c-.1 .2 -1 -.6 -1.3 .1c-.1 -.3 .1 -.8 .3 -1l-.5 .2c-.5 -1 1.7 -1.1 1.2 -2.2h-.4c-.3 -.8 1.4 -.6 .3 -1.1c-.6 .3 -1.3 1.1 -.9 1.5c-1.1 0 -.8 1.5 -1.9 1.2c-.2 -.4 .9 .1 .8 -.5c-.4 -.6 -1.1 .1 -1.5 -.2c.4 .4 -.2 1 -.5 1.1c-.5 -.5 .5 -.6 -.3 -.8c-.2 .3 -1 .5 -.4 .9c-.5 .8 -.8 -.4 -1.4 .2c-.1 -.7 1.1 -1.3 .3 -1.8c0 .6 -1.2 .7 -.9 1.6c-.3 -.2 -.3 -.7 0 -1c-.4 -.5 -1.4 .9 -1.3 -.3l-.3 .6c-.1 -.3 -.3 -.4 -.5 -.8c-.5 -.1 -1.5 .6 -1.4 -.3c-.1 .1 -1.1 -.1 -.8 .6c.5 .5 .8 -.4 1 .5c-.4 -.7 -.9 0 -1.3 .2V244c-.2 .2 -.7 0 -.9 .4c.2 -.2 .1 -.4 0 -.6l-.3 .6c-.9 .2 -.1 -1 -1 -1l.7 -.3c-.1 .1 -.4 -.5 -.8 -.4c-.2 .5 -.6 1.1 -.7 1.5c-.5 .2 -.2 -.6 -.7 -.1l.7 -.6c.1 -.1 -.4 -.9 -1 -.9c-.4 .1 -1.1 .8 -.5 1.2c-.3 -.1 -.7 -.4 -.5 -.8c-.7 .2 .1 .6 -.6 .9c-.2 -.4 -1 -.9 -1.4 -1.4l.7 -.9h-.4c.6 -.6 -.3 -.5 .1 -1.2c-.3 -.2 -.7 .1 -1 .2c.8 1.2 -1.1 1.6 -.9 2.6c-1.2 .3 -.6 -2.6 -1.9 -1c.2 .3 -.4 1.1 .3 .8c-.7 -.1 -.5 1.1 -1.4 .6c.7 -.4 -.6 -1.1 .3 -1.7c-.1 .4 .5 .3 .7 .2c-.3 -.4 .1 -1.1 -.7 -1.1c-.5 .1 -1.1 .1 -1 .7c0 .6 .7 -.1 .4 .5c-1 .2 -1.1 -.7 -1.5 .4c.6 -.1 .7 .5 .7 .9l-.7 .3l.2 -.4c-1.1 -.3 -.3 .7 -1.4 .6l-.5 -.8c.3 -.7 1.5 .3 1.4 -.8c-.7 0 -1 .5 -1.6 .2c.1 -.1 .3 -.1 .5 -.2c-.3 0 -.5 -1.5 -1.5 -.6c-.5 .3 -.1 .4 -.1 .8c-1.1 .2 -1.4 .6 -2.2 .7c.2 -.8 -1.2 0 -.5 -.9c.4 .5 2 .4 2.4 -.4c-.5 -1 .9 .1 1.1 -.9c-.9 0 -.9 -.9 -1.1 -1.6c-.2 0 -.5 .3 -.6 .4c-.1 .6 .2 .5 .3 1.1c-1 -.1 -2 .3 -2.5 .9c-.3 -.3 -.3 -.9 .1 -1c-1.2 .3 -2.4 .3 -3.6 .2c.8 .9 -1.2 .3 -.6 1.1c.6 .1 1.1 .8 .8 1.2c-.3 0 0 -.4 -.2 -.6c-.4 .6 -.8 -.8 -1.2 .1c1.1 -.4 .2 -1.2 .3 -1.9c-.8 .5 0 -.6 -.8 -.5c-.8 .5 -1.7 .9 -2.5 1.2c-1.2 -.6 -2.8 .3 -3.7 .5c-.6 -.3 -.4 -1.2 -.9 -1.2c-.7 .1 .6 .8 -.4 .5v-.1c-.2 .2 -1.8 -.3 -1.9 .9l.1 -.9c-.2 -.1 -.3 .2 -.4 .3c-.1 -.3 -.3 -.5 -.1 -.8c-.7 -.5 -1.2 .4 -1.8 .5l.5 .5c-1 .6 -1.9 .2 -2.9 .6l-.1 -.5l-.5 .5c0 -.6 -.6 -.7 -.9 -.2c.5 -.6 .9 -1.1 1.4 -1.7c.5 .2 -.4 .7 0 1.2c.4 .4 1.3 0 1.4 -.5c-.4 0 -.4 .1 -.7 .4c-.2 -.7 .3 -.8 .5 -1.3c-.2 0 -.5 -.1 -.5 .1c.3 -.4 .7 -.6 1.4 -.7c-.4 .4 .3 .4 .2 .6c-.1 -.6 .5 -1 1.3 -.9c.7 .6 1.5 -.8 2.4 -.7c-.2 .7 -.6 1.3 -1.2 1.6c.7 .3 .7 -.1 1.3 .1c.2 -.5 .3 -1.3 1.1 -1.7l.1 .5c.6 -.4 .5 -1.1 1.4 -1.1c1.6 .1 3.2 -.1 4.4 -.2l.1 .5c.5 -1.1 2.1 -.6 3 -1.1c1.5 .4 3.2 -.7 4 .1c2.7 -.4 5 -.8 7.8 -.6l-.5 .7c.5 -.5 .3 .4 .8 .3c-.6 -.5 .7 -.7 1 -1.1c1.2 .6 2.8 .1 4 -.3v.4c1.1 -.8 2.4 .1 3.8 .4c.1 .2 .3 .7 .7 .7c.8 -.7 1.2 -.6 2.4 -1c.8 .2 2 .5 2.8 1c3.2 -.7 6.1 .6 9.3 .7l.1 .6c3.3 -.4 6.6 1.7 9.3 2l-.6 .8c.7 .6 1.8 .4 1.9 -.3c.7 .6 2.1 .3 2.3 1.2c.7 .5 1.1 0 1.8 .1c1.4 1 2 1.2 3.6 1.7l-.4 -.3c-.2 .2 -.4 .5 -.1 .8c.7 0 1.9 1.1 1.9 -.2c1.2 1.3 3.8 1.3 4.8 2.9c.1 -.4 .5 -.2 .7 -.3c1.4 .7 2.4 2 3.7 2.2c.1 .2 -.6 .2 -.1 .6c.4 .1 .2 -.4 .7 -.3c2.4 .8 3.8 3.2 5.7 4.3c3.6 1.8 6.6 4.6 9.5 7l-.2 .1c1.5 .2 1.5 2.7 3.2 2.4c0 .4 .7 .9 .2 1c1.2 .3 1.6 2.4 3.2 2.9c-.1 -.1 -.2 -.1 -.4 -.2c.7 1.4 2.1 1.9 2.7 3.3c-.1 0 -.4 -.2 -.6 0c.1 .7 1.7 .4 1.1 1.4c.2 .2 .6 -.2 .4 -.4c1.9 2.9 4.6 5.4 6.8 8.3c.8 2.5 -1.5 1.1 .2 2.3c-.1 .3 .4 -.1 .3 .1c.6 .5 -.5 1.6 .3 1.8c.4 -.5 .5 .1 .8 -.1c.4 1.6 0 2.1 1 3h-.3c1.6 .8 1.8 2.5 3.4 3.1c3.5 7.1 6.5 14.3 7.9 22c1.1 7.7 2 15.4 .4 23.2c-1.2 1.7 -1.1 1.8 -1.1 3.9c-.1 -.1 -.1 -.2 -.3 -.1c.7 .2 -.2 1.4 .5 1.7c-.7 2.9 -1.1 5.5 -2 8.4c0 -.5 -.5 -.9 -.6 -.3l.3 .7h-.3c0 .4 .2 .9 .6 .6c-.9 3.7 -2.5 7.2 -4.5 10.4c-1.9 3.2 -4.1 6.2 -6.1 9.2c-1.3 1.3 -2.5 3.4 -3.6 5c-4.4 3.7 -8.4 6.6 -12.1 10.8c0 0 -.7 -2 .6 -3.9Z" class="g0_231"/>
<path d="M326.1 240.8c.3 .4 1 .4 .6 1c-.1 -.3 -.6 -.6 -.6 -1Z" class="g0_231"/>
<path d="M342.9 242.1c0 -.2 .3 .1 .3 .1c-.2 .1 -.3 .4 -.5 .3c.2 -.1 .2 -.3 .2 -.4Z" class="g0_231"/>
<path d="M347.1 242c-.1 .3 -.9 .7 -1.5 .7Z" class="g0_231"/>
<path d="M350.9 243.3c.4 .2 .3 .4 -.2 .4c0 -.2 .1 -.3 .2 -.4Z" class="g0_231"/>
<path d="M351.2 242.5c.3 -.1 .5 .1 .6 .3c0 -.3 -.7 .2 -.6 -.3Z" class="g0_231"/>
<path d="M359.4 243.6c.2 0 .6 -.3 .8 .1c-.2 -.3 -1 .4 -.8 -.1Z" class="g0_231"/>
<path d="M363.2 243.3c.1 0 .2 .1 .3 0c.3 .2 0 .4 -.2 .5Z" class="g0_231"/>
<path d="M425.8 270.8l-.4 -.2l.3 -.2Z" class="g0_231"/>
<path d="M442.9 295.9c.4 .3 -.2 .4 -.2 .5c-.2 -.3 .4 0 .2 -.5Z" class="g0_231"/>
<path d="M449.5 311.3v-.1l.7 -.1Z" class="g0_231"/>
<path d="M427.4 381.1l7.8 3l-.1 .3L423 387.8c-3.8 1.7 -7.5 3.5 -11.3 5.3c2.7 -3.2 5.4 -6.4 8 -9.6l6.5 -10.8h.3Z" class="g0_231"/>
<path d="M415.8 254.6c-.3 0 -.4 .5 -.3 .1c.2 -.2 .4 -.2 .3 -.1Z" class="g0_231"/>
<path d="M387.6 298.7c-.1 -1.9 1.5 -.6 1.7 -2c0 -.1 .4 .9 .5 .6c0 -1.6 1.4 -1.4 2.7 -.8l.1 .2c.3 .1 0 -.8 .3 -.8c0 .2 0 .3 .2 .5c-.2 -.5 .2 -.4 0 -.8c.2 .2 .4 .6 .6 .7l-.2 -.6c-.5 -1.4 .7 -.2 .6 -1.1c.1 .1 .1 .3 .2 .4c.1 -1.1 .9 -1.4 1.3 -2c.1 .2 .3 .5 .5 .7c-.4 -.6 -.3 -.8 -.2 -1c.5 .5 0 -.7 .4 -.5v.1c-.2 -.7 .5 .2 .1 -.6l.4 .4c-.5 -.8 .5 .3 .3 -.1l-.1 -.2c0 -.3 .3 .1 .3 -.1l.1 .1c.1 -.4 .5 0 .1 -.6c.4 .4 -.1 .3 .5 1c.4 -1.1 1.2 -1.5 2 -2.1c.3 .2 .4 .3 .6 .5c-.1 -.2 .2 -.3 0 -.7c0 .1 .3 .3 .3 .3c.3 .2 -.3 -.8 .1 -.6c0 .2 .1 .4 .3 .6c-.2 -.5 0 -.6 .1 -.8c0 .1 0 .2 .2 .4c-.2 -.7 .4 -.1 .3 -.6l.2 .4c.5 .3 -.5 -.8 -.1 -.7c0 .2 .1 .3 .2 .4c-.3 -.7 .2 -.7 .2 -1.1c0 .1 .1 .2 .1 .2c.2 -.3 .5 -.2 .5 -.7c.2 .1 .7 .9 .8 .6c-.6 -.7 .1 -.5 -.6 -1.2c.2 -.1 .7 0 .7 -.4c.1 .4 .7 .8 .6 1l.5 .3c.2 .3 -.2 0 .1 .4c0 -.1 0 -.6 .2 -.5c-.2 -.5 -.7 -1.4 -.6 -1.7c.1 .4 .7 .7 .7 .9l-.7 -1.6c0 -.1 .4 .6 .4 .3c-.2 -.2 -.2 -.3 -.3 -.5c.1 0 .1 -.4 .7 .2c.3 .3 0 .3 .3 .4c.1 -.1 0 -.3 .1 -.4h.1c.1 .1 0 -.5 -.4 -.7c-.1 0 .3 .3 .1 .2c-.3 -.4 -.2 -.7 -.1 -.8c0 .2 .2 .3 .3 .5c-.2 -.6 -.2 -.9 -.2 -1.3c-.3 -.3 .4 .6 .3 .5c.6 .2 -.1 -1.1 .7 -.6c0 0 -.4 -.5 -.4 -.4c.2 0 .6 .4 .5 .2c.3 .2 0 -.2 0 -.3c-.1 -.3 .2 .1 .1 .1c-.1 -.3 0 -1.1 .6 -.9c-.2 -.2 -.5 -.8 -.4 -.8l.4 .4c.2 .2 .1 -.2 .5 .1c-.4 -.6 -.1 .9 -.3 .3c.4 .3 -.4 -.8 .1 -.2c.1 -.2 -.2 -.7 .2 -.4c-.1 -.1 .5 .6 .5 .5c.1 -.3 -.1 -.3 -.1 -.5l-.1 -.2c-.4 -.4 .2 -.1 -.3 -.5c.4 .3 .1 -.4 .7 .2l.4 .5c.1 -.1 -.4 -.6 -.5 -.9c0 .1 .1 .2 .2 .2c-.7 -.7 .2 -.1 -.3 -.7c.4 .1 .4 -.3 .9 0c-.1 -.3 -.3 -.7 0 -.6q0 .1 .2 .3c.3 .1 .1 -.1 0 -.3c.1 .1 .7 .3 1 .4c-.1 -.3 -.6 -.6 -.8 -.9c.8 .6 -.3 -.7 .6 -.3c0 .2 .2 .6 .5 .6c.9 .6 -.4 -.7 .1 -.5l-.7 -.5c.5 .2 -.2 -.6 .5 0c-.2 -.3 .4 -.1 -.3 -.6c.8 .2 .2 -.9 1.5 -.2c-.1 -.1 .1 -.1 -.2 -.3c-.5 -.3 .2 .3 -.1 .1c0 -.1 -.2 -.2 -.3 -.3c.2 0 .4 0 .9 .5c.5 .1 -1.1 -1.1 -.6 -1.1c.3 .2 .4 .3 .4 .2l-.4 -.5c.2 -.1 .7 .3 1.2 .7c0 -.2 .1 -.3 -.2 -.6l.7 .4c-.5 -.3 -.3 -.3 -.4 -.4l.1 .1c.2 .1 .2 -.1 .1 -.2c-.3 -.2 -.5 -.2 -.6 -.2c-.2 -.2 -.1 -.2 -.3 -.4c.5 .3 .5 .1 .5 0c.2 0 -.3 -.3 -.3 -.4c.3 .2 .1 -.1 .4 .2c.1 .1 -.2 -.1 -.1 .1c.3 .1 .7 .4 .5 .1c-.2 -.3 -1 -.6 -.6 -.6c.1 .1 .3 .3 .4 .4h.4l-.5 -.3q.2 .1 .3 .1c-.5 -.3 0 -.3 -.6 -.6c0 -.2 .5 0 .6 -.1v.1c.3 0 .2 -.2 -.1 -.4h.1c.1 0 .1 -.2 -.2 -.4c.5 .1 1.8 1 1.3 .5c.1 -.1 -.7 -.7 -1.1 -.8c.5 0 -.2 -.7 .7 -.5c-.2 -.2 -.3 -.2 -.4 -.3c.4 -.3 -.3 -1 .8 -.8c.2 .2 .5 .2 .8 .3c-.4 -.3 .5 .1 -.3 -.3c-.4 -.1 -.6 -.2 -.8 -.2c-.2 -.3 -.1 -.6 .4 -.6c-.2 0 -.4 -.1 -.5 -.2c.7 .3 .9 .2 .7 0l-.4 -.2l.4 .1c-.1 -.1 -.9 -.4 -.4 -.3c.2 0 .3 .1 .5 .1c-.4 -.2 -.9 -.6 -.5 -.6l.7 .1c-.1 -.1 -.4 -.3 -.7 -.2c.5 -.1 .6 -.3 1.2 -.2c-1.3 -.7 -1.3 -1.2 -1.1 -1.6h.4c.3 0 -.6 -.1 -.4 -.1c.3 0 .7 0 1.1 .1c.4 -.1 -.5 -.3 -.7 -.4c-.4 -.1 .3 .1 -.3 0c-.1 0 .4 -.2 -.3 -.3c.3 0 .8 .1 1.1 .2l-.3 -.2c.8 0 1.4 .5 2.4 .5l-.1 -.1c.7 -.1 .8 .4 1 .1c-.3 -.2 -1.3 -.4 -1.6 -.3c-.2 -.2 -1.6 -.3 -1.5 -.5c.4 0 0 .2 .6 .2c.6 -.1 -.3 -.2 -.1 -.3c-.3 .1 -.9 -.1 -1.1 -.2c.4 0 .7 .2 .8 0c-.4 0 -.7 -.2 -1 -.1c-.9 -.1 .3 -.1 -.4 -.3c.6 0 1.4 .3 1.7 .1c-.6 0 -.8 -.2 -1.7 -.2c.2 0 .7 0 1 0c.4 -.1 -1.1 -.2 .1 -.2l-.6 -.1l.7 -.1c0 -.1 -.8 -.3 .1 -.3c-.1 0 -.1 -.2 -.7 -.1c-.4 .1 .5 .1 -.4 .2c.7 -.1 -.1 -.2 -.4 -.2h.4c-.1 -.1 -.1 -.2 -.5 -.2c.2 .1 .5 0 .6 0h-.6c-.3 -.1 1 -.1 .8 -.3l.5 .1c-.1 0 .4 -.1 .2 -.2l-1.5 .1c-.2 -.1 .5 -.1 0 -.2l.6 .1c.2 0 .9 -.2 .8 -.3c-.1 -.1 -.9 -.1 -1.1 .1c-.1 -.1 .2 -.2 .6 -.2c-.2 -.1 -.5 .1 -.9 0c.4 -.1 .8 -.3 1.3 -.5h.9v-.1c.6 0 .5 -.1 1.2 -.2c.1 -.1 -.2 -.1 -.4 -.1c-1.1 .3 -1.6 0 -2.6 .3c-.3 -.1 2.5 -.7 .8 -.6c-.2 .1 -1 .2 -.7 .3c.1 -.2 -1.1 .1 -.7 -.1c.5 0 1 -.4 1.7 -.4c-.4 .1 -.3 .2 -.1 .2c.3 -.2 1 -.2 .9 -.4c-.1 -.1 -.1 -.2 -.7 0c-.5 .1 .1 .1 -.5 .2c-.2 -.2 .7 -.4 -.4 -.2c.1 .1 -.5 .3 -.9 .4l-.2 -.1l.4 -.1c.2 -.2 -.8 .2 -.7 0l.7 -.3c.7 -.2 -.2 .3 .9 0c0 -.2 -.6 -.1 -.3 -.3c.1 0 .1 .1 .2 .1c0 -.1 1.4 -.6 .5 -.5c-.3 0 -.4 .1 -.8 .2c-.1 -.2 -.6 -.1 -.7 -.2c.8 -.2 0 -.2 .8 -.4c-.4 .3 -.2 .5 .5 .4c.9 -.4 0 .2 .9 -.1c0 -.2 .9 -.5 1.4 -.7c.1 -.1 -.2 0 -.3 0c-.6 .1 -.5 .2 -1.1 .4c.1 -.3 -.3 -.3 -.9 -.2c.3 -.2 .8 -.4 .9 -.3c-.2 -.2 -.3 -.5 -.2 -.8c-.8 .5 -.3 -.2 -1 .2c-.2 .3 -.7 .6 -1.2 .7c.1 -.1 .4 -.1 .6 -.2c-.5 .1 .7 -.5 -.1 -.3c.4 .1 1.1 -.4 1.8 -.7c-.5 0 .5 -.2 .4 -.4c-.5 0 -.9 0 -1.1 -.1c.5 -.6 -.3 -.6 -.4 -.7c.3 -.3 1 -.7 1.1 -.9c-.1 -.1 -.7 .6 -.5 .2l.1 -.1c-.2 .1 .3 -.6 -.8 0l.9 -.5c0 0 -.2 0 -.3 .1c.3 -.2 .5 -.4 .7 -.4c.4 -.5 -.3 -.2 -.4 -.4l-.4 .4c-.5 0 -.2 -.4 -.5 -.5l.5 -.3h-.4c.5 -.2 .7 -.5 .3 -.3c.4 -.2 .8 -.3 1.3 -.5c-.2 .3 -.6 .3 -1 .7c-.4 .3 -.1 .4 .3 .1c0 -.1 -.1 0 -.3 0c.6 -.4 .7 -.3 1.1 -.5c0 0 .1 -.2 -.1 -.1c.4 -.1 .5 0 .6 .1c-.3 0 -.4 .3 -.6 .4c.6 -.4 .9 -.3 .8 -.1c-.5 .6 .6 .1 .6 .4c-.6 .3 -1.1 .5 -1.4 .5c-.2 .3 .1 .1 -.1 .4c.4 -.2 1.1 -.5 1.4 -.5l-.4 .3c.3 0 1 -.4 1 -.1c0 .5 .1 .8 .2 1.2l-.4 .2c1 -.3 .6 .3 1.1 .4c-.3 .5 .8 .6 0 1.1c.6 .5 1.2 1 1.2 1.8l-.7 .1c.5 0 -.4 .1 -.3 .2c.5 -.2 .8 0 1.2 .1c-.5 .4 .2 .7 .7 .9l-.4 .1c.9 .2 .2 .7 .1 1.1c-.2 0 -.7 .1 -.6 .2c.8 .2 .7 .3 1.2 .6c0 .2 -.1 .6 -.5 .8c1.1 .9 .4 1.7 .9 2.7h-.6c1.1 1 -.2 1.9 .2 2.7l-.9 -.3c-.4 .1 .1 .5 .8 .7c-.4 .1 .2 .7 -.6 .6c-.2 .1 .4 .4 .4 .6c-.5 .3 -.5 .5 -.5 1l.1 -.1c-.2 -.1 -.5 -.3 -.6 -.2c.2 .3 -.5 .5 .6 .8c-.8 .1 .1 1.2 -.9 1.2c.3 .1 .3 .3 .4 .4c-.2 .4 -.9 .5 -.6 1c-.2 0 -.4 -.3 -.5 -.2c0 .1 .3 .2 .4 .4c.2 .9 -1.2 .8 -1.4 1.4c0 1.2 -.9 1.9 -1.4 2.8l-.2 -.2c.5 .8 -1.2 0 -.3 1.1c-.2 -.1 -.3 .1 -.6 -.2c.3 .6 -.9 .2 -.5 1c0 0 0 -.1 -.1 -.2c-.6 0 -.3 .7 -.9 .7c-.1 -.1 -.1 -.2 -.2 -.4c-.5 -.2 .4 1 -.4 .3c-.1 0 .3 .4 .4 .3c-.9 .4 -1.1 1.5 -1.5 2.3c-1 0 -1.4 -1.3 -1.2 -.4c-.1 -.1 .3 .4 .2 .2c0 .4 -1.1 -.7 -.8 -.2c.5 .5 .2 .4 .5 .7c-.6 -.1 -1.1 -.5 -1 .1l-.2 -.3c.4 1 -.2 .9 .3 2c-1.3 1.4 -2.4 3.1 -3.9 4.4c-1.6 1 -2.9 2.5 -4.9 3c-.8 -.6 -.9 -.5 -1.1 .1q0 -.2 -.1 -.3c.4 .7 -.3 .2 .1 .9c-.7 .2 -1.2 .8 -1.8 1.1c.1 -.1 -.2 -.7 -.3 -.6l.1 .5l-.1 -.1c0 .1 .1 .5 .3 .7c-1.3 1.5 -3.6 1 -5.1 2c-.5 -.1 -.9 .4 -1.3 .8c-1.6 -.4 -3.1 -.6 -4 .6c0 0 -.7 -1.9 -.4 -2.6Z" class="g0_231"/>
<path d="M416 254.8c-.3 .3 -.4 .5 -.9 .7c.3 -.2 .6 -.5 .9 -.7Z" class="g0_231"/>
<path d="M414.6 260.2c.1 0 -.1 .1 -.2 .2c0 -.1 -.4 0 -.2 -.1c.1 .1 .2 0 .4 -.1Z" class="g0_231"/>
<path d="M414.7 261.1c-.3 .1 -.6 .1 -.7 0Z" class="g0_231"/>
<path d="M413.6 262.3c-.2 .2 -.4 .2 -.4 .1c.2 0 .3 -.1 .4 -.1Z" class="g0_231"/>
<path d="M414.4 262.1c0 .1 -.2 .2 -.3 .2c.2 0 -.3 0 .3 -.2Z" class="g0_231"/>
<path d="M413.8 263.9c0 0 .3 0 0 .1c.2 -.1 -.5 -.1 0 -.1Z" class="g0_231"/>
<path d="M414.4 264.5h.1c-.2 .1 -.5 .1 -.5 .1Z" class="g0_231"/>
<path d="M410.4 278.4l-.1 -.2l.3 .3Z" class="g0_231"/>
<path d="M405.2 283.6c.1 .3 -.3 -.2 -.3 -.2c0 -.1 .3 .4 .3 .2Z" class="g0_231"/>
<path d="M403.1 287.6l.1 -.1l.4 .6Z" class="g0_231"/>
<path d="M389.9 296.8l6.3 5.4l-.2 .3l-12.5 -.9c-4.2 .4 -8.3 .8 -12.4 1.2c3.6 -2.1 7.2 -4.2 10.7 -6.3l9.7 -8l.3 .1Z" class="g0_231"/>
</g>
<path d="M318.5 969.1h23" class="g2_231"/>
</svg>