<?xml version="1.0" encoding="UTF-8" standalone="no"?>
<!DOCTYPE svg PUBLIC "-//W3C//DTD SVG 1.1//EN"
"http://www.w3.org/Graphics/SVG/1.1/DTD/svg11.dtd">
<svg viewBox="0 0 660 990" version="1.1" xmlns="http://www.w3.org/2000/svg" xmlns:xlink="http://www.w3.org/1999/xlink">
<defs>
<clipPath id="c0_228"><path d="M87.7 871.4V629H306.5V871.4Z"/></clipPath>
<style type="text/css"><![CDATA[
.g0_228{
fill: #000006;
}
.g1_228{
fill: #231F20;
}
.g2_228{
fill: none;
stroke: #231F20;
stroke-width: 0.763;
}
.g3_228{
fill: none;
stroke: #949698;
stroke-width: 0.763;
}
]]></style>
</defs>
<path d="M224.6 689.1c1.7 6.8 3.8 7.7 6.7 7c3.1 -.7 7.3 -4.3 5.5 -11.7c-1.9 -7.7 -7.5 -9.8 -13 -8.6l-2.3 .6Zm-4 -16.2l2.5 -.6c4.6 -1 7.4 -4.6 5.9 -10.7c-1.7 -6.6 -6.3 -7.5 -9.2 -6.8c-1.9 .4 -2.7 .8 -2.9 1.1c-.3 .3 0 1.9 .5 4Zm-14.8 -6.1c-2.1 -8.2 -2.8 -8.6 -8 -7.9l-.7 -2.9l24.6 -5.6c11.1 -2.6 18.4 -1 20.4 7.1c1.6 6.6 -4.1 11.5 -8.4 13.1v.2c7.8 -.9 15.1 1.6 17.1 9.5c1.4 5.6 -.6 9.8 -4.2 13.2c-3.3 2.9 -8.6 5 -15.1 6.5l-22.7 5.2l-.7 -2.9c5.4 -1.7 5.9 -2.4 3.9 -10.6Z" class="g0_228"/>
<path d="M122.6 719.2c-1.8 -7.3 -2.5 -7.6 -7.3 -6.9l-.6 -2.7L147.9 702c.3 1.1 1.9 6 3.5 10.9l-3.1 .9c-1.5 -3.1 -2.7 -4.8 -4.1 -5.6c-1.4 -.9 -3.8 -.8 -7.5 .1l-1.2 .3c-2.7 .6 -2.8 .6 -2.2 2.9l3.2 13l3.5 -.8c6 -1.4 6.1 -1.8 5.6 -7.1l3 -.7l4 15.9l-3.1 .7c-2.2 -5.8 -2.5 -6.1 -8.5 -4.8l-3.5 .8l2.7 11c.9 3.5 1.5 5.1 2.9 5.5c1.2 .2 2.9 -.1 5 -.6c2.8 -.6 5.8 -1.7 6.9 -3.7c.9 -1.5 1.5 -4.2 1.7 -7.7l3.2 -.2c.5 3.3 .7 10.5 .6 12.5l-35.6 8.2l-.7 -2.7c5.3 -1.6 5.7 -2.2 3.9 -9.4Z" class="g0_228"/>
<path d="M282 797.6c2.3 9.5 3.2 10 9.7 9.1l.8 3.4l-29.7 6.8l-.9 -3.4c6.3 -2 6.8 -2.8 4.5 -12.3l-7.3 -29.1c-2.3 -9.5 -3.2 -10 -9.7 -9l-.8 -3.5l29.7 -6.8l.8 3.4c-6.2 2 -6.7 2.8 -4.4 12.3Z" class="g0_228"/>
<path d="M154.1 840.6c2.6 3.8 8.9 10.7 16.2 9c3.9 -.9 6.3 -4 5.1 -8.6c-1.1 -4.2 -4.5 -6.1 -9.6 -6.9l-1.2 -.2c-6.8 -1.3 -14.6 -3.5 -16.5 -11.1c-2 -8.1 2.5 -16.1 14.1 -18.7c2.3 -.6 4.8 -.8 7.1 -.8c1.8 .1 3 .1 4.1 .2c1 2.7 2.4 6.1 4.4 10.7l-3.2 1.3c-2.8 -4.4 -6.6 -8.8 -12.5 -7.5c-3.8 .9 -5.8 4.3 -4.9 7.7c.9 3.6 4.2 5.1 9.6 6l1.8 .3c7.5 1.4 14.3 3.7 16.4 12.1c2.2 8.8 -3.6 16.9 -15.1 19.5c-3 .7 -6.1 .8 -8.3 .6c-2.4 -.2 -4.1 -.4 -5.1 -.6c-1.4 -3.1 -3.4 -6.8 -5.4 -11.3Z" class="g1_228"/>
<path clip-path="url(#c0_228)" d="M161.1 629.3l55 213.2L245 871.1Z" class="g1_228"/>
<path d="M88 817.3l215.6 -110l-36 -.4Z" class="g1_228"/>
<path d="M300.4 725.4c.8 0 1.5 -.1 1.5 -1c0 -.8 -.8 -.9 -1.4 -.9h-1.3v1.9Zm-1.2 3.6h-1.1v-6.4h2.5c1.6 0 2.4 .5 2.4 1.8c0 1.2 -.7 1.7 -1.7 1.8l1.8 2.8h-1.2l-1.7 -2.7h-1Zm1.1 -8.1c-2.6 0 -4.6 2 -4.6 4.8c0 2.6 1.8 4.7 4.6 4.7c2.6 0 4.6 -1.9 4.6 -4.7c0 -2.8 -2 -4.8 -4.6 -4.8m0 10.5c-3.4 0 -5.9 -2.4 -5.9 -5.7c0 -3.5 2.8 -5.8 5.9 -5.8c3.2 0 5.9 2.3 5.9 5.8c0 3.4 -2.7 5.7 -5.9 5.7Z" class="g1_228"/>
<path d="M55 330H605M55 431.2H605" class="g2_228"/>
<path d="M318.3 969.1h23.1" class="g3_228"/>
</svg>