<?xml version="1.0" encoding="UTF-8" standalone="no"?>
<!DOCTYPE svg PUBLIC "-//W3C//DTD SVG 1.1//EN"
"http://www.w3.org/Graphics/SVG/1.1/DTD/svg11.dtd">
<svg viewBox="0 0 660 990" version="1.1" xmlns="http://www.w3.org/2000/svg" xmlns:xlink="http://www.w3.org/1999/xlink">
<defs>
<clipPath id="c0_65"><path d="M155.2 661.2V142.7H510.3V661.2Z"/></clipPath>
<style type="text/css"><![CDATA[
.g0_65{
fill: none;
stroke: #949698;
stroke-width: 0.763;
}
.g1_65{
fill: #FFF;
}
.g2_65{
fill: none;
stroke: #231F20;
stroke-width: 2.979;
}
.g3_65{
fill: #231F20;
}
.g4_65{
fill: none;
stroke: #231F20;
stroke-width: 1.986;
}
]]></style>
</defs>
<path d="M318.5 969.1h23" class="g0_65"/>
<path d="M436.8 386.4H236.2V169.3H436.8V386.4Z" class="g1_65"/>
<path d="M436.9 386.4H236.2V169.3H436.9ZM236.2 277.8H436.8" class="g2_65"/>
<path d="M211.3 441.4H467.6V621.9H211.3V441.4Z" class="g1_65"/>
<path d="M211.3 441.4H467.6V621.9H211.3Zm128.2 0V621.9" class="g2_65"/>
<path d="M197.4 204.2c-4.4 .5 2.5 .5 -2.8 .5c.5 -.3 1.4 -.6 2.8 -.5Z" class="g3_65"/>
<path d="M489.2 309c-7.1 .1 -15.3 -.7 -23.7 -1.3c-8.4 -.7 -17 -1.2 -24.7 -.7c-1.9 .1 .4 -1 -3.7 -.7c-3.8 .4 -8.1 .7 -12.7 1.1c-4.6 .5 -9.5 1 -14.5 2c-2.5 .5 -5 1.1 -7.4 1.9c-2.4 .9 -4.8 2 -6.7 3.7c-1 .8 -1.8 1.9 -2.4 3.1c-.6 1.1 -1 2.4 -1.2 3.6c-.5 2.5 -.5 5 -.3 7.3l-.4 -1.1c.1 3.7 2.1 7.7 3 11.3c-.1 .1 -.6 -1.1 -.6 -.2c.8 .8 2.4 6.4 3.4 7.7c.3 1.5 -.2 1.5 .3 3.4l1.4 1.7c3.6 4.9 5.6 13.2 9.8 20.2c-.3 -.3 -.8 -1 -.6 -.3c6.4 11.2 13.6 25.7 20.4 38.5c-.5 -.4 -1.1 -.7 -.9 .2c.9 .3 3 4.2 4.9 7.6c.1 1.9 3.5 5.7 5.1 10l-.3 -.3c2.1 2.7 1.8 4.7 3.7 6.8l.4 2.2c1.5 .9 1.6 4.6 3.2 6.9l.1 -.2c1.3 2.3 1.4 3.8 2.6 6v.2c2.5 5.1 3.2 8.4 3.8 8c.2 2.1 -2.3 -5 -1.9 -1.8c1.9 4.3 3.8 8.6 5.5 13c1.8 4.4 3.2 9 4.2 13.7c2.1 9.3 2.8 19 2.7 28.4c-.3 2.1 -.5 3.5 -.8 4c.1 1.9 -.2 7.1 0 8.8c0 -.6 -.5 1.2 -.7 2.2c-.6 3.3 .4 3.8 -.4 7.5c0 -1.5 -.2 -2.1 -.5 -1.6c.1 3.2 -.7 7.5 -1.3 11.2c0 -.6 .1 -1.5 -.2 -1.4c-.1 4.2 -1.7 7.4 -2.3 11v-1.5c-2.1 5.5 .4 2 -1.3 6.7c.2 -1.2 -.1 -.8 -.2 -1.1c-.6 4.8 -3.4 11.9 -5.1 16.4c0 -.3 -.1 -.3 -.1 -.3c-2 4.8 -4.7 9.5 -7.3 14.5c-.7 .8 -.8 .5 -1.1 .6c-.4 .1 -.9 .6 -2.3 2.9c.4 .1 -.9 2.1 -1.9 3.7c-1.1 1.6 -2 2.9 -.6 2c-1.5 1.8 -3.6 4 -5.5 6c-2 2.1 -3.8 4 -4.8 5.2c1.2 -1.8 -2.4 .8 .3 -2l-2.4 1.7c0 -.6 2.2 -2 1.2 -1.7c-1.3 1.4 -5.2 5.5 -6.6 6.5c-2.3 2.7 -4.2 5.6 -8.9 9.2c2 -1.9 -1.8 .1 -.4 -1.1c-1.8 2 -3.7 4 -5.7 6c-1.6 1.1 -.7 -.3 -2.9 1.4c.2 .1 -.7 .9 -1.3 1.5c-.4 .2 -2.1 1.3 -3.9 2.3c-1.7 1 -3.6 1.8 -4.2 1.7c-.9 .1 2.7 -1.7 .7 -.9c-3.1 1.7 -3.1 2 -6.3 3.7l-.1 -.1c-2.2 1 -6.1 3.5 -3.6 2.8c1.5 -.7 -.8 -.2 1.5 -1.1c-1.2 1.2 -4.9 3.2 -8.2 4.6c1.1 -.6 .8 -.7 1.2 -1.2c-4.1 2.6 -8.8 4.8 -13.8 6.9c.1 .4 1.6 -1.4 2.5 -1.5c-6.7 2 -13.3 5.5 -19.1 6.2c.9 -.3 .7 .5 .6 .4c-3.3 .8 -3.3 .2 -5.3 .9c-.3 -.3 -2.6 .8 -4.8 1.4c-1.1 .5 -.6 0 1.3 -.5c-1.5 .5 -5.3 1.6 -9.6 2.5c-4.3 .9 -9.2 1.6 -12.8 1.7c.2 .3 -4.3 1.4 -6 1.5l.6 -.6c-1.5 -.2 -5.5 .4 -5.8 0c-1.8 .4 1.6 .1 4.8 -.3c3.3 -.5 6.3 -1 4 -.5c-1.3 -.3 -6.6 1.5 -5.6 .6c-3.3 .3 -6.6 1.1 -9.8 .6c1 .1 2.7 -.8 0 -.7c-4.7 .2 -1.3 .3 -5.1 .5l-2.5 .2c-.1 .5 -4.2 -.2 -2.5 .4c-.5 -.4 -6.9 -.1 -6.3 -.9l.7 -.7c-2.1 -.1 -3.4 .5 -5 .6c-.3 0 -.8 -.2 -.7 -.3c-.5 1 -4.9 -.7 -7.4 -.2c-4.2 -1 -10.8 -2.1 -12.6 -3.2c-3.3 -.5 -6.4 -.9 -9.9 -2.3c.7 .1 1.7 .4 2 .2c-2.2 -1 -2.8 -.9 -4.9 -1.4c.5 0 -4.3 -2.2 -6.6 -3.6c-3.1 -1 -2.3 0 -2.8 .2c-1.1 -1.1 -3.3 -1.9 -5.6 -2.8c-2.2 -1 -4.6 -2 -6 -3.4c1.1 .5 4.5 1.9 2.2 .4c-2.1 -2.4 -5.7 -2.4 -9.4 -5.5l.5 1.4c-1.6 -1.6 -6.2 -3.8 -5.3 -4.2c-1.5 -.7 -4.3 -3.8 -4.5 -2.8c-2.8 -2.8 -6.5 -6 -9.6 -9.3c-3.2 -3.2 -5.7 -6.4 -6.7 -8.8c-.8 -.8 -2.4 -3.2 -2.4 -2.5c.8 1.8 1.9 1.9 2.1 2.7c-.7 -.8 -1 -.9 -1.1 -.9c-1.4 -2.1 -2.5 -3.7 -.6 -2.2c-1.4 -2.4 -2.5 -3.3 -3.7 -4.5c-1.2 -1.1 -2.6 -2.4 -4.3 -5.5c.5 .1 .3 -.4 -.7 -2.2c-.9 -1 -1.7 -2 -2.5 -3.1c-2 -4.1 -.5 -2.7 0 -3c-1.2 -2.1 -2.4 -4.8 -3.3 -5.6c-.1 -1 -.3 -2 -.5 -3c.4 2.2 -1.1 -1.7 -1.6 -2.7l.5 1c.1 -.5 -1.1 -3.1 -1.7 -4.4c-.2 .5 .7 3.2 1.2 4.7c-.7 -1.1 -1.4 -2.9 -2.2 -4.3c.7 .3 -1 -3.9 -1.5 -5.7c-.6 -2.1 -1.3 -2.2 -1.5 -2.8c.3 -.2 -1 -3.5 -.1 -2c.3 .7 .2 1.8 .9 2.9c-.3 -1.5 .3 -1.5 -.9 -4.3c-1 -2.1 -1 .9 -1.8 -3.3c.4 1 .7 1.1 1.1 1.9c-.2 -1.3 -.5 -2.6 -.7 -3.9l-.6 -.1c0 -.5 .2 -.2 .2 -.4c-.9 -1.1 -1.6 -6 -2.4 -6.8c-.5 -1.9 -.5 -4.2 -.8 -6.2l.1 .4c-.1 -2.4 -.8 -5.5 -1.5 -7.4l.2 .1c-.2 -1.3 -.7 -4.3 -1.2 -5.9c0 -3.3 1.9 -1.3 .8 -4.8c-.3 -3.3 -1.4 -5.1 -1.6 -3.8c-.1 -5.9 -1.3 -12.7 -.5 -18.2c-.3 -.9 -.4 -.3 -.5 -2.1c.1 -8.8 -.3 -18.5 1.3 -25.4c0 2.5 .5 .2 .8 .2c-.3 -2.2 .7 -2.5 -.1 -3.3c-.5 .2 -.7 -.1 -1.1 2.4c.1 -5.3 .9 -13.2 1.7 -16c-.4 1.4 -.4 .3 -.4 -.8c.7 .4 1.3 -3.4 1.4 -6.3l-.4 -.4l.7 -1.9c.1 -1.1 -.8 -1.3 .1 -4.1c.2 -.1 .4 -.3 .6 -.8c.1 -3 .1 -7.3 1.1 -10.4l1.1 -2.5c.2 -1.4 .2 -3.8 -.4 -1.4c1.4 -5.4 2.1 -8.9 3.1 -10.5c.4 -9.7 3.6 -23.3 6.5 -34l.3 .4c1.1 -2.8 -.2 -1.7 .6 -3.6c0 1 1.3 -2 1 .3c1.5 -4 .9 -5.4 1.5 -8.2c-.3 -.5 -.3 2.3 -.7 1.6c-.1 -.5 2 -5.6 1.5 -6.4c.5 -1 .8 0 .9 .6l.4 -2.6c1.7 -2.8 -.6 7.4 1.3 4.5l.5 -2.4c1.4 -2 -1 6.3 1 .6c.4 -2.6 .1 -5 -.9 -2.8c1.4 -5.3 -.9 -2.9 1 -8.5c.8 -1.4 -1.4 4.5 -.5 3.6c1.4 -2.5 1.4 -5.4 2.3 -7.7c-1 2.5 -1 .1 -.6 -1.6c1.3 -2.8 0 2 1.4 -2c-.1 -.8 .9 -4.5 -.5 -1.4c-.4 -1.8 1.7 -4.1 1.8 -6.5c1 -1.1 -.1 4.6 1.8 .3c-.9 .5 1.1 -5.7 -.6 -3.7c.8 -1.7 1.4 -1.7 1.3 -.3c1.2 -2.3 1.1 -6.3 2.6 -6.7l-.3 -1c.5 -.7 1.1 -1.8 1.9 -2.9c.8 -2.1 2 -7.2 2.8 -6.6c.2 -.7 2.3 -5.6 .9 -3.9c-1.7 2.8 -1.1 3.6 -2.6 4.9c1.6 -1.8 1.8 -4.3 2.3 -6.2l.5 -.1c.3 -1.1 1.4 -3.5 1.3 -4.3c-.1 .9 .3 .6 .7 -.2v-1.3c1.7 -4.3 1.3 -.6 3.1 -4.7l-1.1 3.3c.3 -.7 1.4 -1.9 2.1 -3.9c-.1 -.9 0 -2.6 0 -3.4c.9 -2.4 1 -.8 1.7 -3.2l-.9 3.1c-.1 .6 1.7 -1.5 3.2 -4.5c.8 -2 1.7 -5.3 -.1 -2.4c.8 -1.5 2.1 -3.5 1.8 -2.1c1.7 -3.5 -.7 .2 .6 -2.9c.9 -1 3.4 -4.5 5.1 -6.4l-.9 3.4l1.1 -2c-.9 2.9 1.2 -1 1 .8c.8 -1.3 1.6 -3 2.2 -4.4c-3.3 3.3 1.2 -5.2 -.3 -4.6c3.1 -5.5 4.2 -2 6.4 -8.3c-.8 .7 .2 -2.3 -1.7 1.2c2.2 -3.2 .6 -2.8 3.5 -6.4c-1.5 3.1 3 -2.4 .7 2c-.1 -.4 -1.8 2.1 -2.1 2.8c1.3 -1.1 .7 .9 2.9 -2.4c1.3 -2 3.3 -4.7 2.5 -4.7c-.5 -.2 -2.1 3.1 -1.7 1.5c2.7 -4.1 3.9 -4.2 4.3 -6.4c-1.8 2.5 -2.7 2.7 -3 2.4l1.9 -3l-.1 .8c3.7 -4.4 .4 -1.8 3.9 -6.1l2.3 -1.5c-.4 1.4 -5.3 6.1 -3.8 6c2.3 -2.8 2.6 -4.1 4.9 -6.5c-.4 .6 -1 1.4 -1.4 2.1c.8 -1 2.7 -1.1 5.4 -5.6c1.4 -2.2 .1 -.7 -.1 -1.1c3.6 -4.4 4.5 -6 6.9 -8.8c.1 1.1 4.6 -4.7 2.4 -1.1c-1.7 1 -7.2 7.2 -8 9.3c2.1 -1 -3 3.3 -3 4.9c2.9 -3.5 3.5 -2.7 4.5 -2.9c.8 -.9 1.5 -2 1.9 -2.6c-.1 -.8 -1.2 .4 -1.7 .1c3.5 -3.8 6.6 -7.6 8.1 -10c1.4 -1.1 1.5 -.3 .1 1.2c4.1 -4.5 8.7 -9.1 12.9 -13c-3.3 1.9 4.5 -4.7 2.1 -3.4c-2.3 2 -4.7 3.3 -3.8 1.8c1.4 -1.3 .3 .4 1 0c.7 -1.1 1.5 -1.6 2.3 -2.2c.4 -.2 .8 -.5 1.1 -.8c.4 -.4 .7 -.7 .9 -1.3c-.8 1 -1.2 1.5 -1.4 1.9c-.2 .4 -.1 .5 .1 .5c.5 0 1.4 -.3 1.3 .3c1.2 -1.5 1.2 -1.3 1.3 -1.2c.1 .2 .3 .4 1.5 -1.1c1 -1.5 2 -3.5 1.8 -5.1c0 -.8 -.3 -1.5 -.8 -2.1c-.6 -.7 -1.3 -1.2 -2.1 -1.7c-1.8 -1.7 -5.1 -2.8 -8.3 -3.5c-3.3 -.7 -6.6 -1 -9 -1.2c-2.5 -.7 -.7 -1.4 -3.5 -1.8c-3.3 -.3 2.4 1.1 -2.4 .3l.4 -.1c-.7 0 -2.9 -.3 -5.1 -.4c-2.3 -.2 -4.5 -.1 -5.2 .5l1.5 -.9c-.9 -.1 -1.8 .1 -2.5 .1c0 -.3 -1.1 -.6 .4 -.7c-3 -.7 -6.4 0 -9.6 0l2.1 .5c-5.6 .4 -9.4 0 -14.8 .3l.2 -.5l-3.3 .4c.8 -.5 -2.2 -.7 -3.9 -.2c2.8 -.6 5.6 -1.1 8.4 -1.6c2.3 .2 -2.5 .7 -1.1 1.2c1.3 .4 6.3 .1 7.1 -.4c-1.9 0 -2 .1 -3.5 .3c-.6 -.7 2.3 -.7 3.7 -1.3c-1 .1 -2.4 -.1 -2.6 .1c1.9 -.4 3.9 -.5 7.3 -.5c-2.3 .3 1.2 .5 .3 .7c.3 -.7 3.5 -.9 7.6 -.6c2.9 .8 7.7 -.3 12.4 .3c-2 .5 -4.4 .9 -7.3 1c2.9 .5 3.3 .1 6.2 .7c1.5 -.4 2.6 -1.1 6.5 -1l.2 .5c1.7 .1 2.6 0 3.7 -.1c1 0 2.1 0 4.4 .5c3.8 .9 7.7 2 11.1 4.1c1.7 1 3.4 2.5 4.2 4.5c.4 1 .5 2.1 .4 3.1c-.1 1 -.3 1.9 -.7 2.6l-.5 .1c-.1 .9 -.6 2 -1.3 3.1c-.8 1.2 -1.7 2.3 -2.8 3.3c-2 2 -4.2 4.1 -5.6 5.8c-5.6 4.8 -10.9 11.8 -14.1 14c-8.5 9.9 -15.3 19 -23.1 30.1l.7 -2.3c-1 2.3 -1.2 1.1 -2.5 3.1c2 -2 -1.2 3.1 -1.7 4.8c-3.8 4.7 -7.2 11.7 -9.3 16.6H214c-1.8 5.1 -5.4 10.4 -8.4 16.4c-.6 .6 -1.5 1.5 -2.3 3.4c-.8 3.6 -1.6 5.3 -3.3 10.4c-1.5 3.6 -4.1 9.4 -5.8 13c-4.2 14.1 -9.5 28.2 -13 43.1l-.8 .9c-1.4 7.3 -3.5 15.3 -5.4 23c-1.8 7.8 -3.6 15.3 -4.5 21.6l-.7 -1.4c-1.1 3.8 -1.4 8.9 -.6 8c-1 3.9 -1.2 9.9 -2.4 12.2c-.8 4 -.3 5 -.6 8.3c-1.4 8 -1.7 11 -2.2 18.7l.2 -1.9c-.1 -.9 -.5 -1 -.8 .9c0 2.9 -1 10.4 .3 7.7c-.6 4 -.7 8.8 -.7 13.5c-.1 4.7 0 9.4 -.4 13.3c.3 -.6 .4 1.4 .7 2.2c.1 7.1 0 14.6 1.1 20.2c0 1.1 -.7 -1.8 -.4 1.1c.3 1.7 .4 0 .8 2.1c1 5.7 1.8 11.4 2.7 17c1 5.6 2.1 11 3.7 16c3.1 8.7 6.7 17.4 11.1 25.5c4.5 8.2 9.7 15.7 15.6 22.2h-.3c2.3 1.9 4.5 4.5 6.8 6.9c2.3 2.4 4.6 4.5 6.8 5.4c1 1.1 4.2 3.3 3.1 3c2.1 1.2 4.6 3.2 7.6 5.1c2.9 2 6.2 3.9 9.5 5c-.6 -.3 -.9 -.4 -1.6 -.6c5.9 3.5 11.8 5.2 18.5 7.8c-.7 -.1 -2 -.5 -2.3 -.3c2.5 1.3 6.6 1 7.8 2.5c1.6 .4 1.3 -.3 .3 -.5c7.6 2.2 15.8 3.6 24.1 4.2c8.3 .6 16.7 .4 25 -.2c6 0 6.2 .3 6.1 .7c-.1 .2 -.5 .4 4.1 -.5c.8 .1 .5 -.5 .7 -.3c3.5 -.7 5.8 .5 8.2 -.4c-1.1 -.6 1.6 -.7 1.6 -1.1c3.7 -.4 5.9 -.6 7.9 -.9c2 -.2 3.8 -.6 6.5 -1.5l-.3 .4c6.3 -2.6 14 -4.3 19 -7.3c17.5 -6.3 33.8 -14.8 48.2 -25.5c14.3 -10.8 26.9 -23.7 34.9 -39.4c4.1 -7.7 7.2 -15.9 9.7 -24.3c2.4 -8.5 4.1 -17.2 5.2 -25.9c1 -8.7 1.4 -17.6 .9 -26.4c-.5 -8.8 -1.7 -17.6 -4.2 -26c-.4 -2 -.8 -3.6 -1.1 -5c-.4 -1.3 -.8 -2.5 -1.2 -3.6c-.8 -2.3 -1.8 -4.6 -3.8 -8.9c.3 .3 .6 .9 .5 .2c-.9 -.1 -2.7 -6.1 -3.7 -6.6c-5.3 -12.5 -11 -23.8 -17.3 -36.4c1.1 2 2.1 2.7 .9 .4l-1.7 -2.3v-.5c-.9 -1.6 -2.1 -3.1 -1.5 -1.4c-8.2 -15.6 -16.2 -31.4 -23.2 -47.6c-3.5 -8.2 -6.9 -16.4 -9.3 -25.2c-1.1 -4.5 -2.1 -9.1 -2.1 -14.2c.1 -2.6 .5 -5.4 1.8 -8.2l.1 -.1l.1 -.2l.1 -.2c0 -.1 .1 -.2 .2 -.4l.4 -.6l.4 -.5c.4 -.7 .9 -1.3 1.5 -1.8c1 -1 2.2 -1.9 3.3 -2.6c4.4 -2.5 9.7 -3.9 14.9 -5c5.3 -1 10.6 -1.6 15.2 -2c13.6 -.2 26.3 .8 39 1.8c12.8 1.1 25.4 2.4 39 3.9c0 0 -3.8 1.5 -15 .7Z" class="g3_65"/>
<path d="M202.7 203.8c1 .4 4.1 .4 1.7 1.1c-.3 -.4 -2 -.7 -1.7 -1.1Z" class="g3_65"/>
<path d="M269.1 220.8c0 .2 -.8 .7 -1 .9c.6 -.7 .9 -1.6 1.4 -2c-.5 .7 -.3 .7 -.4 1.1Z" class="g3_65"/>
<path d="M254.2 235.5c0 -.5 2.9 -3.9 4.8 -5.9c-1.6 2 -3.2 3.9 -4.8 5.9Z" class="g3_65"/>
<path d="M239.7 249.2c-1.3 1.1 -1.1 .7 .4 -1.1c.2 0 -.2 .6 -.4 1.1Z" class="g3_65"/>
<path d="M239.4 250.8c-1 1.3 -1.7 1.8 -2.4 2.3c.3 .1 2.3 -3.1 2.4 -2.3Z" class="g3_65"/>
<path d="M213.4 285.4c-.5 .9 -1.4 3 -2.2 3.6c.8 -.8 2.2 -4.6 2.2 -3.6Z" class="g3_65"/>
<path d="M204.1 303.2c-.3 .6 -.4 .8 -.7 1.5c-.7 1 -.3 -.2 .1 -1.1Z" class="g3_65"/>
<path d="M218.1 640.9l-1.9 -1l.4 -.1Z" class="g3_65"/>
<path d="M372.9 643.7c1.9 -1.1 1.5 -.3 1.9 -.4c-1.8 .8 .5 -.7 -1.9 .4Z" class="g3_65"/>
<path d="M439.4 590.6l-.4 .5l-.4 -.6Z" class="g3_65"/>
<path d="M274.6 224.7c0 3 -2.5 5.5 -5.5 5.5c-3 0 -5.5 -2.5 -5.5 -5.5c0 -3 2.5 -5.4 5.5 -5.4c3 0 5.5 2.4 5.5 5.4Z" class="g1_65"/>
<path d="M274.6 224.7c0 3 -2.5 5.5 -5.5 5.5c-3 0 -5.5 -2.5 -5.5 -5.5c0 -3 2.5 -5.4 5.5 -5.4c3 0 5.5 2.4 5.5 5.4Z" class="g4_65"/>
<path d="M192.8 205c0 3 -2.4 5.4 -5.4 5.4c-3 0 -5.5 -2.4 -5.5 -5.4c0 -3 2.5 -5.5 5.5 -5.5c3 0 5.4 2.5 5.4 5.5Z" class="g1_65"/>
<path d="M192.8 205c0 3 -2.4 5.4 -5.4 5.4c-3 0 -5.5 -2.4 -5.5 -5.4c0 -3 2.5 -5.5 5.5 -5.5c3 0 5.4 2.5 5.4 5.5Z" class="g4_65"/>
<path d="M460.6 470.6c0 3 -2.5 5.5 -5.5 5.5c-3 0 -5.5 -2.5 -5.5 -5.5c0 -3 2.5 -5.4 5.5 -5.4c3 0 5.5 2.4 5.5 5.4Z" class="g1_65"/>
<path d="M460.6 470.6c0 3 -2.5 5.5 -5.5 5.5c-3 0 -5.5 -2.5 -5.5 -5.5c0 -3 2.5 -5.4 5.5 -5.4c3 0 5.5 2.4 5.5 5.4Z" class="g4_65"/>
<path d="M488.4 316.4c-.1 .1 .2 .2 0 .1c0 -.1 0 -.2 0 -.1Z" class="g3_65"/>
<path clip-path="url(#c0_65)" d="M494 301.9c.8 -.5 .8 .5 1.5 .3c.1 0 -.3 .4 -.1 .4c.7 -.3 1.1 .4 1.3 1.2l-.1 .1c0 .1 .4 -.2 .4 -.1c0 .1 -.1 .1 -.1 .2c.1 -.2 .2 0 .3 -.1c0 .1 -.1 .3 -.1 .4l.2 -.2c.6 -.6 .3 .3 .8 .1q-.1 0 -.2 .1c.6 -.2 1 .2 1.4 .3c-.1 .1 -.2 .2 -.2 .4c.2 -.3 .3 -.3 .5 -.3c-.2 .3 .3 -.2 .3 .1c.2 -.2 0 .3 .3 0l-.1 .2c.3 -.3 0 .3 .2 .2v-.1c.2 -.1 .1 .2 .2 .1l-.1 .1c.2 0 .2 .2 .4 -.1c-.1 .3 -.2 .1 -.4 .5c.7 0 1.1 .3 1.6 .6c0 .2 0 .3 -.1 .4c.1 0 .2 .1 .4 -.1c0 0 -.1 .2 -.1 .2c0 .2 .3 -.2 .3 0c-.1 0 -.1 .1 -.2 .2c.2 -.2 .3 0 .5 -.1q-.1 .1 -.2 .2c.3 -.2 .2 .2 .4 .1l-.2 .1c0 .3 .3 -.3 .4 -.1c-.1 0 -.2 .1 -.2 .2c.3 -.3 .4 0 .6 -.1c0 0 0 .1 0 .1c.1 0 .2 .2 .4 .2c0 .1 -.3 .4 -.1 .4c.3 -.3 .3 0 .5 -.4c.1 .1 .2 .4 .4 .3c-.2 .1 -.3 .5 -.4 .4l-.1 .3c-.1 .2 0 -.1 -.1 .1c0 0 .3 0 .3 .1c.2 -.2 .6 -.6 .8 -.5c-.2 .1 -.3 .4 -.4 .5l.7 -.6c.1 0 -.2 .3 0 .2c0 -.1 .1 -.1 .2 -.2c0 .1 .2 .1 0 .4c-.1 .2 -.1 .1 -.1 .2c0 .1 .1 0 .2 0v.1c0 .1 .3 -.1 .3 -.3c0 0 -.1 .2 -.1 .1c.2 -.2 .3 -.2 .4 -.1c0 0 -.1 .1 -.2 .2c.3 -.2 .5 -.2 .7 -.3c.1 -.1 -.2 .3 -.2 .2c0 .4 .6 -.1 .5 .4c0 0 .2 -.3 .1 -.2c.1 0 -.1 .3 0 .2c-.1 .2 .1 0 .2 0c.1 -.1 0 .1 -.1 .1c.1 -.1 .3 -.1 .5 0l2 .8l-2.3 1.4c-.1 0 -.2 .1 -.3 0c.1 .1 0 .4 0 .4l-.1 -.2c-.1 -.2 -.1 .1 -.2 -.2c0 .4 .3 -.4 .2 -.1c-.1 -.2 0 .5 -.1 .1c-.1 .1 -.1 .4 -.3 .2c.1 0 0 -.4 -.1 -.3c-.1 .1 0 .1 -.1 .2v.2c.1 .2 -.1 0 0 .2c-.1 -.2 -.1 .2 -.2 -.2l-.1 -.3c-.1 0 0 .3 0 .5c0 0 -.1 -.1 -.1 -.1c.2 .5 -.1 0 -.1 .4c-.1 -.1 -.3 .1 -.4 -.2c-.1 .2 -.1 .4 -.2 .3c0 0 0 -.1 0 -.2c-.2 -.1 -.1 0 -.2 .1c0 0 -.2 -.2 -.3 -.4c-.1 .2 .1 .5 .1 .7c-.3 -.5 -.1 .4 -.4 0c0 -.1 0 -.3 -.1 -.4c-.2 -.5 0 .4 -.2 .2l.1 .4c-.1 -.2 -.1 .3 -.2 -.1c0 .2 -.2 -.1 -.1 .3c-.3 -.2 -.4 .4 -.8 -.3c0 .1 -.1 .1 0 .3c.1 .2 0 -.2 .1 -.1c-.1 .1 0 .2 0 .2c-.1 0 -.2 0 -.2 -.4c-.3 -.2 .1 .7 -.2 .6c0 -.1 -.1 -.2 -.1 -.1v.3c-.2 0 -.2 -.4 -.4 -.6c0 0 -.1 .1 0 .3l-.3 -.3c.2 .2 .1 .1 0 .2l.1 -.1c-.1 -.1 -.2 0 -.2 .1c.1 .1 .2 .2 .3 .2c0 .2 -.1 .1 -.1 .3c-.1 -.3 -.2 -.1 -.2 -.2c-.1 0 0 .3 0 .3c-.1 -.1 -.1 0 -.2 -.2c0 0 .1 .1 .1 0c-.1 -.1 -.1 -.3 -.2 -.1c0 .1 .3 .5 .1 .4c0 -.1 -.1 -.2 -.1 -.3l-.1 -.1l.1 .2c-.1 0 -.1 -.1 -.1 -.1c.1 .3 -.1 .1 -.1 .5c0 0 -.1 -.2 -.2 -.2c-.1 -.1 -.2 0 -.2 .2v-.1c0 0 -.1 .1 -.1 .3c-.2 -.2 -.4 -1 -.4 -.6c0 0 .1 .5 .2 .6c-.3 -.1 -.3 .4 -.6 .1q0 .1 0 .2c-.3 0 -.4 .5 -.8 .1c.1 -.2 0 -.3 -.1 -.4c0 .2 -.2 -.2 0 .2c.1 .2 .1 .3 .2 .4c-.1 .1 -.3 .2 -.5 0c.1 .1 .1 .2 .1 .3c-.1 -.4 -.3 -.4 -.3 -.2l.1 .2l-.2 -.2c0 .1 .2 .5 0 .3c0 -.1 -.1 -.2 -.1 -.2c0 .2 0 .5 -.2 .4l-.2 -.3c0 0 0 .2 .1 .3c-.2 -.1 -.3 -.1 -.5 -.4c0 .8 -.4 1 -.7 1l-.1 -.1c-.1 -.2 .1 .3 0 .2c0 -.2 -.2 -.4 -.2 -.6c-.2 -.1 -.1 .4 -.1 .5c.1 .2 0 -.2 .1 .1c0 .1 -.2 -.1 -.1 .2c-.1 -.1 -.2 -.4 -.2 -.5v.2c-.3 -.4 -.1 -.8 -.3 -1.2l-.1 .1c-.2 -.3 .1 -.5 -.2 -.5c0 .2 .1 .7 .3 .8c-.2 .1 .2 .8 0 .8c-.1 -.2 .1 -.1 0 -.3c-.2 -.3 -.1 .2 -.2 .1c.1 .1 .2 .4 .1 .5c-.1 -.1 0 -.3 -.2 -.3c.1 .2 0 .4 .2 .5c.1 .4 -.2 -.1 -.1 .3c-.2 -.3 -.2 -.8 -.4 -.9c.2 .3 0 .5 .3 .9c-.1 -.1 -.2 -.3 -.2 -.5c-.2 -.2 0 .6 -.3 0l.1 .3l-.2 -.3c-.1 .1 -.1 .5 -.2 .1c0 0 -.2 0 0 .3c.2 .2 0 -.2 .2 .2c-.2 -.3 -.1 .1 -.1 .2l-.1 -.2c0 .1 -.1 .1 0 .3c0 -.1 -.1 -.2 -.1 -.3v.3c0 .2 -.2 -.4 -.3 -.3l.1 -.3c0 .1 -.2 -.1 -.2 0l.2 .7c-.1 .1 -.2 -.2 -.1 0l-.1 -.3c0 -.1 -.2 -.4 -.2 -.3c-.1 .1 0 .5 .1 .6c0 0 -.2 -.2 -.2 -.3c-.1 .1 .1 .2 .1 .4c-.1 -.2 -.3 -.3 -.5 -.5v-.5h-.1c0 -.3 -.1 -.2 -.2 -.5c-.1 -.1 -.1 .1 -.1 .2c.3 .5 .1 .7 .4 1.2c-.2 .2 -.6 -1.1 -.5 -.3c.1 .1 .1 .5 .2 .3c-.1 0 .1 .6 -.1 .4c0 -.2 -.3 -.4 -.2 -.8c0 .2 .1 .1 .1 0c-.1 -.1 -.2 -.5 -.3 -.4q-.1 .1 0 .4c.1 .2 .1 -.1 .1 .2c-.1 .1 -.3 -.3 -.1 .2c0 0 .2 .3 .2 .4v.2l-.1 -.2c-.2 -.1 .1 .4 -.1 .4l-.2 -.4c-.1 -.3 .3 .1 .1 -.4c-.1 0 -.1 .3 -.2 .2q0 -.1 0 -.2c0 0 -.3 -.6 -.3 -.2c0 .2 .1 .2 .1 .4c-.1 .1 -.1 .3 -.2 .4c-.1 -.4 -.2 0 -.2 -.4c.1 .2 .4 .1 .3 -.3c-.2 -.4 .1 0 0 -.4c-.1 0 -.3 -.5 -.4 -.7c-.1 0 -.1 .1 -.1 .1c.1 .3 .2 .3 .3 .6c-.2 0 -.3 .2 -.3 .5c-.1 -.2 -.1 -.4 -.1 -.5c-.1 .2 -.3 .2 -.5 .2c.2 .4 -.2 .1 0 .5c.2 .1 .4 .3 .4 .6c-.1 0 -.1 -.2 -.1 -.3c0 .2 -.3 -.4 -.2 0c.1 -.2 -.2 -.5 -.3 -.9c0 .3 -.1 -.2 -.2 -.2c0 .2 -.1 .4 -.2 .6c-.3 -.3 -.4 .1 -.5 .2c-.2 -.2 -.3 -.6 -.4 -.6c-.1 0 .2 .4 0 .2c0 .1 -.3 -.2 -.2 .4l-.1 -.5c0 0 0 .1 0 .1c-.1 -.1 -.1 -.2 -.1 -.3c-.2 -.3 -.2 .1 -.3 .1l.2 .3c-.1 .2 -.3 0 -.4 .2l-.1 -.3v.2c-.1 -.3 -.3 -.4 -.2 -.2v-.7c.1 .2 0 .4 .2 .6c.1 .2 .2 .1 .1 -.2c0 0 0 .1 0 .2c-.2 -.4 -.1 -.4 -.1 -.6c-.1 0 -.1 -.1 -.1 0q0 -.2 .1 -.2c0 .1 .1 .2 .2 .3c-.2 -.3 -.1 -.5 0 -.4c.3 .3 .2 -.3 .4 -.3c0 .3 0 .6 0 .8c.1 .1 .1 -.1 .2 .1c0 -.3 -.1 -.7 -.1 -.8l.1 .2c.1 -.2 0 -.5 .1 -.5c.3 .1 .5 0 .7 -.1l.1 .3c-.1 -.6 .2 -.3 .2 -.6c.3 .2 .4 -.4 .7 0c.3 -.3 .5 -.6 .9 -.7l.1 .4c0 -.3 .1 .2 .2 .1c-.2 -.2 -.1 -.4 -.1 -.6c.3 .2 .4 -.2 .5 -.5v.3c0 -.5 .4 -.2 .6 -.2c0 .1 .1 .3 .2 .2q0 -.4 .1 -.7c.1 0 .3 0 .5 .1c.2 -.6 .8 -.5 1.1 -.9l.1 .2c.2 -.7 .9 -.4 1.2 -.8l.1 .5c.2 .1 .2 -.2 .1 -.5c.1 .1 .2 -.4 .4 0c.1 0 0 -.3 .1 -.4c.3 .1 .4 0 .6 -.1h-.1c0 .1 .1 .3 .1 .3c.1 -.2 .4 0 .1 -.5c.4 .2 .5 -.5 .8 -.1q0 -.2 0 -.3c.2 -.1 .5 .1 .6 -.2c.1 .1 0 .3 .1 .3c.1 -.1 0 -.2 0 -.3c.2 -.4 .8 0 1 -.2c.5 -.5 1.1 -.5 1.6 -.7v.1c0 -.5 .6 .2 .5 -.4c0 .1 .1 0 .2 .2c0 -.4 .5 .1 .5 -.3v.1c.3 .1 .3 -.3 .6 -.1c0 0 0 .1 0 .2c.2 .2 0 -.5 .3 0c0 -.1 -.1 -.3 -.1 -.3c.5 .1 .9 -.5 1.3 -.8c.5 .2 .4 .9 .5 .4c.1 .1 -.1 -.2 0 -.1c0 -.2 .4 .6 .3 .3c-.1 -.3 0 -.3 0 -.3l-.3 2.7q-.1 0 -.1 .1c-.1 -.3 .1 -.6 -.2 -.5l.1 -.1c-.5 .3 -.5 -.1 -1 .3c-1 -.5 -2.1 -.9 -3.1 -1.4c-.8 -.7 -1.8 -1.1 -2.6 -2q0 -.5 -.3 -.5c0 -.1 .1 -.1 .1 -.1c-.2 .3 -.2 -.1 -.4 .2c-.3 -.3 -.7 -.4 -1.1 -.7c.1 0 .3 -.2 .2 -.2l-.2 .1l.1 -.1c-.1 0 -.3 .2 -.3 .3c-1.1 -.3 -1.5 -1.5 -2.4 -2c-.1 -.3 -.5 -.4 -.8 -.5c-.3 -.8 -.7 -1.6 -1.6 -1.7c0 0 .7 -.8 1.1 -.8Z" class="g3_65"/>
<path d="M488.6 316.3c.1 .2 .2 .2 .2 .5c-.1 -.2 -.2 -.3 -.2 -.5Z" class="g3_65"/>
<path d="M491.6 317.3c0 0 .1 .1 .1 .1c-.1 .1 0 .2 -.1 .1c0 0 0 -.1 0 -.2Z" class="g3_65"/>
<path d="M492.2 317.2c.1 .2 0 .4 -.1 .4Z" class="g3_65"/>
<path d="M493 317.7c.1 .1 .1 .2 .1 .2q-.1 -.1 -.1 -.2Z" class="g3_65"/>
<path d="M492.9 317.3c.1 0 .1 .1 .2 .2c-.1 -.2 -.1 .1 -.2 -.2Z" class="g3_65"/>
<path d="M494.3 317.4c0 -.1 0 -.2 .1 -.1c0 -.1 0 .3 -.1 .1Z" class="g3_65"/>
<path d="M494.8 316.9c.1 0 .1 .2 .1 .2Z" class="g3_65"/>
<path d="M504.7 312.6v.1l-.1 -.2Z" class="g3_65"/>
<path d="M506.8 308.3c-.1 .1 0 -.2 0 -.2c.1 0 -.1 .2 0 .2Z" class="g3_65"/>
<path d="M504.2 307.6v0l-.2 .3Z" class="g3_65"/>
<path d="M398.2 315.3c0 3 -2.5 5.5 -5.5 5.5c-3 0 -5.4 -2.5 -5.4 -5.5c0 -3 2.4 -5.5 5.4 -5.5c3 0 5.5 2.5 5.5 5.5Z" class="g1_65"/>
<path d="M398.2 315.3c0 3 -2.5 5.5 -5.5 5.5c-3 0 -5.4 -2.5 -5.4 -5.5c0 -3 2.4 -5.5 5.4 -5.5c3 0 5.5 2.5 5.5 5.5Z" class="g4_65"/>
</svg>