<?xml version="1.0" encoding="UTF-8" standalone="no"?>
<!DOCTYPE svg PUBLIC "-//W3C//DTD SVG 1.1//EN"
"http://www.w3.org/Graphics/SVG/1.1/DTD/svg11.dtd">
<svg viewBox="0 0 660 990" version="1.1" xmlns="http://www.w3.org/2000/svg" xmlns:xlink="http://www.w3.org/1999/xlink">
<defs>
<style type="text/css"><![CDATA[
.g0_75{
fill: none;
stroke: #949698;
stroke-width: 0.763;
}
.g1_75{
fill: #FFF;
}
.g2_75{
fill: none;
stroke: #231F20;
stroke-width: 2.75;
}
.g3_75{
fill: #231F20;
}
.g4_75{
fill: none;
stroke: #231F20;
stroke-width: 1.833;
}
]]></style>
</defs>
<path d="M318.5 969.1h23" class="g0_75"/>
<path d="M206.9 530.1H443.4V696.8H206.9V530.1Z" class="g1_75"/>
<path d="M206.9 530.1H443.4V696.8H206.9Zm118.2 0V696.8" class="g2_75"/>
<path d="M416 479.4H230.7V279H416V479.4Z" class="g1_75"/>
<path d="M416 479.4H230.7V279H416ZM230.7 379.2H415.9" class="g2_75"/>
<path d="M432.3 411.9c-.1 .2 .2 .3 0 .2c0 -.1 -.1 -.2 0 -.2Z" class="g3_75"/>
<path d="M436.4 398.2c.7 -.5 .8 .5 1.4 .2c.1 0 -.2 .4 -.1 .4c.7 -.4 1.1 .2 1.3 .9l-.1 .1c0 .2 .3 -.2 .4 -.1c0 .1 -.1 .1 -.1 .3c.1 -.3 .2 -.1 .3 -.2c0 .1 -.1 .3 -.1 .4l.2 -.2c.5 -.6 .3 .2 .7 0c0 .1 -.1 .1 -.1 .2c.5 -.2 .9 0 1.3 .1c-.1 .1 -.2 .2 -.2 .4c.2 -.3 .3 -.3 .4 -.3c-.1 .3 .3 -.2 .3 0v.1c.2 -.3 0 .2 .3 -.1l-.1 .3c.3 -.4 0 .2 .2 .1v-.1c.2 -.1 .1 .1 .2 .1v.1c.2 -.1 .1 .2 .3 -.1c-.1 .3 -.2 0 -.3 .4c.6 0 1 .3 1.5 .5q0 .2 -.1 .4c.1 -.1 .2 0 .4 -.1c-.1 0 -.1 .1 -.1 .2c0 .1 .3 -.3 .3 -.1c-.1 0 -.1 .1 -.2 .2c.2 -.1 .3 -.1 .4 -.1c0 .1 -.1 .1 -.1 .2c.3 -.2 .2 .1 .3 0l-.1 .2c0 .3 .3 -.4 .3 -.2q-.1 .1 -.1 .2c.3 -.3 .4 0 .6 -.1c-.1 0 -.1 .1 -.1 .1c.2 0 .2 .2 .5 .1c0 .1 -.3 .4 -.1 .5c.2 -.4 .3 -.1 .4 -.5c.1 .1 .2 .3 .3 .3c-.1 .1 -.2 .4 -.3 .4v.3c-.1 .1 -.1 -.1 -.1 .1c0 0 .2 -.1 .2 0c.3 -.2 .6 -.5 .7 -.5c-.1 .1 -.2 .4 -.2 .4l.5 -.5c.1 0 -.1 .3 0 .2q.1 -.1 .2 -.2c0 0 .2 0 .1 .4c-.1 .1 -.2 0 -.2 .2c.1 0 .2 -.1 .3 -.1l-.1 .1c.1 .1 .3 -.1 .3 -.3c0 0 -.1 .2 -.1 .1c.2 -.2 .3 -.2 .4 -.2c-.1 .1 -.1 .2 -.2 .3c.3 -.2 .5 -.3 .7 -.3c.1 -.2 -.3 .3 -.2 .2c0 .3 .5 -.2 .5 .2c-.1 .1 .1 -.2 0 -.1c.1 0 0 .3 .1 .2c-.1 .1 .1 0 .1 0c.1 -.1 0 .1 0 0c.1 0 .2 0 .4 0l1.9 .6l-2 1.5c-.1 0 -.2 0 -.3 0c.1 .1 .1 .4 0 .4l-.1 -.2c0 -.2 -.1 0 -.2 -.1c.1 .3 .3 -.4 .2 -.2c-.1 -.1 0 .5 -.1 .2c-.1 0 0 .3 -.2 .1c0 0 -.1 -.3 -.1 -.3c-.1 .1 0 .1 -.1 .3v.1c.1 .2 -.1 0 0 .2c-.1 -.2 -.1 .2 -.2 -.2l-.2 -.3c0 .1 .1 .4 .1 .5l-.1 -.1c.2 .5 -.1 0 0 .4c-.2 -.1 -.3 .1 -.5 -.1c0 .1 0 .3 -.1 .3q0 -.1 0 -.2c-.2 -.1 -.1 0 -.1 .1c-.1 -.1 -.3 -.2 -.4 -.3c0 .1 .1 .4 .2 .5c-.3 -.4 -.1 .4 -.4 .1c0 -.1 0 -.3 -.1 -.4c-.3 -.4 0 .4 -.2 .2l.2 .4c-.2 -.2 -.1 .3 -.3 -.1c.1 .2 -.2 0 0 .3c-.3 -.2 -.4 .4 -.8 -.2c0 .1 -.1 .1 0 .2c.1 .2 0 -.1 .1 0c0 0 0 .1 0 .2q-.1 -.1 -.2 -.4c-.3 -.2 .1 .7 -.1 .6q-.1 -.2 -.2 -.2l.1 .3c-.2 0 -.3 -.3 -.4 -.5c0 .1 -.1 .1 0 .3l-.3 -.3c.2 .2 .1 .2 .1 .2c-.1 -.1 -.1 0 -.2 0c.1 .2 .2 .2 .3 .2c0 .1 -.1 .1 0 .3c-.1 -.3 -.2 -.1 -.3 -.1c-.1 -.1 .1 .2 0 .2c0 -.1 -.1 0 -.1 -.2c0 0 .1 .1 .1 0c-.1 -.1 -.2 -.3 -.2 -.1c0 .1 .2 .5 .1 .4c0 -.1 -.1 -.2 -.1 -.3l-.1 -.1v.2v-.1c.1 .3 -.1 .2 0 .5c-.1 0 -.2 -.2 -.3 -.2c-.1 -.1 -.1 0 -.1 .2q-.1 0 -.1 .2c-.2 -.2 -.4 -.9 -.4 -.5c-.1 0 .1 .4 .2 .6c-.2 -.1 -.2 .3 -.5 0c0 .1 0 .2 0 .3c-.3 0 -.3 .4 -.7 .1c0 -.1 -.1 -.3 -.2 -.4c.1 .2 -.1 -.2 0 .2c.1 .2 .1 .3 .2 .3c0 .2 -.2 .3 -.4 .1c.1 .1 .1 .2 .1 .3c-.2 -.4 -.3 -.4 -.3 -.2l.1 .2l-.2 -.2c0 .1 .2 .4 0 .3c0 -.1 0 -.2 -.1 -.2c0 .2 0 .5 -.1 .4l-.2 -.3c0 .1 0 .3 .1 .3c-.2 -.1 -.3 -.1 -.5 -.3c0 .7 -.3 .9 -.6 1v-.2c-.2 -.1 0 .3 -.1 .2c0 -.1 -.2 -.3 -.2 -.5c-.2 -.1 0 .4 0 .5c0 .2 0 -.2 .1 .1c0 0 -.3 -.1 -.1 .2c-.1 -.1 -.2 -.4 -.2 -.5v.2c-.3 -.3 -.1 -.7 -.4 -1.1l-.1 .1c-.1 -.3 .1 -.4 -.1 -.5c0 .2 .1 .7 .2 .8c-.1 .1 .3 .7 .1 .7c-.1 -.1 .1 -.1 0 -.3c-.2 -.2 -.1 .2 -.2 .2c.1 0 .2 .3 .2 .4c-.2 -.1 -.1 -.3 -.2 -.3c0 .2 0 .4 .1 .5c.2 .4 -.1 -.1 -.1 .2c-.1 -.2 -.1 -.6 -.3 -.7c.1 .2 0 .4 .2 .8c0 -.1 -.1 -.3 -.2 -.5c-.1 -.1 .1 .6 -.2 .1l.1 .2l-.2 -.2c-.1 0 0 .4 -.2 0c0 .1 -.1 .1 0 .4c.2 .1 0 -.3 .3 .1c-.2 -.3 -.1 .1 -.1 .2l-.1 -.2c0 .1 -.1 .1 0 .3c-.1 -.1 -.1 -.2 -.2 -.2l.1 .2c0 .2 -.2 -.4 -.3 -.3v-.2c0 .1 -.1 -.1 -.1 0l.2 .6c0 .1 -.2 -.2 -.1 0l-.1 -.3c0 0 -.2 -.3 -.3 -.2c0 .1 .1 .4 .2 .5c0 0 -.1 -.1 -.2 -.3c0 .2 .1 .3 .1 .4c-.1 -.1 -.3 -.3 -.4 -.4l-.1 -.4h-.1c0 -.3 -.1 -.2 -.2 -.5c-.1 -.1 -.1 .1 -.1 .2c.4 .4 .2 .7 .4 1.1c-.1 .2 -.5 -1 -.4 -.3c.1 .1 .2 .5 .2 .3c-.1 0 .1 .5 -.1 .4c.1 -.2 -.2 -.4 -.2 -.7c0 .1 .1 0 .1 0c-.1 -.2 -.2 -.5 -.3 -.4q-.1 .1 0 .3c.1 .3 .1 0 .1 .2c0 .2 -.2 -.2 -.1 .3c.1 -.1 .2 .2 .3 .3v.2l-.1 -.2c-.2 -.1 .1 .3 -.1 .3l-.2 -.3c-.1 -.3 .3 .1 0 -.4c-.1 0 0 .3 -.1 .2c0 0 0 -.1 0 -.1c0 0 -.4 -.6 -.3 -.2q0 .2 .1 .3c-.1 .2 -.1 .4 -.1 .4c-.2 -.3 -.2 .1 -.3 -.3c.2 .2 .4 0 .3 -.3c-.3 -.4 .1 0 -.1 -.4c-.1 0 -.2 -.4 -.4 -.6c0 0 0 .1 0 .1q.1 .3 .2 .5c-.1 0 -.2 .2 -.1 .5c-.1 -.1 -.2 -.4 -.2 -.4c-.1 .1 -.3 .2 -.5 .2c.3 .3 -.1 .1 .1 .4c.1 .1 .3 .3 .4 .5c-.1 0 -.1 -.1 -.2 -.2c.1 .2 -.2 -.3 -.1 0c.1 -.1 -.2 -.5 -.3 -.8c0 .2 -.1 -.2 -.2 -.2c0 .3 -.1 .5 -.2 .6c-.3 -.3 -.3 .1 -.5 .2c-.1 -.1 -.2 -.5 -.3 -.5c-.1 0 .2 .3 0 .2v-.1c0 .1 -.3 -.1 -.1 .4l-.2 -.4c0 0 0 .1 0 .1c-.1 -.1 -.1 -.2 -.1 -.3c-.2 -.2 -.2 .1 -.2 .2l.1 .2c-.1 .2 -.2 0 -.4 .2v-.2l-.1 .1c0 -.2 -.2 -.3 -.1 -.1l-.1 -.6c.1 .1 .1 .3 .2 .5c.1 .1 .2 0 .2 -.2q-.1 0 -.1 .1q-.1 -.3 -.1 -.5c0 0 -.1 -.1 -.1 0c0 -.1 0 -.2 .1 -.2c0 .1 .1 .2 .2 .3c-.2 -.3 -.1 -.4 0 -.4c.2 .3 .1 -.3 .3 -.3c.1 .3 .1 .6 .1 .7c.1 .1 .1 0 .2 .1c-.1 -.2 -.2 -.6 -.1 -.7l.1 .2c0 -.2 -.1 -.5 0 -.5c.2 0 .4 -.1 .6 -.1l.1 .2c-.1 -.5 .2 -.3 .2 -.5c.3 .1 .3 -.4 .6 -.1c.2 -.3 .5 -.6 .8 -.7l.1 .4c0 -.3 .1 .1 .2 0c-.2 -.2 -.1 -.3 -.1 -.5c.2 .2 .3 -.2 .4 -.5l.1 .2c-.1 -.4 .2 -.1 .4 -.2c.1 .1 .2 .3 .3 .3c-.1 -.4 0 -.4 0 -.7c.1 0 .3 0 .5 .1c.1 -.7 .6 -.5 .9 -1l.1 .2c.2 -.7 .8 -.4 1 -.8l.2 .4c.2 .1 .2 -.2 0 -.5c.2 .1 .2 -.3 .4 0c.1 .1 0 -.2 .1 -.3q.3 0 .5 -.2h-.1c.1 .1 .1 .3 .2 .3c0 -.2 .3 0 0 -.5c.4 .2 .4 -.4 .8 -.1q-.1 -.2 -.1 -.3c.2 -.1 .5 .1 .5 -.2c.1 0 .1 .2 .2 .2c0 -.1 -.1 -.2 -.1 -.3c.2 -.3 .7 0 1 -.2c.3 -.4 .9 -.5 1.3 -.8l.1 .1c0 -.4 .5 .2 .4 -.4c0 .1 .1 0 .2 .2c0 -.3 .4 .1 .5 -.3q-.1 0 -.1 .1c.3 .1 .3 -.3 .6 -.2q0 .1 0 .2c.2 .2 0 -.5 .3 0c0 0 -.1 -.3 -.1 -.2c.5 0 .8 -.5 1.2 -.8c.4 .1 .3 .8 .4 .3c.1 .1 -.1 -.2 0 -.1c0 -.2 .4 .5 .3 .2c-.1 -.2 0 -.2 0 -.3l-.2 2.6c-.1 -.3 0 -.5 -.2 -.4v-.1c-.4 .3 -.4 0 -.8 .4c-1 -.5 -2 -.7 -2.9 -1.1c-.9 -.6 -1.9 -.9 -2.6 -1.6q0 -.5 -.3 -.5q0 -.1 0 -.1c-.2 .3 -.1 -.1 -.3 .2c-.3 -.3 -.7 -.3 -1 -.5c0 0 .2 -.3 .1 -.3l-.1 .2v-.1c-.1 0 -.2 .1 -.2 .3c-1 -.2 -1.5 -1.4 -2.4 -1.7c-.1 -.3 -.5 -.3 -.7 -.4c-.4 -.8 -.8 -1.4 -1.6 -1.5c0 0 .5 -.8 .9 -.8Z" class="g3_75"/>
<path d="M432.4 411.8c.1 .2 .3 .3 .3 .5c-.1 -.2 -.2 -.3 -.3 -.5Z" class="g3_75"/>
<path d="M435.3 412.6c0 -.1 0 0 .1 .1c-.1 0 0 .1 -.1 .1q0 -.1 0 -.2Z" class="g3_75"/>
<path d="M435.9 412.4c0 .2 0 .4 -.1 .4Z" class="g3_75"/>
<path d="M436.6 412.8c.1 .1 .2 .2 .1 .2q0 -.1 -.1 -.2Z" class="g3_75"/>
<path d="M436.5 412.5q.1 0 .2 .1c-.1 -.1 -.1 .1 -.2 -.1Z" class="g3_75"/>
<path d="M437.8 412.4c0 0 0 -.2 .1 0c-.1 -.1 0 .2 -.1 0Z" class="g3_75"/>
<path d="M438.2 412v-.1c.1 .1 .1 .2 .1 .2Z" class="g3_75"/>
<path d="M447 407.2v.1l-.1 -.1Z" class="g3_75"/>
<path d="M448.6 403.2c-.1 0 .1 -.2 .1 -.2c0 0 -.2 .2 -.1 .2Z" class="g3_75"/>
<path d="M446.2 402.7v0l-.2 .3Z" class="g3_75"/>
<path d="M399.8 597.2c-.6 .7 .7 .1 -.3 .6c-.1 -.3 -.1 -.6 .3 -.6Z" class="g3_75"/>
<path d="M442.6 405.5c-3.2 1.4 -7.1 -.5 -10.5 .6c-.4 .1 .1 -.9 -.8 -.7c-3.2 1.3 -8.2 .8 -12.3 .3l.2 -.2c-.8 -.1 -1.6 .8 -2.4 .8c-.1 -.1 .2 -.2 0 -.4c-.2 .5 -1.4 .4 -1.7 .9c-.4 -.2 -.4 -.6 -.8 -.7l-.4 .6c-1 1.7 -3.1 .6 -4.6 1.8c.1 -.2 .2 -.4 0 -.4c-2.4 1.5 -5.7 2.5 -8.4 4.2c.1 -.3 0 -.7 -.3 -.8c.2 .6 -.6 1.2 -1.3 1.7c-.6 -.4 -.9 1.2 -1.8 1.5v-.2c-.2 .9 -1.1 .3 -1.1 1.3l-.7 -.2c.3 .9 -1.1 .3 -1.2 1.1l.1 .1c-.2 .5 -.8 .4 -1 .8h-.1c-.7 1 -1.5 1.2 -1 1.6c-.7 0 .6 -1 -.4 -1.1c-2.2 3.5 -4.1 7 -4.9 11c-.4 .3 -.5 .6 -.8 .7c0 .4 -.1 1.5 .2 1.9c0 -.1 -.4 .2 -.4 .4c-.4 .8 .7 .9 .3 1.7c-.2 -.4 -.4 -.5 -.6 -.4c.5 .7 .4 1.6 .6 2.4c-.2 -.1 -.2 -.3 -.5 -.3c.7 .9 -.1 1.7 .4 2.4l-.5 -.2c-.4 1.3 .9 .3 .7 1.4c-.2 -.3 -.3 -.2 -.5 -.2c.8 1 .7 2.6 1.1 3.5c0 0 -.1 0 -.1 0c.2 1.1 .2 2.3 .8 3.4c-.1 .4 -1.1 0 -.6 1.1c.7 -.2 .8 1.9 1.5 1c.1 .9 .3 2.5 .8 3c-.4 -.3 -.8 .8 -1.1 .1l-.3 .7c-.3 0 -.1 -.6 -.4 -.3c.2 .4 .9 1.4 .9 1.8c.8 .5 1.9 .8 2.5 1.9c-.5 -.4 -.6 .7 -.9 .4c.7 .3 1.4 .6 2.1 .8c.2 .4 -.5 .4 0 .8c.1 -.1 .4 .1 .6 .1c0 .2 1 1.4 .4 1.9c-.2 .4 -.5 -.4 -.5 .1c.4 .6 .6 .5 1 1.2c.1 .5 1 1.1 1.1 .4c-.2 -.3 -.3 .4 -.4 -.2c.6 .1 1.1 .7 1.6 1.4c-.3 -.2 -.4 0 -.7 0c1.1 .5 1.9 1.3 2.7 2c.3 -.2 -.8 .1 -.7 -.2c.4 1.5 2.3 2 2.4 3.4c-.1 -.1 .4 -.4 .3 -.3c.4 .6 0 .9 .4 1.1c-.2 .3 .4 .4 .8 .7c.3 .1 -.1 .2 -.3 -.1c.6 .4 2.6 2.1 3.2 3.6c.1 -.2 1.2 .2 1.4 .5l-.5 .2c0 .5 .8 .9 .5 1.2c1 .2 -2.2 -1.9 -1.2 -1.4c-.2 .5 1.5 .6 .8 .9c.5 .5 1.4 .7 1.4 1.5c0 -.2 -.9 0 -.5 .4c.7 .7 .4 .1 1 .6l.5 .3c.4 -.3 .5 .7 .7 .1c-.2 .3 1.1 1 .4 1.4l-.6 .3c.3 .3 1 .1 1.4 .2c0 .1 0 .3 -.1 .3c.8 -.5 .6 .9 1.5 .8c.3 1 1.4 1.9 1.2 2.6c.7 .4 1.4 .7 1.7 1.5c-.2 -.1 -.3 -.2 -.5 -.2c0 .6 .3 .6 .7 .9c-.2 0 .2 1.1 .2 1.8c.6 .4 .9 -.1 1.2 -.3c-.4 1.1 1.7 1.3 1.4 2.5c-.2 -.1 -.9 -.6 -.8 0c-.4 1.1 1.3 .7 1.5 1.9l.5 -.7c-.1 .7 1.3 1.1 .5 1.4c.5 .1 .5 1.2 1.1 .7c.3 1.8 2.5 3.4 1.7 5c.3 .2 .4 .8 .7 .5c.2 -.6 -.5 -.4 -.3 -.6c.1 .2 .3 .1 .4 .1c.1 .5 .3 .9 -.5 .8c.1 1.3 1.7 .5 2.1 2c-.3 .1 -.4 .2 -.1 .6l.8 .5c.3 1 -.4 .8 -.9 1.1c.3 .4 .6 1 1 1.1l-.3 .8c.2 -.6 .4 .3 .7 .5l-.3 -.2c-.1 .2 .2 .7 .4 .9c.3 -.2 .2 -.8 .1 -1.1c.4 .1 .5 .5 .9 .8c-.6 0 -.1 .9 0 1.3c.1 .5 .7 .3 .7 .5c-.2 .1 .3 .7 -.2 .5c-.2 -.1 .1 -.4 -.2 -.6c-.1 .4 -.6 .5 0 1c.4 .4 .9 -.5 .9 .5c-.2 -.2 -.4 -.1 -.6 -.3v1l.5 -.2c-.1 .2 -.2 .1 -.2 .2c.6 .1 .6 1.2 1.2 1.2c.2 .4 0 1 0 1.4c-.2 .6 .2 1.2 .7 1.5h-.1c0 .3 .3 .9 .6 1.2c-.1 .8 -1.7 .7 -.9 1.3c.2 .6 1.2 .8 1.4 .5c0 1.3 1.1 2.6 .6 4c.3 .1 .4 0 .5 .3c.2 1.9 1.3 4 .6 5.6c-.3 -.5 -.5 .1 -.8 .1c.5 .4 -.4 .6 .4 .7c.4 -.1 .6 -.1 .8 -.7c.3 1.1 .5 2.9 .1 3.6c.2 -.4 .4 -.1 .5 .1c-.7 0 -.7 .8 -.4 1.5h.4l-.4 .5c.1 .2 .9 .2 .5 .9c-.1 0 -.3 0 -.4 .2c.3 .6 1 1.6 .6 2.3l-.6 .6c.1 .3 .4 .8 .6 .3c-.4 1.2 -.4 2 -1 2.4c1.3 2.1 1.1 5.3 .7 7.7l-.4 -.1c-.3 .6 .6 .4 .3 .9c-.3 -.3 -.8 .4 -1.1 -.2c-.4 .9 .4 1.3 .5 1.9c.4 .2 -.2 -.5 .3 -.3c.1 .1 -.6 1.3 0 1.5c-.3 .2 -.7 -.1 -.9 -.2l.2 .6c-.9 .5 -1 -1.8 -2.1 -1.3v.6c-.7 .3 -.5 -1.5 -.9 -.3c.2 .6 1 1.3 1.4 .8c-.1 1.2 1.4 .9 1 2.1c-.4 .3 .2 -1 -.4 -.9c-.6 .5 0 1.3 -.3 1.8c.4 -.5 .9 .1 1 .5c-.5 .6 -.5 -.5 -.8 .4c.3 .2 .4 1.1 .8 .4c.7 .6 -.5 .9 0 1.6c-.6 .1 -1 -1.3 -1.6 -.4c.6 0 .4 1.5 1.4 1.2c-.3 .3 -.7 .2 -1 -.1c-.5 .4 .6 1.6 -.5 1.5l.5 .3c-.2 .1 -.4 .3 -.8 .5c-.2 .5 .2 1.8 -.6 1.5c.1 .2 -.3 1.3 .4 1.1c.6 -.6 -.2 -1 .7 -1.1c-.8 .3 -.2 1 -.1 1.5h-.4c.1 .2 -.2 .8 .1 1c-.1 -.2 -.4 -.2 -.5 0l.4 .4c-.1 1 -1 -.1 -1.2 .9l-.1 -.9c0 .2 -.5 .4 -.5 .9c.3 .3 .7 .8 1 1.1c0 .6 -.6 .1 -.3 .7l-.3 -.8c-.1 -.2 -.9 .1 -1.1 .8c-.1 .5 .3 1.5 .8 .9c-.1 .3 -.6 .7 -.8 .3c-.2 .8 .5 .1 .5 .9c-.4 .1 -1.2 .8 -1.8 1.1l-.4 -1l-.2 .5c-.4 -.9 -.6 .1 -1.1 -.5c-.2 .2 -.2 .7 -.1 1.1c1.3 -.5 .8 1.6 1.8 1.7c-.3 1.4 -2.5 -.2 -1.7 1.7c.3 -.1 .6 .9 .8 0c-.5 .7 .6 .9 -.2 1.7c0 -.9 -1.3 .2 -1.3 -1c.3 .2 .5 -.4 .5 -.6c-.5 .1 -.9 -.5 -1.2 .2c-.2 .6 -.5 1.2 0 1.4c.5 .2 .3 -.8 .6 -.2c-.3 1 -1.1 .8 -.5 1.6c.3 -.6 .9 -.5 1.2 -.3l-.2 .8l-.2 -.3c-.8 1 .4 .6 -.3 1.7l-.9 .1c-.4 -.6 1.1 -1.4 .1 -1.7c-.4 .7 -.1 1.1 -.7 1.7c0 -.2 .1 -.4 .1 -.6c-.2 .2 -1.5 -.2 -1.3 1.1c-.1 .7 .2 .3 .5 .6c-.5 1.1 -.4 1.6 -.8 2.4c-.5 -.6 -.8 1.1 -1 0c.6 -.1 1.5 -1.7 1.2 -2.5c-1 0 .6 -.8 -.1 -1.5c-.5 .9 -1.2 .4 -1.8 .3c-.2 .2 -.1 .5 -.1 .7c.4 .4 .6 .1 1.1 .3c-.7 .9 -1.1 2 -.9 2.8c-.5 .2 -.9 -.2 -.7 -.6c-.5 1.2 -1.4 2.3 -2.2 3.3c1.1 -.2 -.7 1.2 .2 1.2c.6 -.4 1.4 -.6 1.5 0c-.2 .3 -.3 -.3 -.5 -.2c.1 .7 -1.1 .2 -.8 1.1c.5 -1.2 -.8 -.8 -1.2 -1.4c-.2 .9 -.4 -.3 -.9 .4c-.2 .9 -.5 2 -1 2.8c-1.3 .6 -1.9 2.4 -2.6 3.3c-.6 .2 -1 -.6 -1.5 -.2c-.4 .5 1 .1 .1 .7l-.1 -.2c-.1 .4 -1.7 1.1 -1 2.1l-.5 -.8c-.1 .1 -.1 .4 -.2 .6c-.2 -.2 -.5 -.2 -.4 -.6c-.9 .1 -.9 1.1 -1.3 1.6h.6c-.5 1.2 -1.4 1.5 -2.1 2.4l-.4 -.4l-.3 .7c-.2 -.4 -.8 -.2 -.8 .4c.1 -.8 .3 -1.5 .4 -2.2c.6 -.1 .1 .8 .6 1c.5 .1 1.2 -.8 .9 -1.3c-.3 .3 -.2 .4 -.3 .7c-.6 -.3 -.1 -.8 -.3 -1.3c-.1 .2 -.4 .3 -.3 .4c0 -.5 .3 -.8 .8 -1.4c-.2 .6 .4 .1 .5 .4c-.4 -.4 -.1 -1.1 .6 -1.6c.9 0 .7 -1.5 1.5 -2.1c.2 .7 .2 1.4 0 2c.7 -.3 .5 -.5 1.1 -.8c-.1 -.5 -.5 -1.2 -.2 -2l.4 .3c.3 -.7 -.2 -1.2 .5 -1.8c1.2 -1.1 2.2 -2.5 2.9 -3.4l.4 .2c-.3 -1.1 1.1 -2.1 1.2 -3.1c1.3 -1 1.6 -3.1 2.6 -3.3c1.2 -2.6 2.1 -4.9 3.5 -7.3l.4 .7c-.2 -.7 .5 -.1 .6 -.6c-.7 .3 -.3 -1 -.5 -1.5c1.1 -.9 1.2 -2.6 1.3 -3.8l.4 .1c-.3 -1.4 .8 -2.3 1.5 -3.6c.2 -.1 .7 -.2 .8 -.6c-.4 -1 -.2 -1.3 -.3 -2.5c.2 -.8 .8 -2 1.3 -2.8c-.1 -3.2 1.2 -6.1 1.1 -9.3l.6 -.2c-.7 -3.2 .6 -6.8 .1 -9.5l.9 .3c.3 -.8 -.2 -1.9 -.8 -1.7c.2 -.8 -.5 -2 .2 -2.6c.1 -.8 -.4 -1 -.6 -1.7c.2 -1.7 .1 -2.3 -.2 -3.8v.4c.2 .1 .6 .1 .6 -.3c-.3 -.6 -.1 -2.2 -1 -1.5c.4 -1.8 -1.1 -3.8 -.7 -5.5c-.2 .1 -.4 -.2 -.6 -.4c-.3 -1.4 -.1 -3 -.9 -4.1c.1 -.3 .6 .2 .4 -.4c-.2 -.3 -.3 .1 -.6 -.2c-1.2 -2.2 -.9 -4.9 -1.8 -6.9c-1.9 -3.4 -3.4 -7.1 -5.3 -10.4h.2c-1.3 -.7 -.8 -3 -2.4 -3.2c.1 -.4 -.5 -1 0 -1c-1 -.6 -1.1 -2.7 -2.5 -3.5c0 .1 .1 .2 .3 .2c-.5 -1.4 -1.8 -2.1 -2.4 -3.6c.2 0 .4 .2 .6 .2c0 -.8 -1.5 -.7 -.9 -1.5c-.2 -.3 -.6 .1 -.4 .2c-1.8 -3 -4.6 -5.4 -7.1 -8.1c-1.2 -2.4 1.2 -1.2 -.7 -2.3c.1 -.3 -.4 .1 -.2 0c-.7 -.5 .1 -1.7 -.7 -1.8c-.3 .5 -.5 -.1 -.8 .1c-.7 -1.5 -.4 -2.1 -1.6 -2.8l.3 -.1c-1.6 -.7 -2.3 -2.4 -3.9 -2.8c-2.5 -3.3 -5 -6.8 -7 -10.6c-2 -3.8 -3.6 -7.9 -4.5 -12.2c-.3 -2.2 -.5 -4.3 -.7 -6.4c0 -1.1 -.1 -2.2 -.1 -3.2c0 -1.1 0 -2.1 .1 -3.3c.2 -2.3 .5 -4.5 1.3 -6.7c.7 -2.3 1.7 -4.5 3.1 -6.4c1 -.7 1.5 -1 1.9 -1.5c.4 -.5 .7 -1 1.4 -2c0 .1 -.1 .3 .1 .2c-.4 -.5 1.1 -1.2 .8 -1.9c2.6 -2.3 5.1 -4.2 8.1 -5.8c-.5 .3 -.4 1 .1 .6l.4 -.7l.2 .2c.3 -.3 .6 -.8 .1 -.9c3.7 -2.1 7.8 -3.2 11.7 -3.9c4 -.6 7.9 -.8 11.8 -1.3c1.9 .2 4.4 -.3 6.4 -.4c3 .4 5.8 .8 8.6 1.2c2.8 .3 5.5 .5 8.6 .6c0 0 -1.1 1.7 -3.5 1.9Z" class="g3_75"/>
<path d="M400.5 596.4c.4 .1 1.1 -.2 1 .5c-.3 -.2 -.8 -.2 -1 -.5Z" class="g3_75"/>
<path d="M415 585.3c-.1 0 .2 -.1 .3 -.1c-.1 .2 0 .5 -.2 .6c.1 -.2 -.1 -.3 -.1 -.5Z" class="g3_75"/>
<path d="M417.8 581.6c.2 .3 -.1 1.2 -.4 1.7Z" class="g3_75"/>
<path d="M421.2 578.6c.4 -.2 .5 0 .2 .4c-.1 0 -.1 -.2 -.2 -.4Z" class="g3_75"/>
<path d="M420.7 578c.2 -.3 .5 -.4 .7 -.5c-.2 -.1 -.3 .8 -.7 .5Z" class="g3_75"/>
<path d="M426 569.9c0 -.2 0 -.7 .4 -.8c-.3 .1 -.1 1.2 -.4 .8Z" class="g3_75"/>
<path d="M427.3 565.7q.1 -.2 .1 -.4c.2 -.2 .4 .2 .3 .4Z" class="g3_75"/>
<path d="M417.5 489l.4 .3l-.3 .1Z" class="g3_75"/>
<path d="M396.9 462c-.4 -.3 .1 -.5 .1 -.6c.3 .4 -.4 .1 -.1 .6Z" class="g3_75"/>
<path d="M388.1 446.5l.1 .2l-.7 .1Z" class="g3_75"/>
<path d="M404.9 600.2c-1 2.6 -3.8 4 -6.5 3c-2.6 -.9 -4 -3.8 -3.1 -6.4c1 -2.6 3.8 -4 6.5 -3.1c2.6 .9 4 3.8 3.1 6.5Z" class="g1_75"/>
<path d="M404.9 600.2c-1 2.6 -3.8 4 -6.5 3c-2.6 -.9 -4 -3.8 -3.1 -6.4c1 -2.6 3.8 -4 6.5 -3.1c2.6 .9 4 3.8 3.1 6.5Z" class="g4_75"/>
<path d="M389.3 429c0 2.7 -2.3 5 -5.1 5c-2.7 0 -5 -2.3 -5 -5c0 -2.8 2.3 -5.1 5 -5.1c2.8 0 5.1 2.3 5.1 5.1Z" class="g1_75"/>
<path d="M389.3 429c0 2.7 -2.3 5 -5.1 5c-2.7 0 -5 -2.3 -5 -5c0 -2.8 2.3 -5.1 5 -5.1c2.8 0 5.1 2.3 5.1 5.1Z" class="g4_75"/>
</svg>