<?xml version="1.0" encoding="UTF-8" standalone="no"?>
<!DOCTYPE svg PUBLIC "-//W3C//DTD SVG 1.1//EN"
"http://www.w3.org/Graphics/SVG/1.1/DTD/svg11.dtd">
<svg viewBox="0 0 660 990" version="1.1" xmlns="http://www.w3.org/2000/svg" xmlns:xlink="http://www.w3.org/1999/xlink">
<defs>
<style type="text/css"><![CDATA[
.g0_69{
fill: none;
stroke: #949698;
stroke-width: 0.763;
}
.g1_69{
fill: #FFF;
}
.g2_69{
fill: none;
stroke: #231F20;
stroke-width: 2.979;
}
.g3_69{
fill: #231F20;
}
]]></style>
</defs>
<path d="M318.5 969.1h23" class="g0_69"/>
<path d="M193.5 433.4H321.7V614H193.5V433.4Z" class="g1_69"/>
<path d="M193.5 433.4H321.7V614H193.5Z" class="g2_69"/>
<path d="M321.2 433.4H449.4V613.9H321.2V433.4Z" class="g1_69"/>
<path d="M321.2 433.4H449.4V613.9H321.2Zm.4 0V613.9" class="g2_69"/>
<path d="M424 378.4H223.3V161.3H424V378.4Z" class="g1_69"/>
<path d="M424 378.4H223.3V161.3H424ZM223.3 269.8H423.9" class="g2_69"/>
<path d="M325.6 263.3c.1 .3 .6 -.2 .3 .2c-.3 -.1 -.5 -.1 -.3 -.2Z" class="g3_69"/>
<path d="M327.3 184.5c1.8 1 -.1 2.2 1.1 3.3c.1 .1 -1 -.1 -.8 .2c1.4 1 .5 2.6 -.6 3.8l-.2 -.1c-.2 .3 .7 .6 .5 .8c-.1 0 -.2 -.1 -.5 0c.6 0 .3 .4 .7 .5c-.2 .1 -.7 .1 -.9 .2l.6 .2c1.5 .4 -.1 .9 .7 1.5c-.2 0 -.3 -.1 -.4 -.1c.9 .9 .7 2 1 3c-.2 -.1 -.6 -.1 -.9 -.1c.7 .1 .9 .4 1 .6c-.7 .1 .6 .5 .2 .8h-.1c.7 .2 -.5 .3 .4 .5l-.5 .1c.9 .1 -.5 .3 -.1 .5h.3c.2 .2 -.3 .3 -.1 .4l-.2 .1c.3 .3 -.3 .5 .5 .5c-.6 .2 -.3 -.3 -1.2 -.1c.8 1.2 .6 2.5 .6 3.8c-.3 .1 -.4 .2 -.7 .2c.2 .1 .2 .5 .6 .6c-.1 0 -.4 .1 -.5 .1c-.3 .3 .9 .3 .5 .5c-.2 -.1 -.4 -.1 -.7 -.1c.6 .3 .5 .5 .7 .8c-.2 0 -.2 -.1 -.5 -.1c.7 .3 -.1 .5 .3 .7l-.4 -.1c-.6 .4 .9 .2 .5 .5c-.1 -.1 -.3 0 -.4 -.1c.8 .4 .5 .9 .7 1.2c0 0 -.1 0 -.1 0c.1 .3 -.2 .7 .1 1c-.2 .2 -1 0 -.9 .3c.9 0 .4 .7 1.4 .5c-.2 .3 -.5 .7 -.2 1c-.3 -.2 -1.1 .1 -1.2 -.2l-.5 .2c-.4 0 .1 -.2 -.3 -.1c0 .1 .3 .5 .2 .6c.5 .2 1.5 .5 1.7 .9c-.4 -.2 -1 .1 -1.2 -.1l1.7 .6c.1 .1 -.7 0 -.5 .2c.3 0 .4 .1 .6 .1c-.1 .1 .2 .6 -.7 .6c-.3 .1 -.1 -.2 -.4 -.1c0 .3 .3 .3 .3 .5h-.1c-.2 .2 .3 .5 .8 .3c0 -.1 -.5 .1 -.3 -.1c.5 .1 .7 .4 .7 .6c-.2 0 -.4 0 -.6 -.1c.6 .4 .9 .7 1.1 1.1c.4 0 -.7 -.2 -.5 -.2c-.6 .4 .8 .9 0 1.3c-.1 -.1 .5 0 .4 0c0 .2 -.6 .2 -.4 .3c-.4 0 .1 .2 .2 .3c.3 .1 -.2 .1 -.2 -.1c.3 .3 .8 1.1 .3 1.5c.2 0 .8 .4 .8 .5l-.5 -.1c-.4 .1 0 .4 -.5 .4c.7 .2 -.5 -.9 0 -.6c-.5 .1 .9 .5 .1 .4c0 .2 .6 .4 .1 .6c.1 0 -.7 -.2 -.7 0c.1 .3 .3 .1 .5 .3l.2 .2c.5 0 -.1 .3 .5 .2c-.4 0 .3 .4 -.6 .4l-.7 -.1c0 .2 .7 .3 1 .4c0 0 -.2 0 -.3 0c1.1 .1 -.1 .3 .7 .5c-.3 .3 0 .7 -.7 .8c.3 .3 .7 .5 .5 .7c-.1 0 -.1 -.1 -.4 -.1c-.3 .1 0 .2 .2 .3c-.2 0 -.7 .3 -1 .5c.3 .2 .8 .1 1.2 .2c-1.1 .2 .7 .6 -.3 .8c-.1 -.1 -.5 -.3 -.8 -.1c-1 .1 .8 .4 .3 .7l.9 -.1c-.6 .2 .4 .5 -.4 .5c.3 .1 -.3 .3 .5 .3c-.7 .5 .4 1.3 -1.1 1.6c.1 0 0 .2 .4 .2c.5 -.1 -.3 -.2 0 -.2c0 0 .3 .1 .4 .1c-.2 .1 -.3 .3 -1 .1c-.5 .3 1.5 .4 1.1 .8c-.3 0 -.5 .1 -.4 .2l.6 .3c-.1 .2 -.8 .1 -1.4 .1c.1 .2 .1 .4 .5 .4l-.7 .2c.5 -.1 .3 .2 .5 .2h-.2c-.2 0 -.1 .2 0 .3c.4 -.1 .5 -.2 .6 -.3c.3 0 .2 .2 .5 .3c-.6 -.1 -.4 .2 -.5 .4c-.1 .1 .6 .1 .5 .2c-.3 0 0 .2 -.4 .1c-.1 -.1 .3 -.1 0 -.2c-.2 .1 -.8 .1 -.4 .3c.3 .1 1.2 -.1 .8 .2c-.1 -.1 -.4 -.1 -.6 -.1l-.3 .2h.5q-.1 .1 -.2 .1c.5 .1 .2 .4 .8 .4c0 .2 -.4 .3 -.5 .5v-.1c-.3 .2 -.1 .4 .2 .5h-.1c0 .1 .1 .3 .4 .4c-.4 .2 -2 .1 -1.4 .3c0 .2 1 .4 1.3 .3c-.3 .4 .5 .8 -.3 1.2c.2 0 .4 0 .5 .1c-.2 .6 .6 1.2 -.5 1.7c-.2 -.2 -.5 0 -.8 0c.5 .1 -.5 .1 .3 .2c.5 0 .7 0 .9 -.2c.3 .4 .3 .9 -.2 1.1c.2 -.1 .4 0 .5 0c-.7 0 -.9 .3 -.6 .5h.5l-.5 .1c.1 .1 1 .1 .5 .3h-.5c.4 .2 1 .5 .6 .7l-.6 .2c0 .1 .4 .3 .6 .1c-.4 .4 -.4 .6 -1 .7c1.4 .7 1.4 1.6 1.3 2.3h-.3c-.3 .2 .6 .1 .3 .2c-.3 0 -.7 .2 -1.1 0c-.4 .3 .6 .4 .8 .6c.4 0 -.3 -.2 .3 -.1c.1 0 -.4 .3 .3 .4c-.3 .1 -.8 0 -1.1 0l.4 .1c-.9 .2 -1.5 -.5 -2.5 -.3l.1 .2c-.7 .1 -.8 -.4 -1 0c.3 .1 1.3 .3 1.6 .2c.2 .3 1.7 .1 1.6 .5c-.4 .1 -.1 -.3 -.7 -.2c-.5 .2 .3 .4 .1 .5c.3 -.2 1 0 1.1 .1c-.3 .2 -.6 -.1 -.7 .2c.4 0 .7 .3 1 .1c.9 .1 -.3 .2 .4 .4c-.6 .1 -1.5 -.3 -1.8 0c.6 0 .9 .4 1.8 .2c-.2 .2 -.7 .2 -1.1 .1c-.4 .1 1.1 .4 -.1 .4l.7 .1c-.3 .1 -.4 .1 -.8 .2c0 .2 .9 .5 -.1 .5c.1 0 .1 .4 .7 .3c.5 -.2 -.4 -.3 .5 -.4c-.8 .1 .1 .3 .3 .4l-.4 .1c.2 0 .1 .2 .5 .3c-.2 -.1 -.5 -.1 -.6 0l.6 .1c.3 .3 -1 0 -.8 .3l-.5 -.2c.1 0 -.4 .1 -.2 .3c.5 0 1.1 .1 1.5 .2c.2 .2 -.6 .1 -.1 .2l-.6 -.2c-.1 0 -.8 .1 -.8 .4c.2 .1 .9 .3 1.2 .1c0 .1 -.3 .3 -.7 .2c.2 .2 .5 0 .9 .2c-.4 .1 -.9 .3 -1.4 .5l-.8 -.2v.1c-.7 -.2 -.5 .1 -1.3 0c-.1 .1 .2 .2 .3 .3c1.2 -.3 1.6 .4 2.7 .3c.3 .4 -2.6 .2 -.9 .7c.2 -.1 1 .1 .7 -.2c-.1 .3 1.1 .2 .6 .5c-.4 -.2 -1 .3 -1.7 -.1c.4 0 .3 -.2 .2 -.2c-.4 .1 -1 0 -1 .2c0 .2 .1 .4 .6 .4c.6 0 0 -.3 .6 -.2c.2 .4 -.8 .4 .3 .6c-.1 -.3 .6 -.3 1 -.3l.2 .3l-.4 -.1c-.3 .4 .7 .1 .6 .5l-.8 .1c-.6 -.1 .3 -.5 -.8 -.4c0 .2 .5 .3 .3 .5l-.3 -.2c0 .1 -1.5 .2 -.6 .5c.3 .2 .4 .1 .8 .1c.1 .4 .5 .5 .6 .7c-.8 0 -.1 .5 -.9 .2c.5 -.1 .4 -.7 -.3 -.8c-1 .1 .1 -.3 -.9 -.4c0 .3 -.9 .3 -1.6 .3c0 .1 .2 .2 .3 .2c.6 .1 .6 -.1 1.2 0c-.1 .3 .2 .6 .7 .8c-.3 .1 -.8 .1 -.9 -.1c.2 .5 .1 .9 -.1 1.3c1 -.3 .2 .4 1 .2c.2 -.2 .9 -.3 1.3 -.2c0 .1 -.4 0 -.6 0c.5 .2 -.8 .3 0 .4c-.3 -.3 -1.2 -.1 -1.9 -.1c.4 .2 -.5 -.1 -.5 .2c.4 .3 .7 .6 .9 .9c-.8 .4 -.1 .9 -.1 1.3c-.3 .1 -1.2 0 -1.3 .2c0 .2 .9 -.2 .5 .2l-.2 -.1c.2 .1 -.6 .6 .7 .7l-1 -.1c0 .1 .2 .1 .3 .2c-.3 0 -.6 0 -.8 -.1c-.6 .2 .1 .5 .1 .7l.6 -.1c.4 .3 -.2 .6 0 .9h-.5l.3 .2c-.5 0 -.8 .2 -.4 .3l-1.3 -.6c.3 -.1 .6 .2 1.2 .1c.4 -.1 .3 -.4 -.2 -.5c-.1 .2 0 .2 .2 .3c-.7 0 -.7 -.2 -1.2 -.3c.1 .1 -.2 .2 .1 .2c-.4 -.2 -.5 -.3 -.5 -.5c.3 .1 .5 -.1 .7 0c-.6 -.1 -.8 -.3 -.7 -.5c.8 -.2 -.4 -.6 -.2 -.9c.6 .2 1.2 .3 1.4 .5c.4 -.2 0 -.2 .3 -.4c-.4 -.1 -1.2 -.2 -1.5 -.4h.5c-.2 -.3 -1 -.3 -.8 -.6c.2 -.5 .2 -1 .3 -1.4h.5c-1.1 -.2 -.4 -.7 -.8 -1c.4 -.5 -.5 -1.1 .3 -1.3c-.3 -.9 -.7 -1.7 -.5 -2.6l.7 .2c-.5 -.2 .4 -.1 .3 -.3c-.5 .2 -.7 -.2 -1.1 -.3c.5 -.4 0 -.9 -.5 -1.3h.4c-.9 -.4 0 -.8 .1 -1.3c.2 0 .7 -.1 .6 -.2c-.8 -.3 -.7 -.4 -1.2 -.8c0 -.2 .2 -.6 .5 -.9c-1.1 -1 -.3 -2 -1 -3l.6 -.1c-1.2 -1 -.1 -2.2 -.7 -3l1 .1c.3 -.3 -.3 -.7 -1 -.6c.3 -.3 -.4 -.7 .4 -.8c.2 -.3 -.5 -.4 -.6 -.6c.4 -.5 .3 -.7 .1 -1.2v.1c.2 0 .6 .1 .7 -.1c-.3 -.2 .2 -.7 -.9 -.5c.6 -.5 -.6 -1.3 .4 -1.8c-.4 0 -.4 -.1 -.6 -.2c0 -.4 .6 -.9 .1 -1.3c.1 -.1 .5 .1 .6 -.1c-.2 -.1 -.5 0 -.6 -.1c-.6 -.8 .6 -1.6 .5 -2.3c-.6 -1.3 -.3 -2.6 -.4 -3.8h.3c-.9 -.4 .9 -.9 -.5 -1.2c.3 -.1 .2 -.4 .6 -.3c-.6 -.4 .6 -.9 -.2 -1.4q0 .1 .1 .1c.6 -.4 -.1 -.9 .3 -1.3c.1 0 .2 .1 .4 .1c.5 -.2 -.9 -.4 .2 -.5c0 -.1 -.6 -.1 -.5 -.1c.4 -1 -.3 -2.2 -.5 -3.3c.7 -.8 1.9 0 1 -.7c.3 0 -.4 0 -.1 0c-.4 -.3 1.2 -.4 .6 -.6c-.7 .1 -.4 -.1 -.8 -.1c.5 -.5 1.1 -.6 .6 -1h.3c-1 -.4 -.4 -1 -1.6 -1.4c-.2 -2.5 -.8 -4.9 -.9 -7.4c.3 -2.4 -.2 -4.8 .5 -7.2q.9 -.6 .5 -1.3q.2 .1 .4 .1c-.8 -.1 -.1 -.5 -.8 -.6c.1 -.9 -.1 -1.7 -.1 -2.7c.1 .2 .7 .3 .7 .1l-.5 -.2h.2c-.1 -.1 -.5 -.3 -.7 -.2c-.7 -2.3 .9 -4.6 .8 -6.9c.3 -.6 0 -1.3 -.1 -1.9c1.1 -1.8 1.9 -3.4 1.2 -5.2c0 0 2 .3 2.5 1Z" class="g3_69"/>
<path d="M325.5 262.9c.4 0 .6 -.2 1.1 -.1c-.3 0 -.7 .1 -1.1 .1Z" class="g3_69"/>
<path d="M329.6 257.5c-.1 0 .2 -.1 .3 -.1c0 .1 .3 .1 .1 .2c0 -.1 -.2 -.1 -.4 -.1Z" class="g3_69"/>
<path d="M329.9 256.1c.3 0 .6 .3 .6 .5Z" class="g3_69"/>
<path d="M331.3 254.8c.3 -.1 .5 -.1 .5 .1Z" class="g3_69"/>
<path d="M330.6 254.7c-.1 -.1 .1 -.1 .4 -.2c-.3 0 .1 .3 -.4 .2Z" class="g3_69"/>
<path d="M331.6 251.9c0 -.1 -.3 -.2 .1 -.3c-.3 .1 .4 .4 -.1 .3Z" class="g3_69"/>
<path d="M331.1 250.6c0 -.1 .1 -.1 0 -.1c.2 -.1 .4 0 .4 0Z" class="g3_69"/>
<path d="M330.1 226.6l.2 .1h-.4Z" class="g3_69"/>
<path d="M330.3 216.1c-.3 -.2 .3 -.1 .3 -.1c.1 .1 -.4 -.1 -.3 .1Z" class="g3_69"/>
<path d="M328.6 210.4v0h-.7Z" class="g3_69"/>
<path d="M333.1 197.4c.1 .1 .2 -.1 .1 .1c-.1 0 -.2 0 -.1 -.1Z" class="g3_69"/>
<path d="M318.4 192.4c-.6 -.8 .5 -.8 .3 -1.5c0 -.1 .4 .2 .3 .1c-.3 -.8 .4 -1.2 1.2 -1.3l.1 .1c.1 -.1 -.2 -.4 -.1 -.5q.1 .1 .2 .1c-.2 -.1 0 -.2 -.1 -.3l.4 .1l-.2 -.2c-.6 -.6 .2 -.3 0 -.8l.2 .2c-.2 -.6 .1 -1 .2 -1.4c.1 0 .3 .2 .4 .2c-.3 -.2 -.3 -.3 -.3 -.5c.3 .2 -.2 -.3 .1 -.3c-.2 -.3 .3 0 0 -.3l.2 .1c-.4 -.3 .3 0 .2 -.2l-.1 -.1c-.1 -.1 .1 0 .1 -.1h.1c-.1 -.2 .2 -.1 -.1 -.3c.3 .1 0 .2 .5 .3c-.1 -.6 .3 -1.1 .6 -1.6c.1 .1 .2 0 .3 .1c0 -.1 .1 -.2 -.1 -.4c0 .1 .2 .1 .3 .1c.1 0 -.3 -.3 -.1 -.3l.3 .2c-.2 -.2 -.1 -.3 -.2 -.5q.1 .1 .2 .2c-.2 -.3 .2 -.2 .1 -.4l.1 .2c.4 0 -.3 -.3 -.1 -.4l.2 .2c-.3 -.3 -.1 -.5 -.1 -.6h.1c0 -.1 .2 -.2 .1 -.5c.2 0 .5 .3 .5 .2c-.4 -.3 0 -.4 -.5 -.5c.2 -.1 .4 -.2 .3 -.4c.1 .2 .5 .2 .5 .4h.3c.1 .1 -.1 .1 .1 .2c0 -.1 -.1 -.3 0 -.3c-.1 -.3 -.5 -.6 -.5 -.8c.1 .2 .5 .2 .5 .3l-.6 -.6c0 -.1 .3 .1 .2 0l-.2 -.2c.1 0 .1 -.3 .5 -.1c.1 .1 0 .2 .1 .2c.1 -.1 0 -.2 0 -.3l.1 .1c.1 -.1 -.1 -.3 -.3 -.4c-.1 .1 .2 .1 .1 .1c-.2 -.1 -.2 -.3 -.2 -.4c.1 .1 .2 .2 .3 .2c-.2 -.3 -.3 -.5 -.3 -.7c-.2 -.1 .3 .3 .2 .2c.3 0 -.1 -.5 .3 -.5c0 .1 -.2 -.1 -.2 -.1c.1 0 .3 .1 .3 0c.1 .1 0 -.1 0 -.2c-.1 -.1 0 .1 0 .1c0 -.1 0 -.2 0 -.4v-.1c-.5 0 4.2 .4 2.2 .2l.1 .1l-.1 .2c.1 0 .5 0 .5 .1h-.3c-.1 .1 .1 .2 -.1 .3c.3 0 -.4 -.3 -.1 -.3c-.2 .2 .5 .1 .1 .2c0 .1 .4 0 .2 .2c0 0 -.4 .1 -.4 .2c.1 .1 .2 -.1 .3 0h.1c.3 -.1 0 .2 .3 0c-.2 .1 .2 .1 -.2 .3l-.3 .1c0 .1 .3 0 .5 0h-.1c.4 -.2 0 .2 .4 .1c-.2 .2 .1 .3 -.2 .5c.2 0 .4 0 .3 .2c0 0 -.1 -.1 -.2 0c-.1 .1 .1 .1 .2 .1c-.1 0 -.3 .2 -.4 .4c.2 0 .4 -.1 .6 -.2c-.5 .3 .4 .1 0 .4c-.1 0 -.3 0 -.4 .1c-.4 .3 .4 0 .3 .3l.3 -.2c-.2 .1 .4 .1 -.1 .2c.2 0 0 .2 .4 .1c-.3 .3 .4 .4 -.3 .8c.1 0 .1 .1 .3 0c.2 -.1 -.2 0 -.1 0c0 0 .1 -.1 .2 -.1c-.1 .1 -.1 .2 -.4 .3c-.2 .2 .7 -.2 .6 .1c-.1 .1 -.2 .1 -.1 .1h.3c0 .2 -.4 .3 -.6 .4c0 0 .1 .1 .3 0l-.3 .3c.2 -.2 .2 0 .2 0c-.2 0 -.1 .1 0 .1c.2 -.1 .2 -.2 .2 -.3c.2 0 .2 .1 .3 .1c-.3 .1 -.1 .2 -.1 .2c-.1 .1 .2 0 .2 0c-.1 .1 0 .1 -.2 .2c0 0 .2 -.1 0 -.1c-.1 .1 -.3 .1 -.1 .2c.1 0 .5 -.3 .4 -.1l-.3 .1l-.1 .1l.3 -.1l-.2 .1c.3 -.1 .2 .1 .5 0c0 .1 -.1 .2 -.1 .3h-.1c-.1 .1 0 .2 .2 .2c0 0 0 .1 .2 .1c-.1 .1 -.9 .4 -.6 .3c.1 .1 .5 0 .7 -.1c-.1 .2 .4 .3 0 .6l.3 -.1c0 .3 .5 .4 .1 .8c-.2 0 -.3 .1 -.4 .2c.2 -.1 -.2 .1 .2 0c.2 -.1 .3 -.1 .4 -.2c.1 .1 .2 .3 .1 .4c0 0 .1 0 .2 0c-.4 .1 -.4 .2 -.2 .3l.2 -.1l-.2 .1c.1 0 .5 -.1 .3 0l-.2 .2c.2 0 .5 0 .4 .1l-.3 .2c.1 .1 .3 0 .3 -.1c-.1 .3 -.1 .4 -.3 .5c.7 0 .9 .4 1 .7l-.2 .1c-.1 .1 .3 -.1 .2 0c-.1 .1 -.3 .2 -.5 .2c-.1 .2 .4 .1 .5 .1c.2 -.1 -.2 0 .1 -.1c.1 0 -.1 .2 .2 .1c-.1 .1 -.4 .2 -.5 .2h.2c-.3 .3 -.8 .1 -1.2 .4h.1c-.3 .2 -.5 0 -.5 .2c.2 0 .7 -.1 .8 -.2c.1 .1 .8 -.3 .8 -.1c-.1 .1 -.1 -.1 -.3 0c-.3 .2 .2 .1 .1 .2c.1 -.1 .5 -.2 .5 -.1c-.1 .1 -.3 0 -.3 .2c.2 -.1 .4 0 .5 -.2c.4 -.1 -.1 .2 .3 .1c-.3 .2 -.8 .2 -.9 .4c.3 -.2 .5 0 .9 -.3c-.1 .1 -.3 .2 -.5 .2c-.1 .2 .6 0 .1 .3l.3 -.1c-.1 0 -.2 .1 -.3 .2c0 .1 .4 0 0 .2c.1 0 .1 .2 .4 0c.1 -.2 -.3 0 .1 -.2c-.3 .2 .1 .1 .2 .1l-.1 .1h.2c-.1 0 -.2 .1 -.2 .1l.3 -.1c.1 .1 -.5 .2 -.4 .3H333c0 0 -.2 .2 -.1 .2c.3 -.1 .6 -.1 .8 -.2c.1 0 -.3 .1 0 .1h-.3c-.1 0 -.4 .2 -.4 .3c.1 .1 .5 0 .6 -.1c0 0 -.1 .1 -.3 .2c.2 0 .3 -.1 .5 -.1c-.2 .1 -.4 .3 -.6 .5h-.4v.1c-.3 0 -.2 .1 -.6 .2c0 .1 .1 .1 .3 .1c.4 -.4 .7 -.2 1.2 -.4c.2 .1 -1.1 .6 -.3 .5c.1 -.1 .5 -.2 .3 -.2c0 .1 .6 -.2 .4 0c-.2 0 -.4 .3 -.8 .3c.2 0 .1 -.1 0 -.1c-.1 .1 -.4 .2 -.4 .3c.1 0 .1 .1 .4 0c.2 -.1 -.1 -.1 .2 -.1c.1 0 -.3 .2 .2 .1c0 -.1 .3 -.2 .4 -.3l.2 .1h-.2c-.1 .2 .4 -.1 .4 .1l-.4 .2c-.3 .1 .1 -.3 -.4 0c0 .1 .3 0 .2 .2l-.1 -.1c-.1 .1 -.7 .4 -.3 .4c.2 0 .2 -.1 .4 -.2c.1 .2 .4 .1 .4 .2c-.4 .2 .1 .2 -.4 .3c.2 -.2 .1 -.4 -.3 -.3c-.4 .2 .1 -.2 -.4 0c0 .1 -.4 .3 -.7 .4c0 .1 .1 .1 .2 .1c.3 -.1 .2 -.2 .5 -.3c0 .2 .2 .3 .5 .2c-.1 .1 -.4 .2 -.4 .2c.1 .1 .2 .3 .1 .5c.4 -.3 .2 .1 .5 -.1c.1 -.1 .4 -.3 .6 -.3c0 0 -.2 0 -.3 .1c.3 0 -.3 .3 .1 .2c-.2 -.1 -.6 .2 -.9 .3c.2 0 -.3 .1 -.2 .2c.2 0 .4 .1 .6 .2c-.3 .3 .1 .4 .2 .5c-.2 .1 -.6 .3 -.6 .4c0 0 .4 -.3 .3 -.1h-.1c.1 .1 -.2 .4 .4 .2l-.5 .1c0 .1 .1 .1 .2 .1c-.2 0 -.3 .1 -.4 .1c-.2 .2 .1 .2 .2 .2l.2 -.1c.3 .1 .1 .3 .2 .4l-.2 .1h.1c-.2 .1 -.3 .2 -.1 .2H333c.1 -.1 .3 0 .5 -.2c.2 -.1 .1 -.2 -.1 -.1h.1c-.3 .2 -.3 .1 -.6 .1c.1 .1 0 .1 .1 .1c-.2 0 -.3 0 -.3 -.1c.2 0 .2 -.1 .3 -.2c-.3 .2 -.4 .1 -.4 0c.3 -.3 -.3 -.2 -.3 -.3c.4 -.1 .6 -.1 .8 -.1c.1 -.2 0 -.1 .1 -.2c-.3 0 -.6 .1 -.8 .1l.2 -.1c-.1 -.1 -.5 .1 -.5 -.1c.1 -.2 0 -.5 -.1 -.6l.3 -.1c-.6 .1 -.3 -.3 -.6 -.3c.1 -.3 -.4 -.4 0 -.6c-.4 -.3 -.7 -.6 -.7 -1l.3 -.1c-.2 .1 .2 -.1 .1 -.1c-.2 .2 -.4 0 -.6 .1c.2 -.3 -.2 -.4 -.4 -.5l.2 -.1c-.5 0 -.2 -.3 -.2 -.5c.1 -.1 .3 -.2 .2 -.2q-.4 0 -.7 -.1c0 -.1 0 -.3 .1 -.5c-.7 -.2 -.5 -.8 -1 -1.1l.3 -.1c-.8 -.2 -.5 -.9 -.9 -1.1l.5 -.2c.1 -.1 -.3 -.2 -.6 0c.1 -.2 -.3 -.2 .1 -.4c0 -.2 -.3 -.1 -.4 -.2c.1 -.3 0 -.3 -.2 -.5v.1c.1 -.1 .3 -.1 .3 -.2c-.1 0 0 -.3 -.5 0c.2 -.4 -.4 -.5 -.1 -.9q-.2 .1 -.3 .1c-.1 -.2 .1 -.6 -.2 -.6c.1 -.1 .3 -.1 .3 -.2c-.1 0 -.2 .1 -.3 .1c-.4 -.2 0 -.8 -.2 -1c-.5 -.5 -.6 -1.1 -.8 -1.5l.1 -.1c-.5 0 .2 -.5 -.4 -.4c0 -.1 -.1 -.2 .2 -.3c-.4 0 .1 -.4 -.4 -.5h.1c.2 -.3 -.2 -.3 -.1 -.6q.1 0 .2 0c.2 -.2 -.5 0 0 -.3c0 0 -.3 .1 -.2 .1c0 -.5 -.5 -.9 -.9 -1.3c.2 -.4 .9 -.4 .4 -.5c.1 0 -.2 .1 -.1 .1c-.2 -.1 .5 -.4 .2 -.4c-.1 .1 -.2 .1 -.2 .1h-.1c-2.4 -.2 3.4 .3 2.8 .2l.1 .1c-.3 0 -.6 -.1 -.5 .2l-.2 -.1c.4 .4 0 .5 .4 1c-.5 1 -.8 2.1 -1.3 3.1c-.7 .8 -1 1.9 -1.9 2.7c-.5 -.1 -.5 0 -.5 .3l-.1 -.1c.3 .2 -.1 .2 .2 .4c-.3 .3 -.4 .7 -.6 1.1c0 -.1 -.3 -.3 -.3 -.2l.2 .2l-.1 -.1c0 .1 .1 .3 .3 .3c-.3 1.1 -1.5 1.6 -2 2.5c-.2 .1 -.3 .5 -.4 .8c-.8 .4 -1.6 .8 -1.7 1.6c0 0 -.8 -.6 -.8 -1Z" class="g3_69"/>
<path d="M333 197.3c.1 -.1 .2 -.2 .5 -.2Z" class="g3_69"/>
<path d="M333.9 194.3c0 0 .1 -.1 .1 -.1c0 0 .2 0 .1 0c0 0 -.1 0 -.2 .1Z" class="g3_69"/>
<path d="M333.8 193.6c.1 0 .3 .1 .4 .1Z" class="g3_69"/>
<path d="M334.2 192.8c.1 -.1 .2 -.1 .2 0Z" class="g3_69"/>
<path d="M333.8 192.9c0 0 .1 -.1 .2 -.1c-.1 0 .1 0 -.2 .1Z" class="g3_69"/>
<path d="M333.8 191.6c0 -.1 -.1 -.1 0 -.2c-.1 .1 .3 .1 0 .2Z" class="g3_69"/>
<path d="M333.4 191.1h-.1c.1 -.1 .2 -.1 .3 -.1Z" class="g3_69"/>
<path d="M328.7 181.3h.1l-.2 .1Z" class="g3_69"/>
<path d="M324.4 179.4c0 .1 -.2 -.1 -.2 -.1c0 0 .2 .2 .2 .1Z" class="g3_69"/>
<path d="M323.8 182v0l.3 .2Z" class="g3_69"/>
<path d="M325.6 368.5c.1 .3 .6 -.2 .3 .2c-.3 -.1 -.5 -.1 -.3 -.2Z" class="g3_69"/>
<path d="M327.3 289.8c1.8 .9 -.1 2.1 1.1 3.2c.1 .1 -1 0 -.8 .2c1.4 1.1 .5 2.6 -.6 3.8l-.2 -.1c-.2 .3 .7 .6 .5 .8c-.1 0 -.2 -.1 -.5 0c.6 .1 .3 .4 .7 .6c-.2 0 -.7 0 -.9 .2l.6 .1c1.5 .4 -.1 1 .7 1.5c-.2 0 -.3 -.1 -.4 0c.9 .8 .7 1.9 1 2.9c-.2 -.1 -.6 -.1 -.9 -.1c.7 .1 .9 .4 1 .7c-.7 .1 .6 .4 .2 .7h-.1c.7 .2 -.5 .3 .4 .5l-.5 .1c.9 .1 -.5 .3 -.1 .5h.3c.2 .2 -.3 .3 -.1 .5h-.2c.3 .3 -.3 .6 .5 .6c-.6 .1 -.3 -.4 -1.2 -.2c.8 1.2 .6 2.5 .6 3.8c-.3 .1 -.4 .2 -.7 .2c.2 .2 .2 .5 .6 .6c-.1 0 -.4 .1 -.5 .2c-.3 .2 .9 .2 .5 .5c-.2 -.1 -.4 -.2 -.7 -.2c.6 .3 .5 .6 .7 .8c-.2 0 -.2 -.1 -.5 -.1c.7 .3 -.1 .5 .3 .8l-.4 -.1c-.6 .3 .9 .1 .5 .4c-.1 -.1 -.3 0 -.4 0c.8 .3 .5 .8 .7 1.1c0 0 -.1 0 -.1 0c.1 .3 -.2 .7 .1 1.1c-.2 .1 -1 -.1 -.9 .3c.9 0 .4 .6 1.4 .4c-.2 .3 -.5 .8 -.2 1c-.3 -.2 -1.1 .1 -1.2 -.1l-.5 .1c-.4 0 .1 -.2 -.3 -.1c0 .1 .3 .5 .2 .6c.5 .3 1.5 .5 1.7 .9c-.4 -.2 -1 .1 -1.2 -.1l1.7 .6c.1 .1 -.7 0 -.5 .2c.3 0 .4 .1 .6 .2c-.1 0 .2 .5 -.7 .5c-.3 .1 -.1 -.2 -.4 0c0 .2 .3 .2 .3 .4h-.1c-.2 .2 .3 .5 .8 .4c0 -.2 -.5 0 -.3 -.2c.5 .1 .7 .4 .7 .7c-.2 -.1 -.4 -.1 -.6 -.2c.6 .4 .9 .7 1.1 1.1c.4 0 -.7 -.2 -.5 -.2c-.6 .4 .8 .9 0 1.3c-.1 -.1 .5 0 .4 0c0 .2 -.6 .2 -.4 .3c-.4 0 .1 .2 .2 .4c.3 0 -.2 0 -.2 -.1c.3 .2 .8 1 .3 1.5c.2 0 .8 .3 .8 .4l-.5 -.1c-.4 .1 0 .4 -.5 .4c.7 .2 -.5 -.9 0 -.6c-.5 .1 .9 .5 .1 .4c0 .2 .6 .4 .1 .6c.1 0 -.7 -.2 -.7 0c.1 .3 .3 .1 .5 .4l.2 .1c.5 0 -.1 .3 .5 .2c-.4 0 .3 .5 -.6 .4h-.7c0 .1 .7 .2 1 .3c0 0 -.2 0 -.3 0c1.1 .1 -.1 .4 .7 .5c-.3 .3 0 .7 -.7 .9c.3 .2 .7 .4 .5 .6c-.1 0 -.1 -.1 -.4 -.1c-.3 .1 0 .2 .2 .3c-.2 0 -.7 .3 -1 .5c.3 .2 .8 .2 1.2 .2c-1.1 .2 .7 .6 -.3 .8c-.1 0 -.5 -.3 -.8 -.1c-1 .2 .8 .4 .3 .7l.9 -.1c-.6 .2 .4 .5 -.4 .5c.3 .1 -.3 .3 .5 .3c-.7 .5 .4 1.3 -1.1 1.6c.1 .1 0 .2 .4 .2c.5 -.1 -.3 -.2 0 -.2c0 .1 .3 .1 .4 .1c-.2 .2 -.3 .3 -1 .1c-.5 .4 1.5 .4 1.1 .9c-.3 -.1 -.5 0 -.4 .1l.6 .3c-.1 .3 -.8 .1 -1.4 .1c.1 .2 .1 .4 .5 .5l-.7 .1c.5 -.1 .3 .2 .5 .2h-.2c-.2 0 -.1 .2 0 .3c.4 0 .5 -.2 .6 -.3c.3 .1 .2 .2 .5 .3c-.6 0 -.4 .2 -.5 .4c-.1 .1 .6 .1 .5 .2c-.3 0 0 .2 -.4 .1c-.1 0 .3 -.1 0 -.2c-.2 .1 -.8 .1 -.4 .3c.3 .1 1.2 0 .8 .2c-.1 0 -.4 -.1 -.6 -.1l-.3 .2l.5 .1q-.1 0 -.2 0c.5 .1 .2 .4 .8 .5c0 .1 -.4 .2 -.5 .4v-.1c-.3 .2 -.1 .4 .2 .5h-.1c0 .1 .1 .3 .4 .4c-.4 .2 -2 .1 -1.4 .3c0 .2 1 .4 1.3 .3c-.3 .4 .5 .8 -.3 1.2c.2 0 .4 0 .5 .1c-.2 .6 .6 1.3 -.5 1.7c-.2 -.2 -.5 0 -.8 0c.5 .1 -.5 .1 .3 .2c.5 0 .7 0 .9 -.1c.3 .3 .3 .8 -.2 1c.2 -.1 .4 0 .5 .1c-.7 -.1 -.9 .2 -.6 .4h.5l-.5 .1c.1 .1 1 .1 .5 .3l-.5 .1c.4 .2 1 .4 .6 .7l-.6 .1c0 .1 .4 .3 .6 .1c-.4 .4 -.4 .6 -1 .7c1.4 .7 1.4 1.6 1.3 2.3h-.3c-.3 .2 .6 .1 .3 .2c-.3 0 -.7 .2 -1.1 0c-.4 .3 .6 .4 .8 .6c.4 0 -.3 -.2 .3 -.1c.1 0 -.4 .4 .3 .4c-.3 .1 -.8 0 -1.1 0l.4 .2c-.9 .1 -1.5 -.6 -2.5 -.3l.1 .1c-.7 .2 -.8 -.4 -1 0c.3 .2 1.3 .3 1.6 .2c.2 .3 1.7 .2 1.6 .6c-.4 0 -.1 -.4 -.7 -.3c-.5 .2 .3 .4 .1 .5c.3 -.1 1 0 1.1 .1c-.3 .2 -.6 -.1 -.7 .2c.4 0 .7 .3 1 .1c.9 .1 -.3 .3 .4 .4c-.6 .1 -1.5 -.3 -1.8 0c.6 0 .9 .4 1.8 .3c-.2 .1 -.7 .1 -1.1 0c-.4 .2 1.1 .4 -.1 .5h.7c-.3 .1 -.4 .2 -.8 .2c0 .2 .9 .5 -.1 .5c.1 .1 .1 .4 .7 .3c.5 -.2 -.4 -.3 .5 -.4c-.8 .2 .1 .3 .3 .5h-.4c.2 .1 .1 .2 .5 .3c-.2 -.1 -.5 -.1 -.6 0l.6 .1c.3 .3 -1 0 -.8 .3l-.5 -.2c.1 .1 -.4 .1 -.2 .3c.5 .1 1.1 .2 1.5 .2c.2 .2 -.6 .1 -.1 .3l-.6 -.3c-.1 0 -.8 .2 -.8 .4c.2 .1 .9 .4 1.2 .1c0 .1 -.3 .3 -.7 .2c.2 .3 .5 0 .9 .2c-.4 .1 -.9 .4 -1.4 .5l-.8 -.2v.1c-.7 -.2 -.5 .1 -1.3 0c-.1 .1 .2 .2 .3 .3c1.2 -.3 1.6 .4 2.7 .3c.3 .4 -2.6 .2 -.9 .7c.2 -.1 1 .1 .7 -.1c-.1 .2 1.1 .2 .6 .4c-.4 -.2 -1 .3 -1.7 -.1c.4 .1 .3 -.1 .2 -.2c-.4 .1 -1 0 -1 .2c0 .2 .1 .4 .6 .4c.6 0 0 -.3 .6 -.1c.2 .3 -.8 .3 .3 .5c-.1 -.2 .6 -.3 1 -.3l.2 .3l-.4 -.1c-.3 .4 .7 .1 .6 .5l-.8 .2c-.6 -.1 .3 -.6 -.8 -.5c0 .2 .5 .3 .3 .5l-.3 -.1c0 0 -1.5 .1 -.6 .4c.3 .2 .4 .1 .8 .1c.1 .4 .5 .5 .6 .8c-.8 -.1 -.1 .4 -.9 .1c.5 -.1 .4 -.7 -.3 -.8c-1 .1 .1 -.3 -.9 -.4c0 .3 -.9 .3 -1.6 .3c0 .1 .2 .2 .3 .2c.6 .1 .6 0 1.2 0c-.1 .3 .2 .6 .7 .8c-.3 .1 -.8 .1 -.9 0c.2 .4 .1 .8 -.1 1.2c1 -.3 .2 .4 1 .2c.2 -.2 .9 -.3 1.3 -.2c0 .1 -.4 0 -.6 0c.5 .2 -.8 .3 0 .5c-.3 -.4 -1.2 -.1 -1.9 -.2c.4 .3 -.5 0 -.5 .2c.4 .3 .7 .6 .9 .9c-.8 .4 -.1 1 -.1 1.3c-.3 .2 -1.2 0 -1.3 .2c0 .2 .9 -.1 .5 .2l-.2 -.1c.2 .1 -.6 .6 .7 .7l-1 -.1c0 .1 .2 .1 .3 .2c-.3 0 -.6 .1 -.8 0c-.6 .2 .1 .4 .1 .6l.6 -.1c.4 .4 -.2 .6 0 1l-.5 -.1l.3 .3c-.5 -.1 -.8 .1 -.4 .2l-1.3 -.6c.3 -.1 .6 .2 1.2 .1c.4 -.1 .3 -.4 -.2 -.5c-.1 .2 0 .2 .2 .3c-.7 0 -.7 -.2 -1.2 -.3c.1 .1 -.2 .2 .1 .2c-.4 -.1 -.5 -.3 -.5 -.5c.3 .2 .5 -.1 .7 0c-.6 0 -.8 -.3 -.7 -.5c.8 -.2 -.4 -.5 -.2 -.8c.6 .1 1.2 .3 1.4 .5c.4 -.2 0 -.3 .3 -.5c-.4 -.1 -1.2 -.1 -1.5 -.4h.5c-.2 -.2 -1 -.3 -.8 -.5c.2 -.6 .2 -1.1 .3 -1.5h.5c-1.1 -.2 -.4 -.7 -.8 -1c.4 -.5 -.5 -1.1 .3 -1.3c-.3 -.9 -.7 -1.7 -.5 -2.6l.7 .2c-.5 -.2 .4 -.1 .3 -.3c-.5 .2 -.7 -.2 -1.1 -.3c.5 -.4 0 -.9 -.5 -1.3h.4c-.9 -.4 0 -.8 .1 -1.2c.2 -.1 .7 -.2 .6 -.3c-.8 -.2 -.7 -.4 -1.2 -.7c0 -.3 .2 -.7 .5 -1c-1.1 -1 -.3 -2 -1 -3l.6 -.1c-1.2 -1 -.1 -2.2 -.7 -3l1 .1c.3 -.3 -.3 -.6 -1 -.6c.3 -.2 -.4 -.7 .4 -.8c.2 -.3 -.5 -.3 -.6 -.6c.4 -.5 .3 -.7 .1 -1.2v.1c.2 .1 .6 .1 .7 -.1c-.3 -.1 .2 -.7 -.9 -.5c.6 -.5 -.6 -1.3 .4 -1.8c-.4 .1 -.4 -.1 -.6 -.1c0 -.5 .6 -1 .1 -1.4c.1 -.1 .5 .1 .6 -.1c-.2 -.1 -.5 0 -.6 -.1c-.6 -.8 .6 -1.6 .5 -2.3c-.6 -1.3 -.3 -2.6 -.4 -3.8l.3 .1c-.9 -.5 .9 -1 -.5 -1.3c.3 -.1 .2 -.4 .6 -.3c-.6 -.3 .6 -.9 -.2 -1.4q0 .1 .1 .1c.6 -.4 -.1 -.8 .3 -1.3c.1 0 .2 .1 .4 .1c.5 -.1 -.9 -.4 .2 -.5c0 -.1 -.6 -.1 -.5 0c.4 -1.1 -.3 -2.3 -.5 -3.4c.7 -.8 1.9 0 1 -.7c.3 0 -.4 0 -.1 0c-.4 -.3 1.2 -.4 .6 -.6c-.7 .1 -.4 -.1 -.8 -.1c.5 -.5 1.1 -.6 .6 -1l.3 .1c-1 -.5 -.4 -1 -1.6 -1.4c-.2 -2.6 -.8 -5 -.9 -7.4c.3 -2.5 -.2 -4.9 .5 -7.3q.9 -.6 .5 -1.3q.2 .1 .4 .1c-.8 -.1 -.1 -.5 -.8 -.5c.1 -1 -.1 -1.8 -.1 -2.7c.1 .1 .7 .2 .7 0l-.5 -.2h.2c-.1 -.1 -.5 -.3 -.7 -.1c-.7 -2.4 .9 -4.7 .8 -7c.3 -.5 0 -1.3 -.1 -1.9c1.1 -1.8 1.9 -3.3 1.2 -5.2c0 0 2 .3 2.5 1.1Z" class="g3_69"/>
<path d="M325.5 368.1c.4 0 .6 -.2 1.1 -.1c-.3 .1 -.7 .2 -1.1 .1Z" class="g3_69"/>
<path d="M329.6 362.7c-.1 0 .2 -.1 .3 -.1c0 .1 .3 .2 .1 .2c0 -.1 -.2 0 -.4 -.1Z" class="g3_69"/>
<path d="M329.9 361.3c.3 0 .6 .4 .6 .5Z" class="g3_69"/>
<path d="M331.3 360c.3 -.1 .5 0 .5 .1Z" class="g3_69"/>
<path d="M330.6 359.9c-.1 -.1 .1 -.1 .4 -.2c-.3 0 .1 .3 -.4 .2Z" class="g3_69"/>
<path d="M331.6 357.1c0 -.1 -.3 -.2 .1 -.3c-.3 .1 .4 .4 -.1 .3Z" class="g3_69"/>
<path d="M331.1 355.8c0 0 .1 -.1 0 -.1c.2 -.1 .4 0 .4 .1Z" class="g3_69"/>
<path d="M330.1 331.8l.2 .2l-.4 -.1Z" class="g3_69"/>
<path d="M330.3 321.3c-.3 -.1 .3 -.1 .3 -.1c.1 .1 -.4 -.1 -.3 .1Z" class="g3_69"/>
<path d="M328.6 315.6v.1l-.7 -.1Z" class="g3_69"/>
<path d="M333.1 302.7c.1 .1 .2 -.2 .1 0c-.1 0 -.2 0 -.1 0Z" class="g3_69"/>
<path d="M318.4 297.6c-.6 -.8 .5 -.8 .3 -1.5c0 -.1 .4 .3 .3 .1c-.3 -.8 .4 -1.2 1.2 -1.3l.1 .1c.1 -.1 -.2 -.4 -.1 -.5q.1 .1 .2 .2c-.2 -.2 0 -.3 -.1 -.4l.4 .1l-.2 -.2c-.6 -.5 .2 -.3 0 -.7l.2 .1c-.2 -.6 .1 -1 .2 -1.4c.1 .1 .3 .2 .4 .2c-.3 -.2 -.3 -.3 -.3 -.5c.3 .2 -.2 -.3 .1 -.3c-.2 -.2 .3 0 0 -.3l.2 .1c-.4 -.3 .3 0 .2 -.2h-.1c-.1 -.2 .1 -.1 .1 -.2h.1c-.1 -.2 .2 -.1 -.1 -.3c.3 .1 0 .2 .5 .4c-.1 -.7 .3 -1.2 .6 -1.7c.1 .1 .2 .1 .3 .1c0 -.1 .1 -.2 -.1 -.3c0 0 .2 0 .3 0c.1 0 -.3 -.3 -.1 -.3l.3 .2c-.2 -.2 -.1 -.3 -.2 -.4q.1 0 .2 .1c-.2 -.3 .2 -.1 .1 -.4l.1 .2c.4 0 -.3 -.3 -.1 -.3l.2 .1c-.3 -.3 -.1 -.4 -.1 -.6h.1c0 -.1 .2 -.2 .1 -.4c.2 0 .5 .3 .5 .1c-.4 -.2 0 -.4 -.5 -.5c.2 -.1 .4 -.2 .3 -.4c.1 .2 .5 .3 .5 .4h.3c.1 .1 -.1 .1 .1 .2c0 -.1 -.1 -.3 0 -.3c-.1 -.3 -.5 -.6 -.5 -.8c.1 .2 .5 .2 .5 .3l-.6 -.6c0 -.1 .3 .1 .2 0l-.2 -.2c.1 0 .1 -.2 .5 0c.1 0 0 .1 .1 .1c.1 -.1 0 -.2 0 -.3l.1 .1c.1 -.1 -.1 -.3 -.3 -.4c-.1 .1 .2 .2 .1 .2c-.2 -.2 -.2 -.4 -.2 -.5c.1 .1 .2 .2 .3 .2c-.2 -.3 -.3 -.4 -.3 -.7c-.2 -.1 .3 .3 .2 .3c.3 -.1 -.1 -.6 .3 -.5c0 0 -.2 -.2 -.2 -.2c.1 0 .3 .1 .3 0c.1 .1 0 -.1 0 -.2c-.1 -.1 0 .1 0 .1c0 0 0 -.2 0 -.3v-.1c-.5 -.1 4.2 .3 2.2 .2h.1l-.1 .3c.1 -.1 .5 -.1 .5 0l-.3 .1c-.1 .1 .1 .1 -.1 .2c.3 0 -.4 -.3 -.1 -.2c-.2 .1 .5 0 .1 .1c0 .1 .4 .1 .2 .2c0 0 -.4 .1 -.4 .2c.1 .1 .2 0 .3 0l.1 .1c.3 -.1 0 .1 .3 -.1c-.2 .1 .2 .2 -.2 .3l-.3 .1c0 .1 .3 0 .5 0h-.1c.4 -.1 0 .2 .4 .1c-.2 .2 .1 .3 -.2 .5c.2 0 .4 0 .3 .2c0 0 -.1 0 -.2 0c-.1 .1 .1 .1 .2 .1c-.1 0 -.3 .3 -.4 .4c.2 0 .4 -.1 .6 -.2c-.5 .3 .4 .2 0 .4c-.1 0 -.3 0 -.4 .1c-.4 .3 .4 .1 .3 .3l.3 -.2c-.2 .1 .4 .1 -.1 .2c.2 0 0 .3 .4 .1c-.3 .3 .4 .4 -.3 .8c.1 .1 .1 .2 .3 .1c.2 -.2 -.2 0 -.1 -.1c0 0 .1 0 .2 -.1c-.1 .1 -.1 .2 -.4 .3c-.2 .2 .7 -.1 .6 .1c-.1 .1 -.2 .1 -.1 .2h.3c0 .1 -.4 .2 -.6 .3c0 0 .1 .1 .3 .1l-.3 .2c.2 -.2 .2 0 .2 0c-.2 0 -.1 .1 0 .1c.2 -.1 .2 -.2 .2 -.2c.2 -.1 .2 0 .3 0c-.3 .1 -.1 .2 -.1 .2c-.1 .1 .2 0 .2 0c-.1 .1 0 .1 -.2 .2c0 0 .2 -.1 0 -.1c-.1 .1 -.3 .2 -.1 .2c.1 0 .5 -.3 .4 -.1l-.3 .1l-.1 .2l.3 -.1h-.2c.3 -.1 .2 .2 .5 .1c0 0 -.1 .1 -.1 .2h-.1c-.1 .1 0 .2 .2 .2c0 0 0 .1 .2 .1c-.1 .2 -.9 .4 -.6 .4c.1 .1 .5 -.1 .7 -.2c-.1 .3 .4 .3 0 .6h.3c0 .2 .5 .4 .1 .7c-.2 0 -.3 .1 -.4 .2c.2 0 -.2 .1 .2 0c.2 -.1 .3 -.1 .4 -.2c.1 .1 .2 .3 .1 .5c0 -.1 .1 -.1 .2 -.1c-.4 .1 -.4 .2 -.2 .3l.2 -.1l-.2 .1c.1 0 .5 -.1 .3 .1l-.2 .1c.2 0 .5 0 .4 .1l-.3 .2c.1 .1 .3 .1 .3 0c-.1 .2 -.1 .3 -.3 .5c.7 0 .9 .3 1 .7h-.2c-.1 .1 .3 -.1 .2 0c-.1 .1 -.3 .2 -.5 .2c-.1 .2 .4 .1 .5 .1c.2 0 -.2 0 .1 -.1c.1 0 -.1 .3 .2 .2c-.1 0 -.4 .1 -.5 .1l.2 .1c-.3 .2 -.8 0 -1.2 .3h.1c-.3 .2 -.5 0 -.5 .2c.2 0 .7 -.1 .8 -.2c.1 .1 .8 -.2 .8 -.1c-.1 .2 -.1 -.1 -.3 .1c-.3 .1 .2 .1 .1 .2c.1 -.2 .5 -.2 .5 -.2c-.1 .1 -.3 .1 -.3 .2c.2 -.1 .4 0 .5 -.2c.4 -.1 -.1 .2 .3 .1c-.3 .2 -.8 .2 -.9 .4c.3 -.1 .5 0 .9 -.2c-.1 0 -.3 .1 -.5 .2c-.1 .1 .6 -.1 .1 .2l.3 -.1c-.1 0 -.2 .1 -.3 .2c0 .1 .4 .1 0 .2c.1 0 .1 .2 .4 0c.1 -.2 -.3 0 .1 -.2c-.3 .2 .1 .1 .2 .1l-.1 .1c0 0 0 .1 .2 0c-.1 0 -.2 .1 -.2 .1l.3 -.1c.1 .1 -.5 .3 -.4 .4L333 296c0 0 -.2 .2 -.1 .2c.3 -.1 .6 -.1 .8 -.2c.1 0 -.3 .2 0 .1h-.3c-.1 .1 -.4 .3 -.4 .4c.1 0 .5 -.1 .6 -.2c0 0 -.1 .2 -.3 .2c.2 .1 .3 -.1 .5 -.1c-.2 .1 -.4 .3 -.6 .5h-.4v.1c-.3 0 -.2 .1 -.6 .2c0 .1 .1 .1 .3 .1c.4 -.3 .7 -.2 1.2 -.4c.2 .1 -1.1 .6 -.3 .5c.1 -.1 .5 -.2 .3 -.2c0 .1 .6 -.1 .4 .1c-.2 -.1 -.4 .3 -.8 .2c.2 0 .1 -.1 0 -.1c-.1 .1 -.4 .2 -.4 .3q.1 .1 .4 0c.2 -.1 -.1 -.1 .2 -.1c.1 .1 -.3 .3 .2 .1c0 -.1 .3 -.2 .4 -.3l.2 .1h-.2c-.1 .2 .4 0 .4 .1l-.4 .2c-.3 .1 .1 -.2 -.4 0c0 .1 .3 0 .2 .2h-.1c-.1 0 -.7 .3 -.3 .3c.2 0 .2 -.1 .4 -.1c.1 .1 .4 .1 .4 .1c-.4 .2 .1 .2 -.4 .3c.2 -.2 .1 -.4 -.3 -.3c-.4 .2 .1 -.1 -.4 0c0 .1 -.4 .3 -.7 .4c0 .1 .1 .1 .2 .1c.3 -.1 .2 -.2 .5 -.3c0 .2 .2 .3 .5 .2c-.1 .1 -.4 .2 -.4 .2c.1 .1 .2 .3 .1 .5c.4 -.3 .2 .2 .5 -.1c.1 -.1 .4 -.3 .6 -.3c0 0 -.2 .1 -.3 .1c.3 0 -.3 .3 .1 .2c-.2 -.1 -.6 .2 -.9 .3c.2 0 -.3 .1 -.2 .2c.2 0 .4 .1 .6 .2c-.3 .3 .1 .4 .2 .5c-.2 .2 -.6 .3 -.6 .4c0 .1 .4 -.3 .3 -.1l-.1 .1c.1 0 -.2 .3 .4 .1l-.5 .2c0 0 .1 0 .2 0c-.2 0 -.3 .1 -.4 .1c-.2 .2 .1 .2 .2 .3l.2 -.2c.3 .1 .1 .3 .2 .4l-.2 .1h.1c-.2 .1 -.3 .2 -.1 .2H333c.1 -.1 .3 0 .5 -.2c.2 -.1 .1 -.2 -.1 -.1h.1c-.3 .2 -.3 .1 -.6 .1c.1 .1 0 .2 .1 .1c-.2 0 -.3 0 -.3 -.1c.2 0 .2 -.1 .3 -.1c-.3 .1 -.4 0 -.4 -.1c.3 -.2 -.3 -.2 -.3 -.3c.4 -.1 .6 -.1 .8 -.1c.1 -.1 0 -.1 .1 -.2c-.3 0 -.6 .1 -.8 .1l.2 -.1c-.1 -.1 -.5 .1 -.5 -.1c.1 -.2 0 -.5 -.1 -.6l.3 -.1c-.6 .1 -.3 -.3 -.6 -.3c.1 -.3 -.4 -.4 0 -.6c-.4 -.3 -.7 -.6 -.7 -1h.3c-.2 0 .2 -.2 .1 -.2c-.2 .2 -.4 0 -.6 .1c.2 -.3 -.2 -.4 -.4 -.5l.2 -.1c-.5 .1 -.2 -.3 -.2 -.5c.1 0 .3 -.2 .2 -.2q-.4 0 -.7 -.1c0 -.1 0 -.3 .1 -.5c-.7 -.2 -.5 -.7 -1 -1l.3 -.2c-.8 -.2 -.5 -.9 -.9 -1.1l.5 -.2c.1 -.1 -.3 -.2 -.6 0c.1 -.2 -.3 -.2 .1 -.4c0 -.2 -.3 -.1 -.4 -.1c.1 -.3 0 -.4 -.2 -.6v.1c.1 0 .3 -.1 .3 -.2c-.1 0 0 -.3 -.5 0c.2 -.4 -.4 -.5 -.1 -.9q-.2 .1 -.3 .1c-.1 -.2 .1 -.5 -.2 -.6c.1 -.1 .3 0 .3 -.1c-.1 -.1 -.2 0 -.3 0c-.4 -.2 0 -.8 -.2 -1c-.5 -.4 -.6 -1 -.8 -1.5l.1 -.1c-.5 0 .2 -.5 -.4 -.4c0 -.1 -.1 -.2 .2 -.2c-.4 -.1 .1 -.5 -.4 -.6l.1 .1c.2 -.3 -.2 -.4 -.1 -.7c.1 0 .1 .1 .2 0c.2 -.1 -.5 0 0 -.2c0 -.1 -.3 0 -.2 0c0 -.5 -.5 -.8 -.9 -1.3c.2 -.4 .9 -.3 .4 -.4c.1 -.1 -.2 0 -.1 0c-.2 -.1 .5 -.4 .2 -.4c-.1 .1 -.2 .1 -.2 .1h-.1c-2.4 -.2 3.4 .3 2.8 .2l.1 .1c-.3 .1 -.6 -.1 -.5 .2L327 285c.4 .5 0 .5 .4 1c-.5 1 -.8 2.1 -1.3 3.1c-.7 .9 -1 1.9 -1.9 2.7q-.5 0 -.5 .3l-.1 -.1c.3 .3 -.1 .2 .2 .4c-.3 .4 -.4 .7 -.6 1.1c0 -.1 -.3 -.3 -.3 -.2l.2 .2H323c0 0 .1 .2 .3 .2c-.3 1.1 -1.5 1.6 -2 2.5c-.2 .1 -.3 .5 -.4 .8c-.8 .4 -1.6 .8 -1.7 1.7c0 0 -.8 -.7 -.8 -1.1Z" class="g3_69"/>
<path d="M333 302.5c.1 -.1 .2 -.2 .5 -.2Z" class="g3_69"/>
<path d="M333.9 299.5c0 0 .1 -.1 .1 -.1c0 0 .2 0 .1 .1c0 -.1 -.1 0 -.2 0Z" class="g3_69"/>
<path d="M333.8 298.9c.1 -.1 .3 0 .4 0Z" class="g3_69"/>
<path d="M334.2 298c.1 -.1 .2 -.1 .2 0Z" class="g3_69"/>
<path d="M333.8 298.1c0 0 .1 -.1 .2 -.1c-.1 0 .1 .1 -.2 .1Z" class="g3_69"/>
<path d="M333.8 296.8c0 0 -.1 -.1 0 -.2c-.1 .1 .3 .1 0 .2Z" class="g3_69"/>
<path d="M333.4 296.3h-.1c.1 -.1 .2 -.1 .3 -.1Z" class="g3_69"/>
<path d="M328.7 286.5l.1 .1h-.2Z" class="g3_69"/>
<path d="M324.4 284.6c0 .1 -.2 0 -.2 0c0 -.1 .2 .1 .2 0Z" class="g3_69"/>
<path d="M323.8 287.2v0l.3 .2Z" class="g3_69"/>
</svg>