<?xml version="1.0" encoding="UTF-8" standalone="no"?>
<!DOCTYPE svg PUBLIC "-//W3C//DTD SVG 1.1//EN"
"http://www.w3.org/Graphics/SVG/1.1/DTD/svg11.dtd">
<svg viewBox="0 0 660 990" version="1.1" xmlns="http://www.w3.org/2000/svg" xmlns:xlink="http://www.w3.org/1999/xlink">
<defs>
<style type="text/css"><![CDATA[
.g0_116{
fill: none;
stroke: #949698;
stroke-width: 0.763;
}
.g1_116{
fill: #FFF;
}
.g2_116{
fill: none;
stroke: #231F20;
stroke-width: 2.75;
}
.g3_116{
fill: #231F20;
}
.g4_116{
fill: none;
stroke: #231F20;
stroke-width: 1.833;
}
]]></style>
</defs>
<path d="M318.5 969.1h23" class="g0_116"/>
<path d="M539.8 612.9H354.6V412.5H539.8V612.9Z" class="g1_116"/>
<path d="M539.8 612.9H354.6V412.5H539.8ZM354.6 512.7H539.8" class="g2_116"/>
<path d="M331.6 663.6H568.2V830.3H331.6V663.6Z" class="g1_116"/>
<path d="M331.6 663.6H568.2V830.3H331.6Zm118.3 0V830.3" class="g2_116"/>
<path d="M410.3 717.2c-.1 -.2 -.3 0 -.1 -.1c.1 0 .2 0 .1 .1Z" class="g3_116"/>
<path d="M421.3 726.3c.2 .9 -.7 .5 -.7 1.2c0 .1 -.3 -.4 -.3 -.2c.1 .8 -.7 .9 -1.4 .8l-.1 -.1c-.1 -.1 .1 .3 0 .4c-.1 -.1 -.1 -.2 -.2 -.2c.1 .2 -.1 .2 0 .4c-.1 -.1 -.2 -.3 -.3 -.3l.1 .2c.3 .7 -.3 .3 -.3 .7q0 -.1 -.1 -.2c0 .6 -.4 .8 -.6 1.2c-.1 -.1 -.2 -.3 -.3 -.4c.2 .3 .2 .4 .1 .5c-.2 -.2 0 .4 -.2 .3c.1 .3 -.2 -.1 0 .2l-.2 -.1c.2 .4 -.3 -.1 -.2 .1l.1 .1c0 .1 -.2 0 -.2 .1l-.1 -.1c0 .2 -.2 .1 0 .3c-.2 -.1 0 -.1 -.3 -.4c-.2 .6 -.6 .9 -1.1 1.2q-.1 -.1 -.2 -.2c0 .1 -.1 .2 -.1 .3c0 0 -.1 -.1 -.1 -.1c-.2 0 .1 .4 -.1 .3c0 -.1 -.1 -.2 -.1 -.3c.1 .3 -.1 .3 -.1 .5q0 -.1 -.1 -.2c.1 .3 -.2 .1 -.2 .3v-.2c-.3 -.1 .2 .4 0 .3c0 0 -.1 -.1 -.1 -.2c.1 .4 -.2 .4 -.2 .6c-.1 .1 -.3 .1 -.3 .3c-.1 0 -.3 -.4 -.4 -.3c.3 .4 -.1 .3 .3 .6c-.2 .1 -.4 .1 -.4 .2c-.1 -.1 -.4 -.3 -.3 -.4l-.2 -.2c-.1 -.1 .1 0 -.1 -.1c0 0 0 .3 -.1 .2c.1 .3 .3 .7 .2 .9c-.1 -.2 -.3 -.4 -.3 -.5l.3 .8c-.1 0 -.2 -.3 -.2 -.1c0 .1 .1 .1 .1 .2c-.1 0 -.1 .2 -.4 -.1c-.1 -.1 0 -.1 -.1 -.2c-.1 .1 0 .2 -.1 .3v-.1c-.1 0 -.1 .3 .1 .4c.1 0 -.1 -.2 0 -.1c.1 .2 .1 .3 0 .4c0 -.1 -.1 -.2 -.2 -.3c.1 .4 .1 .5 0 .7c.2 .2 -.1 -.3 0 -.2c-.4 -.1 -.1 .5 -.5 .3c0 0 .2 .2 .2 .2c-.1 0 -.3 -.2 -.3 -.1c-.1 -.1 0 .1 0 .2c0 .1 -.1 -.1 -.1 -.1c0 .1 0 .3 -.1 .4l-1.3 1.5l-.5 -2.4c-.1 -.1 -.1 -.2 0 -.3c-.1 0 -.4 -.1 -.4 -.1h.3c.1 -.1 0 -.2 .2 -.2c-.3 -.1 .3 .4 0 .3c.2 -.1 -.4 -.2 0 -.2c-.1 -.1 -.3 -.2 -.1 -.3c0 .1 .3 .1 .3 0c0 -.1 -.1 0 -.2 -.1l-.1 -.1c-.2 0 0 -.1 -.2 0c.2 0 -.2 -.2 .2 -.2h.4c-.1 -.1 -.4 -.1 -.5 -.1c0 0 .1 0 .1 0c-.5 0 .1 -.2 -.3 -.2c.2 -.2 0 -.3 .3 -.4c-.1 -.1 -.3 -.2 -.2 -.3c0 0 0 .1 .1 .1c.2 -.1 .1 -.1 0 -.2c.1 .1 .3 -.1 .4 -.2c-.1 -.1 -.4 0 -.5 0c.4 -.1 -.4 -.3 .1 -.4c0 0 .2 .1 .3 .1c.5 -.1 -.3 -.2 -.1 -.3h-.4c.3 -.1 -.2 -.2 .2 -.2c-.2 0 .1 -.1 -.3 -.1c.3 -.2 -.2 -.5 .5 -.7c-.1 0 0 -.1 -.2 -.1c-.2 .1 .2 .1 0 .1c0 0 -.1 0 -.2 0c.1 -.1 .2 -.1 .5 -.1c.2 -.1 -.7 -.1 -.5 -.3c.1 0 .2 0 .2 -.1l-.3 -.1c0 -.1 .3 -.1 .6 -.1c0 0 0 -.1 -.2 -.1l.3 -.1c-.2 0 -.1 -.1 -.2 -.1h.1c.1 0 0 -.1 0 -.1c-.2 0 -.3 .1 -.3 .1c-.1 0 -.1 -.1 -.3 -.1c.3 0 .2 -.1 .3 -.2c0 0 -.3 0 -.3 0c.2 0 0 -.1 .2 -.1c.1 0 -.1 .1 0 .1c.1 -.1 .4 -.1 .2 -.1c-.1 -.1 -.5 0 -.4 -.1c.1 0 .2 0 .3 0l.1 -.1h-.2q.1 0 .1 0c-.3 0 -.1 -.2 -.4 -.2c0 0 .2 -.1 .2 -.2v.1c.2 -.1 .1 -.2 -.1 -.3h.1c0 0 0 -.1 -.2 -.1c.2 -.1 .9 -.1 .6 -.2c0 0 -.4 -.1 -.6 0c.2 -.2 -.2 -.4 .2 -.5c-.1 -.1 -.2 -.1 -.3 -.1c.1 -.2 -.3 -.5 .2 -.7c.1 .1 .3 0 .4 0c-.2 -.1 .2 -.1 -.2 -.1c-.2 0 -.3 0 -.4 .1c-.1 -.2 -.1 -.4 .1 -.5c-.1 .1 -.2 .1 -.2 0c.3 0 .4 -.1 .2 -.2h-.2h.3c-.1 0 -.5 0 -.3 -.1c.1 0 .2 0 .2 -.1c-.1 0 -.4 -.1 -.3 -.2l.3 -.1c0 -.1 -.2 -.1 -.3 0c.2 -.2 .2 -.3 .5 -.4c-.7 -.2 -.7 -.6 -.7 -.9h.2c.2 -.1 -.3 0 -.2 -.1c.2 0 .4 -.1 .6 0c.1 -.1 -.3 -.1 -.4 -.2c-.2 0 .1 0 -.1 0c-.1 0 .1 -.1 -.2 -.1c.1 -.1 .4 -.1 .5 0l-.2 -.1c.4 -.1 .7 .2 1.2 .1l-.1 -.1c.4 -.1 .4 .2 .5 0c-.1 -.1 -.6 -.1 -.7 -.1c-.1 -.1 -.8 0 -.8 -.2c.2 0 .1 .2 .3 .1c.3 -.1 -.1 -.1 0 -.2c-.2 .1 -.5 0 -.5 0c.1 -.1 .3 0 .3 -.1c-.2 0 -.3 -.1 -.5 0c-.4 0 .2 -.1 -.2 -.2c.3 0 .7 .1 .9 0c-.3 0 -.4 -.2 -.9 -.1c.1 0 .4 -.1 .5 0c.2 -.1 -.5 -.2 .1 -.2H408l.3 -.1c0 -.1 -.4 -.2 0 -.2c0 -.1 0 -.2 -.3 -.1c-.2 .1 .2 .1 -.2 .1c.4 0 0 -.1 -.1 -.2h.1c0 0 0 -.1 -.2 -.1c.1 0 .2 0 .3 0h-.3c-.1 -.2 .5 -.1 .4 -.2l.2 .1c-.1 0 .2 -.1 .1 -.1l-.7 -.1c-.1 -.1 .3 0 0 -.1l.3 .1c.1 0 .4 -.1 .4 -.2c-.1 0 -.4 -.1 -.6 0c0 -.1 .2 -.1 .3 -.1c0 -.1 -.2 0 -.4 -.1c.2 0 .4 -.1 .6 -.2l.4 .1v-.1c.4 .1 .3 0 .6 0c.1 0 0 -.1 -.1 -.1c-.6 .1 -.8 -.1 -1.2 -.1c-.2 -.2 1.1 -.1 .4 -.3c-.2 0 -.5 0 -.4 .1c.1 -.1 -.5 -.1 -.3 -.2c.2 .1 .5 -.1 .8 0c-.2 0 -.1 .1 -.1 .1c.2 0 .5 0 .5 -.1c0 -.1 0 -.2 -.3 -.1c-.3 0 0 .1 -.2 0c-.1 -.1 .3 -.1 -.2 -.2c0 .1 -.3 .1 -.5 .1l-.1 -.1h.2c.1 -.1 -.3 0 -.3 -.1l.4 -.1c.3 0 -.2 .2 .4 .2c0 -.1 -.3 -.2 -.2 -.3q.1 .1 .2 .1c0 0 .6 -.1 .2 -.2c-.1 -.1 -.1 0 -.3 0c-.1 -.2 -.3 -.2 -.3 -.3c.4 0 0 -.2 .4 -.1c-.2 .1 -.2 .3 .2 .3c.4 0 -.1 .2 .4 .2c0 -.1 .4 -.2 .7 -.2c0 0 -.1 0 -.2 -.1c-.2 0 -.2 .1 -.5 .1c.1 -.2 -.1 -.3 -.4 -.4c.2 0 .4 0 .5 0c-.1 -.1 -.1 -.3 0 -.5c-.4 .2 -.1 -.1 -.5 -.1c-.1 .1 -.4 .2 -.6 .2c.1 -.1 .2 0 .3 -.1c-.2 0 .4 -.1 0 -.1c.2 .1 .6 0 .9 0c-.2 -.1 .2 0 .2 -.1c-.2 -.1 -.3 -.2 -.4 -.4c.3 -.1 0 -.3 0 -.5c.2 -.1 .6 0 .6 -.1c0 -.1 -.4 .1 -.2 -.1h.1c-.1 0 .2 -.2 -.3 -.2h.4c0 0 -.1 0 -.1 -.1c.1 0 .2 0 .3 0c.3 -.1 0 -.1 0 -.2h-.3c-.2 -.1 .1 -.2 0 -.4h.2l-.1 -.1c.2 .1 .4 0 .2 -.1l.6 .2c-.2 .1 -.3 0 -.6 0c-.2 .1 -.1 .2 .1 .2l-.1 -.1c.3 0 .3 .1 .6 .1c-.1 0 0 -.1 -.1 -.1q.2 .1 .2 .2c-.1 0 -.2 .1 -.3 .1c.3 0 .4 0 .3 .2c-.3 0 .3 .2 .2 .3c-.3 0 -.6 -.1 -.7 -.2c-.1 .1 0 .1 -.1 .2c.2 0 .5 0 .7 .1l-.2 .1c.1 .1 .4 0 .3 .2c-.1 .2 -.1 .4 -.1 .6h-.2c.5 .1 .2 .3 .4 .4c-.2 .2 .2 .4 -.2 .5c.2 .4 .4 .7 .3 1.1l-.3 -.1c.2 .1 -.2 .1 -.1 .2c.2 -.1 .3 0 .5 .1c-.3 .2 0 .4 .3 .5h-.3c.5 .2 .1 .3 0 .5c-.1 .1 -.3 .1 -.2 .1c.3 .1 .3 .2 .5 .3c0 .1 -.1 .3 -.2 .4c.5 .4 .2 .9 .5 1.3h-.2c.5 .4 0 .9 .3 1.3h-.4c-.2 .1 .1 .2 .4 .2c-.1 .1 .2 .2 -.1 .3c-.1 .1 .2 .2 .2 .2c-.1 .3 -.1 .4 0 .6v-.1c-.1 0 -.3 0 -.3 .1c.1 0 -.1 .2 .4 .2c-.3 .2 .3 .5 -.1 .7c.1 0 .2 0 .3 .1c0 .2 -.3 .4 -.1 .5c0 .1 -.2 0 -.2 .1c0 0 .2 0 .2 0c.3 .3 -.2 .7 -.1 1c.2 .5 .1 1 .2 1.5h-.1c.4 .2 -.4 .4 .2 .6c-.1 0 -.1 .1 -.3 .1c.3 .1 -.2 .4 .1 .6q0 -.1 0 -.1c-.3 .2 .1 .4 -.1 .6c-.1 0 -.1 -.1 -.2 -.1c-.2 .1 .4 .2 -.1 .3c0 0 .3 0 .3 0c-.2 .4 .1 .9 .2 1.4c-.3 .3 -.8 0 -.4 .3c-.1 0 .2 0 0 0c.2 .1 -.5 .1 -.3 .2q.3 0 .3 0l-2.3 -1.1c.3 0 .5 .2 .5 -.1l.1 .2c-.2 -.5 .1 -.5 -.1 -1c.8 -.7 1.4 -1.6 2.2 -2.3c.9 -.5 1.5 -1.3 2.5 -1.7q.4 .2 .5 -.1q.1 .1 .1 .1c-.2 -.3 .2 -.1 0 -.4c.3 -.2 .5 -.5 .8 -.7c0 0 .2 .3 .2 .2l-.1 -.2l.1 .1c0 -.1 -.1 -.3 -.2 -.3c.6 -.9 1.8 -.9 2.5 -1.6c.3 0 .5 -.3 .6 -.5c.9 -.1 1.7 -.2 2 -.9c0 0 .5 .8 .4 1.2Z" class="g3_116"/>
<path d="M410.3 717.3c-.2 0 -.3 .1 -.5 .1c.2 -.1 .4 -.1 .5 -.1Z" class="g3_116"/>
<path d="M408.5 719.6c.1 0 -.1 .1 -.1 .1c0 -.1 -.2 -.1 -.1 -.1q.1 0 .2 0Z" class="g3_116"/>
<path d="M408.4 720.2c-.1 0 -.3 -.1 -.3 -.2Z" class="g3_116"/>
<path d="M407.8 720.8q-.2 0 -.2 -.1c.1 0 .1 .1 .2 .1Z" class="g3_116"/>
<path d="M408.1 720.8c0 0 -.1 .1 -.1 .1c.1 0 -.1 -.1 .1 -.1Z" class="g3_116"/>
<path d="M407.7 722c0 0 .1 .1 0 .1c.1 0 -.2 -.1 0 -.1Z" class="g3_116"/>
<path d="M408 722.5q-.1 .1 0 .1c-.1 0 -.2 0 -.2 0Z" class="g3_116"/>
<path d="M408.8 732.5l-.1 -.1l.2 .1Z" class="g3_116"/>
<path d="M411.9 735.6c0 -.1 .2 .1 .2 .1c-.1 0 -.1 -.2 -.2 -.1Z" class="g3_116"/>
<path d="M413.3 733.5v0l-.2 -.3Z" class="g3_116"/>
<path d="M410.9 732.5c-.5 1.4 .8 -.6 -.2 1c-.2 -.3 -.2 -.7 .2 -1Z" class="g3_116"/>
<path d="M280.1 445.9c5 -1.7 11.5 .2 17 -.7c.6 0 -.2 .9 1.2 .8c5.4 -1.2 13.7 0 20.1 1.4l-.4 .3c1.2 .2 2.7 -.5 4 -.3c0 .2 -.4 .2 -.1 .5c.3 -.5 2.3 -.1 2.9 -.5c.5 .3 .4 .7 1.1 1l.8 -.6c2.1 -1.2 5 .5 7.8 .1c-.1 .1 -.4 .2 -.2 .3c4.6 -.4 10.3 .3 15.3 .6c-.2 .2 -.4 .5 -.2 .8c.4 -.6 1.9 -.5 3.3 -.5c.5 .7 2.4 -.3 3.9 .3l-.1 .1c1.3 -.5 1.7 .7 2.7 0l.7 .6c.7 -.8 1.6 .7 2.7 .4v-.2c.9 0 1.3 .5 2.2 .5v.1c2 .1 3.1 .8 3.2 .1c.6 .7 -2 -.1 -1 .9c6.6 .4 13.2 1.9 19.6 3.7c.7 .4 1.1 .7 1.2 1c.6 0 2.4 .5 3.1 .4c-.2 -.1 .3 .5 .6 .6c1.1 .6 1.5 -.3 2.6 .4c-.5 0 -.8 .2 -.7 .5c1.3 -.2 2.7 .4 4 .8c-.3 0 -.6 -.1 -.6 .2c1.6 -.1 2.4 1.1 3.7 1.2l-.6 .2c1.7 1.3 .9 -.5 2.4 .5c-.4 0 -.4 .2 -.5 .3c1.8 0 4.1 1.6 5.6 2.3c-.1 0 -.2 .1 -.2 .1c1.6 1 2.9 2.4 4.7 3.4c.4 .6 -.8 .6 .7 1.7c.5 -.7 2.7 1.9 2.4 .5c1.2 1.2 2.8 3.2 3.8 3.8c-.8 -.3 -.2 1.3 -1.2 .3l.4 1.1c-.3 .1 -.7 -.8 -.7 -.3c.5 .5 2.1 1.7 2.4 2.2c1.2 .6 2.7 .8 4.1 2.3c-.9 -.5 -.4 1 -.9 .6c1 .4 2 .8 3 1.2c.5 .6 -.4 .5 .4 1.2c.1 -.2 .5 .1 .8 .2c.1 .3 1.9 2.2 1.4 2.9c-.1 .4 -.8 -.8 -.6 0c.7 1 1 .9 1.7 1.9l-.1 .1c.4 .8 1.7 1.9 1.6 .9c-.3 -.5 -.3 .4 -.6 -.4c.7 .2 1.6 1.4 2.3 2.5c-.3 -.3 -.5 -.2 -.8 -.2c1.5 1.1 2.6 2.6 3.7 4.1c.4 -.1 -.9 -.3 -.9 -.6c.7 2.4 3.1 4.1 3.2 6.3c-.2 -.3 .5 -.4 .4 -.4c.4 1.1 -.1 1.3 .4 1.9c-.2 .2 .5 .9 .9 1.5c.4 .3 0 .3 -.3 -.3c.7 .9 2.9 4.8 3.3 7.3c.2 -.1 1.2 1.2 1.4 1.8l-.5 -.1c-.1 .6 .6 1.9 .3 2.1c1 1 -2.1 -4.4 -1.1 -2.9c-.2 .5 1.5 1.9 .8 1.8c.4 1.1 1.3 2 1.1 3.2c0 -.3 -.9 -.6 -.6 .2c.6 1.6 .4 .4 .9 1.7l.5 .7c.5 -.1 .3 1.5 .7 .7c-.3 .3 .9 2.3 0 2.4l-.6 -.1c.2 .7 .9 1 1.3 1.4c0 .1 -.1 .4 -.2 .3c1 -.1 .3 1.7 1.3 2.4c0 1.5 .8 3.8 .3 4.6c.6 1.1 1.1 2 1.1 3.4c-.1 -.3 -.2 -.6 -.4 -.6c-.2 .8 .1 1 .4 1.7c-.1 -.1 -.3 1.7 -.5 2.7c.5 1.1 1 .6 1.3 .7c-.8 1.2 1.1 3.1 .4 4.5c-.2 -.3 -.7 -1.6 -.8 -.6c-.8 1.2 1 2 .7 3.8l.8 -.5c-.5 .8 .7 2.4 -.2 2.3c.4 .6 0 2 .7 1.8c-.4 2.8 1 6.7 -.4 8.5c.2 .4 .1 1.4 .5 1.2c.4 -.7 -.4 -.9 -.1 -1.2c.1 .4 .3 .4 .4 .5c-.2 .8 -.2 1.5 -.9 .7c-.4 2 1.4 2 1.2 4.4c-.3 -.1 -.4 .1 -.4 .8l.6 1.4c-.1 1.6 -.7 .9 -1.3 .9c.1 .9 .1 1.9 .5 2.3l-.7 1c.5 -.7 .4 .7 .5 1.1l-.1 -.4c-.3 .2 -.1 1.1 -.1 1.6c.4 -.1 .5 -1.1 .6 -1.6c.3 .4 .2 1.1 .5 1.7c-.6 -.2 -.4 1.3 -.5 2c-.1 .8 .5 .9 .4 1.1c-.2 0 0 1.3 -.4 .7c-.1 -.3 .3 -.6 0 -1.1c-.2 .5 -.7 .5 -.3 1.5c.2 .8 1 -.2 .6 1.3c-.1 -.4 -.3 -.4 -.5 -.8l-.3 1.4l.5 .1c-.1 .2 -.2 .1 -.2 .2c.5 .4 0 2.1 .6 2.5c0 .7 -.4 1.4 -.5 2.1l-.1 -.1c-.3 .8 -.2 1.9 .1 2.6h-.1c0 .4 0 1.5 .2 2.1c-.4 1.1 -1.9 .2 -1.3 1.6c-.1 1.1 .7 1.8 1.1 1.4c-.5 2 .1 4.5 -.9 6.3c.2 .4 .3 .2 .4 .8c-.5 3 -.2 6.5 -1.4 8.8c-.1 -.9 -.5 -.1 -.8 -.1c.4 .8 -.6 .8 .2 1.2c.4 -.1 .6 0 .9 -.8c0 1.9 -.4 4.6 -.9 5.6c.2 -.5 .3 -.1 .4 .3c-.7 -.2 -1 1.1 -.9 2.1l.4 .2l-.5 .6c0 .4 .8 .6 .2 1.5c-.2 .1 -.3 .1 -.5 .3c.2 1.1 .6 2.6 0 3.7l-.8 .8c0 .5 .2 1.4 .6 .6c-.7 1.8 -1 3.1 -1.7 3.6c.8 3.5 -.1 8.3 -1 12.1l-.3 -.1c-.5 .9 .4 .6 0 1.3c-.2 -.4 -.8 .6 -1 -.3c-.6 1.4 .2 2.1 .1 3c.4 .3 -.1 -.8 .4 -.5c.1 .2 -.8 2 -.2 2.3c-.4 .4 -.7 0 -1 -.3l.1 1c-.9 .9 -.7 -2.8 -1.9 -1.9v.9c-.9 .6 -.3 -2.4 -1 -.3c.1 .9 .9 1.9 1.3 1.2c-.2 1.9 1.3 1.2 .8 3.2c-.5 .4 .3 -1.7 -.3 -1.4c-.7 .8 -.2 2 -.6 2.8c.5 -.9 .9 0 .9 .6c-.5 1 -.4 -.8 -.8 .7c.3 .3 .2 1.7 .7 .6c.7 .7 -.5 1.5 -.1 2.4c-.7 .3 -1 -1.8 -1.6 -.3c.6 -.1 .2 2.1 1.3 1.5c-.4 .6 -.8 .5 -1 0c-.6 .8 .4 2.4 -.7 2.4l.4 .5c-.2 .2 -.4 .6 -.9 .9c-.2 .8 .1 2.8 -.7 2.5c0 .2 -.5 2 .3 1.5c.6 -1 -.1 -1.4 .9 -1.8c-.9 .6 -.4 1.6 -.3 2.3H440c0 .4 -.3 1.3 0 1.6c-.1 -.3 -.4 -.2 -.5 0l.4 .6c-.2 1.6 -1 .1 -1.3 1.6v-1.2c0 .3 -.6 .7 -.7 1.4c.4 .4 .8 1.1 1.1 1.4c0 .9 -.6 .3 -.4 1.2l-.2 -1.2c-.1 -.2 -1 .5 -1.3 1.6c0 .8 .3 2.1 .9 1c-.2 .6 -.7 1.3 -.9 .8c-.2 1.3 .6 0 .5 1.1c-.4 .4 -1.2 1.7 -1.9 2.4l-.5 -1.4l-.2 .8c-.3 -1.2 -.6 .4 -1.1 -.4c-.2 .5 -.2 1.2 -.2 1.8c1.5 -1.3 .9 2.1 2 1.9c-.4 2.2 -2.7 .6 -1.9 3.3c.4 -.3 .8 .9 .9 -.5c-.5 1.3 .7 1.2 -.2 2.6c0 -1.3 -1.3 .9 -1.3 -.9c.2 .2 .5 -.8 .5 -1.1c-.6 .4 -.9 -.4 -1.4 .9c-.1 .9 -.4 2 .1 2c.5 .1 .3 -1.3 .7 -.6c-.3 1.7 -1.2 1.7 -.5 2.6c.3 -1 .9 -1.1 1.3 -1l-.2 1.3l-.3 -.3c-.8 1.8 .5 .7 -.2 2.5l-1 .7c-.4 -.7 1.2 -2.6 .1 -2.6c-.4 1.2 -.1 1.7 -.7 2.8c0 -.3 .1 -.6 .1 -.9c-.2 .4 -1.6 .4 -1.4 2.3c0 1 .3 .4 .6 .5c-.5 2 -.3 2.7 -.7 3.9c-.6 -.5 -.7 2.2 -1 .6c.6 -.5 1.5 -3.3 1 -4.2c-1.1 .4 .6 -1.5 -.1 -2.1c-.5 1.5 -1.3 1.1 -1.9 1.2c-.2 .4 -.1 .9 -.1 1.2c.4 .3 .6 -.2 1.1 -.1c-.7 1.7 -.9 3.4 -.7 4.5c-.5 .5 -.9 .1 -.8 -.5c-.5 2 -1.3 4.2 -2.1 6c1.3 -.9 -.6 2.2 .4 1.6c.6 -.9 1.5 -1.6 1.6 -.9c-.2 .6 -.3 -.2 -.6 0c.2 1 -1.1 1.1 -.7 2.1c.4 -1.9 -.9 -.7 -1.4 -1.3c-.1 1.5 -.5 -.2 -.9 1.1c-.1 1.5 -.4 3.2 -.8 4.7c-1.3 1.6 -1.7 4.6 -2.3 6.3c-.7 .7 -1.2 -.1 -1.7 .7c-.4 1.1 1.1 -.5 .2 1l-.1 -.2c0 .6 -1.6 2.8 -.8 3.6l-.6 -.8c-.2 .3 -.1 .7 -.1 .9c-.3 0 -.6 .2 -.6 -.3c-.9 .7 -.7 2.1 -1.1 3.1l.7 -.5c-.4 2 -1.3 3.1 -1.9 4.9l-.4 -.2l-.2 1.1c-.3 -.4 -1 .4 -.9 1.1l.1 -3.1c.5 -.7 .2 1 .8 .7c.6 -.2 1.1 -1.9 .8 -2.4c-.3 .6 -.2 .7 -.3 1.3c-.7 -.1 -.3 -1 -.5 -1.7c-.1 .4 -.5 .8 -.3 .9c-.1 -.8 .2 -1.4 .6 -2.5c-.1 .8 .5 -.2 .6 .1c-.5 -.3 -.3 -1.4 .4 -2.7c1 -.7 .5 -2.6 1.3 -4.1c.3 .9 .5 1.8 .3 2.9c.7 -.9 .4 -1.1 1.1 -2c-.2 -.6 -.8 -1.2 -.5 -2.6l.4 .1c.2 -1.2 -.4 -1.4 .3 -2.9c1.1 -2.4 2 -5 2.8 -6.9l.4 .1c-.5 -1.4 1 -3.7 1.1 -5.3c1.2 -2.3 1.4 -5.5 2.5 -6.5c1.1 -4.5 2.1 -8.4 3.6 -12.9l.4 .9c-.2 -.9 .5 -.4 .7 -1.2c-.8 .8 -.3 -1.3 -.6 -2c1.1 -1.9 1.4 -4.6 1.5 -6.6l.4 .1c-.3 -2.1 1.1 -4 1.8 -6.3c.3 -.2 .8 -.5 .9 -1.2c-.3 -1.4 -.1 -2.1 -.1 -4c.4 -1.3 1.1 -3.4 1.7 -4.7c.3 -5.3 2.2 -10.2 2.7 -15.6l.6 -.3c0 -5.3 2.2 -11.3 2.4 -15.8l.9 .6c.5 -1.3 .3 -3.2 -.4 -2.9c.5 -1.4 .1 -3.5 1 -4.3c.4 -1.4 -.1 -1.8 -.1 -3c.8 -2.7 .9 -3.8 1.1 -6.4l-.2 .6c.2 .3 .5 .4 .7 -.3c-.1 -1 .7 -3.6 -.5 -2.7c1 -2.8 .3 -6.7 1.4 -9.4c-.3 .2 -.3 -.5 -.5 -.8c.3 -2.5 1.1 -5.1 .7 -7.1c.2 -.4 .5 .7 .6 -.3c-.1 -.6 -.4 -.1 -.5 -.8c-.3 -4.1 1 -8.2 1 -11.9c-.4 -6.5 -.2 -13.3 -.7 -19.6l.2 .1c-1 -2 .5 -5 -.9 -6.5c.1 -.5 -.1 -1.9 .3 -1.6c-.7 -1.6 .1 -4.7 -1 -7c0 .2 .1 .4 .2 .6c.1 -2.5 -.8 -4.5 -.9 -7.1c.2 .3 .3 .7 .5 .7c.3 -1 -1.3 -2.1 -.4 -2.8c-.1 -.6 -.6 -.3 -.5 0c-.7 -5.6 -2.8 -11.2 -4.8 -16.6c-.8 -4.1 1.5 -.8 -.3 -3.7c.1 -.3 -.4 0 -.2 -.1c-.8 -1.1 .3 -2.3 -.5 -2.9c-.5 .5 -.5 -.5 -.9 -.3c-.6 -2.5 -.3 -3.2 -1.6 -4.9h.4c-1.8 -1.7 -2.6 -4.4 -4.5 -5.6C424.6 486.7 416.2 477.5 406.5 470c-1.2 -1 -2.2 -1.7 -3.5 -2.4c-1.2 -.8 -2.4 -1.5 -3.8 -2.1c-2.6 -1.2 -5.5 -2.3 -8.3 -3.2c-5.8 -1.9 -11.9 -3.4 -18.1 -5c-2.8 -1.4 -3 -1.4 -6.3 -1.6c.1 -.2 .3 -.2 .1 -.3c-.2 .7 -2.3 -.4 -2.7 .3c-4.6 -.9 -9 -1.3 -13.9 -1.9c.8 0 1.3 -.6 .3 -.6l-1 .3l-.1 -.2c-.7 0 -1.4 .3 -.8 .6c-12.2 -.8 -24.2 -3.2 -36.4 -3.7c-2.8 -.5 -6.9 -.4 -10.1 -.4c-9.2 -1.3 -17.6 -2.3 -27 -1.7c0 0 1.2 -1.8 5.2 -2.2Z" class="g3_116"/>
<path d="M411.5 730.7c.5 -.1 1.1 -1.1 1.2 -.1c-.4 0 -.9 .4 -1.2 .1Z" class="g3_116"/>
<path d="M425.4 705c-.1 0 .3 -.3 .3 -.4c0 .4 .1 .8 -.1 1c.1 -.4 -.1 -.4 -.2 -.6Z" class="g3_116"/>
<path d="M428 698.1c.3 .2 0 1.8 -.2 2.7Z" class="g3_116"/>
<path d="M431.5 691.9c.4 -.5 .5 -.3 .2 .5c-.1 0 -.1 -.3 -.2 -.5Z" class="g3_116"/>
<path d="M430.9 691.2c.2 -.5 .5 -.8 .7 -1c-.2 0 -.2 1.4 -.7 1Z" class="g3_116"/>
<path d="M436.3 677.1c.1 -.4 0 -1.2 .5 -1.4c-.4 .3 -.2 1.8 -.5 1.4Z" class="g3_116"/>
<path d="M437.8 670.2c0 -.2 .1 -.3 .1 -.5c.3 -.4 .4 .1 .3 .4Z" class="g3_116"/>
<path d="M450.9 543.9l.2 .7l-.3 -.1Z" class="g3_116"/>
<path d="M433.7 490.4c-.6 -.5 0 -.6 0 -.7c.4 .6 -.5 0 0 .7Z" class="g3_116"/>
<path d="M413 468.3l.1 .1l-.4 .5Z" class="g3_116"/>
<path d="M409.1 464.6c0 2.8 -2.3 5 -5.1 5c-2.8 0 -5 -2.2 -5 -5c0 -2.8 2.2 -5.1 5 -5.1c2.8 0 5.1 2.3 5.1 5.1Z" class="g1_116"/>
<path d="M409.1 464.6c0 2.8 -2.3 5 -5.1 5c-2.8 0 -5 -2.2 -5 -5c0 -2.8 2.2 -5.1 5 -5.1c2.8 0 5.1 2.3 5.1 5.1Z" class="g4_116"/>
<path d="M281.6 446.3c0 2.8 -2.3 5 -5 5c-2.8 0 -5.1 -2.2 -5.1 -5c0 -2.8 2.3 -5 5.1 -5c2.7 0 5 2.2 5 5Z" class="g1_116"/>
<path d="M281.6 446.3c0 2.8 -2.3 5 -5 5c-2.8 0 -5.1 -2.2 -5.1 -5c0 -2.8 2.3 -5 5.1 -5c2.7 0 5 2.2 5 5Z" class="g4_116"/>
<path d="M453.6 546.7c0 2.8 -2.3 5 -5 5c-2.8 0 -5.1 -2.2 -5.1 -5c0 -2.8 2.3 -5.1 5.1 -5.1c2.7 0 5 2.3 5 5.1Z" class="g1_116"/>
<path d="M453.6 546.7c0 2.8 -2.3 5 -5 5c-2.8 0 -5.1 -2.2 -5.1 -5c0 -2.8 2.3 -5.1 5.1 -5.1c2.7 0 5 2.3 5 5.1Z" class="g4_116"/>
</svg>