<?xml version="1.0" encoding="UTF-8" standalone="no"?>
<!DOCTYPE svg PUBLIC "-//W3C//DTD SVG 1.1//EN"
"http://www.w3.org/Graphics/SVG/1.1/DTD/svg11.dtd">
<svg viewBox="0 0 660 990" version="1.1" xmlns="http://www.w3.org/2000/svg" xmlns:xlink="http://www.w3.org/1999/xlink">
<defs>
<style type="text/css"><![CDATA[
.g0_62{
fill: none;
stroke: #949698;
stroke-width: 0.763;
}
.g1_62{
fill: #FFF;
}
.g2_62{
fill: none;
stroke: #231F20;
stroke-width: 2.979;
}
.g3_62{
fill: #231F20;
}
.g4_62{
fill: none;
stroke: #231F20;
stroke-width: 1.986;
}
]]></style>
</defs>
<path d="M318.5 969.1h23" class="g0_62"/>
<path d="M204.6 442.3H460.8V622.9H204.6V442.3Z" class="g1_62"/>
<path d="M204.6 442.3H460.8V622.9H204.6Zm128.1 0V622.9" class="g2_62"/>
<path d="M431.1 387.3H230.4v-217H431.1v217Z" class="g1_62"/>
<path d="M431.1 387.3H230.4v-217H431.1ZM230.4 278.8H431.1" class="g2_62"/>
<path d="M273.4 226.1c0 .2 .2 .3 0 .2c0 -.1 0 -.2 0 -.2Z" class="g3_62"/>
<path d="M277 211c.8 -.6 .9 .5 1.5 .2c.1 -.1 -.2 .4 0 .3c.7 -.4 1.1 .3 1.4 1l-.1 .1c.1 .2 .4 -.2 .4 -.1q0 .1 -.1 .3c.2 -.3 .3 -.1 .4 -.2c0 .1 -.1 .3 -.1 .4l.2 -.3c.5 -.6 .3 .3 .7 0c0 .1 -.1 .1 -.1 .2c.6 -.2 1 .1 1.4 .1c0 .1 -.1 .3 -.2 .4c.2 -.3 .4 -.3 .5 -.3c-.1 .3 .3 -.2 .4 0l-.1 .1c.3 -.3 .1 .2 .3 -.1v.2c.2 -.4 0 .3 .2 .1c.1 -.1 .1 .1 .2 .1h-.1c.2 0 .2 .3 .4 -.1c-.1 .3 -.2 .1 -.3 .5c.6 -.1 1.1 .2 1.6 .5c0 .1 0 .2 0 .3c.1 0 .2 .1 .3 -.1c0 0 0 .2 0 .2c0 .2 .3 -.3 .3 -.1c-.1 .1 -.1 .2 -.2 .3c.2 -.2 .3 -.1 .5 -.1q-.1 0 -.2 .1c.3 -.2 .2 .2 .4 .1l-.1 .1c0 .4 .2 -.4 .3 -.1c-.1 0 -.1 .1 -.1 .2c.3 -.3 .4 -.1 .6 -.2c0 0 -.1 .1 -.1 .1c.2 0 .3 .2 .5 .1c0 .1 -.2 .5 0 .5c.1 -.4 .3 0 .4 -.5c.1 .1 .2 .3 .4 .2c-.1 .2 -.2 .6 -.3 .5l-.1 .3c0 .2 0 -.1 -.1 .1c.1 0 .3 0 .3 .1c.2 -.2 .5 -.7 .7 -.6c-.1 .1 -.1 .4 -.2 .5l.6 -.7c0 0 -.2 .3 -.1 .3c.1 -.1 .2 -.2 .2 -.3c0 .1 .3 0 .1 .4c0 .2 -.1 .1 -.1 .3c.1 0 .2 -.1 .3 -.1l-.1 .1c.1 0 .3 -.1 .3 -.4c0 0 -.1 .3 -.1 .1c.2 -.2 .3 -.2 .4 -.1c0 0 -.1 .1 -.2 .2c.3 -.2 .5 -.3 .7 -.3c.1 -.2 -.2 .3 -.2 .2c.1 .3 .6 -.2 .6 .3c-.1 0 .1 -.3 0 -.3c.1 .1 0 .4 .1 .3c-.1 .2 .1 0 .2 0c.1 -.1 -.1 .1 -.1 0c.1 0 .3 -.1 .5 0l2.1 .5l-2.1 1.7c-.1 .1 -.2 .1 -.3 .1c0 .1 .1 .4 0 .4l-.1 -.2c-.1 -.2 -.1 .1 -.2 -.2c0 .4 .2 -.4 .2 -.1c-.2 -.2 0 .5 -.1 .1c-.1 .1 -.1 .4 -.3 .2c.1 .1 -.1 -.3 -.1 -.3c-.1 .1 0 .1 -.1 .3v.1c.1 .2 -.1 0 .1 .3c-.1 -.2 -.1 .2 -.3 -.2l-.2 -.3c0 0 .1 .3 .1 .5c0 0 0 -.1 -.1 -.1c.3 .4 -.1 0 0 .4c-.2 -.1 -.3 .1 -.5 -.1c0 .2 0 .4 -.1 .3c0 0 0 -.1 -.1 -.2c-.1 -.1 -.1 .1 -.1 .2c0 -.1 -.2 -.3 -.4 -.4c0 .2 .2 .4 .2 .6c-.3 -.4 -.1 .4 -.4 .1c0 -.1 0 -.3 -.1 -.4c-.3 -.4 0 .4 -.2 .3l.2 .3c-.2 -.2 -.1 .3 -.3 -.1c.1 .2 -.2 0 0 .4c-.3 -.2 -.4 .4 -.8 -.2c0 .1 -.2 .1 0 .3c.1 .1 0 -.2 0 -.1c0 0 .1 .1 .1 .2c-.1 -.1 -.2 -.1 -.3 -.4c-.2 -.2 .2 .7 -.1 .7c0 -.2 -.1 -.3 -.1 -.2v.3c-.1 0 -.2 -.3 -.4 -.6c0 .1 -.1 .1 0 .4l-.3 -.3c.2 .2 .1 .2 .1 .2c-.1 -.2 -.1 0 -.2 0c.1 .2 .2 .2 .3 .2q0 .1 0 .3c-.1 -.3 -.2 -.1 -.3 -.1c-.1 0 .1 .2 .1 .2c-.1 -.1 -.1 .1 -.2 -.1c0 -.1 .1 .1 .1 -.1c-.1 -.1 -.2 -.3 -.2 -.1c0 .2 .3 .5 .1 .4c0 -.1 -.1 -.2 -.1 -.3h-.2l.1 .2q0 -.1 0 -.1c.1 .2 -.1 .1 0 .4c-.1 .1 -.2 -.1 -.3 -.1c-.1 -.1 -.2 0 -.1 .2h-.1c0 0 -.1 0 0 .2c-.2 -.1 -.5 -.9 -.5 -.5c0 0 .1 .5 .2 .6c-.2 -.1 -.2 .4 -.5 .1c0 .1 .1 .2 0 .3c-.2 0 -.3 .5 -.7 .1c0 -.1 -.1 -.2 -.2 -.3c0 .2 -.2 -.2 0 .2c.1 .2 .1 .3 .3 .3c-.1 .2 -.3 .3 -.5 .2c.1 0 .1 .1 .1 .2c-.2 -.4 -.3 -.3 -.3 -.2l.1 .2l-.2 -.2c0 .1 .2 .5 0 .3c0 0 -.1 -.1 -.1 -.2c0 .2 0 .6 -.1 .4l-.3 -.2c0 0 0 .2 .2 .3c-.3 -.1 -.4 -.1 -.6 -.3c.1 .8 -.3 1 -.6 1.1v-.2c-.2 -.1 .1 .3 -.1 .2c0 -.1 -.2 -.3 -.2 -.5c-.2 -.1 0 .4 -.1 .5c.1 .2 0 -.2 .2 .1c0 .1 -.3 -.1 -.1 .2c-.1 -.1 -.2 -.3 -.3 -.4v.1c-.2 -.3 -.1 -.7 -.4 -1.1l-.1 .1c-.2 -.3 0 -.5 -.2 -.5c0 .2 .2 .7 .3 .8c-.1 .1 .3 .7 .2 .8c-.2 -.2 .1 -.1 -.1 -.4c-.2 -.2 -.1 .3 -.2 .2c.1 .1 .2 .4 .2 .5c-.1 -.1 -.1 -.3 -.2 -.3c.1 .2 0 .4 .2 .5c.2 .4 -.2 -.1 -.1 .3c-.2 -.3 -.2 -.7 -.4 -.8c.2 .2 0 .4 .3 .8c-.1 -.1 -.2 -.3 -.2 -.5c-.2 -.1 .1 .6 -.3 .1l.2 .3l-.3 -.3c0 .1 0 .5 -.2 .1c0 0 -.1 .1 .1 .4c.1 .1 0 -.3 .2 .1c-.2 -.3 -.1 .1 -.1 .2l-.1 -.2c0 .1 -.1 .1 0 .3c0 -.1 -.1 -.2 -.1 -.2l.1 .2c-.1 .2 -.3 -.4 -.4 -.3v-.2c0 .1 -.1 -.2 -.2 0l.3 .7c0 .1 -.1 -.3 -.1 0v-.3c-.1 -.1 -.3 -.4 -.4 -.3c0 .1 .1 .5 .2 .5c0 .1 -.1 0 -.2 -.2c0 .1 .2 .2 .1 .4c-.1 -.1 -.3 -.3 -.5 -.5l-.1 -.4c-.1 -.3 -.2 -.2 -.3 -.5c-.1 0 -.1 .1 -.1 .2c.4 .4 .2 .8 .5 1.2c-.1 .2 -.7 -1.1 -.5 -.3c.1 .2 .2 .6 .3 .4c-.2 0 .1 .5 -.1 .3c0 -.2 -.3 -.4 -.3 -.7c0 .1 .1 0 .1 0c-.1 -.2 -.2 -.5 -.3 -.4c-.1 .1 -.2 .1 0 .3c.1 .3 0 0 .2 .3c-.1 .1 -.4 -.3 -.2 .2c.1 -.1 .3 .2 .4 .4l-.1 .2l-.1 -.2c-.2 -.1 .2 .3 0 .3l-.3 -.3c-.1 -.3 .3 0 0 -.4c-.1 0 0 .3 -.1 .2q0 -.1 0 -.1c0 0 -.4 -.7 -.4 -.2q.1 .2 .2 .3c-.1 .2 -.1 .4 -.1 .5c-.2 -.4 -.2 0 -.3 -.4c.1 .2 .4 0 .2 -.3c-.2 -.4 .2 0 0 -.5c-.1 .1 -.4 -.3 -.5 -.6c-.1 0 0 .1 0 .2q.1 .2 .3 .5c-.2 0 -.3 .2 -.2 .5c-.1 -.1 -.2 -.4 -.2 -.4c-.1 .1 -.3 .2 -.5 .2c.3 .4 -.1 .2 .1 .5c.2 0 .4 .3 .5 .5c-.1 0 -.1 -.2 -.2 -.3c0 .3 -.3 -.3 -.2 .1c.1 -.2 -.2 -.5 -.4 -.8c0 .2 -.1 -.3 -.2 -.2c0 .2 -.1 .4 -.1 .6c-.3 -.3 -.4 .1 -.5 .2c-.2 -.1 -.3 -.5 -.4 -.5c-.1 0 .2 .3 0 .2c0 .1 -.4 -.2 -.1 .4l-.2 -.4c-.1 -.1 0 0 0 .1c-.1 -.1 -.2 -.2 -.2 -.3c-.2 -.3 -.1 .1 -.2 .1l.2 .3c-.1 .2 -.3 0 -.4 .2l-.1 -.2l-.1 .1c0 -.2 -.2 -.3 -.1 -.1L274 226c.1 .1 .1 .3 .2 .6c.2 .1 .3 0 .2 -.2q-.1 0 -.1 .1c-.2 -.3 -.1 -.3 -.2 -.6c0 .1 -.1 0 0 .1c-.1 -.2 0 -.2 .1 -.3c0 .2 .1 .2 .1 .3c-.1 -.3 -.1 -.4 .1 -.4c.2 .3 .1 -.3 .2 -.3c.1 .3 .2 .6 .2 .7c.1 .1 .1 0 .2 .1c0 -.2 -.2 -.6 -.2 -.8l.2 .2c0 -.1 -.2 -.4 0 -.4c.2 0 .4 -.2 .6 -.2l.1 .2c-.1 -.5 .2 -.3 .2 -.6c.3 .1 .4 -.4 .7 -.1c.2 -.3 .4 -.7 .8 -.8l.1 .4c0 -.3 .2 .1 .2 0c-.2 -.2 -.1 -.3 -.1 -.5c.3 .1 .3 -.3 .4 -.5l.1 .2c-.1 -.5 .3 -.2 .5 -.3c.1 .1 .2 .3 .2 .2q0 -.4 0 -.7c.2 0 .4 0 .5 .1c.2 -.7 .7 -.6 1 -1.1l.2 .2c.1 -.7 .8 -.5 1 -1l.2 .5c.2 .1 .2 -.3 0 -.5c.2 0 .2 -.4 .4 -.1c.2 .1 0 -.2 .1 -.3c.3 0 .4 -.1 .5 -.3c0 .1 .1 .3 .1 .3c.1 -.1 .4 0 0 -.5c.4 .2 .4 -.5 .8 -.2c0 -.1 0 -.2 0 -.3c.2 -.1 .5 .1 .5 -.2c.1 0 .1 .2 .2 .2c0 -.1 -.1 -.2 -.1 -.3c.2 -.4 .8 0 1 -.3c.4 -.5 1 -.6 1.4 -.9l.1 .1c-.1 -.5 .6 .2 .4 -.5c.1 .1 .2 0 .2 .2c0 -.3 .5 .1 .5 -.4c0 0 0 .1 0 .1c.3 .1 .3 -.3 .6 -.2q0 .1 .1 .3c.2 .1 -.1 -.6 .2 -.1c.1 0 -.1 -.3 -.1 -.2c.5 -.1 .8 -.6 1.2 -1c.5 .1 .5 .8 .5 .3c.1 .1 0 -.2 0 -.1c0 -.1 .5 .5 .4 .2q-.1 -.2 -.1 -.3V219c-.1 -.3 0 -.6 -.3 -.5l.1 -.1c-.4 .3 -.5 0 -.9 .5c-1.1 -.4 -2.2 -.6 -3.3 -1.1c-.9 -.5 -2 -.8 -2.8 -1.5q-.1 -.6 -.4 -.5q0 -.1 .1 -.2c-.2 .4 -.2 0 -.4 .3c-.4 -.2 -.8 -.3 -1.1 -.5c0 0 .2 -.3 .1 -.3l-.2 .2l.1 -.1c-.1 0 -.2 .2 -.2 .3c-1.1 -.2 -1.7 -1.3 -2.7 -1.7c-.2 -.2 -.5 -.3 -.8 -.3c-.5 -.8 -1 -1.5 -1.9 -1.5c0 0 .6 -.9 1 -1Z" class="g3_62"/>
<path d="M273.6 226c.1 .2 .2 .2 .3 .5c-.1 -.2 -.3 -.3 -.3 -.5Z" class="g3_62"/>
<path d="M276.7 226.7c0 -.1 .1 0 .1 0c0 .1 0 .2 -.1 .1c.1 0 0 -.1 0 -.1Z" class="g3_62"/>
<path d="M277.3 226.5c.1 .1 0 .3 0 .4Z" class="g3_62"/>
<path d="M278.2 226.8c.1 .1 .1 .2 0 .2c0 0 0 -.1 0 -.2Z" class="g3_62"/>
<path d="M278 226.5c.1 -.1 .1 0 .2 .1c-.1 -.1 -.1 .1 -.2 -.1Z" class="g3_62"/>
<path d="M279.4 226.3c0 0 0 -.2 .1 0c-.1 -.1 0 .3 -.1 0Z" class="g3_62"/>
<path d="M279.8 225.8c.1 0 .1 .2 .1 .2Z" class="g3_62"/>
<path d="M289 220.2v.1v-.2Z" class="g3_62"/>
<path d="M290.5 215.7c-.1 0 .1 -.2 .1 -.2c0 0 -.2 .2 -.1 .2Z" class="g3_62"/>
<path d="M287.8 215.3h.1l-.2 .4Z" class="g3_62"/>
<path d="M264.7 533.5c1.3 .8 -.3 -1 1 .4c-.4 .1 -.7 0 -1 -.4Z" class="g3_62"/>
<path d="M283.1 220.1c-2.3 1.1 -5 1.5 -7.8 1.8c-2.8 .4 -5.7 .8 -8.1 2c-.6 .2 -.1 -1.1 -1.4 -.5c-2.3 1.3 -5.3 2.3 -8.6 3.2c-3.3 .8 -6.8 1.6 -9.9 2.3l.3 -.4c-1.2 .3 -2.2 1.7 -3.4 2.1c-.1 -.2 .3 -.4 -.1 -.5c0 .6 -1.9 1.1 -2.2 1.7c-.6 .1 -.7 -.4 -1.4 -.3l-.4 .9c-1.1 2.2 -4.3 2.1 -6.3 4.1c0 -.1 .2 -.4 0 -.4c-3.4 3 -8 5.8 -11.6 9c0 -.3 -.1 -.7 -.5 -.8c.2 .7 -.8 1.8 -1.8 2.7c-.8 -.2 -1.3 1.9 -2.6 2.6v-.2c-.4 1.3 -1.6 .8 -1.7 2l-.9 .1c.4 1 -1.5 .7 -1.8 1.7l.1 .2c-.4 .7 -1.1 .7 -1.5 1.4h-.2c-1.1 1.5 -2.3 1.9 -1.7 2.4c-.9 .1 1.1 -1.5 -.3 -1.4c-3.7 5.1 -7.8 10 -11.3 15.3c-.7 .4 -1 .7 -1.3 .7c-.3 .6 -1.2 2.1 -1.2 2.8c.1 -.2 -.5 .1 -.7 .4c-.9 .8 0 1.5 -.9 2.4c.1 -.5 0 -.8 -.4 -.8c0 1.2 -.8 2.4 -1.2 3.6c0 -.2 .1 -.5 -.2 -.6c-.1 1.6 -1.3 2.2 -1.5 3.5l-.2 -.6c-1.3 1.5 .6 .9 -.4 2.3c0 -.4 -.2 -.4 -.3 -.5c0 1.7 -1.3 3.9 -1.7 5.5c0 -.1 -.1 -.2 -.1 -.2c-.7 1.7 -1.6 3.2 -1.9 5.1c-.5 .6 -.9 -.6 -1.5 1.2c.9 .2 -.7 3 .6 2.3c-.6 1.4 -1.7 3.6 -1.8 4.7c-.1 -.8 -1.2 .4 -.9 -.9l-.8 .8c-.3 -.2 .4 -.9 -.1 -.8c-.2 .7 -.4 2.6 -.7 3.1c.2 1.3 .8 2.7 .4 4.5c-.1 -.9 -1 .3 -1 -.3c.3 1 .6 2 .9 3c-.1 .6 -.7 0 -.7 .9c.2 0 .3 .5 .4 .8c-.2 .2 -.4 2.6 -1.3 2.7c-.4 .2 .1 -1.1 -.4 -.4c-.2 1.1 0 1.2 -.2 2.4h-.1c-.3 .7 -.1 2.3 .5 1.6c.1 -.5 -.5 .1 -.1 -.6c.3 .6 .2 2 0 3.1c0 -.4 -.3 -.4 -.5 -.6c.4 1.7 .3 3.4 .3 5.2c.4 .1 -.6 -.8 -.4 -1c-.9 2.2 .1 4.8 -1 6.5c0 -.3 .6 -.1 .5 -.1c-.2 1.1 -.8 1 -.6 1.7c-.4 .1 0 .9 0 1.7c.2 .4 -.2 .1 -.2 -.5c.2 1.1 .3 5.2 -.4 7.5c.3 0 .8 1.5 .7 2l-.5 -.2c-.4 .4 -.1 1.8 -.6 1.9c.6 1.2 -.2 -4.5 .2 -2.9c-.5 .3 .7 2.2 0 1.8c-.1 1.1 .5 2.2 -.1 3.2c.1 -.3 -.7 -.9 -.7 0c0 1.5 .2 .4 .4 1.7l.2 .8c.5 .1 -.2 1.4 .5 .8c-.5 .2 .2 2.3 -.7 2.1l-.7 -.2c0 .6 .7 1.1 1 1.6c0 .1 -.2 .3 -.3 .2c1.1 .1 -.1 1.6 .7 2.4c-.3 1.4 0 3.6 -.6 4.3c.3 1 .7 2 .6 3.2c-.1 -.2 -.2 -.5 -.4 -.6c-.3 .8 0 1 .2 1.7c-.2 -.2 -.5 1.5 -.9 2.4c.4 1.1 1 .7 1.3 .8c-1 1 .9 2.9 .1 4.2c-.2 -.3 -.7 -1.5 -.9 -.6c-.9 1.1 1 1.9 .6 3.5l.9 -.4c-.5 .7 .7 2.2 -.2 2.2c.4 .4 0 1.8 .8 1.6c-.4 2.6 1.3 6.1 0 8c.2 .3 .3 1.2 .7 1c.3 -.7 -.5 -.8 -.2 -1.1c0 .3 .3 .4 .4 .4c-.1 .8 0 1.4 -.8 .8c-.2 1.9 1.7 1.6 1.8 3.9c-.4 -.1 -.5 .1 -.3 .8l.9 1.1c.1 1.5 -.6 1 -1.2 1.2c.2 .7 .4 1.7 .9 1.9l-.5 1.1c.4 -.8 .5 .6 .7 .9l-.2 -.3c-.2 .2 .2 1 .3 1.5c.4 -.2 .3 -1.2 .3 -1.7c.3 .3 .4 1 .8 1.4c-.6 0 -.1 1.4 0 2c.1 .7 .7 .7 .8 .9c-.3 .1 .2 1.1 -.3 .7c-.2 -.2 .1 -.6 -.2 -1c-.1 .5 -.7 .6 0 1.5c.4 .6 1 -.5 1 1c-.2 -.4 -.5 -.4 -.7 -.6v1.4l.5 -.1c0 .2 -.1 .1 -.2 .2c.7 .2 .7 1.9 1.4 2c.3 .6 .1 1.4 .2 2.1l-.1 -.1c-.1 .8 .4 1.7 1 2.2h-.2c.1 .5 .5 1.4 1 1.8c-.1 1.1 -1.8 1 -.8 1.9c.3 1 1.4 1.3 1.6 .8c.3 1.9 1.8 3.7 1.7 5.7c.3 .2 .4 0 .7 .5c.8 2.8 2.7 5.4 2.7 7.9c-.6 -.7 -.6 .1 -.8 .3c.7 .4 -.2 .9 .7 .8c.4 -.2 .6 -.2 .5 -1.1c.9 1.5 1.9 3.9 1.9 4.9c0 -.5 .3 -.2 .6 .1c-.8 .2 -.3 1.4 .3 2.1h.5l-.2 .7c.3 .3 1.1 0 1.1 1c-.2 .1 -.3 .3 -.4 .5c.8 .7 2 1.7 2.1 2.8l-.2 1.1c.3 .4 1 .9 .8 .1c.4 1.8 .9 2.8 .7 3.6c2.7 2.2 4.9 6.1 6.7 9.3l-.3 .1c.2 1 .7 .1 .9 .8c-.5 -.1 -.3 1.1 -1 .6c.4 1.4 1.4 1.3 2.1 1.9c.4 -.1 -.7 -.4 -.1 -.6c.2 .1 .7 1.9 1.4 1.7c0 .4 -.6 .5 -.9 .5l.7 .5c-.1 1.3 -2.5 -1.3 -2.8 .2l.5 .6c-.2 1 -1.8 -1.4 -.9 .5c.7 .5 2 .6 1.8 -.2c1.1 1.5 1.9 -.1 2.9 1.5c-.1 .7 -1 -1.2 -1.2 -.6c0 1.1 1.2 1.4 1.5 2.1c-.3 -.9 .7 -.6 1.1 -.2c.3 1 -.9 -.2 -.2 1.1c.5 -.1 1.4 .8 1.1 -.2c1 -.1 .6 1.3 1.6 1.5c-.3 .8 -2.1 -.3 -1.5 1.1c.4 -.5 1.8 1.1 2.1 -.1c.2 .6 -.2 1 -.8 .8c.2 .9 2.1 1.1 1.3 2l.7 -.1c0 .3 .1 .7 0 1.3c.4 .6 2.1 1.5 1.3 2c.2 .1 1.2 1.5 1.3 .6c-.3 -1.1 -1.1 -.7 -.7 -1.7c-.1 1 1 1.2 1.5 1.5l-.2 .3c.3 .3 .8 1 1.2 .9c-.3 -.1 -.4 .2 -.3 .5h.7c1.1 1 -.6 .8 .4 1.9l-1 -.6c.2 .1 .1 .8 .6 1.3c.6 -.1 1.4 -.1 1.8 -.1c.7 .5 -.2 .6 .7 .9l-1.1 -.4c-.3 0 -.3 1.1 .4 1.9c.6 .5 1.8 .9 1.4 -.2c.3 .5 .5 1.3 0 1.1c.9 .9 .3 -.4 1.2 .2c0 .6 .5 2 .6 2.9l-1.4 -.3l.5 .6c-1.1 -.4 -.1 .7 -1 .7c.2 .5 .8 .8 1.3 1.1c-.1 -1.9 2.2 .3 2.8 -.7c1.5 1.4 -1.2 2.6 1.4 3.2c0 -.5 1.3 -.2 .2 -1c.8 1.1 1.4 0 2 1.4c-1 -.5 0 1.6 -1.5 .8c.3 -.1 -.4 -.9 -.6 -1c0 .7 -.9 .6 -.1 1.6c.6 .6 1.3 1.4 1.6 .9c.5 -.4 -.8 -.9 0 -.9c1.2 1.1 .7 1.9 1.9 1.7c-.7 -.7 -.4 -1.3 -.1 -1.6l1 .7l-.5 .1c1 1.6 .9 0 2 1.4v1.2c-.8 .1 -1.5 -2.2 -2.1 -1.3c.7 1 1.4 .9 1.9 1.9c-.2 -.1 -.5 -.4 -.7 -.5c.2 .4 -.6 1.7 1.2 2.3c.8 .5 .4 -.1 .7 -.3c1.4 1.3 2.1 1.4 3 2.3c-.8 .3 1.4 1.6 -.2 1.2c0 -.8 -1.9 -2.8 -2.9 -2.7c-.3 1.1 -.9 -1.2 -1.9 -.9c1 1.2 .2 1.7 -.1 2.3c.3 .4 .8 .5 1 .6c.5 -.2 .2 -.6 .6 -1.1c1 1.4 2.4 2.4 3.4 2.7c.2 .6 -.4 .8 -.9 .4c1.5 1.4 3 3 4.2 4.5c-.2 -1.6 1.6 1.3 1.6 .2c-.6 -.9 -.7 -2 0 -1.9c.4 .5 -.3 .3 -.3 .6c1 .2 .3 1.5 1.5 1.5c-1.5 -1.1 -1.1 .5 -1.9 .8c1.3 .7 -.4 .4 .5 1.3c1.3 .7 2.7 1.6 3.8 2.5c.9 1.8 3.4 3.2 4.6 4.3c.4 .9 -.6 1.1 0 1.9c.8 .7 0 -1.3 1 .1h-.3c.5 .2 1.9 2.5 3 1.9l-.9 .3c.1 .3 .5 .3 .7 .4c-.2 .3 -.1 .7 -.6 .5c.4 1.2 1.7 1.3 2.5 2l-.1 -.8c1.7 .9 2.3 2.1 3.8 3.1l-.4 .4l1 .4c-.5 .2 .1 1.1 .8 1.2l-3 -.8c-.4 -.8 1.1 0 1 -.7c0 -.6 -1.4 -1.6 -1.9 -1.4c.4 .5 .5 .4 1 .6c-.3 .7 -1 .1 -1.7 .1c.3 .2 .5 .7 .7 .6c-.7 -.2 -1.3 -.6 -2.2 -1.3c.8 .3 0 -.6 .4 -.6c-.5 .5 -1.4 -.1 -2.4 -1.1c-.2 -1.2 -2.2 -1.4 -3.3 -2.6c1 -.1 1.9 .1 2.8 .5c-.5 -.9 -.8 -.7 -1.3 -1.6c-.7 0 -1.5 .4 -2.6 -.3l.2 -.4c-1 -.6 -1.5 -.1 -2.5 -1.2c-1.7 -2 -3.6 -3.8 -5 -5.3l.3 -.4c-1.5 0 -2.8 -2.3 -4.2 -3c-1.4 -2.2 -4.1 -3.7 -4.3 -5.2c-3.3 -3 -6.1 -5.7 -8.9 -9.3l1 .1c-.9 -.3 0 -.6 -.6 -1.2c.1 1.1 -1.3 -.4 -2 -.6c-.9 -1.9 -3 -3.6 -4.5 -4.7l.3 -.3c-1.8 -.9 -2.5 -3.2 -3.8 -5.1c0 -.3 .2 -.9 -.3 -1.4c-1.4 -.6 -1.7 -1.1 -3.2 -2.3c-.7 -1.1 -1.8 -3 -2.3 -4.3c-3.8 -3.5 -6 -8.1 -9.2 -12.3l.3 -.6c-3.7 -3.7 -5.8 -9.7 -8.3 -13.3h1.1c-.4 -1.4 -1.7 -2.7 -2.1 -2.1c-.4 -1.3 -1.9 -2.8 -1.6 -3.9c-.4 -1.3 -1.1 -1.4 -1.7 -2.4c-.9 -2.6 -1.4 -3.5 -2.6 -5.9l.2 .6c.3 .2 .7 .1 .5 -.6c-.6 -.7 -1.1 -3.4 -1.8 -2c-.5 -2.9 -3 -5.9 -3.1 -8.8c-.2 .3 -.5 -.3 -.8 -.5c-.8 -2.3 -1.1 -5 -2.2 -6.7c0 -.4 .7 .4 .4 -.5c-.3 -.6 -.4 .1 -.8 -.6c-1.7 -3.6 -1.7 -7.9 -2.8 -11.4c-2.2 -6.1 -3.2 -12.8 -4.2 -18.9h.2c-1.2 -1.9 .2 -4.9 -1.3 -6.4c.1 -.5 -.1 -1.8 .4 -1.5c-.9 -1.6 .1 -4.7 -.9 -7c0 .2 .1 .3 .2 .6c.3 -2.5 -.5 -4.5 -.2 -7.1c.1 .3 .2 .7 .5 .8c.4 -1 -1.1 -2.3 0 -2.9c0 -.5 -.6 -.4 -.5 0c.2 -5.6 -.4 -11.5 -.3 -17.3c.9 -4.1 1.9 -.2 1.3 -3.5c.2 -.2 -.4 -.2 -.2 -.2c-.2 -1.3 1.4 -1.9 .9 -2.8c-.7 .3 -.3 -.6 -.7 -.7c.7 -2.5 1.3 -2.9 1 -5l.4 .2c-.7 -2.4 .2 -5 -.7 -7.2c1.8 -12.8 4.3 -25.2 9.1 -37.2c2.6 -5.8 5.3 -11.5 8.5 -17c3.3 -5.4 7 -10.7 11.4 -15.4c2.7 -1.7 2.9 -1.9 4.8 -4.6c.1 .2 0 .4 .2 .3c-.4 -.6 1.6 -1.7 1.3 -2.4c3.5 -3.3 6.6 -6.4 10.5 -9.5c-.5 .6 -.5 1.3 .2 .7l.5 -1l.3 .1c.4 -.5 .7 -1.2 0 -1c4.8 -4.1 10.2 -7.2 15.7 -9.8c5.5 -2.7 11.2 -4.8 16.9 -6.9c2.8 -.7 6.5 -2.2 9.5 -3.2c4.6 -.7 9 -1.2 13.3 -1.6l6.6 -.7l3.3 -.4c1.2 -.1 2.3 -.3 3.6 -.4c-.1 .1 -1.3 2 -5 2.8Z" class="g3_62"/>
<path d="M263.2 532.4c0 -.5 -.7 -1.3 .3 -1.2c-.1 .4 0 1 -.3 1.2Z" class="g3_62"/>
<path d="M245.4 511c-.1 0 -.1 -.4 -.2 -.5c.3 .2 .8 .2 .8 .5c-.3 -.2 -.3 0 -.6 0Z" class="g3_62"/>
<path d="M240.7 505.8c.4 -.2 1.6 .7 2.2 1.3Z" class="g3_62"/>
<path d="M237.4 500c-.2 -.6 0 -.6 .5 0c-.1 .1 -.3 0 -.5 0Z" class="g3_62"/>
<path d="M236.5 500.2c-.4 -.4 -.4 -.7 -.4 -1.1c-.2 .3 .9 .9 .4 1.1Z" class="g3_62"/>
<path d="M228.1 488.8c-.2 -.2 -.9 -.6 -.8 -1.1c0 .4 1.4 1 .8 1.1Z" class="g3_62"/>
<path d="M223.7 484c-.1 -.2 -.1 -.3 -.4 -.4c-.1 -.4 .4 -.3 .6 0Z" class="g3_62"/>
<path d="M177.5 375.7l.3 .7h-.4Z" class="g3_62"/>
<path d="M179.8 323.6c-.1 -.7 .4 -.4 .5 -.5c-.1 .6 -.4 -.3 -.5 .5Z" class="g3_62"/>
<path d="M185.6 295.9l-.1 .2l-.6 -.3Z" class="g3_62"/>
<path d="M271.7 533c0 3 -2.4 5.5 -5.4 5.5c-3.1 0 -5.5 -2.5 -5.5 -5.5c0 -3 2.4 -5.4 5.5 -5.4c3 0 5.4 2.4 5.4 5.4Z" class="g1_62"/>
<path d="M271.7 533c0 3 -2.4 5.5 -5.4 5.5c-3.1 0 -5.5 -2.5 -5.5 -5.5c0 -3 2.4 -5.4 5.5 -5.4c3 0 5.4 2.4 5.4 5.4Z" class="g4_62"/>
</svg>