<?xml version="1.0" encoding="UTF-8" standalone="no"?>
<!DOCTYPE svg PUBLIC "-//W3C//DTD SVG 1.1//EN"
"http://www.w3.org/Graphics/SVG/1.1/DTD/svg11.dtd">
<svg viewBox="0 0 660 990" version="1.1" xmlns="http://www.w3.org/2000/svg" xmlns:xlink="http://www.w3.org/1999/xlink">
<defs>
<clipPath id="c0_197"><path d="M-.2 947.1V21.7H655.9V947.1Z"/></clipPath>
<clipPath id="c1_197"><path d="M61.4 806.2L60.1 511.1L284.5 510V805.2l-223.1 1Z"/></clipPath>
<clipPath id="c2_197"><path d="M16.7 332.5V169.1h624V332.5Z"/></clipPath>
<clipPath id="c3_197"><path d="M413.6 912V887.8H561.1V912Z"/></clipPath>
<style type="text/css"><![CDATA[
.g0_197{
fill: #231F20;
}
.g1_197{
fill: none;
stroke: #231F20;
stroke-width: 1.527;
}
.g2_197{
fill: #FFF;
}
.g3_197{
fill: none;
stroke: #FFF;
stroke-width: 1.909;
stroke-miterlimit: 10;
}
.g4_197{
fill: none;
stroke: #000;
stroke-width: 0.381;
stroke-miterlimit: 10;
}
]]></style>
</defs>
<image clip-path="url(#c0_197)" preserveAspectRatio="none" x="79" y="518" width="201" height="287" xlink:href="img/1.png"/>
<image clip-path="url(#c1_197)" preserveAspectRatio="none" x="60" y="509" width="224" height="299" xlink:href="img/2.png"/>
<path d="M55.2 866.9h550v68.6H55.2V866.9Z" class="g0_197"/>
<path d="M55.2 70.3h550v86.9H55.2V70.3Z" class="g0_197"/>
<path d="M55.9 934.7H604.4V40.1H55.9Z" class="g1_197"/>
<image clip-path="url(#c2_197)" preserveAspectRatio="none" x="17" y="169" width="623" height="163" xlink:href="img/3.png"/>
<image clip-path="url(#c0_197)" preserveAspectRatio="none" x="141" y="83" width="380" height="64" xlink:href="img/4.png"/>
<path d="M488.3 900.2c1.3 -.6 10.1 -5.2 13.5 -12.1l-19.1 2.7c.9 3.2 2.2 6.3 4 9c0 0 .4 1 1.6 .4Z" class="g2_197"/>
<path d="M484.3 900.9c-1.5 -3.1 -2.8 -6.3 -3.4 -9.8c0 0 -3.2 .6 -3.7 .7c-.5 .1 -2.1 1 -1.7 2.4c.4 1.4 2.9 11.7 3.2 12.4c.3 .6 .9 1.8 3 2.1c2.2 .3 10.3 1.2 10.3 1.2c-1.7 -1.6 -4.1 -3.9 -5.4 -5.3c-.6 -.7 -1.7 -.6 -1.7 -.6c-1.9 .2 -2.9 .3 -4.7 .4l-.2 -.8c1.3 -.5 2.7 -.8 4 -1.4c0 0 .8 -.3 .3 -1.3Z" class="g2_197"/>
<g clip-path="url(#c3_197)">
<path d="M490.4 902.9c5.4 -2.1 10.3 -5.2 14.3 -9.2l.9 16.1c.2 1.8 -1.3 1.8 -1.9 1.9c-.7 0 -4.2 -.5 -5.2 -.6c-1 -.2 -6.1 -4.4 -8.5 -7.2c0 0 -.4 -.7 .4 -1Z" class="g2_197"/>
<path d="M420.3 897.9c1.7 0 3.2 -1 3.2 -2.9c0 -1.7 -1 -3.1 -3.3 -3.1h-2.8c-.1 0 -.3 .1 -.3 .2v5.6c0 .1 .2 .2 .3 .2ZM414 908l-.1 -.2c.7 -1.3 .7 -1.1 .7 -1.9V892.4c0 -.6 0 -1 -.6 -2v-.2h6.6c3.8 0 5.4 2.3 5.4 4.6c0 2.2 -1.5 3.8 -3.4 4.3v.1l1.6 3.2c1.6 2.8 2.7 4.8 4.1 4.8h.2v.3c-.4 .4 -.8 .7 -1.6 .7c-2.2 0 -3.2 -1.9 -4.7 -4.7l-1.9 -4h-2.9c-.1 0 -.3 .1 -.3 .3v6.1c0 .8 0 .6 .8 1.9v.2Z" class="g2_197"/>
</g>
<path d="M434 908h-3.6v-.2c.6 -1.2 .6 -1.4 .6 -2.1V895.1c0 -.6 0 -.9 -.6 -2l.1 -.1H434l.1 .1c-.7 1.1 -.7 1.4 -.7 2v10.7c0 .7 0 .8 .7 2Z" class="g2_197"/>
<path d="M448.6 907.6h-.1c-.5 -.1 -.8 0 -.8 0c-.9 .4 -2 .6 -3.6 .6c-4.2 0 -7.9 -2.7 -7.9 -7.7c0 -4.6 3.7 -7.8 7.9 -7.8c.9 0 2.1 .1 2.9 .4c0 0 .5 .1 .9 -.1l.1 .1l1.1 2.4l-.4 .3c-.9 -.9 -3 -1.5 -4.5 -1.5c-3.1 0 -5.5 2.5 -5.5 6.2c0 3.7 2.4 6.1 5.5 6.1c2.3 0 4.1 -.8 5.2 -1.8l.3 .3Z" class="g2_197"/>
<path d="M466.2 908h-3.6v-.2c.6 -1.2 .6 -1.4 .6 -2.1v-4.5h-8.1v4.5c0 .7 0 .9 .6 2.1v.2h-3.6l-.1 -.2c.7 -1.2 .7 -1.4 .7 -2.1V895.1c0 -.6 0 -.9 -.7 -2l.1 -.1h3.5l.1 .1c-.6 1.1 -.6 1.4 -.6 2v4.5h8.1v-4.5c0 -.6 0 -.9 -.6 -2l.1 -.1h3.5l.1 .1c-.7 1.1 -.7 1.4 -.7 2v10.6c0 .7 0 .9 .7 2.1Z" class="g2_197"/>
<path d="M527 899c0 -4.6 -2.6 -7.1 -6.4 -7.1h-2.1c-.2 0 -.3 .1 -.3 .3v13.9l1.8 .2h.4c3.9 0 6.6 -2.5 6.6 -7.3m2.7 0c0 5 -3.4 9 -9.4 9H515v-.2c.7 -1.3 .7 -1.5 .7 -2.2V892.4c0 -.6 0 -.9 -.7 -2v-.2h5.8c6 0 8.9 3.9 8.9 8.8Z" class="g2_197"/>
<path d="M533.3 902.3h4.9l-2.4 -5.8h-.1Zm5.6 1.7h-6.3l-1.2 3l.3 .8v.2h-3.1v-.2l.9 -1.1l5.1 -12.3l-.6 -1.3l.1 -.1h2.7l5.6 13.7l.6 1.1v.2h-3.3l-.1 -.1l.5 -.9Z" class="g2_197"/>
<path d="M554.5 900.4c0 -4 -2.4 -5.8 -5.7 -5.8h-1.9c-.1 0 -.2 .1 -.2 .3v11.3l1.5 .1h.4c3.5 0 5.9 -1.7 5.9 -5.9m2.5 0c0 4.4 -3 7.6 -8.5 7.6h-4.9v-.2c.7 -1.1 .7 -1.3 .7 -1.9v-11c0 -.5 0 -.8 -.7 -1.8l.1 -.1H549c5.4 0 8 3.1 8 7.4Z" class="g2_197"/>
<path d="M558.9 906.4h.3c.2 0 .5 -.1 .5 -.4c0 -.2 -.2 -.2 -.4 -.2h-.4Zm-.3 -.9h.7c.5 0 .7 .2 .7 .6c0 .3 -.2 .4 -.5 .5l.5 .8h-.3l-.5 -.8h-.3v.8h-.3Zm.6 2.3c.8 0 1.3 -.6 1.3 -1.3c0 -.8 -.5 -1.4 -1.3 -1.4c-.7 0 -1.3 .6 -1.3 1.4c0 .7 .6 1.3 1.3 1.3m0 -2.9c.9 0 1.6 .6 1.6 1.6c0 .9 -.7 1.6 -1.6 1.6c-.9 0 -1.6 -.7 -1.6 -1.6c0 -1 .7 -1.6 1.6 -1.6Z" class="g2_197"/>
<g clip-path="url(#c0_197)">
<path d="M-8.9 2.7H-31.8m701.1 0h23M-8.9 990.4H-31.8m701.1 0h23M.2 -6.3V-29.2M.2 999.5v22.9M660.2 -6.3V-29.2m0 1028.7v22.9" class="g3_197"/>
<path d="M-8.9 2.7H-31.8m701.1 0h23M-8.9 990.4H-31.8m701.1 0h23M.2 -6.3V-29.2M.2 999.5v22.9M660.2 -6.3V-29.2m0 1028.7v22.9" class="g4_197"/>
</g>
</svg>