<?xml version="1.0" encoding="UTF-8" standalone="no"?>
<!DOCTYPE svg PUBLIC "-//W3C//DTD SVG 1.1//EN"
"http://www.w3.org/Graphics/SVG/1.1/DTD/svg11.dtd">
<svg viewBox="0 0 660 990" version="1.1" xmlns="http://www.w3.org/2000/svg" xmlns:xlink="http://www.w3.org/1999/xlink">
<defs>
<style type="text/css"><![CDATA[
.g0_224{
fill: #FFF;
}
.g1_224{
fill: none;
stroke: #231F20;
stroke-width: 2.52;
}
.g2_224{
fill: none;
stroke: #949698;
stroke-width: 0.763;
}
]]></style>
</defs>
<path d="M503.8 363.4c0 96 -77.8 173.8 -173.8 173.8c-96 0 -173.8 -77.8 -173.8 -173.8c0 -96 77.8 -173.8 173.8 -173.8c96 0 173.8 77.8 173.8 173.8Z" class="g0_224"/>
<path d="M503.8 363.4c0 96 -77.8 173.8 -173.8 173.8c-96 0 -173.8 -77.8 -173.8 -173.8c0 -96 77.8 -173.8 173.8 -173.8c96 0 173.8 77.8 173.8 173.8Z" class="g1_224"/>
<path d="M469.1 363.4c0 76.8 -62.3 139.1 -139.1 139.1c-76.8 0 -139.1 -62.3 -139.1 -139.1c0 -76.8 62.3 -139.1 139.1 -139.1c76.8 0 139.1 62.3 139.1 139.1Z" class="g0_224"/>
<path d="M469.1 363.4c0 76.8 -62.3 139.1 -139.1 139.1c-76.8 0 -139.1 -62.3 -139.1 -139.1c0 -76.8 62.3 -139.1 139.1 -139.1c76.8 0 139.1 62.3 139.1 139.1Z" class="g1_224"/>
<path d="M427.3 363.4c0 53.8 -43.5 97.4 -97.3 97.4c-53.8 0 -97.3 -43.6 -97.3 -97.4c0 -53.7 43.5 -97.3 97.3 -97.3c53.8 0 97.3 43.6 97.3 97.3Z" class="g0_224"/>
<path d="M427.3 363.4c0 53.8 -43.5 97.4 -97.3 97.4c-53.8 0 -97.3 -43.6 -97.3 -97.4c0 -53.7 43.5 -97.3 97.3 -97.3c53.8 0 97.3 43.6 97.3 97.3Z" class="g1_224"/>
<path d="M378.7 363.4c0 26.9 -21.8 48.7 -48.7 48.7c-26.9 0 -48.7 -21.8 -48.7 -48.7c0 -26.9 21.8 -48.7 48.7 -48.7c26.9 0 48.7 21.8 48.7 48.7Z" class="g0_224"/>
<path d="M378.7 363.4c0 26.9 -21.8 48.7 -48.7 48.7c-26.9 0 -48.7 -21.8 -48.7 -48.7c0 -26.9 21.8 -48.7 48.7 -48.7c26.9 0 48.7 21.8 48.7 48.7Z" class="g1_224"/>
<path d="M318.3 969.1h23.1" class="g2_224"/>
</svg>