<?xml version="1.0" encoding="UTF-8" standalone="no"?>
<!DOCTYPE svg PUBLIC "-//W3C//DTD SVG 1.1//EN"
"http://www.w3.org/Graphics/SVG/1.1/DTD/svg11.dtd">
<svg viewBox="0 0 660 990" version="1.1" xmlns="http://www.w3.org/2000/svg" xmlns:xlink="http://www.w3.org/1999/xlink">
<defs>
<clipPath id="c0_5"><path d="M165.2 616V557.1h65.4V616Z"/></clipPath>
<style type="text/css"><![CDATA[
.g0_5{
fill: #FFF;
}
.g1_5{
fill: #231F20;
}
]]></style>
</defs>
<image preserveAspectRatio="none" x="237" y="561" width="59" height="50" xlink:href="img/1.jpg"/>
<image preserveAspectRatio="none" x="87" y="561" width="62" height="60" xlink:href="img/2.jpg"/>
<path d="M165.6 586.7h58Z" class="g0_5"/>
<path d="M165.8 586.4c-.2 0 .1 .1 -.2 0c.1 0 .1 -.1 .2 0Z" class="g1_5"/>
<path d="M222.9 586.5c-.7 .4 -1.6 0 -2.3 .3c-.1 0 0 -.3 -.2 -.2c-.7 .3 -1.9 .1 -2.8 -.2h.1c-.2 -.1 -.4 .2 -.6 .1c0 0 .1 0 0 -.1c0 .1 -.3 .1 -.4 .2c0 -.1 0 -.2 -.1 -.3l-.1 .2c-.3 .4 -.7 0 -1.1 .2c0 -.1 .1 -.1 0 -.1c-.6 .2 -1.4 .1 -2.1 .2c.1 0 .1 -.1 0 -.2c0 .2 -.2 .2 -.4 .2c-.1 -.1 -.3 .2 -.5 .1c-.2 .1 -.3 -.1 -.4 .1l-.1 -.2c-.1 .3 -.2 -.1 -.4 0v.1c-.1 0 -.2 -.1 -.3 0v-.1c-.3 .1 -.4 0 -.4 .2c-.1 -.2 .3 -.1 .1 -.3c-.9 .2 -1.8 .1 -2.7 .1c-.1 0 -.2 -.1 -.2 -.1c-.1 0 -.4 0 -.4 .1c0 0 -.1 -.1 -.2 -.1c-.1 -.1 -.1 .2 -.3 .1c.1 0 .1 -.1 .1 -.2c-.2 .2 -.4 .2 -.6 .2c0 0 .1 -.1 .1 -.1c-.2 .2 -.4 0 -.6 .1l.1 -.1c-.3 -.2 -.1 .2 -.3 .1c0 0 0 -.1 0 -.1c-.2 .2 -.6 .1 -.8 .2c0 0 0 -.1 0 -.1c-.2 .1 -.5 0 -.8 .1c-.1 -.1 .1 -.3 -.2 -.2c0 .2 -.4 0 -.3 .3c-.2 0 -.6 -.1 -.7 -.1c.1 0 -.1 -.2 .1 -.2l-.2 -.2c.1 0 .2 .1 .1 0c-.1 0 -.3 .1 -.4 0c-.2 .1 -.3 .4 -.6 .4c.1 -.1 -.1 -.2 0 -.3l-.4 .5c-.1 0 0 -.2 -.2 -.2q0 .1 -.1 .2c0 0 -.3 0 -.4 -.2c0 -.1 .2 0 .1 -.1c-.2 0 -.2 .1 -.4 .1c-.1 -.1 -.3 0 -.2 .2c.1 0 0 -.2 .1 -.1c-.1 .1 -.3 .1 -.5 .1q.1 0 .1 -.1c-.2 .2 -.5 .2 -.7 .3c0 .1 .1 -.2 .1 -.1c-.3 -.2 -.7 .2 -.9 0c0 -.1 0 .1 0 .1c-.2 0 -.2 -.2 -.3 -.1c0 -.1 -.1 0 -.2 0c-.1 .1 0 0 .1 0c-.2 0 -.8 .2 -1.1 0c0 .1 -.2 .2 -.3 .2v-.1c-.1 -.1 -.3 0 -.3 -.1c-.1 .2 .7 -.1 .5 0c-.1 -.1 -.4 .2 -.3 0c-.2 0 -.3 .2 -.5 .1c.1 0 .1 -.2 0 -.2c-.2 0 0 0 -.2 .1H196c0 .2 -.2 0 -.2 .2c0 -.1 -.3 0 -.3 -.2l.1 -.1c-.1 0 -.2 .1 -.3 .2v-.1c0 .3 -.2 0 -.3 .2c-.3 -.1 -.6 0 -.7 -.2c-.1 .1 -.3 .2 -.4 .2q0 -.1 0 -.1c-.1 -.1 -.1 0 -.2 0c0 0 -.2 -.1 -.3 -.2c-.2 0 -.1 .2 -.2 .3c-.1 -.3 -.4 .1 -.6 -.1c.1 0 .2 -.1 .1 -.2c-.1 -.2 -.3 .2 -.5 .1l.1 .2c-.1 -.2 -.4 .1 -.4 -.1c0 .1 -.2 -.1 -.2 .1c-.4 -.2 -.9 .1 -1.2 -.2c0 0 -.1 0 -.1 .1c.1 .1 .1 -.1 .1 0v.1c-.1 -.1 -.2 -.1 -.1 -.3c-.3 -.1 -.3 .4 -.6 .3q0 -.1 -.1 -.1l-.2 .1c-.2 0 -.1 -.2 -.1 -.3c-.2 0 -.3 0 -.4 .1l-.1 -.2c.1 .2 -.1 .1 -.1 .2v-.1c0 0 -.1 0 -.2 0c0 .1 .1 .1 .2 .2c0 0 -.1 0 -.2 .1c0 -.1 -.2 -.1 -.3 -.1c-.1 -.1 -.1 .1 -.1 .1c0 -.1 -.2 0 -.1 -.1c0 0 .1 .1 .1 0c-.1 -.1 0 -.2 -.2 -.1c-.1 .1 0 .3 -.2 .2c.1 0 .1 -.1 .1 -.2h-.2v.1v-.1c0 .2 -.3 .1 -.3 .2c-.1 0 -.2 -.1 -.3 -.1c-.1 -.1 -.3 0 -.4 .1c0 -.1 -.2 0 -.2 0c-.2 -.1 -.1 -.4 -.3 -.3c-.1 0 -.2 .3 -.1 .3c-.3 -.1 -.7 .2 -.9 0c-.1 0 0 0 -.1 .1c-.4 -.1 -.9 .1 -1.2 -.1c.1 -.1 0 -.2 0 -.2c-.1 .1 -.1 -.1 -.2 0q0 .2 .1 .3c-.2 0 -.6 0 -.7 -.1q0 .1 -.1 .1c0 -.1 -.1 -.2 -.3 -.1v.1l-.1 -.1c0 0 0 .2 -.2 .1c0 0 0 -.1 0 -.1c-.2 .1 -.4 .3 -.5 .2l-.2 -.2c0 0 -.1 .1 0 .2c-.3 -.1 -.5 -.2 -.5 -.3c-.5 .3 -1.2 .4 -1.7 .3c-.1 -.1 -.1 .1 -.2 0c.1 0 -.1 -.1 .1 -.2c-.3 -.1 -.3 .1 -.4 .2c-.1 .1 .1 -.1 0 0c0 .1 -.2 -.1 -.3 .1c0 -.1 0 -.2 0 -.3l-.1 .1c-.1 -.2 .4 -.3 .2 -.6l-.1 .1c-.1 -.2 .3 -.2 0 -.3c-.1 .1 -.2 .3 -.1 .4c-.3 .1 -.1 .4 -.4 .4c-.1 -.1 .2 0 .1 -.2c-.1 -.1 -.2 .1 -.3 .1c.1 0 0 .2 -.1 .2c-.1 -.1 .1 -.1 -.1 -.2c0 .1 -.2 .2 -.1 .3c0 .2 -.2 -.1 -.3 .1c-.1 -.2 .2 -.4 0 -.4c0 .1 -.3 .2 -.2 .4c0 -.1 -.1 -.2 0 -.3c-.1 -.1 -.3 .3 -.3 0l-.1 .2c0 -.1 -.1 -.1 -.1 -.2c-.1 0 -.4 .2 -.4 0c0 0 -.3 0 -.2 .1c.2 .1 .2 -.1 .3 .1c-.1 -.1 -.2 .1 -.3 .1v-.1c-.1 .1 -.2 0 -.2 .1c0 0 0 -.1 -.1 -.1v.1c-.2 .1 -.1 -.2 -.3 -.2l.2 -.1c-.1 .1 -.1 -.1 -.2 0c-.1 .1 -.2 .2 -.2 .3c-.1 .1 0 -.1 -.2 0l.2 -.1c0 -.1 -.1 -.2 -.3 -.2c-.1 0 -.2 .2 -.1 .3c0 0 -.2 -.1 -.1 -.2c-.2 0 0 .1 -.1 .2c-.1 -.1 -.3 -.2 -.4 -.3l.2 -.2h-.2c.2 -.2 0 -.1 .1 -.3c-.1 0 -.2 0 -.3 .1c.2 .2 -.2 .3 -.2 .6c-.3 .1 -.2 -.6 -.5 -.2c.1 0 -.1 .2 .1 .2c-.2 -.1 -.1 .2 -.3 .1c.1 -.1 -.2 -.2 0 -.4c0 .1 .2 .1 .2 0c-.1 0 0 -.2 -.2 -.2c-.1 0 -.2 0 -.2 .2c0 .1 .2 -.1 .1 .1c-.2 0 -.3 -.2 -.4 .1c.2 0 .2 .1 .2 .2l-.2 .1l.1 -.1c-.3 -.1 -.1 .1 -.4 .1l-.1 -.2c.1 -.1 .4 .1 .3 -.2c-.1 0 -.2 .2 -.3 .1l.1 -.1c-.1 0 -.2 -.3 -.4 -.1c-.1 .1 0 .1 0 .2c-.3 0 -.4 .1 -.6 .1c.1 -.2 -.3 0 -.1 -.2c.1 .1 .5 .1 .6 -.1c-.1 -.2 .2 .1 .3 -.2c-.2 0 -.2 -.2 -.3 -.4c0 0 -.1 .1 -.1 .1c-.1 .2 0 .1 0 .3c-.2 0 -.4 0 -.6 .2c-.1 -.1 0 -.2 .1 -.3c-.3 .1 -.6 .1 -.9 0c.2 .3 -.3 .1 -.2 .3c.1 0 .3 .2 .2 .3c-.1 0 0 -.1 -.1 -.2c-.1 .2 -.1 -.2 -.3 0c.3 0 .1 -.2 .2 -.4c-.2 .1 0 -.1 -.2 -.1c-.2 .1 -.5 .1 -.7 .2c-.2 -.2 -.7 0 -.9 0c-.1 -.1 0 -.3 -.2 -.4c-.1 0 .2 .3 -.1 .2v-.1c0 .1 -.4 -.1 -.5 .2l.1 -.2c0 -.1 -.1 0 -.1 0c0 -.1 -.1 -.1 0 -.2c-.1 -.1 -.3 .1 -.5 .1l.1 .1c-.2 .1 -.4 0 -.7 0v-.1l-.1 .1c0 -.2 -.1 -.2 -.2 -.1l.4 -.3c.1 0 -.1 .1 -.1 .2c.1 .1 .4 .1 .4 0q-.1 0 -.2 0c0 -.1 .1 -.1 .2 -.2c0 0 -.1 -.1 -.1 0c.1 -.1 .2 -.1 .3 -.1c-.1 0 .1 .1 0 .1c.1 -.1 .2 -.2 .4 -.1c.1 .1 .4 -.2 .6 -.1c-.1 .2 -.2 .3 -.3 .3c.1 .1 .1 0 .3 .1c0 -.1 .1 -.3 .3 -.4v.2c.1 -.1 .1 -.3 .4 -.2c.3 0 .7 0 1 0v.2c.1 -.3 .5 -.1 .7 -.3c.4 .2 .8 -.1 1 .1c.6 -.1 1.2 -.1 1.8 -.1l-.1 .2c.1 -.2 .1 .1 .2 0c-.1 -.1 .2 -.1 .3 -.2c.2 .1 .6 0 .9 -.2v.2c.2 -.3 .6 -.1 .9 0c0 0 .1 .1 .2 .1q.2 -.2 .5 -.3c.2 0 .5 .1 .7 .1c.7 -.2 1.4 -.1 2.2 -.2v.1c.7 -.3 1.6 0 2.2 -.2v.3c.2 0 .4 -.1 .4 -.3c.2 .1 .5 -.1 .6 .1c.2 .1 .2 -.1 .4 -.1c.4 .1 .5 .1 .9 0h-.1c0 0 0 .1 0 .2c.2 -.1 .6 0 .4 -.3c.4 .2 .9 -.1 1.3 .1c0 0 .1 -.1 .1 -.1c.4 0 .7 .1 1 0c.1 0 -.1 .1 .1 .2c.1 -.1 0 -.2 .1 -.2c.5 -.1 1.1 .2 1.6 .1c.9 -.1 1.9 -.1 2.8 -.1v.1c.3 -.2 .6 .2 .9 -.1c.1 0 .2 0 .2 .1c.2 -.1 .6 .1 1 0c0 0 -.1 0 -.1 0c.3 .1 .6 -.1 1 .1c0 0 -.1 0 -.1 0c.1 .2 .3 -.2 .4 .1c.1 0 0 -.2 0 -.1c.8 .1 1.6 -.1 2.4 -.2c.6 .2 .1 .5 .5 .3c.1 0 .1 -.1 .1 -.1c.1 0 .2 .3 .4 .2c-.1 -.2 .1 -.1 .1 -.2c.3 .1 .4 .3 .7 .1l-.1 .1c.4 -.2 .8 -.1 1 -.4c1.9 0 3.6 -.2 5.4 -.2c1.8 0 3.5 -.1 5.3 .1q.4 .2 .9 .1c0 0 -.1 0 0 .1c0 -.2 .3 -.1 .3 -.2c.7 0 1.3 0 2 0c-.1 0 -.2 .1 0 .1l.1 -.1c.1 0 .2 -.1 .1 -.1c1.7 -.2 3.4 .2 5.1 .1c.4 .1 .9 0 1.4 0c1.2 .3 2.4 .5 3.7 .3c0 0 -.2 .5 -.7 .6Z" class="g1_5"/>
<path d="M166 586.4c.1 .1 .2 .1 .1 .2c0 -.1 -.1 -.2 -.1 -.2Z" class="g1_5"/>
<path d="M170 587.3c0 0 0 .1 .1 .1c-.1 0 -.1 .1 -.2 0q.1 0 .1 -.1Z" class="g1_5"/>
<path d="M171 587.4c0 .1 -.2 .1 -.4 .1Z" class="g1_5"/>
<path d="M172 587.7q0 .1 -.1 .1l.1 -.1Z" class="g1_5"/>
<path d="M172 587.5c.1 0 .1 .1 .2 .1c0 0 -.2 .1 -.2 -.1Z" class="g1_5"/>
<path d="M174.1 587.8c0 0 .1 -.1 .2 0c-.1 -.1 -.3 .1 -.2 0Z" class="g1_5"/>
<path d="M175 587.7q.1 0 .1 0c.1 0 0 .1 0 .1Z" class="g1_5"/>
<path d="M192.4 587.3l-.1 .1v-.1Z" class="g1_5"/>
<path d="M200 587.3c.1 0 .1 .1 .1 .1c-.1 0 .1 -.1 -.1 -.1Z" class="g1_5"/>
<path d="M204.2 586.9h-.1v-.2Z" class="g1_5"/>
<path d="M194.6 557.7v58Z" class="g0_5"/>
<path d="M194.9 557.8c0 -.2 -.1 .2 0 -.1c0 0 .1 .1 0 .1Z" class="g1_5"/>
<path clip-path="url(#c0_5)" d="M194.8 615c-.4 -.7 0 -1.6 -.2 -2.4c-.1 -.1 .2 .1 .1 -.1c-.3 -.8 -.1 -1.9 .2 -2.8v.1c.1 -.2 -.2 -.4 -.1 -.6c0 0 0 .1 .1 0c-.1 0 -.1 -.3 -.2 -.4c.1 -.1 .2 -.1 .3 -.1l-.2 -.1c-.4 -.3 0 -.7 -.2 -1.1q.1 0 .1 0c-.2 -.6 -.1 -1.4 -.2 -2.1c0 0 .1 .1 .2 0c-.2 0 -.2 -.2 -.2 -.4c.1 -.1 -.2 -.3 -.1 -.6v.1c-.1 -.2 .1 -.3 -.1 -.4l.2 -.1c-.3 -.1 .1 -.2 0 -.4h-.1c0 -.1 .1 -.2 0 -.3h.1c-.1 -.3 0 -.4 -.2 -.4c.2 -.1 .1 .2 .3 .1c-.2 -.9 -.1 -1.8 -.1 -2.7c0 -.2 .1 -.2 .1 -.2c0 -.1 0 -.4 -.1 -.5c0 .1 .1 0 .1 -.1c.1 -.1 -.2 -.2 -.1 -.3c0 0 .1 .1 .2 0c-.2 -.1 -.2 -.3 -.2 -.5c0 0 .1 .1 .1 .1c-.2 -.2 0 -.4 -.1 -.6l.1 .1c.2 -.3 -.2 -.1 -.1 -.3c0 0 .1 0 .1 0c-.2 -.2 -.1 -.6 -.2 -.8c0 0 .1 0 .1 0c-.1 -.3 0 -.5 -.1 -.8c.1 -.1 .3 0 .2 -.2c-.2 0 0 -.5 -.3 -.3c0 -.2 .1 -.6 .1 -.7c0 .1 .2 -.1 .2 0l.2 -.1c0 0 -.1 .2 0 .1c0 -.1 -.1 -.4 0 -.4c-.1 -.2 -.4 -.4 -.4 -.6c.1 .1 .2 -.1 .3 0l-.5 -.4c0 -.1 .2 0 .2 -.2q-.1 0 -.2 -.1c0 0 0 -.4 .2 -.4c.1 0 0 .2 .1 0c0 -.1 -.1 -.1 -.1 -.3c.1 -.1 0 -.3 -.2 -.2c0 .1 .2 0 .1 .1c-.1 -.1 -.1 -.3 -.1 -.5q0 .1 .1 .1c-.2 -.2 -.2 -.5 -.3 -.7c-.1 0 .2 .1 .1 .1c.2 -.3 -.2 -.7 0 -1c.1 .1 -.1 .1 -.1 .1c0 -.2 .2 -.2 .1 -.3c.1 0 0 -.1 0 -.2c-.1 -.1 0 -.1 0 0c0 -.1 -.2 -.7 0 -1.1c-.1 .1 -.2 -.2 -.2 -.2h.1c.1 -.1 0 -.3 .1 -.3c-.2 -.2 .1 .7 0 .4c.1 0 -.2 -.3 0 -.2c0 -.2 -.2 -.3 -.1 -.5c0 0 .2 .1 .2 0c0 -.2 0 -.1 -.1 -.2V588c-.2 0 0 -.2 -.2 -.1c.1 0 0 -.3 .2 -.3h.1c0 0 -.1 -.1 -.2 -.2h.1c-.3 0 0 -.3 -.2 -.4c.1 -.2 0 -.5 .2 -.6c-.1 -.1 -.2 -.3 -.2 -.5q.1 .1 .1 .1c.1 -.1 0 -.1 0 -.2c0 0 .1 -.2 .2 -.4c0 -.1 -.2 -.1 -.3 -.1c.3 -.1 -.1 -.4 .1 -.6c0 .1 .1 .2 .2 .1c.2 -.1 -.2 -.3 -.1 -.5h-.2c.2 -.1 -.1 -.3 .1 -.3c-.1 -.1 .1 -.3 -.1 -.2c.2 -.4 -.1 -.9 .2 -1.2c0 0 0 -.2 -.1 -.1c-.1 0 .1 .1 0 .1h-.1c.1 -.2 .1 -.3 .3 -.1c.1 -.3 -.4 -.3 -.3 -.6c.1 0 .1 -.1 .1 -.2l-.1 -.1c0 -.3 .2 -.2 .3 -.2c0 -.1 0 -.2 -.1 -.3l.2 -.1c-.2 .1 -.1 -.1 -.2 -.2l.1 .1c0 0 0 -.2 0 -.2c-.1 0 -.1 .1 -.2 .2c0 -.1 0 -.2 -.1 -.2c.1 0 .1 -.2 .1 -.3c.1 -.1 -.1 -.1 -.1 -.2c.1 0 0 -.1 .1 -.1c0 .1 -.1 .1 0 .2c.1 -.1 .2 -.1 .1 -.2c-.1 -.1 -.3 0 -.2 -.2c0 .1 .1 .1 .2 .1v-.2H194h.1c-.2 -.1 -.1 -.3 -.2 -.3c0 -.1 .1 -.2 .1 -.3c.1 -.1 0 -.3 -.1 -.4c.1 0 0 -.2 0 -.3c.1 -.1 .4 0 .3 -.2c0 -.1 -.3 -.2 -.3 -.2c.1 -.3 -.2 -.6 0 -.8q0 -.1 -.1 -.1c.1 -.5 -.1 -.9 .1 -1.3c.1 .2 .2 .1 .2 .1c-.1 -.1 .1 -.2 0 -.2q-.2 0 -.3 .1c0 -.2 0 -.6 .1 -.8q-.1 .1 -.1 0c.1 0 .2 -.2 .1 -.3h-.1l.1 -.1c0 -.1 -.2 -.1 -.1 -.2c0 0 .1 0 .1 0c-.1 -.2 -.3 -.4 -.2 -.5l.2 -.2c0 0 -.1 -.2 -.2 0c.1 -.3 .2 -.5 .3 -.6c-.3 -.4 -.4 -1.1 -.3 -1.6c.1 -.1 -.1 -.1 0 -.2c0 .1 .1 -.1 .2 0c.1 -.2 -.1 -.2 -.2 -.4c-.1 0 .1 .1 0 .1c-.1 0 .1 -.3 -.1 -.3c.1 -.1 .2 0 .3 0l-.1 -.1c.2 -.2 .3 .3 .6 .2l-.1 -.1c.2 -.1 .2 .3 .3 0c-.1 -.1 -.3 -.3 -.4 -.1c-.1 -.3 -.4 -.2 -.4 -.4c.1 -.1 0 .2 .2 .1c.1 -.1 -.1 -.2 -.1 -.4c0 .2 -.2 .1 -.2 0c.1 -.2 .1 .1 .2 -.1c-.1 -.1 -.2 -.3 -.3 -.1c-.2 -.1 .1 -.2 -.1 -.3c.2 -.1 .4 .2 .4 0c-.1 0 -.2 -.3 -.4 -.2c.1 -.1 .2 -.1 .3 0c.1 -.1 -.3 -.3 0 -.4h-.2c.1 0 .1 -.1 .2 -.2c0 -.1 -.2 -.3 0 -.3c0 0 0 -.3 -.1 -.2c-.1 .2 .1 .2 -.1 .3c.1 -.1 -.1 -.3 -.1 -.3l.1 -.1c-.1 0 0 -.1 -.1 -.2c0 .1 .1 .1 .1 0h-.1c-.1 -.3 .2 -.1 .2 -.3l.1 .2c-.1 -.1 .1 -.2 0 -.3c-.1 0 -.2 -.1 -.3 -.1c-.1 -.1 .1 -.1 0 -.2l.1 .2c.1 0 .2 -.1 .2 -.3c0 -.1 -.2 -.2 -.3 -.1c0 -.1 .1 -.2 .2 -.1c0 -.2 -.1 0 -.2 -.1c.1 -.1 .2 -.3 .3 -.4l.2 .1v-.1c.2 .2 .1 0 .3 0c0 0 0 -.1 -.1 -.2c-.2 .2 -.3 -.2 -.6 -.2c-.1 -.3 .6 -.2 .2 -.5c0 .1 -.2 -.1 -.2 .1c.1 -.2 -.2 -.1 -.1 -.3c.1 .1 .2 -.2 .4 0c-.1 0 -.1 .2 0 .2c0 -.1 .2 0 .2 -.2c0 -.1 0 -.3 -.2 -.2c-.1 0 .1 .1 -.1 .1c0 -.3 .2 -.3 -.1 -.4c0 .2 -.1 .2 -.2 .2l-.1 -.2h.1c.1 -.2 -.1 0 -.1 -.3l.2 -.1c.1 0 -.1 .4 .2 .3c0 -.2 -.2 -.2 -.1 -.4q0 .1 .1 .2c0 -.1 .3 -.2 .1 -.4c-.1 -.1 -.1 0 -.2 -.1c0 -.2 -.1 -.3 -.1 -.5c.2 .1 0 -.3 .2 -.1c-.1 .1 -.1 .5 .1 .6c.2 -.1 -.1 .2 .2 .3c0 -.3 .2 -.3 .4 -.3c0 0 -.1 -.1 -.1 -.1c-.2 -.1 -.1 0 -.3 0c0 -.2 0 -.5 -.2 -.6c.1 -.1 .2 -.1 .3 0c-.1 -.3 -.1 -.6 0 -.8c-.3 .1 -.1 -.4 -.3 -.2c0 .1 -.2 .2 -.3 .2c0 -.1 .1 0 .2 -.1c-.2 -.1 .2 -.2 0 -.3c0 .3 .2 .1 .4 .1c-.1 -.2 .1 0 .1 -.2c-.1 -.1 -.1 -.4 -.2 -.6c.2 -.3 0 -.7 0 -.9c.1 -.1 .3 -.1 .4 -.2c0 -.1 -.3 .1 -.2 -.1h.1c-.1 -.1 .1 -.4 -.2 -.5l.2 .1c.1 -.1 0 -.1 0 -.1c.1 0 .1 -.1 .2 0c.1 -.2 -.1 -.3 -.1 -.5l-.1 .1c-.1 -.2 0 -.4 0 -.7h.1l-.1 -.1c.2 0 .2 -.1 .1 -.2l.3 .4c0 .1 -.1 -.1 -.2 -.1c-.1 .1 -.1 .3 0 .4q0 -.1 0 -.2c.1 0 .1 .1 .2 .2c0 -.1 .1 -.1 0 -.1c.1 0 .1 .1 .1 .3c0 -.1 -.1 .1 -.1 0c.1 0 .2 .2 .1 .4c-.1 .1 .2 .4 .1 .6c-.2 -.1 -.3 -.2 -.3 -.4c-.1 .2 0 .2 -.1 .3c.1 .1 .3 .2 .4 .3h-.2c.1 .2 .3 .2 .2 .4c0 .4 0 .8 0 1.1h-.2c.3 .1 .1 .5 .3 .7c-.2 .4 .1 .8 -.1 1c.1 .6 .1 1.2 .1 1.8l-.2 -.1c.2 .1 -.1 .1 0 .2c.1 -.1 .1 .1 .2 .2c-.1 .3 0 .7 .2 1h-.2c.3 .2 .1 .5 0 .9c0 0 -.1 .1 -.1 .2c.2 .1 .2 .2 .3 .5c0 .2 -.1 .5 -.1 .7c.2 .7 .1 1.4 .2 2.2h-.1c.3 .7 0 1.6 .2 2.2h-.3c0 .2 .1 .4 .3 .3c-.1 .2 .1 .5 -.1 .7c-.1 .2 .1 .2 .1 .4c-.1 .4 -.1 .5 0 .9v-.1c0 -.1 -.1 -.1 -.2 0c.1 .2 0 .5 .3 .4c-.2 .4 .1 .9 -.1 1.3c0 0 .1 .1 .1 .1c0 .4 -.1 .7 0 1c0 .1 -.1 -.1 -.2 .1c.1 0 .2 0 .2 .1c.1 .5 -.2 1.1 -.1 1.6c.1 .9 .1 1.9 .1 2.8l-.1 -.1c.2 .3 -.2 .7 .1 1c0 0 0 .2 -.1 .2c.1 .2 -.1 .6 0 1q0 -.1 0 -.1c-.1 .3 .1 .6 -.1 1q0 -.1 0 -.1c-.2 .1 .2 .3 -.1 .4c0 0 .2 0 .1 0c-.1 .8 .1 1.6 .2 2.4c-.2 .6 -.5 .1 -.3 .5c0 .1 .1 0 .1 0c0 .2 -.3 .3 -.2 .4c.2 0 .1 .1 .2 .1c-.1 .4 -.3 .5 -.1 .7h-.1c.2 .4 .1 .7 .4 1c0 1.9 .2 3.6 .2 5.4c0 1.7 .1 3.5 -.1 5.3q-.2 .4 -.1 .9q0 -.1 -.1 0c.2 0 .1 .3 .2 .3c0 .7 0 1.3 0 2c0 -.1 -.1 -.2 -.1 -.1l.1 .2c0 .1 .1 .2 .1 .1c.2 1.7 -.2 3.4 -.1 5c-.1 .4 0 1 0 1.4c-.3 1.3 -.5 2.5 -.3 3.8c0 0 -.5 -.2 -.6 -.7Z" class="g1_5"/>
<path d="M194.9 558.1c-.1 0 -.1 .2 -.2 .1c.1 0 .2 -.1 .2 -.1Z" class="g1_5"/>
<path d="M194 562.1c0 0 -.1 0 -.1 0c0 0 -.1 -.1 0 -.1c0 .1 0 0 .1 .1Z" class="g1_5"/>
<path d="M193.9 563.1c-.1 0 -.1 -.2 -.1 -.4Z" class="g1_5"/>
<path d="M193.6 564q-.1 .1 -.1 0h.1Z" class="g1_5"/>
<path d="M193.8 564.1c0 .1 -.1 .1 -.1 .2c0 0 -.1 -.2 .1 -.2Z" class="g1_5"/>
<path d="M193.5 566.2c0 0 .1 .1 0 .2c.1 -.1 -.1 -.3 0 -.2Z" class="g1_5"/>
<path d="M193.6 567.1c0 0 0 .1 0 .1c0 0 -.1 0 -.1 -.1Z" class="g1_5"/>
<path d="M194 584.5l-.1 -.1h.1Z" class="g1_5"/>
<path d="M194 592.1c0 .1 -.1 .1 -.1 .1c0 -.1 .1 0 .1 -.1Z" class="g1_5"/>
<path d="M194.4 596.2v0h.2Z" class="g1_5"/>
</svg>